<svg width="573" height="278" viewBox="0 0 573 278" fill="none" xmlns="http://www.w3.org/2000/svg">
<mask id="mask0_439_10080" style="mask-type:alpha" maskUnits="userSpaceOnUse" x="0" y="0" width="574" height="278">
<path fill-rule="evenodd" clip-rule="evenodd" d="M77 58.4549C77 58.9723 81.0571 61.7937 86.0147 64.7246C104.071 75.3977 110.661 83.5067 128.363 116.829C136.08 131.356 140.721 138.655 149.163 149.545C155.141 157.255 160.276 163.318 160.576 163.02C160.875 162.72 157.89 157.528 153.941 151.48C146.078 139.438 142.226 131.623 139.006 121.178C135.579 110.065 136.575 101.593 141.307 101.593C143.564 101.593 154.299 109.105 161.034 115.397C169.86 123.642 176.883 134.082 183.453 148.725C191.158 165.899 191.579 166.641 198.619 175.451C207.897 187.061 214.015 191.565 232.735 200.562C261.691 214.477 270.684 222.065 277.202 238.083C279.276 243.182 282.941 259.44 285.142 273.314C285.469 275.37 286.157 277.052 286.67 277.052C287.805 277.052 288.125 275.74 290.623 260.89C291.703 254.469 293.526 246.394 294.674 242.945C297.505 234.443 303.568 224.432 308.787 219.639C314.819 214.1 326.604 206.974 337.623 202.201C342.766 199.974 349.91 196.53 353.497 194.549C364.644 188.395 381.247 170.16 385.488 159.415C389.196 150.016 396.761 134.933 400.584 129.31C408.579 117.552 425.738 102.761 431.914 102.305C434.238 102.133 435.092 102.679 436.271 105.082C439.566 111.802 431.917 132.953 419.227 152.208C415.878 157.291 413.389 161.702 413.698 162.01C414.253 162.565 425.761 148.573 432.643 138.978C434.608 136.236 440.965 125.138 446.77 114.316C459.554 90.4752 463.198 85.031 472.008 76.596C478.441 70.437 492.59 60.719 495.123 60.719C495.763 60.719 496.287 60.053 496.287 59.2395C496.287 57.9525 495.802 57.9665 492.544 59.3532C480.118 64.6399 479.587 64.9569 456.355 80.8968C453.884 82.5915 443.327 89.8113 432.895 96.9393C422.463 104.068 413.021 110.704 411.913 111.685C407.211 115.85 392.503 123.742 385.08 126.082C380.672 127.473 372.556 129.491 367.045 130.566C344.697 134.924 335.6 138.674 324.781 147.984C319.431 152.588 320.004 153.602 325.757 149.714C342.205 138.597 357.745 133.408 368.475 135.449C374.822 136.656 379.49 141.849 379.476 147.686C379.453 157.687 368.533 172.148 358.89 174.948C353.913 176.392 353.331 176.368 349.183 174.535C345.719 173.006 344.515 171.816 343.587 169.007C342.936 167.038 342.692 164.521 343.045 163.412C344.02 160.342 348.411 155.545 351.902 153.735C356.724 151.235 353.498 151.108 346.929 153.54C342.163 155.303 339.21 157.515 331.321 165.226C321.376 174.946 318.858 179.087 317.281 188.326C316.618 192.205 316.139 192.73 322.715 182.37C325.54 177.921 327.514 176.073 331.646 174.018C338.353 170.68 339.437 170.711 344.046 174.369C346.119 176.014 348.202 177.359 348.676 177.359C349.149 177.359 349.537 178.981 349.537 180.963C349.537 186.271 345.017 193.807 339.741 197.297C335.381 200.181 329.072 202.117 327.888 200.934C327.074 200.122 332.084 193.5 336.455 189.61C338.434 187.848 339.474 186.39 338.765 186.37C334.131 186.234 317.799 198.776 308.644 209.5C301.883 217.42 294.787 230.839 292.007 240.963C290.293 247.201 290.26 247.242 286.915 246.945C283.63 246.653 283.478 246.435 280.612 237.899C277.03 227.23 274.711 222.542 269.111 214.649C261.669 204.158 243.964 188.917 236.738 186.78C234.711 186.181 235.31 187.187 239.982 192.227C243.135 195.627 245.713 199.055 245.713 199.847C245.713 203.661 233.814 198.641 228.985 192.79C224.974 187.931 221.978 177.359 224.611 177.359C225.085 177.359 227.169 176.014 229.241 174.369C233.797 170.754 235.412 170.675 241.503 173.771C247.202 176.667 249.673 179.21 253.742 186.361L256.845 191.815L256.245 187.495C254.744 176.671 241.995 161.186 229.409 154.899C220.312 150.355 216.569 150.208 222.955 154.646C230.705 160.033 232.853 166.43 228.688 171.718C223.325 178.527 211.718 176.58 203.495 167.491C198.858 162.366 195.172 155.101 194.322 149.415C193.767 145.702 194.048 144.378 196.012 141.47C199.182 136.775 202.898 135.195 210.765 135.195C220.796 135.195 230.895 139.003 245.077 148.132C248.846 150.558 252.12 152.351 252.354 152.118C253.321 151.152 242.353 142.522 235.76 139.062C230.172 136.129 224.791 134.506 210.482 131.438C200.484 129.294 189.651 126.587 186.407 125.421C180.224 123.201 166.074 115.252 161.21 111.266C159.644 109.983 150.275 103.393 140.392 96.6233C130.509 89.8531 117.481 80.8848 111.441 76.6947C97.7048 67.1651 89.6176 62.2871 84.4873 60.4348C82.291 59.6423 79.7074 58.6613 78.747 58.2546C77.7867 57.8478 77 57.9385 77 58.4549Z" fill="#FF0000"/>
<path fill-rule="evenodd" clip-rule="evenodd" d="M251.201 5.32512C262.933 18.0246 268.984 35.3564 272.044 65.0229L272.714 71.5191L263.851 63.0211C258.877 58.2509 252.358 53.133 248.994 51.357C245.698 49.616 233.357 44.9977 221.571 41.096C199.399 33.7544 186.335 27.6969 171.665 17.9547C167.594 15.2513 164.118 13.1835 163.941 13.3614C163.763 13.5383 166.819 17.2521 170.731 21.6135C179.23 31.0889 182.54 37.5321 182.553 44.63C182.569 52.9141 178.765 54.6431 164.169 52.984C148.416 51.1931 139.76 46.7217 120.617 30.4863C115.128 25.831 110.637 22.2771 110.637 22.5899C110.637 23.3685 118.005 34.2491 123.467 41.5368C125.938 44.8348 135.84 55.2767 145.47 64.7411C155.1 74.2065 162.753 82.1768 162.477 82.4537C161.758 83.1713 147.126 79.5574 140.098 76.9269C129.624 73.0062 119.855 61.8438 117.57 51.1871L116.496 46.1761L105.824 43.6775C85.2972 38.8724 74.4614 37.6161 54.8746 37.774C33.3388 37.9479 20.545 39.3011 9.67317 42.5562C-3.05271 46.3669 -3.14961 46.9686 8.95391 47.0036C17.3123 47.0266 20.8796 47.4913 25.2411 49.1243C32.7244 51.9257 43.3345 59.1834 53.8856 68.7178C62.4058 76.4182 69.2737 80.9246 87.1053 90.5159C97.3777 96.0407 102.803 100.711 109.413 109.717C111.99 113.228 114.265 115.597 114.47 114.982C114.675 114.367 113.435 111.002 111.714 107.505C106.303 96.5084 90.393 81.1714 71.3376 68.5828C62.5766 62.7953 59.1012 59.5402 55.7996 54.0294C52.9306 49.2412 53.1563 47.3324 56.8585 45.0797C61.6186 42.1834 66.2538 41.8096 76.1726 43.5226C92.0423 46.263 103.137 53.4717 111.683 66.595C119.68 78.8738 134.115 86.4333 157.227 90.445C171.146 92.8615 174.313 94.3317 194.849 107.905C205.399 114.878 214.703 120.994 215.524 121.497C216.345 121.999 215.303 120.023 213.207 117.104C211.112 114.187 209.545 111.652 209.725 111.473C210.338 110.858 249.235 120.805 252.115 122.313C258.928 125.881 268.775 139.979 264.453 139.979C263.89 139.979 260.968 139.113 257.96 138.056C247.972 134.544 251.318 137.467 269.07 147.765L276.157 151.878L276.791 181.158C277.139 197.261 277.883 215.16 278.442 220.931C280.411 241.235 284.245 262.088 286.408 264.256C286.873 264.722 287.953 262.698 288.806 259.758C293.323 244.195 296.294 215.307 297.14 178.719C297.665 156.001 297.996 151.799 299.35 150.67C300.225 149.941 305.211 146.939 310.431 143.999C321.412 137.816 320.921 138.148 320.186 137.412C319.874 137.1 317.239 137.551 314.33 138.416C306.907 140.621 306.174 139.327 310.934 132.415C317.376 123.057 319.243 122.111 342.78 116.29C354.343 113.429 363.937 111.224 364.101 111.388C364.265 111.551 362.824 113.666 360.9 116.088C358.976 118.509 357.398 120.834 357.393 121.253C357.387 121.673 365.549 116.557 375.532 109.885C385.514 103.212 395.74 96.7243 398.259 95.467C400.776 94.2088 408.547 92.009 415.528 90.5769C444.137 84.7064 452.1 80.216 464.244 63.1061C472.419 51.5889 483.389 45.5864 500.956 43.0169C508.326 41.9386 509.371 42.0065 513.521 43.8434C520.054 46.7347 520.794 48.7455 517.31 54.1434C514.461 58.5568 509.848 63.217 505.23 66.3452C503.857 67.2756 499.768 70.053 496.144 72.5155C486.638 78.9757 473.517 90.7698 467.979 97.8316C463.308 103.787 457.577 114.625 458.572 115.62C458.846 115.895 461.587 112.774 464.663 108.685C471.631 99.4237 476.102 95.7728 488.747 89.0228C503.472 81.1634 511.441 75.8046 520.832 67.4445C531.272 58.152 542.865 50.5025 549.493 48.5337C552.478 47.6472 558.654 47.0216 564.601 47.0036C571.798 46.9816 574.171 46.6888 572.944 45.9732C570.278 44.4181 559.92 41.2779 553.498 40.0766C545.258 38.5356 512.962 36.8545 505.23 37.5641C493.495 38.6415 477.939 41.137 467.02 43.6935C456.691 46.1121 456.281 46.31 456.271 48.8695C456.259 52.1445 452.305 60.8214 448.627 65.6466C444.371 71.2273 437.614 75.8386 430.404 78.0793C421.985 80.6957 411.327 82.9584 411.327 82.1289C411.327 81.7771 418.32 74.5233 426.866 66.0104C435.413 57.4974 444.795 47.6082 447.715 44.0353C454.118 36.2009 462.275 24.3309 462.275 22.8478C462.275 22.2571 460.14 23.7603 457.529 26.1878C443.99 38.7794 430.341 48.0839 421.72 50.5984C413.764 52.9191 400.506 54.1514 396.145 52.977C391.392 51.6968 389.949 49.0554 390.671 42.9549C391.48 36.129 395.173 29.5519 402.866 21.2397C406.562 17.2451 409.348 13.7382 409.056 13.4473C408.765 13.1555 406.484 14.4767 403.988 16.3826C393.072 24.7187 375.677 33.0378 354.21 40.1896C323.426 50.4455 320.735 51.8297 308.183 63.8766L301.44 70.3478V66.7579C301.44 61.1242 303.384 48.2668 305.513 39.8288C309.096 25.6202 315.73 12.6678 323.768 4.1818C327.445 0.301083 327.574 0.0142504 324.916 1.64329C314.09 8.27738 301.229 20.6521 294.945 30.4783C291.228 36.2919 287.5 45.3306 287.406 48.7575C287.38 49.733 286.086 47.1115 284.533 42.932C282.979 38.7514 280.013 32.68 277.941 29.4399C271.758 19.7686 258.592 7.03112 247.995 0.467984C245.87 -0.84824 246.802 0.562925 251.201 5.32512ZM205.954 49.3512C203.624 51.357 203.345 52.1675 203.923 55.2527C204.687 59.3253 208.362 66.616 212.167 71.6081C214.818 75.084 216.528 75.2809 216.528 72.1098C216.528 68.8597 222.392 62.0677 227.194 59.7571C233.121 56.9037 234.753 54.4652 232.071 52.4713C228.875 50.0977 224.924 50.7374 220.891 54.2793C218.858 56.0652 217.042 57.0776 216.857 56.528C215.95 53.8375 212.42 49.0424 210.647 48.0939C209.043 47.2344 208.13 47.4793 205.954 49.3512ZM362.121 48.1169C361.156 48.6796 359.461 50.9143 358.355 53.084C357.248 55.2527 356.074 57.0277 355.746 57.0277C355.418 57.0277 353.613 55.6785 351.735 54.0294C347.765 50.5405 343.529 50.1237 340.957 52.9671C338.726 55.4336 339.602 56.7868 344.963 59.1594C349.966 61.3731 355.989 67.9482 356.927 72.2187L357.577 75.182L360.012 72.8943C363.44 69.6722 369.37 57.3895 369.37 53.5107C369.37 51.1601 368.689 49.8149 366.908 48.6476C364.048 46.7727 364.368 46.8077 362.121 48.1169ZM186.226 54.696C185.86 55.0618 185.56 57.1226 185.56 59.2743V63.187L182.195 61.1073C177.549 58.234 173.57 58.3119 173.577 61.2752C173.586 65.1209 176.69 68.7298 187.911 77.9453C195.759 84.3905 202.333 88.693 211.709 93.5212C218.834 97.19 224.843 100.011 225.063 99.7925C225.283 99.5726 223.701 96.0297 221.548 91.9191C216.763 82.7825 207.244 71.2103 202.328 68.5509L198.687 66.582L194.208 69.8001C191.744 71.5701 189.526 73.0182 189.279 73.0182C189.031 73.0182 189.891 70.9185 191.19 68.352C194.027 62.7453 194.229 57.9511 191.724 55.6835C189.835 53.9735 187.388 53.5337 186.226 54.696ZM381.831 55.4236C379.287 57.2855 379.547 63.9806 382.348 68.7298C384.842 72.9603 384.512 73.7068 381.261 71.1823C376.297 67.3286 374.65 66.8759 371.053 68.38C366.735 70.1839 357.047 82.0969 351.581 92.3219C346.597 101.644 346.499 101.636 362.378 93.2903C374.136 87.1099 376.193 85.6878 388.676 75.104C397.118 67.9472 400.338 63.9346 400.338 60.5756C400.338 58.2869 394.175 58.5857 391.075 61.0253C387.801 63.6018 386.982 63.5488 387.698 60.8054C389.15 55.2537 386.006 52.3694 381.831 55.4236ZM237.057 63.3639C231.174 67.6674 245.759 87.6306 256.237 89.6155C259.783 90.2871 260.491 91.5873 257.735 92.3678C253.56 93.5501 243.794 94.0588 241.518 93.2123L239.038 92.2899L241.329 91.5623C245.059 90.378 243.345 85.4839 237.023 79.2646C231.517 73.8497 227.336 72.4426 226.125 75.5987C224.214 80.5808 227.67 91.6253 233.41 98.875C236.697 103.029 247.674 110.996 250.107 110.996C251.738 110.996 251.928 107.684 250.458 104.933C248.54 101.348 251.155 102.966 256.623 108.747C259.611 111.907 265.187 119.432 269.012 125.467L275.967 136.441L276.746 122.291C277.468 109.166 277.341 107.331 274.998 96.9421C273.607 90.7818 272.47 84.4985 272.47 82.9784C272.47 79.7063 264.546 71.9479 254.988 65.8605C250.084 62.7383 248.075 62.0417 243.941 62.0347C241.162 62.0287 238.064 62.6274 237.057 63.3639ZM323.418 62.8442C315.55 66.4111 301.44 78.3721 301.44 81.4743C301.44 82.7185 300.342 89.1307 299 95.7229C296.811 106.476 296.631 109.136 297.252 121.595L297.944 135.481L304.437 125.052C308.009 119.314 313.339 112.006 316.283 108.811C321.596 103.043 324.315 101.374 322.896 104.75C321.098 109.031 321.152 110.996 323.069 110.996C325.384 110.996 331.619 106.944 336.736 102.116C347.163 92.2759 351.695 74.0176 343.709 74.0176C339.904 74.0176 330.41 83.9948 330.41 87.9934C330.41 89.7214 331.07 91.0466 332.131 91.4544C335.934 92.9145 330.889 94.0448 323.418 93.4062C313.729 92.5787 311.638 91.0936 317.68 89.3316C325.104 87.1659 333.637 78.45 337.346 69.2445C338.511 66.3552 338.457 65.7405 336.881 63.9976C335.527 62.5014 333.865 62.0417 330.006 62.0947C327.207 62.1337 324.242 62.4705 323.418 62.8442Z" fill="white"/>
</mask>
<g mask="url(#mask0_439_10080)">
<path fill-rule="evenodd" clip-rule="evenodd" d="M-32 23.6629C-32 121.928 -31.8056 202.325 -31.5674 202.324C-30.6924 202.32 5.42458 136.903 6.02157 134.241C6.46456 132.267 6.42649 130.857 5.87449 128.772C5.45804 127.199 -2.94999 111.524 -13.2263 93.1611C-29.6334 63.8442 -31.5063 60.2369 -30.8574 59.199C-25.9419 51.3349 5.58494 -6.164 6.09771 -8.1996C6.62087 -10.2756 6.62433 -11.5446 6.1127 -13.5745C5.62012 -15.5294 -26.2868 -73.7205 -31.0067 -81.2722C-31.4601 -81.9972 -31.4647 -82.5084 -31.0235 -83.0559C-30.6826 -83.4778 -22.2942 -98.3466 -12.3813 -116.098C-2.46894 -133.849 6.50782 -149.864 7.5674 -151.686L9.49334 -155H-11.253H-32V23.6629ZM11.7602 -153.415C12.3716 -152.543 18.642 -141.456 25.6951 -128.777C32.7477 -116.098 39.1986 -104.986 40.0303 -104.086C45.082 -98.614 54.0645 -98.614 59.2424 -104.086C60.0944 -104.986 66.8054 -116.487 74.155 -129.641C81.5046 -142.796 87.7825 -153.883 88.1056 -154.28C88.5739 -154.855 80.8171 -155 49.671 -155H10.6487L11.7602 -153.415ZM90.1665 -154.274C90.4976 -153.876 96.7691 -142.789 104.103 -129.636C119.05 -102.828 120.086 -101.425 125.78 -100.243C130.542 -99.2554 135.027 -100.639 138.241 -104.086C139.081 -104.986 145.404 -115.838 152.293 -128.201C159.181 -140.563 165.441 -151.65 166.203 -152.839L167.589 -155H128.577C97.2894 -155 89.6831 -154.856 90.1665 -154.274ZM169.168 -154.28C169.488 -153.883 175.765 -142.796 183.117 -129.641C191.048 -115.448 197.347 -104.835 198.609 -103.538C203.54 -98.4647 212.304 -98.7229 217.245 -104.086C218.447 -105.391 246.018 -153.968 246.018 -154.782C246.018 -154.901 228.596 -155 207.302 -155C176.403 -155 168.703 -154.855 169.168 -154.28ZM261.633 -130.362C269.711 -115.899 276.26 -104.83 277.493 -103.561C282.432 -98.4745 291.775 -98.7915 296.33 -104.199C297.417 -105.491 320.657 -146.465 324.408 -153.703L325.08 -155H286.477H247.873L261.633 -130.362ZM335.802 -139.007C340.726 -130.21 346.988 -118.994 349.719 -114.08C355.27 -104.093 357.335 -101.77 361.827 -100.465C366.542 -99.0958 372.185 -100.607 375.324 -104.079C376.112 -104.951 385.357 -121.255 401.993 -151.11L404.161 -155H365.506H326.852L335.802 -139.007ZM406.824 -153.127C407.444 -152.096 413.73 -140.88 420.793 -128.201C427.856 -115.521 434.314 -104.41 435.143 -103.509C440.154 -98.067 449.245 -98.067 454.332 -103.509C455.174 -104.41 461.366 -115.003 468.092 -127.048C474.817 -139.093 481.09 -150.31 482.032 -151.974L483.745 -155H444.721H405.698L406.824 -153.127ZM486.701 -152.551C487.482 -151.203 493.763 -139.987 500.66 -127.624C507.556 -115.262 513.885 -104.41 514.724 -103.509C519.793 -98.0665 528.852 -98.0665 533.927 -103.509C534.766 -104.41 541.091 -115.262 547.982 -127.624C554.873 -139.987 561.154 -151.204 561.94 -152.551L563.368 -155H524.325H485.281L486.701 -152.551ZM567.132 -151.061C586.5 -116.113 605.17 -82.9908 605.509 -82.9764C605.747 -82.9666 605.942 -99.1678 605.942 -118.979V-155H585.446H564.95L567.132 -151.061ZM5.89987 -135.656C4.24676 -135.132 2.27583 -133.901 0.997059 -132.595C-1.64988 -129.891 -16.3191 -103.576 -17.092 -100.144C-18.3552 -94.5359 -15.4008 -88.6671 -9.79316 -85.6431C-7.614 -84.4685 -6.59191 -84.389 8.62698 -84.2138C19.1865 -84.0921 25.6219 -84.2501 27.2969 -84.6714C34.5311 -86.4914 39.1455 -93.7832 37.3378 -100.537C36.6226 -103.209 21.6108 -130.388 19.72 -132.435C16.6186 -135.792 10.6867 -137.175 5.89987 -135.656ZM84.9216 -135.656C83.2864 -135.137 81.2837 -133.894 80.0188 -132.611C77.4324 -129.989 62.8267 -103.982 61.9199 -100.384C60.8229 -96.0297 62.0947 -92.0282 65.7326 -88.3933C69.8948 -84.2351 71.3235 -83.9988 90.9699 -84.2212C108.502 -84.4195 108.55 -84.4293 112.946 -88.6383C115.615 -91.1937 117.115 -95.6591 116.556 -99.384C116.31 -101.027 113.564 -106.574 108.441 -115.785C104.182 -123.441 100.154 -130.467 99.4899 -131.4C96.6261 -135.418 90.1422 -137.312 84.9216 -135.656ZM163.897 -135.744C159.372 -134.065 157.928 -132.224 149.834 -117.807C141.672 -103.27 140.464 -100.674 140.464 -97.6849C140.464 -92.6951 144.522 -86.741 149.006 -85.1532C150.578 -84.5964 155.657 -84.3993 168.438 -84.3993C184.216 -84.3993 185.921 -84.4939 187.761 -85.4736C192.826 -88.1691 195.482 -92.3481 195.522 -97.6844C195.547 -101.108 195.403 -101.432 187.552 -115.551C183.154 -123.459 178.943 -130.746 178.194 -131.744C175.438 -135.417 168.357 -137.398 163.897 -135.744ZM242.995 -135.737C237.856 -133.905 237.5 -133.441 227.496 -115.521L219.774 -101.689V-97.655C219.774 -94.3145 220.04 -93.1676 221.324 -90.9868C223.159 -87.8677 226.268 -85.5825 229.905 -84.6812C231.649 -84.2483 237.974 -84.091 248.651 -84.2138C263.046 -84.3797 264.979 -84.514 266.783 -85.4736C271.864 -88.1778 274.472 -92.3222 274.487 -97.7161C274.498 -101.168 274.344 -101.513 266.459 -115.759C257.584 -131.793 255.621 -134.33 251.04 -135.69C247.506 -136.738 245.831 -136.748 242.995 -135.737ZM322.729 -136.019C320.237 -135.262 317.886 -133.84 316.319 -132.142C315.487 -131.242 311.219 -124.06 306.834 -116.18C299.58 -103.148 298.838 -101.548 298.614 -98.4613C298.138 -91.8744 302.503 -86.1191 309.076 -84.6685C311.049 -84.2334 317.442 -84.076 327.924 -84.2045C345.209 -84.4166 345.602 -84.4869 349.461 -88.0671C352.648 -91.0231 354.201 -95.9686 353.259 -100.159C352.505 -103.512 337.382 -130.49 334.895 -132.917C331.955 -135.789 326.525 -137.173 322.729 -136.019ZM401.751 -136.019C399.267 -135.264 396.91 -133.842 395.327 -132.142C393.867 -130.574 380.827 -107.736 378.619 -102.879C376.232 -97.6285 378.107 -90.3978 382.72 -87.0591C386.501 -84.3221 389.335 -83.9884 406.946 -84.2045C422 -84.3895 422.929 -84.4639 425.186 -85.6707C430.16 -88.3293 432.568 -92.7319 432.201 -98.4964C431.972 -102.098 431.608 -102.894 424.03 -116.386C419.667 -124.152 415.146 -131.486 413.983 -132.684C410.953 -135.807 405.734 -137.229 401.751 -136.019ZM481.349 -136.019C478.872 -135.266 476.511 -133.844 474.915 -132.142C473.255 -130.373 458.816 -104.915 457.766 -101.907C457.415 -100.9 457.127 -98.8503 457.127 -97.3512C457.127 -92.491 459.445 -88.6285 463.947 -85.9837L466.645 -84.3993H484.57H502.497L505.317 -86.1422C509.619 -88.7991 511.551 -91.9412 511.821 -96.7173C512.079 -101.277 512.379 -100.587 502.29 -118.691C494.988 -131.796 492.518 -134.781 488.047 -135.906C485.144 -136.636 483.473 -136.664 481.349 -136.019ZM560.22 -135.889C555.943 -134.7 553.418 -131.47 544.979 -116.386C537.434 -102.899 537.069 -102.097 536.845 -98.4964C536.485 -92.7296 538.894 -88.327 543.864 -85.6707C546.129 -84.4604 547.026 -84.3907 562.541 -84.2149C581.725 -83.9982 583.686 -84.3192 587.707 -88.3374C590.572 -91.2006 591.805 -94.7958 591.393 -99.086C591.166 -101.441 589.67 -104.564 583.173 -116.236C578.805 -124.084 574.548 -131.243 573.715 -132.144C570.566 -135.546 564.773 -137.154 560.22 -135.889ZM586.639 -48.2264C568.333 -15.4746 568.2 -15.2124 567.978 -11.4432C567.796 -8.36385 567.997 -7.16681 569.039 -5.10354C571.71 0.179116 604.425 58.5685 605.166 59.3747C605.816 60.0819 605.942 48.7662 605.942 -10.5055C605.942 -49.4039 605.747 -81.226 605.509 -81.2214C605.272 -81.2168 596.78 -66.3694 586.639 -48.2264ZM-8.04314 -79.3541C-11.5778 -78.4216 -16.0589 -73.6358 -16.9766 -69.8124C-17.3764 -68.1491 -17.5315 -65.8253 -17.3216 -64.6444C-16.968 -62.6491 -2.56526 -35.9598 -0.176731 -32.8724C3.02394 -28.736 8.6241 -26.9506 13.7392 -28.4363C18.74 -29.8893 20.2945 -31.8073 28.74 -46.9487C32.987 -54.562 36.7933 -61.7944 37.1982 -63.0209C39.4028 -69.696 34.8807 -77.5168 27.6989 -79.4498C24.7093 -80.2538 -4.9313 -80.1748 -8.04314 -79.3541ZM70.5973 -79.1755C64.958 -77.4407 60.8073 -70.7506 61.6961 -64.8288C61.939 -63.2128 64.7468 -57.5584 69.8965 -48.3152C78.9287 -32.1024 79.277 -31.567 81.8271 -29.9924C87.099 -26.7367 94.1372 -27.4168 98.2353 -31.5779C101.136 -34.5236 115.711 -60.9023 116.462 -64.5672C117.704 -70.625 113.519 -77.398 107.416 -79.2095C103.329 -80.4221 74.564 -80.3956 70.5973 -79.1755ZM149.603 -79.221C146.33 -78.0182 144.684 -76.7307 142.816 -73.9124C140.778 -70.8388 140.048 -66.8979 140.917 -63.6658C141.502 -61.4919 155.182 -36.4451 157.763 -32.824C159.366 -30.5751 162.167 -28.9406 165.727 -28.1776C169.906 -27.2825 174.138 -28.5528 177.162 -31.6102C179.887 -34.3656 194.562 -60.5513 195.355 -64.0761C196.747 -70.251 192.501 -77.4102 186.369 -79.2296C182.445 -80.3938 152.776 -80.3869 149.603 -79.221ZM228.648 -79.2815C221.937 -76.8851 217.983 -69.3761 220.082 -63.0105C221.018 -60.1715 235.889 -33.5438 237.505 -31.8142C242.165 -26.8249 251.423 -26.78 256.369 -31.7226C258.475 -33.8262 273.403 -60.6055 274.254 -63.8041C275.933 -70.1196 271.269 -77.8038 264.764 -79.4406C261.033 -80.3788 231.355 -80.2486 228.648 -79.2815ZM307.59 -79.2544C301.803 -77.1911 298.179 -71.7431 298.612 -65.7585C298.824 -62.833 299.684 -60.9916 306.866 -48.0875C311.276 -40.1647 315.817 -32.7323 316.959 -31.5716C322.019 -26.4267 330.886 -26.7996 335.775 -32.3617C338.6 -35.5771 352.699 -61.2994 353.249 -64.2427C353.777 -67.0679 353.244 -70.4878 351.86 -73.1637C350.58 -75.6362 346.596 -78.7334 343.785 -79.4406C339.975 -80.399 310.374 -80.2469 307.59 -79.2544ZM386.542 -79.2308C380.834 -77.1975 377.817 -72.8076 377.817 -66.533V-62.4987L385.604 -48.4973C389.887 -40.7969 394.13 -33.5922 395.033 -32.4874C399.82 -26.6313 409.238 -26.4175 414.547 -32.0442C415.397 -32.945 419.68 -40.0362 424.064 -47.8023L432.036 -61.9224V-66.6276C432.036 -70.9374 431.889 -71.5419 430.285 -73.8231C428.275 -76.6805 425.59 -78.6579 422.587 -79.4913C419.252 -80.4169 389.265 -80.2002 386.542 -79.2308ZM466.101 -79.217C463.042 -78.1277 461.213 -76.6978 459.146 -73.7775C457.584 -71.5708 457.416 -70.8993 457.416 -66.8863V-62.4405L465.409 -48.061C469.806 -40.1526 474.089 -32.945 474.926 -32.0442C477.426 -29.3573 480.631 -28.011 484.525 -28.011C488.417 -28.011 491.615 -29.3533 494.133 -32.0442C496.275 -34.3334 511.246 -61.3783 511.696 -63.7707C513.03 -70.8774 508.955 -77.6124 502.186 -79.4913C498.814 -80.4272 468.861 -80.1996 466.101 -79.217ZM546.528 -79.5576C537.96 -76.8384 534.248 -68.2113 538.25 -60.3185C542.107 -52.7143 553.159 -33.515 554.526 -32.0442C559.587 -26.6019 568.678 -26.6019 573.715 -32.0442C574.548 -32.945 578.811 -40.1151 583.187 -47.9775C590.119 -60.4314 591.178 -62.6785 591.405 -65.4265C591.86 -70.9039 589.14 -75.9751 584.383 -78.5173C582.101 -79.7374 581.317 -79.7933 564.989 -79.9028C555.631 -79.965 547.323 -79.81 546.528 -79.5576ZM441.55 -64.5539C439.068 -63.7989 436.71 -62.3771 435.123 -60.6769C433.338 -58.7635 410.244 -17.6659 409.231 -14.598C408.853 -13.4534 408.657 -11.1568 408.795 -9.49405C409.014 -6.84926 410.548 -3.7751 421.051 15.0796C427.654 26.9324 433.668 37.4534 434.416 38.4585C435.164 39.4642 437.216 40.9909 438.975 41.8508C444.15 44.3809 449.993 43.3879 453.996 39.2965C454.933 38.3398 461.232 27.6684 467.995 15.5822C481.264 -8.12986 481.866 -9.61796 480.215 -14.6165C479.827 -15.7916 474.203 -26.2676 467.717 -37.8968C454.873 -60.9276 453.213 -63.1915 448.247 -64.4404C445.345 -65.1706 443.673 -65.1988 441.55 -64.5539ZM521.149 -64.5816C518.604 -63.7592 516.292 -62.3587 514.704 -60.6769C513.853 -59.7773 507.638 -49.1854 500.893 -37.1401C489.249 -16.3489 488.616 -15.0608 488.389 -11.717C488.21 -9.07447 488.432 -7.56218 489.278 -5.66547C490.924 -1.97291 512.388 36.2886 514.09 38.5657C516.915 42.3424 523.033 44.0904 528.306 42.6271C532.715 41.4041 534.764 38.5421 547.276 16.1216C553.747 4.52466 559.342 -5.82338 559.708 -6.87403C560.74 -9.83234 560.492 -13.2356 559.014 -16.3922C556.297 -22.1929 535.388 -59.0897 533.916 -60.6787C530.957 -63.8744 524.792 -65.759 521.149 -64.5816ZM45.7136 -63.8202C41.1597 -62.6123 39.1842 -59.866 26.5269 -37.1493C19.2995 -24.1778 14.4284 -14.7992 14.0829 -13.1895C13.7276 -11.5325 13.7138 -9.66348 14.046 -8.18519C14.5646 -5.87929 36.5413 34.1596 39.3907 37.9894C41.3056 40.5633 45.9143 42.6692 49.6485 42.6761C53.6544 42.6842 58.075 40.4307 60.208 37.2932C64.0783 31.6007 84.5565 -5.94096 85.0906 -8.32409C85.4765 -10.0433 85.4805 -11.7717 85.1039 -13.4523C84.3356 -16.8769 61.3916 -57.8448 58.6743 -60.6429C55.4511 -63.9632 50.6706 -65.1349 45.7136 -63.8202ZM124.735 -63.8202C120.152 -62.6048 118.182 -59.8735 105.519 -37.192C92.8659 -14.5283 91.8559 -12.1359 93.0839 -7.74718C94.1383 -3.97912 116.906 36.3295 119.458 38.9467C124.394 44.008 132.993 43.9077 137.881 38.7323C139.415 37.1087 152.621 14.1396 161.05 -1.56429C163.86 -6.79912 164.228 -7.87224 164.228 -10.8398C164.228 -14.8557 164.9 -13.4627 150.713 -38.8691C144.625 -49.7745 138.843 -59.4303 137.676 -60.6429C134.484 -63.962 129.699 -65.1372 124.735 -63.8202ZM202.962 -63.5776C201.646 -63.1114 199.688 -61.8751 198.611 -60.8297C197.456 -59.7093 191.616 -49.9168 184.381 -36.9695C173.696 -17.8485 172.069 -14.6055 171.787 -11.8795C171.373 -7.86706 171.435 -7.73393 185.395 17.3233C193.228 31.3823 197.127 37.8096 198.707 39.2636C203.931 44.0737 212.115 43.7648 216.981 38.5738C217.982 37.5047 224.197 26.948 230.791 15.1136C241.92 -4.8615 242.797 -6.64581 243.024 -9.78221C243.158 -11.6409 242.982 -13.9802 242.633 -14.9813C242.284 -15.9824 236.645 -26.3742 230.101 -38.0743C217.306 -60.9559 216.071 -62.6342 211.121 -63.8796C207.867 -64.698 205.922 -64.6265 202.962 -63.5776ZM281.881 -63.5776C280.509 -63.0739 278.54 -61.8169 277.507 -60.7847C274.777 -58.0569 251.674 -16.5293 250.966 -13.0788C250.569 -11.1418 250.6 -9.56954 251.069 -7.81749C252.148 -3.78662 275.093 36.85 277.686 39.3207C282.704 44.1048 291.179 43.759 295.981 38.5738C296.971 37.5047 303.2 26.9048 309.824 15.0179L321.867 -6.59452V-10.917V-15.2395L309.799 -36.7822C303.161 -48.6304 297.094 -59.0805 296.316 -60.0049C293.168 -63.7424 286.695 -65.3446 281.881 -63.5776ZM361.312 -63.7551C356.046 -61.7881 356.559 -62.5154 341.787 -36.0866C329.568 -14.2252 329.459 -13.986 329.766 -9.82601C329.984 -6.88268 331.08 -4.66553 342.053 15.0179C350.008 29.2879 354.897 37.4401 356.444 39.0135C361.304 43.9573 369.297 43.9296 374.377 38.9513C376.027 37.3341 380.407 30.0763 388.817 15.0179L400.889 -6.59452V-10.917V-15.2395L388.592 -37.1401C381.829 -49.1854 375.729 -59.6493 375.038 -60.3934C371.967 -63.6963 365.436 -65.2957 361.312 -63.7551ZM4.62687 7.46798C3.35791 8.05641 1.50349 9.41195 0.5062 10.481C-0.491089 11.5501 -4.90362 18.8949 -9.29942 26.8033L-17.2916 41.1828V44.9578C-17.2916 48.0464 -17.0003 49.2284 -15.6927 51.4513C-13.9242 54.4569 -11.3944 56.5882 -8.40941 57.587C-7.12257 58.0175 -0.670471 58.2428 10.3678 58.2428H27.1838L30.2339 56.7242C35.6968 54.0039 38.8583 47.3553 37.2461 41.9782C36.2944 38.8049 21.8998 13.0451 19.6422 10.4764C16.1681 6.5228 9.53256 5.19377 4.62687 7.46798ZM82.9293 7.84894C80.7715 8.92322 79.4299 10.1393 77.9994 12.3155C75.6438 15.9003 64.1262 36.5411 62.5683 39.9702C59.5366 46.6424 63.5765 55.4747 70.6256 57.5852C72.0526 58.0123 78.676 58.2428 89.5147 58.2428H106.206L109.184 56.7599C114.583 54.0713 117.71 47.5692 116.236 42.0975C115.437 39.1351 100.578 12.4625 98.4603 10.1906C94.7388 6.19832 88.2186 5.21568 82.9293 7.84894ZM161.922 7.86335C160.276 8.68289 158.376 10.1306 157.699 11.0799C155.732 13.8399 141.871 38.8193 141.134 40.9327C140.271 43.4057 140.283 46.2632 141.168 49.2428C142.092 52.3493 146.496 56.7893 149.473 57.6152C150.834 57.9933 158.273 58.2376 168.47 58.2394L185.227 58.2428L188.236 56.7444C191.747 54.9969 194.353 51.6242 195.236 47.6856C195.918 44.6454 195.553 42.1666 193.947 38.9357C190.717 32.4353 178.786 11.6308 177.461 10.1906C173.786 6.19371 167.243 5.21395 161.922 7.86335ZM240.717 7.83454C239.229 8.60855 237.386 10.088 236.621 11.1214C235.857 12.1553 231.764 19.2252 227.527 26.8327C220.345 39.727 219.807 40.9068 219.589 44.238C219.404 47.062 219.617 48.3535 220.607 50.3972C222.185 53.6546 225.666 56.8308 228.529 57.625C229.854 57.9927 237.406 58.2324 247.46 58.2267C262.451 58.2186 264.427 58.108 266.495 57.1599C271.465 54.8817 274.248 50.4064 274.269 44.6593C274.281 41.2347 274.119 40.8693 266.449 27.0811C262.141 19.337 257.903 12.1034 257.03 11.0061C253.321 6.3401 246.236 4.96267 240.717 7.83454ZM319.989 7.62014C318.638 8.27485 316.921 9.53644 316.173 10.4246C315.426 11.3121 311.223 18.4615 306.834 26.3112C299.58 39.2855 298.832 40.8912 298.61 43.9579C298.287 48.4094 299.585 51.7314 302.803 54.6955C304.18 55.9646 306.308 57.2804 307.531 57.6198C308.88 57.9939 316.337 58.2324 326.482 58.2267C345.403 58.2163 346.038 58.0964 349.917 53.7976C352.565 50.8629 353.496 48.0475 353.195 43.8893C352.982 40.9402 352.148 39.1605 344.96 26.3025C340.56 18.4344 336.349 11.2706 335.602 10.3825C332.299 6.46056 325.034 5.17534 319.989 7.62014ZM399.11 7.53888C397.814 8.18034 396.094 9.41196 395.287 10.2765C394.48 11.141 390.235 18.2903 385.852 26.1648C378.576 39.2371 377.862 40.7788 377.635 43.9066C377.309 48.4135 378.592 51.7188 381.825 54.6955C383.202 55.9646 385.33 57.2804 386.553 57.6198C389.418 58.414 420.324 58.4457 423.167 57.6567C424.316 57.3374 426.438 56.0372 427.882 54.7675C431.225 51.8271 432.554 48.5299 432.222 43.9982C432.002 40.9823 431.198 39.2654 423.78 25.9682C418.544 16.5838 414.859 10.6292 413.585 9.49436C409.951 6.25768 403.47 5.38224 399.11 7.53888ZM478.708 7.53888C477.413 8.18034 475.689 9.41196 474.878 10.2765C473.542 11.7017 462.461 30.9737 458.594 38.598C454.948 45.7877 457.687 53.8293 464.914 57.1559C466.984 58.1086 468.932 58.2186 483.882 58.2301C495.363 58.2388 501.28 58.0238 502.916 57.5386C506.025 56.6159 510.469 52.2156 511.295 49.2411C512.084 46.4038 512.028 42.902 511.159 40.6071C509.531 36.314 495.327 11.7415 493.357 9.81249C489.762 6.29168 483.268 5.28369 478.708 7.53888ZM558.307 7.50775C557.011 8.16592 555.278 9.41196 554.454 10.2765C552.217 12.6267 537.385 39.4567 536.744 42.3119C535.505 47.8395 538.418 53.9526 543.569 56.6331L546.663 58.2428H563.402C574.911 58.2428 580.882 58.0227 582.515 57.5386C585.874 56.5415 589.931 52.3527 590.905 48.8751C592.195 44.2737 591.523 41.7603 586.591 32.7471C575.789 13.0002 574.029 10.2407 571.066 8.40452C567.359 6.10726 561.829 5.71824 558.307 7.50775ZM604.997 61.7562C602.832 64.4269 568.399 127.085 567.933 129.201C567.336 131.912 567.781 135.451 569.009 137.777C569.428 138.569 577.809 153.599 587.634 171.176C601.216 195.474 605.365 203.349 604.943 204.027C600.199 211.665 568.305 269.823 567.832 271.697C567.397 273.426 567.36 275.103 567.721 276.795C568.046 278.315 575.348 291.994 586.131 311.277C595.96 328.856 604.323 343.758 604.717 344.392C605.352 345.416 603.21 349.515 585.44 381.277C574.444 400.93 565.18 417.337 564.853 417.737C564.376 418.321 568.401 418.435 585.245 418.314L606.23 418.162L606.36 338.917C606.56 216.486 605.794 60.7729 604.997 61.7562ZM-9.50476 63.7601C-14.3747 65.8971 -17.2408 70.4588 -17.2645 76.1091L-17.2795 79.8553L-9.24462 94.2636C-4.27202 103.181 -0.316894 109.58 1.13376 111.055C5.86814 115.869 13.6676 115.98 18.7937 111.305C21.823 108.543 36.4819 82.3629 37.3401 78.1833C38.3911 73.0621 36.2782 68.2243 31.5352 64.892L29.044 63.1417L10.779 63.0079C-4.59964 62.8956 -7.80493 63.0143 -9.50476 63.7601ZM69.1963 63.9404C64.3096 66.1582 60.9717 72.1209 61.5831 77.5407C61.9909 81.1526 76.6814 107.678 80.1532 111.07C84.0968 114.923 89.4731 115.772 94.6078 113.353C96.194 112.606 98.0479 111.377 98.7279 110.621C101.076 108.013 115.71 81.1238 116.315 78.3072C117.477 72.8938 114.278 66.5455 109.135 64.058C106.774 62.9163 105.731 62.8541 89.0902 62.8662C73.2847 62.8777 71.3028 62.9843 69.1963 63.9404ZM148.25 63.9289C145.167 65.3317 141.833 69.1332 141.011 72.182C139.644 77.2554 140.268 79.0392 148.782 94.3979C157.255 109.684 159.758 112.949 163.88 114.092C169.15 115.554 175.248 113.814 178.115 110.031C181.182 105.985 195.133 80.1538 195.414 78.0007C196.133 72.5036 193.195 66.7276 188.392 64.194C185.889 62.8742 185.573 62.8535 168.204 62.8662C152.378 62.8777 150.319 62.9872 148.25 63.9289ZM227.272 63.9364C221.046 66.7904 217.867 74.2712 220.25 80.461C221.633 84.0515 235.983 109.172 237.571 110.782C239.947 113.19 242.286 114.232 246.09 114.576C248.933 114.834 249.917 114.644 252.635 113.316C254.394 112.456 256.45 110.929 257.202 109.924C257.955 108.919 262.036 101.876 266.271 94.2751C273.695 80.948 273.978 80.3169 274.188 76.6013C274.378 73.2442 274.201 72.3704 272.809 69.8156C271.202 66.8665 269.024 64.8528 266.035 63.5543C264.884 63.0541 259.435 62.8569 247 62.8662C231.341 62.8777 229.346 62.9855 227.272 63.9364ZM305.359 64.4638C303.113 65.6366 301.801 66.8388 300.534 68.8854C299.001 71.3648 298.795 72.2114 298.795 76.0642V80.4316L305.927 93.1109C309.849 100.085 313.84 107.03 314.795 108.545C317.049 112.124 320.504 114.159 325.018 114.568C327.956 114.834 328.916 114.656 331.594 113.347C333.319 112.503 335.358 110.977 336.126 109.954C336.894 108.932 341.007 101.871 345.268 94.2636L353.015 80.4316V76.0642C353.015 72.2114 352.809 71.3648 351.276 68.8854C350.009 66.8388 348.697 65.6366 346.451 64.4638L343.366 62.8535H325.905H308.444L305.359 64.4638ZM384.025 64.5952C381.823 65.8573 380.526 67.1443 379.24 69.3447C377.65 72.0656 377.495 72.7606 377.663 76.3973C377.848 80.3757 377.957 80.6241 385.562 94.2636C389.804 101.871 393.878 108.912 394.614 109.909C395.351 110.906 397.31 112.398 398.967 113.223C404.2 115.828 410.153 114.904 414.168 110.863C415.113 109.913 419.485 102.688 423.883 94.8082C430.971 82.1082 431.914 80.1031 432.182 77.1465C432.705 71.3792 429.782 66.3247 424.538 63.9318C422.466 62.986 420.44 62.8783 404.638 62.8714L387.046 62.8644L384.025 64.5952ZM463.782 64.4517C458.542 67.3287 455.887 73.3133 457.354 78.9406C458.037 81.5606 471.523 106.303 474.304 110.038C475.134 111.154 477.095 112.596 478.909 113.426C484.126 115.812 489.869 114.775 493.825 110.732C495.469 109.052 509.725 84.1443 511.159 80.4489C512.93 75.8797 511.521 70.0012 507.812 66.485C504.095 62.9613 503.38 62.8523 484.111 62.8667L466.645 62.8806L463.782 64.4517ZM543.647 64.2096C538.805 66.6798 535.681 72.7825 536.543 78.0894C536.886 80.1988 551.029 106.264 553.875 110.031C555.666 112.401 560.437 114.711 563.547 114.715C570.803 114.722 573.252 112.321 582.05 96.5689C585.769 89.9123 589.418 83.1692 590.161 81.5843C592.459 76.6774 591.735 71.5722 588.145 67.3817C584.381 62.9872 583.793 62.8783 563.835 62.8823C546.626 62.8858 546.187 62.9146 543.647 64.2096ZM438.909 79.004C437.614 79.6455 435.892 80.8771 435.085 81.7416C433.588 83.3438 411.875 121.783 409.73 126.628C408.836 128.648 408.608 130.14 408.784 132.813C409.006 136.159 409.624 137.419 421.104 157.942C427.751 169.826 433.969 180.438 434.92 181.524C439.857 187.158 450.19 187.028 454.58 181.278C456.76 178.421 479.334 137.839 480.183 135.248C481.757 130.451 481.176 129.035 467.806 105.056C459.511 90.1791 454.699 82.1445 453.375 80.9595C449.759 77.724 443.271 76.8468 438.909 79.004ZM518.508 79.004C517.212 79.6455 515.485 80.8771 514.67 81.7416C513.855 82.6061 507.647 93.1685 500.875 105.214L488.563 127.115V131.725V136.336L500.622 157.948C507.255 169.835 513.484 180.426 514.465 181.485C518.668 186.016 524.98 187.052 530.404 184.103C532.024 183.222 533.856 181.791 534.474 180.924C535.092 180.056 540.928 169.82 547.442 158.175C560.046 135.647 561.088 133.206 559.931 128.885C559.33 126.639 537.189 86.3361 534.428 82.4615C531.479 78.3234 523.422 76.5737 518.508 79.004ZM43.8003 79.5804C42.5048 80.2218 40.7761 81.4535 39.96 82.318C39.1432 83.1824 33.0141 93.6965 26.3394 105.683C13.4456 128.838 12.7563 130.494 14.1199 135.041C15.0618 138.183 37.9723 179.079 39.9657 181.177C44.928 186.399 54.23 186.522 58.999 181.429C59.6641 180.719 65.7418 170.282 72.5054 158.236L84.8022 136.336V131.725V127.115L72.5054 105.214C65.7418 93.1685 59.6641 82.7318 58.999 82.0217C55.6513 78.4461 48.4366 77.2877 43.8003 79.5804ZM122.871 79.5072C121.602 80.0939 119.868 81.3203 119.018 82.2321C117.177 84.2054 94.2179 125.082 93.1727 128.247C91.5952 133.022 92.2153 134.542 105.328 158.037C112.039 170.06 118.334 180.702 119.317 181.685C121.743 184.108 124.552 185.2 128.403 185.215C132.321 185.231 136.414 183.426 138.418 180.799C140.005 178.718 162.307 139.022 163.475 136.197C163.959 135.028 164.153 132.982 163.994 130.722C163.752 127.276 163.205 126.161 151.771 105.79C145.187 94.0619 139.178 83.6498 138.418 82.6516C135.371 78.6571 127.953 77.1563 122.871 79.5072ZM201.888 79.4893C200.616 80.0668 198.792 81.431 197.833 82.5214C196.875 83.6124 190.653 94.2215 184.007 106.097L171.924 127.691L171.912 131.753L171.899 135.815L184.012 157.627C190.674 169.624 197.006 180.339 198.083 181.437C200.65 184.057 203.476 185.202 207.372 185.202C211.246 185.202 214.108 184.053 216.603 181.496C218.316 179.741 232.283 155.47 240.019 140.805C243.698 133.831 244.053 130.826 241.771 125.962C240.12 122.443 219.201 85.0751 217.682 82.9306C214.881 78.9781 206.863 77.2312 201.888 79.4893ZM280.915 79.5095C279.646 80.0979 277.798 81.4534 276.807 82.5225C275.817 83.5916 269.601 94.1725 262.993 106.037C251.94 125.884 250.961 127.872 250.74 130.912C250.549 133.547 250.789 134.84 251.919 137.294C253.905 141.601 274.666 178.591 276.338 180.799C278.323 183.422 282.417 185.228 286.376 185.228C290.419 185.228 294.905 182.982 296.991 179.915C298.779 177.285 319.652 140.014 321.074 136.912C322.425 133.965 322.425 129.486 321.074 126.538C319.631 123.391 298.765 86.1448 296.95 83.4764C293.878 78.9614 286.196 77.0606 280.915 79.5095ZM359.936 79.4928C358.667 80.072 356.85 81.3526 355.899 82.3393C354.947 83.3259 348.718 93.923 342.055 105.889L329.943 127.644V131.99V136.336L342.249 158.236C349.017 170.282 355.095 180.719 355.755 181.429C357.813 183.643 361.827 185.228 365.364 185.223C369.129 185.217 372.308 183.793 374.993 180.908C375.978 179.85 382.207 169.259 388.836 157.372L400.889 135.759V131.725V127.691L388.836 106.078C382.207 94.1915 375.978 83.5916 374.993 82.5225C371.338 78.5545 364.852 77.2497 359.936 79.4928ZM6.64221 149.232C4.0616 150.076 1.77516 151.471 0.231644 153.142C-0.599526 154.042 -4.83267 161.162 -9.17483 168.964C-15.9678 181.169 -17.1168 183.603 -17.4052 186.393C-17.8251 190.457 -16.6242 193.86 -13.7131 196.855C-9.98523 200.69 -9.25962 200.831 7.90713 201.062C18.1304 201.2 24.3817 201.046 26.5211 200.602C33.0574 199.246 37.4082 193.931 37.4082 187.302C37.4082 184.068 37.1267 183.445 29.4397 169.652C25.0566 161.788 20.9734 154.642 20.3655 153.772C17.8916 150.23 10.7808 147.878 6.64221 149.232ZM84.605 149.426C80.6504 150.761 77.9735 154.207 70.6256 167.421C66.7593 174.375 63.1174 181.118 62.5319 182.405C59.1132 189.926 64.0189 199.025 72.3352 200.589C76.3723 201.348 102.486 201.321 105.855 200.554C113.022 198.924 117.436 192.316 116.136 185.16C115.598 182.192 100.637 155.128 98.1765 152.67C97.2565 151.75 95.7113 150.589 94.7416 150.088C92.5031 148.932 87.114 148.579 84.605 149.426ZM163.627 149.461C159.606 150.745 156.989 154.135 149.166 168.185C145.061 175.559 141.393 182.526 141.017 183.667C139.989 186.779 140.578 191.351 142.411 194.475C144.359 197.798 147.325 199.82 151.371 200.587C155.523 201.374 181.155 201.341 184.874 200.544C188.578 199.75 192.167 197.039 193.962 193.681C195.134 191.485 195.313 190.468 195.128 187.053C194.912 183.084 194.778 182.785 186.865 168.664C182.441 160.768 177.935 153.44 176.852 152.377C173.691 149.275 168.08 148.038 163.627 149.461ZM242.197 149.661C240.888 150.125 238.928 151.392 237.841 152.479C236.754 153.565 232.252 160.881 227.837 168.736C219.877 182.896 219.807 183.053 219.629 187.053C219.472 190.585 219.649 191.444 221.054 193.948C223.045 197.498 226.325 199.835 230.379 200.593C234.522 201.367 260.189 201.338 263.841 200.555C272.197 198.765 276.595 189.712 272.92 181.866C269.762 175.124 257.838 154.601 255.917 152.6C252.544 149.087 247.105 147.922 242.197 149.661ZM322.02 149.301C319.607 150.027 316.789 151.934 315.471 153.733C312.402 157.922 299.036 182.807 298.617 185.112C297.309 192.316 301.701 198.919 308.889 200.554C312.238 201.316 339.545 201.325 342.843 200.565C349.294 199.079 353.662 193.275 353.195 186.814C352.971 183.72 352.229 182.113 345.01 169.095C336.271 153.335 334.066 150.546 329.426 149.379C326.48 148.638 324.301 148.615 322.02 149.301ZM400.534 149.522C397.575 150.579 395.11 152.466 393.69 154.761C388.283 163.504 377.601 183.7 377.292 185.767C376.468 191.269 380.282 197.833 385.466 199.831C387.892 200.766 390.112 200.885 405.215 200.885H422.231L425.269 199.203C430.314 196.41 433.046 190.853 432.135 185.24C431.619 182.065 416.431 155.223 413.563 152.418C410.08 149.012 405.077 147.9 400.534 149.522ZM480.054 149.549C475.098 151.316 473.852 153.079 461.13 176.315C457.177 183.535 456.912 184.243 456.921 187.554C456.933 191.721 458.354 194.919 461.37 197.565C464.954 200.709 466.195 200.885 484.814 200.885C501.189 200.885 501.918 200.838 504.176 199.63C509.464 196.802 512.376 191.562 511.725 186.047C511.287 182.337 496.671 155.873 493.152 152.418C489.659 148.989 484.683 147.899 480.054 149.549ZM559.583 149.538C555.087 151.209 553.684 153.021 545.333 167.938C540.926 175.811 537.033 183.321 536.68 184.628C535.165 190.251 538.212 196.555 543.936 199.641C546.155 200.838 546.91 200.885 563.835 200.885C580.895 200.885 581.501 200.846 583.818 199.608C589.32 196.667 592.512 190.146 591.075 184.779C590.335 182.014 575.391 154.932 573.456 152.849C570.337 149.492 563.865 147.948 559.583 149.538ZM-31.4111 274.367C-31.4186 342.859 -31.3874 344.916 -30.3705 343.239C-29.7937 342.288 -21.433 327.389 -11.7906 310.13C5.07446 279.943 5.74875 278.618 5.96389 275.242C6.1104 272.944 5.88487 271.008 5.31095 269.636C4.51151 267.724 -27.8268 209.528 -30.3302 205.496C-31.3805 203.804 -31.4042 205.286 -31.4111 274.367ZM-7.77782 205.746C-8.57323 205.988 -10.0008 206.589 -10.9502 207.082C-16.0688 209.741 -18.8507 216.954 -16.9068 222.526C-15.9672 225.219 -1.00271 251.893 0.453711 253.47C3.80954 257.106 11.1522 258.332 15.6951 256.016C19.254 254.202 20.8038 252.029 28.9996 237.36C36.6693 223.633 38.0854 220.144 37.4145 216.63C36.509 211.886 32.3058 206.972 28.1725 205.825C25.6449 205.124 -5.5058 205.055 -7.77782 205.746ZM69.1876 206.58C63.9301 209.026 60.9971 214.21 61.5594 220.061C61.7717 222.266 63.4294 225.694 69.8331 237.17C74.2375 245.064 78.4401 252.233 79.1721 253.102C83.6371 258.403 93.5973 258.486 98.4603 253.262C100.031 251.575 115.155 225 115.926 222.572C117.302 218.24 115.616 212.143 112.126 208.834C108.563 205.455 106.954 205.207 88.6229 205.213C72.4869 205.218 72.0463 205.25 69.1876 206.58ZM148.227 206.572C142.917 209.042 140.2 213.567 140.568 219.33C140.776 222.587 141.35 223.831 148.781 237.122C153.175 244.981 157.441 252.207 158.26 253.18C162.674 258.423 172.683 258.465 177.461 253.262C178.93 251.663 191.989 228.772 194.169 223.975C195.552 220.933 195.553 215.995 194.172 212.956C192.785 209.904 188.919 206.643 185.742 205.844C184.195 205.455 176.981 205.21 167.173 205.213C151.559 205.218 151.057 205.255 148.227 206.572ZM228.261 205.932C227.219 206.266 225.227 207.54 223.835 208.765C220.566 211.64 219.26 214.959 219.592 219.544C219.818 222.671 220.532 224.213 227.808 237.286C232.191 245.16 236.459 252.349 237.292 253.262C242.2 258.636 252.229 258.363 256.834 252.729C257.706 251.662 261.914 244.515 266.184 236.846C273.481 223.743 273.963 222.684 274.18 219.271C274.365 216.38 274.153 215.104 273.142 213.018C271.523 209.675 267.999 206.658 264.764 205.844C261.48 205.018 230.886 205.092 228.261 205.932ZM307.238 205.98C299.645 208.789 296.281 217.56 299.987 224.885C303.801 232.422 314.918 251.756 316.303 253.262C321.1 258.477 331.131 258.376 335.602 253.068C336.349 252.18 340.555 245.025 344.948 237.167C351.854 224.817 352.97 222.463 353.192 219.793C353.641 214.384 350.896 209.296 346.165 206.767C343.879 205.546 343.105 205.491 326.482 205.379C313.849 205.294 308.654 205.457 307.238 205.98ZM385.903 206.112C379.951 208.331 375.981 215.6 377.547 221.412C378.344 224.372 393.183 250.986 395.305 253.262C400.003 258.303 409.691 258.409 414.306 253.47C414.97 252.76 419.186 245.612 423.676 237.587C430.608 225.196 431.888 222.523 432.162 219.869C432.721 214.469 429.986 209.332 425.186 206.767C422.902 205.546 422.124 205.491 405.504 205.376C391.396 205.279 387.776 205.415 385.903 206.112ZM465.694 205.993C459.345 208.308 455.494 215.276 457.154 221.45C457.965 224.469 472.293 250.233 474.656 252.923C479.692 258.654 489.914 258.593 494.332 252.804C496.793 249.58 510.814 224.079 511.467 221.638C512.887 216.335 510.171 210.056 505.191 207.131L502.406 205.496L485.102 205.361C471.859 205.258 467.304 205.406 465.694 205.993ZM545.819 205.765C539.432 207.751 535.013 215.122 536.56 221.212C537.312 224.172 552.451 251.308 554.483 253.339C558.69 257.542 564.935 258.433 570.183 255.579C571.814 254.692 573.657 253.254 574.277 252.383C577.287 248.16 590.893 222.78 591.237 220.749C592.137 215.425 589.529 209.914 584.79 207.131L582.005 205.496L564.701 205.386C555.183 205.324 546.687 205.496 545.819 205.765ZM440.841 220.766C438.423 221.493 435.35 223.561 434.138 225.276C433.119 226.716 412.392 263.578 410.098 268.028C408.611 270.912 408.097 274.279 408.715 277.087C409.276 279.639 432.699 322.08 434.838 324.42C437.132 326.931 440.376 328.212 444.438 328.212C448.492 328.212 451.715 326.942 454.059 324.42C456.409 321.892 479.592 279.776 480.285 276.774C480.745 274.783 480.772 273.221 480.372 271.65C480.057 270.407 474.393 259.682 467.786 247.817C454.721 224.353 453.06 222.055 448.303 220.858C445.304 220.103 443.132 220.076 440.841 220.766ZM520.439 220.732C517.919 221.544 514.924 223.596 513.651 225.383C513.004 226.291 507.149 236.554 500.639 248.189C488.057 270.679 487.108 272.918 488.292 277.315C488.659 278.677 494.39 289.528 501.028 301.429C514.255 325.146 515.425 326.732 520.628 327.979C525.337 329.108 530.682 327.646 533.641 324.42C534.323 323.676 540.363 313.268 547.062 301.291C560.052 278.066 560.981 275.882 559.775 271.395C559.026 268.605 535.636 226.442 533.658 224.315C530.803 221.244 524.312 219.485 520.439 220.732ZM45.732 221.342C43.3158 222.069 40.242 224.137 39.0267 225.852C37.5022 228.003 16.5851 265.365 14.9303 268.892C13.4479 272.052 13.201 275.451 14.2381 278.424C14.6073 279.482 20.1953 289.83 26.6561 301.419C35.0895 316.547 39.0371 323.071 40.6504 324.548C45.7401 329.207 53.3544 329.072 58.2901 324.236C59.9404 322.618 64.32 315.361 72.7303 300.302L84.8022 278.69V274.367V270.045L72.9778 248.761C60.2905 225.925 58.0721 222.803 53.5881 221.473C50.9238 220.683 48.0831 220.635 45.732 221.342ZM122.871 222.138C121.285 222.886 119.429 224.115 118.746 224.871C117.109 226.681 94.0587 267.918 93.1566 270.649C91.4891 275.699 92.0082 276.999 104.995 300.302C113.349 315.292 117.762 322.626 119.399 324.236C123.337 328.11 128.742 328.994 133.83 326.596C135.417 325.849 137.28 324.619 137.972 323.864C139.593 322.094 162.635 280.839 163.551 278.068C165.212 273.038 164.686 271.722 151.707 248.432C138.614 224.939 136.942 222.623 132.216 221.434C128.317 220.453 126.092 220.621 122.871 222.138ZM201.893 222.138C200.307 222.886 198.443 224.115 197.751 224.871C197.059 225.626 190.964 236.099 184.206 248.144L171.919 270.045L171.909 274.367L171.899 278.69L183.951 300.302C190.579 312.189 196.917 322.878 198.035 324.055C200.296 326.437 204.056 327.969 207.619 327.96C210.359 327.954 215.197 325.835 216.973 323.864C218.257 322.439 239.398 284.912 241.773 279.842C243.254 276.681 243.5 273.283 242.463 270.311C242.094 269.253 236.506 258.905 230.045 247.315C217.392 224.618 215.932 222.615 211.159 221.414C207.34 220.454 205.097 220.629 201.893 222.138ZM280.891 222.096C279.292 222.86 277.318 224.275 276.506 225.24C275.693 226.205 269.613 236.674 262.994 248.504C251.574 268.915 250.948 270.192 250.736 273.507C250.591 275.793 250.818 277.729 251.392 279.102C251.875 280.257 257.499 290.541 263.889 301.956C272.237 316.868 276.136 323.278 277.738 324.724C281.672 328.275 287.104 328.936 292.065 326.466C293.722 325.641 295.694 324.149 296.447 323.152C297.199 322.154 303.176 311.719 309.729 299.963C320.13 281.303 321.685 278.185 321.97 275.423C322.224 272.965 322.032 271.66 321.11 269.577C319.208 265.283 297.336 226.38 295.985 224.891C294.082 222.793 290.54 221.242 287.013 220.962C284.448 220.758 283.211 220.987 280.891 222.096ZM360.881 221.522C356.375 223.233 355.052 225.098 342.747 247.105C336.223 258.771 330.609 269.046 330.27 269.938C329.932 270.83 329.654 273.013 329.654 274.789C329.654 277.596 330.061 278.773 332.78 283.828C341.134 299.363 354.387 322.431 355.843 323.972C358.152 326.416 360.477 327.47 364.334 327.819C367.177 328.077 368.161 327.887 370.879 326.559C372.638 325.699 374.689 324.172 375.436 323.166C377.825 319.951 400.097 279.629 400.71 277.409C401.938 272.966 401.163 271.078 389.531 250.161C375.573 225.065 375.323 224.672 372.085 222.776C368.989 220.963 363.866 220.39 360.881 221.522ZM3.75359 292.977C2.38023 293.702 0.548308 295.193 -0.31747 296.29C-1.18267 297.388 -5.34718 304.497 -9.57167 312.091C-16.7586 325.01 -17.2668 326.127 -17.4813 329.496C-17.7628 333.911 -16.2943 337.377 -12.9194 340.263C-9.36056 343.306 -7.82454 343.527 9.81808 343.527C27.5662 343.527 28.9834 343.318 32.6842 340.153C35.8041 337.484 37.1873 334.358 37.2034 329.938C37.2161 326.5 37.065 326.162 29.0729 311.783C24.5946 303.726 20.2466 296.387 19.4114 295.475C15.8405 291.576 8.59237 290.42 3.75359 292.977ZM83.0228 292.823C81.7273 293.465 80.0067 294.696 79.2003 295.561C78.3934 296.425 74.1475 303.575 69.765 311.449C62.4887 324.521 61.7746 326.063 61.5485 329.191C61.2353 333.513 62.4293 336.805 65.3398 339.644C69.0734 343.285 70.5293 343.527 88.7014 343.527C99.4155 343.527 105.619 343.299 107.12 342.849C108.366 342.476 110.518 341.175 111.902 339.957C115.142 337.108 116.462 333.765 116.135 329.242C115.913 326.176 115.165 324.57 107.911 311.595C103.522 303.746 99.3111 296.587 98.5537 295.688C95.2579 291.774 87.891 290.416 83.0228 292.823ZM162.094 292.75C160.825 293.337 159.099 294.563 158.26 295.475C156.882 296.97 145.768 316.292 141.985 323.769C140.126 327.443 139.947 332.252 141.54 335.747C142.891 338.711 146.692 342.128 149.507 342.909C150.825 343.275 158.322 343.52 168.15 343.519C184.214 343.516 184.656 343.485 187.514 342.155C192.83 339.681 195.635 334.782 195.138 328.835C194.938 326.425 193.576 323.58 186.879 311.581C182.468 303.678 178.261 296.502 177.529 295.633C174.336 291.841 167.015 290.473 162.094 292.75ZM241.115 292.75C239.846 293.337 238.112 294.563 237.261 295.475C234.912 297.991 220.151 324.711 219.496 327.631C218.475 332.184 220.084 336.664 224.017 340.214C225.287 341.36 227.317 342.573 228.529 342.909C229.846 343.275 237.344 343.52 247.172 343.519C263.236 343.516 263.677 343.485 266.535 342.155C272.681 339.296 275.756 332.364 273.608 326.209C272.669 323.516 257.704 296.841 256.248 295.265C253.015 291.762 245.831 290.569 241.115 292.75ZM320.137 292.722C318.868 293.327 317.028 294.696 316.047 295.765C313.55 298.487 299.31 324.25 298.479 327.552C296.901 333.815 301.314 341.178 307.712 342.954C308.836 343.266 317.15 343.516 326.193 343.511C341.496 343.502 342.812 343.421 345.228 342.326C350.507 339.934 352.947 336.146 352.988 330.27C353.014 326.656 352.852 326.225 348.445 318.167C334.672 292.982 333.938 292.096 326.582 291.793C323.436 291.663 321.891 291.885 320.137 292.722ZM398.87 292.786C397.76 293.379 396.041 294.729 395.051 295.786C392.361 298.657 377.689 325.475 377.244 328.333C376.465 333.333 379.264 339.006 383.833 341.69L386.469 343.239H404.683H422.898L425.722 341.495C427.472 340.414 429.209 338.678 430.291 336.929C431.772 334.535 432.036 333.532 432.036 330.307C432.036 326.532 431.99 326.42 425.29 314.351C414.542 294.99 414.761 295.32 411.385 293.386C408.885 291.953 407.765 291.672 404.638 291.688C402.113 291.702 400.23 292.06 398.87 292.786ZM477.782 293.247C476.294 294.116 474.574 295.476 473.96 296.269C471.396 299.578 457.187 325.91 456.831 328.011C455.936 333.31 458.554 338.826 463.283 341.603L466.068 343.239L482.903 343.415C493.446 343.525 500.582 343.364 501.993 342.984C507.788 341.425 511.606 336.271 511.625 329.982C511.635 326.599 511.454 326.198 503.469 311.877C498.977 303.822 494.597 296.485 493.735 295.572C489.713 291.315 482.812 290.309 477.782 293.247ZM556.929 293.53C553.561 295.562 552.332 297.463 541.007 318.164C536.608 326.206 536.437 326.657 536.437 330.312C536.437 333.533 536.702 334.536 538.186 336.934C540.147 340.103 542.73 342.083 546.078 342.984C547.491 343.364 554.619 343.525 565.169 343.415L582.005 343.239L584.641 341.69C589.597 338.779 592.291 332.779 590.979 327.574C590.188 324.434 575.925 298.667 573.367 295.756C570.97 293.028 567.735 291.686 563.522 291.67C560.597 291.66 559.535 291.959 556.929 293.53ZM-31.4232 382.602V418.45H-11.1781H9.06708L7.96482 416.577C7.35918 415.547 -1.52991 399.662 -11.7889 381.277C-22.0473 362.892 -30.6618 347.603 -30.9318 347.302C-31.2029 347 -31.4232 362.827 -31.4232 382.602ZM-6.43041 348.099C-15.1176 349.517 -19.9772 358.833 -16.2222 366.869C-13.1057 373.538 -1.15383 394.125 0.752495 396.107C5.64665 401.195 14.0397 401.176 19.1548 396.065C20.0742 395.146 24.4411 387.942 28.8583 380.055C36.8129 365.854 36.8914 365.677 37.0708 361.682C37.2294 358.148 37.0529 357.292 35.6478 354.787C33.5465 351.041 30.3626 348.852 25.9685 348.134C22.1334 347.507 -2.6414 347.48 -6.43041 348.099ZM71.9303 348.178C65.195 349.502 61.0057 355.276 61.5652 362.463C61.7902 365.362 62.6934 367.28 69.8492 380.062C77.8714 394.391 79.6756 396.961 82.8757 398.615C87.4411 400.974 94.2214 399.914 97.8668 396.271C98.9483 395.191 103.444 387.874 107.857 380.011C115.529 366.343 115.891 365.552 116.109 361.97C116.308 358.705 116.124 357.818 114.676 355.064C112.552 351.022 109.559 348.881 104.99 348.134C100.826 347.453 75.443 347.487 71.9303 348.178ZM150.896 348.187C147.537 348.846 144.306 351.045 142.343 354.008C140.936 356.133 140.752 356.949 140.752 361.063V365.716L148.174 378.972C152.256 386.262 156.261 393.216 157.074 394.425C159.985 398.755 166.097 400.894 171.353 399.423C175.941 398.139 178.356 395.202 185.804 381.853C189.517 375.197 193.161 368.454 193.902 366.869C197.725 358.686 192.917 349.591 183.998 348.132C179.815 347.448 154.451 347.49 150.896 348.187ZM229.917 348.16C222.94 349.601 217.92 357.023 219.417 363.683C220.237 367.329 236.156 395.293 238.374 396.985C243.878 401.182 250.643 400.91 255.571 396.294C257.387 394.592 260.221 390.065 265.985 379.657C272.864 367.236 273.938 364.944 274.165 362.208C274.625 356.672 271.865 351.94 266.525 349.112C264.315 347.942 263.318 347.868 248.325 347.755C239.601 347.689 231.318 347.872 229.917 348.16ZM308.959 348.157C301.89 349.619 296.983 356.623 298.26 363.426C298.644 365.477 312.979 391.771 315.613 395.258C317.444 397.683 320.953 399.45 324.704 399.837C328.345 400.212 332.663 398.558 335.264 395.791C336.213 394.782 340.528 387.586 344.854 379.8C353.343 364.519 354.076 362.463 352.736 357.68C351.844 354.497 348.768 350.816 345.599 349.139C343.324 347.936 342.444 347.869 327.347 347.755C318.623 347.689 310.348 347.87 308.959 348.157ZM388.099 348.14C384.971 348.788 382.793 349.951 380.911 351.977C377.718 355.413 376.388 360.049 377.46 364.011C378.172 366.646 393.179 393.864 395.034 395.885C396.886 397.905 400.377 399.492 403.725 399.837C407.225 400.198 411.652 398.584 414.064 396.069C415.779 394.28 430.344 368.549 431.531 365.211C432.677 361.987 432.503 359.201 430.95 355.918C429.344 352.524 427.147 350.319 423.961 348.903C421.96 348.013 419.59 347.862 406.08 347.759C397.515 347.694 389.424 347.865 388.099 348.14ZM467.698 348.14C464.213 348.862 462.13 350.095 459.805 352.808C457.162 355.894 456.039 360.377 457.006 363.988C457.743 366.742 472.664 393.749 474.629 395.885C476.942 398.4 480.178 399.677 484.237 399.677C488.292 399.677 491.518 398.405 493.856 395.885C495.802 393.787 510.618 366.98 511.366 364.202C512.973 358.241 509.57 351.573 503.56 348.903C501.558 348.013 499.189 347.862 485.679 347.759C477.113 347.694 469.022 347.865 467.698 348.14ZM547.397 348.074C540.467 349.321 535.532 355.812 536.338 362.619C536.788 366.41 551.355 392.816 554.937 396.332C559.885 401.189 568.786 400.974 573.435 395.885C575.35 393.789 590.269 366.785 590.99 364.109C592.571 358.243 589.126 351.554 583.158 348.903C581.155 348.013 578.801 347.863 565.277 347.768C556.712 347.708 548.666 347.846 547.397 348.074ZM46.9623 363.691C43.7224 364.276 39.9686 366.795 38.2336 369.55C37.3661 370.928 30.8546 382.43 23.7646 395.109L10.873 418.162L30.1013 418.314C40.6764 418.397 57.9764 418.397 68.5451 418.314L87.7618 418.162L74.1002 393.668C66.5863 380.196 59.5908 368.303 58.5549 367.239C55.627 364.231 51.3039 362.908 46.9623 363.691ZM125.518 363.778C122.344 364.363 118.939 366.676 117.246 369.398C116.534 370.543 110.079 381.983 102.902 394.821L89.8515 418.162L109.101 418.314C119.688 418.397 136.987 418.397 147.541 418.314L166.732 418.162L153.165 393.956C145.703 380.643 139.14 369.076 138.579 368.252C137.336 366.423 132.826 363.943 130.081 363.578C128.971 363.431 126.917 363.521 125.518 363.778ZM203.876 363.918C200.344 364.858 198.045 366.591 195.959 369.888C195.004 371.397 188.582 382.747 181.688 395.109C174.795 407.471 169.043 417.78 168.907 418.018C168.77 418.256 186.058 418.45 207.323 418.45H245.988L244.377 415.713C243.49 414.207 237.34 403.258 230.709 391.382C224.079 379.506 217.892 368.922 216.961 367.862C213.731 364.186 208.638 362.651 203.876 363.918ZM282.768 363.951C277.517 365.345 276.662 366.488 264.17 388.825C257.805 400.205 251.488 411.527 250.132 413.984L247.668 418.45H286.424C317.359 418.45 325.062 418.305 324.594 417.73C324.27 417.334 317.991 406.246 310.639 393.092C303.288 379.937 296.576 368.437 295.727 367.536C292.46 364.075 287.484 362.699 282.768 363.951ZM361.852 363.928C358.641 364.79 355.581 366.994 353.986 369.594C352.459 372.082 326.77 418.02 326.77 418.263C326.77 418.366 344.164 418.45 365.424 418.45H404.078L402.685 416.289C401.919 415.101 395.659 404.013 388.773 391.651C381.887 379.289 375.567 368.427 374.728 367.514C371.734 364.256 366.282 362.737 361.852 363.928ZM438.595 364.279C437.443 364.887 435.782 366.146 434.903 367.077C433.636 368.417 405.792 417.337 405.792 418.221C405.792 418.347 423.204 418.45 444.486 418.45C465.767 418.45 483.093 418.228 482.987 417.956C481.927 415.234 454.957 368.023 453.785 366.839C450.156 363.174 442.98 361.963 438.595 364.279ZM517.581 364.712C516.094 365.581 514.37 366.945 513.751 367.744C512.17 369.784 485.268 417.944 485.551 418.227C485.679 418.354 503.088 418.392 524.238 418.31L562.692 418.162L548.889 393.459C541.298 379.872 534.352 367.975 533.455 367.019C529.546 362.859 522.506 361.836 517.581 364.712Z" fill="black"/>
</g>
</svg>
