<svg width="573" height="278" viewBox="0 0 573 278" fill="none" xmlns="http://www.w3.org/2000/svg">
<mask id="mask0_439_10097" style="mask-type:alpha" maskUnits="userSpaceOnUse" x="0" y="0" width="574" height="278">
<path fill-rule="evenodd" clip-rule="evenodd" d="M77 58.4549C77 58.9723 81.0571 61.7937 86.0147 64.7246C104.071 75.3977 110.661 83.5067 128.363 116.829C136.08 131.356 140.721 138.655 149.163 149.545C155.141 157.255 160.276 163.318 160.576 163.02C160.875 162.72 157.89 157.528 153.941 151.48C146.078 139.438 142.226 131.623 139.006 121.178C135.579 110.065 136.575 101.593 141.307 101.593C143.564 101.593 154.299 109.105 161.034 115.397C169.86 123.642 176.883 134.082 183.453 148.725C191.158 165.899 191.579 166.641 198.619 175.451C207.897 187.061 214.015 191.565 232.735 200.562C261.691 214.477 270.684 222.065 277.202 238.083C279.276 243.182 282.941 259.44 285.142 273.314C285.469 275.37 286.157 277.052 286.67 277.052C287.805 277.052 288.125 275.74 290.623 260.89C291.703 254.469 293.526 246.394 294.674 242.945C297.505 234.443 303.568 224.432 308.787 219.639C314.819 214.1 326.604 206.974 337.623 202.201C342.766 199.974 349.91 196.53 353.497 194.549C364.644 188.395 381.247 170.16 385.488 159.415C389.196 150.016 396.761 134.933 400.584 129.31C408.579 117.552 425.738 102.761 431.914 102.305C434.238 102.133 435.092 102.679 436.271 105.082C439.566 111.802 431.917 132.953 419.227 152.208C415.878 157.291 413.389 161.702 413.698 162.01C414.253 162.565 425.761 148.573 432.643 138.978C434.608 136.236 440.965 125.138 446.77 114.316C459.554 90.4752 463.198 85.031 472.008 76.596C478.441 70.437 492.59 60.719 495.123 60.719C495.763 60.719 496.287 60.053 496.287 59.2395C496.287 57.9525 495.802 57.9665 492.544 59.3532C480.118 64.6399 479.587 64.9569 456.355 80.8968C453.884 82.5915 443.327 89.8113 432.895 96.9393C422.463 104.068 413.021 110.704 411.913 111.685C407.211 115.85 392.503 123.742 385.08 126.082C380.672 127.473 372.556 129.491 367.045 130.566C344.697 134.924 335.6 138.674 324.781 147.984C319.431 152.588 320.004 153.602 325.757 149.714C342.205 138.597 357.745 133.408 368.475 135.449C374.822 136.656 379.49 141.849 379.476 147.686C379.453 157.687 368.533 172.148 358.89 174.948C353.913 176.392 353.331 176.368 349.183 174.535C345.719 173.006 344.515 171.816 343.587 169.007C342.936 167.038 342.692 164.521 343.045 163.412C344.02 160.342 348.411 155.545 351.902 153.735C356.724 151.235 353.498 151.108 346.929 153.54C342.163 155.303 339.21 157.515 331.321 165.226C321.376 174.946 318.858 179.087 317.281 188.326C316.618 192.205 316.139 192.73 322.715 182.37C325.54 177.921 327.514 176.073 331.646 174.018C338.353 170.68 339.437 170.711 344.046 174.369C346.119 176.014 348.202 177.359 348.676 177.359C349.149 177.359 349.537 178.981 349.537 180.963C349.537 186.271 345.017 193.807 339.741 197.297C335.381 200.181 329.072 202.117 327.888 200.934C327.074 200.122 332.084 193.5 336.455 189.61C338.434 187.848 339.474 186.39 338.765 186.37C334.131 186.234 317.799 198.776 308.644 209.5C301.883 217.42 294.787 230.839 292.007 240.963C290.293 247.201 290.26 247.242 286.915 246.945C283.63 246.653 283.478 246.435 280.612 237.899C277.03 227.23 274.711 222.542 269.111 214.649C261.669 204.158 243.964 188.917 236.738 186.78C234.711 186.181 235.31 187.187 239.982 192.227C243.135 195.627 245.713 199.055 245.713 199.847C245.713 203.661 233.814 198.641 228.985 192.79C224.974 187.931 221.978 177.359 224.611 177.359C225.085 177.359 227.169 176.014 229.241 174.369C233.797 170.754 235.412 170.675 241.503 173.771C247.202 176.667 249.673 179.21 253.742 186.361L256.845 191.815L256.245 187.495C254.744 176.671 241.995 161.186 229.409 154.899C220.312 150.355 216.569 150.208 222.955 154.646C230.705 160.033 232.853 166.43 228.688 171.718C223.325 178.527 211.718 176.58 203.495 167.491C198.858 162.366 195.172 155.101 194.322 149.415C193.767 145.702 194.048 144.378 196.012 141.47C199.182 136.775 202.898 135.195 210.765 135.195C220.796 135.195 230.895 139.003 245.077 148.132C248.846 150.558 252.12 152.351 252.354 152.118C253.321 151.152 242.353 142.522 235.76 139.062C230.172 136.129 224.791 134.506 210.482 131.438C200.484 129.294 189.651 126.587 186.407 125.421C180.224 123.201 166.074 115.252 161.21 111.266C159.644 109.983 150.275 103.393 140.392 96.6233C130.509 89.8531 117.481 80.8848 111.441 76.6947C97.7048 67.1651 89.6176 62.2871 84.4873 60.4348C82.291 59.6423 79.7074 58.6613 78.747 58.2546C77.7867 57.8478 77 57.9385 77 58.4549Z" fill="#FF0000"/>
<path fill-rule="evenodd" clip-rule="evenodd" d="M251.201 5.32512C262.933 18.0246 268.984 35.3564 272.044 65.0229L272.714 71.5191L263.851 63.0211C258.877 58.2509 252.358 53.133 248.994 51.357C245.698 49.616 233.357 44.9977 221.571 41.096C199.399 33.7544 186.335 27.6969 171.665 17.9547C167.594 15.2513 164.118 13.1835 163.941 13.3614C163.763 13.5383 166.819 17.2521 170.731 21.6135C179.23 31.0889 182.54 37.5321 182.553 44.63C182.569 52.9141 178.765 54.6431 164.169 52.984C148.416 51.1931 139.76 46.7217 120.617 30.4863C115.128 25.831 110.637 22.2771 110.637 22.5899C110.637 23.3685 118.005 34.2491 123.467 41.5368C125.938 44.8348 135.84 55.2767 145.47 64.7411C155.1 74.2065 162.753 82.1768 162.477 82.4537C161.758 83.1713 147.126 79.5574 140.098 76.9269C129.624 73.0062 119.855 61.8438 117.57 51.1871L116.496 46.1761L105.824 43.6775C85.2972 38.8724 74.4614 37.6161 54.8746 37.774C33.3388 37.9479 20.545 39.3011 9.67317 42.5562C-3.05271 46.3669 -3.14961 46.9686 8.95391 47.0036C17.3123 47.0266 20.8796 47.4913 25.2411 49.1243C32.7244 51.9257 43.3345 59.1834 53.8856 68.7178C62.4058 76.4182 69.2737 80.9246 87.1053 90.5159C97.3777 96.0407 102.803 100.711 109.413 109.717C111.99 113.228 114.265 115.597 114.47 114.982C114.675 114.367 113.435 111.002 111.714 107.505C106.303 96.5084 90.393 81.1714 71.3376 68.5828C62.5766 62.7953 59.1012 59.5402 55.7996 54.0294C52.9306 49.2412 53.1563 47.3324 56.8585 45.0797C61.6186 42.1834 66.2538 41.8096 76.1726 43.5226C92.0423 46.263 103.137 53.4717 111.683 66.595C119.68 78.8738 134.115 86.4333 157.227 90.445C171.146 92.8615 174.313 94.3317 194.849 107.905C205.399 114.878 214.703 120.994 215.524 121.497C216.345 121.999 215.303 120.023 213.207 117.104C211.112 114.187 209.545 111.652 209.725 111.473C210.338 110.858 249.235 120.805 252.115 122.313C258.928 125.881 268.775 139.979 264.453 139.979C263.89 139.979 260.968 139.113 257.96 138.056C247.972 134.544 251.318 137.467 269.07 147.765L276.157 151.878L276.791 181.158C277.139 197.261 277.883 215.16 278.442 220.931C280.411 241.235 284.245 262.088 286.408 264.256C286.873 264.722 287.953 262.698 288.806 259.758C293.323 244.195 296.294 215.307 297.14 178.719C297.665 156.001 297.996 151.799 299.35 150.67C300.225 149.941 305.211 146.939 310.431 143.999C321.412 137.816 320.921 138.148 320.186 137.412C319.874 137.1 317.239 137.551 314.33 138.416C306.907 140.621 306.174 139.327 310.934 132.415C317.376 123.057 319.243 122.111 342.78 116.29C354.343 113.429 363.937 111.224 364.101 111.388C364.265 111.551 362.824 113.666 360.9 116.088C358.976 118.509 357.398 120.834 357.393 121.253C357.387 121.673 365.549 116.557 375.532 109.885C385.514 103.212 395.74 96.7243 398.259 95.467C400.776 94.2088 408.547 92.009 415.528 90.5769C444.137 84.7064 452.1 80.216 464.244 63.1061C472.419 51.5889 483.389 45.5864 500.956 43.0169C508.326 41.9386 509.371 42.0065 513.521 43.8434C520.054 46.7347 520.794 48.7455 517.31 54.1434C514.461 58.5568 509.848 63.217 505.23 66.3452C503.857 67.2756 499.768 70.053 496.144 72.5155C486.638 78.9757 473.517 90.7698 467.979 97.8316C463.308 103.787 457.577 114.625 458.572 115.62C458.846 115.895 461.587 112.774 464.663 108.685C471.631 99.4237 476.102 95.7728 488.747 89.0228C503.472 81.1634 511.441 75.8046 520.832 67.4445C531.272 58.152 542.865 50.5025 549.493 48.5337C552.478 47.6472 558.654 47.0216 564.601 47.0036C571.798 46.9816 574.171 46.6888 572.944 45.9732C570.278 44.4181 559.92 41.2779 553.498 40.0766C545.258 38.5356 512.962 36.8545 505.23 37.5641C493.495 38.6415 477.939 41.137 467.02 43.6935C456.691 46.1121 456.281 46.31 456.271 48.8695C456.259 52.1445 452.305 60.8214 448.627 65.6466C444.371 71.2273 437.614 75.8386 430.404 78.0793C421.985 80.6957 411.327 82.9584 411.327 82.1289C411.327 81.7771 418.32 74.5233 426.866 66.0104C435.413 57.4974 444.795 47.6082 447.715 44.0353C454.118 36.2009 462.275 24.3309 462.275 22.8478C462.275 22.2571 460.14 23.7603 457.529 26.1878C443.99 38.7794 430.341 48.0839 421.72 50.5984C413.764 52.9191 400.506 54.1514 396.145 52.977C391.392 51.6968 389.949 49.0554 390.671 42.9549C391.48 36.129 395.173 29.5519 402.866 21.2397C406.562 17.2451 409.348 13.7382 409.056 13.4473C408.765 13.1555 406.484 14.4767 403.988 16.3826C393.072 24.7187 375.677 33.0378 354.21 40.1896C323.426 50.4455 320.735 51.8297 308.183 63.8766L301.44 70.3478V66.7579C301.44 61.1242 303.384 48.2668 305.513 39.8288C309.096 25.6202 315.73 12.6678 323.768 4.1818C327.445 0.301083 327.574 0.0142504 324.916 1.64329C314.09 8.27738 301.229 20.6521 294.945 30.4783C291.228 36.2919 287.5 45.3306 287.406 48.7575C287.38 49.733 286.086 47.1115 284.533 42.932C282.979 38.7514 280.013 32.68 277.941 29.4399C271.758 19.7686 258.592 7.03112 247.995 0.467984C245.87 -0.84824 246.802 0.562925 251.201 5.32512ZM205.954 49.3512C203.624 51.357 203.345 52.1675 203.923 55.2527C204.687 59.3253 208.362 66.616 212.167 71.6081C214.818 75.084 216.528 75.2809 216.528 72.1098C216.528 68.8597 222.392 62.0677 227.194 59.7571C233.121 56.9037 234.753 54.4652 232.071 52.4713C228.875 50.0977 224.924 50.7374 220.891 54.2793C218.858 56.0652 217.042 57.0776 216.857 56.528C215.95 53.8375 212.42 49.0424 210.647 48.0939C209.043 47.2344 208.13 47.4793 205.954 49.3512ZM362.121 48.1169C361.156 48.6796 359.461 50.9143 358.355 53.084C357.248 55.2527 356.074 57.0277 355.746 57.0277C355.418 57.0277 353.613 55.6785 351.735 54.0294C347.765 50.5405 343.529 50.1237 340.957 52.9671C338.726 55.4336 339.602 56.7868 344.963 59.1594C349.966 61.3731 355.989 67.9482 356.927 72.2187L357.577 75.182L360.012 72.8943C363.44 69.6722 369.37 57.3895 369.37 53.5107C369.37 51.1601 368.689 49.8149 366.908 48.6476C364.048 46.7727 364.368 46.8077 362.121 48.1169ZM186.226 54.696C185.86 55.0618 185.56 57.1226 185.56 59.2743V63.187L182.195 61.1073C177.549 58.234 173.57 58.3119 173.577 61.2752C173.586 65.1209 176.69 68.7298 187.911 77.9453C195.759 84.3905 202.333 88.693 211.709 93.5212C218.834 97.19 224.843 100.011 225.063 99.7925C225.283 99.5726 223.701 96.0297 221.548 91.9191C216.763 82.7825 207.244 71.2103 202.328 68.5509L198.687 66.582L194.208 69.8001C191.744 71.5701 189.526 73.0182 189.279 73.0182C189.031 73.0182 189.891 70.9185 191.19 68.352C194.027 62.7453 194.229 57.9511 191.724 55.6835C189.835 53.9735 187.388 53.5337 186.226 54.696ZM381.831 55.4236C379.287 57.2855 379.547 63.9806 382.348 68.7298C384.842 72.9603 384.512 73.7068 381.261 71.1823C376.297 67.3286 374.65 66.8759 371.053 68.38C366.735 70.1839 357.047 82.0969 351.581 92.3219C346.597 101.644 346.499 101.636 362.378 93.2903C374.136 87.1099 376.193 85.6878 388.676 75.104C397.118 67.9472 400.338 63.9346 400.338 60.5756C400.338 58.2869 394.175 58.5857 391.075 61.0253C387.801 63.6018 386.982 63.5488 387.698 60.8054C389.15 55.2537 386.006 52.3694 381.831 55.4236ZM237.057 63.3639C231.174 67.6674 245.759 87.6306 256.237 89.6155C259.783 90.2871 260.491 91.5873 257.735 92.3678C253.56 93.5501 243.794 94.0588 241.518 93.2123L239.038 92.2899L241.329 91.5623C245.059 90.378 243.345 85.4839 237.023 79.2646C231.517 73.8497 227.336 72.4426 226.125 75.5987C224.214 80.5808 227.67 91.6253 233.41 98.875C236.697 103.029 247.674 110.996 250.107 110.996C251.738 110.996 251.928 107.684 250.458 104.933C248.54 101.348 251.155 102.966 256.623 108.747C259.611 111.907 265.187 119.432 269.012 125.467L275.967 136.441L276.746 122.291C277.468 109.166 277.341 107.331 274.998 96.9421C273.607 90.7818 272.47 84.4985 272.47 82.9784C272.47 79.7063 264.546 71.9479 254.988 65.8605C250.084 62.7383 248.075 62.0417 243.941 62.0347C241.162 62.0287 238.064 62.6274 237.057 63.3639ZM323.418 62.8442C315.55 66.4111 301.44 78.3721 301.44 81.4743C301.44 82.7185 300.342 89.1307 299 95.7229C296.811 106.476 296.631 109.136 297.252 121.595L297.944 135.481L304.437 125.052C308.009 119.314 313.339 112.006 316.283 108.811C321.596 103.043 324.315 101.374 322.896 104.75C321.098 109.031 321.152 110.996 323.069 110.996C325.384 110.996 331.619 106.944 336.736 102.116C347.163 92.2759 351.695 74.0176 343.709 74.0176C339.904 74.0176 330.41 83.9948 330.41 87.9934C330.41 89.7214 331.07 91.0466 332.131 91.4544C335.934 92.9145 330.889 94.0448 323.418 93.4062C313.729 92.5787 311.638 91.0936 317.68 89.3316C325.104 87.1659 333.637 78.45 337.346 69.2445C338.511 66.3552 338.457 65.7405 336.881 63.9976C335.527 62.5014 333.865 62.0417 330.006 62.0947C327.207 62.1337 324.242 62.4705 323.418 62.8442Z" fill="white"/>
</mask>
<g mask="url(#mask0_439_10097)">
<path fill-rule="evenodd" clip-rule="evenodd" d="M-0.26266 -131.843C-0.231929 -122.93 -0.121971 -116.07 -0.0177751 -116.598C0.945919 -121.491 1.35118 -122.998 2.3941 -125.565C5.43836 -133.056 11.1706 -139.563 18.1681 -143.471C21.6665 -145.424 24.7631 -146.508 29.2119 -147.336C32.2753 -147.907 31.1172 -147.966 16.1273 -148.006L-0.318359 -148.049L-0.26266 -131.843ZM41.398 -147.508C48.4814 -146.331 55.7281 -142.513 60.9029 -137.233C66.1309 -131.897 69.1829 -126.06 70.6575 -118.574L71.4123 -114.743L72.0538 -118.541C73.3032 -125.938 77.1431 -132.892 82.9963 -138.358C88.0308 -143.06 93.9479 -146.049 100.757 -147.33C103.677 -147.879 99.8295 -147.96 71.4665 -147.949C50.6432 -147.941 39.7511 -147.781 41.398 -147.508ZM113.728 -147.35C128.156 -144.728 139.97 -132.732 142.357 -118.278L142.933 -114.793L143.753 -118.816C146.853 -134.016 158.175 -144.985 173.421 -147.558C174.654 -147.766 160.97 -147.942 143.011 -147.949C115.141 -147.96 110.853 -147.873 113.728 -147.35ZM185.266 -147.33C192.869 -145.9 198.267 -142.999 204.012 -137.26C207.342 -133.934 208.827 -132.005 210.389 -128.98C212.389 -125.107 214.26 -119.088 214.374 -116.161C214.424 -114.882 214.496 -114.975 214.897 -116.838C216.614 -124.815 219.022 -130.154 223.167 -135.179C228.576 -141.737 237.21 -146.522 245.767 -147.706C246.559 -147.815 232.514 -147.918 214.556 -147.934C186.224 -147.959 182.349 -147.878 185.266 -147.33ZM254.89 -147.748C259.783 -146.785 261.29 -146.379 263.857 -145.336C271.348 -142.292 277.856 -136.56 281.763 -129.562C283.73 -126.04 284.812 -122.933 285.611 -118.519C286.263 -114.917 286.403 -115.003 287.244 -119.525C289.03 -129.128 295.903 -138.487 304.827 -143.471C308.326 -145.424 311.423 -146.508 315.871 -147.336C318.775 -147.877 314.788 -147.96 286.581 -147.95C268.623 -147.943 254.362 -147.852 254.89 -147.748ZM328.057 -147.508C335.141 -146.331 342.388 -142.513 347.562 -137.233C352.79 -131.897 355.842 -126.06 357.317 -118.574L358.072 -114.743L358.713 -118.541C359.963 -125.938 363.802 -132.892 369.656 -138.358C374.69 -143.06 380.607 -146.049 387.416 -147.33C390.336 -147.879 386.489 -147.96 358.126 -147.949C337.303 -147.941 326.41 -147.781 328.057 -147.508ZM400.387 -147.35C414.816 -144.728 426.629 -132.732 429.016 -118.278L429.592 -114.793L430.413 -118.816C433.512 -134.016 444.834 -144.985 460.08 -147.558C461.313 -147.766 447.629 -147.942 429.671 -147.949C401.8 -147.96 397.513 -147.873 400.387 -147.35ZM471.925 -147.33C479.528 -145.9 484.927 -142.999 490.671 -137.26C494.001 -133.934 495.486 -132.005 497.049 -128.98C499.049 -125.107 500.919 -119.088 501.033 -116.161C501.083 -114.882 501.155 -114.975 501.556 -116.838C503.274 -124.815 505.681 -130.154 509.826 -135.179C515.235 -141.737 523.87 -146.522 532.426 -147.706C533.219 -147.815 519.174 -147.918 501.216 -147.934C472.884 -147.959 469.009 -147.878 471.925 -147.33ZM541.55 -147.748C546.442 -146.785 547.949 -146.379 550.517 -145.336C558.008 -142.292 564.515 -136.56 568.423 -129.562C570.376 -126.064 571.46 -122.967 572.288 -118.519C572.858 -115.455 572.917 -116.613 572.957 -131.603L573 -148.049L556.795 -147.993C547.882 -147.962 541.021 -147.852 541.55 -147.748ZM70.5768 -105.565C69.0878 -97.9871 65.1024 -90.9032 59.3716 -85.6478C55.0847 -81.7167 48.2303 -78.3229 42.1764 -77.1335L37.8549 -76.2846L40.2668 -75.9797C46.3567 -75.2104 53.6082 -71.9991 58.3954 -67.9513C64.0355 -63.1823 68.5678 -56.0254 70.0083 -49.6147C70.3938 -47.8981 70.9115 -45.6293 71.1583 -44.5729L71.6072 -42.6523L71.6572 -44.3021C71.8478 -50.6442 75.8596 -59.3309 81.2898 -65.1601C86.7507 -71.022 96.6076 -75.8793 103.428 -76.0699C104.533 -76.1007 103.729 -76.4008 100.997 -76.9779C89.4032 -79.4263 80.6632 -85.8673 75.6118 -95.6843C73.3858 -100.01 72.7452 -101.906 71.9846 -106.418L71.4123 -109.817L70.5768 -105.565ZM142.583 -107.281C141.64 -100.171 138.284 -93.305 133.028 -87.7318C127.54 -81.9117 121.743 -78.7411 113.651 -77.1326L109.4 -76.287L112.281 -75.9259C123.218 -74.5545 133.576 -67.1235 138.858 -56.8599C141.071 -52.56 141.646 -50.8722 142.506 -46.1657C142.868 -44.1806 143.17 -43.2976 143.2 -44.136C143.293 -46.8052 145.071 -52.7987 146.767 -56.1622C151.633 -65.8131 159.4 -72.2185 169.651 -75.0366C171.626 -75.5797 174.003 -76.0387 174.933 -76.0575C176.066 -76.08 175.042 -76.4613 171.821 -77.2166C163.661 -79.1291 158.139 -82.2425 152.723 -87.9843C147.844 -93.1557 145.356 -98.0952 143.762 -105.768L142.92 -109.823L142.583 -107.281ZM214.316 -108.146C214.316 -105.504 212.489 -99.6384 210.439 -95.6972C205.842 -86.8612 196.925 -79.7485 187.907 -77.7222C186.19 -77.3366 183.922 -76.819 182.865 -76.5722L180.945 -76.1232L182.594 -76.0733C189.44 -75.8678 199.274 -71.0196 204.733 -65.1601C210.166 -59.3285 214.185 -50.6206 214.362 -44.3021C214.393 -43.1977 214.693 -44.0011 215.27 -46.7337C217.719 -58.3273 224.159 -67.0673 233.976 -72.1187C238.302 -74.3447 240.198 -74.9853 244.71 -75.7458L248.109 -76.3182L243.857 -77.1537C236.279 -78.6427 229.195 -82.6281 223.94 -88.3588C220.088 -92.5603 216.624 -99.503 215.482 -105.314C214.58 -109.905 214.316 -110.544 214.316 -108.146ZM357.236 -105.565C355.747 -97.9871 351.762 -90.9032 346.031 -85.6478C341.744 -81.7167 334.89 -78.3229 328.836 -77.1335L324.514 -76.2846L326.926 -75.9797C333.016 -75.2104 340.268 -71.9991 345.055 -67.9513C350.695 -63.1823 355.227 -56.0254 356.668 -49.6147C357.053 -47.8981 357.571 -45.6293 357.818 -44.5729L358.267 -42.6523L358.317 -44.3021C358.507 -50.6442 362.519 -59.3309 367.949 -65.1601C373.41 -71.022 383.267 -75.8793 390.088 -76.0699C391.192 -76.1007 390.389 -76.4008 387.656 -76.9779C376.063 -79.4263 367.323 -85.8673 362.271 -95.6843C360.045 -100.01 359.405 -101.906 358.644 -106.418L358.072 -109.817L357.236 -105.565ZM429.242 -107.281C428.299 -100.171 424.943 -93.305 419.688 -87.7318C414.2 -81.9117 408.403 -78.7411 400.311 -77.1326L396.059 -76.287L398.94 -75.9259C409.877 -74.5545 420.235 -67.1235 425.517 -56.8599C427.73 -52.56 428.306 -50.8722 429.165 -46.1657C429.528 -44.1806 429.83 -43.2976 429.859 -44.136C429.952 -46.8052 431.73 -52.7987 433.426 -56.1622C438.293 -65.8131 446.059 -72.2185 456.31 -75.0366C458.286 -75.5797 460.663 -76.0387 461.592 -76.0575C462.726 -76.08 461.702 -76.4613 458.481 -77.2166C450.321 -79.1291 444.798 -82.2425 439.382 -87.9843C434.504 -93.1557 432.015 -98.0952 430.421 -105.768L429.579 -109.823L429.242 -107.281ZM500.975 -108.146C500.975 -105.504 499.148 -99.6384 497.098 -95.6972C492.501 -86.8612 483.585 -79.7485 474.566 -77.7222C472.85 -77.3366 470.581 -76.819 469.525 -76.5722L467.604 -76.1232L469.254 -76.0733C476.099 -75.8678 485.933 -71.0196 491.392 -65.1601C496.825 -59.3285 500.845 -50.6206 501.022 -44.3021C501.052 -43.1977 501.352 -44.0011 501.93 -46.7337C504.378 -58.3273 510.819 -67.0673 520.636 -72.1187C524.962 -74.3447 526.858 -74.9853 531.37 -75.7458L534.769 -76.3182L530.517 -77.1537C522.939 -78.6427 515.855 -82.6281 510.599 -88.3588C506.747 -92.5603 503.283 -99.503 502.141 -105.314C501.239 -109.905 500.975 -110.544 500.975 -108.146ZM-0.203119 -76.2639C-0.228088 -47.9322 -0.1479 -44.0572 0.40045 -46.9738C1.83087 -54.5767 4.73107 -59.9752 10.47 -65.7195C13.7966 -69.0494 15.7254 -70.5346 18.7505 -72.0971C22.6235 -74.0969 28.6424 -75.9677 31.5695 -76.0815C32.8487 -76.1314 32.755 -76.2034 30.8925 -76.6044C22.9155 -78.3219 17.577 -80.7295 12.5511 -84.8748C5.99391 -90.2834 1.20809 -98.9182 0.0249597 -107.475C-0.0849985 -108.267 -0.187274 -94.2222 -0.203119 -76.2639ZM285.713 -106.301C284.956 -99.9045 280.838 -92.034 275.525 -86.8276C270.19 -81.5995 264.352 -78.5476 256.867 -77.073L253.035 -76.3182L256.833 -75.6767C267.544 -73.8674 277.453 -66.4503 282.264 -56.641C284.43 -52.2249 285.861 -47.67 285.861 -45.1924C285.861 -44.4553 286.077 -43.8527 286.341 -43.8527C286.605 -43.8527 286.821 -44.4553 286.821 -45.1924C286.821 -47.6974 288.262 -52.2441 290.505 -56.8172C292.398 -60.6777 293.412 -62.0457 297.104 -65.7195C300.43 -69.0293 302.403 -70.5437 305.41 -72.0971C309.283 -74.0969 315.302 -75.9677 318.229 -76.0815C319.508 -76.1314 319.414 -76.2034 317.552 -76.6044C306.752 -78.9298 299.218 -83.3334 293.797 -90.4884C290.154 -95.2973 286.821 -103.388 286.821 -107.424C286.821 -109.601 286.006 -108.776 285.713 -106.301ZM572.373 -106.301C571.615 -99.9045 567.497 -92.034 562.184 -86.8276C556.849 -81.5995 551.011 -78.5476 543.526 -77.073L539.694 -76.3182L543.492 -75.6767C550.889 -74.4273 557.844 -70.5874 563.31 -64.7342C568.012 -59.6996 571.001 -53.7825 572.282 -46.9738C572.833 -44.0424 572.919 -47.7709 572.957 -76.1439C572.981 -94.0363 572.923 -108.675 572.827 -108.675C572.732 -108.675 572.528 -107.607 572.373 -106.301ZM70.5974 -33.9968C68.9721 -26.0774 65.5485 -19.9039 59.7462 -14.4305C54.5152 -9.49582 47.3948 -6.06935 40.4603 -5.14935L37.9077 -4.81084L41.9627 -3.97679C49.9954 -2.32502 56.1147 1.00926 61.3979 6.61376C66.5309 12.0593 69.096 17.0852 70.5979 24.6411L71.4435 28.8925L71.8046 26.0115C73.1759 15.0743 80.607 4.71615 90.8705 -0.565683C95.1704 -2.77829 96.8582 -3.354 101.565 -4.2135C103.55 -4.57603 104.433 -4.87805 103.594 -4.90734C98.7227 -5.0778 90.7543 -8.30692 85.3189 -12.3139C78.3502 -17.4502 72.9123 -26.7991 71.806 -35.5458L71.4665 -38.2314L70.5974 -33.9968ZM142.561 -35.5256C141.534 -27.3014 136.791 -18.8504 129.914 -12.9919C126.024 -9.6778 119.545 -6.64747 113.964 -5.53109L109.404 -4.61924L112.205 -4.2692C120.429 -3.24164 128.88 1.50144 134.739 8.37839C138.053 12.2687 141.083 18.7471 142.199 24.3286L143.111 28.8877L143.461 26.0874C144.489 17.8631 149.232 9.41218 156.109 3.55367C159.999 0.239561 166.478 -2.79077 172.059 -3.90715L176.618 -4.819L173.818 -5.16904C165.594 -6.1966 157.143 -10.9397 151.284 -17.8166C147.97 -21.7069 144.94 -28.1853 143.823 -33.7668L142.911 -38.326L142.561 -35.5256ZM214.16 -35.2894C213.824 -32.0713 211.905 -26.39 210.079 -23.2055C206.463 -16.9 201.511 -12.1449 195.152 -8.87256C190.852 -6.65995 189.164 -6.08424 184.458 -5.22474C182.473 -4.86221 181.59 -4.56019 182.428 -4.5309C185.097 -4.43774 191.091 -2.65968 194.454 -0.963731C204.105 3.90276 210.511 11.6694 213.329 21.9205C213.872 23.8959 214.331 26.2728 214.35 27.2024C214.372 28.336 214.754 27.3118 215.509 24.0909C217.421 15.9309 220.535 10.4085 226.277 4.99225C231.507 0.0575788 238.628 -3.36889 245.562 -4.28889L248.115 -4.6274L244.06 -5.46145C236.027 -7.11323 229.908 -10.4475 224.625 -16.052C219.542 -21.4443 216.961 -26.4577 215.491 -33.7985C215.045 -36.0269 214.629 -37.9092 214.567 -37.9812C214.506 -38.0528 214.322 -36.8418 214.16 -35.2894ZM357.257 -33.9968C355.631 -26.0774 352.208 -19.9039 346.406 -14.4305C341.175 -9.49582 334.054 -6.06935 327.12 -5.14935L324.567 -4.81084L328.622 -3.97679C336.655 -2.32502 342.774 1.00926 348.057 6.61376C353.19 12.0593 355.755 17.0852 357.257 24.6411L358.103 28.8925L358.464 26.0115C359.835 15.0743 367.266 4.71615 377.53 -0.565683C381.83 -2.77829 383.518 -3.354 388.224 -4.2135C390.209 -4.57603 391.092 -4.87805 390.254 -4.90734C385.382 -5.0778 377.414 -8.30692 371.978 -12.3139C365.01 -17.4502 359.572 -26.7991 358.465 -35.5458L358.126 -38.2314L357.257 -33.9968ZM429.221 -35.5256C428.193 -27.3014 423.45 -18.8504 416.573 -12.9919C412.683 -9.6778 406.205 -6.64747 400.623 -5.53109L396.064 -4.61924L398.864 -4.2692C407.089 -3.24164 415.539 1.50144 421.398 8.37839C424.712 12.2687 427.742 18.7471 428.859 24.3286L429.771 28.8877L430.121 26.0874C431.148 17.8631 435.891 9.41218 442.768 3.55367C446.659 0.239561 453.137 -2.79077 458.718 -3.90715L463.278 -4.819L460.477 -5.16904C452.253 -6.1966 443.802 -10.9397 437.944 -17.8166C434.629 -21.7069 431.599 -28.1853 430.483 -33.7668L429.571 -38.326L429.221 -35.5256ZM500.819 -35.2894C500.483 -32.0713 498.565 -26.39 496.739 -23.2055C493.123 -16.9 488.17 -12.1449 481.812 -8.87256C477.512 -6.65995 475.824 -6.08424 471.117 -5.22474C469.132 -4.86221 468.249 -4.56019 469.088 -4.5309C471.757 -4.43774 477.75 -2.65968 481.114 -0.963731C490.765 3.90276 497.17 11.6694 499.988 21.9205C500.531 23.8959 500.99 26.2728 501.009 27.2024C501.032 28.336 501.413 27.3118 502.168 24.0909C504.081 15.9309 507.194 10.4085 512.936 4.99225C518.167 0.0575788 525.287 -3.36889 532.222 -4.28889L534.774 -4.6274L530.719 -5.46145C522.687 -7.11323 516.567 -10.4475 511.284 -16.052C506.201 -21.4443 503.621 -26.4577 502.15 -33.7985C501.704 -36.0269 501.289 -37.9092 501.227 -37.9812C501.165 -38.0528 500.982 -36.8418 500.819 -35.2894ZM-0.218485 -4.71912C-0.229529 23.1517 -0.142138 27.4391 0.380283 24.5643C3.00247 10.1358 14.9985 -1.67774 29.4524 -4.06465L32.9375 -4.64037L28.9142 -5.46098C13.714 -8.56046 2.74558 -19.8823 0.172851 -35.1285C-0.0350611 -36.3616 -0.211282 -22.6773 -0.218485 -4.71912ZM285.559 -33.8892C283.341 -19.9106 270.982 -7.7533 256.57 -5.37359L253.085 -4.79787L257.109 -3.97726C268.545 -1.64557 277.465 5.16127 282.669 15.5252C284.084 18.3433 285.861 24.3766 285.861 26.3621C285.861 28.8383 286.606 27.7104 287.123 24.451C289.341 10.4724 301.7 -1.68495 316.112 -4.06465L319.597 -4.64037L315.574 -5.46098C304.137 -7.79267 295.217 -14.5995 290.013 -24.9634C288.598 -27.7815 286.821 -33.8148 286.821 -35.8003C286.821 -38.2765 286.076 -37.1486 285.559 -33.8892ZM572.218 -33.8892C570 -19.9106 557.641 -7.7533 543.23 -5.37359L539.745 -4.79787L543.768 -3.97726C558.968 -0.877782 569.937 10.4441 572.509 25.6903C572.717 26.9234 572.913 13.2929 572.944 -4.59908C572.975 -22.491 572.94 -37.1304 572.866 -37.1304C572.793 -37.1304 572.502 -35.6721 572.218 -33.8892ZM71.0305 35.855C69.4201 47.1768 62.1143 57.4999 52.0462 62.6804C47.7204 64.9065 45.8242 65.547 41.3126 66.3076L37.9135 66.88L42.1653 67.7154C49.7433 69.2044 56.8272 73.1898 62.0826 78.9206C66.0138 83.2075 69.4076 90.0619 70.597 96.1158L71.4459 100.437L71.7508 98.0255C72.52 91.9355 75.7314 84.684 79.7792 79.8968C84.5482 74.2567 91.7051 69.7245 98.1158 68.284C99.8324 67.8984 102.101 67.3808 103.158 67.134L105.078 66.685L103.428 66.6351C102.521 66.6082 100.36 66.2341 98.6267 65.8049C84.5146 62.3088 73.7123 50.3483 71.794 36.095L71.406 33.214L71.0305 35.855ZM142.823 34.6977C142.73 37.367 140.952 43.3604 139.256 46.724C134.389 56.3749 126.623 62.7803 116.372 65.5984C114.396 66.1415 112.019 66.6005 111.09 66.6192C109.956 66.6418 110.98 67.023 114.201 67.7783C122.361 69.6908 127.884 72.8042 133.3 78.5461C138.235 83.777 141.661 90.8974 142.581 97.832L142.92 100.385L143.754 96.3295C145.405 88.2968 148.74 82.1776 154.344 76.8943C159.79 71.7613 164.816 69.1963 172.372 67.6943L176.623 66.8487L173.742 66.4876C162.805 65.1163 152.447 57.6852 147.165 47.4217C144.952 43.1218 144.376 41.434 143.517 36.7274C143.154 34.7424 142.852 33.8594 142.823 34.6977ZM214.366 34.8639C214.175 41.2059 210.163 49.8926 204.733 55.7218C199.272 61.5837 189.415 66.4411 182.594 66.6317C181.49 66.6624 182.293 66.9625 185.026 67.5397C196.62 69.9881 205.36 76.429 210.411 86.246C212.637 90.5719 213.277 92.468 214.038 96.9797L214.61 100.379L215.446 96.1269C216.935 88.5489 220.92 81.465 226.651 76.2096C230.938 72.2785 237.792 68.8846 243.846 67.6953L248.168 66.8463L245.756 66.5414C239.666 65.7722 232.415 62.5608 227.627 58.513C221.987 53.744 217.455 46.5872 216.014 40.1764C215.629 38.4599 215.111 36.1911 214.864 35.1347L214.415 33.214L214.366 34.8639ZM357.69 35.855C356.079 47.1768 348.774 57.4999 338.706 62.6804C334.38 64.9065 332.484 65.547 327.972 66.3076L324.573 66.88L328.825 67.7154C336.403 69.2044 343.487 73.1898 348.742 78.9206C352.673 83.2075 356.067 90.0619 357.256 96.1158L358.105 100.437L358.41 98.0255C359.179 91.9355 362.391 84.684 366.439 79.8968C371.208 74.2567 378.364 69.7245 384.775 68.284C386.492 67.8984 388.761 67.3808 389.817 67.134L391.738 66.685L390.088 66.6351C389.18 66.6082 387.02 66.2341 385.286 65.8049C371.174 62.3088 360.372 50.3483 358.453 36.095L358.065 33.214L357.69 35.855ZM429.483 34.6977C429.389 37.367 427.611 43.3604 425.915 46.724C421.049 56.3749 413.282 62.7803 403.031 65.5984C401.056 66.1415 398.679 66.6005 397.749 66.6192C396.616 66.6418 397.64 67.023 400.861 67.7783C409.021 69.6908 414.543 72.8042 419.959 78.5461C424.894 83.777 428.321 90.8974 429.241 97.832L429.579 100.385L430.413 96.3295C432.065 88.2968 435.399 82.1776 441.004 76.8943C446.449 71.7613 451.475 69.1963 459.031 67.6943L463.282 66.8487L460.401 66.4876C449.464 65.1163 439.106 57.6852 433.824 47.4217C431.612 43.1218 431.036 41.434 430.176 36.7274C429.814 34.7424 429.512 33.8594 429.483 34.6977ZM501.025 34.8639C500.834 41.2059 496.823 49.8926 491.392 55.7218C485.931 61.5837 476.075 66.4411 469.254 66.6317C468.149 66.6624 468.953 66.9625 471.685 67.5397C483.279 69.9881 492.019 76.429 497.07 86.246C499.296 90.5719 499.937 92.468 500.697 96.9797L501.27 100.379L502.105 96.1269C503.594 88.5489 507.58 81.465 513.31 76.2096C517.597 72.2785 524.452 68.8846 530.506 67.6953L534.827 66.8463L532.415 66.5414C526.325 65.7722 519.074 62.5608 514.287 58.513C508.647 53.744 504.114 46.5872 502.674 40.1764C502.288 38.4599 501.771 36.1911 501.524 35.1347L501.075 33.214L501.025 34.8639ZM-0.218965 66.8257C-0.210802 87.6491 -0.0509066 98.5412 0.222788 96.8942C1.39968 89.8108 5.217 82.5641 10.4979 77.3894C15.833 72.1613 21.6709 69.1094 29.1562 67.6348L32.9879 66.88L29.1898 66.2385C21.7928 64.9891 14.8386 61.1492 9.37236 55.2959C4.67057 50.2614 1.68153 44.3443 0.40045 37.5355C-0.148861 34.6156 -0.230009 38.4627 -0.218965 66.8257ZM285.861 35.7541C285.861 38.2591 284.42 42.8058 282.178 47.3789C280.284 51.2395 279.27 52.6075 275.578 56.2812C272.252 59.591 270.279 61.1055 267.272 62.6588C263.399 64.6587 257.38 66.5294 254.453 66.6432C253.174 66.6932 253.268 66.7652 255.13 67.1661C265.93 69.4916 273.464 73.8952 278.885 81.0501C282.529 85.859 285.861 93.9493 285.861 97.9856C285.861 100.163 286.676 99.3373 286.969 96.8625C287.726 90.4662 291.844 82.5958 297.157 77.3894C302.492 72.1613 308.33 69.1094 315.816 67.6348L319.647 66.88L315.849 66.2385C305.139 64.4292 295.229 57.012 290.418 47.2027C288.252 42.7866 286.821 38.2318 286.821 35.7541C286.821 35.0171 286.605 34.4145 286.341 34.4145C286.077 34.4145 285.861 35.0171 285.861 35.7541ZM572.52 35.7541C572.52 38.2591 571.08 42.8058 568.837 47.3789C566.944 51.2395 565.93 52.6075 562.238 56.2812C558.911 59.591 556.938 61.1055 553.932 62.6588C550.059 64.6587 544.04 66.5294 541.113 66.6432C539.833 66.6932 539.927 66.7652 541.79 67.1661C549.767 68.8837 555.105 71.2912 560.131 75.4365C566.688 80.8451 571.474 89.4799 572.657 98.0365C572.767 98.8288 572.889 84.8377 572.928 66.9457C572.968 49.0538 572.892 34.4145 572.76 34.4145C572.628 34.4145 572.52 35.0171 572.52 35.7541ZM70.9912 107.64C69.1416 119.62 61.4263 130.1 50.8194 135.039C47.2575 136.698 42.3862 138.13 40.3066 138.13C38.1291 138.13 38.9549 138.945 41.4297 139.238C47.826 139.996 55.6964 144.114 60.9029 149.427C66.1309 154.762 69.1829 160.6 70.6575 168.085L71.4123 171.917L72.0538 168.119C73.8631 157.408 81.2802 147.499 91.0895 142.688C95.5056 140.522 100.06 139.091 102.538 139.091C103.275 139.091 103.878 138.875 103.878 138.611C103.878 138.346 103.275 138.13 102.538 138.13C100.033 138.13 95.4864 136.69 90.9133 134.447C87.0527 132.554 85.6848 131.54 82.011 127.848C76.1342 121.942 73.3473 116.624 71.9597 108.667L71.3619 105.239L70.9912 107.64ZM142.586 107.88C141.068 119.132 133.401 129.599 122.767 134.938C119.949 136.353 113.916 138.13 111.93 138.13C109.454 138.13 110.582 138.875 113.841 139.393C127.82 141.611 139.977 153.97 142.357 168.381L142.933 171.866L143.753 167.843C146.085 156.407 152.892 147.486 163.256 142.283C166.074 140.868 172.107 139.091 174.093 139.091C176.569 139.091 175.441 138.346 172.181 137.828C161.062 136.064 150.239 127.277 145.806 116.415C145.129 114.758 144.208 111.565 143.759 109.32L142.943 105.239L142.586 107.88ZM214.366 106.68C214.228 109.755 212.755 114.556 210.608 118.924C208.726 122.752 207.667 124.187 204.018 127.848C200.343 131.536 198.966 132.556 195.109 134.447C190.536 136.69 185.99 138.13 183.485 138.13C182.748 138.13 182.145 138.346 182.145 138.611C182.145 138.875 182.748 139.091 183.485 139.091C185.99 139.091 190.536 140.531 195.109 142.774C198.97 144.667 200.338 145.682 204.012 149.374C207.321 152.7 208.836 154.673 210.389 157.679C212.389 161.552 214.26 167.571 214.374 170.498C214.424 171.778 214.496 171.684 214.897 169.821C217.222 159.022 221.626 151.488 228.781 146.067C233.589 142.423 241.68 139.091 245.716 139.091C246.404 139.091 246.967 138.875 246.967 138.611C246.967 138.346 246.404 138.13 245.716 138.13C241.346 138.13 232.604 134.313 227.687 130.258C221.046 124.78 217.134 117.787 214.897 107.4C214.506 105.586 214.421 105.47 214.366 106.68ZM357.651 107.64C355.801 119.62 348.086 130.1 337.479 135.039C333.917 136.698 329.046 138.13 326.966 138.13C324.788 138.13 325.614 138.945 328.089 139.238C334.485 139.996 342.356 144.114 347.562 149.427C352.79 154.762 355.842 160.6 357.317 168.085L358.072 171.917L358.713 168.119C360.522 157.408 367.94 147.499 377.749 142.688C382.165 140.522 386.72 139.091 389.198 139.091C389.935 139.091 390.537 138.875 390.537 138.611C390.537 138.346 389.935 138.13 389.198 138.13C386.693 138.13 382.146 136.69 377.573 134.447C373.712 132.554 372.344 131.54 368.67 127.848C362.794 121.942 360.007 116.624 358.619 108.667L358.021 105.239L357.651 107.64ZM429.246 107.88C427.727 119.132 420.06 129.599 409.426 134.938C406.608 136.353 400.575 138.13 398.59 138.13C396.113 138.13 397.241 138.875 400.501 139.393C414.479 141.611 426.637 153.97 429.016 168.381L429.592 171.866L430.413 167.843C432.744 156.407 439.551 147.486 449.915 142.283C452.733 140.868 458.766 139.091 460.752 139.091C463.228 139.091 462.1 138.346 458.841 137.828C447.722 136.064 436.898 127.277 432.465 116.415C431.789 114.758 430.868 111.565 430.419 109.32L429.603 105.239L429.246 107.88ZM501.026 106.68C500.888 109.755 499.414 114.556 497.267 118.924C495.385 122.752 494.326 124.187 490.678 127.848C487.003 131.536 485.625 132.556 481.769 134.447C477.196 136.69 472.649 138.13 470.144 138.13C469.407 138.13 468.804 138.346 468.804 138.611C468.804 138.875 469.407 139.091 470.144 139.091C472.649 139.091 477.196 140.531 481.769 142.774C485.629 144.667 486.997 145.682 490.671 149.374C493.981 152.7 495.495 154.673 497.049 157.679C499.049 161.552 500.919 167.571 501.033 170.498C501.083 171.778 501.155 171.684 501.556 169.821C503.881 159.022 508.285 151.488 515.44 146.067C520.249 142.423 528.339 139.091 532.376 139.091C533.064 139.091 533.627 138.875 533.627 138.611C533.627 138.346 533.064 138.13 532.376 138.13C528.005 138.13 519.264 134.313 514.347 130.258C507.706 124.78 503.793 117.787 501.556 107.4C501.166 105.586 501.081 105.47 501.026 106.68ZM-0.219445 138.371C-0.212723 156.329 -0.121971 170.59 -0.0177751 170.061C0.945919 165.169 1.35118 163.662 2.3941 161.094C5.43836 153.603 11.1706 147.096 18.1681 143.188C21.6901 141.222 24.7972 140.139 29.2119 139.34C32.8136 138.689 32.7272 138.549 28.2055 137.707C18.6026 135.921 9.2432 129.049 4.25955 120.124C2.30623 116.626 1.22249 113.529 0.394208 109.08C-0.14646 106.177 -0.230009 110.164 -0.219445 138.371ZM286.223 106.439C286.09 106.836 285.737 108.477 285.438 110.087C283.652 119.69 276.779 129.049 267.855 134.033C264.333 135.999 261.225 137.082 256.811 137.881C253.209 138.532 253.296 138.673 257.817 139.514C267.42 141.3 276.78 148.172 281.763 157.097C283.73 160.619 284.812 163.726 285.611 168.141C286.263 171.743 286.403 171.656 287.244 167.134C289.03 157.532 295.903 148.172 304.827 143.188C308.349 141.222 311.457 140.139 315.871 139.34C319.473 138.689 319.387 138.549 314.865 137.707C305.262 135.921 295.903 129.049 290.919 120.124C288.952 116.602 287.87 113.495 287.071 109.08C286.737 107.232 286.355 106.043 286.223 106.439ZM572.515 107.76C572.501 110.883 570.06 117.556 567.409 121.716C565.083 125.366 563.356 127.354 560.109 130.115C555.21 134.282 550.05 136.69 543.47 137.881C539.869 138.532 539.955 138.673 544.477 139.514C554.079 141.3 563.439 148.172 568.423 157.097C570.376 160.595 571.46 163.692 572.288 168.141C572.831 171.056 572.919 167.19 572.957 138.971C572.981 121.078 572.892 106.439 572.76 106.439C572.628 106.439 572.518 107.033 572.515 107.76ZM70.5768 181.094C69.0878 188.672 65.1024 195.756 59.3716 201.012C55.0847 204.943 48.2303 208.337 42.1764 209.526L37.8549 210.375L40.2668 210.68C46.3567 211.449 53.6082 214.66 58.3954 218.708C64.0355 223.477 68.5678 230.634 70.0083 237.045C70.3938 238.761 70.9115 241.03 71.1583 242.086L71.6072 244.007L71.6572 242.357C71.8478 236.015 75.8596 227.329 81.2898 221.499C86.7507 215.637 96.6076 210.78 103.428 210.589C104.533 210.559 103.729 210.259 100.997 209.681C89.4032 207.233 80.6632 200.792 75.6118 190.975C73.3858 186.649 72.7452 184.753 71.9846 180.241L71.4123 176.842L70.5768 181.094ZM142.583 179.379C141.64 186.488 138.284 193.354 133.028 198.928C127.54 204.748 121.743 207.918 113.651 209.527L109.4 210.372L112.281 210.734C123.218 212.105 133.576 219.536 138.858 229.799C141.071 234.099 141.646 235.787 142.506 240.494C142.868 242.479 143.17 243.362 143.2 242.523C143.293 239.854 145.071 233.861 146.767 230.497C151.633 220.846 159.4 214.441 169.651 211.623C171.626 211.08 174.003 210.621 174.933 210.602C176.066 210.579 175.042 210.198 171.821 209.443C163.661 207.53 158.139 204.417 152.723 198.675C147.844 193.504 145.356 188.564 143.762 180.892L142.92 176.837L142.583 179.379ZM214.316 178.514C214.316 181.155 212.489 187.021 210.439 190.962C205.842 199.798 196.925 206.911 187.907 208.937C186.19 209.323 183.922 209.84 182.865 210.087L180.945 210.536L182.594 210.586C189.44 210.792 199.274 215.64 204.733 221.499C210.166 227.331 214.185 236.039 214.362 242.357C214.393 243.462 214.693 242.658 215.27 239.926C217.719 228.332 224.159 219.592 233.976 214.541C238.302 212.315 240.198 211.674 244.71 210.914L248.109 210.341L243.857 209.506C236.279 208.017 229.195 204.031 223.94 198.301C220.088 194.099 216.624 187.156 215.482 181.345C214.58 176.755 214.316 176.115 214.316 178.514ZM357.236 181.094C355.747 188.672 351.762 195.756 346.031 201.012C341.744 204.943 334.89 208.337 328.836 209.526L324.514 210.375L326.926 210.68C333.016 211.449 340.268 214.66 345.055 218.708C350.695 223.477 355.227 230.634 356.668 237.045C357.053 238.761 357.571 241.03 357.818 242.086L358.267 244.007L358.317 242.357C358.507 236.015 362.519 227.329 367.949 221.499C373.41 215.637 383.267 210.78 390.088 210.589C391.192 210.559 390.389 210.259 387.656 209.681C376.063 207.233 367.323 200.792 362.271 190.975C360.045 186.649 359.405 184.753 358.644 180.241L358.072 176.842L357.236 181.094ZM429.242 179.379C428.299 186.488 424.943 193.354 419.688 198.928C414.2 204.748 408.403 207.918 400.311 209.527L396.059 210.372L398.94 210.734C409.877 212.105 420.235 219.536 425.517 229.799C427.73 234.099 428.306 235.787 429.165 240.494C429.528 242.479 429.83 243.362 429.859 242.523C429.952 239.854 431.73 233.861 433.426 230.497C438.293 220.846 446.059 214.441 456.31 211.623C458.286 211.08 460.663 210.621 461.592 210.602C462.726 210.579 461.702 210.198 458.481 209.443C450.321 207.53 444.798 204.417 439.382 198.675C434.504 193.504 432.015 188.564 430.421 180.892L429.579 176.837L429.242 179.379ZM500.975 178.514C500.975 181.155 499.148 187.021 497.098 190.962C492.501 199.798 483.585 206.911 474.566 208.937C472.85 209.323 470.581 209.84 469.525 210.087L467.604 210.536L469.254 210.586C476.099 210.792 485.933 215.64 491.392 221.499C496.825 227.331 500.845 236.039 501.022 242.357C501.052 243.462 501.352 242.658 501.93 239.926C504.378 228.332 510.819 219.592 520.636 214.541C524.962 212.315 526.858 211.674 531.37 210.914L534.769 210.341L530.517 209.506C522.939 208.017 515.855 204.031 510.599 198.301C506.747 194.099 503.283 187.156 502.141 181.345C501.239 176.755 500.975 176.115 500.975 178.514ZM-0.203119 210.395C-0.228088 238.727 -0.1479 242.602 0.40045 239.686C1.83087 232.083 4.73107 226.684 10.47 220.94C13.7966 217.61 15.7254 216.125 18.7505 214.562C22.6235 212.562 28.6424 210.692 31.5695 210.578C32.8487 210.528 32.755 210.456 30.8925 210.055C22.9155 208.337 17.577 205.93 12.5511 201.785C5.99391 196.376 1.20809 187.741 0.0249597 179.185C-0.0849985 178.392 -0.187274 192.437 -0.203119 210.395ZM285.713 180.359C284.956 186.755 280.838 194.625 275.525 199.832C270.19 205.06 264.352 208.112 256.867 209.586L253.035 210.341L256.833 210.983C267.544 212.792 277.453 220.209 282.264 230.018C284.43 234.435 285.861 238.989 285.861 241.467C285.861 242.204 286.077 242.807 286.341 242.807C286.605 242.807 286.821 242.204 286.821 241.467C286.821 238.962 288.262 234.415 290.505 229.842C292.398 225.982 293.412 224.614 297.104 220.94C300.43 217.63 302.403 216.116 305.41 214.562C309.283 212.562 315.302 210.692 318.229 210.578C319.508 210.528 319.414 210.456 317.552 210.055C306.752 207.73 299.218 203.326 293.797 196.171C290.154 191.362 286.821 183.272 286.821 179.236C286.821 177.058 286.006 177.884 285.713 180.359ZM572.373 180.359C571.615 186.755 567.497 194.625 562.184 199.832C556.849 205.06 551.011 208.112 543.526 209.586L539.694 210.341L543.492 210.983C550.889 212.232 557.844 216.072 563.31 221.925C568.012 226.96 571.001 232.877 572.282 239.686C572.833 242.617 572.919 238.889 572.957 210.516C572.981 192.623 572.923 177.984 572.827 177.984C572.732 177.984 572.528 179.053 572.373 180.359ZM70.5974 252.663C68.9721 260.582 65.5485 266.756 59.7462 272.229C54.5152 277.164 47.3948 280.59 40.4603 281.51L37.9077 281.849L41.9627 282.683C49.9954 284.334 56.1147 287.669 61.3979 293.273C66.5309 298.719 69.096 303.745 70.5979 311.301L71.4435 315.552L71.8046 312.671C73.1759 301.734 80.607 291.376 90.8705 286.094C95.1704 283.881 96.8582 283.305 101.565 282.446C103.55 282.083 104.433 281.781 103.594 281.752C98.7227 281.582 90.7543 278.352 85.3189 274.345C78.3502 269.209 72.9123 259.86 71.806 251.114L71.4665 248.428L70.5974 252.663ZM142.561 251.134C141.534 259.358 136.791 267.809 129.914 273.668C126.024 276.982 119.545 280.012 113.964 281.128L109.404 282.04L112.205 282.39C120.429 283.418 128.88 288.161 134.739 295.038C138.053 298.928 141.083 305.407 142.199 310.988L143.111 315.547L143.461 312.747C144.489 304.523 149.232 296.072 156.109 290.213C159.999 286.899 166.478 283.869 172.059 282.752L176.618 281.84L173.818 281.49C165.594 280.463 157.143 275.72 151.284 268.843C147.97 264.952 144.94 258.474 143.823 252.893L142.911 248.333L142.561 251.134ZM214.16 251.37C213.824 254.588 211.905 260.269 210.079 263.454C206.463 269.759 201.511 274.515 195.152 277.787C190.852 279.999 189.164 280.575 184.458 281.435C182.473 281.797 181.59 282.099 182.428 282.129C185.097 282.222 191.091 284 194.454 285.696C204.105 290.562 210.511 298.329 213.329 308.58C213.872 310.555 214.331 312.932 214.35 313.862C214.372 314.995 214.754 313.971 215.509 310.75C217.421 302.59 220.535 297.068 226.277 291.652C231.507 286.717 238.628 283.291 245.562 282.371L248.115 282.032L244.06 281.198C236.027 279.546 229.908 276.212 224.625 270.607C219.542 265.215 216.961 260.202 215.491 252.861C215.045 250.632 214.629 248.75 214.567 248.678C214.506 248.607 214.322 249.818 214.16 251.37ZM357.257 252.663C355.631 260.582 352.208 266.756 346.406 272.229C341.175 277.164 334.054 280.59 327.12 281.51L324.567 281.849L328.622 282.683C336.655 284.334 342.774 287.669 348.057 293.273C353.19 298.719 355.755 303.745 357.257 311.301L358.103 315.552L358.464 312.671C359.835 301.734 367.266 291.376 377.53 286.094C381.83 283.881 383.518 283.305 388.224 282.446C390.209 282.083 391.092 281.781 390.254 281.752C385.382 281.582 377.414 278.352 371.978 274.345C365.01 269.209 359.572 259.86 358.465 251.114L358.126 248.428L357.257 252.663ZM429.221 251.134C428.193 259.358 423.45 267.809 416.573 273.668C412.683 276.982 406.205 280.012 400.623 281.128L396.064 282.04L398.864 282.39C407.089 283.418 415.539 288.161 421.398 295.038C424.712 298.928 427.742 305.407 428.859 310.988L429.771 315.547L430.121 312.747C431.148 304.523 435.891 296.072 442.768 290.213C446.659 286.899 453.137 283.869 458.718 282.752L463.278 281.84L460.477 281.49C452.253 280.463 443.802 275.72 437.944 268.843C434.629 264.952 431.599 258.474 430.483 252.893L429.571 248.333L429.221 251.134ZM500.819 251.37C500.483 254.588 498.565 260.269 496.739 263.454C493.123 269.759 488.17 274.515 481.812 277.787C477.512 279.999 475.824 280.575 471.117 281.435C469.132 281.797 468.249 282.099 469.088 282.129C471.757 282.222 477.75 284 481.114 285.696C490.765 290.562 497.17 298.329 499.988 308.58C500.531 310.555 500.99 312.932 501.009 313.862C501.032 314.995 501.413 313.971 502.168 310.75C504.081 302.59 507.194 297.068 512.936 291.652C518.167 286.717 525.287 283.291 532.222 282.371L534.774 282.032L530.719 281.198C522.687 279.546 516.567 276.212 511.284 270.607C506.201 265.215 503.621 260.202 502.15 252.861C501.704 250.632 501.289 248.75 501.227 248.678C501.165 248.607 500.982 249.818 500.819 251.37ZM-0.218485 281.94C-0.229529 309.811 -0.142138 314.098 0.380283 311.224C3.00247 296.795 14.9985 284.982 29.4524 282.595L32.9375 282.019L28.9142 281.198C13.714 278.099 2.74558 266.777 0.172851 251.531C-0.0350611 250.298 -0.211282 263.982 -0.218485 281.94ZM285.559 252.77C283.341 266.749 270.982 278.906 256.57 281.286L253.085 281.862L257.109 282.682C268.545 285.014 277.465 291.821 282.669 302.185C284.084 305.003 285.861 311.036 285.861 313.021C285.861 315.498 286.606 314.37 287.123 311.11C289.341 297.132 301.7 284.974 316.112 282.595L319.597 282.019L315.574 281.198C304.137 278.867 295.217 272.06 290.013 261.696C288.598 258.878 286.821 252.845 286.821 250.859C286.821 248.383 286.076 249.511 285.559 252.77ZM572.218 252.77C570 266.749 557.641 278.906 543.23 281.286L539.745 281.862L543.768 282.682C558.968 285.782 569.937 297.103 572.509 312.35C572.717 313.583 572.913 299.953 572.944 282.06C572.975 264.168 572.94 249.529 572.866 249.529C572.793 249.529 572.502 250.988 572.218 252.77ZM71.0305 322.514C69.4201 333.836 62.1143 344.159 52.0462 349.34C47.7204 351.566 45.8242 352.206 41.3126 352.967L37.9135 353.539L42.1653 354.375C49.7433 355.864 56.8272 359.849 62.0826 365.58C66.0138 369.867 69.4076 376.721 70.597 382.775L71.4459 387.097L71.7508 384.685C72.52 378.595 75.7314 371.343 79.7792 366.556C84.5482 360.916 91.7051 356.384 98.1158 354.943C99.8324 354.558 102.101 354.04 103.158 353.793L105.078 353.344L103.428 353.294C102.521 353.268 100.36 352.894 98.6267 352.464C84.5146 348.968 73.7123 337.008 71.794 322.754L71.406 319.873L71.0305 322.514ZM142.823 321.357C142.73 324.026 140.952 330.02 139.256 333.383C134.389 343.034 126.623 349.44 116.372 352.258C114.396 352.801 112.019 353.26 111.09 353.279C109.956 353.301 110.98 353.682 114.201 354.438C122.361 356.35 127.884 359.464 133.3 365.206C138.235 370.436 141.661 377.557 142.581 384.491L142.92 387.044L143.754 382.989C145.405 374.956 148.74 368.837 154.344 363.554C159.79 358.421 164.816 355.856 172.372 354.354L176.623 353.508L173.742 353.147C162.805 351.776 152.447 344.345 147.165 334.081C144.952 329.781 144.376 328.093 143.517 323.387C143.154 321.402 142.852 320.519 142.823 321.357ZM214.366 321.523C214.175 327.865 210.163 336.552 204.733 342.381C199.272 348.243 189.415 353.1 182.594 353.291C181.49 353.322 182.293 353.622 185.026 354.199C196.62 356.648 205.36 363.088 210.411 372.905C212.637 377.231 213.277 379.127 214.038 383.639L214.61 387.038L215.446 382.786C216.935 375.208 220.92 368.124 226.651 362.869C230.938 358.938 237.792 355.544 243.846 354.355L248.168 353.506L245.756 353.201C239.666 352.432 232.415 349.22 227.627 345.172C221.987 340.403 217.455 333.247 216.014 326.836C215.629 325.119 215.111 322.85 214.864 321.794L214.415 319.873L214.366 321.523ZM357.69 322.514C356.079 333.836 348.774 344.159 338.706 349.34C334.38 351.566 332.484 352.206 327.972 352.967L324.573 353.539L328.825 354.375C336.403 355.864 343.487 359.849 348.742 365.58C352.673 369.867 356.067 376.721 357.256 382.775L358.105 387.097L358.41 384.685C359.179 378.595 362.391 371.343 366.439 366.556C371.208 360.916 378.364 356.384 384.775 354.943C386.492 354.558 388.761 354.04 389.817 353.793L391.738 353.344L390.088 353.294C389.18 353.268 387.02 352.894 385.286 352.464C371.174 348.968 360.372 337.008 358.453 322.754L358.065 319.873L357.69 322.514ZM429.483 321.357C429.389 324.026 427.611 330.02 425.915 333.383C421.049 343.034 413.282 349.44 403.031 352.258C401.056 352.801 398.679 353.26 397.749 353.279C396.616 353.301 397.64 353.682 400.861 354.438C409.021 356.35 414.543 359.464 419.959 365.206C424.894 370.436 428.321 377.557 429.241 384.491L429.579 387.044L430.413 382.989C432.065 374.956 435.399 368.837 441.004 363.554C446.449 358.421 451.475 355.856 459.031 354.354L463.282 353.508L460.401 353.147C449.464 351.776 439.106 344.345 433.824 334.081C431.612 329.781 431.036 328.093 430.176 323.387C429.814 321.402 429.512 320.519 429.483 321.357ZM501.025 321.523C500.834 327.865 496.823 336.552 491.392 342.381C485.931 348.243 476.075 353.1 469.254 353.291C468.149 353.322 468.953 353.622 471.685 354.199C483.279 356.648 492.019 363.088 497.07 372.905C499.296 377.231 499.937 379.127 500.697 383.639L501.27 387.038L502.105 382.786C503.594 375.208 507.58 368.124 513.31 362.869C517.597 358.938 524.452 355.544 530.506 354.355L534.827 353.506L532.415 353.201C526.325 352.432 519.074 349.22 514.287 345.172C508.647 340.403 504.114 333.247 502.674 326.836C502.288 325.119 501.771 322.85 501.524 321.794L501.075 319.873L501.025 321.523ZM-0.218965 353.485C-0.210802 374.308 -0.0509066 385.201 0.222788 383.554C1.39968 376.47 5.217 369.224 10.4979 364.049C15.833 358.821 21.6709 355.769 29.1562 354.294L32.9879 353.539L29.1898 352.898C21.7928 351.648 14.8386 347.809 9.37236 341.955C4.67057 336.921 1.68153 331.004 0.40045 324.195C-0.148861 321.275 -0.230009 325.122 -0.218965 353.485ZM285.861 322.414C285.861 324.919 284.42 329.465 282.178 334.038C280.284 337.899 279.27 339.267 275.578 342.941C272.252 346.25 270.279 347.765 267.272 349.318C263.399 351.318 257.38 353.189 254.453 353.303C253.174 353.353 253.268 353.425 255.13 353.826C265.93 356.151 273.464 360.555 278.885 367.71C282.529 372.518 285.861 380.609 285.861 384.645C285.861 386.823 286.676 385.997 286.969 383.522C287.726 377.126 291.844 369.255 297.157 364.049C302.492 358.821 308.33 355.769 315.816 354.294L319.647 353.539L315.849 352.898C305.139 351.089 295.229 343.671 290.418 333.862C288.252 329.446 286.821 324.891 286.821 322.414C286.821 321.676 286.605 321.074 286.341 321.074C286.077 321.074 285.861 321.676 285.861 322.414ZM572.52 322.414C572.52 324.919 571.08 329.465 568.837 334.038C566.944 337.899 565.93 339.267 562.238 342.941C558.911 346.25 556.938 347.765 553.932 349.318C550.059 351.318 544.04 353.189 541.113 353.303C539.833 353.353 539.927 353.425 541.79 353.826C549.767 355.543 555.105 357.951 560.131 362.096C566.688 367.505 571.474 376.139 572.657 384.696C572.767 385.488 572.889 371.498 572.928 353.605C572.968 335.713 572.892 321.074 572.76 321.074C572.628 321.074 572.52 321.676 572.52 322.414ZM70.9912 394.299C68.5318 410.229 55.9615 422.755 40.2557 424.927C39.4634 425.037 53.5083 425.139 71.4665 425.155C99.7983 425.18 103.673 425.1 100.757 424.551C93.1537 423.121 87.7552 420.221 82.011 414.482C76.1381 408.614 73.3507 403.302 71.9597 395.327L71.3619 391.898L70.9912 394.299ZM142.586 394.539C140.54 409.702 128.201 422.147 112.602 424.779C111.369 424.987 125.053 425.163 143.011 425.17C170.882 425.181 175.17 425.094 172.295 424.571C160.74 422.472 150.247 413.956 145.806 403.075C145.129 401.417 144.208 398.225 143.759 395.98L142.943 391.898L142.586 394.539ZM214.366 393.339C214.228 396.414 212.755 401.215 210.608 405.583C208.718 409.428 207.683 410.826 204.018 414.482C198.264 420.222 192.864 423.122 185.266 424.551C182.346 425.101 186.193 425.182 214.556 425.171C234.908 425.162 246.256 424.999 244.681 424.737C233.68 422.904 223.659 415.531 218.631 405.569C217.316 402.964 215.824 398.368 214.897 394.059C214.506 392.246 214.421 392.13 214.366 393.339ZM357.651 394.299C355.191 410.229 342.621 422.755 326.915 424.927C326.123 425.037 340.168 425.139 358.126 425.155C386.458 425.18 390.333 425.1 387.416 424.551C379.813 423.121 374.415 420.221 368.67 414.482C362.798 408.614 360.01 403.302 358.619 395.327L358.021 391.898L357.651 394.299ZM429.246 394.539C427.199 409.702 414.86 422.147 399.261 424.779C398.028 424.987 411.713 425.163 429.671 425.17C457.542 425.181 461.829 425.094 458.954 424.571C447.399 422.472 436.906 413.956 432.465 403.075C431.789 401.417 430.868 398.225 430.419 395.98L429.603 391.898L429.246 394.539ZM501.026 393.339C500.888 396.414 499.414 401.215 497.267 405.583C495.377 409.428 494.342 410.826 490.678 414.482C484.924 420.222 479.523 423.122 471.925 424.551C469.006 425.101 472.853 425.182 501.216 425.171C521.567 425.162 532.915 424.999 531.34 424.737C520.339 422.904 510.319 415.531 505.29 405.569C503.975 402.964 502.484 398.368 501.556 394.059C501.166 392.246 501.081 392.13 501.026 393.339ZM-0.275144 408.824L-0.318359 425.27L15.8873 425.214C24.8006 425.184 31.6607 425.074 31.1325 424.969C26.2397 424.006 24.7329 423.6 22.1654 422.558C14.6744 419.513 8.16714 413.781 4.25955 406.784C2.30623 403.285 1.22249 400.189 0.394208 395.74C-0.17623 392.676 -0.235291 393.834 -0.275144 408.824ZM286.223 393.099C286.09 393.495 285.737 395.136 285.438 396.746C283.652 406.349 276.779 415.708 267.855 420.692C264.356 422.645 261.26 423.729 256.811 424.557C253.907 425.098 257.895 425.182 286.101 425.171C304.059 425.164 318.32 425.074 317.792 424.969C312.899 424.006 311.392 423.6 308.825 422.558C301.334 419.513 294.827 413.781 290.919 406.784C288.952 403.262 287.87 400.154 287.071 395.74C286.737 393.891 286.355 392.703 286.223 393.099ZM572.515 394.419C572.501 397.543 570.06 404.216 567.409 408.376C565.083 412.026 563.356 414.013 560.109 416.775C555.227 420.927 550.107 423.322 543.47 424.557C540.407 425.128 541.565 425.187 556.555 425.227L573 425.27V409.184C573 400.337 572.892 393.099 572.76 393.099C572.628 393.099 572.518 393.693 572.515 394.419Z" fill="black"/>
</g>
</svg>
