<svg width="573" height="278" viewBox="0 0 573 278" fill="none" xmlns="http://www.w3.org/2000/svg">
<mask id="mask0_439_10149" style="mask-type:alpha" maskUnits="userSpaceOnUse" x="0" y="0" width="574" height="278">
<path fill-rule="evenodd" clip-rule="evenodd" d="M77 58.4549C77 58.9723 81.0571 61.7937 86.0147 64.7246C104.071 75.3977 110.661 83.5067 128.363 116.829C136.08 131.356 140.721 138.655 149.163 149.545C155.141 157.255 160.276 163.318 160.576 163.02C160.875 162.72 157.89 157.528 153.941 151.48C146.078 139.438 142.226 131.623 139.006 121.178C135.579 110.065 136.575 101.593 141.307 101.593C143.564 101.593 154.299 109.105 161.034 115.397C169.86 123.642 176.883 134.082 183.453 148.725C191.158 165.899 191.579 166.641 198.619 175.451C207.897 187.061 214.015 191.565 232.735 200.562C261.691 214.477 270.684 222.065 277.202 238.083C279.276 243.182 282.941 259.44 285.142 273.314C285.469 275.37 286.157 277.052 286.67 277.052C287.805 277.052 288.125 275.74 290.623 260.89C291.703 254.469 293.526 246.394 294.674 242.945C297.505 234.443 303.568 224.432 308.787 219.639C314.819 214.1 326.604 206.974 337.623 202.201C342.766 199.974 349.91 196.53 353.497 194.549C364.644 188.395 381.247 170.16 385.488 159.415C389.196 150.016 396.761 134.933 400.584 129.31C408.579 117.552 425.738 102.761 431.914 102.305C434.238 102.133 435.092 102.679 436.271 105.082C439.566 111.802 431.917 132.953 419.227 152.208C415.878 157.291 413.389 161.702 413.698 162.01C414.253 162.565 425.761 148.573 432.643 138.978C434.608 136.236 440.965 125.138 446.77 114.316C459.554 90.4752 463.198 85.031 472.008 76.596C478.441 70.437 492.59 60.719 495.123 60.719C495.763 60.719 496.287 60.053 496.287 59.2395C496.287 57.9525 495.802 57.9665 492.544 59.3532C480.118 64.6399 479.587 64.9569 456.355 80.8968C453.884 82.5915 443.327 89.8113 432.895 96.9393C422.463 104.068 413.021 110.704 411.913 111.685C407.211 115.85 392.503 123.742 385.08 126.082C380.672 127.473 372.556 129.491 367.045 130.566C344.697 134.924 335.6 138.674 324.781 147.984C319.431 152.588 320.004 153.602 325.757 149.714C342.205 138.597 357.745 133.408 368.475 135.449C374.822 136.656 379.49 141.849 379.476 147.686C379.453 157.687 368.533 172.148 358.89 174.948C353.913 176.392 353.331 176.368 349.183 174.535C345.719 173.006 344.515 171.816 343.587 169.007C342.936 167.038 342.692 164.521 343.045 163.412C344.02 160.342 348.411 155.545 351.902 153.735C356.724 151.235 353.498 151.108 346.929 153.54C342.163 155.303 339.21 157.515 331.321 165.226C321.376 174.946 318.858 179.087 317.281 188.326C316.618 192.205 316.139 192.73 322.715 182.37C325.54 177.921 327.514 176.073 331.646 174.018C338.353 170.68 339.437 170.711 344.046 174.369C346.119 176.014 348.202 177.359 348.676 177.359C349.149 177.359 349.537 178.981 349.537 180.963C349.537 186.271 345.017 193.807 339.741 197.297C335.381 200.181 329.072 202.117 327.888 200.934C327.074 200.122 332.084 193.5 336.455 189.61C338.434 187.848 339.474 186.39 338.765 186.37C334.131 186.234 317.799 198.776 308.644 209.5C301.883 217.42 294.787 230.839 292.007 240.963C290.293 247.201 290.26 247.242 286.915 246.945C283.63 246.653 283.478 246.435 280.612 237.899C277.03 227.23 274.711 222.542 269.111 214.649C261.669 204.158 243.964 188.917 236.738 186.78C234.711 186.181 235.31 187.187 239.982 192.227C243.135 195.627 245.713 199.055 245.713 199.847C245.713 203.661 233.814 198.641 228.985 192.79C224.974 187.931 221.978 177.359 224.611 177.359C225.085 177.359 227.169 176.014 229.241 174.369C233.797 170.754 235.412 170.675 241.503 173.771C247.202 176.667 249.673 179.21 253.742 186.361L256.845 191.815L256.245 187.495C254.744 176.671 241.995 161.186 229.409 154.899C220.312 150.355 216.569 150.208 222.955 154.646C230.705 160.033 232.853 166.43 228.688 171.718C223.325 178.527 211.718 176.58 203.495 167.491C198.858 162.366 195.172 155.101 194.322 149.415C193.767 145.702 194.048 144.378 196.012 141.47C199.182 136.775 202.898 135.195 210.765 135.195C220.796 135.195 230.895 139.003 245.077 148.132C248.846 150.558 252.12 152.351 252.354 152.118C253.321 151.152 242.353 142.522 235.76 139.062C230.172 136.129 224.791 134.506 210.482 131.438C200.484 129.294 189.651 126.587 186.407 125.421C180.224 123.201 166.074 115.252 161.21 111.266C159.644 109.983 150.275 103.393 140.392 96.6233C130.509 89.8531 117.481 80.8848 111.441 76.6947C97.7048 67.1651 89.6176 62.2871 84.4873 60.4348C82.291 59.6423 79.7074 58.6613 78.747 58.2546C77.7867 57.8478 77 57.9385 77 58.4549Z" fill="#FF0000"/>
<path fill-rule="evenodd" clip-rule="evenodd" d="M251.201 5.32512C262.933 18.0246 268.984 35.3564 272.044 65.0229L272.714 71.5191L263.851 63.0211C258.877 58.2509 252.358 53.133 248.994 51.357C245.698 49.616 233.357 44.9977 221.571 41.096C199.399 33.7544 186.335 27.6969 171.665 17.9547C167.594 15.2513 164.118 13.1835 163.941 13.3614C163.763 13.5383 166.819 17.2521 170.731 21.6135C179.23 31.0889 182.54 37.5321 182.553 44.63C182.569 52.9141 178.765 54.6431 164.169 52.984C148.416 51.1931 139.76 46.7217 120.617 30.4863C115.128 25.831 110.637 22.2771 110.637 22.5899C110.637 23.3685 118.005 34.2491 123.467 41.5368C125.938 44.8348 135.84 55.2767 145.47 64.7411C155.1 74.2065 162.753 82.1768 162.477 82.4537C161.758 83.1713 147.126 79.5574 140.098 76.9269C129.624 73.0062 119.855 61.8438 117.57 51.1871L116.496 46.1761L105.824 43.6775C85.2972 38.8724 74.4614 37.6161 54.8746 37.774C33.3388 37.9479 20.545 39.3011 9.67317 42.5562C-3.05271 46.3669 -3.14961 46.9686 8.95391 47.0036C17.3123 47.0266 20.8796 47.4913 25.2411 49.1243C32.7244 51.9257 43.3345 59.1834 53.8856 68.7178C62.4058 76.4182 69.2737 80.9246 87.1053 90.5159C97.3777 96.0407 102.803 100.711 109.413 109.717C111.99 113.228 114.265 115.597 114.47 114.982C114.675 114.367 113.435 111.002 111.714 107.505C106.303 96.5084 90.393 81.1714 71.3376 68.5828C62.5766 62.7953 59.1012 59.5402 55.7996 54.0294C52.9306 49.2412 53.1563 47.3324 56.8585 45.0797C61.6186 42.1834 66.2538 41.8096 76.1726 43.5226C92.0423 46.263 103.137 53.4717 111.683 66.595C119.68 78.8738 134.115 86.4333 157.227 90.445C171.146 92.8615 174.313 94.3317 194.849 107.905C205.399 114.878 214.703 120.994 215.524 121.497C216.345 121.999 215.303 120.023 213.207 117.104C211.112 114.187 209.545 111.652 209.725 111.473C210.338 110.858 249.235 120.805 252.115 122.313C258.928 125.881 268.775 139.979 264.453 139.979C263.89 139.979 260.968 139.113 257.96 138.056C247.972 134.544 251.318 137.467 269.07 147.765L276.157 151.878L276.791 181.158C277.139 197.261 277.883 215.16 278.442 220.931C280.411 241.235 284.245 262.088 286.408 264.256C286.873 264.722 287.953 262.698 288.806 259.758C293.323 244.195 296.294 215.307 297.14 178.719C297.665 156.001 297.996 151.799 299.35 150.67C300.225 149.941 305.211 146.939 310.431 143.999C321.412 137.816 320.921 138.148 320.186 137.412C319.874 137.1 317.239 137.551 314.33 138.416C306.907 140.621 306.174 139.327 310.934 132.415C317.376 123.057 319.243 122.111 342.78 116.29C354.343 113.429 363.937 111.224 364.101 111.388C364.265 111.551 362.824 113.666 360.9 116.088C358.976 118.509 357.398 120.834 357.393 121.253C357.387 121.673 365.549 116.557 375.532 109.885C385.514 103.212 395.74 96.7243 398.259 95.467C400.776 94.2088 408.547 92.009 415.528 90.5769C444.137 84.7064 452.1 80.216 464.244 63.1061C472.419 51.5889 483.389 45.5864 500.956 43.0169C508.326 41.9386 509.371 42.0065 513.521 43.8434C520.054 46.7347 520.794 48.7455 517.31 54.1434C514.461 58.5568 509.848 63.217 505.23 66.3452C503.857 67.2756 499.768 70.053 496.144 72.5155C486.638 78.9757 473.517 90.7698 467.979 97.8316C463.308 103.787 457.577 114.625 458.572 115.62C458.846 115.895 461.587 112.774 464.663 108.685C471.631 99.4237 476.102 95.7728 488.747 89.0228C503.472 81.1634 511.441 75.8046 520.832 67.4445C531.272 58.152 542.865 50.5025 549.493 48.5337C552.478 47.6472 558.654 47.0216 564.601 47.0036C571.798 46.9816 574.171 46.6888 572.944 45.9732C570.278 44.4181 559.92 41.2779 553.498 40.0766C545.258 38.5356 512.962 36.8545 505.23 37.5641C493.495 38.6415 477.939 41.137 467.02 43.6935C456.691 46.1121 456.281 46.31 456.271 48.8695C456.259 52.1445 452.305 60.8214 448.627 65.6466C444.371 71.2273 437.614 75.8386 430.404 78.0793C421.985 80.6957 411.327 82.9584 411.327 82.1289C411.327 81.7771 418.32 74.5233 426.866 66.0104C435.413 57.4974 444.795 47.6082 447.715 44.0353C454.118 36.2009 462.275 24.3309 462.275 22.8478C462.275 22.2571 460.14 23.7603 457.529 26.1878C443.99 38.7794 430.341 48.0839 421.72 50.5984C413.764 52.9191 400.506 54.1514 396.145 52.977C391.392 51.6968 389.949 49.0554 390.671 42.9549C391.48 36.129 395.173 29.5519 402.866 21.2397C406.562 17.2451 409.348 13.7382 409.056 13.4473C408.765 13.1555 406.484 14.4767 403.988 16.3826C393.072 24.7187 375.677 33.0378 354.21 40.1896C323.426 50.4455 320.735 51.8297 308.183 63.8766L301.44 70.3478V66.7579C301.44 61.1242 303.384 48.2668 305.513 39.8288C309.096 25.6202 315.73 12.6678 323.768 4.1818C327.445 0.301083 327.574 0.0142504 324.916 1.64329C314.09 8.27738 301.229 20.6521 294.945 30.4783C291.228 36.2919 287.5 45.3306 287.406 48.7575C287.38 49.733 286.086 47.1115 284.533 42.932C282.979 38.7514 280.013 32.68 277.941 29.4399C271.758 19.7686 258.592 7.03112 247.995 0.467984C245.87 -0.84824 246.802 0.562925 251.201 5.32512ZM205.954 49.3512C203.624 51.357 203.345 52.1675 203.923 55.2527C204.687 59.3253 208.362 66.616 212.167 71.6081C214.818 75.084 216.528 75.2809 216.528 72.1098C216.528 68.8597 222.392 62.0677 227.194 59.7571C233.121 56.9037 234.753 54.4652 232.071 52.4713C228.875 50.0977 224.924 50.7374 220.891 54.2793C218.858 56.0652 217.042 57.0776 216.857 56.528C215.95 53.8375 212.42 49.0424 210.647 48.0939C209.043 47.2344 208.13 47.4793 205.954 49.3512ZM362.121 48.1169C361.156 48.6796 359.461 50.9143 358.355 53.084C357.248 55.2527 356.074 57.0277 355.746 57.0277C355.418 57.0277 353.613 55.6785 351.735 54.0294C347.765 50.5405 343.529 50.1237 340.957 52.9671C338.726 55.4336 339.602 56.7868 344.963 59.1594C349.966 61.3731 355.989 67.9482 356.927 72.2187L357.577 75.182L360.012 72.8943C363.44 69.6722 369.37 57.3895 369.37 53.5107C369.37 51.1601 368.689 49.8149 366.908 48.6476C364.048 46.7727 364.368 46.8077 362.121 48.1169ZM186.226 54.696C185.86 55.0618 185.56 57.1226 185.56 59.2743V63.187L182.195 61.1073C177.549 58.234 173.57 58.3119 173.577 61.2752C173.586 65.1209 176.69 68.7298 187.911 77.9453C195.759 84.3905 202.333 88.693 211.709 93.5212C218.834 97.19 224.843 100.011 225.063 99.7925C225.283 99.5726 223.701 96.0297 221.548 91.9191C216.763 82.7825 207.244 71.2103 202.328 68.5509L198.687 66.582L194.208 69.8001C191.744 71.5701 189.526 73.0182 189.279 73.0182C189.031 73.0182 189.891 70.9185 191.19 68.352C194.027 62.7453 194.229 57.9511 191.724 55.6835C189.835 53.9735 187.388 53.5337 186.226 54.696ZM381.831 55.4236C379.287 57.2855 379.547 63.9806 382.348 68.7298C384.842 72.9603 384.512 73.7068 381.261 71.1823C376.297 67.3286 374.65 66.8759 371.053 68.38C366.735 70.1839 357.047 82.0969 351.581 92.3219C346.597 101.644 346.499 101.636 362.378 93.2903C374.136 87.1099 376.193 85.6878 388.676 75.104C397.118 67.9472 400.338 63.9346 400.338 60.5756C400.338 58.2869 394.175 58.5857 391.075 61.0253C387.801 63.6018 386.982 63.5488 387.698 60.8054C389.15 55.2537 386.006 52.3694 381.831 55.4236ZM237.057 63.3639C231.174 67.6674 245.759 87.6306 256.237 89.6155C259.783 90.2871 260.491 91.5873 257.735 92.3678C253.56 93.5501 243.794 94.0588 241.518 93.2123L239.038 92.2899L241.329 91.5623C245.059 90.378 243.345 85.4839 237.023 79.2646C231.517 73.8497 227.336 72.4426 226.125 75.5987C224.214 80.5808 227.67 91.6253 233.41 98.875C236.697 103.029 247.674 110.996 250.107 110.996C251.738 110.996 251.928 107.684 250.458 104.933C248.54 101.348 251.155 102.966 256.623 108.747C259.611 111.907 265.187 119.432 269.012 125.467L275.967 136.441L276.746 122.291C277.468 109.166 277.341 107.331 274.998 96.9421C273.607 90.7818 272.47 84.4985 272.47 82.9784C272.47 79.7063 264.546 71.9479 254.988 65.8605C250.084 62.7383 248.075 62.0417 243.941 62.0347C241.162 62.0287 238.064 62.6274 237.057 63.3639ZM323.418 62.8442C315.55 66.4111 301.44 78.3721 301.44 81.4743C301.44 82.7185 300.342 89.1307 299 95.7229C296.811 106.476 296.631 109.136 297.252 121.595L297.944 135.481L304.437 125.052C308.009 119.314 313.339 112.006 316.283 108.811C321.596 103.043 324.315 101.374 322.896 104.75C321.098 109.031 321.152 110.996 323.069 110.996C325.384 110.996 331.619 106.944 336.736 102.116C347.163 92.2759 351.695 74.0176 343.709 74.0176C339.904 74.0176 330.41 83.9948 330.41 87.9934C330.41 89.7214 331.07 91.0466 332.131 91.4544C335.934 92.9145 330.889 94.0448 323.418 93.4062C313.729 92.5787 311.638 91.0936 317.68 89.3316C325.104 87.1659 333.637 78.45 337.346 69.2445C338.511 66.3552 338.457 65.7405 336.881 63.9976C335.527 62.5014 333.865 62.0417 330.006 62.0947C327.207 62.1337 324.242 62.4705 323.418 62.8442Z" fill="white"/>
</mask>
<g mask="url(#mask0_439_10149)">
<path fill-rule="evenodd" clip-rule="evenodd" d="M-7.51403 -147.6C-6.23242 -147.419 -2.56233 -146.555 0.641716 -145.679C8.94116 -143.411 23.9625 -142.927 31.7112 -144.679C34.9153 -145.404 39.634 -146.45 42.1972 -147.003C46.31 -147.89 43.5254 -148.003 18.5067 -147.968C2.91367 -147.946 -8.79565 -147.781 -7.51403 -147.6ZM58.8971 -147.636C59.9651 -147.464 64.5339 -146.463 69.049 -145.411C78.902 -143.117 90.5857 -142.867 98.8991 -144.773C101.89 -145.459 106.608 -146.468 109.385 -147.015C113.852 -147.897 111.123 -148.008 85.6945 -147.98C69.8879 -147.963 57.8291 -147.809 58.8971 -147.636ZM127.25 -147.376C129.172 -147.045 132.843 -146.186 135.406 -145.467C142.589 -143.453 158.148 -143.046 165.31 -144.685C168.514 -145.418 173.408 -146.467 176.185 -147.015C180.658 -147.898 177.956 -148.01 152.494 -147.994C136.359 -147.985 125.288 -147.714 127.25 -147.376ZM192.496 -147.645C193.564 -147.478 197.584 -146.564 201.429 -145.614C211.331 -143.169 227.256 -143.169 237.158 -145.614C241.003 -146.564 245.023 -147.478 246.091 -147.645C247.159 -147.812 235.1 -147.949 219.294 -147.949C203.487 -147.949 191.428 -147.812 192.496 -147.645ZM259.296 -147.645C260.364 -147.478 264.383 -146.564 268.228 -145.614C278.131 -143.169 294.055 -143.169 303.958 -145.614C307.803 -146.564 311.822 -147.478 312.89 -147.645C313.958 -147.812 301.9 -147.949 286.093 -147.949C270.286 -147.949 258.228 -147.812 259.296 -147.645ZM326.095 -147.645C327.163 -147.478 331.183 -146.564 335.027 -145.614C344.93 -143.169 360.855 -143.169 370.757 -145.614C374.602 -146.564 378.622 -147.478 379.69 -147.645C380.758 -147.812 368.699 -147.949 352.892 -147.949C337.086 -147.949 325.027 -147.812 326.095 -147.645ZM394.448 -147.376C396.37 -147.045 400.04 -146.185 402.604 -145.464C405.297 -144.707 411.525 -143.979 417.362 -143.739C426.368 -143.369 428.383 -143.541 436.003 -145.324C440.703 -146.423 445.421 -147.464 446.489 -147.636C447.557 -147.809 435.499 -147.955 419.692 -147.963C403.671 -147.972 392.499 -147.711 394.448 -147.376ZM463.189 -146.977C476.587 -143.933 479.366 -143.525 486.825 -143.513C492.729 -143.503 497.153 -144.018 503.137 -145.411C507.652 -146.463 512.221 -147.464 513.289 -147.636C514.357 -147.809 502.473 -147.969 486.88 -147.993C461.241 -148.033 458.975 -147.936 463.189 -146.977ZM529.989 -147.004C532.552 -146.451 537.096 -145.442 540.086 -144.763C548.415 -142.869 560.111 -143.123 569.936 -145.411C574.452 -146.463 579.02 -147.464 580.088 -147.636C581.156 -147.809 569.272 -147.962 553.679 -147.979C528.652 -148.005 525.874 -147.89 529.989 -147.004ZM-18 -131.504C-18 -127.043 -17.6846 -123.199 -17.2994 -122.961C-16.062 -122.196 2.11674 -124.025 4.92077 -125.197C8.5559 -126.716 9.85305 -129.548 8.12326 -132.187C7.41798 -133.264 5.77518 -134.696 4.47259 -135.37C0.765994 -137.287 -9.28344 -139.615 -13.8522 -139.615H-18V-131.504ZM41.4205 -138.511C35.8715 -136.933 30.6953 -134.596 29.4672 -133.116C28.1476 -131.525 28.1002 -128.34 29.374 -126.805C31.7555 -123.936 47.4705 -122.223 60.8172 -123.378C70.5217 -124.219 74.4326 -125.698 75.5558 -128.953C76.1865 -130.782 75.9993 -131.409 74.3262 -133.083C73.2411 -134.168 69.9376 -135.943 66.9845 -137.028C60.2517 -139.503 47.5023 -140.242 41.4205 -138.511ZM108.608 -138.497C102.987 -137.058 97.5825 -134.701 96.2667 -133.116C94.947 -131.525 94.8997 -128.34 96.1735 -126.805C98.5433 -123.95 114.269 -122.223 127.486 -123.366C139.547 -124.41 143.671 -126.656 142.452 -131.517C141.057 -137.073 120.007 -141.414 108.608 -138.497ZM175.408 -138.438C170.139 -137.145 165.361 -135.191 163.563 -133.591C161.928 -132.138 161.762 -127.742 163.293 -126.471C168.08 -122.499 198.25 -121.775 205.626 -125.457C211.338 -128.308 210.946 -132.51 204.701 -135.362C195.543 -139.545 184.602 -140.694 175.408 -138.438ZM242.207 -138.438C233.263 -136.243 229.003 -133.686 229.003 -130.51C229.003 -125.684 231.692 -124.455 244.72 -123.323C259.539 -122.036 273.508 -124.15 275.862 -128.037C277.428 -130.624 275.768 -133.413 271.5 -135.362C262.343 -139.545 251.402 -140.694 242.207 -138.438ZM308.23 -138.196C300.922 -136.271 296.249 -133.497 295.948 -130.904C295.366 -125.879 298.247 -124.476 311.52 -123.323C321.031 -122.496 334.606 -123.457 339.158 -125.278C344.872 -127.564 344.554 -132.286 338.48 -135.365C330.152 -139.585 317.869 -140.735 308.23 -138.196ZM375.03 -138.196C367.721 -136.271 363.048 -133.497 362.748 -130.904C362.165 -125.879 365.047 -124.476 378.319 -123.323C387.831 -122.496 401.406 -123.457 405.958 -125.278C411.814 -127.622 411.224 -132.864 404.782 -135.725C395.848 -139.693 384.34 -140.648 375.03 -138.196ZM442.994 -138.582C436.129 -136.822 430.291 -133.731 429.748 -131.571C428.97 -128.469 430.013 -126.644 433.324 -125.319C437.832 -123.515 451.686 -122.52 461.247 -123.313C473.413 -124.322 476.782 -125.842 476.782 -130.321C476.782 -133.165 474.781 -134.721 468.12 -137.064C461.301 -139.462 449.261 -140.189 442.994 -138.582ZM509.794 -138.582C502.655 -136.751 497.093 -133.743 496.504 -131.395C495.308 -126.631 499.615 -124.344 511.597 -123.38C524.46 -122.346 539.312 -123.833 542.492 -126.471C544.082 -127.791 543.85 -132.141 542.104 -133.72C541.292 -134.456 538.059 -135.96 534.92 -137.064C528.101 -139.462 516.06 -140.189 509.794 -138.582ZM576.205 -138.366C568.669 -136.343 563.898 -133.764 563.303 -131.395C562.084 -126.539 566.353 -124.361 579.133 -123.317C584.319 -122.893 589.101 -122.753 589.762 -123.008C590.739 -123.382 590.963 -124.974 590.963 -131.542V-139.615L585.72 -139.564C582.836 -139.536 578.554 -138.997 576.205 -138.366ZM15.0114 -114.824C8.35084 -113.154 4.41045 -109.123 0.618413 -100.097C-8.27757 -78.9241 -9.24616 -53.0379 -1.96502 -31.0521C0.738808 -22.8869 6.65522 -11.7759 9.7412 -9.06556C16.4848 -3.1438 25.7964 -5.00119 30.7854 -13.2635C45.684 -37.9363 48.0833 -69.9634 37.157 -98.3005C34.2139 -105.933 30.8172 -110.652 26.6259 -112.931C23.0421 -114.88 18.311 -115.651 15.0114 -114.824ZM81.7006 -114.81C78.2262 -113.957 73.9285 -111.131 71.7645 -108.274C69.1306 -104.799 64.5812 -93.4042 62.8072 -85.841C57.2978 -62.352 60.0303 -38.0319 70.4208 -18.083C75.7158 -7.9174 81.4194 -4.11793 88.5157 -6.02893C93.3532 -7.33167 94.4305 -8.24289 98.1247 -14.1577C110.361 -33.7469 114.104 -62.0646 107.758 -87.0489C105.711 -95.1085 100.682 -106.642 97.9686 -109.499C93.8278 -113.86 86.9645 -116.101 81.7006 -114.81ZM148.318 -114.755C143.69 -113.662 139.611 -110.094 136.576 -104.483C126.196 -85.2918 124.033 -56.2182 131.228 -32.6089C133.549 -24.9928 139.458 -13.2884 142.7 -9.88355C148.065 -4.24844 156.485 -4.1661 161.854 -9.69556C165.085 -13.0219 170.763 -24.4584 173.365 -32.8808C180.254 -55.1757 178.671 -81.8869 169.27 -101.96C165.716 -109.549 161.578 -113.486 155.865 -114.711C151.624 -115.621 151.974 -115.618 148.318 -114.755ZM214.417 -114.392C209.35 -112.809 206.225 -109.955 203.186 -104.132C192.977 -84.5662 190.957 -54.068 198.389 -31.6868C201.127 -23.4431 206.37 -13.1952 209.584 -9.80586C214.162 -4.97943 220.665 -4.17076 226.483 -7.70454C231.021 -10.4615 238.303 -24.773 241.414 -37.0554C246.2 -55.9409 245.216 -78.5745 238.881 -95.3633C234.093 -108.053 229.84 -113.172 222.841 -114.673C218.118 -115.686 218.614 -115.703 214.417 -114.392ZM281.217 -114.392C274.039 -112.151 270.088 -106.831 265.596 -93.3552C259.495 -75.0547 259.19 -51.9068 264.799 -32.9903C267.003 -25.556 274.372 -11.1863 277.2 -8.80609C283.929 -3.14301 292.933 -4.88855 298.038 -12.8448C311.521 -33.8596 315.138 -65.7134 306.979 -91.5856C302.436 -105.994 297.123 -113.068 289.64 -114.673C284.917 -115.686 285.413 -115.703 281.217 -114.392ZM347.785 -114.33C342.959 -112.844 338.783 -108.553 335.76 -101.976C326.434 -81.6842 324.973 -54.5799 332.006 -32.2803C335.577 -20.9526 342.182 -9.26364 346.133 -7.27807C351.843 -4.40769 358.301 -5.29483 362.26 -9.4928C365.528 -12.9582 370.59 -22.8853 373.386 -31.31C380.451 -52.5997 379.55 -79.4034 371.104 -99.2078C366.702 -109.53 363.157 -113.233 356.26 -114.712C351.732 -115.683 352.25 -115.706 347.785 -114.33ZM414.545 -114.336C409.219 -112.67 405.217 -108.221 401.886 -100.264C389.889 -71.5994 392.661 -34.8298 408.569 -11.6337C413.253 -4.80543 422.283 -3.50269 428.525 -8.75482C431.461 -11.2259 437.959 -23.8967 440.589 -32.2795C447.7 -54.9442 446.178 -81.2616 436.527 -102.541C431.933 -112.669 423.566 -117.158 414.545 -114.336ZM482.055 -114.623C477.716 -113.444 472.557 -108.449 469.928 -102.882C459.052 -79.8454 458.377 -48.6682 468.248 -25.1521C471.316 -17.8437 476.475 -9.34599 478.747 -7.85603C484.282 -4.2298 491.697 -5.0579 496.201 -9.80509C501.906 -15.8185 508.27 -31.6324 510.605 -45.599C512.53 -57.1139 511.873 -75.7981 509.182 -86.0717C506.821 -95.0844 503.077 -104.287 500.098 -108.4C496.417 -113.481 488.236 -116.303 482.055 -114.623ZM549.326 -114.648C540.325 -112.63 533.103 -99.6499 529.567 -79.1401C525.639 -56.3573 529.627 -32.7549 540.502 -14.4179C542.278 -11.424 544.639 -8.60101 546.101 -7.72242C551.946 -4.21504 558.48 -5.04625 563.085 -9.88355C566.328 -13.2899 572.236 -24.9936 574.559 -32.6174C581.676 -55.9665 579.428 -85.1162 568.983 -104.925C564.781 -112.895 557.521 -116.486 549.326 -114.648ZM-18 -18.1381V-14.7387L-13.5338 -14.3519C-8.82439 -13.9433 -6.82662 -14.5103 -6.07629 -16.4664C-4.9275 -19.4595 -8.42903 -21.5375 -14.6204 -21.5375H-18V-18.1381ZM45.5791 -20.6613C43.2062 -19.792 42.3362 -17.5143 43.6769 -15.681C44.4047 -14.6851 46.0102 -14.4093 51.1678 -14.393C59.7748 -14.3658 59.4959 -14.3161 60.4203 -16.0438C61.552 -18.1583 60.7108 -19.7407 57.9425 -20.7063C55.0468 -21.7162 48.3901 -21.6921 45.5791 -20.6613ZM112.298 -20.6348C110.648 -20.032 110.162 -19.3492 110.162 -17.6347C110.162 -16.4136 110.546 -15.1769 111.016 -14.8863C111.486 -14.5958 114.868 -14.3068 118.531 -14.2439C123.575 -14.1569 125.56 -14.4264 126.708 -15.3563C128.786 -17.0397 127.85 -19.6226 124.772 -20.6954C121.82 -21.7247 115.194 -21.6929 112.298 -20.6348ZM179.291 -20.5867C176.587 -19.1558 176.197 -15.5466 178.658 -14.7162C181.541 -13.742 192.245 -14.1476 193.612 -15.2825C195.159 -16.5658 195.169 -18.7332 193.633 -20.0072C191.901 -21.4443 181.692 -21.8568 179.291 -20.5867ZM246.091 -20.5851C243.782 -19.3616 243.198 -16.7569 244.914 -15.3322C246.602 -13.9316 258.226 -13.8065 260.17 -15.1683C261.934 -16.4035 262.056 -18.6594 260.433 -20.0072C258.7 -21.4459 248.492 -21.8568 246.091 -20.5851ZM312.89 -20.5851C310.581 -19.3616 309.998 -16.7569 311.714 -15.3322C313.402 -13.9316 325.025 -13.8065 326.97 -15.1683C328.734 -16.4035 328.856 -18.6594 327.232 -20.0072C325.499 -21.4459 315.291 -21.8568 312.89 -20.5851ZM379.69 -20.5851C377.381 -19.3616 376.797 -16.7569 378.513 -15.3322C380.201 -13.9316 391.825 -13.8065 393.769 -15.1683C395.533 -16.4035 395.655 -18.6594 394.032 -20.0072C392.299 -21.4459 382.091 -21.8568 379.69 -20.5851ZM446.489 -20.5354C444.039 -19.3003 443.578 -16.5946 445.581 -15.1924C447.519 -13.8345 459.235 -13.9751 460.923 -15.3757C462.597 -16.7655 461.972 -19.3873 459.694 -20.5354C458.626 -21.0738 455.655 -21.515 453.092 -21.515C450.528 -21.515 447.557 -21.0738 446.489 -20.5354ZM513.289 -20.5354C510.838 -19.3003 510.378 -16.5946 512.38 -15.1924C514.318 -13.8345 526.034 -13.9751 527.722 -15.3757C529.396 -16.7655 528.772 -19.3873 526.493 -20.5354C525.425 -21.0738 522.454 -21.515 519.891 -21.515C517.328 -21.515 514.357 -21.0738 513.289 -20.5354ZM580.283 -20.3793C577.274 -19.0719 576.922 -16.6567 579.506 -15.0448C580.73 -14.2804 582.708 -14.0707 586.108 -14.3433L590.963 -14.7325V-18.135V-21.5375L586.885 -21.5072C584.642 -21.4901 581.671 -20.9829 580.283 -20.3793ZM-18 4.86686V15.9646L-12.0098 15.4216C-4.42805 14.7341 2.85231 12.3632 5.10796 9.84554C6.30724 8.50707 6.85562 6.91535 6.85562 4.7713C6.85562 -1.24911 0.565596 -4.76426 -11.9803 -5.75549L-18 -6.23091V4.86686ZM42.0955 -4.89399C33.6748 -2.96978 30.1547 -0.209712 30.1609 4.46524C30.1655 8.55523 32.5897 11.4411 37.2533 12.9078C47.7276 16.2031 55.5928 16.3095 65.3324 13.2884C71.5587 11.3572 73.6551 9.19611 73.6551 4.70993C73.6551 -1.4876 66.8851 -5.02838 53.8483 -5.64906C49.4543 -5.85803 45.0882 -5.57759 42.0955 -4.89399ZM111.715 -5.51623C106.244 -4.45586 99.9516 -1.83096 98.5193 -0.00929763C96.753 2.23651 96.5161 5.38578 97.887 8.39598C100.677 14.5197 119.255 17.3606 131.665 13.5611C138.26 11.5421 140.455 9.33127 140.455 4.70993C140.455 -1.50547 133.609 -5.07033 120.648 -5.60401C116.803 -5.76248 112.783 -5.72287 111.715 -5.51623ZM178.515 -5.46495C174.328 -4.76426 166.979 -1.97777 165.755 -0.626092C163.814 1.51951 163.385 5.78507 164.829 8.57854C166.308 11.4388 171.775 13.739 180.2 15.0464C189.77 16.5317 202.738 13.673 205.943 9.37089C208.96 5.32362 207.495 -0.311483 202.854 -2.51379C197.183 -5.2055 185.461 -6.62631 178.515 -5.46495ZM245.314 -5.46495C241.128 -4.76426 233.778 -1.97777 232.555 -0.626092C230.614 1.51951 230.184 5.78507 231.628 8.57854C233.085 11.3961 238.44 13.687 246.655 15.0052C255.464 16.4191 268.855 13.8703 272.248 10.133C275.914 6.09734 274.722 -0.108725 269.835 -2.42756C263.854 -5.26608 252.521 -6.66981 245.314 -5.46495ZM312.114 -5.51234C311.046 -5.30804 307.959 -4.42168 305.254 -3.54387C301.461 -2.31259 299.997 -1.39127 298.849 0.491759C296.817 3.8259 296.978 6.63725 299.365 9.47422C303.987 14.9679 320.657 17.0794 331.955 13.6023C338.628 11.5483 341.206 9.14096 341.206 4.96396C341.206 0.30377 339.271 -1.81698 333.283 -3.71632C328.164 -5.34067 316.411 -6.33733 312.114 -5.51234ZM375.251 -4.49547C367.831 -2.48582 366.567 -1.7253 365.198 1.55213C362.857 7.15384 365.68 11.0939 373.83 13.6023C384.457 16.8727 401.317 15.0153 405.97 10.0615C408.465 7.40553 408.863 3.50662 406.95 0.450581C403.635 -4.84738 386.448 -7.52898 375.251 -4.49547ZM442.066 -4.49936C435.076 -2.60623 432.82 -1.14425 431.714 2.20699C429.951 7.55079 432.8 11.1926 440.63 13.6023C451.086 16.8207 468.391 14.9718 472.876 10.1578C475.243 7.61682 475.668 3.83367 473.926 0.815691C470.714 -4.75261 453.562 -7.61444 442.066 -4.49936ZM508.9 -4.50868C505.845 -3.68058 502.633 -2.55806 501.761 -2.01428C497.893 0.402426 497.012 6.65278 500.078 9.91779C502.201 12.1776 509.172 14.5415 516.007 15.3191C521.473 15.9413 529.452 14.8118 535.455 12.5652C541.77 10.2021 543.673 5.64057 540.509 0.450581C537.291 -4.82874 520.057 -7.53209 508.9 -4.50868ZM577.146 -4.87379C571.157 -3.42423 567.201 -1.44176 566.067 0.675867C564.62 3.38233 564.846 6.95807 566.619 9.37089C568.781 12.3158 576.91 14.9446 584.575 15.1785L590.574 15.3618L590.79 4.68041L591.006 -6.00097L586.13 -5.93493C583.448 -5.89842 579.405 -5.42145 577.146 -4.87379ZM12.494 16.6055C6.28394 19.6794 -1.5448 35.4055 -4.70224 51.1471C-9.14751 73.3139 -6.67671 94.4988 2.55094 113.341C7.32632 123.091 10.1653 126.413 14.7877 127.658C21.661 129.509 26.6127 127.051 31.3151 119.457C48.0507 92.4254 48.1206 51.6451 31.4782 23.9069C28.9173 19.6375 27.471 18.0939 24.7501 16.7212C20.4245 14.5399 16.7373 14.5049 12.494 16.6055ZM79.3284 16.5876C75.6001 18.4341 72.9576 22.1489 68.291 32.1086C58.5429 52.9136 57.3343 80.8196 65.2057 103.357C68.1286 111.726 72.9716 120.955 76.2098 124.327C80.5479 128.843 87.4368 129.417 93.0736 125.731C98.4618 122.208 106.193 105.287 109.124 90.6007C111.147 80.4654 110.987 60.5001 108.808 51.0959C106.485 41.0725 102.818 31.4833 98.642 24.5175C95.7184 19.6413 94.3435 18.1304 91.5496 16.7212C87.234 14.5446 83.5375 14.5042 79.3284 16.5876ZM146.971 16.0858C143.421 17.6317 140.835 20.7747 137.024 28.1794C125.538 50.4923 123.735 80.2191 132.395 104.49C137.316 118.281 143.67 127.005 149.493 127.967C154.058 128.72 158.975 127.182 161.893 124.088C164.714 121.097 170.726 109.238 172.967 102.245C176.309 91.8141 177.287 84.9446 177.316 71.6818C177.338 62.1455 176.984 57.1738 175.934 52.2611C173.376 40.2956 168.892 29.0743 163.562 21.303C159.78 15.789 152.739 13.5751 146.971 16.0858ZM213.856 16.0741C210.516 17.5657 207.818 20.7475 204.251 27.4026C197.4 40.1853 193.995 54.8868 193.995 71.6818C193.995 88.0791 196.605 100.037 203.097 113.387C205.005 117.312 207.858 121.939 209.435 123.671C214.879 129.646 223.337 129.767 228.826 123.947C232.394 120.164 238.682 106.871 240.962 98.2889C247.183 74.88 244.993 49.1375 235.108 29.5055C233.773 26.8534 231.637 23.1627 230.361 21.303C226.594 15.8108 219.489 13.5603 213.856 16.0741ZM280.656 16.0741C277.315 17.5657 274.617 20.7475 271.051 27.4026C259.961 48.095 257.579 78.2374 265.176 101.743C267.903 110.18 273.027 120.296 276.326 123.755C281.143 128.806 287.919 129.618 293.579 125.826C298.534 122.506 306.043 106.865 309.108 93.4827C311.329 83.7786 311.863 65.7647 310.224 55.7902C308.029 42.4342 301.325 25.6548 295.561 19.089C292.182 15.2406 285.535 13.8959 280.656 16.0741ZM347.395 16.0749C344.118 17.502 340.622 21.9609 336.991 29.3447C330.599 42.3433 327.648 55.7211 327.648 71.7168C327.648 88.1055 330.785 101.47 337.892 115.364C342.047 123.487 344.67 126.314 349.227 127.579C353.224 128.689 354.733 128.578 358.42 126.904C362.24 125.169 364.501 122.319 368.639 114.019C378.773 93.6948 381.028 67.2748 374.565 44.5798C372.23 36.3781 366.006 23.2419 362.637 19.4052C358.975 15.2336 352.551 13.8299 347.395 16.0749ZM413.714 16.5589C410.119 18.4567 407.799 21.4793 403.888 29.3587C393.249 50.7867 391.423 79.1557 399.189 102.346C402.112 111.071 408.081 122.521 410.977 124.958C415.567 128.821 422.198 129.172 427.178 125.816C432.21 122.424 438.602 109.486 442.377 95.0527C445.07 84.7581 445.717 66.7824 443.807 55.356C441.489 41.4951 435.614 26.6506 429.721 19.7648C425.585 14.933 419.21 13.6559 413.714 16.5589ZM480.964 16.4136C477.126 18.212 474.854 21.0909 470.762 29.3447C460.963 49.1072 458.565 74.2896 464.333 96.8479C467.377 108.75 474.449 122.662 479.064 125.827C485.145 129.996 493.171 128.374 497.761 122.049C503.453 114.205 508.432 101.011 510.605 88.0154C512.532 76.4849 511.874 57.8177 509.175 47.5147C505.742 34.4073 498.901 20.8454 493.86 17.1516C490.863 14.9555 484.814 14.6098 480.964 16.4136ZM547.792 16.4462C543.96 18.1879 542.403 20.0841 538.244 28.0792C523.63 56.1732 524.988 95.0286 541.487 120.823C545.857 127.656 552.026 129.882 558.57 126.986C566.046 123.679 574.16 107.343 577.36 89.1573C578.959 80.0653 578.959 63.2983 577.36 54.2063C575.073 41.2076 568.51 25.1226 563.135 19.3446C559.03 14.9322 553.448 13.878 547.792 16.4462ZM-18 27.4026C-18 31.2681 -17.9876 31.2868 -15.4756 31.2821C-11.9842 31.2767 -7.48297 29.9343 -6.34116 28.5585C-5.57918 27.6396 -5.64365 27.0212 -6.66351 25.4644C-7.80686 23.7189 -8.45699 23.5185 -12.9691 23.5185H-18V27.4026ZM43.8315 25.1925C42.1654 27.572 43.4555 29.4892 47.4456 30.5635C53.0094 32.062 61.2273 30.0065 61.2273 27.1167C61.2273 24.5439 58.5103 23.5185 51.6952 23.5185C45.7244 23.5185 44.8777 23.6987 43.8315 25.1925ZM110.974 24.641C107.891 28.3566 113.217 31.7684 120.922 31.0133C127.047 30.4128 129.655 27.5634 126.606 24.8041C124.689 23.0687 112.385 22.9405 110.974 24.641ZM178.321 24.3575C176.456 25.4435 176.588 28.7015 178.537 29.7448C181.08 31.1058 187.19 31.5237 190.702 30.5767C194.54 29.5412 195.699 27.3242 193.611 25.0162C192.481 23.7678 191.21 23.5224 185.968 23.5418C182.51 23.555 179.069 23.9217 178.321 24.3575ZM245.12 24.3575C243.233 25.4567 243.389 28.703 245.381 29.7688C250.239 32.3689 261.004 30.9807 261.473 27.6931C261.92 24.5586 259.751 23.5161 252.832 23.5418C249.338 23.555 245.867 23.9217 245.12 24.3575ZM311.92 24.3575C310.033 25.4567 310.189 28.703 312.181 29.7688C317.038 32.3689 327.803 30.9807 328.272 27.6931C328.72 24.5586 326.55 23.5161 319.632 23.5418C316.137 23.555 312.667 23.9217 311.92 24.3575ZM378.719 24.3575C376.832 25.4567 376.988 28.703 378.98 29.7688C383.838 32.3689 394.603 30.9807 395.072 27.6931C395.519 24.5586 393.35 23.5161 386.431 23.5418C382.937 23.555 379.466 23.9217 378.719 24.3575ZM445.379 24.7389C443.723 26.3958 443.842 28.7318 445.631 29.6896C448.281 31.1073 455.232 31.4794 458.529 30.3802C462.096 29.1901 463.209 26.3057 460.785 24.533C458.694 23.0042 446.958 23.1611 445.379 24.7389ZM512.179 24.7389C510.523 26.3958 510.642 28.7318 512.431 29.6896C515.08 31.1073 522.031 31.4794 525.328 30.3802C528.895 29.1901 530.008 26.3057 527.584 24.533C525.493 23.0042 513.757 23.1611 512.179 24.7389ZM578.974 25.0162C577.177 27.0018 578.032 29.5715 580.723 30.2722C581.869 30.5713 584.555 30.8339 586.691 30.8572L590.574 30.8983L590.811 27.2084L591.048 23.5185H585.689C581.382 23.5185 580.063 23.8129 578.974 25.0162ZM-18 115.853V119.845H-13.3396C-9.71453 119.845 -8.33427 119.5 -7.12567 118.291C-6.27125 117.437 -5.57219 116.443 -5.57219 116.081C-5.57219 114.321 -8.89585 112.687 -13.2821 112.289L-18 111.861V115.853ZM46.5539 112.752C45.5325 113.038 44.1965 114.026 43.5845 114.948C42.5864 116.451 42.6376 116.79 44.0824 118.235C45.4393 119.592 46.6557 119.845 51.8202 119.845C58.8784 119.845 61.851 118.374 60.8933 115.354C60.0358 112.653 52.068 111.208 46.5539 112.752ZM113.657 112.639C111.268 113.227 110.162 114.422 110.162 116.417C110.162 119.002 112.325 119.845 118.957 119.845C125.665 119.845 128.633 118.319 127.693 115.354C126.864 112.745 119.233 111.268 113.657 112.639ZM180.457 112.639C178.067 113.227 176.961 114.422 176.961 116.417C176.961 119.031 179.134 119.845 186.11 119.845C191.19 119.845 192.49 119.586 193.609 118.349C195.567 116.185 194.837 114.162 191.71 113.091C188.982 112.158 183.337 111.931 180.457 112.639ZM246.285 113.235C244.398 114.055 243.761 114.825 243.761 116.285C243.761 119.045 245.818 119.845 252.91 119.845C257.989 119.845 259.289 119.586 260.409 118.349C261.153 117.526 261.64 116.216 261.49 115.436C260.924 112.486 251.235 111.083 246.285 113.235ZM313.085 113.235C310.289 114.45 309.766 116.61 311.781 118.625C312.694 119.537 314.621 119.845 319.427 119.845C324.785 119.845 326.079 119.597 327.208 118.349C327.952 117.526 328.439 116.216 328.289 115.436C327.724 112.486 318.035 111.083 313.085 113.235ZM379.884 113.235C377.089 114.45 376.566 116.61 378.58 118.625C379.495 119.539 381.427 119.845 386.292 119.845C393.212 119.845 395.225 118.949 395.225 115.866C395.225 112.571 385.32 110.872 379.884 113.235ZM446.684 113.186C443.82 114.487 443.39 116.578 445.58 118.559C447.23 120.054 457.982 120.401 460.522 119.041C462.314 118.082 462.5 114.992 460.847 113.621C459.031 112.113 449.679 111.827 446.684 113.186ZM513.483 113.186C510.619 114.487 510.19 116.578 512.379 118.559C514.03 120.054 524.782 120.401 527.321 119.041C529.113 118.082 529.299 114.992 527.647 113.621C525.831 112.113 516.478 111.827 513.483 113.186ZM580.283 113.235C577.415 114.482 576.981 116.571 579.179 118.559C580.202 119.485 582.049 119.845 585.781 119.845H590.963V115.961V112.077L586.885 112.107C584.642 112.124 581.671 112.631 580.283 113.235ZM-18 138.489V149.592L-12.3314 149.114C-4.46378 148.448 3.27253 145.942 5.2602 143.416C7.35273 140.755 7.35273 136.223 5.2602 133.562C3.27253 131.036 -4.46378 128.53 -12.3314 127.864L-18 127.386V138.489ZM44.1973 128.407C33.8061 130.601 30.1578 133.221 30.1578 138.489C30.1578 142.916 32.4375 145.177 38.9473 147.207C50.1347 150.694 67.9336 148.662 72.0504 143.426C74.1522 140.755 74.1561 136.228 72.0597 133.562C68.8852 129.526 52.903 126.569 44.1973 128.407ZM109.759 128.703C99.498 131.051 96.4174 133.656 97.1794 139.343C97.7635 143.697 99.463 145.246 105.834 147.233C116.933 150.694 134.75 148.64 138.85 143.426C140.952 140.755 140.956 136.228 138.859 133.562C135.425 129.197 119.341 126.511 109.759 128.703ZM177.796 128.407C171.96 129.639 167.107 131.494 165.724 133.023C163.636 135.331 163.406 140.002 165.239 142.924C170.019 150.545 198.671 151.022 205.646 143.596C208.145 140.937 208.15 136.047 205.657 133.393C201.937 129.432 186.243 126.624 177.796 128.407ZM243.286 128.769C232.064 131.211 228.04 136.294 232.082 142.924C236.657 150.427 263.878 151.164 271.892 144.002C273.745 142.347 274.262 141.222 274.329 138.706C274.469 133.329 271.26 130.874 261.435 128.844C254.377 127.386 249.733 127.367 243.286 128.769ZM310.086 128.769C299.239 131.129 295.164 135.881 298.483 142.299C300.947 147.065 315.089 150.388 325.809 148.721C333.989 147.45 338.893 145.188 340.41 141.989C341.924 138.799 341.925 138.181 340.423 135.016C339.001 132.019 335.786 130.4 328.037 128.778C321.453 127.401 316.39 127.398 310.086 128.769ZM376.87 128.773C366.308 131.07 362.333 135.58 365.321 141.876C368.756 149.116 389.705 151.565 402.202 146.189C405.796 144.642 408.429 141.387 408.429 138.489C408.429 137.977 407.881 136.402 407.21 134.989C404.475 129.225 389.189 126.093 376.87 128.773ZM443.669 128.773C438.415 129.916 434.174 131.848 432.739 133.753C429.745 137.727 431.471 143.66 436.239 145.783C440.02 147.468 449.093 149.337 453.48 149.337C458.26 149.337 466.658 147.475 470.333 145.601C477.341 142.025 476.73 134.115 469.196 130.873C461.89 127.729 452.15 126.928 443.669 128.773ZM513.289 128.114C502.665 130.258 498.39 133.186 498.252 138.411C498.178 141.232 498.544 142.083 500.637 143.952C505.09 147.931 516.972 150.158 526.146 148.731C539.687 146.625 544.914 141.289 540.509 134.065C539.298 132.078 537.943 131.254 533.716 129.937C528.546 128.326 517.241 127.317 513.289 128.114ZM580.477 128.132C574.297 129.479 568.502 131.717 566.969 133.349C564.652 135.815 564.486 140.083 566.594 142.953C568.658 145.762 576.747 148.498 584.828 149.121L590.963 149.594V138.604V127.613L586.496 127.703C584.04 127.753 581.331 127.946 580.477 128.132ZM14.0909 149.404C10.142 150.611 7.08398 154.381 2.55094 163.637C-7.27325 183.696 -9.49239 207.508 -3.6754 230.442C-1.71335 238.177 2.8562 248.781 7.03582 255.294C11.1657 261.731 18.0197 263.651 24.7501 260.257C27.544 258.848 28.9189 257.337 31.8425 252.46C43.5394 232.949 47.0837 205.023 40.9335 180.826C37.762 168.349 30.352 153.679 25.7995 150.865C22.8595 149.048 17.462 148.374 14.0909 149.404ZM81.0341 149.48C77.2242 150.872 73.8625 154.701 70.2577 161.752C55.4693 190.679 56.8939 228.891 73.7405 255.146C77.8961 261.623 84.8712 263.625 91.5496 260.257C94.3435 258.848 95.7184 257.337 98.642 252.46C112.815 228.818 114.722 194.754 103.391 167.62C100.263 160.13 95.4651 152.637 92.7054 150.931C89.5992 149.011 84.1667 148.336 81.0341 149.48ZM147.834 149.482C144.421 150.732 141.453 153.794 138.428 159.188C122.785 187.085 123.119 225.279 139.245 252.793C142.076 257.622 143.355 259.035 146.107 260.367C152.668 263.543 159.468 261.636 163.744 255.421C174.472 239.825 179.849 214.084 176.919 192.34C174.591 175.061 165.582 153.884 159.143 150.554C156.008 148.933 150.708 148.43 147.834 149.482ZM213.71 150.057C206.49 153.429 198.35 170.06 195.225 187.821C193.625 196.913 193.625 213.68 195.225 222.772C197.511 235.77 204.075 251.855 209.45 257.633C213.554 262.046 219.137 263.1 224.792 260.532C228.624 258.79 230.181 256.894 234.34 248.899C248.955 220.805 247.596 181.949 231.098 156.155C226.746 149.351 220.163 147.043 213.71 150.057ZM280.51 150.057C276.747 151.814 273.515 155.93 269.768 163.736C263.683 176.413 260.849 189.756 260.849 205.72C260.849 221.961 263.44 233.726 269.979 247.17C274.606 256.683 278.564 260.887 283.601 261.637C288.305 262.337 293.385 260.537 296.222 257.165C300.971 251.521 306.908 237.308 309.519 225.335C311.512 216.193 311.495 194.331 309.488 185.099C306.135 169.679 298.211 153.382 292.672 150.518C288.825 148.528 284.16 148.351 280.51 150.057ZM347.365 150.074C343.509 151.826 341.158 154.776 337.088 162.973C330.741 175.757 327.648 189.611 327.648 205.261C327.648 221.296 330.596 234.631 337.035 247.723C342.276 258.378 346.439 261.986 353.506 262C356.595 262.006 361.409 259.34 363.677 256.366C366.683 252.422 371.564 242.096 373.798 234.949C379.333 217.236 379.627 196.09 374.586 178.194C372.223 169.805 364.759 154.672 361.726 152.119C359.442 150.197 355.028 148.585 352.116 148.609C351.261 148.616 349.124 149.275 347.365 150.074ZM414.165 150.074C410.345 151.809 408.084 154.659 403.945 162.959C397.685 175.514 394.457 189.826 394.451 205.046C394.445 221.472 397.197 233.591 404.142 247.728C409.096 257.811 411.989 260.851 417.406 261.664C425.239 262.838 429.861 259.287 435.549 247.723C441.988 234.631 444.936 221.296 444.936 205.261C444.936 188.872 441.799 175.508 434.692 161.614C430.538 153.491 427.915 150.664 423.357 149.399C419.36 148.289 417.852 148.4 414.165 150.074ZM481.054 150.049C477.135 151.849 476.092 153.053 472.225 160.24C465.085 173.511 462.148 184.917 461.522 201.8C460.836 220.309 463.952 234.652 471.96 249.845C476.304 258.083 479.241 260.919 484.206 261.664C491.694 262.787 496.109 259.707 501.536 249.575C512.629 228.864 515.01 198.654 507.397 175.234C503.058 161.89 497.323 152.482 492.075 150.099C487.991 148.244 485.013 148.231 481.054 150.049ZM547.751 150.079C543.971 151.796 540.86 155.99 536.568 165.155C523.96 192.078 525.538 228.05 540.414 252.81C544.806 260.118 549.841 262.898 556.444 261.659C562.415 260.539 568.978 251.115 573.787 236.755C579.99 218.236 580.305 194.825 574.605 176.129C572.381 168.834 566.701 157.33 563.448 153.528C559.313 148.697 553.572 147.436 547.751 150.079ZM-18 161.017V164.901H-15.0818C-9.80075 164.901 -5.63044 163.111 -5.58384 160.823C-5.57763 160.502 -6.27125 159.541 -7.12567 158.686C-8.33427 157.478 -9.71453 157.133 -13.3396 157.133H-18V161.017ZM44.1391 158.686C42.2314 160.594 42.205 161.209 43.9651 162.801C46.825 165.39 57.4842 165.427 60.0529 162.857C61.604 161.306 61.5357 160.549 59.6738 158.686C58.379 157.392 57.0849 157.133 51.9064 157.133C46.7279 157.133 45.4339 157.392 44.1391 158.686ZM111.521 157.972C109.869 158.934 109.739 162.03 111.298 163.323C112.978 164.718 121.128 165.248 124.381 164.174C127.735 163.067 128.744 160.766 126.811 158.631C125.681 157.382 124.41 157.137 119.168 157.156C115.71 157.169 112.269 157.536 111.521 157.972ZM178.321 157.972C176.658 158.941 176.542 162.032 178.119 163.341C178.756 163.869 181.465 164.478 184.14 164.692C192.464 165.361 197.39 162.025 193.406 158.418C192.33 157.445 190.492 157.138 185.832 157.156C182.449 157.169 179.069 157.536 178.321 157.972ZM245.12 157.972C243.458 158.941 243.341 162.032 244.918 163.341C245.555 163.869 248.264 164.478 250.939 164.692C259.264 165.361 264.19 162.025 260.205 158.418C259.129 157.445 257.292 157.138 252.632 157.156C249.248 157.169 245.867 157.536 245.12 157.972ZM311.92 157.972C310.257 158.941 310.141 162.032 311.718 163.341C312.355 163.869 315.064 164.478 317.739 164.692C326.063 165.361 330.989 162.025 327.005 158.418C325.929 157.445 324.091 157.138 319.431 157.156C316.048 157.169 312.667 157.536 311.92 157.972ZM378.58 158.353C376.512 160.422 377.086 162.536 380.053 163.775C385.614 166.099 395.225 164.412 395.225 161.112C395.225 158.029 393.212 157.133 386.292 157.133C381.427 157.133 379.495 157.439 378.58 158.353ZM445.376 158.629C443.418 160.793 444.148 162.816 447.276 163.887C453.307 165.951 462.024 164.311 462.024 161.112C462.024 158.038 460.009 157.133 453.157 157.133C447.8 157.133 446.505 157.381 445.376 158.629ZM512.176 158.629C510.218 160.793 510.948 162.816 514.075 163.887C520.552 166.103 528.824 164.313 528.824 160.695C528.824 157.933 526.768 157.133 519.674 157.133C514.595 157.133 513.295 157.392 512.176 158.629ZM578.975 158.629C575.942 161.981 579.653 164.767 587.273 164.858L590.963 164.901V161.017V157.133H585.646C581.384 157.133 580.06 157.43 578.975 158.629ZM-18 249.465V253.459H-12.9691C-8.42593 253.459 -7.81153 253.266 -6.63321 251.467C-5.39665 249.58 -5.40674 249.396 -6.82429 247.978C-7.8224 246.979 -9.92969 246.313 -13.1601 245.975L-18 245.47V249.465ZM46.6813 246.51C43.3856 247.522 42.2795 249.57 43.8315 251.785C44.8808 253.284 45.7213 253.459 51.8303 253.459C57.457 253.459 58.8823 253.21 59.9418 252.039C61.5885 250.219 61.5613 249.341 59.809 247.756C58.0706 246.182 50.1836 245.433 46.6813 246.51ZM113.269 246.659C111.392 247.332 110.472 248.188 110.296 249.424C109.828 252.731 111.342 253.459 118.68 253.459C124.258 253.459 125.683 253.209 126.741 252.039C128.388 250.219 128.361 249.341 126.608 247.756C124.719 246.045 116.8 245.394 113.269 246.659ZM180.068 246.659C178.192 247.332 177.271 248.188 177.096 249.424C176.627 252.731 178.141 253.459 185.48 253.459C191.185 253.459 192.47 253.223 193.611 251.962C195.152 250.258 194.697 247.66 192.725 246.903C190.015 245.863 182.684 245.721 180.068 246.659ZM246.868 246.659C243.684 247.8 242.722 250.779 245 252.445C247.091 253.974 258.827 253.817 260.405 252.239C262.076 250.567 261.938 248.243 260.108 247.264C257.642 245.944 249.856 245.589 246.868 246.659ZM313.667 246.659C310.483 247.8 309.522 250.779 311.8 252.445C313.891 253.974 325.627 253.817 327.205 252.239C328.876 250.567 328.737 248.243 326.907 247.264C324.441 245.944 316.655 245.589 313.667 246.659ZM380.467 246.659C377.375 247.767 376.532 250.19 378.539 252.197C380.014 253.673 391.192 254.009 393.722 252.655C395.761 251.564 395.669 248.314 393.567 247.189C391.081 245.858 383.551 245.554 380.467 246.659ZM447.266 246.659C444.175 247.767 443.331 250.19 445.338 252.197C446.813 253.673 457.991 254.009 460.522 252.655C462.561 251.564 462.469 248.314 460.367 247.189C457.88 245.858 450.351 245.554 447.266 246.659ZM514.066 246.659C510.974 247.767 510.131 250.19 512.138 252.197C513.613 253.673 524.791 254.009 527.321 252.655C529.36 251.564 529.268 248.314 527.166 247.189C524.68 245.858 517.15 245.554 514.066 246.659ZM581.109 246.529C578.05 247.437 577.09 249.88 578.974 251.962C580.063 253.165 581.382 253.459 585.689 253.459H591.048L590.811 249.77L590.574 246.08L587.079 245.937C585.157 245.86 582.47 246.126 581.109 246.529ZM-18 272.214V283.201L-11.9803 282.754C0.371411 281.838 6.85562 278.228 6.85562 272.268C6.85562 268.088 4.71493 265.628 -0.292699 264.055C-4.80477 262.636 -12.5123 261.239 -15.864 261.232L-18 261.228V272.214ZM43.04 262.506C36.7849 263.847 32.0981 266.045 30.9601 268.171C30.519 268.996 30.1578 270.944 30.1578 272.5C30.1578 278.883 38.0207 282.522 51.9064 282.565C65.8932 282.608 73.6551 278.933 73.6551 272.268C73.6551 266.493 69.6533 263.857 58.1203 262.036C51.7099 261.024 49.6508 261.089 43.04 262.506ZM110.162 262.436C100.438 264.525 96.9572 267.24 96.9572 272.736C96.9572 278.768 105.308 282.545 118.706 282.573C127.993 282.593 134.255 281.067 138.072 277.854C140.047 276.193 140.455 275.281 140.455 272.527C140.455 266.467 136.632 263.885 124.92 262.036C118.557 261.032 116.429 261.089 110.162 262.436ZM178.784 262.033C176.582 262.426 172.803 263.487 170.386 264.392C165.209 266.329 163.208 269.321 164.057 273.852C164.711 277.337 166.316 278.721 171.967 280.675C181.16 283.853 193.189 283.482 201.907 279.75C207.44 277.383 209.225 272.044 205.965 267.607C202.857 263.374 188.165 260.362 178.784 262.033ZM245.584 262.033C238.536 263.289 232.987 265.772 231.71 268.241C230.159 271.239 230.261 273.552 232.076 276.527C233.283 278.508 234.654 279.345 238.869 280.673C248.927 283.843 261.55 283.338 269.773 279.435C274.522 277.181 275.948 270.724 272.506 267.06C268.811 263.126 254.473 260.449 245.584 262.033ZM312.383 262.033C310.181 262.426 306.458 263.467 304.109 264.345C300.755 265.6 299.57 266.506 298.596 268.559C296.981 271.963 297.035 273.51 298.875 276.527C301.914 281.512 318.016 284.4 328.723 281.88C336.482 280.055 339.299 278.509 340.617 275.355C341.934 272.2 341.422 269.341 339.092 266.845C335.615 263.119 321.031 260.492 312.383 262.033ZM379.506 261.985C369.65 263.765 365.203 266.553 364.476 271.41C363.431 278.383 371.641 282.59 386.292 282.59C395.978 282.59 404.535 280.241 406.66 276.998C408.644 273.97 408.404 269.507 406.126 267.083C402.47 263.191 388.086 260.436 379.506 261.985ZM446.305 261.985C435.914 263.861 431.378 266.909 431.378 272.014C431.378 276.774 433.302 278.811 439.697 280.822C451.858 284.644 470.184 282.31 473.735 276.486C477.123 270.929 474.321 266.094 466.271 263.607C460.384 261.789 451.426 261.061 446.305 261.985ZM513.105 262.03C500.86 264.093 495.806 268.928 498.957 275.569C502.148 282.295 521.184 285.09 533.818 280.687C539.474 278.716 541.074 277.333 541.728 273.852C542.571 269.355 540.57 266.327 535.502 264.431C527.891 261.582 520.481 260.788 513.105 262.03ZM579.594 262.059C573.444 263.114 568.37 265.287 566.641 267.607C563.625 271.654 565.09 277.289 569.731 279.492C573.338 281.204 581.968 282.949 586.907 282.966L591.006 282.979L590.79 272.298L590.574 261.616L587.079 261.496C585.157 261.429 581.789 261.682 579.594 262.059ZM14.341 283.34C9.97889 284.895 7.3038 287.846 3.45584 295.352C-4.83118 311.513 -8.3234 330.393 -6.40252 348.645C-4.86613 363.252 0.365974 379.674 5.44506 385.836C11.9782 393.763 24.0363 394.105 31.0432 386.563C33.6585 383.747 35.5988 379.84 38.5753 371.393C47.058 347.324 45.5457 320.011 34.4749 297.312C29.7251 287.575 26.8349 284.277 21.9748 283.053C17.8806 282.022 18.0562 282.016 14.341 283.34ZM81.1545 283.31C77.1528 284.771 74.8194 287.095 71.6247 292.802C65.5763 303.606 61.7881 316.385 60.3907 330.695C59.3631 341.223 60.3356 353.061 63.135 364.099C65.1615 372.088 70.3594 383.996 73.1067 386.942C77.7889 391.962 86.6189 393.51 92.6852 390.375C98.496 387.373 101.843 382.303 105.762 370.568C114.873 343.282 111.443 311.831 96.8734 289.072C93.3656 283.592 86.8868 281.217 81.1545 283.31ZM148.021 283.294C144.097 284.719 143.016 285.704 139.606 290.965C127.924 308.989 123.694 339.521 129.643 362.87C134.791 383.074 141.627 392.002 151.94 391.987C160.043 391.976 165.042 388.129 169.502 378.474C178.125 359.809 180.055 335.649 174.62 314.398C171.413 301.857 163.864 287.039 159.351 284.426C156.095 282.542 151.389 282.072 148.021 283.294ZM214.633 283.343C210.471 284.829 207.199 288.768 203.065 297.27C196.583 310.601 193.991 322.721 193.999 339.669C194.007 355.549 197.267 369.89 203.601 381.902C206.438 387.284 209.795 390.061 215.14 391.447C228.681 394.96 238.457 382.571 243.017 356.118C246.945 333.335 242.958 309.733 232.083 291.396C227.508 283.683 221.478 280.9 214.633 283.343ZM281.433 283.343C277.38 284.79 274.307 288.403 270.367 296.356C263.726 309.759 260.849 322.752 260.849 339.334C260.849 355.272 264.229 370.37 270.379 381.911C278.089 396.379 295.375 395.28 302.656 379.86C313.564 356.757 314.21 325.829 304.283 301.981C301.035 294.177 295.815 286.008 293.084 284.455C289.647 282.5 285.029 282.06 281.433 283.343ZM348.352 283.318C343.997 284.896 342.301 286.839 337.932 295.245C324.91 320.298 324.061 352.435 335.721 378.804C339.218 386.712 343.168 390.361 349.699 391.717C358.816 393.61 365.887 388.735 370.698 377.242C382.696 348.577 379.924 311.808 364.015 288.612C360.39 283.326 354.148 281.216 348.352 283.318ZM415.032 283.346C413.323 283.958 410.965 285.597 409.791 286.988C406.624 290.743 401.804 300.433 399.199 308.288C392.133 329.578 393.034 356.381 401.481 376.186C405.915 386.584 409.466 390.256 416.499 391.717C425.026 393.487 432.221 388.969 436.824 378.954C446.151 358.662 447.611 331.558 440.578 309.258C437.013 297.951 430.416 286.266 426.452 284.237C423.028 282.485 418.438 282.127 415.032 283.346ZM482.418 283.07C478.59 284.176 474.947 288.379 471.02 296.224C460.286 317.67 458.227 345.168 465.605 368.564C470.194 383.117 475.483 390.094 483.127 391.681C491.068 393.33 498.025 389.755 502.23 381.864C512.417 362.749 514.695 333.271 507.786 309.968C505.587 302.552 498.212 288.163 495.396 285.793C493.129 283.886 488.516 282.14 486.103 282.277C485.462 282.312 483.804 282.67 482.418 283.07ZM549.092 283.172C545.06 284.511 541.849 288.278 537.917 296.285C530.607 311.169 528.442 321.012 528.455 339.299C528.464 353.571 529.552 360.75 533.281 371.149C538.106 384.6 542.615 390.163 549.926 391.681C558.151 393.389 564.903 389.723 569.398 381.11C579.61 361.539 581.63 331 574.189 308.665C570.25 296.841 564.164 286.353 559.99 284.194C556.838 282.564 552.224 282.131 549.092 283.172ZM-14.3105 291.318L-18 291.609V295.062V298.515H-14.5552C-9.48617 298.515 -5.63122 296.763 -5.58384 294.437C-5.56365 293.424 -8.6372 290.741 -9.65006 290.887C-10.1837 290.964 -12.2817 291.158 -14.3105 291.318ZM44.4637 291.912C43.4998 292.665 43.0811 294.072 43.2707 295.915C43.6303 299.413 59.4229 299.206 60.7737 295.686C61.2335 294.488 60.0567 291.578 59.0641 291.456C55.3451 291.001 45.2249 291.317 44.4637 291.912ZM111.272 291.757C110.661 292.099 110.162 293.375 110.162 294.594C110.162 296.381 110.636 296.975 112.608 297.662C118.403 299.683 128.027 297.875 128.027 294.766C128.027 292.103 125.992 291.303 119.017 291.217C115.367 291.172 111.881 291.415 111.272 291.757ZM177.935 291.956C176.274 293.171 177.059 296.388 179.291 297.513C181.917 298.837 188.828 298.77 192.133 297.39C195.056 296.168 195.699 293.992 193.639 292.283C192.162 291.056 179.525 290.793 177.935 291.956ZM245.165 292.182C243.179 293.573 243.65 296.283 246.091 297.513C247.159 298.052 250.13 298.493 252.693 298.493C255.256 298.493 258.228 298.052 259.296 297.513C261.611 296.347 262.19 293.736 260.454 292.295C258.732 290.866 247.166 290.78 245.165 292.182ZM311.965 292.182C309.978 293.573 310.449 296.283 312.89 297.513C313.958 298.052 316.929 298.493 319.493 298.493C322.056 298.493 325.027 298.052 326.095 297.513C328.41 296.347 328.99 293.736 327.254 292.295C325.532 290.866 313.965 290.78 311.965 292.182ZM378.815 292.146C377.051 293.381 376.929 295.637 378.553 296.985C380.286 298.424 390.494 298.835 392.894 297.563C395.204 296.34 395.787 293.735 394.071 292.31C392.383 290.91 380.76 290.784 378.815 292.146ZM445.615 292.146C443.851 293.381 443.729 295.637 445.352 296.985C447.085 298.424 457.293 298.835 459.694 297.563C462.003 296.34 462.587 293.735 460.871 292.31C459.183 290.91 447.559 290.784 445.615 292.146ZM512.414 292.146C510.65 293.381 510.528 295.637 512.152 296.985C513.885 298.424 524.093 298.835 526.493 297.563C528.803 296.34 529.386 293.735 527.67 292.31C525.982 290.91 514.358 290.784 512.414 292.146ZM579.506 291.927C577.488 293.357 577.238 295.563 578.935 296.971C579.582 297.508 582.553 298.122 585.537 298.336L590.963 298.724V295.124V291.524L587.662 291.513C585.846 291.508 583.661 291.32 582.807 291.095C581.953 290.871 580.467 291.246 579.506 291.927ZM-17.4819 400.021C-17.767 400.305 -18 404.151 -18 408.566V416.593H-13.5027C-5.2848 416.593 5.7076 412.853 8.06578 409.255C9.15632 407.589 9.24098 406.844 8.51784 405.257C7.21137 402.39 3.30748 401.133 -6.92449 400.285C-17.9658 399.369 -16.8582 399.397 -17.4819 400.021ZM42.483 400.34C33.5902 401.076 29.6808 402.498 28.5787 405.397C26.9863 409.585 30.6456 412.482 40.8131 415.083C50.8951 417.662 60.7512 416.85 70.5505 412.634C76.9795 409.868 77.5349 404.604 71.6573 402.148C69.5726 401.277 52.0548 399.202 50.353 399.624C50.1394 399.677 46.5982 399.999 42.483 400.34ZM109.139 400.35C97.9227 401.275 93.3299 404.177 95.6663 408.865C98.6016 414.754 117.512 418.431 129.223 415.391C136.711 413.447 141.878 410.777 142.434 408.566C143.103 405.896 141.593 403.459 138.457 402.148C136.372 401.277 118.854 399.202 117.152 399.624C116.939 399.677 113.332 400.003 109.139 400.35ZM176.961 400.302C165.33 401.287 162.203 402.659 162.203 406.78C162.203 410.18 163.888 411.59 170.865 414.033C181.819 417.866 193.956 417.261 204.701 412.344C210.304 409.78 211.298 405.832 207.041 403.042C203.39 400.65 188.681 399.31 176.961 400.302ZM243.761 400.302C232.129 401.287 229.003 402.659 229.003 406.78C229.003 410.182 230.692 411.594 237.665 414.022C248.431 417.77 260.597 417.282 270.71 412.697C274.376 411.034 275.668 410.019 276.049 408.501C276.694 405.926 276.137 404.547 273.841 403.042C270.189 400.65 255.48 399.31 243.761 400.302ZM310.56 400.267C299.586 401.156 295.802 402.959 295.802 407.299C295.802 410.147 297.81 411.705 304.464 414.022C315.211 417.763 327.398 417.282 337.461 412.718C342.459 410.452 343.72 408.738 342.872 405.36C342.209 402.718 337.539 401.183 327.445 400.289C322.644 399.864 318.366 399.565 317.939 399.624C317.512 399.683 314.191 399.973 310.56 400.267ZM376.971 400.292C368.383 401.032 363.553 402.808 362.884 405.474C362.122 408.512 363.748 410.902 367.803 412.703C379.719 417.995 395.302 417.747 405.711 412.098C408.968 410.33 409.633 409.591 409.834 407.511C410.191 403.826 408.051 402.157 401.717 401.182C393.67 399.942 384.747 399.621 376.971 400.292ZM443.771 400.292C435.343 401.018 430.35 402.819 429.713 405.36C428.943 408.426 430.145 410.335 434.104 412.342C445.24 417.986 461.855 417.88 472.51 412.098C475.768 410.33 476.433 409.591 476.634 407.511C476.99 403.826 474.85 402.157 468.517 401.182C460.469 399.942 451.547 399.621 443.771 400.292ZM510.408 400.294C499.914 401.181 495.363 403.825 496.504 408.373C497.61 412.781 511.128 417.005 522.221 416.407C529.616 416.009 539.314 413.224 542.104 410.698C543.997 408.985 544.001 405.36 542.113 403.472C539.481 400.839 523.225 399.21 510.408 400.294ZM577.092 400.363C566.534 401.301 562.165 403.839 563.303 408.373C564.241 412.109 576.664 416.593 586.077 416.593H590.963V408.52C590.963 401.874 590.745 400.363 589.734 399.975C588.328 399.435 587.107 399.473 577.092 400.363ZM4.52541 421.742C1.74857 422.416 -2.62058 423.422 -5.18382 423.976C-9.30442 424.87 -6.56098 424.981 18.5067 424.946C34.0997 424.924 45.809 424.758 44.5274 424.577C43.2458 424.397 39.5757 423.531 36.3717 422.652C28.4637 420.481 11.6924 420.002 4.52541 421.742ZM74.8202 420.96C69.9431 422.203 60.5647 424.36 58.8971 424.622C57.8291 424.79 69.7132 424.933 85.3062 424.941C100.917 424.949 112.087 424.688 110.162 424.36C108.239 424.033 104.744 423.161 102.394 422.422C98.1713 421.095 78.4025 420.047 74.8202 420.96ZM141.62 421.007C140.765 421.199 137.27 422.022 133.852 422.837C130.435 423.651 126.765 424.455 125.697 424.622C124.629 424.79 136.513 424.94 152.106 424.957C177.133 424.983 179.911 424.868 175.796 423.982C173.233 423.429 168.689 422.42 165.699 421.74C160.621 420.586 145.535 420.126 141.62 421.007ZM203.759 422.148C200.341 423.005 195.972 423.987 194.05 424.331C191.987 424.699 202.179 424.962 218.905 424.971C243.955 424.985 246.713 424.869 242.596 423.982C240.032 423.429 235.489 422.42 232.498 421.74C224.786 419.987 211.632 420.174 203.759 422.148ZM270.558 422.148C267.141 423.005 262.771 423.987 260.849 424.331C258.781 424.7 268.931 424.967 285.705 424.985C316.435 425.017 315.454 425.254 299.298 421.7C291.536 419.993 278.332 420.199 270.558 422.148ZM337.358 422.101C333.94 422.984 329.571 423.987 327.648 424.331C325.596 424.698 336.021 424.956 352.892 424.956C368.966 424.956 380.092 424.69 378.136 424.354C376.214 424.023 372.544 423.16 369.981 422.435C366.986 421.589 361.435 421.007 354.446 420.807C345.285 420.544 342.593 420.749 337.358 422.101ZM409.594 420.937C404.372 422.195 394.541 424.365 392.894 424.623C391.826 424.79 403.885 424.933 419.692 424.941C435.713 424.95 446.885 424.689 444.936 424.354C443.014 424.023 439.343 423.161 436.78 422.438C432.237 421.158 413.072 420.099 409.594 420.937ZM476.394 420.937C471.171 422.195 461.341 424.365 459.694 424.623C458.626 424.79 470.685 424.933 486.491 424.941C502.512 424.95 513.684 424.689 511.735 424.354C509.813 424.023 506.143 423.161 503.58 422.438C499.037 421.158 479.871 420.099 476.394 420.937ZM543.193 420.937C537.971 422.195 528.14 424.365 526.493 424.623C525.425 424.79 537.484 424.933 553.291 424.941C569.312 424.95 580.484 424.689 578.535 424.354C576.612 424.023 572.942 423.161 570.379 422.438C565.836 421.158 546.671 420.099 543.193 420.937Z" fill="black"/>
</g>
</svg>
