<svg width="573" height="278" viewBox="0 0 573 278" fill="none" xmlns="http://www.w3.org/2000/svg">
<mask id="mask0_439_10114" style="mask-type:alpha" maskUnits="userSpaceOnUse" x="0" y="0" width="574" height="278">
<path fill-rule="evenodd" clip-rule="evenodd" d="M77 58.4549C77 58.9723 81.0571 61.7937 86.0147 64.7246C104.071 75.3977 110.661 83.5067 128.363 116.829C136.08 131.356 140.721 138.655 149.163 149.545C155.141 157.255 160.276 163.318 160.576 163.02C160.875 162.72 157.89 157.528 153.941 151.48C146.078 139.438 142.226 131.623 139.006 121.178C135.579 110.065 136.575 101.593 141.307 101.593C143.564 101.593 154.299 109.105 161.034 115.397C169.86 123.642 176.883 134.082 183.453 148.725C191.158 165.899 191.579 166.641 198.619 175.451C207.897 187.061 214.015 191.565 232.735 200.562C261.691 214.477 270.684 222.065 277.202 238.083C279.276 243.182 282.941 259.44 285.142 273.314C285.469 275.37 286.157 277.052 286.67 277.052C287.805 277.052 288.125 275.74 290.623 260.89C291.703 254.469 293.526 246.394 294.674 242.945C297.505 234.443 303.568 224.432 308.787 219.639C314.819 214.1 326.604 206.974 337.623 202.201C342.766 199.974 349.91 196.53 353.497 194.549C364.644 188.395 381.247 170.16 385.488 159.415C389.196 150.016 396.761 134.933 400.584 129.31C408.579 117.552 425.738 102.761 431.914 102.305C434.238 102.133 435.092 102.679 436.271 105.082C439.566 111.802 431.917 132.953 419.227 152.208C415.878 157.291 413.389 161.702 413.698 162.01C414.253 162.565 425.761 148.573 432.643 138.978C434.608 136.236 440.965 125.138 446.77 114.316C459.554 90.4752 463.198 85.031 472.008 76.596C478.441 70.437 492.59 60.719 495.123 60.719C495.763 60.719 496.287 60.053 496.287 59.2395C496.287 57.9525 495.802 57.9665 492.544 59.3532C480.118 64.6399 479.587 64.9569 456.355 80.8968C453.884 82.5915 443.327 89.8113 432.895 96.9393C422.463 104.068 413.021 110.704 411.913 111.685C407.211 115.85 392.503 123.742 385.08 126.082C380.672 127.473 372.556 129.491 367.045 130.566C344.697 134.924 335.6 138.674 324.781 147.984C319.431 152.588 320.004 153.602 325.757 149.714C342.205 138.597 357.745 133.408 368.475 135.449C374.822 136.656 379.49 141.849 379.476 147.686C379.453 157.687 368.533 172.148 358.89 174.948C353.913 176.392 353.331 176.368 349.183 174.535C345.719 173.006 344.515 171.816 343.587 169.007C342.936 167.038 342.692 164.521 343.045 163.412C344.02 160.342 348.411 155.545 351.902 153.735C356.724 151.235 353.498 151.108 346.929 153.54C342.163 155.303 339.21 157.515 331.321 165.226C321.376 174.946 318.858 179.087 317.281 188.326C316.618 192.205 316.139 192.73 322.715 182.37C325.54 177.921 327.514 176.073 331.646 174.018C338.353 170.68 339.437 170.711 344.046 174.369C346.119 176.014 348.202 177.359 348.676 177.359C349.149 177.359 349.537 178.981 349.537 180.963C349.537 186.271 345.017 193.807 339.741 197.297C335.381 200.181 329.072 202.117 327.888 200.934C327.074 200.122 332.084 193.5 336.455 189.61C338.434 187.848 339.474 186.39 338.765 186.37C334.131 186.234 317.799 198.776 308.644 209.5C301.883 217.42 294.787 230.839 292.007 240.963C290.293 247.201 290.26 247.242 286.915 246.945C283.63 246.653 283.478 246.435 280.612 237.899C277.03 227.23 274.711 222.542 269.111 214.649C261.669 204.158 243.964 188.917 236.738 186.78C234.711 186.181 235.31 187.187 239.982 192.227C243.135 195.627 245.713 199.055 245.713 199.847C245.713 203.661 233.814 198.641 228.985 192.79C224.974 187.931 221.978 177.359 224.611 177.359C225.085 177.359 227.169 176.014 229.241 174.369C233.797 170.754 235.412 170.675 241.503 173.771C247.202 176.667 249.673 179.21 253.742 186.361L256.845 191.815L256.245 187.495C254.744 176.671 241.995 161.186 229.409 154.899C220.312 150.355 216.569 150.208 222.955 154.646C230.705 160.033 232.853 166.43 228.688 171.718C223.325 178.527 211.718 176.58 203.495 167.491C198.858 162.366 195.172 155.101 194.322 149.415C193.767 145.702 194.048 144.378 196.012 141.47C199.182 136.775 202.898 135.195 210.765 135.195C220.796 135.195 230.895 139.003 245.077 148.132C248.846 150.558 252.12 152.351 252.354 152.118C253.321 151.152 242.353 142.522 235.76 139.062C230.172 136.129 224.791 134.506 210.482 131.438C200.484 129.294 189.651 126.587 186.407 125.421C180.224 123.201 166.074 115.252 161.21 111.266C159.644 109.983 150.275 103.393 140.392 96.6233C130.509 89.8531 117.481 80.8848 111.441 76.6947C97.7048 67.1651 89.6176 62.2871 84.4873 60.4348C82.291 59.6423 79.7074 58.6613 78.747 58.2546C77.7867 57.8478 77 57.9385 77 58.4549Z" fill="#FF0000"/>
<path fill-rule="evenodd" clip-rule="evenodd" d="M251.201 5.32512C262.933 18.0246 268.984 35.3564 272.044 65.0229L272.714 71.5191L263.851 63.0211C258.877 58.2509 252.358 53.133 248.994 51.357C245.698 49.616 233.357 44.9977 221.571 41.096C199.399 33.7544 186.335 27.6969 171.665 17.9547C167.594 15.2513 164.118 13.1835 163.941 13.3614C163.763 13.5383 166.819 17.2521 170.731 21.6135C179.23 31.0889 182.54 37.5321 182.553 44.63C182.569 52.9141 178.765 54.6431 164.169 52.984C148.416 51.1931 139.76 46.7217 120.617 30.4863C115.128 25.831 110.637 22.2771 110.637 22.5899C110.637 23.3685 118.005 34.2491 123.467 41.5368C125.938 44.8348 135.84 55.2767 145.47 64.7411C155.1 74.2065 162.753 82.1768 162.477 82.4537C161.758 83.1713 147.126 79.5574 140.098 76.9269C129.624 73.0062 119.855 61.8438 117.57 51.1871L116.496 46.1761L105.824 43.6775C85.2972 38.8724 74.4614 37.6161 54.8746 37.774C33.3388 37.9479 20.545 39.3011 9.67317 42.5562C-3.05271 46.3669 -3.14961 46.9686 8.95391 47.0036C17.3123 47.0266 20.8796 47.4913 25.2411 49.1243C32.7244 51.9257 43.3345 59.1834 53.8856 68.7178C62.4058 76.4182 69.2737 80.9246 87.1053 90.5159C97.3777 96.0407 102.803 100.711 109.413 109.717C111.99 113.228 114.265 115.597 114.47 114.982C114.675 114.367 113.435 111.002 111.714 107.505C106.303 96.5084 90.393 81.1714 71.3376 68.5828C62.5766 62.7953 59.1012 59.5402 55.7996 54.0294C52.9306 49.2412 53.1563 47.3324 56.8585 45.0797C61.6186 42.1834 66.2538 41.8096 76.1726 43.5226C92.0423 46.263 103.137 53.4717 111.683 66.595C119.68 78.8738 134.115 86.4333 157.227 90.445C171.146 92.8615 174.313 94.3317 194.849 107.905C205.399 114.878 214.703 120.994 215.524 121.497C216.345 121.999 215.303 120.023 213.207 117.104C211.112 114.187 209.545 111.652 209.725 111.473C210.338 110.858 249.235 120.805 252.115 122.313C258.928 125.881 268.775 139.979 264.453 139.979C263.89 139.979 260.968 139.113 257.96 138.056C247.972 134.544 251.318 137.467 269.07 147.765L276.157 151.878L276.791 181.158C277.139 197.261 277.883 215.16 278.442 220.931C280.411 241.235 284.245 262.088 286.408 264.256C286.873 264.722 287.953 262.698 288.806 259.758C293.323 244.195 296.294 215.307 297.14 178.719C297.665 156.001 297.996 151.799 299.35 150.67C300.225 149.941 305.211 146.939 310.431 143.999C321.412 137.816 320.921 138.148 320.186 137.412C319.874 137.1 317.239 137.551 314.33 138.416C306.907 140.621 306.174 139.327 310.934 132.415C317.376 123.057 319.243 122.111 342.78 116.29C354.343 113.429 363.937 111.224 364.101 111.388C364.265 111.551 362.824 113.666 360.9 116.088C358.976 118.509 357.398 120.834 357.393 121.253C357.387 121.673 365.549 116.557 375.532 109.885C385.514 103.212 395.74 96.7243 398.259 95.467C400.776 94.2088 408.547 92.009 415.528 90.5769C444.137 84.7064 452.1 80.216 464.244 63.1061C472.419 51.5889 483.389 45.5864 500.956 43.0169C508.326 41.9386 509.371 42.0065 513.521 43.8434C520.054 46.7347 520.794 48.7455 517.31 54.1434C514.461 58.5568 509.848 63.217 505.23 66.3452C503.857 67.2756 499.768 70.053 496.144 72.5155C486.638 78.9757 473.517 90.7698 467.979 97.8316C463.308 103.787 457.577 114.625 458.572 115.62C458.846 115.895 461.587 112.774 464.663 108.685C471.631 99.4237 476.102 95.7728 488.747 89.0228C503.472 81.1634 511.441 75.8046 520.832 67.4445C531.272 58.152 542.865 50.5025 549.493 48.5337C552.478 47.6472 558.654 47.0216 564.601 47.0036C571.798 46.9816 574.171 46.6888 572.944 45.9732C570.278 44.4181 559.92 41.2779 553.498 40.0766C545.258 38.5356 512.962 36.8545 505.23 37.5641C493.495 38.6415 477.939 41.137 467.02 43.6935C456.691 46.1121 456.281 46.31 456.271 48.8695C456.259 52.1445 452.305 60.8214 448.627 65.6466C444.371 71.2273 437.614 75.8386 430.404 78.0793C421.985 80.6957 411.327 82.9584 411.327 82.1289C411.327 81.7771 418.32 74.5233 426.866 66.0104C435.413 57.4974 444.795 47.6082 447.715 44.0353C454.118 36.2009 462.275 24.3309 462.275 22.8478C462.275 22.2571 460.14 23.7603 457.529 26.1878C443.99 38.7794 430.341 48.0839 421.72 50.5984C413.764 52.9191 400.506 54.1514 396.145 52.977C391.392 51.6968 389.949 49.0554 390.671 42.9549C391.48 36.129 395.173 29.5519 402.866 21.2397C406.562 17.2451 409.348 13.7382 409.056 13.4473C408.765 13.1555 406.484 14.4767 403.988 16.3826C393.072 24.7187 375.677 33.0378 354.21 40.1896C323.426 50.4455 320.735 51.8297 308.183 63.8766L301.44 70.3478V66.7579C301.44 61.1242 303.384 48.2668 305.513 39.8288C309.096 25.6202 315.73 12.6678 323.768 4.1818C327.445 0.301083 327.574 0.0142504 324.916 1.64329C314.09 8.27738 301.229 20.6521 294.945 30.4783C291.228 36.2919 287.5 45.3306 287.406 48.7575C287.38 49.733 286.086 47.1115 284.533 42.932C282.979 38.7514 280.013 32.68 277.941 29.4399C271.758 19.7686 258.592 7.03112 247.995 0.467984C245.87 -0.84824 246.802 0.562925 251.201 5.32512ZM205.954 49.3512C203.624 51.357 203.345 52.1675 203.923 55.2527C204.687 59.3253 208.362 66.616 212.167 71.6081C214.818 75.084 216.528 75.2809 216.528 72.1098C216.528 68.8597 222.392 62.0677 227.194 59.7571C233.121 56.9037 234.753 54.4652 232.071 52.4713C228.875 50.0977 224.924 50.7374 220.891 54.2793C218.858 56.0652 217.042 57.0776 216.857 56.528C215.95 53.8375 212.42 49.0424 210.647 48.0939C209.043 47.2344 208.13 47.4793 205.954 49.3512ZM362.121 48.1169C361.156 48.6796 359.461 50.9143 358.355 53.084C357.248 55.2527 356.074 57.0277 355.746 57.0277C355.418 57.0277 353.613 55.6785 351.735 54.0294C347.765 50.5405 343.529 50.1237 340.957 52.9671C338.726 55.4336 339.602 56.7868 344.963 59.1594C349.966 61.3731 355.989 67.9482 356.927 72.2187L357.577 75.182L360.012 72.8943C363.44 69.6722 369.37 57.3895 369.37 53.5107C369.37 51.1601 368.689 49.8149 366.908 48.6476C364.048 46.7727 364.368 46.8077 362.121 48.1169ZM186.226 54.696C185.86 55.0618 185.56 57.1226 185.56 59.2743V63.187L182.195 61.1073C177.549 58.234 173.57 58.3119 173.577 61.2752C173.586 65.1209 176.69 68.7298 187.911 77.9453C195.759 84.3905 202.333 88.693 211.709 93.5212C218.834 97.19 224.843 100.011 225.063 99.7925C225.283 99.5726 223.701 96.0297 221.548 91.9191C216.763 82.7825 207.244 71.2103 202.328 68.5509L198.687 66.582L194.208 69.8001C191.744 71.5701 189.526 73.0182 189.279 73.0182C189.031 73.0182 189.891 70.9185 191.19 68.352C194.027 62.7453 194.229 57.9511 191.724 55.6835C189.835 53.9735 187.388 53.5337 186.226 54.696ZM381.831 55.4236C379.287 57.2855 379.547 63.9806 382.348 68.7298C384.842 72.9603 384.512 73.7068 381.261 71.1823C376.297 67.3286 374.65 66.8759 371.053 68.38C366.735 70.1839 357.047 82.0969 351.581 92.3219C346.597 101.644 346.499 101.636 362.378 93.2903C374.136 87.1099 376.193 85.6878 388.676 75.104C397.118 67.9472 400.338 63.9346 400.338 60.5756C400.338 58.2869 394.175 58.5857 391.075 61.0253C387.801 63.6018 386.982 63.5488 387.698 60.8054C389.15 55.2537 386.006 52.3694 381.831 55.4236ZM237.057 63.3639C231.174 67.6674 245.759 87.6306 256.237 89.6155C259.783 90.2871 260.491 91.5873 257.735 92.3678C253.56 93.5501 243.794 94.0588 241.518 93.2123L239.038 92.2899L241.329 91.5623C245.059 90.378 243.345 85.4839 237.023 79.2646C231.517 73.8497 227.336 72.4426 226.125 75.5987C224.214 80.5808 227.67 91.6253 233.41 98.875C236.697 103.029 247.674 110.996 250.107 110.996C251.738 110.996 251.928 107.684 250.458 104.933C248.54 101.348 251.155 102.966 256.623 108.747C259.611 111.907 265.187 119.432 269.012 125.467L275.967 136.441L276.746 122.291C277.468 109.166 277.341 107.331 274.998 96.9421C273.607 90.7818 272.47 84.4985 272.47 82.9784C272.47 79.7063 264.546 71.9479 254.988 65.8605C250.084 62.7383 248.075 62.0417 243.941 62.0347C241.162 62.0287 238.064 62.6274 237.057 63.3639ZM323.418 62.8442C315.55 66.4111 301.44 78.3721 301.44 81.4743C301.44 82.7185 300.342 89.1307 299 95.7229C296.811 106.476 296.631 109.136 297.252 121.595L297.944 135.481L304.437 125.052C308.009 119.314 313.339 112.006 316.283 108.811C321.596 103.043 324.315 101.374 322.896 104.75C321.098 109.031 321.152 110.996 323.069 110.996C325.384 110.996 331.619 106.944 336.736 102.116C347.163 92.2759 351.695 74.0176 343.709 74.0176C339.904 74.0176 330.41 83.9948 330.41 87.9934C330.41 89.7214 331.07 91.0466 332.131 91.4544C335.934 92.9145 330.889 94.0448 323.418 93.4062C313.729 92.5787 311.638 91.0936 317.68 89.3316C325.104 87.1659 333.637 78.45 337.346 69.2445C338.511 66.3552 338.457 65.7405 336.881 63.9976C335.527 62.5014 333.865 62.0417 330.006 62.0947C327.207 62.1337 324.242 62.4705 323.418 62.8442Z" fill="white"/>
</mask>
<g mask="url(#mask0_439_10114)">
<path fill-rule="evenodd" clip-rule="evenodd" d="M-17.9035 -108.476C-17.8404 -82.4954 -17.5918 -70.8602 -17.1783 -74.5194C-13.8374 -104.099 2.43351 -130.653 23.8394 -141.458C29.9333 -144.534 33.413 -145.738 39.5247 -146.889C44.1957 -147.768 41.5555 -147.873 13.3602 -147.933L-18 -148L-17.9035 -108.476ZM57.3388 -147.264C58.9717 -146.961 63.2738 -146.167 66.8997 -145.501C74.3008 -144.14 90.6118 -143.881 97.0494 -145.021C113.859 -147.998 114.491 -147.868 83.3177 -147.84C67.3963 -147.826 55.7058 -147.567 57.3388 -147.264ZM124.884 -147.264C126.517 -146.961 130.819 -146.167 134.445 -145.501C143.091 -143.911 158.635 -143.911 167.281 -145.501C170.907 -146.167 175.209 -146.961 176.842 -147.264C178.475 -147.567 166.784 -147.814 150.863 -147.814C134.941 -147.814 123.251 -147.567 124.884 -147.264ZM192.429 -147.264C194.062 -146.961 198.364 -146.167 201.99 -145.501C205.951 -144.773 212.505 -144.289 218.408 -144.289C224.311 -144.289 230.865 -144.773 234.826 -145.501C238.452 -146.167 242.754 -146.961 244.387 -147.264C246.02 -147.567 234.329 -147.814 218.408 -147.814C202.487 -147.814 190.796 -147.567 192.429 -147.264ZM258.861 -147.485C259.881 -147.313 264.157 -146.524 268.362 -145.73C277.949 -143.923 293.064 -143.805 302.371 -145.465C305.997 -146.111 310.466 -146.907 312.303 -147.233C314.224 -147.573 303.185 -147.82 286.324 -147.811C270.199 -147.804 257.84 -147.657 258.861 -147.485ZM326.406 -147.485C327.426 -147.313 331.702 -146.524 335.907 -145.73C346.276 -143.775 361.462 -143.775 371.831 -145.73C376.037 -146.524 380.312 -147.313 381.333 -147.485C382.353 -147.657 369.995 -147.798 353.869 -147.798C337.744 -147.798 325.385 -147.657 326.406 -147.485ZM399.518 -146.424C403.792 -145.497 410.609 -144.821 418.445 -144.546C430.292 -144.129 435.902 -144.677 449.62 -147.591C450.232 -147.722 437.707 -147.837 421.785 -147.849L392.838 -147.871L399.518 -146.424ZM463.352 -147.264C464.985 -146.961 469.287 -146.167 472.913 -145.501C481.558 -143.911 497.103 -143.911 505.748 -145.501C509.374 -146.167 513.676 -146.961 515.309 -147.264C516.942 -147.567 505.252 -147.814 489.331 -147.814C473.409 -147.814 461.719 -147.567 463.352 -147.264ZM531.444 -147.233C558.638 -142.654 581.909 -116.08 587.969 -82.6839C588.599 -79.214 589.42 -74.705 589.793 -72.6639C590.247 -70.187 590.502 -82.0976 590.561 -108.476L590.648 -148L559.288 -147.912C540.929 -147.862 529.386 -147.58 531.444 -147.233ZM38.68 -136.881C10.2131 -129.418 -9.79809 -95.7768 -8.12802 -58.1904C-7.48597 -43.7415 -3.79697 -28.8769 0.881454 -21.8858C6.64654 -13.2723 19.3844 -10.3531 38.4113 -13.2856C42.2896 -13.8831 46.9153 -14.3782 48.6915 -14.3856C51.3644 -14.3967 52.3545 -14.8332 54.444 -16.9225C57.4724 -19.9508 57.5318 -21.1094 55.0549 -28.8657C50.6407 -42.6875 49.001 -57.2663 50.274 -71.3531C51.3273 -83.0038 53.6305 -92.0954 58.5576 -104.053C62.3334 -113.217 62.4455 -113.699 62.4893 -120.909C62.5308 -127.703 62.3631 -128.623 60.5037 -131.785C56.7435 -138.182 49.8153 -139.8 38.68 -136.881ZM111.895 -137.518C104.608 -134.612 101.334 -124.196 104.341 -113.486C105.143 -110.629 107.025 -105.361 108.522 -101.781C117.884 -79.3996 118.752 -51.1556 110.795 -27.7925C108.642 -21.4717 109.04 -18.5525 112.419 -15.8953C115.412 -13.541 118.992 -13.9254 121.989 -16.9225C125.118 -20.0518 125.158 -21.5021 122.356 -30.2804C118.653 -41.8792 117.603 -50.4943 118.02 -65.8443C118.343 -77.7266 118.653 -80.3667 120.611 -87.8795C121.835 -92.5741 124.181 -99.5882 125.826 -103.466C129.76 -112.745 130.442 -115.432 130.446 -121.704C130.452 -128.932 127.812 -134.283 123.056 -136.681C119.563 -138.442 115.062 -138.78 111.895 -137.518ZM179.07 -137.23C175.59 -135.341 174.147 -133.789 172.517 -130.187C170.291 -125.266 170.494 -116.543 172.982 -110.146C174.014 -107.493 176.034 -102.311 177.47 -98.63C185.285 -78.5972 185.942 -51.9371 179.155 -30.2552C176.494 -21.7552 176.484 -19.8558 179.088 -17.0457C182.277 -13.6048 187.028 -13.6426 190.265 -17.1348C192.473 -19.5166 192.559 -22.3586 190.599 -28.0574C186.831 -39.006 185.749 -46.6547 185.754 -62.2727C185.761 -81.3561 187.646 -90.3912 195.122 -107.177C197.418 -112.332 197.602 -113.321 197.613 -120.538C197.626 -129.448 196.514 -132.688 192.351 -135.863C189.134 -138.316 182.356 -139.014 179.07 -137.23ZM246.477 -136.954C244.564 -136.058 242.568 -134.285 241.281 -132.34C239.305 -129.354 239.191 -128.733 239.191 -120.963C239.191 -113.205 239.332 -112.432 241.712 -107.177C252.502 -83.3564 254.513 -56.1137 247.274 -31.8191C244.652 -23.0162 244.428 -21.442 245.446 -18.9837C246.429 -16.6101 249.737 -14.3975 252.295 -14.4019C255.252 -14.4064 258.7 -17.0398 259.489 -19.8959C260.08 -22.0358 259.834 -23.6657 258.11 -29.0268C254.099 -41.5007 253.31 -46.9612 253.307 -62.2727C253.303 -80.9263 254.938 -88.6463 262.95 -107.814C267.941 -119.756 266.594 -131.073 259.559 -136.281C256.677 -138.415 250.293 -138.744 246.477 -136.954ZM313.759 -136.681C309.194 -134.379 306.981 -130.213 306.522 -123.051C306.108 -116.603 306.908 -113.078 310.914 -103.702C312.567 -99.8339 314.928 -92.7708 316.16 -88.0065C318.122 -80.4253 318.45 -77.6739 318.787 -65.9712C319.23 -50.5655 318.195 -41.9171 314.542 -30.512C311.653 -21.4939 311.683 -20.0659 314.827 -16.9225C318.795 -12.9546 324.685 -14.1021 326.841 -19.2628C327.832 -21.6342 327.731 -22.3631 325.307 -30.3613C318.1 -54.1356 319.181 -79.9986 328.293 -101.781C329.791 -105.361 331.673 -110.629 332.475 -113.486C337.157 -130.163 326.651 -143.182 313.759 -136.681ZM381.498 -136.778C379.337 -135.709 377.678 -134.11 376.302 -131.769C374.463 -128.64 374.283 -127.664 374.295 -120.909C374.307 -113.863 374.463 -113.128 377.365 -106.435C384.342 -90.346 386.756 -78.9142 386.77 -61.9016C386.78 -49.2169 385.172 -38.6617 381.676 -28.462C379.403 -21.8324 379.687 -19.0023 382.9 -16.2991C385.873 -13.797 389.399 -13.7881 392.355 -16.2746C395.716 -19.1025 395.873 -21.4175 393.255 -29.5894C389.653 -40.8312 388.476 -48.8755 388.472 -62.2727C388.466 -78.9453 390.28 -87.9241 397.059 -104.753C401.391 -115.507 402.257 -121.569 400.386 -128.01C397.822 -136.827 389.449 -140.714 381.498 -136.778ZM449.977 -137.316C446.241 -135.689 443.167 -131.516 442.171 -126.721C440.92 -120.692 441.744 -114.749 444.87 -107.27C452.291 -89.5154 454.378 -79.4352 454.343 -61.5304C454.315 -47.8467 453.053 -39.6659 449.192 -28.174C446.996 -21.6349 447.189 -19.6844 450.343 -16.5306C453.469 -13.4044 457.106 -13.5721 460.535 -17.0005C463.589 -20.0547 463.58 -21.2653 460.419 -31.4702C457.276 -41.6202 456.097 -50.0229 456.097 -62.2727C456.097 -78.9773 458.813 -91.2069 466.398 -108.662C468.227 -112.872 468.498 -114.432 468.521 -120.909C468.545 -127.685 468.371 -128.632 466.517 -131.785C463.193 -137.44 455.876 -139.887 449.977 -137.316ZM517.499 -137.357C512.168 -134.917 509.368 -129.067 509.446 -120.538C509.499 -114.855 510.075 -112.815 514.827 -101.476C517.56 -94.9552 520.539 -83.1018 521.695 -74.1483C523.448 -60.5752 521.42 -41.3404 516.807 -27.7925C515.229 -23.158 515.054 -21.8643 515.727 -19.8254C516.829 -16.4861 519.696 -14.399 523.181 -14.399C524.746 -14.399 529.628 -13.8616 534.029 -13.204C545.71 -11.4597 556.252 -12.012 562.075 -14.6728C567.119 -16.9775 570.86 -20.244 572.813 -24.0479C575.023 -28.3506 577.804 -38.056 579.164 -46.2034C581.013 -57.2871 580.38 -74.9759 577.761 -85.3797C575.4 -94.7607 571.221 -104.548 566.521 -111.701C562.019 -118.556 553.092 -127.518 547.219 -131.082C537.919 -136.725 523 -139.876 517.499 -137.357ZM77.7508 -109.042C70.3223 -106.655 65.9207 -100.266 62.5687 -87.0007C55.8097 -60.256 60.1163 -31.9133 74.0506 -11.4301C77.3863 -6.52764 78.9384 -5.1085 81.6758 -4.45757C85.2208 -3.61439 88.1898 -5.70599 92.3687 -11.9912C101.577 -25.8411 105.734 -39.6006 106.437 -58.5615C106.987 -73.4113 104.829 -86.6764 100.049 -97.8291C96.0725 -107.104 86.5784 -111.879 77.7508 -109.042ZM145.162 -109.01C140.411 -107.499 135.461 -102.432 133.395 -96.9637C123.722 -71.365 125.377 -40.4497 137.619 -18.1101C143.891 -6.66347 148.056 -3.08889 153.158 -4.77227C157.717 -6.27751 165.557 -19.1997 169.734 -32.0981C173.268 -43.0089 173.879 -47.702 173.806 -63.386C173.735 -78.7724 172.788 -84.4237 168.291 -96.3268C164.361 -106.731 154.68 -112.038 145.162 -109.01ZM214.196 -109.42C210.26 -108.231 206.21 -105.411 203.978 -102.304C201.175 -98.3999 197.819 -88.3256 196.226 -79.0277C194.708 -70.1692 194.663 -53.7912 196.134 -45.3573C199.186 -27.8519 209.142 -7.47472 215.896 -4.90364C220.489 -3.1557 223.161 -4.89251 228.448 -13.0637C233.316 -20.5869 236.456 -27.9765 239.423 -38.8925C241.212 -45.4738 241.34 -47.031 241.34 -62.2727C241.34 -77.6583 241.225 -79.0307 239.345 -86.024C236.503 -96.597 232.883 -103.626 228.85 -106.4C224.207 -109.595 218.602 -110.75 214.196 -109.42ZM281.866 -109.494C276.726 -107.817 272.045 -103.897 269.791 -99.3841C265.56 -90.913 262.579 -75.393 262.575 -61.8132C262.569 -42.7387 267.419 -25.9109 277.133 -11.2994C283.176 -2.20862 288.129 -1.89316 294.256 -10.2076C305.589 -25.5858 311.508 -49.3668 309.36 -70.8914C308.386 -80.6517 307.795 -83.4677 304.736 -92.9297C302.124 -101.014 299.144 -105.3 294.461 -107.709C290.79 -109.598 284.789 -110.448 281.866 -109.494ZM349.787 -109.452C341.537 -107.444 337.204 -101.672 333.452 -87.6947C329.642 -73.5004 329.166 -54.7249 332.267 -41.0464C335.146 -28.3521 342.311 -12.9561 348.092 -7.04348C350.434 -4.64757 353.767 -3.7235 356.422 -4.73293C360.517 -6.28939 368.826 -20.0458 372.684 -31.6543C378.421 -48.92 378.962 -68.3456 374.226 -87.0839C370.836 -100.5 366.421 -106.764 358.744 -109.055C354.807 -110.229 353.26 -110.298 349.787 -109.452ZM416.219 -109.006C411.928 -107.673 407.688 -104.145 405.703 -100.254C397.558 -84.2886 395.493 -58.3656 400.725 -37.7791C403.529 -26.7511 409.7 -14.0419 415.333 -7.69442C417.716 -5.00978 418.546 -4.55702 421.211 -4.48725C425.054 -4.38631 427.508 -6.51873 432.192 -14.0279C446.761 -37.3887 449.339 -73.5842 438.165 -97.8996C435.317 -104.098 431.827 -107.415 426.486 -109.001C421.887 -110.367 420.603 -110.368 416.219 -109.006ZM483.519 -108.978C475.701 -106.497 470.872 -98.4066 467.349 -81.8846C465.065 -71.1668 465.025 -52.8813 467.266 -42.6036C469.878 -30.6226 474.248 -19.979 480.064 -11.4301C484.719 -4.58745 487.773 -2.99463 492.142 -5.13076C498.478 -8.22882 507.408 -26.0401 511.013 -42.7684C512.9 -51.5245 512.864 -73.1315 510.947 -81.9417C507.809 -96.3654 503.361 -104.738 497.152 -107.906C493.2 -109.921 487.825 -110.345 483.519 -108.978ZM-17.8078 4.89896C-17.8078 41.4299 -17.5628 62.4855 -17.1783 59.0816C-16.1741 50.1897 -14.383 43.0769 -10.4958 32.5425C-2.60194 11.1545 -2.70437 -1.97778 -10.9367 -24.419C-14.1202 -33.0957 -16.2906 -41.7901 -17.1761 -49.4128C-17.5628 -52.7454 -17.8078 -31.7189 -17.8078 4.89896ZM589.883 -53.9226C589.559 -46.0461 586.253 -32.0707 582.451 -22.5034C578.538 -12.6547 577.116 -5.33636 577.125 4.89896C577.135 14.8819 578.384 21.3423 582.182 31.0402C585.412 39.2886 588.015 49.2033 589.176 57.6855C589.644 61.1057 590.167 64.0434 590.338 64.2141C590.509 64.3848 590.648 37.7485 590.648 5.02292C590.648 -27.7034 590.481 -54.4793 590.277 -54.4793C590.073 -54.4793 589.896 -54.2284 589.883 -53.9226ZM43.9782 -3.70866C40.7256 -2.27319 39.083 -0.0799011 38.6073 3.46275C38.0929 7.29784 39.7281 10.7217 42.9955 12.6515C47.4542 15.285 59.9545 13.8517 67.9753 9.78727C72.4696 7.51012 73.5912 6.17262 72.9966 3.8012C71.7044 -1.3454 50.8507 -6.74214 43.9782 -3.70866ZM106.225 -3.32938C91.6183 0.637832 88.8549 5.61818 98.787 10.0723C110.803 15.4624 123.998 15.3176 135.937 9.66481C141.609 6.97943 142.529 3.55627 138.321 0.798893C131.068 -3.95285 115.766 -5.92124 106.225 -3.32938ZM174.924 -3.67006C169.659 -2.32811 163.031 0.594782 161.758 2.13639C161.218 2.79029 160.884 4.26362 161.015 5.4111C161.21 7.10858 162.014 7.87233 165.337 9.51785C175.278 14.4411 187.434 15.351 197.742 11.9442C206.482 9.05544 208.535 7.65412 208.248 4.76982C207.952 1.79719 205.793 0.2014 198.763 -2.2435C191.903 -4.62902 181.202 -5.26956 174.924 -3.67006ZM242.469 -3.62033C237.3 -2.36522 230.601 0.563608 229.303 2.13639C228.763 2.79029 228.429 4.26362 228.56 5.4111C229.035 9.55051 241.24 13.8695 252.552 13.9014C262.62 13.9304 275.113 9.59726 276.126 5.7258C277.879 -0.981711 256.291 -6.97594 242.469 -3.62033ZM311.561 -3.93503C307.423 -3.12749 300.731 -0.508912 298.015 1.36521C295.533 3.07753 295.342 5.73768 297.555 7.79885C299.829 9.91791 308.847 12.9974 314.901 13.7226C320.814 14.4307 328.143 13.7129 333.506 11.9011C345.07 7.9948 347.21 3.84648 339.64 0.0106498C331.612 -4.0575 320.317 -5.64438 311.561 -3.93503ZM379.477 -3.99144C375.582 -3.20988 368.958 -0.684815 365.931 1.17075C355.612 7.49899 380.391 16.9661 397.036 13.0553C401.987 11.8922 409.578 8.5203 410.92 6.88962C412.731 4.68669 411.349 2.1208 407.228 0.0321683C399.286 -3.99293 387.788 -5.65923 379.477 -3.99144ZM444.693 -3.32938C441.779 -2.53816 437.712 -1.03737 435.655 0.00471524C429.619 3.06269 429.794 6.44725 436.153 9.67C447.415 15.3762 462.954 15.3614 474.313 9.63215C478.617 7.46113 479.282 6.76269 479.299 4.39276C479.314 2.25291 476.5 0.349844 469.661 -2.12549C462.045 -4.88286 452.164 -5.35863 444.693 -3.32938ZM512.238 -3.27965C497.694 0.533179 494.863 5.61596 504.8 10.0723C516.855 15.4802 528.785 15.3161 532.47 9.69226C534.225 7.01356 534.152 2.43031 532.315 -0.0747105C528.821 -4.83833 522.21 -5.89377 512.238 -3.27965ZM79.478 14.7595C75.6962 16.8733 68.7992 28.1322 65.1347 38.1723C61.2801 48.7349 59.7207 58.0692 59.6583 70.9573C59.596 83.7956 60.4822 90.1238 63.8186 100.646C67.1506 111.159 73.8391 123.57 78.3557 127.624C80.1579 129.242 84.3746 129.529 86.8538 128.202C88.6611 127.235 95.0571 118.165 97.6498 112.893C100.045 108.022 103.464 97.7316 104.925 90.9974C105.958 86.239 106.298 81.4954 106.31 71.6995C106.329 57.6313 105.616 52.4795 102.189 41.8961C98.7706 31.3401 91.2316 17.7603 87.2368 14.9621C85.2809 13.5927 81.7322 13.4999 79.478 14.7595ZM146.984 14.7758C144.979 15.8906 142.401 19.2685 138.663 25.6813C132.752 35.8231 128.746 49.2441 127.439 63.2886C125.539 83.6983 130.979 106.434 141.438 121.8C147.918 131.319 153.003 131.787 158.946 123.411C163.27 117.315 167.193 109.348 169.734 101.503C173.231 90.7057 173.876 85.8523 173.84 70.5861C173.813 58.7365 173.555 55.4759 172.226 50.1749C168.671 35.9983 162.685 23.2609 156.545 16.8065C153.464 13.5682 150.349 12.9061 146.984 14.7758ZM214.035 15.3592C212.949 16.2135 210.779 18.8016 209.212 21.1114C199.701 35.1321 195.027 51.813 195.027 71.7329C195.027 87.4815 197.87 100.4 204.084 112.893C208.708 122.19 213.101 127.905 216.298 128.789C220.939 130.07 223.331 128.446 228.448 120.537C233.316 113.014 236.456 105.624 239.423 94.7085C241.212 88.1272 241.34 86.57 241.34 71.3284C241.34 55.9783 241.222 54.5629 239.368 47.7159C235.928 35.0037 230.133 23.2053 224.287 17.0129C221.827 14.4069 220.768 13.8057 218.635 13.8057C217.096 13.8057 215.194 14.4477 214.035 15.3592ZM280.074 16.995C275.715 21.5857 270.872 30.583 267.648 40.0754C259.428 64.2824 261.122 92.2102 272.103 113.507C277.218 123.426 280.675 127.914 283.882 128.799C289.191 130.265 293.114 126.751 299.583 114.73C310.536 94.3805 312.827 64.4828 305.186 41.6274C301.356 30.1703 293.384 16.3775 289.594 14.6511C285.865 12.9521 283.315 13.5801 280.074 16.995ZM349.579 14.9621C345.038 18.1433 336.538 34.3595 333.54 45.5612C329.64 60.1311 329.136 78.7477 332.267 92.5546C335.147 105.256 342.311 120.645 348.099 126.565C353.929 132.528 359.739 128.876 367.281 114.511C379.774 90.7154 380.803 58.968 369.898 33.805C366.464 25.8803 359.571 15.446 357.167 14.5316C354.388 13.4754 351.466 13.6409 349.579 14.9621ZM417.999 14.5301C414.514 15.9389 406.767 29.0169 402.958 39.9217C396.816 57.5073 396.118 78.3751 401.046 97.0466C403.317 105.649 410.589 120.537 414.908 125.426C417.802 128.703 418.419 129.054 421.287 129.054C425.208 129.054 427.548 127.018 432.192 119.573C446.657 96.3793 449.22 62.3251 438.485 35.9493C435.667 29.0229 430.571 20.2616 427.304 16.7226C424.502 13.6869 421.711 13.0301 417.999 14.5301ZM485.394 14.7298C484.452 15.1825 481.849 18.3103 479.606 21.6793C462.261 47.7485 460.656 85.7565 475.677 114.749C481.945 126.847 486.909 131.025 492.037 128.52C496.495 126.343 503.655 114.723 507.486 103.446C511.419 91.8718 512.32 85.8924 512.32 71.3284C512.32 57.1147 511.436 50.9594 507.905 40.5786C504.638 30.9749 496.967 17.5658 493.25 14.9621C491.354 13.6342 487.882 13.5318 485.394 14.7298ZM17.2778 21.9724C7.37321 23.7545 1.08929 28.5627 -1.95989 36.693C-9.2466 56.1246 -10.2783 76.7162 -4.97344 96.8462C-0.187392 115.008 5.92433 120.442 22.4528 121.237C27.256 121.467 32.6989 121.171 37.8769 120.398C42.2777 119.74 47.2382 119.202 48.8993 119.202C51.3636 119.202 52.4006 118.722 54.5241 116.598C57.5652 113.557 57.5622 112.895 54.4514 102.502C51.204 91.6506 50.0617 83.5402 50.0617 71.3284C50.0617 58.7194 51.308 50.2461 54.7372 39.541C57.3106 31.5086 57.3714 30.8413 55.8053 27.813C54.3564 25.0119 50.7847 23.4643 45.672 23.422C43.5158 23.4042 40.2484 23.0902 38.4113 22.7236C33.1161 21.6659 21.3127 21.2473 17.2778 21.9724ZM538.319 22.0058C535.87 22.3807 530.762 22.9781 526.967 23.3344C520.934 23.9007 519.803 24.2362 517.955 26.0072C515.118 28.7252 514.653 31.5791 516.346 35.9003C517.103 37.8316 518.407 42.2516 519.244 45.7215C523.932 65.153 523.174 85.8419 517.078 104.881C515.036 111.257 514.962 111.884 515.969 114.294C517.242 117.341 520.409 119.197 524.365 119.215C525.916 119.223 530.359 119.718 534.237 120.315C551.626 122.996 563.4 120.733 569.982 113.448C572.968 110.143 576.367 101.484 578.503 91.7396C579.592 86.7682 579.883 82.3616 579.872 70.9573C579.86 57.632 579.696 55.8381 577.808 48.349C575.132 37.7366 571.531 30.2483 567.609 27.1428C561.901 22.6226 549.04 20.3663 538.319 22.0058ZM114.492 24.1627C112.548 24.9666 109.968 27.8531 109.34 29.9254C109.032 30.9408 109.69 34.2222 111.056 38.4877C114.933 50.5905 115.926 57.3633 115.926 71.6995C115.926 86.0193 114.932 92.8107 111.074 104.853C109.023 111.257 108.949 111.884 109.956 114.294C112.131 119.5 118.004 120.664 121.989 116.678C125.118 113.549 125.158 112.099 122.356 103.321C118.653 91.7218 117.603 83.1068 118.02 67.7568C118.396 53.9253 118.824 51.4701 123.896 34.0529C125.111 29.8794 123.443 26.0888 119.704 24.5272C116.82 23.3218 116.568 23.304 114.492 24.1627ZM181.065 24.9584C179.713 25.7823 178.136 27.5859 177.559 28.9664C176.599 31.2636 176.668 31.9383 178.367 36.9291C185.26 57.1756 185.628 83.066 179.302 102.814C176.765 110.733 176.578 112.547 178.022 115.244C180.405 119.698 185.838 120.375 189.534 116.678C192.516 113.697 192.709 111.677 190.599 105.544C186.831 94.595 185.749 86.9463 185.754 71.3284C185.76 55.4447 186.544 49.7978 190.258 38.8774C193.161 30.3433 192.369 26.6655 187.16 24.4893C184.008 23.1726 183.991 23.1741 181.065 24.9584ZM249.492 24.5391C244.404 26.7145 243.677 30.4301 246.645 39.0971C252.811 57.0976 253.06 82.4581 247.259 101.782C244.127 112.218 244.123 113.52 247.204 116.601C251.899 121.296 257.652 119.391 259.853 112.414C260.065 111.743 259.288 108.236 258.125 104.621C254.098 92.0974 253.31 86.6524 253.307 71.3284C253.304 56.1661 254.407 48.8159 258.487 36.8214C260.11 32.0519 260.199 31.2243 259.314 29.1357C257.409 24.6341 253.524 22.8163 249.492 24.5391ZM317.037 24.5391C312.445 26.5022 311.32 30.1607 313.461 36.1646C317.016 46.1342 318.37 54.1532 318.772 67.6298C319.233 83.037 318.205 91.6558 314.542 103.089C311.653 112.107 311.683 113.535 314.827 116.678C317.759 119.61 320.384 119.926 323.917 117.773C327.49 115.594 328.371 112.043 326.552 107.147C318.911 86.5685 318.705 59.0712 326.032 37.5585C328.192 31.2154 328.002 28.9776 325.07 26.2521C322.483 23.8466 319.931 23.3025 317.037 24.5391ZM384.494 24.5584C383.018 25.1996 381.598 26.6321 380.82 28.2621C379.723 30.5637 379.679 31.3394 380.495 34.0529C388.745 61.4797 389.156 80.5313 382.001 103.871C379.435 112.243 379.591 114.519 382.928 117.326C385.872 119.803 389.411 119.803 392.355 117.326C395.714 114.5 395.872 112.183 393.263 104.038C387.251 85.2711 386.59 64.6632 391.385 45.5211C392.384 41.5331 393.704 37.0664 394.318 35.596C394.933 34.1257 395.435 32.2634 395.435 31.4574C395.435 29.0889 393.084 25.7912 390.531 24.5799C387.688 23.2305 387.55 23.2305 384.494 24.5584ZM452.085 24.6519C450.75 25.311 449.179 26.9669 448.466 28.4684C447.235 31.064 447.258 31.2815 449.543 38.5145C453.244 50.2283 454.357 57.8948 454.362 71.6995C454.367 85.2726 453.31 92.3498 449.506 104.225C446.999 112.051 447.116 113.843 450.343 117.07C453.469 120.197 457.106 120.029 460.535 116.601C463.589 113.546 463.58 112.336 460.419 102.131C457.276 91.9809 456.097 83.5781 456.097 71.3284C456.097 58.6986 457.345 50.1704 460.75 39.541C461.977 35.7118 462.981 32.0126 462.981 31.3201C462.981 28.8588 460.625 25.5522 458.131 24.5094C455.034 23.2157 454.996 23.2164 452.085 24.6519ZM-17.8026 138.129C-17.8026 175.113 -17.5613 195.954 -17.1746 192.283C-16.3618 184.555 -13.6638 174.034 -10.2791 165.391C-6.75188 156.384 -5.46185 150.817 -4.89551 142.155C-4.16736 131.016 -5.51974 123.851 -11.3294 108.069C-14.2293 100.19 -16.4131 91.1273 -17.1984 83.7117C-17.5509 80.3828 -17.8026 103.038 -17.8026 138.129ZM589.906 79.2123C589.906 79.6703 589.402 83.4393 588.786 87.5884C587.481 96.3763 585.921 102.094 582.238 111.588C578.477 121.283 577.116 128.445 577.125 138.5C577.135 148.483 578.384 154.943 582.182 164.641C585.412 172.89 588.015 182.804 589.176 191.286C589.644 194.707 590.167 197.644 590.338 197.815C590.509 197.986 590.648 171.183 590.648 138.253C590.648 105.322 590.481 78.3795 590.277 78.3795C590.073 78.3795 589.906 78.7544 589.906 79.2123ZM43.9782 129.84C40.5 131.457 38.971 133.676 38.588 137.667C38.2658 141.014 38.4454 141.528 40.8489 144.151C43.3703 146.901 43.6538 147.009 49.096 147.284C55.7704 147.621 63.0549 146.044 68.4095 143.102C72.9877 140.587 73.8792 139.254 72.7049 136.678C70.4782 131.79 50.1775 126.958 43.9782 129.84ZM109.668 129.364C106.506 129.893 100.549 131.945 96.9595 133.742C91.1247 136.663 91.5433 140.393 98.041 143.359C104.065 146.111 110.191 147.408 117.061 147.389C124.749 147.367 128.526 146.561 135.105 143.542C138.894 141.803 140.245 140.779 140.596 139.382C141.265 136.713 140.205 135.429 135.38 133.071C128.333 129.627 117.461 128.059 109.668 129.364ZM174.691 129.988C167.687 131.756 161.665 134.744 161.176 136.693C160.389 139.827 161.192 141.067 165.337 143.119C177.051 148.919 192.163 148.905 203.926 143.082C207.697 141.215 208.016 140.859 208.016 138.509C208.016 136.438 207.543 135.642 205.483 134.254C198.867 129.796 183.748 127.701 174.691 129.988ZM242.469 129.981C237.3 131.236 230.601 134.165 229.303 135.737C228.763 136.391 228.429 137.865 228.56 139.012C228.757 140.726 229.551 141.462 233.011 143.14C240.011 146.534 245.533 147.6 254.357 147.258C261.181 146.995 263.019 146.623 268.495 144.398C278.147 140.477 278.918 136.664 270.798 133.021C261.864 129.011 251.183 127.865 242.469 129.981ZM309.705 130.06C304.485 131.323 297.465 134.653 296.46 136.344C295.007 138.784 296.515 141.2 300.739 143.201C310.26 147.708 322.634 148.749 332.08 145.838C344.964 141.868 347.582 137.636 339.64 133.612C330.961 129.214 319.044 127.8 309.705 130.06ZM378.298 129.691C376.426 130.109 372.417 131.678 369.391 133.177C361.619 137.027 361.447 139.642 368.721 143.327C374.023 146.014 380.535 147.407 387.749 147.398C394.716 147.389 399.329 146.442 405.589 143.736C415.214 139.575 413.649 135.503 400.667 130.928C395.811 129.216 383.467 128.533 378.298 129.691ZM448.135 129.315C444.711 129.978 438.886 132.011 435.386 133.763C429.262 136.829 429.932 140.384 437.255 143.683C448.697 148.838 463.515 148.695 474.108 143.327C478.269 141.219 479.502 139.849 479.182 137.687C478.587 133.677 467.876 129.563 457.077 129.195C453.18 129.063 449.156 129.117 448.135 129.315ZM515.681 129.327C512.339 129.952 506.468 131.992 502.972 133.742C497.138 136.663 497.556 140.393 504.054 143.359C509.804 145.985 516.118 147.407 522.036 147.407C528.721 147.407 531.88 145.594 533.376 140.902C534.263 138.118 534.223 137.485 533.005 135.034C530.863 130.726 528.319 129.291 522.523 129.124C519.78 129.045 516.701 129.136 515.681 129.327ZM79.1128 148.54C77.0248 149.674 71.7608 157.134 68.6522 163.365C62.5665 175.565 59.7125 188.773 59.6724 204.929C59.6227 225.08 64.2343 241.313 74.1701 255.959C77.6506 261.091 79.7689 262.601 83.4847 262.601C85.8562 262.601 86.7365 262.097 89.2542 259.301C95.147 252.756 100.704 241.253 103.777 229.238C108.343 211.385 107.349 188.661 101.299 172.633C97.5719 162.756 90.6949 150.985 87.2368 148.563C85.1918 147.131 81.7263 147.121 79.1128 148.54ZM147.007 148.294C143.543 149.967 135.29 164.065 131.981 173.96C124.639 195.907 125.66 222.027 134.67 242.783C137.948 250.337 143.904 259.766 146.451 261.434C148.62 262.856 152.234 262.963 154.637 261.676C158.468 259.626 166.198 246.021 169.732 235.112C173.222 224.333 173.874 219.446 173.856 204.187C173.839 191.172 173.677 189.463 171.754 182.021C168.227 168.38 161.091 153.923 155.606 149.308C153.2 147.283 149.904 146.895 147.007 148.294ZM212.137 151.008C205.401 158.188 198.566 174.134 196.204 188.174C194.71 197.054 194.676 213.485 196.134 221.845C198.369 234.664 203.517 247.417 210.331 257.022C213.614 261.648 215.253 262.715 218.915 262.611C222.23 262.517 223.695 261.247 228.071 254.671C232.854 247.481 236.564 238.892 239.386 228.474C241.219 221.707 241.34 220.245 241.34 204.929C241.34 189.579 241.222 188.164 239.368 181.317C235.928 168.605 230.133 156.806 224.287 150.614C221.732 147.906 220.813 147.407 218.387 147.407C215.911 147.407 215.048 147.903 212.137 151.008ZM280.074 150.596C273.168 157.871 266.023 174.71 263.635 189.343C262.18 198.255 262.586 217.562 264.397 225.581C266.946 236.866 271.118 246.833 276.798 255.206C280.393 260.507 282.183 262.197 284.713 262.681C289.402 263.577 293.512 259.611 299.583 248.331C310.495 228.057 312.803 198.425 305.268 175.358C301.595 164.115 293.434 150.002 289.594 148.252C285.865 146.553 283.315 147.181 280.074 150.596ZM347.992 150.222C342.438 156.06 336.062 169.075 333.188 180.436C329.624 194.524 329.249 212.944 332.257 226.083C335.267 239.228 342.038 253.761 348.045 259.968C354 266.121 359.654 262.639 367.273 248.127C382.145 219.799 380.576 181.608 363.47 155.556C358.757 148.38 357.558 147.407 353.432 147.407C351.201 147.407 350.156 147.948 347.992 150.222ZM417.536 148.198C416.832 148.608 414.784 151.02 412.985 153.557C393.039 181.679 392.748 226.743 412.325 255.492C416.267 261.28 417.838 262.582 420.993 262.671C424.541 262.772 426.989 260.843 431.222 254.613C447.882 230.095 449.662 191.184 435.424 162.775C432.542 157.026 427.007 149.156 425.144 148.159C423.36 147.204 419.205 147.226 417.536 148.198ZM485.393 148.331C482.991 149.487 475.585 160.834 472.684 167.803C460.896 196.119 463.713 231.011 479.734 255.108C483.596 260.918 485.555 262.518 488.925 262.614C492.519 262.716 494.326 261.305 498.482 255.149C516.613 228.295 517.547 186.756 500.66 158.332C496.11 150.673 492.785 147.394 489.631 147.457C488.241 147.485 486.334 147.878 485.393 148.331ZM15.6902 155.884C6.35855 158.016 0.992793 162.417 -1.99626 170.391C-9.24437 189.725 -10.2672 210.36 -4.97344 230.447C-0.149536 248.752 5.85827 254.018 22.824 254.812C28.0747 255.057 32.9765 254.789 37.8464 253.99C41.8227 253.337 46.5568 252.803 48.3671 252.803C50.804 252.803 52.2365 252.316 53.8873 250.928C56.9832 248.322 57.4019 245.588 55.5588 239.997C52.9172 231.981 51.1024 223.052 50.2569 213.907C48.909 199.325 50.5434 186.861 56.3204 167.654C58.2258 161.321 53.9897 157.092 45.672 157.023C43.5158 157.005 40.2484 156.689 38.4113 156.319C31.9344 155.017 20.4502 154.797 15.6902 155.884ZM538.319 155.606C535.87 155.981 530.762 156.579 526.967 156.935C520.928 157.503 519.805 157.836 517.948 159.615C514.953 162.484 514.739 164.745 516.869 170.999C520.799 182.541 521.89 189.789 521.923 204.558C521.956 219.685 521.037 226.124 517.087 238.454C515.036 244.858 514.962 245.485 515.969 247.895C517.242 250.942 520.409 252.798 524.365 252.816C525.916 252.824 530.359 253.319 534.237 253.916C551.811 256.625 563.724 254.273 570.089 246.836C575.69 240.292 579.44 225.851 580.034 208.529C580.503 194.869 579.33 185.498 575.854 175.151C572.084 163.925 568.641 159.823 560.618 157.004C555.687 155.271 544.916 154.596 538.319 155.606ZM114.492 157.764C112.548 158.568 109.968 161.454 109.34 163.526C109.032 164.542 109.69 167.823 111.056 172.089C114.869 183.993 115.912 190.996 115.941 204.929C115.972 219.058 115.203 224.529 111.433 237.041C109.084 244.838 108.986 245.572 109.975 247.939C112.131 253.1 118.021 254.247 121.989 250.28C125.117 247.152 125.157 245.704 122.362 236.922C119.105 226.692 117.832 217.692 117.832 204.896C117.832 192.183 118.982 184.053 122.305 173.269C123.519 169.327 124.513 165.309 124.513 164.341C124.513 161.855 122.512 159.301 119.615 158.09C116.824 156.924 116.562 156.908 114.492 157.764ZM182.037 157.749C180.088 158.558 178.242 160.66 177.297 163.144C176.69 164.739 176.912 166.256 178.38 170.566C182.31 182.106 183.443 189.73 183.484 204.929C183.525 220.055 182.795 225.285 178.935 237.495C176.767 244.353 176.617 246.221 178.022 248.845C180.405 253.299 185.838 253.976 189.534 250.28C192.516 247.298 192.709 245.278 190.599 239.145C186.831 228.196 185.749 220.547 185.754 204.929C185.76 189.046 186.544 183.399 190.258 172.478C191.248 169.568 192.058 166.082 192.058 164.731C192.058 160.134 186.173 156.034 182.037 157.749ZM248.702 158.472C244.342 161.188 243.824 163.983 246.314 171.367C249.657 181.281 250.781 188.255 251.188 201.589C251.63 216.119 250.74 223.786 247.264 235.37C244.127 245.821 244.122 247.12 247.204 250.202C251.915 254.913 257.635 253.001 259.872 245.966C260.094 245.268 259.465 242.31 258.472 239.393C254.41 227.449 253.304 220.077 253.304 204.929C253.304 189.769 254.409 182.412 258.487 170.422C260.11 165.653 260.199 164.825 259.314 162.737C257.209 157.764 252.728 155.963 248.702 158.472ZM316.024 158.695C312.638 160.98 311.735 163.584 312.918 167.649C317.986 185.055 318.42 187.537 318.794 201.272C319.214 216.718 318.179 225.333 314.542 236.69C311.653 245.708 311.683 247.136 314.827 250.28C317.759 253.211 320.384 253.528 323.917 251.374C327.49 249.195 328.371 245.644 326.552 240.748C318.911 220.17 318.705 192.672 326.032 171.16C328.195 164.808 328.004 162.607 325.044 159.771C322.067 156.919 319.168 156.573 316.024 158.695ZM384.535 158.125C381.73 159.365 379.557 163.15 380.085 165.875C380.292 166.944 381.336 170.657 382.404 174.127C385.624 184.592 386.76 192.718 386.76 205.301C386.76 218.183 385.497 226.634 381.934 237.587C380.471 242.085 379.905 245.041 380.201 246.635C380.739 249.531 384.424 252.804 387.142 252.8C390.013 252.796 393.546 250.377 394.681 247.639C395.568 245.495 395.436 244.552 393.306 237.809C389.681 226.336 388.49 218.34 388.463 205.301C388.434 191.883 389.263 186.007 392.937 173.578C395.293 165.606 395.51 164.225 394.712 162.295C393.048 158.28 388.449 156.395 384.535 158.125ZM452.085 158.253C450.75 158.912 449.179 160.568 448.466 162.069C447.235 164.665 447.258 164.882 449.543 172.116C453.244 183.829 454.357 191.496 454.362 205.301C454.367 218.874 453.31 225.951 449.506 237.826C448.203 241.892 447.454 245.523 447.709 246.539C448.507 249.719 451.257 252.123 454.611 252.573C457.476 252.957 457.973 252.763 460.44 250.297C463.601 247.135 463.6 246.001 460.419 235.732C457.276 225.582 456.097 217.179 456.097 204.929C456.097 192.3 457.345 183.771 460.75 173.142C461.977 169.313 462.981 165.614 462.981 164.921C462.981 162.46 460.625 159.153 458.131 158.11C455.034 156.817 454.996 156.817 452.085 158.253ZM-17.8055 271.359C-17.8055 309.457 -17.5695 329.049 -17.1546 325.426C-16.2839 317.83 -13.5687 307.393 -10.2791 298.992C-6.63238 289.68 -5.42102 284.289 -4.90367 275.07C-4.33214 264.895 -5.80031 256.496 -10.2093 244.711C-14.0512 234.44 -16.1689 226.137 -17.1368 217.547C-17.5777 213.634 -17.8055 231.987 -17.8055 271.359ZM589.562 215.877C588.403 225.209 586.666 232.695 583.862 240.43C579.406 252.727 578.186 257.326 577.319 265.106C575.999 276.941 577.297 284.491 583.881 303.275C585.527 307.969 587.381 314.649 588.001 318.119C588.621 321.589 589.431 326.098 589.801 328.139C590.23 330.511 590.504 310.21 590.561 271.915C590.609 238.951 590.512 211.981 590.347 211.981C590.181 211.981 589.827 213.734 589.562 215.877ZM43.9782 263.443C40.5007 265.056 38.971 267.277 38.588 271.268C38.2666 274.613 38.4462 275.13 40.8392 277.741C43.3198 280.448 43.6887 280.593 48.8414 280.884C51.8127 281.052 56.1089 280.775 58.3891 280.27C63.3414 279.171 71.0512 275.796 72.4266 274.123C73.8272 272.419 73.2356 269.883 71.0616 268.266C65.3789 264.04 48.984 261.121 43.9782 263.443ZM106.748 263.634C92.3212 267.512 88.8808 272.778 98.041 276.96C106.841 280.98 118.849 282.186 127.482 279.917C134.221 278.147 140.08 275.037 140.603 272.952C141.257 270.346 140.199 269.033 135.608 266.754C127.339 262.65 115.266 261.344 106.748 263.634ZM177.213 262.92C173.778 263.579 167.96 265.613 164.366 267.413C160.969 269.114 160.809 269.333 161.026 271.95C161.237 274.483 161.583 274.858 165.436 276.727C171.558 279.695 177.442 281.008 184.635 281.008C192.05 281.008 197.704 279.699 203.984 276.529C208.195 274.403 208.462 274.114 208.246 271.906C207.959 268.964 204.903 266.77 198.06 264.592C193.278 263.07 181.398 262.117 177.213 262.92ZM242.16 263.661C236.94 264.924 229.92 268.254 228.914 269.945C227.47 272.372 228.985 274.875 233.068 276.805C240.064 280.112 245.811 281.198 254.407 280.838C261.106 280.557 263.086 280.155 268.495 277.976C278.148 274.089 278.923 270.268 270.798 266.622C261.747 262.56 251.211 261.471 242.16 263.661ZM309.705 263.611C304.419 264.95 297.449 268.282 296.46 269.945C294.894 272.575 296.483 274.745 301.711 277.113C313.465 282.438 326.901 282.383 338.775 276.96C345.174 274.039 345.775 270.335 340.305 267.544C331.233 262.916 318.777 261.315 309.705 263.611ZM377.779 263.529C369.67 265.491 363.519 269.002 363.519 271.665C363.519 273.848 365.209 275.33 370.224 277.541C379.379 281.578 390.884 282.196 400.407 279.164C413.335 275.048 415.208 270.896 406.086 266.577C397.858 262.682 386.381 261.446 377.779 263.529ZM445.166 263.594C438.779 265.37 432.015 268.787 431.467 270.515C430.698 272.936 432.368 275.07 436.509 276.96C448.202 282.301 461.339 282.436 473.134 277.337C477.712 275.357 479.517 273.559 479.184 271.309C478.844 269.013 476.156 267.212 469.652 264.926C462.635 262.459 451.436 261.849 445.166 263.594ZM512.761 263.598C498.245 267.63 494.892 272.777 504.054 276.96C512.564 280.847 524.456 282.265 528.968 279.932C534.834 276.899 535.427 269.511 530.194 264.682C528.464 263.086 527.395 262.805 522.49 262.653C519.138 262.55 515.133 262.939 512.761 263.598ZM77.0567 283.925C73.3982 287.887 68.3256 296.934 65.4108 304.692C61.3573 315.483 59.7221 324.999 59.6583 338.159C59.5937 351.473 60.4971 357.557 64.2343 368.962C66.6251 376.258 67.3087 377.524 70.66 380.863C79.1106 389.281 91.2843 388.052 97.9646 378.105C100.758 373.945 104.066 363.251 105.613 353.375C107.23 343.054 106.745 326.875 104.528 317.163C101.735 304.924 94.8018 290.226 88.814 283.85C86.5212 281.408 85.6951 281.008 82.9473 281.008C80.1779 281.008 79.3889 281.398 77.0567 283.925ZM146.926 281.932C144.574 283.064 137.507 293.89 134.569 300.864C128.442 315.401 125.941 332.063 127.517 347.832C129.141 364.091 133.707 377.313 139.37 382.16C144.805 386.812 152.061 387.696 158.495 384.49C165.173 381.163 168.131 376.008 171.869 361.19C173.677 354.024 173.841 352.141 173.841 338.53C173.841 324.922 173.677 323.037 171.872 315.892C168.5 302.546 161.093 287.525 155.606 282.909C153.179 280.866 149.905 280.498 146.926 281.932ZM214.697 281.855C211.01 283.708 203.168 297.309 199.554 308.119C196.456 317.384 195.034 327.093 195.03 338.99C195.026 350.535 196.264 358.804 199.514 368.948C202.285 377.597 205.175 381.629 210.567 384.363C218.268 388.269 227.426 386.106 232.663 379.147C235.443 375.453 239.049 364.807 240.67 355.511C242.139 347.088 242.124 329.885 240.64 321.374C238.483 309.005 232.646 294.788 226.111 285.984C222.581 281.228 218.72 279.832 214.697 281.855ZM281.21 282.909C278.228 285.417 272.716 294.343 269.689 301.565C264.275 314.48 262.199 326.767 262.769 342.514C263.312 357.482 266.104 369.49 270.899 377.471C276.881 387.43 289.564 389.293 298.209 381.483C305.836 374.594 311.284 349.436 309.379 329.912C307.927 315.049 304.313 303.427 297.565 291.929C292.538 283.362 290.145 281.008 286.467 281.008C284.333 281.008 282.818 281.556 281.21 282.909ZM347.854 283.969C339.882 292.348 333.085 309.369 330.805 326.655C328.552 343.739 332.456 368.583 338.9 378.178C345.539 388.062 357.724 389.251 366.186 380.841C369.48 377.568 370.26 376.179 372.241 370.054C375.346 360.451 375.943 357.625 376.991 347.573C378.548 332.641 376.007 315.374 370.231 301.626C367.428 294.957 362.698 287.014 359.53 283.653C357.423 281.42 356.538 281.008 353.852 281.008C351.107 281.008 350.284 281.414 347.854 283.969ZM417.536 281.799C415.664 282.89 410.106 290.98 407.116 296.966C403.985 303.235 400.415 314.24 399.049 321.83C398.478 325.007 398.054 332.495 398.061 339.273C398.081 358.462 402.151 373.783 409.13 380.935C418.86 390.907 433.868 386.763 439.19 372.635C445.837 354.992 446.836 331.787 441.764 312.838C438.747 301.566 430.26 285.355 425.705 282.164C423.848 280.865 419.476 280.669 417.536 281.799ZM483.07 283.925C474.125 293.612 466.886 313.857 465.533 332.964C464.619 345.873 467.603 364.023 472.397 374.703C477.062 385.097 487.765 389.25 497.225 384.336C502.126 381.79 505.155 377.552 507.806 369.533C513.544 352.175 514.264 331.715 509.758 314.098C506.828 302.643 500.473 289.748 494.837 283.823C492.545 281.415 491.697 281.008 488.96 281.008C486.191 281.008 485.402 281.398 483.07 283.925ZM16.7226 289.195C11.8275 290.02 5.83155 292.918 2.84546 295.904C-1.49821 300.248 -5.1308 310.543 -7.22767 324.456C-13.9228 368.878 11.7213 412.352 45.8338 414.408C53.3031 414.859 56.5386 413.82 59.4119 410.049C64.3263 403.598 64.0554 394.635 58.5331 380.955C47.6524 354.004 47.037 332.044 56.3011 301.326C57.05 298.844 57.0382 297.816 56.2402 295.888C54.8077 292.429 52.4592 291.259 45.6156 290.591C42.2658 290.265 37.0196 289.655 33.9578 289.237C27.5633 288.362 21.747 288.348 16.7226 289.195ZM537.577 289.2C535.128 289.573 530.181 290.176 526.586 290.541C520.971 291.11 519.75 291.49 517.938 293.226C514.997 296.043 514.787 298.34 516.896 304.623C520.89 316.518 521.904 323.385 521.904 338.53C521.904 354.712 520.522 363.135 515.94 374.88C514.503 378.565 512.473 383.751 511.427 386.404C508.766 393.166 508.628 402.31 511.111 407.367C513.597 412.43 516.37 414.144 522.653 414.499C529.518 414.887 534.719 413.666 542.867 409.753C554.374 404.227 564.741 393.28 571.321 379.706C581.311 359.098 583.174 331.918 576.125 309.584C571.255 294.15 565.189 289.492 549.082 288.819C545.204 288.656 540.026 288.829 537.577 289.2ZM113.617 291.854C112.283 292.512 110.711 294.169 109.999 295.668C108.778 298.242 108.8 298.497 110.732 304.435C118.838 329.343 117.936 356.452 108.239 379.353C103.937 389.514 103.423 391.484 103.403 397.909C103.371 408.403 107.448 413.875 115.745 414.475C120.939 414.851 123.75 413.818 126.712 410.445C129.643 407.106 130.679 402.838 130.293 395.682C130.031 390.828 129.423 388.457 126.956 382.693C120.153 366.797 117.832 355.555 117.832 338.497C117.832 325.784 118.982 317.655 122.305 306.87C123.519 302.928 124.513 298.91 124.513 297.942C124.513 295.632 122.715 293.143 120.051 291.766C117.382 290.386 116.572 290.397 113.617 291.854ZM182.037 291.331C180.078 292.169 178.237 294.273 177.297 296.745C176.69 298.34 176.911 299.857 178.379 304.167C181.653 313.781 183.211 322.975 183.636 335.19C184.237 352.455 181.784 365.608 174.982 381.59C171.413 389.976 170.121 397.216 171.276 402.369C173.113 410.566 177.51 414.609 184.588 414.609C189.041 414.609 191.854 413.349 194.547 410.149C197.321 406.852 198.199 403.098 197.859 395.989C197.632 391.243 197.059 388.586 195.47 384.92C192.183 377.336 188.623 366.567 187.129 359.684C186.054 354.73 185.759 350.186 185.759 338.53C185.759 322.668 186.57 316.811 190.284 305.873C191.254 303.016 192.05 299.597 192.053 298.276C192.062 293.65 186.167 289.562 182.037 291.331ZM248.702 292.073C244.238 294.854 243.831 297.419 246.535 305.703C250.287 317.197 251.046 322.709 251.057 338.53C251.07 357.683 249.509 365.444 242.101 383.064C239.78 388.586 239.237 390.856 238.97 396.151C238.507 405.325 240.756 410.659 246.294 413.522C249.401 415.129 255.534 414.909 258.76 413.074C262.416 410.995 263.852 408.848 265.258 403.358C266.815 397.283 265.838 391.007 261.883 381.676C255.141 365.765 253.331 356.651 253.316 338.53C253.303 323.364 254.402 316.035 258.487 304.023C260.11 299.254 260.199 298.426 259.314 296.338C257.209 291.365 252.728 289.564 248.702 292.073ZM316.247 292.104C311.637 294.915 311.414 296.816 314.511 306.87C317.834 317.655 318.983 325.784 318.983 338.497C318.983 355.51 316.673 366.734 309.903 382.621C304.037 396.386 305.661 409.293 313.789 413.496C316.64 414.97 322.947 414.911 326.174 413.38C331.814 410.703 334.859 401.737 333.194 392.706C332.703 390.04 331.005 384.913 329.42 381.312C318.798 357.173 317.688 330.804 326.182 304.35C328.048 298.535 328.065 298.302 326.824 295.686C325.621 293.151 322.038 290.653 319.613 290.66C319.063 290.661 317.548 291.311 316.247 292.104ZM383.871 292.056C381.269 293.643 379.48 297.267 380.077 299.743C380.299 300.665 381.35 304.258 382.413 307.728C385.626 318.219 386.76 326.341 386.764 338.902C386.77 355.402 384.905 364.529 378.117 381.209C374.511 390.07 374.341 390.803 374.312 397.538C374.285 403.723 374.509 404.99 376.137 407.863C379.055 413.012 381.242 414.238 387.51 414.238C393.825 414.238 396.711 412.636 399.329 407.681C400.682 405.12 400.962 403.377 400.958 397.538C400.954 391.436 400.671 389.836 398.855 385.662C391.129 367.902 388.475 355.853 388.475 338.53C388.475 325.08 389.617 317.329 393.327 305.587C395.65 298.231 395.675 298.006 394.448 295.432C393.639 293.736 392.282 292.42 390.627 291.729C387.314 290.345 386.623 290.378 383.871 292.056ZM452.085 291.854C450.752 292.512 449.179 294.168 448.47 295.662C447.244 298.246 447.269 298.477 449.561 305.8C457.129 329.986 456.202 356.017 446.99 378.039C441.097 392.125 440.172 400.308 443.657 407.505C445.87 412.077 448.875 414.089 454.049 414.463C463.526 415.149 468.919 409.005 468.906 397.538C468.9 392.539 467.661 387.964 464.083 379.724C454.348 357.311 453.319 327.832 461.454 304.457C462.294 302.046 462.981 299.441 462.981 298.668C462.981 296.073 460.684 292.778 458.131 291.711C455.034 290.418 454.996 290.418 452.085 291.854ZM-17.9035 385.105L-18 425L13.3602 424.941L44.7205 424.883L37.8375 423.133C25.1947 419.917 16.1763 414.61 6.95606 404.96C-6.3815 391 -14.7601 372.19 -17.1783 350.777C-17.591 347.123 -17.8404 358.92 -17.9035 385.105ZM590.085 346.229C589.986 346.788 589.38 350.785 588.738 355.11C583.637 389.467 562.209 416.403 534.739 422.994L527.928 424.629L558.686 424.823C575.603 424.929 589.718 424.742 590.053 424.408C590.388 424.073 590.572 406.117 590.463 384.505C590.354 362.893 590.184 345.668 590.085 346.229ZM72.1838 421.009C67.4794 421.718 55.2078 424.285 54.8596 424.634C54.6585 424.835 67.4646 425 83.3177 425C99.1707 425 112.003 424.869 111.833 424.708C111.663 424.547 108.016 423.681 103.73 422.783C96.1809 421.201 77.7797 420.167 72.1838 421.009ZM139.729 421.057C135.825 421.562 122.785 424.254 122.405 424.634C122.204 424.835 135.037 424.963 150.924 424.918C177.19 424.843 179.44 424.742 175.728 423.801C165.072 421.097 148.931 419.867 139.729 421.057ZM207.274 421.013C202.938 421.672 190.234 424.35 189.911 424.673C189.731 424.852 202.555 425 218.408 425C234.261 425 247.073 424.84 246.878 424.646C246.683 424.451 243.037 423.583 238.775 422.716C231.28 421.192 212.701 420.187 207.274 421.013ZM275.19 421.005C263.426 423.184 257.787 424.342 257.488 424.64C257.291 424.838 270.1 425 285.953 425C301.806 425 314.618 424.84 314.423 424.646C314.228 424.451 310.582 423.576 306.32 422.701C298.873 421.171 279.881 420.137 275.19 421.005ZM343.107 421.007C337.948 421.779 325.365 424.308 325.033 424.64C324.836 424.838 337.645 425 353.498 425C369.351 425 382.16 424.838 381.962 424.64C381.764 424.442 378.285 423.574 374.23 422.712C367.093 421.195 348.616 420.183 343.107 421.007ZM410.652 421.009C405.947 421.718 393.676 424.285 393.327 424.634C393.126 424.835 405.932 425 421.785 425C437.638 425 450.471 424.869 450.301 424.708C450.131 424.547 446.484 423.681 442.197 422.783C434.649 421.201 416.247 420.167 410.652 421.009ZM478.197 421.057C474.292 421.562 461.253 424.254 460.873 424.634C460.671 424.835 473.505 424.963 489.392 424.918C515.658 424.843 517.908 424.742 514.196 423.801C503.54 421.097 487.399 419.867 478.197 421.057Z" fill="black"/>
</g>
</svg>
