<svg width="573" height="278" viewBox="0 0 573 278" fill="none" xmlns="http://www.w3.org/2000/svg">
<mask id="mask0_439_10163" style="mask-type:alpha" maskUnits="userSpaceOnUse" x="0" y="0" width="574" height="278">
<path fill-rule="evenodd" clip-rule="evenodd" d="M77 58.4549C77 58.9723 81.0571 61.7937 86.0147 64.7246C104.071 75.3977 110.661 83.5067 128.363 116.829C136.08 131.356 140.721 138.655 149.163 149.545C155.141 157.255 160.276 163.318 160.576 163.02C160.875 162.72 157.89 157.528 153.941 151.48C146.078 139.438 142.226 131.623 139.006 121.178C135.579 110.065 136.575 101.593 141.307 101.593C143.564 101.593 154.299 109.105 161.034 115.397C169.86 123.642 176.883 134.082 183.453 148.725C191.158 165.899 191.579 166.641 198.619 175.451C207.897 187.061 214.015 191.565 232.735 200.562C261.691 214.477 270.684 222.065 277.202 238.083C279.276 243.182 282.941 259.44 285.142 273.314C285.469 275.37 286.157 277.052 286.67 277.052C287.805 277.052 288.125 275.74 290.623 260.89C291.703 254.469 293.526 246.394 294.674 242.945C297.505 234.443 303.568 224.432 308.787 219.639C314.819 214.1 326.604 206.974 337.623 202.201C342.766 199.974 349.91 196.53 353.497 194.549C364.644 188.395 381.247 170.16 385.488 159.415C389.196 150.016 396.761 134.933 400.584 129.31C408.579 117.552 425.738 102.761 431.914 102.305C434.238 102.133 435.092 102.679 436.271 105.082C439.566 111.802 431.917 132.953 419.227 152.208C415.878 157.291 413.389 161.702 413.698 162.01C414.253 162.565 425.761 148.573 432.643 138.978C434.608 136.236 440.965 125.138 446.77 114.316C459.554 90.4752 463.198 85.031 472.008 76.596C478.441 70.437 492.59 60.719 495.123 60.719C495.763 60.719 496.287 60.053 496.287 59.2395C496.287 57.9525 495.802 57.9665 492.544 59.3532C480.118 64.6399 479.587 64.9569 456.355 80.8968C453.884 82.5915 443.327 89.8113 432.895 96.9393C422.463 104.068 413.021 110.704 411.913 111.685C407.211 115.85 392.503 123.742 385.08 126.082C380.672 127.473 372.556 129.491 367.045 130.566C344.697 134.924 335.6 138.674 324.781 147.984C319.431 152.588 320.004 153.602 325.757 149.714C342.205 138.597 357.745 133.408 368.475 135.449C374.822 136.656 379.49 141.849 379.476 147.686C379.453 157.687 368.533 172.148 358.89 174.948C353.913 176.392 353.331 176.368 349.183 174.535C345.719 173.006 344.515 171.816 343.587 169.007C342.936 167.038 342.692 164.521 343.045 163.412C344.02 160.342 348.411 155.545 351.902 153.735C356.724 151.235 353.498 151.108 346.929 153.54C342.163 155.303 339.21 157.515 331.321 165.226C321.376 174.946 318.858 179.087 317.281 188.326C316.618 192.205 316.139 192.73 322.715 182.37C325.54 177.921 327.514 176.073 331.646 174.018C338.353 170.68 339.437 170.711 344.046 174.369C346.119 176.014 348.202 177.359 348.676 177.359C349.149 177.359 349.537 178.981 349.537 180.963C349.537 186.271 345.017 193.807 339.741 197.297C335.381 200.181 329.072 202.117 327.888 200.934C327.074 200.122 332.084 193.5 336.455 189.61C338.434 187.848 339.474 186.39 338.765 186.37C334.131 186.234 317.799 198.776 308.644 209.5C301.883 217.42 294.787 230.839 292.007 240.963C290.293 247.201 290.26 247.242 286.915 246.945C283.63 246.653 283.478 246.435 280.612 237.899C277.03 227.23 274.711 222.542 269.111 214.649C261.669 204.158 243.964 188.917 236.738 186.78C234.711 186.181 235.31 187.187 239.982 192.227C243.135 195.627 245.713 199.055 245.713 199.847C245.713 203.661 233.814 198.641 228.985 192.79C224.974 187.931 221.978 177.359 224.611 177.359C225.085 177.359 227.169 176.014 229.241 174.369C233.797 170.754 235.412 170.675 241.503 173.771C247.202 176.667 249.673 179.21 253.742 186.361L256.845 191.815L256.245 187.495C254.744 176.671 241.995 161.186 229.409 154.899C220.312 150.355 216.569 150.208 222.955 154.646C230.705 160.033 232.853 166.43 228.688 171.718C223.325 178.527 211.718 176.58 203.495 167.491C198.858 162.366 195.172 155.101 194.322 149.415C193.767 145.702 194.048 144.378 196.012 141.47C199.182 136.775 202.898 135.195 210.765 135.195C220.796 135.195 230.895 139.003 245.077 148.132C248.846 150.558 252.12 152.351 252.354 152.118C253.321 151.152 242.353 142.522 235.76 139.062C230.172 136.129 224.791 134.506 210.482 131.438C200.484 129.294 189.651 126.587 186.407 125.421C180.224 123.201 166.074 115.252 161.21 111.266C159.644 109.983 150.275 103.393 140.392 96.6233C130.509 89.8531 117.481 80.8848 111.441 76.6947C97.7048 67.1651 89.6176 62.2871 84.4873 60.4348C82.291 59.6423 79.7074 58.6613 78.747 58.2546C77.7867 57.8478 77 57.9385 77 58.4549Z" fill="#FF0000"/>
<path fill-rule="evenodd" clip-rule="evenodd" d="M251.201 5.32512C262.933 18.0246 268.984 35.3564 272.044 65.0229L272.714 71.5191L263.851 63.0211C258.877 58.2509 252.358 53.133 248.994 51.357C245.698 49.616 233.357 44.9977 221.571 41.096C199.399 33.7544 186.335 27.6969 171.665 17.9547C167.594 15.2513 164.118 13.1835 163.941 13.3614C163.763 13.5383 166.819 17.2521 170.731 21.6135C179.23 31.0889 182.54 37.5321 182.553 44.63C182.569 52.9141 178.765 54.6431 164.169 52.984C148.416 51.1931 139.76 46.7217 120.617 30.4863C115.128 25.831 110.637 22.2771 110.637 22.5899C110.637 23.3685 118.005 34.2491 123.467 41.5368C125.938 44.8348 135.84 55.2767 145.47 64.7411C155.1 74.2065 162.753 82.1768 162.477 82.4537C161.758 83.1713 147.126 79.5574 140.098 76.9269C129.624 73.0062 119.855 61.8438 117.57 51.1871L116.496 46.1761L105.824 43.6775C85.2972 38.8724 74.4614 37.6161 54.8746 37.774C33.3388 37.9479 20.545 39.3011 9.67317 42.5562C-3.05271 46.3669 -3.14961 46.9686 8.95391 47.0036C17.3123 47.0266 20.8796 47.4913 25.2411 49.1243C32.7244 51.9257 43.3345 59.1834 53.8856 68.7178C62.4058 76.4182 69.2737 80.9246 87.1053 90.5159C97.3777 96.0407 102.803 100.711 109.413 109.717C111.99 113.228 114.265 115.597 114.47 114.982C114.675 114.367 113.435 111.002 111.714 107.505C106.303 96.5084 90.393 81.1714 71.3376 68.5828C62.5766 62.7953 59.1012 59.5402 55.7996 54.0294C52.9306 49.2412 53.1563 47.3324 56.8585 45.0797C61.6186 42.1834 66.2538 41.8096 76.1726 43.5226C92.0423 46.263 103.137 53.4717 111.683 66.595C119.68 78.8738 134.115 86.4333 157.227 90.445C171.146 92.8615 174.313 94.3317 194.849 107.905C205.399 114.878 214.703 120.994 215.524 121.497C216.345 121.999 215.303 120.023 213.207 117.104C211.112 114.187 209.545 111.652 209.725 111.473C210.338 110.858 249.235 120.805 252.115 122.313C258.928 125.881 268.775 139.979 264.453 139.979C263.89 139.979 260.968 139.113 257.96 138.056C247.972 134.544 251.318 137.467 269.07 147.765L276.157 151.878L276.791 181.158C277.139 197.261 277.883 215.16 278.442 220.931C280.411 241.235 284.245 262.088 286.408 264.256C286.873 264.722 287.953 262.698 288.806 259.758C293.323 244.195 296.294 215.307 297.14 178.719C297.665 156.001 297.996 151.799 299.35 150.67C300.225 149.941 305.211 146.939 310.431 143.999C321.412 137.816 320.921 138.148 320.186 137.412C319.874 137.1 317.239 137.551 314.33 138.416C306.907 140.621 306.174 139.327 310.934 132.415C317.376 123.057 319.243 122.111 342.78 116.29C354.343 113.429 363.937 111.224 364.101 111.388C364.265 111.551 362.824 113.666 360.9 116.088C358.976 118.509 357.398 120.834 357.393 121.253C357.387 121.673 365.549 116.557 375.532 109.885C385.514 103.212 395.74 96.7243 398.259 95.467C400.776 94.2088 408.547 92.009 415.528 90.5769C444.137 84.7064 452.1 80.216 464.244 63.1061C472.419 51.5889 483.389 45.5864 500.956 43.0169C508.326 41.9386 509.371 42.0065 513.521 43.8434C520.054 46.7347 520.794 48.7455 517.31 54.1434C514.461 58.5568 509.848 63.217 505.23 66.3452C503.857 67.2756 499.768 70.053 496.144 72.5155C486.638 78.9757 473.517 90.7698 467.979 97.8316C463.308 103.787 457.577 114.625 458.572 115.62C458.846 115.895 461.587 112.774 464.663 108.685C471.631 99.4237 476.102 95.7728 488.747 89.0228C503.472 81.1634 511.441 75.8046 520.832 67.4445C531.272 58.152 542.865 50.5025 549.493 48.5337C552.478 47.6472 558.654 47.0216 564.601 47.0036C571.798 46.9816 574.171 46.6888 572.944 45.9732C570.278 44.4181 559.92 41.2779 553.498 40.0766C545.258 38.5356 512.962 36.8545 505.23 37.5641C493.495 38.6415 477.939 41.137 467.02 43.6935C456.691 46.1121 456.281 46.31 456.271 48.8695C456.259 52.1445 452.305 60.8214 448.627 65.6466C444.371 71.2273 437.614 75.8386 430.404 78.0793C421.985 80.6957 411.327 82.9584 411.327 82.1289C411.327 81.7771 418.32 74.5233 426.866 66.0104C435.413 57.4974 444.795 47.6082 447.715 44.0353C454.118 36.2009 462.275 24.3309 462.275 22.8478C462.275 22.2571 460.14 23.7603 457.529 26.1878C443.99 38.7794 430.341 48.0839 421.72 50.5984C413.764 52.9191 400.506 54.1514 396.145 52.977C391.392 51.6968 389.949 49.0554 390.671 42.9549C391.48 36.129 395.173 29.5519 402.866 21.2397C406.562 17.2451 409.348 13.7382 409.056 13.4473C408.765 13.1555 406.484 14.4767 403.988 16.3826C393.072 24.7187 375.677 33.0378 354.21 40.1896C323.426 50.4455 320.735 51.8297 308.183 63.8766L301.44 70.3478V66.7579C301.44 61.1242 303.384 48.2668 305.513 39.8288C309.096 25.6202 315.73 12.6678 323.768 4.1818C327.445 0.301083 327.574 0.0142504 324.916 1.64329C314.09 8.27738 301.229 20.6521 294.945 30.4783C291.228 36.2919 287.5 45.3306 287.406 48.7575C287.38 49.733 286.086 47.1115 284.533 42.932C282.979 38.7514 280.013 32.68 277.941 29.4399C271.758 19.7686 258.592 7.03112 247.995 0.467984C245.87 -0.84824 246.802 0.562925 251.201 5.32512ZM205.954 49.3512C203.624 51.357 203.345 52.1675 203.923 55.2527C204.687 59.3253 208.362 66.616 212.167 71.6081C214.818 75.084 216.528 75.2809 216.528 72.1098C216.528 68.8597 222.392 62.0677 227.194 59.7571C233.121 56.9037 234.753 54.4652 232.071 52.4713C228.875 50.0977 224.924 50.7374 220.891 54.2793C218.858 56.0652 217.042 57.0776 216.857 56.528C215.95 53.8375 212.42 49.0424 210.647 48.0939C209.043 47.2344 208.13 47.4793 205.954 49.3512ZM362.121 48.1169C361.156 48.6796 359.461 50.9143 358.355 53.084C357.248 55.2527 356.074 57.0277 355.746 57.0277C355.418 57.0277 353.613 55.6785 351.735 54.0294C347.765 50.5405 343.529 50.1237 340.957 52.9671C338.726 55.4336 339.602 56.7868 344.963 59.1594C349.966 61.3731 355.989 67.9482 356.927 72.2187L357.577 75.182L360.012 72.8943C363.44 69.6722 369.37 57.3895 369.37 53.5107C369.37 51.1601 368.689 49.8149 366.908 48.6476C364.048 46.7727 364.368 46.8077 362.121 48.1169ZM186.226 54.696C185.86 55.0618 185.56 57.1226 185.56 59.2743V63.187L182.195 61.1073C177.549 58.234 173.57 58.3119 173.577 61.2752C173.586 65.1209 176.69 68.7298 187.911 77.9453C195.759 84.3905 202.333 88.693 211.709 93.5212C218.834 97.19 224.843 100.011 225.063 99.7925C225.283 99.5726 223.701 96.0297 221.548 91.9191C216.763 82.7825 207.244 71.2103 202.328 68.5509L198.687 66.582L194.208 69.8001C191.744 71.5701 189.526 73.0182 189.279 73.0182C189.031 73.0182 189.891 70.9185 191.19 68.352C194.027 62.7453 194.229 57.9511 191.724 55.6835C189.835 53.9735 187.388 53.5337 186.226 54.696ZM381.831 55.4236C379.287 57.2855 379.547 63.9806 382.348 68.7298C384.842 72.9603 384.512 73.7068 381.261 71.1823C376.297 67.3286 374.65 66.8759 371.053 68.38C366.735 70.1839 357.047 82.0969 351.581 92.3219C346.597 101.644 346.499 101.636 362.378 93.2903C374.136 87.1099 376.193 85.6878 388.676 75.104C397.118 67.9472 400.338 63.9346 400.338 60.5756C400.338 58.2869 394.175 58.5857 391.075 61.0253C387.801 63.6018 386.982 63.5488 387.698 60.8054C389.15 55.2537 386.006 52.3694 381.831 55.4236ZM237.057 63.3639C231.174 67.6674 245.759 87.6306 256.237 89.6155C259.783 90.2871 260.491 91.5873 257.735 92.3678C253.56 93.5501 243.794 94.0588 241.518 93.2123L239.038 92.2899L241.329 91.5623C245.059 90.378 243.345 85.4839 237.023 79.2646C231.517 73.8497 227.336 72.4426 226.125 75.5987C224.214 80.5808 227.67 91.6253 233.41 98.875C236.697 103.029 247.674 110.996 250.107 110.996C251.738 110.996 251.928 107.684 250.458 104.933C248.54 101.348 251.155 102.966 256.623 108.747C259.611 111.907 265.187 119.432 269.012 125.467L275.967 136.441L276.746 122.291C277.468 109.166 277.341 107.331 274.998 96.9421C273.607 90.7818 272.47 84.4985 272.47 82.9784C272.47 79.7063 264.546 71.9479 254.988 65.8605C250.084 62.7383 248.075 62.0417 243.941 62.0347C241.162 62.0287 238.064 62.6274 237.057 63.3639ZM323.418 62.8442C315.55 66.4111 301.44 78.3721 301.44 81.4743C301.44 82.7185 300.342 89.1307 299 95.7229C296.811 106.476 296.631 109.136 297.252 121.595L297.944 135.481L304.437 125.052C308.009 119.314 313.339 112.006 316.283 108.811C321.596 103.043 324.315 101.374 322.896 104.75C321.098 109.031 321.152 110.996 323.069 110.996C325.384 110.996 331.619 106.944 336.736 102.116C347.163 92.2759 351.695 74.0176 343.709 74.0176C339.904 74.0176 330.41 83.9948 330.41 87.9934C330.41 89.7214 331.07 91.0466 332.131 91.4544C335.934 92.9145 330.889 94.0448 323.418 93.4062C313.729 92.5787 311.638 91.0936 317.68 89.3316C325.104 87.1659 333.637 78.45 337.346 69.2445C338.511 66.3552 338.457 65.7405 336.881 63.9976C335.527 62.5014 333.865 62.0417 330.006 62.0947C327.207 62.1337 324.242 62.4705 323.418 62.8442Z" fill="white"/>
</mask>
<g mask="url(#mask0_439_10163)">
<path fill-rule="evenodd" clip-rule="evenodd" d="M38.0781 -146.909C19.5998 -142.879 2.43944 -128.282 -7.57228 -108.079C-14.1816 -94.7417 -17.1353 -82.5277 -17.7697 -65.9144C-18.3373 -51.0462 -16.9109 -41.1075 -12.3319 -28.0288C-6.2767 -10.7359 -5.25302 -6.10861 -5.1817 4.28542C-5.10593 15.3777 -5.89041 19.4048 -10.6307 32.2487C-16.3597 47.7715 -17.5728 54.6964 -17.5721 71.8853C-17.5721 88.3767 -16.512 94.8336 -11.6559 107.914C-6.53299 121.715 -5.24782 127.697 -5.19508 137.999C-5.13713 149.16 -5.92458 153.211 -10.6307 165.963C-16.284 181.28 -17.5543 188.436 -17.5996 205.228C-17.6434 221.453 -16.7936 226.764 -11.9515 240.514C-6.29156 256.586 -5.24559 261.43 -5.21588 271.713C-5.18393 282.479 -6.28042 288.403 -10.1233 298.237C-15.5114 312.026 -18 325.004 -18 339.313C-18 377.614 2.50704 411.976 31.2481 421.836C42.6341 425.742 51.5457 425.991 65.9359 422.807C74.7434 420.859 91.6512 421.041 102.337 423.199C113.245 425.402 121.118 425.405 132.052 423.208C143.916 420.825 158.074 420.825 169.938 423.208C180.872 425.405 188.745 425.402 199.653 423.199C211.45 420.816 227.088 420.842 238.283 423.263C248.311 425.432 256.285 425.415 267.255 423.2C279.14 420.802 294.76 420.824 305.884 423.255C315.944 425.453 324.527 425.442 334.856 423.216C345.901 420.837 362.441 420.837 373.486 423.216C383.788 425.436 392.39 425.452 402.458 423.268C413.645 420.841 429.277 420.814 441.087 423.199C452.057 425.415 460.028 425.433 470.059 423.263C481.266 420.839 496.899 420.816 508.689 423.204C523.997 426.305 535.256 425.238 546.947 419.576C568.597 409.09 584.345 385.85 589.215 357.197C589.869 353.345 590.459 348.164 590.526 345.683L590.647 341.17L591.148 345.256C591.484 348.001 591.647 345.807 591.645 338.571C591.642 331.028 591.493 329.135 591.148 332.256L590.655 336.713L590.53 332.201C590.319 324.576 588.211 314.093 585.09 305.142C578.038 284.923 578.256 285.976 578.249 272.085C578.242 258.205 577.906 259.862 584.73 240.142C588.185 230.157 590.316 219.801 590.526 211.969L590.647 207.456L591.148 211.542C591.484 214.287 591.647 212.093 591.645 204.856C591.643 198.2 591.476 195.788 591.209 198.542C590.782 202.945 590.77 202.909 590.225 195.571C589.497 185.761 587.548 177.376 583.454 166.432C579.146 154.916 577.776 148.145 577.776 138.371C577.776 128.944 579.153 121.769 582.733 112.55C587.406 100.514 590.269 87.925 590.526 78.288L590.647 73.7424L591.148 77.8281C591.484 80.573 591.647 78.3793 591.645 71.1424C591.642 63.5995 591.493 61.7067 591.148 64.8282L590.655 69.2853L590.53 64.7732C590.323 57.2859 588.198 46.7463 585.076 37.7139C578.864 19.7435 578.385 17.7668 577.981 8.37113C577.766 3.37765 577.96 -2.87051 578.422 -5.8345C579.198 -10.8191 580.021 -13.5156 584.813 -26.7808C587.608 -34.5162 589.586 -43.9371 590.222 -52.543C590.74 -59.5519 590.796 -59.7406 591.21 -55.8859C591.467 -53.4976 591.647 -56.2744 591.645 -62.5716C591.642 -70.1145 591.493 -72.0073 591.148 -68.8859L590.655 -64.4287L590.53 -68.9743C589.889 -92.3007 577.336 -119.571 560.814 -133.529C545.899 -146.131 529.278 -150.362 510.175 -146.42C498.403 -143.991 480.068 -143.972 468.704 -146.377C459.004 -148.43 452.127 -148.429 442.442 -146.371C431.321 -144.008 411.924 -143.995 401.201 -146.342C391.677 -148.427 384.592 -148.438 374.841 -146.384C363.639 -144.025 344.238 -144.003 333.599 -146.338C323.998 -148.446 316.29 -148.458 306.895 -146.381C300.867 -145.048 297.202 -144.761 286.198 -144.761C275.194 -144.761 271.529 -145.048 265.502 -146.381C256.219 -148.433 248.59 -148.435 239.293 -146.387C228.643 -144.041 209.243 -144.023 197.944 -146.349C187.794 -148.438 180.758 -148.436 171.195 -146.342C160.472 -143.995 141.075 -144.008 129.954 -146.371C125.737 -147.267 119.827 -148 116.823 -148C113.819 -148 107.909 -147.267 103.692 -146.371C92.7239 -144.041 73.32 -144.041 62.3522 -146.371C53.7096 -148.207 44.9207 -148.402 38.0781 -146.909ZM43.2054 -137.602C22.7065 -134.597 4.32931 -116.278 -3.74424 -90.8001C-6.78408 -81.2076 -7.84491 -73.707 -7.84045 -61.8287C-7.83451 -44.622 -3.56967 -27.1597 2.23738 -20.5616C8.46564 -13.4874 18.1393 -11.0107 32.6833 -12.7691C37.2847 -13.3255 43.4052 -13.9777 46.2846 -14.2191C52.1927 -14.7139 54.876 -16.1 56.2235 -19.353C57.0236 -21.2852 56.8587 -22.441 54.9146 -28.5109C47.1738 -52.6857 48.0898 -79.4262 57.4248 -101.742C61.6666 -111.882 63.1345 -117.9 62.6769 -123.269C62.0388 -130.743 59.068 -135.296 53.5418 -137.266C50.4247 -138.379 48.8475 -138.43 43.2054 -137.602ZM112.366 -137.232C106.154 -135.044 103.409 -129.029 103.979 -118.853C104.262 -113.798 104.856 -111.469 107.338 -105.657C111.597 -95.6874 113.879 -87.9758 115.359 -78.543C117.815 -62.8925 115.922 -40.8327 110.937 -27.0066C109.109 -21.9366 109.407 -19.6962 112.291 -16.8117C113.735 -15.3683 115.565 -14.2875 116.563 -14.2889C119.216 -14.2927 122.769 -16.802 123.863 -19.4451C124.746 -21.5764 124.611 -22.5525 122.489 -29.3756C118.562 -42.0012 117.725 -47.577 117.678 -61.4573C117.618 -78.8773 119.333 -87.5486 126.247 -104.772C128.86 -111.284 130.038 -115.357 130.337 -118.925C131.149 -128.617 127.415 -135.6 120.371 -137.555C116.812 -138.543 116 -138.511 112.366 -137.232ZM181.437 -137.685C175.038 -136.059 171.44 -130.284 171.435 -121.629C171.431 -115.41 172.117 -112.709 176.053 -103.429C180.16 -93.7433 183.262 -81.0412 183.944 -71.1144C184.496 -63.0775 184.514 -63.0166 185.031 -67.4002C187.162 -85.4582 189.203 -93.6898 194.703 -106.4C197.598 -113.089 197.759 -113.845 197.777 -120.886C197.794 -127.439 197.581 -128.691 195.967 -131.508C193.015 -136.664 187.181 -139.144 181.437 -137.685ZM248.697 -137.615C245.269 -136.766 240.849 -131.947 239.734 -127.841C238.173 -122.097 239.219 -114.184 242.58 -106.297C254.37 -78.6329 255.162 -57.018 245.593 -24.1763C244.463 -20.2972 245.39 -17.8977 248.854 -15.7412C251.996 -13.7838 255.091 -14.3127 257.783 -17.267C260.361 -20.0958 260.345 -21.791 257.667 -30.1809C253.963 -41.7857 252.902 -50.4504 253.358 -65.4108C253.877 -82.4868 255.976 -91.6863 263.221 -108.629C264.78 -112.272 265.366 -115.034 265.615 -119.885C265.906 -125.568 265.73 -126.781 264.095 -130.351C261.282 -136.496 255.396 -139.272 248.697 -137.615ZM316.092 -137.48C312.336 -136.44 308.485 -131.849 307.331 -127.034C305.865 -120.927 306.854 -114.962 311.063 -104.524C321.52 -78.5905 322.672 -54.7783 314.7 -29.3125C312.388 -21.9292 312.35 -21.5986 313.527 -19.1316C316.005 -13.9346 321.93 -13.0662 325.55 -17.3688C327.72 -19.9465 327.902 -22.4403 326.256 -27.0066C323.073 -35.8355 321.381 -45.8291 320.99 -58.1145C320.405 -76.4868 322.847 -89.5439 329.863 -105.567C332.922 -112.55 332.993 -112.903 332.996 -120.94C332.999 -128.669 332.876 -129.352 330.959 -132.248C327.725 -137.134 322.051 -139.131 316.092 -137.48ZM383.651 -137.266C377.281 -134.995 374.631 -130.258 374.697 -121.257C374.744 -114.681 374.835 -114.349 380.55 -99.7263C382.064 -95.8515 384.168 -88.9987 385.225 -84.4977C386.921 -77.2749 387.149 -74.7009 387.17 -62.5716C387.194 -47.4359 386.271 -40.9723 382.322 -28.6469C380.27 -22.2375 380.195 -21.6105 381.203 -19.1977C382.258 -16.6735 385.548 -14.286 387.972 -14.286C390.29 -14.286 393.36 -16.4848 394.554 -19.0016C395.719 -21.4575 395.683 -21.8222 393.574 -28.6721C390.137 -39.8372 388.963 -46.5527 388.536 -57.4823C387.894 -73.9484 390.512 -89.0135 396.459 -103.057C400.666 -112.993 401.257 -115.179 401.28 -120.904C401.318 -129.996 397.917 -135.779 391.477 -137.567C387.978 -138.539 387.128 -138.506 383.651 -137.266ZM451.253 -137.266C445.105 -135.074 442.287 -129.992 442.377 -121.257C442.438 -115.319 443.505 -111.424 448.131 -100.271C449.613 -96.6954 451.714 -90.0097 452.799 -85.4137C454.573 -77.9012 454.775 -75.5946 454.802 -62.5716C454.833 -47.0778 454.064 -41.4173 450.34 -29.7344C447.943 -22.2145 447.975 -19.486 450.49 -16.9721C451.575 -15.8868 453.282 -14.7933 454.282 -14.5423C456.935 -13.8767 460.959 -16.074 462.322 -18.9333C463.431 -21.2569 463.366 -21.7591 460.913 -29.8986C457.035 -42.7671 456.31 -47.9864 456.373 -62.5716C456.45 -80.3972 458.632 -90.2006 466.79 -109.372C468.511 -113.417 468.849 -115.284 468.875 -120.886C468.906 -127.974 467.634 -131.82 464.245 -134.885C462.536 -136.431 457.815 -138.278 455.573 -138.278C454.756 -138.278 452.812 -137.823 451.253 -137.266ZM518.718 -137.266C512.49 -135 509.765 -129.023 510.325 -118.853C510.593 -113.998 511.179 -111.549 513.128 -107.143C519.952 -91.719 522.035 -82.5247 522.553 -65.543C522.996 -51.0009 522.104 -43.3272 518.626 -31.7342C515.486 -21.274 515.481 -19.974 518.565 -16.8897C520.839 -14.6165 521.635 -14.286 524.837 -14.286C526.854 -14.286 531.818 -13.7868 535.868 -13.1761C545.113 -11.7825 550.734 -11.784 557.328 -13.1806C567.522 -15.3401 572.326 -20.2281 576.23 -32.4154C582.318 -51.4213 582.045 -74.75 575.511 -93.7715C566.994 -118.566 547.717 -135.929 526.518 -137.899C523.156 -138.211 520.786 -138.019 518.718 -137.266ZM75.9647 -107.96C69.697 -105.052 65.97 -98.9671 62.4176 -85.843C60.5597 -78.9783 60.4423 -77.5684 60.4423 -62.2002C60.4423 -46.8721 60.5634 -45.4087 62.3976 -38.636C65.1261 -28.5637 68.7135 -20.1218 73.3126 -12.9518C77.8129 -5.93627 79.3381 -4.62884 83.022 -4.62884C86.4652 -4.62884 88.3432 -6.02318 91.8377 -11.1719C98.109 -20.4145 103.26 -33.4576 105.39 -45.4859C106.81 -53.511 106.62 -71.8268 105.032 -79.9351C101.917 -95.8322 98.2242 -103.409 91.7916 -107.098C87.0008 -109.845 80.7599 -110.185 75.9647 -107.96ZM143.566 -107.985C137.232 -105.101 133.956 -99.5175 129.995 -84.8573C128.26 -78.439 128.082 -76.4556 128.027 -62.943C127.978 -51.0306 128.24 -46.8342 129.351 -41.7716C131.739 -30.8843 136.611 -19.1242 141.97 -11.3145C145.587 -6.0425 147.464 -4.62884 150.847 -4.62884C153.339 -4.62884 154.272 -5.09833 156.564 -7.50816C161.989 -13.2103 168.481 -26.4785 171.33 -37.6859C175.741 -55.039 175.096 -76.0299 169.66 -92.0102C166.277 -101.958 163.388 -105.825 157.5 -108.285C153.92 -109.781 147.19 -109.636 143.566 -107.985ZM210.967 -107.84C204.835 -104.728 201.042 -98.2673 197.91 -85.6001C194.183 -70.5224 194.27 -52.9241 198.146 -37.7706C201.241 -25.6695 206.979 -13.8737 212.712 -7.82535C215.312 -5.08198 216.169 -4.62884 218.754 -4.62884C221.308 -4.62884 222.161 -5.06564 224.36 -7.49924C227.683 -11.1779 232.497 -19.2832 235.015 -25.4407C243.308 -45.7184 244.241 -70.0224 237.558 -91.586C233.746 -103.881 228.677 -108.806 219.406 -109.216C215.161 -109.405 213.524 -109.138 210.967 -107.84ZM279.512 -108.34C273.627 -105.769 270.421 -101.153 267.017 -90.3529C261.97 -74.3407 261.542 -54.7753 265.865 -37.6859C268.839 -25.9258 274.875 -13.5565 280.549 -7.59209C282.851 -5.17261 283.875 -4.62884 286.132 -4.62884C290.09 -4.62884 291.23 -5.47347 295.078 -11.2625C302.224 -22.0117 307.08 -35.0369 308.878 -48.2783C310.289 -58.6738 309.466 -75.9304 307.135 -84.8573C303.356 -99.3221 299.989 -105.088 293.627 -107.985C290.11 -109.587 282.788 -109.771 279.512 -108.34ZM346.124 -107.438C343.99 -106.374 341.385 -104.379 340.337 -103.004C337.606 -99.4239 334.44 -90.7934 332.715 -82.2253C327.554 -56.6013 332.181 -30.5961 345.356 -11.1719C348.812 -6.07816 350.729 -4.62884 354.014 -4.62884C357.61 -4.62884 358.974 -5.6109 362.413 -10.6757C372.584 -25.6517 377.2 -41.5993 377.2 -61.7574C377.2 -80.0034 373.287 -96.3552 367.291 -103.167C361.635 -109.592 353.672 -111.199 346.124 -107.438ZM413.732 -107.44C407.511 -104.34 404.345 -98.6283 400.902 -84.2942C396.564 -66.2361 397.999 -44.3501 404.652 -27.1322C407.37 -20.0951 412.634 -10.9602 416.07 -7.31724C418.213 -5.04485 419.095 -4.62884 421.773 -4.62884C424.45 -4.62884 425.332 -5.04485 427.476 -7.31724C428.871 -8.79627 431.507 -12.5573 433.335 -15.6744C444.957 -35.5012 448.31 -62.1452 442.226 -86.343C438.982 -99.2494 435.948 -104.383 429.738 -107.478C424.536 -110.071 418.983 -110.057 413.732 -107.44ZM482.317 -107.96C476.049 -105.052 472.322 -98.9671 468.77 -85.843C466.912 -78.9783 466.794 -77.5684 466.794 -62.2002C466.794 -46.93 466.921 -45.3908 468.722 -38.7452C471.309 -29.204 474.02 -22.5101 478.112 -15.5592C483.116 -7.06096 485.566 -4.62884 489.123 -4.62884C492.821 -4.62884 494.64 -5.94221 498.19 -11.1719C504.417 -20.3499 509.008 -31.6829 511.423 -43.8442C515.062 -62.1623 511.425 -90.6352 504.035 -101.688C499.37 -108.666 489.796 -111.431 482.317 -107.96ZM-17.714 -61.8287C-17.714 -55.9045 -17.5981 -53.4813 -17.457 -56.443C-17.3166 -59.4048 -17.3166 -64.2527 -17.457 -67.2144C-17.5981 -70.1762 -17.714 -67.753 -17.714 -61.8287ZM184.156 -56.2023C184.015 -49.0219 182.105 -38.301 179.52 -30.1809C176.826 -21.7182 176.826 -20.1152 179.52 -17.1007C181.301 -15.1068 182.211 -14.6908 184.796 -14.6908C187.381 -14.6908 188.29 -15.1068 190.072 -17.1007C192.758 -20.1062 192.755 -21.4426 190.044 -29.7381C188.084 -35.7382 186.977 -41.5436 184.918 -56.6287L184.259 -61.4573L184.156 -56.2023ZM45.4288 -3.8637C37.6948 -1.49251 36.2855 8.31468 43.0828 12.4591C47.4844 15.143 58.4373 14.0257 67.6437 9.95415C74.6565 6.85347 75.0383 3.30486 68.683 0.30595C60.8516 -3.38901 50.1438 -5.3093 45.4288 -3.8637ZM110.023 -3.85999C105.481 -3.04879 99.1988 -0.764505 95.8366 1.29692C93.9556 2.45057 93.4222 3.28331 93.4222 5.06542C93.4222 7.18331 93.8226 7.5369 98.8081 9.82118C108.454 14.2412 117.658 15.0932 127.787 12.5029C137.521 10.0128 141.518 7.32817 140.648 3.86349C140.28 2.39338 139.073 1.4492 135.551 -0.124171C127.366 -3.78051 117.586 -5.21198 110.023 -3.85999ZM178.073 -3.88302C173.381 -3.14388 166.993 -0.882619 163.438 1.29692C161.045 2.7648 160.331 5.01565 161.616 7.03771C162.464 8.37336 169.654 11.4829 175.138 12.8869C184.398 15.2581 198.762 13.1841 205.765 8.46474C209.361 6.04154 209.173 3.02331 205.29 0.845262C197.945 -3.27462 186.657 -5.23576 178.073 -3.88302ZM244.414 -3.5621C236.868 -2.13359 229.566 1.38308 228.936 3.89245C228.307 6.39884 229.864 8.13416 234.555 10.1518C246.658 15.3584 258.903 15.2121 271.153 9.71421C274.198 8.3481 275.58 7.27542 275.891 6.03708C276.562 3.3628 275.81 2.27674 271.933 0.312626C263.649 -3.88228 253.589 -5.29815 244.414 -3.5621ZM315.913 -4.20691C315.096 -4.02268 312.589 -3.50118 310.341 -3.04953C303.691 -1.7109 297.115 1.59183 296.54 3.88429C295.831 6.70714 297.673 8.32879 304.686 11.0595C315.758 15.3696 328.852 14.7664 339.358 9.46313C343.581 7.33113 343.846 7.04439 343.63 4.82771C343.358 2.042 340.225 -0.0483968 332.845 -2.36834C328.251 -3.81245 318.739 -4.84576 315.913 -4.20691ZM381.477 -3.90382C375.373 -2.80216 368.194 -0.0684558 365.81 2.06131C363.759 3.89394 363.603 4.31514 364.362 5.9784C364.873 7.1016 366.783 8.58582 369.162 9.71124C380.831 15.2277 394.272 15.3153 406.394 9.95415C413.354 6.8765 413.585 3.57897 407.074 0.281432C399.584 -3.51159 388.944 -5.25136 381.477 -3.90382ZM448.755 -3.85553C443.932 -2.99679 435.265 0.231657 433.504 1.82583C432.772 2.48771 432.173 3.9764 432.173 5.13303C432.173 6.95674 432.762 7.53244 436.623 9.4817C447.951 15.2002 461.74 15.3748 473.996 9.95415C480.511 7.07336 481.328 3.63913 476.18 0.776911C469.127 -3.14462 456.625 -5.25656 448.755 -3.85553ZM516.375 -3.81542C511.897 -3.06736 505.613 -0.802391 502.189 1.29692C500.308 2.45057 499.774 3.28331 499.774 5.06542C499.774 7.18256 500.178 7.53913 505.16 9.83604C511.772 12.884 518.312 14.2308 524.369 13.7932C528.515 13.4931 529.204 13.1967 531.454 10.7408C535.797 6.00217 534.621 -0.00605333 528.772 -2.95742C525.309 -4.70536 522.757 -4.88141 516.375 -3.81542ZM80.0743 14.8927C75.4937 17.2096 66.8244 32.6113 63.4242 44.4702C60.5099 54.6347 59.7656 61.7624 60.186 75.4696C60.4928 85.4491 60.9289 89.2392 62.4325 94.9688C64.8996 104.374 67.611 111.107 71.7882 118.204C76.5723 126.331 79.3819 129.085 82.8927 129.085C86.4674 129.085 88.315 127.734 91.8369 122.542C105.798 101.961 110.193 73.5017 103.49 47.0813C101.079 37.5765 97.8193 30.0967 92.7031 22.3309C87.3983 14.2791 84.5738 12.6151 80.0743 14.8927ZM147.896 14.6869C144.289 16.1407 136.592 28.764 132.949 39.1996C128.718 51.3171 127.966 56.1427 127.966 71.1424C127.966 86.007 128.646 91.0235 132.11 101.722C135.72 112.867 143.528 126.498 147.284 128.209C151.178 129.983 153.623 129.342 157.066 125.644C161.336 121.06 168.663 106.138 171.009 97.2538C177.998 70.7762 173.806 42.4444 159.754 21.1698C155.469 14.6817 152.26 12.9278 147.896 14.6869ZM215.473 14.6958C209.966 16.9132 199.668 38.1842 196.598 53.6853C194.93 62.1019 195.285 84.0042 197.223 92.3138C199.49 102.029 202.994 111.133 207.158 118.124C214.166 129.888 218.741 131.94 224.481 125.893C231.456 118.546 238.725 101.334 240.874 87.0804C243.806 67.628 240.808 46.3964 232.909 30.6798C225.791 16.5165 221.263 12.3655 215.473 14.6958ZM282.733 15.0405C280.634 16.2187 275.351 23.7245 272.263 29.9139C262.755 48.9727 260.313 74.2119 265.865 96.0281C268.796 107.546 275.032 120.322 280.557 126.129C282.908 128.602 283.843 129.082 286.269 129.069C289.843 129.048 291.467 127.778 295.407 121.922C302.143 111.91 307.11 98.4587 308.878 85.4357C310.332 74.7237 309.469 57.8364 306.97 48.1139C303.734 35.5225 296.468 20.7241 291.168 15.9275C289.166 14.1156 285.134 13.6922 282.733 15.0405ZM350.661 14.8771C347.181 16.888 340.54 27.7025 336.734 37.5572C326.105 65.0785 329.575 99.2766 345.356 122.542C348.784 127.595 350.731 129.085 353.904 129.085C357.582 129.085 358.446 128.494 361.912 123.61C368.618 114.157 373.774 101.47 376.139 88.5995C378.027 78.3184 377.311 57.7161 374.723 47.8814C371.551 35.8278 365.833 23.9496 360.114 17.5343C357.217 14.2843 353.496 13.2383 350.661 14.8771ZM419.038 14.6899C415.217 16.2298 407.14 29.4653 403.493 40.1654C396.106 61.8345 396.837 88.1523 405.386 108.323C408.382 115.394 412.917 123.054 416.107 126.438C418.216 128.672 419.102 129.085 421.789 129.085C424.541 129.085 425.338 128.69 427.667 126.166C434.029 119.275 440.511 104.823 443.358 91.1802C445.427 81.2653 445.65 64.4107 443.844 54.4282C441.568 41.8457 436.532 29.362 429.941 19.9664C426.025 14.3838 423.195 13.0147 419.038 14.6899ZM486.426 14.8927C482.256 17.0024 474.659 29.7951 470.885 41.0598C467.622 50.803 466.345 59.3674 466.345 71.5139C466.345 87.7542 469.144 100.551 475.445 113.114C481.241 124.67 485.076 129.085 489.318 129.085C492.818 129.085 494.683 127.71 498.19 122.542C517.611 93.9199 517.938 50.4992 498.948 22.1088C493.713 14.2828 490.87 12.644 486.426 14.8927ZM13.3931 23.2126C5.52905 25.4226 1.18101 29.5017 -2.02226 37.6753C-8.68956 54.6889 -9.82615 77.1105 -4.98781 96.1841C-1.46882 110.055 2.81236 116.176 11.1853 119.308C16.6945 121.37 25.4099 122.006 33.2494 120.92C36.7223 120.438 42.071 119.863 45.1354 119.641C51.9297 119.149 54.5758 117.9 55.9895 114.516C56.9976 112.104 56.9233 111.477 54.8708 105.067C51.0093 93.0143 50.0146 86.2172 50.0146 71.8853C50.0146 57.5541 51.0093 50.7563 54.87 38.7056C57.274 31.2006 57.1922 29.1741 54.3767 26.5295C53.0151 25.2503 50.9075 24.6189 45.3397 23.821C34.0606 22.2061 18.0606 21.9008 13.3931 23.2126ZM529.175 23.596C520.436 24.7504 519.419 25.0445 517.846 26.8734C515.705 29.3627 515.664 31.959 517.675 37.9234C520.965 47.6816 522.142 54.8732 522.576 67.8858C523.049 82.0282 522.032 90.6625 518.522 102.334C515.625 111.97 515.58 113.603 518.131 116.458C520.117 118.68 520.769 118.914 526.558 119.477C530.009 119.813 535.674 120.472 539.147 120.941C546.191 121.893 555.01 121.435 560.307 119.84C568.489 117.378 572.628 112.543 576.26 101.206C581.748 84.0718 582.138 64.5459 577.359 46.1513C574.862 36.5432 572.439 31.6879 568.34 28.0798C561.479 22.0404 550.479 20.7813 529.175 23.596ZM111.937 26.5139C109.211 29.2394 109.133 31.881 111.567 39.0355C115.284 49.9651 116.069 55.6168 116.075 71.5139C116.08 87.145 114.997 94.8002 111.226 105.758C109.294 111.374 109.384 113.661 111.643 116.345C115.263 120.648 121.188 119.779 123.666 114.582C124.842 112.117 124.804 111.781 122.509 104.402C118.56 91.7099 117.725 86.1533 117.678 72.2567C117.63 58.3393 118.599 51.566 122.425 39.0838C123.633 35.1384 124.623 31.3439 124.623 30.6523C124.623 29.96 123.486 28.2574 122.097 26.8682C118.73 23.5016 115.077 23.3738 111.937 26.5139ZM179.963 26.1358C177.116 28.9831 176.962 31.2058 179.12 38.3364C182.212 48.5515 183.404 54.6065 183.973 62.971C184.501 70.7458 184.505 70.7569 185.03 66.3139C186.431 54.4705 188.085 45.7071 190.157 39.1469C192.691 31.1278 192.581 29.0047 189.486 26.1365C186.83 23.6747 182.424 23.6747 179.963 26.1358ZM247.707 26.1365C244.598 29.0181 244.507 31.0929 247.127 39.4634C254.287 62.347 253.908 80.3487 245.655 109.4C244.567 113.227 245.576 115.932 248.85 117.971C251.997 119.93 255.09 119.402 257.783 116.447C260.359 113.619 260.345 111.926 257.673 103.533C254.452 93.4147 253.139 84.262 253.143 71.9403C253.147 59.8451 254.352 50.9308 257.323 41.0345C260.371 30.8797 260.416 29.2751 257.731 26.5904C254.803 23.6628 250.582 23.4719 247.707 26.1365ZM315.096 26.8682C313.707 28.2574 312.57 29.9778 312.57 30.6917C312.57 31.4049 313.574 35.1243 314.802 38.9567C318.384 50.1367 319.557 58.1707 319.557 71.5139C319.557 84.9566 318.418 92.6555 314.681 104.486C312.377 111.779 312.341 112.095 313.522 114.573C316.005 119.779 321.927 120.652 325.55 116.345C327.75 113.73 327.973 110.514 326.24 106.368C323.318 99.3739 321.387 88.0558 320.99 75.5996C320.547 61.6799 321.572 52.8541 324.914 41.7996C326.026 38.1225 327.079 33.7003 327.255 31.9731C327.532 29.2491 327.277 28.5345 325.33 26.5874C322.113 23.3709 318.494 23.4704 315.096 26.8682ZM383.715 25.803C380.377 28.429 379.812 31.0669 381.527 36.0225C389.249 58.3334 389.524 82.5742 382.313 105.095C380.269 111.477 380.195 112.104 381.203 114.516C382.195 116.89 385.519 119.428 387.637 119.428C389.824 119.428 393.532 116.868 394.597 114.623C395.707 112.283 395.657 111.807 393.574 105.042C390.109 93.7854 388.978 87.1554 388.553 75.5996C388.074 62.5922 389.438 51.9396 393.15 39.6951C395.407 32.2495 395.557 31.2095 394.677 29.102C392.753 24.4978 387.417 22.8917 383.715 25.803ZM450.687 26.5139C448.154 29.047 447.872 32.0259 449.688 37.0632C452.814 45.7353 454.558 55.9161 454.951 67.7996C455.399 81.3225 454.354 90.2353 451.029 101.228C448.01 111.214 447.899 113.875 450.398 116.483C454.334 120.591 459.966 119.721 462.394 114.632C463.538 112.23 463.495 111.85 461.268 104.973C457.326 92.7944 456.367 86.3212 456.367 71.8853C456.367 57.5541 457.361 50.7563 461.222 38.7056C463.715 30.925 463.565 28.975 460.264 26.1974C457.15 23.5766 453.504 23.697 450.687 26.5139ZM-17.714 71.8853C-17.714 77.8096 -17.5981 80.2335 -17.457 77.271C-17.3166 74.3085 -17.3166 69.4621 -17.457 66.4996C-17.5981 63.5371 -17.714 65.961 -17.714 71.8853ZM184.156 77.5117C184.015 84.6921 182.105 95.413 179.52 103.533C176.826 111.996 176.826 113.599 179.52 116.613C181.301 118.607 182.211 119.023 184.796 119.023C187.401 119.023 188.288 118.61 190.141 116.536C192.76 113.606 192.71 112.174 189.652 102.342C187.866 96.6016 186.801 90.9217 184.917 77.0853L184.259 72.2567L184.156 77.5117ZM43.9646 130.447C40.7911 131.936 38.4473 135.512 38.4525 138.854C38.457 141.591 41.2056 145.414 44.0137 146.587C49.0355 148.685 59.1148 147.44 67.6437 143.668C76.5909 139.712 74.7568 135.45 62.3678 131.41C55.2363 129.084 47.7065 128.69 43.9646 130.447ZM110.005 129.901C105.264 130.693 96.549 133.914 94.7535 135.54C94.021 136.202 93.4222 137.713 93.4222 138.897C93.4222 140.811 93.9355 141.288 98.0652 143.21C110.403 148.952 122.948 149.107 135.245 143.668C143.089 140.2 142.7 136.507 134.115 132.933C125.708 129.434 118.349 128.508 110.005 129.901ZM177.625 129.853C173.059 130.67 166.795 132.952 163.391 135.04C161.434 136.24 160.976 136.96 161.162 138.551C161.455 141.064 164.639 143.272 171.278 145.566C184.497 150.134 208.196 145.511 208.196 138.365C208.196 136.605 207.629 135.865 205.225 134.492C198.118 130.433 185.877 128.376 177.625 129.853ZM246.826 129.558C242.756 130.18 236.535 132.164 232.941 133.985C226.742 137.127 227.349 140.766 234.591 143.881C246.94 149.194 260.135 148.809 272.664 142.77C275.464 141.421 276.751 139.101 275.913 136.917C275.385 135.541 269.57 132.579 264.363 131.034C260.148 129.783 250.603 128.98 246.826 129.558ZM311.56 130.189C304.953 131.565 297.267 135.151 296.63 137.155C295.845 139.629 297.559 141.727 301.948 143.668C314.264 149.115 326.788 148.954 339.176 143.188C343.653 141.104 343.857 140.894 343.633 138.592C343.446 136.665 342.801 135.838 340.428 134.487C332.619 130.041 320.756 128.275 311.56 130.189ZM379.429 130.19C376.773 130.786 372.5 132.161 369.933 133.245C362.255 136.487 361.985 139.643 369.077 143.224C380.568 149.024 395.417 149.054 406.915 143.299C410.392 141.559 411.034 140.914 411.227 138.97C411.53 135.92 409.409 134.318 401.7 131.77C394.184 129.286 386.033 128.708 379.429 130.19ZM449.078 129.807C443.759 130.771 436.204 133.451 434.07 135.129C432.791 136.136 432.173 137.346 432.173 138.845C432.173 140.882 432.622 141.273 437.559 143.535C449.483 149 461.84 149.044 473.996 143.668C480.505 140.79 481.367 137.022 476.129 134.35C468.297 130.355 456.753 128.416 449.078 129.807ZM516.375 129.899C511.897 130.647 505.613 132.912 502.189 135.011C500.311 136.162 499.774 136.999 499.774 138.771C499.774 140.839 500.201 141.247 504.417 143.21C520.668 150.773 533.947 148.508 533.947 138.173C533.947 135.332 533.566 134.474 531.404 132.435C527.863 129.095 524.54 128.534 516.375 129.899ZM77.5091 150.866C71.659 157.064 65.8586 168.873 62.4154 181.595C60.5604 188.448 60.4423 189.865 60.4423 205.228C60.4423 220.498 60.5686 222.037 62.3701 228.683C64.9605 238.239 67.6683 244.919 71.7882 251.918C76.7038 260.27 79.3507 262.799 83.172 262.799C85.7684 262.799 86.6219 262.365 88.9167 259.88C92.6281 255.86 97.6633 246.836 100.711 238.743C110.894 211.698 107.624 178.29 92.5961 155.823C86.3983 146.557 82.7174 145.348 77.5091 150.866ZM147.896 148.401C146.163 149.099 141.626 154.844 138.491 160.307C135.365 165.754 132.266 173.878 130.061 182.402C128.165 189.733 127.999 191.5 127.983 204.485C127.964 219.835 128.611 224.633 132.191 235.685C135.743 246.648 143.614 260.176 147.501 261.999C149.928 263.137 152.993 262.989 154.917 261.642C157.372 259.922 162.268 252.365 165.916 244.665C179.202 216.618 176.423 178.602 159.297 154.099C155.234 148.287 152.085 146.712 147.896 148.401ZM215.473 148.376C212.042 149.829 204.019 163.298 200.192 174.028C196.498 184.384 195.574 190.756 195.614 205.599C195.645 216.874 195.932 220.543 197.217 226.028C199.497 235.763 203 244.857 207.158 251.838C214.166 263.602 218.741 265.654 224.481 259.607C231.456 252.26 238.725 235.048 240.874 220.794C243.472 203.557 241.562 185.164 235.617 170.175C233.091 163.803 227.921 154.74 224.745 151.113C222.133 148.131 218.549 147.072 215.473 148.376ZM282.733 148.755C280.634 149.933 275.351 157.439 272.263 163.628C262.547 183.104 260.316 207.506 266.14 230.603C268.455 239.778 275.628 254.529 280.127 259.358C283.53 263.013 286.018 263.696 289.745 261.998C293.854 260.126 302.762 243.974 306.142 232.268C310.331 217.761 310.734 196.77 307.103 182.199C304.043 169.922 296.82 154.972 291.567 150.041C289.258 147.875 285.32 147.301 282.733 148.755ZM350.602 148.581C348.253 149.712 341.289 160.38 338.106 167.723C325.869 195.962 329.054 233.297 345.688 256.607C349.373 261.771 350.763 262.799 354.061 262.799C357.567 262.799 358.477 262.165 361.912 257.324C368.668 247.801 373.936 234.805 376.067 222.402C377.55 213.769 377.542 196.609 376.05 188.057C372.779 169.299 361.168 147.554 354.505 147.707C353.3 147.735 351.544 148.128 350.602 148.581ZM415.879 151.204C412.021 155.24 406.248 165.795 403.516 173.808C395.878 196.215 396.854 222.573 406.098 243.571C409.16 250.527 415.19 260.039 417.614 261.736C419.386 262.977 423.478 263.131 425.528 262.034C427.736 260.852 434.386 250.515 437.558 243.332C449.123 217.142 447.406 182.836 433.339 159.022C428.039 150.049 425.61 147.733 421.45 147.683C419.799 147.663 418.449 148.517 415.879 151.204ZM486.426 148.607C482.256 150.716 474.659 163.509 470.885 174.774C467.622 184.517 466.345 193.081 466.345 205.228C466.345 216.915 467.517 225.201 470.513 234.698C474.064 245.956 482.196 260.174 486.102 261.953C490.799 264.093 493.846 262.658 498.19 256.256C517.707 227.492 517.892 184.013 498.621 155.026C494.09 148.21 490.717 146.435 486.426 148.607ZM12.0515 157.334C3.26403 160.12 -1.22441 166.221 -4.90238 180.376C-7.65176 190.96 -8.61378 202.848 -7.6057 213.804C-6.66448 224.032 -4.2026 234.642 -1.23779 241.249C3.74541 252.352 14.9888 256.76 32.878 254.622C36.9638 254.134 42.8139 253.49 45.8783 253.193C52.6213 252.537 54.5922 251.575 55.9754 248.264C56.9597 245.908 56.8594 245.159 54.5112 237.367C50.6847 224.668 49.9574 219.401 50.0205 204.856C50.0814 190.816 51.328 182.688 55.1828 171.213C58.577 161.107 56.8186 159.131 42.7315 157.228C29.4808 155.438 17.9016 155.478 12.0515 157.334ZM532.089 156.958C528.821 157.509 524.867 157.982 523.303 158.008C521.191 158.044 519.903 158.614 518.289 160.228C515.595 162.922 515.525 165.108 517.896 172.373C521.667 183.924 522.421 189.392 522.427 205.228C522.432 220.859 521.349 228.514 517.578 239.472C515.585 245.265 515.714 247.467 518.207 250.257C520.098 252.373 520.856 252.649 526.192 253.164C529.436 253.478 535.432 254.134 539.518 254.622C555.682 256.554 567.314 253.011 572.203 244.669C575.01 239.878 578.349 228.689 579.699 219.549C582.802 198.547 577.808 170.916 569.428 162.713C563.998 157.398 560.484 156.293 548.433 156.112C542.369 156.021 535.554 156.374 532.089 156.958ZM111.937 160.228C109.211 162.953 109.133 165.595 111.567 172.749C115.284 183.679 116.069 189.331 116.075 205.228C116.08 220.859 114.997 228.514 111.226 239.472C110.423 241.807 109.765 244.642 109.765 245.773C109.765 248.282 112.807 252.069 115.329 252.702C118.248 253.435 122.199 251.374 123.63 248.371C124.852 245.809 124.826 245.566 122.509 238.116C118.56 225.424 117.725 219.867 117.678 205.971C117.63 192.053 118.599 185.28 122.425 172.798C123.633 168.852 124.623 165.058 124.623 164.366C124.623 163.674 123.486 161.971 122.097 160.582C118.73 157.216 115.077 157.088 111.937 160.228ZM179.522 160.364C176.984 163.081 176.828 165.17 178.748 170.754C181.296 178.166 183.444 188.822 183.976 196.685C184.497 204.403 184.508 204.438 185.01 200.028C186.258 189.052 188.084 179.427 190.172 172.818C192.69 164.844 192.577 162.716 189.486 159.851C186.57 157.148 182.322 157.366 179.522 160.364ZM247.707 159.851C244.705 162.633 244.515 164.888 246.71 171.701C249.574 180.593 250.751 186.364 251.71 196.217C253.088 210.369 251.53 222.435 245.655 243.114C244.567 246.941 245.576 249.646 248.85 251.685C251.997 253.644 255.09 253.116 257.783 250.161C260.359 247.333 260.345 245.64 257.673 237.247C254.452 227.129 253.139 217.976 253.143 205.654C253.147 193.559 254.352 184.645 257.323 174.749C260.371 164.594 260.416 162.989 257.731 160.304C254.803 157.377 250.582 157.186 247.707 159.851ZM314.876 160.683C313.608 162.127 312.57 163.847 312.57 164.505C312.57 165.164 313.574 168.838 314.802 172.671C318.384 183.851 319.557 191.885 319.557 205.228C319.557 218.671 318.418 226.37 314.681 238.2C312.377 245.493 312.341 245.809 313.522 248.288C316.005 253.493 321.927 254.366 325.55 250.059C327.821 247.361 327.946 244.48 326.015 239.399C325.239 237.356 323.819 232.175 322.858 227.885C321.352 221.154 321.113 218.1 321.115 205.599C321.118 190.091 322.062 183.274 325.683 172.598C328.059 165.593 327.968 162.939 325.256 160.228C322.01 156.982 317.97 157.158 314.876 160.683ZM383.281 159.911C380.056 162.625 379.822 164.732 382.032 171.135C385.955 182.5 387.115 190.025 387.175 204.485C387.236 219.445 386.53 224.596 382.662 237.431C380.136 245.815 380.129 245.879 381.446 248.56C383.314 252.359 387.141 253.782 390.809 252.042C392.388 251.292 393.907 249.789 394.635 248.256C395.796 245.811 395.758 245.451 393.653 238.842C389.502 225.809 388.747 220.615 388.765 205.228C388.784 189.998 389.903 182.458 393.873 170.8C395.553 165.868 395.635 165.108 394.716 162.91C392.639 157.938 387.292 156.537 383.281 159.911ZM450.687 160.228C448.154 162.761 447.872 165.74 449.688 170.777C452.814 179.449 454.558 189.63 454.951 201.514C455.399 215.037 454.354 223.949 451.029 234.942C448.018 244.902 447.902 247.591 450.375 250.172C451.485 251.331 453.19 252.479 454.163 252.723C456.99 253.433 460.966 251.339 462.366 248.403C463.557 245.906 463.532 245.597 461.687 240.005C454.273 217.534 454.211 192.871 461.513 171.429C463.727 164.929 463.481 162.618 460.291 159.934C457.149 157.29 453.514 157.401 450.687 160.228ZM-17.714 205.599C-17.714 211.524 -17.5981 213.948 -17.457 210.985C-17.3166 208.023 -17.3166 203.176 -17.457 200.214C-17.5981 197.251 -17.714 199.675 -17.714 205.599ZM184.156 211.226C184.015 218.406 182.105 229.127 179.52 237.247C176.806 245.772 176.804 247.493 179.501 250.19C182.438 253.127 184.941 253.628 187.937 251.879C192.736 249.076 192.98 246.814 189.644 236.056C187.865 230.315 186.799 224.619 184.917 210.799L184.259 205.971L184.156 211.226ZM43.9646 264.207C40.7874 265.65 38.4473 269.2 38.4525 272.569C38.457 275.305 41.2056 279.128 44.0137 280.301C49.0273 282.396 59.6913 281.024 67.6371 277.262C75.4929 273.542 75.1431 270.24 66.5138 266.647C61.2045 264.437 53.8018 262.799 49.2212 262.822C47.9955 262.827 45.6301 263.451 43.9646 264.207ZM109.817 263.607C104.527 264.645 97.3713 267.23 95.3195 268.843C94.0433 269.847 93.4222 271.061 93.4222 272.549C93.4222 274.539 93.8917 274.981 98.0652 276.924C110.403 282.666 122.948 282.821 135.245 277.382C142.615 274.123 142.684 270.558 135.442 267.169C127.311 263.365 117.797 262.042 109.817 263.607ZM175.881 263.962C173.225 264.537 168.88 266.098 166.224 267.432C161.914 269.596 161.395 270.093 161.395 272.055C161.395 274.869 164.532 277.078 171.752 279.349C185.558 283.693 208.196 279.162 208.196 272.055C208.196 270.093 207.678 269.596 203.368 267.436C194.736 263.11 185.32 261.92 175.881 263.962ZM246.826 263.269C238.466 264.558 229.629 268.559 228.921 271.378C228.27 273.972 230.008 275.674 235.583 277.906C245.499 281.875 255.918 282.324 265.834 279.209C272.684 277.057 275.798 274.828 275.798 272.079C275.798 270.319 275.23 269.579 272.826 268.206C266.294 264.475 254.07 262.154 246.826 263.269ZM314.427 263.269C310.361 263.896 304.137 265.878 300.585 267.678C294.573 270.724 295.006 273.973 301.855 277.215C313.713 282.83 328.329 282.564 340.121 276.52C343.077 275.005 343.744 274.167 343.76 271.95C343.793 267.175 325.06 261.632 314.427 263.269ZM380.301 263.583C374.876 264.551 365.454 268.579 364.516 270.331C363.093 272.99 364.478 274.738 370.034 277.3C382.322 282.963 395.794 282.602 408.194 276.276C412.861 273.895 412.994 270.662 408.527 268.172C401.165 264.066 388.833 262.062 380.301 263.583ZM446.861 263.994C441.284 265.191 435.445 267.497 433.473 269.281C432.758 269.928 432.173 271.427 432.173 272.611C432.173 274.525 432.686 275.002 436.816 276.924C449.288 282.729 462.233 282.828 474.097 277.211C481.511 273.701 481.462 270.52 473.941 267.11C464.771 262.952 456.269 261.974 446.861 263.994ZM515.003 263.899C509.575 265.093 502.837 267.701 501.074 269.287C499.734 270.494 499.383 272.945 500.343 274.395C500.643 274.849 502.03 275.805 503.424 276.52C511.599 280.711 524.146 282.635 528.526 280.371C534.12 277.478 535.767 271.02 532.042 266.592C528.905 262.864 523.549 262.017 515.003 263.899ZM77.5091 284.58C71.6114 290.829 65.768 302.77 62.4726 315.309C59.9126 325.048 59.1958 344.929 61.024 355.451C62.7185 365.202 66.2947 375.837 69.128 379.552C75.6356 388.084 88.598 388.87 95.7548 381.167C98.3504 378.373 100.28 374.391 102.537 367.17C105.505 357.677 106.39 351.003 106.33 338.571C106.233 318.579 101.847 303.184 92.0828 288.564C86.6324 280.403 82.5139 279.278 77.5091 284.58ZM146.248 283.273C140.747 287.902 133.326 302.962 129.98 316.285C128.214 323.319 128.019 325.471 127.993 338.199C127.964 353.487 128.61 358.342 132.12 369.179C135.641 380.049 139.802 384.599 147.71 386.222C157.417 388.216 165.341 382.31 169.366 370.082C178.51 342.299 174.548 309.539 159.436 287.998C154.649 281.172 150.508 279.689 146.248 283.273ZM215.473 282.09C213.346 282.991 209.362 288.452 205.588 295.641C198.896 308.387 196.097 319.1 195.442 334.485C194.827 348.942 196.604 360.919 201.16 373.025C206.19 386.389 220.43 390.901 229.934 382.141C233.81 378.568 235.208 375.997 237.871 367.545C245.504 343.319 242.45 313.588 230.177 292.643C224.525 282.997 220.37 280.015 215.473 282.09ZM283.152 282.096C279.674 283.501 271.553 297.162 268.027 307.54C264.189 318.835 263.217 325.162 263.205 338.942C263.191 353.02 264.69 362.077 268.802 372.77C272.27 381.788 278.136 386.397 286.218 386.454C297.233 386.53 303.124 379.376 307.602 360.485C308.943 354.823 309.186 351.522 309.187 338.942C309.187 325.321 309.023 323.436 307.216 316.285C304.748 306.516 301.769 299.175 297.193 291.586C291.692 282.46 288.158 280.072 283.152 282.096ZM350.602 282.295C348.275 283.416 341.299 294.07 338.179 301.27C332.17 315.136 329.494 332.533 331.034 347.724C332.531 362.488 336.824 376.342 341.399 381.167C348.706 388.877 361.546 388.099 368.065 379.552C370.849 375.902 374.449 365.298 376.081 355.937C377.529 347.632 377.535 330.285 376.092 322.012C372.77 302.961 361.232 281.267 354.505 281.421C353.3 281.449 351.544 281.842 350.602 282.295ZM418.218 282.289C414.484 284.088 406.282 298.836 402.618 310.342C399.541 320.005 398.517 327.445 398.579 339.685C398.637 351.166 399.818 359.132 402.892 368.786C405.432 376.761 408.486 381.351 413.172 384.235C416.311 386.166 417.52 386.477 421.715 386.429C432.519 386.306 437.976 380.187 442.228 363.428C448.723 337.822 444.468 309.292 431.174 289.312C426.119 281.715 422.962 280.004 418.218 282.289ZM483.861 284.58C477.964 290.829 472.12 302.77 468.825 315.309C466.265 325.048 465.548 344.929 467.376 355.451C469.071 365.202 472.647 375.837 475.48 379.552C482.368 388.582 495.5 388.868 502.963 380.15C505.913 376.703 510.121 364.983 511.756 355.656C512.979 348.681 512.972 328.622 511.745 322.334C509.227 309.433 504.737 297.939 498.621 288.74C493.1 280.437 488.892 279.25 483.861 284.58ZM12.0515 291.003C3.23283 293.888 -1.23333 299.969 -4.90238 314.09C-11.1514 338.14 -7.76988 365.747 3.82862 385.37C14.0825 402.72 29.9117 413.708 46.2497 414.821C51.5598 415.183 52.547 415.035 55.5171 413.433C60.4646 410.766 62.6026 406.201 62.561 398.39C62.5268 391.936 62.0113 389.963 57.7085 379.799C48.0489 356.984 47.104 328.979 55.1828 304.927C57.2896 298.655 57.1239 296.538 54.3203 293.904C51.9691 291.696 43.1111 290.358 27.6778 289.881C17.9878 289.581 15.9501 289.728 12.0515 291.003ZM528.813 290.972C520.395 292.156 519.438 292.451 517.791 294.366C515.609 296.902 515.754 299.526 518.582 308.647C522.029 319.761 523.049 328.402 522.586 342.57C522.119 356.874 520.296 366.503 516.097 376.862C510.891 389.701 510.213 392.18 510.21 398.37C510.207 405.279 511.651 409.237 515.291 412.3C518.218 414.763 521.539 415.42 527.823 414.776C553.297 412.166 574.757 386.719 579.699 353.263C582.802 332.261 577.808 304.63 569.428 296.427C563.945 291.06 560.471 289.965 548.433 289.809C541.832 289.724 534.664 290.148 528.813 290.972ZM111.937 293.942C109.279 296.6 109.135 299.315 111.323 305.539C114.55 314.714 115.787 322.233 116.211 335.228C116.56 345.912 116.387 349.239 115.087 356.844C113.57 365.711 110.437 375.944 106.35 385.37C103.953 390.903 103.057 400.684 104.504 405.515C107.836 416.636 122.259 418.556 128.08 408.653C130.012 405.367 130.192 404.446 130.164 397.999C130.139 391.935 129.839 390.262 128.039 386.113C120.273 368.212 117.624 356.19 117.643 338.942C117.657 325.784 118.726 318.579 122.479 306.337C123.717 302.296 124.546 298.254 124.321 297.353C124.095 296.454 123.022 294.83 121.937 293.744C119.106 290.914 114.881 290.998 111.937 293.942ZM179.458 294.146C176.817 296.974 176.859 298.428 179.874 308.475C182.482 317.164 184.053 326.325 184.053 332.849C184.053 335.723 184.223 337.905 184.431 337.698C184.638 337.49 185.129 333.954 185.521 329.841C186.39 320.718 187.873 313.393 190.466 305.415C192.68 298.603 192.494 296.352 189.486 293.565C186.54 290.835 182.323 291.079 179.458 294.146ZM247.565 293.564C244.706 296.422 244.543 298.688 246.71 305.415C249.574 314.307 250.751 320.078 251.71 329.931C253.337 346.638 250.527 363.896 243.332 381.402C239.549 390.608 239.411 391.188 239.404 397.999C239.398 404.157 239.634 405.479 241.256 408.377C245.703 416.316 257.039 417.475 262.236 410.521C265.115 406.668 265.985 402.985 265.611 396.235C265.368 391.843 264.714 388.884 263.212 385.37C255.766 367.953 253.139 355.952 253.143 339.368C253.147 327.273 254.352 318.359 257.323 308.463C260.371 298.308 260.416 296.703 257.731 294.018C254.779 291.066 250.265 290.864 247.565 293.564ZM315.256 293.744C312.299 296.701 312.231 298.357 314.742 306.196C318.385 317.568 319.557 325.54 319.557 338.942C319.557 356.219 316.917 368.196 309.157 386.113C307.39 390.194 307.061 391.98 307.033 397.645C307.004 403.385 307.268 404.879 308.876 408.045C312.99 416.147 324.09 417.549 329.857 410.695C332.696 407.321 333.576 403.607 333.234 396.449C332.975 391.026 332.435 388.97 329.152 380.913C322.902 365.572 320.78 354.939 320.757 338.83C320.739 327.679 322.577 315.33 325.538 306.683C328.061 299.318 328.003 296.689 325.256 293.942C322.312 290.998 318.087 290.914 315.256 293.744ZM382.994 293.813C380.019 296.991 379.875 298.597 382.009 304.782C388.421 323.359 389.257 346.37 384.224 365.743C383.249 369.493 380.788 376.698 378.756 381.752C373.445 394.955 373.052 403.212 377.425 409.71C381.473 415.725 391.084 416.824 396.401 411.878C399.871 408.651 401.239 404.794 401.191 398.37C401.144 392.065 400.5 389.609 396.166 379.22C386.745 356.63 385.867 328.028 393.874 304.514C395.553 299.582 395.635 298.822 394.716 296.624C392.578 291.508 386.515 290.053 382.994 293.813ZM450.614 294.015C448.667 295.963 448.411 296.677 448.688 299.401C448.864 301.128 449.917 305.551 451.028 309.228C458.01 332.324 456.292 358.636 446.267 382.149C441.631 393.023 441.002 401.769 444.384 408.31C449.14 417.506 462.591 417.214 467.221 407.814C468.635 404.944 468.935 403.176 468.891 397.999C468.834 391.454 468.424 389.956 463.383 377.942C454.455 356.659 453.719 328.029 461.513 305.143C463.727 298.643 463.481 296.332 460.291 293.648C457.116 290.976 453.516 291.113 450.614 294.015ZM-17.714 339.313C-17.714 345.238 -17.5981 347.661 -17.457 344.699C-17.3166 341.737 -17.3166 336.889 -17.457 333.928C-17.5981 330.966 -17.714 333.389 -17.714 339.313ZM184.053 345.001C184.053 355.755 180.756 369.519 174.917 383.142C172.36 389.108 171.846 391.175 171.589 396.513C171.204 404.492 172.72 409.044 176.879 412.406C179.433 414.47 180.255 414.713 184.679 414.713C190.979 414.713 193.854 412.859 196.495 407.09C198.115 403.55 198.304 402.294 198.01 396.995C197.725 391.859 197.087 389.493 193.8 381.385C189.233 370.119 186.643 359.863 185.523 348.619C185.077 344.135 184.563 340.319 184.382 340.138C184.201 339.957 184.053 342.145 184.053 345.001Z" fill="black"/>
</g>
</svg>
