<svg width="573" height="278" viewBox="0 0 573 278" fill="none" xmlns="http://www.w3.org/2000/svg">
<mask id="mask0_439_10181" style="mask-type:alpha" maskUnits="userSpaceOnUse" x="0" y="0" width="574" height="278">
<path fill-rule="evenodd" clip-rule="evenodd" d="M77 58.4549C77 58.9723 81.0571 61.7937 86.0147 64.7246C104.071 75.3977 110.661 83.5067 128.363 116.829C136.08 131.356 140.721 138.655 149.163 149.545C155.141 157.255 160.276 163.318 160.576 163.02C160.875 162.72 157.89 157.528 153.941 151.48C146.078 139.438 142.226 131.623 139.006 121.178C135.579 110.065 136.575 101.593 141.307 101.593C143.564 101.593 154.299 109.105 161.034 115.397C169.86 123.642 176.883 134.082 183.453 148.725C191.158 165.899 191.579 166.641 198.619 175.451C207.897 187.061 214.015 191.565 232.735 200.562C261.691 214.477 270.684 222.065 277.202 238.083C279.276 243.182 282.941 259.44 285.142 273.314C285.469 275.37 286.157 277.052 286.67 277.052C287.805 277.052 288.125 275.74 290.623 260.89C291.703 254.469 293.526 246.394 294.674 242.945C297.505 234.443 303.568 224.432 308.787 219.639C314.819 214.1 326.604 206.974 337.623 202.201C342.766 199.974 349.91 196.53 353.497 194.549C364.644 188.395 381.247 170.16 385.488 159.415C389.196 150.016 396.761 134.933 400.584 129.31C408.579 117.552 425.738 102.761 431.914 102.305C434.238 102.133 435.092 102.679 436.271 105.082C439.566 111.802 431.917 132.953 419.227 152.208C415.878 157.291 413.389 161.702 413.698 162.01C414.253 162.565 425.761 148.573 432.643 138.978C434.608 136.236 440.965 125.138 446.77 114.316C459.554 90.4752 463.198 85.031 472.008 76.596C478.441 70.437 492.59 60.719 495.123 60.719C495.763 60.719 496.287 60.053 496.287 59.2395C496.287 57.9525 495.802 57.9665 492.544 59.3532C480.118 64.6399 479.587 64.9569 456.355 80.8968C453.884 82.5915 443.327 89.8113 432.895 96.9393C422.463 104.068 413.021 110.704 411.913 111.685C407.211 115.85 392.503 123.742 385.08 126.082C380.672 127.473 372.556 129.491 367.045 130.566C344.697 134.924 335.6 138.674 324.781 147.984C319.431 152.588 320.004 153.602 325.757 149.714C342.205 138.597 357.745 133.408 368.475 135.449C374.822 136.656 379.49 141.849 379.476 147.686C379.453 157.687 368.533 172.148 358.89 174.948C353.913 176.392 353.331 176.368 349.183 174.535C345.719 173.006 344.515 171.816 343.587 169.007C342.936 167.038 342.692 164.521 343.045 163.412C344.02 160.342 348.411 155.545 351.902 153.735C356.724 151.235 353.498 151.108 346.929 153.54C342.163 155.303 339.21 157.515 331.321 165.226C321.376 174.946 318.858 179.087 317.281 188.326C316.618 192.205 316.139 192.73 322.715 182.37C325.54 177.921 327.514 176.073 331.646 174.018C338.353 170.68 339.437 170.711 344.046 174.369C346.119 176.014 348.202 177.359 348.676 177.359C349.149 177.359 349.537 178.981 349.537 180.963C349.537 186.271 345.017 193.807 339.741 197.297C335.381 200.181 329.072 202.117 327.888 200.934C327.074 200.122 332.084 193.5 336.455 189.61C338.434 187.848 339.474 186.39 338.765 186.37C334.131 186.234 317.799 198.776 308.644 209.5C301.883 217.42 294.787 230.839 292.007 240.963C290.293 247.201 290.26 247.242 286.915 246.945C283.63 246.653 283.478 246.435 280.612 237.899C277.03 227.23 274.711 222.542 269.111 214.649C261.669 204.158 243.964 188.917 236.738 186.78C234.711 186.181 235.31 187.187 239.982 192.227C243.135 195.627 245.713 199.055 245.713 199.847C245.713 203.661 233.814 198.641 228.985 192.79C224.974 187.931 221.978 177.359 224.611 177.359C225.085 177.359 227.169 176.014 229.241 174.369C233.797 170.754 235.412 170.675 241.503 173.771C247.202 176.667 249.673 179.21 253.742 186.361L256.845 191.815L256.245 187.495C254.744 176.671 241.995 161.186 229.409 154.899C220.312 150.355 216.569 150.208 222.955 154.646C230.705 160.033 232.853 166.43 228.688 171.718C223.325 178.527 211.718 176.58 203.495 167.491C198.858 162.366 195.172 155.101 194.322 149.415C193.767 145.702 194.048 144.378 196.012 141.47C199.182 136.775 202.898 135.195 210.765 135.195C220.796 135.195 230.895 139.003 245.077 148.132C248.846 150.558 252.12 152.351 252.354 152.118C253.321 151.152 242.353 142.522 235.76 139.062C230.172 136.129 224.791 134.506 210.482 131.438C200.484 129.294 189.651 126.587 186.407 125.421C180.224 123.201 166.074 115.252 161.21 111.266C159.644 109.983 150.275 103.393 140.392 96.6233C130.509 89.8531 117.481 80.8848 111.441 76.6947C97.7048 67.1651 89.6176 62.2871 84.4873 60.4348C82.291 59.6423 79.7074 58.6613 78.747 58.2546C77.7867 57.8478 77 57.9385 77 58.4549Z" fill="#FF0000"/>
<path fill-rule="evenodd" clip-rule="evenodd" d="M251.201 5.32512C262.933 18.0246 268.984 35.3564 272.044 65.0229L272.714 71.5191L263.851 63.0211C258.877 58.2509 252.358 53.133 248.994 51.357C245.698 49.616 233.357 44.9977 221.571 41.096C199.399 33.7544 186.335 27.6969 171.665 17.9547C167.594 15.2513 164.118 13.1835 163.941 13.3614C163.763 13.5383 166.819 17.2521 170.731 21.6135C179.23 31.0889 182.54 37.5321 182.553 44.63C182.569 52.9141 178.765 54.6431 164.169 52.984C148.416 51.1931 139.76 46.7217 120.617 30.4863C115.128 25.831 110.637 22.2771 110.637 22.5899C110.637 23.3685 118.005 34.2491 123.467 41.5368C125.938 44.8348 135.84 55.2767 145.47 64.7411C155.1 74.2065 162.753 82.1768 162.477 82.4537C161.758 83.1713 147.126 79.5574 140.098 76.9269C129.624 73.0062 119.855 61.8438 117.57 51.1871L116.496 46.1761L105.824 43.6775C85.2972 38.8724 74.4614 37.6161 54.8746 37.774C33.3388 37.9479 20.545 39.3011 9.67317 42.5562C-3.05271 46.3669 -3.14961 46.9686 8.95391 47.0036C17.3123 47.0266 20.8796 47.4913 25.2411 49.1243C32.7244 51.9257 43.3345 59.1834 53.8856 68.7178C62.4058 76.4182 69.2737 80.9246 87.1053 90.5159C97.3777 96.0407 102.803 100.711 109.413 109.717C111.99 113.228 114.265 115.597 114.47 114.982C114.675 114.367 113.435 111.002 111.714 107.505C106.303 96.5084 90.393 81.1714 71.3376 68.5828C62.5766 62.7953 59.1012 59.5402 55.7996 54.0294C52.9306 49.2412 53.1563 47.3324 56.8585 45.0797C61.6186 42.1834 66.2538 41.8096 76.1726 43.5226C92.0423 46.263 103.137 53.4717 111.683 66.595C119.68 78.8738 134.115 86.4333 157.227 90.445C171.146 92.8615 174.313 94.3317 194.849 107.905C205.399 114.878 214.703 120.994 215.524 121.497C216.345 121.999 215.303 120.023 213.207 117.104C211.112 114.187 209.545 111.652 209.725 111.473C210.338 110.858 249.235 120.805 252.115 122.313C258.928 125.881 268.775 139.979 264.453 139.979C263.89 139.979 260.968 139.113 257.96 138.056C247.972 134.544 251.318 137.467 269.07 147.765L276.157 151.878L276.791 181.158C277.139 197.261 277.883 215.16 278.442 220.931C280.411 241.235 284.245 262.088 286.408 264.256C286.873 264.722 287.953 262.698 288.806 259.758C293.323 244.195 296.294 215.307 297.14 178.719C297.665 156.001 297.996 151.799 299.35 150.67C300.225 149.941 305.211 146.939 310.431 143.999C321.412 137.816 320.921 138.148 320.186 137.412C319.874 137.1 317.239 137.551 314.33 138.416C306.907 140.621 306.174 139.327 310.934 132.415C317.376 123.057 319.243 122.111 342.78 116.29C354.343 113.429 363.937 111.224 364.101 111.388C364.265 111.551 362.824 113.666 360.9 116.088C358.976 118.509 357.398 120.834 357.393 121.253C357.387 121.673 365.549 116.557 375.532 109.885C385.514 103.212 395.74 96.7243 398.259 95.467C400.776 94.2088 408.547 92.009 415.528 90.5769C444.137 84.7064 452.1 80.216 464.244 63.1061C472.419 51.5889 483.389 45.5864 500.956 43.0169C508.326 41.9386 509.371 42.0065 513.521 43.8434C520.054 46.7347 520.794 48.7455 517.31 54.1434C514.461 58.5568 509.848 63.217 505.23 66.3452C503.857 67.2756 499.768 70.053 496.144 72.5155C486.638 78.9757 473.517 90.7698 467.979 97.8316C463.308 103.787 457.577 114.625 458.572 115.62C458.846 115.895 461.587 112.774 464.663 108.685C471.631 99.4237 476.102 95.7728 488.747 89.0228C503.472 81.1634 511.441 75.8046 520.832 67.4445C531.272 58.152 542.865 50.5025 549.493 48.5337C552.478 47.6472 558.654 47.0216 564.601 47.0036C571.798 46.9816 574.171 46.6888 572.944 45.9732C570.278 44.4181 559.92 41.2779 553.498 40.0766C545.258 38.5356 512.962 36.8545 505.23 37.5641C493.495 38.6415 477.939 41.137 467.02 43.6935C456.691 46.1121 456.281 46.31 456.271 48.8695C456.259 52.1445 452.305 60.8214 448.627 65.6466C444.371 71.2273 437.614 75.8386 430.404 78.0793C421.985 80.6957 411.327 82.9584 411.327 82.1289C411.327 81.7771 418.32 74.5233 426.866 66.0104C435.413 57.4974 444.795 47.6082 447.715 44.0353C454.118 36.2009 462.275 24.3309 462.275 22.8478C462.275 22.2571 460.14 23.7603 457.529 26.1878C443.99 38.7794 430.341 48.0839 421.72 50.5984C413.764 52.9191 400.506 54.1514 396.145 52.977C391.392 51.6968 389.949 49.0554 390.671 42.9549C391.48 36.129 395.173 29.5519 402.866 21.2397C406.562 17.2451 409.348 13.7382 409.056 13.4473C408.765 13.1555 406.484 14.4767 403.988 16.3826C393.072 24.7187 375.677 33.0378 354.21 40.1896C323.426 50.4455 320.735 51.8297 308.183 63.8766L301.44 70.3478V66.7579C301.44 61.1242 303.384 48.2668 305.513 39.8288C309.096 25.6202 315.73 12.6678 323.768 4.1818C327.445 0.301083 327.574 0.0142504 324.916 1.64329C314.09 8.27738 301.229 20.6521 294.945 30.4783C291.228 36.2919 287.5 45.3306 287.406 48.7575C287.38 49.733 286.086 47.1115 284.533 42.932C282.979 38.7514 280.013 32.68 277.941 29.4399C271.758 19.7686 258.592 7.03112 247.995 0.467984C245.87 -0.84824 246.802 0.562925 251.201 5.32512ZM205.954 49.3512C203.624 51.357 203.345 52.1675 203.923 55.2527C204.687 59.3253 208.362 66.616 212.167 71.6081C214.818 75.084 216.528 75.2809 216.528 72.1098C216.528 68.8597 222.392 62.0677 227.194 59.7571C233.121 56.9037 234.753 54.4652 232.071 52.4713C228.875 50.0977 224.924 50.7374 220.891 54.2793C218.858 56.0652 217.042 57.0776 216.857 56.528C215.95 53.8375 212.42 49.0424 210.647 48.0939C209.043 47.2344 208.13 47.4793 205.954 49.3512ZM362.121 48.1169C361.156 48.6796 359.461 50.9143 358.355 53.084C357.248 55.2527 356.074 57.0277 355.746 57.0277C355.418 57.0277 353.613 55.6785 351.735 54.0294C347.765 50.5405 343.529 50.1237 340.957 52.9671C338.726 55.4336 339.602 56.7868 344.963 59.1594C349.966 61.3731 355.989 67.9482 356.927 72.2187L357.577 75.182L360.012 72.8943C363.44 69.6722 369.37 57.3895 369.37 53.5107C369.37 51.1601 368.689 49.8149 366.908 48.6476C364.048 46.7727 364.368 46.8077 362.121 48.1169ZM186.226 54.696C185.86 55.0618 185.56 57.1226 185.56 59.2743V63.187L182.195 61.1073C177.549 58.234 173.57 58.3119 173.577 61.2752C173.586 65.1209 176.69 68.7298 187.911 77.9453C195.759 84.3905 202.333 88.693 211.709 93.5212C218.834 97.19 224.843 100.011 225.063 99.7925C225.283 99.5726 223.701 96.0297 221.548 91.9191C216.763 82.7825 207.244 71.2103 202.328 68.5509L198.687 66.582L194.208 69.8001C191.744 71.5701 189.526 73.0182 189.279 73.0182C189.031 73.0182 189.891 70.9185 191.19 68.352C194.027 62.7453 194.229 57.9511 191.724 55.6835C189.835 53.9735 187.388 53.5337 186.226 54.696ZM381.831 55.4236C379.287 57.2855 379.547 63.9806 382.348 68.7298C384.842 72.9603 384.512 73.7068 381.261 71.1823C376.297 67.3286 374.65 66.8759 371.053 68.38C366.735 70.1839 357.047 82.0969 351.581 92.3219C346.597 101.644 346.499 101.636 362.378 93.2903C374.136 87.1099 376.193 85.6878 388.676 75.104C397.118 67.9472 400.338 63.9346 400.338 60.5756C400.338 58.2869 394.175 58.5857 391.075 61.0253C387.801 63.6018 386.982 63.5488 387.698 60.8054C389.15 55.2537 386.006 52.3694 381.831 55.4236ZM237.057 63.3639C231.174 67.6674 245.759 87.6306 256.237 89.6155C259.783 90.2871 260.491 91.5873 257.735 92.3678C253.56 93.5501 243.794 94.0588 241.518 93.2123L239.038 92.2899L241.329 91.5623C245.059 90.378 243.345 85.4839 237.023 79.2646C231.517 73.8497 227.336 72.4426 226.125 75.5987C224.214 80.5808 227.67 91.6253 233.41 98.875C236.697 103.029 247.674 110.996 250.107 110.996C251.738 110.996 251.928 107.684 250.458 104.933C248.54 101.348 251.155 102.966 256.623 108.747C259.611 111.907 265.187 119.432 269.012 125.467L275.967 136.441L276.746 122.291C277.468 109.166 277.341 107.331 274.998 96.9421C273.607 90.7818 272.47 84.4985 272.47 82.9784C272.47 79.7063 264.546 71.9479 254.988 65.8605C250.084 62.7383 248.075 62.0417 243.941 62.0347C241.162 62.0287 238.064 62.6274 237.057 63.3639ZM323.418 62.8442C315.55 66.4111 301.44 78.3721 301.44 81.4743C301.44 82.7185 300.342 89.1307 299 95.7229C296.811 106.476 296.631 109.136 297.252 121.595L297.944 135.481L304.437 125.052C308.009 119.314 313.339 112.006 316.283 108.811C321.596 103.043 324.315 101.374 322.896 104.75C321.098 109.031 321.152 110.996 323.069 110.996C325.384 110.996 331.619 106.944 336.736 102.116C347.163 92.2759 351.695 74.0176 343.709 74.0176C339.904 74.0176 330.41 83.9948 330.41 87.9934C330.41 89.7214 331.07 91.0466 332.131 91.4544C335.934 92.9145 330.889 94.0448 323.418 93.4062C313.729 92.5787 311.638 91.0936 317.68 89.3316C325.104 87.1659 333.637 78.45 337.346 69.2445C338.511 66.3552 338.457 65.7405 336.881 63.9976C335.527 62.5014 333.865 62.0417 330.006 62.0947C327.207 62.1337 324.242 62.4705 323.418 62.8442Z" fill="white"/>
</mask>
<g mask="url(#mask0_439_10181)">
<path fill-rule="evenodd" class="color"
          id="15-pattern" clip-rule="evenodd" d="M-17 -143.624V-139.247L-13.7044 -139.234C-8.90279 -139.214 -0.431033 -137.259 4.362 -135.063C8.69442 -133.078 10.0414 -130.964 9.02166 -127.749C8.12757 -124.931 -0.0774329 -122.967 -10.9903 -122.959L-17 -122.955V-72.1378V-21.3209L-14.0921 -21.2775C-9.96282 -21.2147 -5.82193 -19.6273 -5.50788 -17.9864C-5.00229 -15.3517 -6.82072 -14.3385 -12.0542 -14.3385H-17V-10.1785V-6.01847L-11.7657 -5.48393C-0.360471 -4.31863 5.65933 -1.84062 7.00706 2.24567C9.41637 9.54934 3.18875 14.0398 -10.6026 14.9429L-17 15.3618V20.0153V24.6687L-12.4846 24.2591C-7.22705 23.7819 -5.3683 24.557 -5.3683 27.2258C-5.3683 29.596 -7.78692 30.6597 -13.1732 30.6597H-17L-16.9938 71.5847L-16.9876 112.51L-12.8196 112.628C-8.01181 112.764 -5.3683 113.916 -5.3683 115.873C-5.3683 118.287 -7.07585 119.104 -12.1147 119.104H-17V123.759V128.414H-11.6533C-5.0054 128.414 2.9631 130.768 5.51509 133.486C6.83567 134.892 7.39166 136.377 7.39166 138.5C7.39166 144.418 1.68283 147.618 -10.2148 148.372L-17 148.801V153.349V157.896H-12.1147C-7.07585 157.896 -5.3683 158.714 -5.3683 161.127C-5.3683 163.071 -7.77918 164.117 -12.7164 164.317L-16.9868 164.49L-16.9938 205.415L-17 246.34H-13.1732C-8.19481 246.34 -5.3683 247.437 -5.3683 249.369C-5.3683 252.284 -7.27978 253.213 -12.331 252.755L-17 252.331V256.997V261.662L-10.6026 262.042C-0.00609185 262.672 6.39289 265.682 7.45912 270.54C8.90843 277.14 2.68316 281.008 -11.7657 282.484L-17 283.019V287.179V291.339H-12.0542C-6.82072 291.339 -5.00229 292.352 -5.50788 294.986C-5.82193 296.627 -9.96282 298.215 -14.0921 298.277L-17 298.321V349.138V399.955L-10.9903 399.959C-4.361 399.964 3.16006 401.002 6.46734 402.369C8.7929 403.33 9.81649 405.842 8.97047 408.511C7.96239 411.688 -5.28223 416.199 -13.7044 416.234L-17 416.247V420.624V425L-10.6026 424.58C-7.08359 424.349 -1.23905 423.35 2.38616 422.359C11.7853 419.79 27.0585 419.809 36.5058 422.401C40.4241 423.476 46.2423 424.361 50.8516 424.582C57.5731 424.905 59.7932 424.659 67.5237 422.735C79.4306 419.772 93.0839 419.647 103.194 422.409C107.09 423.473 112.957 424.362 117.54 424.582C124.256 424.905 126.489 424.658 134.212 422.74C146.281 419.743 159.924 419.6 169.883 422.368C173.854 423.472 179.556 424.35 184.228 424.577C190.953 424.905 193.167 424.66 200.9 422.74C212.969 419.743 226.612 419.6 236.571 422.368C240.542 423.472 246.245 424.35 250.917 424.577C257.641 424.905 259.855 424.66 267.589 422.74C279.658 419.743 293.3 419.6 303.259 422.368C307.23 423.472 312.933 424.35 317.605 424.577C324.33 424.905 326.544 424.66 334.277 422.74C346.346 419.743 359.989 419.6 369.948 422.368C373.919 423.472 379.621 424.35 384.294 424.577C391.018 424.905 393.232 424.66 400.966 422.74C413.035 419.743 426.677 419.6 436.636 422.368C440.64 423.48 446.272 424.344 450.982 424.566C457.641 424.881 459.996 424.625 467.654 422.757C480.472 419.629 493.101 419.624 505.651 422.74C513.422 424.67 515.566 424.904 522.323 424.559C526.904 424.325 532.617 423.441 536.281 422.399C545.696 419.721 561.191 419.851 572.339 422.699C577.213 423.944 582.583 424.78 585.716 424.78L590.95 424.781V420.63V416.478L584.398 416.015C576.752 415.475 567.495 412.529 564.719 409.751C562.472 407.504 562.833 404.506 565.567 402.724C567.949 401.17 576.042 399.968 584.165 399.961L590.95 399.955V349.138V298.321L587.654 298.316C583.214 298.311 578.8 297.007 578.235 295.534C577.981 294.872 578.133 293.657 578.573 292.834C579.253 291.562 580.239 291.339 585.161 291.339H590.95V287.183V283.028L584.778 282.513C576.486 281.821 568.981 279.442 566.953 276.863C565.059 274.454 564.854 269.908 566.53 267.514C568.426 264.807 575.719 262.499 583.813 262.045L591.021 261.642L590.792 257.288L590.562 252.935L585.384 252.882C580.222 252.829 577.767 251.83 577.767 249.78C577.767 247.722 581.107 246.34 586.083 246.34H590.95V205.408V164.476L586.35 164.413C579.792 164.324 575.983 161.543 578.698 158.827C579.252 158.273 581.921 157.896 585.289 157.896H590.95V153.333V148.771L583.777 148.405C575.532 147.985 569.611 146.224 567.105 143.449C564.745 140.835 564.747 136.197 567.11 133.449C569.427 130.753 577.883 128.414 585.311 128.414H590.95V123.759V119.104H585.289C581.921 119.104 579.252 118.727 578.698 118.173C575.983 115.457 579.792 112.677 586.35 112.587L590.95 112.524V71.5925V30.6597H586.083C579.197 30.6597 575.695 27.9156 579.039 25.1389C579.826 24.4848 582.264 24.0791 585.437 24.0736L590.562 24.0651L590.792 19.7119L591.021 15.358L583.813 14.9545C575.719 14.5015 568.426 12.1934 566.53 9.48649C564.854 7.09228 565.059 2.54592 566.953 0.136965C568.981 -2.44189 576.486 -4.82059 584.778 -5.51263L590.95 -6.02778V-10.1831V-14.3385H585.161C580.239 -14.3385 579.253 -14.5619 578.573 -15.8343C578.133 -16.6566 577.981 -17.8716 578.235 -18.5342C578.8 -20.0067 583.214 -21.3109 587.654 -21.3163L590.95 -21.3209V-72.1378V-122.955L584.165 -122.961C576.042 -122.968 567.949 -124.17 565.567 -125.724C562.833 -127.506 562.472 -130.503 564.719 -132.751C567.472 -135.505 576.451 -138.361 584.243 -138.96L590.95 -139.476V-143.734V-147.993L583.777 -147.569C579.832 -147.335 573.813 -146.358 570.401 -145.397C560.674 -142.657 546.157 -142.793 534.342 -145.735C526.601 -147.662 524.402 -147.905 517.67 -147.577C512.998 -147.35 507.296 -146.472 503.325 -145.368C493.365 -142.6 479.723 -142.743 467.654 -145.74C459.92 -147.66 457.707 -147.905 450.982 -147.577C446.373 -147.353 440.554 -146.464 436.636 -145.386C426.587 -142.622 412.939 -142.755 400.966 -145.735C393.225 -147.661 391.024 -147.905 384.294 -147.577C379.659 -147.351 373.888 -146.467 369.948 -145.378C360.466 -142.759 345.254 -142.793 335.828 -145.454C326.333 -148.134 313.369 -148.145 303.647 -145.48C293.841 -142.792 278.775 -142.758 269.14 -145.401C265.233 -146.473 259.39 -147.363 254.794 -147.586C248.055 -147.912 245.923 -147.676 238.51 -145.776C226.914 -142.804 212.464 -142.655 202.451 -145.401C198.533 -146.476 192.715 -147.361 188.106 -147.582C181.389 -147.905 179.157 -147.658 171.433 -145.74C159.364 -142.743 145.722 -142.6 135.763 -145.368C131.792 -146.472 126.089 -147.35 121.417 -147.577C114.693 -147.905 112.479 -147.66 104.745 -145.74C92.676 -142.743 79.0336 -142.6 69.0746 -145.368C65.1035 -146.472 59.4009 -147.35 54.7288 -147.577C48.0041 -147.905 45.7902 -147.66 38.0567 -145.74C26.0303 -142.753 12.3708 -142.603 2.38616 -145.348C-1.23905 -146.345 -7.08359 -147.349 -10.6026 -147.58L-17 -148V-143.624ZM43.5081 -138.087C40.749 -137.46 36.5616 -135.981 34.2027 -134.8C30.2805 -132.836 29.8943 -132.407 29.6764 -129.786C29.4694 -127.296 29.7338 -126.766 31.6848 -125.757C35.8785 -123.588 43.9803 -122.735 56.2045 -123.178C72.2012 -123.758 76.0536 -125.083 76.0536 -130.004C76.0536 -131.744 75.4541 -132.657 73.5334 -133.84C66.4427 -138.211 52.6428 -140.162 43.5081 -138.087ZM110.196 -138.087C107.437 -137.46 103.25 -135.981 100.891 -134.8C96.9689 -132.836 96.5827 -132.407 96.3648 -129.786C96.1578 -127.296 96.4222 -126.766 98.3732 -125.757C102.567 -123.588 110.669 -122.735 122.893 -123.178C138.89 -123.758 142.742 -125.083 142.742 -130.004C142.742 -131.744 142.143 -132.657 140.222 -133.84C133.131 -138.211 119.331 -140.162 110.196 -138.087ZM176.885 -138.087C174.126 -137.46 169.938 -135.981 167.58 -134.8C163.902 -132.958 163.258 -132.307 163.056 -130.228C162.527 -124.789 167.167 -123.387 185.779 -123.361C205.209 -123.335 209.43 -124.571 209.43 -130.285C209.43 -136.073 189.281 -140.903 176.885 -138.087ZM243.712 -138.115C236.287 -136.424 230.521 -133.534 229.939 -131.213C229.229 -128.385 230.13 -126.344 232.525 -125.354C240.446 -122.081 266.791 -122.193 273.785 -125.529C275.261 -126.233 275.789 -127.155 275.971 -129.344C276.182 -131.891 275.908 -132.418 273.644 -133.812C266.556 -138.18 252.724 -140.169 243.712 -138.115ZM310.4 -138.116C302.891 -136.404 297.21 -133.538 296.613 -131.159C295.547 -126.909 298.078 -124.966 306.363 -123.673C313.553 -122.55 333.271 -123.165 338.154 -124.664C344.292 -126.547 345.008 -131.461 339.556 -134.282C331.201 -138.604 319.37 -140.16 310.4 -138.116ZM377.089 -138.116C369.579 -136.404 363.899 -133.538 363.301 -131.159C362.235 -126.909 364.766 -124.966 373.051 -123.673C379.889 -122.606 399.668 -123.163 404.702 -124.565C410.99 -126.316 411.828 -131.393 406.301 -134.252C397.888 -138.605 386.085 -140.166 377.089 -138.116ZM444.003 -138.156C436.45 -136.417 430.573 -133.482 429.99 -131.158C428.924 -126.908 431.458 -124.963 439.74 -123.677C447.016 -122.547 466.724 -123.147 471.519 -124.645C476.144 -126.09 477.85 -128.85 475.929 -131.784C472.418 -137.145 454.844 -140.653 444.003 -138.156ZM512.305 -138.477C507.077 -137.531 499.935 -134.774 497.971 -132.943C494.92 -130.099 496.698 -125.952 501.602 -124.472C506.022 -123.139 526.81 -122.62 533.565 -123.673C540.201 -124.708 542.633 -125.997 543.35 -128.857C544.078 -131.76 541.227 -134.241 534.454 -136.598C528.175 -138.782 518.522 -139.601 512.305 -138.477ZM11.8497 -112.77C7.77862 -110.753 5.55619 -107.931 2.03644 -100.31C-9.8527 -74.5646 -7.64347 -36.3837 7.05202 -13.6363C10.7245 -7.95107 12.9811 -6.40562 18.2471 -5.96882C25.7473 -5.34661 29.1522 -8.20554 35.1488 -20.1572C46.8727 -43.5267 47.3931 -76.5065 36.4252 -101.04C32.4107 -110.019 26.7709 -114.421 19.2831 -114.42C16.6621 -114.42 13.9783 -113.824 11.8497 -112.77ZM78.3078 -112.631C74.094 -110.423 70.7891 -105.703 67.5198 -97.2212C62.3212 -83.7349 61.7194 -80.0195 61.7621 -61.6641C61.7978 -46.1793 61.9459 -44.4461 63.8263 -37.4815C67.3701 -24.3568 74.2514 -10.6331 78.7754 -7.66711C81.4049 -5.94399 87.5441 -5.38152 91.0592 -6.54216C94.6341 -7.7222 96.7021 -10.2429 101.044 -18.7118C108.732 -33.7094 111.37 -46.5416 110.728 -65.8148C110.43 -74.7392 109.848 -80.1824 108.706 -84.7311C106.589 -93.1574 102.945 -102.498 100.094 -106.805C95.3622 -113.952 85.742 -116.524 78.3078 -112.631ZM146.776 -113.607C140.887 -111.243 136.85 -105.329 132.736 -93.0433C129.418 -83.136 128.008 -73.9051 128.008 -62.0869C128.008 -45.5998 130.918 -32.3897 137.412 -19.3953C141.399 -11.4151 143.539 -8.66638 147.071 -6.98981C150.762 -5.23721 157.446 -5.68254 160.415 -7.87891C164.966 -11.2445 172.287 -26.2405 175.387 -38.5467C177.68 -47.6487 178.295 -68.5457 176.562 -78.5182C174.967 -87.6909 171.375 -98.7922 168.081 -104.723C164.593 -111.003 159.164 -114.444 152.857 -114.372C150.493 -114.344 147.756 -114 146.776 -113.607ZM211.369 -112.189C206.912 -109.542 205.06 -107.021 201.633 -98.9435C197.012 -88.0501 195.337 -79.7231 194.912 -65.5432C194.332 -46.1948 197.091 -33.2051 205.029 -17.9282C209.775 -8.79439 212.35 -6.46379 218.233 -5.9758C226.086 -5.3241 229.887 -8.56397 235.778 -20.933C241.818 -33.6132 244.496 -46.1258 244.496 -61.6641C244.496 -83.2159 237.522 -105.591 228.907 -111.682C226.227 -113.577 224.725 -114.031 220.447 -114.24C215.822 -114.465 214.817 -114.238 211.369 -112.189ZM279.601 -113.016C273.737 -110.271 269.816 -104.225 265.682 -91.5553C258.471 -69.4558 260.445 -40.193 270.497 -20.1572C276.519 -8.15356 279.886 -5.34583 287.502 -5.97736C292.865 -6.42269 295.048 -8.06744 299.206 -14.7954C314.025 -38.7725 315.518 -76.138 302.689 -101.946C298.032 -111.314 294.931 -113.826 287.54 -114.216C284.018 -114.402 281.868 -114.077 279.601 -113.016ZM346.297 -112.95C341.993 -110.956 339.477 -108.009 336.296 -101.231C323.879 -74.7849 325.581 -38.9012 340.423 -14.2112C344.041 -8.19467 347.655 -5.8346 353.276 -5.81986C358.452 -5.80667 361.498 -7.77883 365.234 -13.5611C374.766 -28.3174 379.704 -50.7458 377.774 -70.5202C376.303 -85.5961 371.152 -102.189 366.004 -108.438C361.384 -114.045 352.87 -115.995 346.297 -112.95ZM413.373 -113.184C409.354 -111.442 406.55 -108.428 403.698 -102.783C392.386 -80.3996 391.881 -46.6029 402.509 -23.1527C408.522 -9.88365 412.629 -5.80434 419.972 -5.80434C426.843 -5.80434 430.024 -8.81223 435.873 -20.8423C447.149 -44.0303 448.007 -72.5304 438.196 -97.9854C435.181 -105.804 431.914 -110.233 427.403 -112.616C423.383 -114.739 417.509 -114.976 413.373 -113.184ZM480.061 -113.226C476.131 -111.462 473.245 -108.436 470.688 -103.398C460.686 -83.693 458.701 -55.3659 465.754 -32.9584C470.004 -19.4558 475.74 -9.37084 480.446 -7.12558C483.845 -5.5041 489.47 -5.41643 492.415 -6.94016C495.571 -8.57328 498.339 -12.1599 501.876 -19.1967C508.838 -33.0507 511.481 -45.0598 511.393 -62.4399C511.325 -75.9696 509.885 -84.4192 505.687 -95.91C500.91 -108.991 496.16 -113.778 487.531 -114.207C484.42 -114.362 481.837 -114.023 480.061 -113.226ZM546.33 -112.962C542.266 -111.115 539.354 -107.604 536.141 -100.675C525.334 -77.3754 525.719 -44.9675 537.088 -20.933C542.33 -9.85262 546.63 -5.8121 553.186 -5.80745C560.011 -5.80201 563.338 -8.76258 568.795 -19.7002C579.01 -40.1736 581.248 -64.7294 575.022 -88.009C572.756 -96.4787 568.42 -106.181 565.516 -109.278C560.896 -114.206 552.581 -115.803 546.33 -112.962ZM48.1375 -20.753C45.4576 -20.2604 44.2603 -19.1137 44.2603 -17.0422C44.2603 -14.7148 45.4963 -14.3385 53.1461 -14.3385C57.8236 -14.3385 59.8343 -14.6457 60.5136 -15.465C63.6511 -19.2471 56.5185 -22.2946 48.1375 -20.753ZM114.521 -20.6917C111.636 -20.0044 110.252 -17.9461 111.422 -16.0841C112.109 -14.9917 113.601 -14.6822 119.056 -14.5014C126.157 -14.2648 128.008 -14.887 128.008 -17.5093C128.008 -18.296 127.28 -19.3286 126.391 -19.805C124.368 -20.888 117.501 -21.4008 114.521 -20.6917ZM180.748 -20.3077C177.861 -19.3193 176.908 -17.3161 178.444 -15.465C179.642 -14.0196 192.355 -13.8575 193.766 -15.2695C197.848 -19.3534 188.513 -22.9657 180.748 -20.3077ZM247.427 -20.3543C245.672 -19.7251 244.632 -18.8088 244.482 -17.7614C244.077 -14.9227 245.955 -14.2617 253.746 -14.5022C260.901 -14.7233 261.001 -14.7528 261.231 -16.7327C261.359 -17.8359 260.936 -19.1765 260.29 -19.7126C258.611 -21.1068 250.637 -21.5048 247.427 -20.3543ZM314.125 -20.3543C311.24 -19.3162 310.293 -17.3068 311.82 -15.465C312.515 -14.6271 314.612 -14.3385 319.999 -14.3385C326.333 -14.3385 327.343 -14.5247 328.035 -15.818C328.634 -16.9375 328.496 -17.7071 327.466 -18.9787C325.777 -21.0657 318.258 -21.8407 314.125 -20.3543ZM380.813 -20.3077C377.926 -19.3193 376.973 -17.3161 378.509 -15.465C379.203 -14.6271 381.3 -14.3385 386.687 -14.3385C393.048 -14.3385 394.03 -14.5208 394.732 -15.8343C395.929 -18.0725 394.937 -19.6475 391.777 -20.5257C388.112 -21.5444 384.198 -21.466 380.813 -20.3077ZM447.502 -20.3077C444.615 -19.3193 443.662 -17.3161 445.197 -15.465C445.892 -14.6271 447.989 -14.3385 453.376 -14.3385C459.736 -14.3385 460.718 -14.5208 461.42 -15.8343C462.617 -18.0725 461.626 -19.6475 458.466 -20.5257C454.8 -21.5444 450.887 -21.466 447.502 -20.3077ZM514.19 -20.3077C511.303 -19.3193 510.35 -17.3161 511.885 -15.465C512.58 -14.6271 514.677 -14.3385 520.064 -14.3385C526.424 -14.3385 527.407 -14.5208 528.109 -15.8343C529.306 -18.0725 528.314 -19.6475 525.154 -20.5257C521.489 -21.5444 517.575 -21.466 514.19 -20.3077ZM44.648 -4.69646C35.0418 -2.82827 32.2114 -1.13462 31.3917 3.23718C30.7559 6.62989 32.2788 10.267 34.9045 11.6255C45.2978 17.0035 66.8545 15.9243 72.3671 9.75105C74.7431 7.0915 75.0563 4.50023 73.393 1.28131C70.7922 -3.74995 55.8074 -6.86568 44.648 -4.69646ZM111.336 -4.6468C103.932 -3.25884 100.36 -1.58926 98.9478 1.14243C94.7775 9.21029 103.478 15.1431 119.479 15.1431C135.379 15.1431 144.177 9.20641 140.066 1.25183C138.688 -1.4147 133.334 -3.85778 126.406 -4.98274C120.255 -5.98123 118.213 -5.93546 111.336 -4.6468ZM179.724 -5.03938C171.885 -3.62815 167.44 -1.7708 165.915 0.732025C161.125 8.58885 168.384 14.2214 184.228 14.9429C192.119 15.3021 199.255 14.1081 204.053 11.6255C207.999 9.58424 208.995 2.33877 205.731 -0.588434C201.949 -3.98191 187.543 -6.44751 179.724 -5.03938ZM248.59 -5.36368C247.737 -5.17127 245.12 -4.62585 242.775 -4.15337C236.811 -2.95084 233.093 -0.883258 231.956 1.86163C230.755 4.76323 231.479 8.26223 233.703 10.3127C241.29 17.3045 269.607 16.2828 273.434 8.87901C276.302 3.33027 273.851 -0.943767 266.396 -3.39461C261.767 -4.91679 251.591 -6.04175 248.59 -5.36368ZM312.834 -4.99981C310.635 -4.60801 306.851 -3.54358 304.423 -2.6343C300.777 -1.26962 299.812 -0.510082 298.876 1.72974C295.355 10.1599 303.002 14.7893 320.319 14.7117C335.121 14.6458 341.256 11.6317 341.256 4.42497C341.256 3.18054 340.54 1.25183 339.663 0.136965C336.555 -3.81511 321.914 -6.61896 312.834 -4.99981ZM379.845 -5.04791C369.4 -3.16109 364.942 -0.138458 364.942 5.05727C364.942 9.37477 367.265 11.4773 374.362 13.5852C385.188 16.801 403.253 14.5162 406.775 9.48649C408.451 7.09228 408.245 2.54592 406.352 0.136965C403.295 -3.75072 388.589 -6.62672 379.845 -5.04791ZM446.533 -5.04791C436.36 -3.20996 431.673 -0.140789 431.673 4.68565C431.673 9.0334 434.061 11.3818 440.59 13.4556C445.577 15.0399 447.447 15.2331 454.859 14.9328C464.302 14.5488 471.367 12.4812 473.463 9.48649C475.139 7.09228 474.934 2.54592 473.04 0.136965C469.983 -3.75072 455.278 -6.62672 446.533 -5.04791ZM513.222 -5.04791C502.738 -3.1541 498.672 -0.291302 498.672 5.19692C498.672 9.36312 501.075 11.5471 507.964 13.6411C518.426 16.8196 536.666 14.4658 540.151 9.48649C541.828 7.09228 541.622 2.54592 539.729 0.136965C536.672 -3.75072 521.966 -6.62672 513.222 -5.04791ZM15.5687 16.0244C14.076 16.4581 11.7729 17.8515 10.4516 19.1207C7.12569 22.3133 1.44399 33.4783 -1.34142 42.2971C-8.93304 66.3331 -6.38337 95.54 5.15295 116.675C9.92815 125.423 12.8508 127.64 19.6011 127.635C26.5739 127.631 29.1135 125.281 35.1643 113.244C47.3031 89.0952 47.3807 55.3334 35.3558 30.2717C32.0229 23.3273 28.5869 18.6025 25.8318 17.1773C22.7129 15.5636 18.7023 15.1128 15.5687 16.0244ZM82.2571 16.0244C80.7644 16.4581 78.4722 17.8414 77.164 19.0967C71.8142 24.2311 65.0244 40.4817 62.446 54.3225C60.4849 64.8482 61.1968 85.7521 63.8612 95.8868C67.5795 110.03 74.2018 122.955 79.3337 126.086C82.9954 128.32 89.7084 128.211 93.1925 125.862C98.0894 122.561 104.727 109.427 108.373 95.8294C111.056 85.822 111.74 67.3611 109.867 55.5289C107.793 42.4306 102.546 28.7969 96.4874 20.767C93.2088 16.4216 87.4681 14.5084 82.2571 16.0244ZM148.558 16.3006C144.41 17.7576 141.142 21.688 137.009 30.1918C130.557 43.4655 128.007 55.2256 128.011 71.6863C128.014 82.7792 129.296 92.3009 131.942 100.87C135.431 112.173 141.747 123.478 146.034 126.093C149.462 128.185 156.184 128.185 159.612 126.093C164.6 123.05 171.498 109.603 175.069 95.9613C176.635 89.9781 177.114 85.9189 177.434 75.9177C178.053 56.5708 175.639 44.3189 168.26 29.3408C164.023 20.7422 160.891 17.2851 156.139 15.9654C152.513 14.9576 152.362 14.9646 148.558 16.3006ZM215.389 16.2416C211.394 17.701 209.798 19.2852 206.335 25.2242C202.457 31.8738 199.711 38.7136 197.299 47.7279C195.724 53.6172 195.243 57.6081 194.907 67.5892C194.276 86.3519 196.908 99.6558 204.1 114.047C209.679 125.212 212.472 127.638 219.745 127.638C225.489 127.638 228.33 125.564 232.825 118.088C247.682 93.3723 248.521 55.345 234.795 28.8008C233.053 25.4313 230.779 21.6662 229.742 20.4327C226.121 16.1276 220.329 14.4363 215.389 16.2416ZM282.055 16.275C277.675 17.8375 275.778 20.0029 271.552 28.2693C264.622 41.8231 261.385 55.442 261.385 71.0486C261.385 87.3325 264.023 99.5976 270.384 112.898C276.219 125.097 278.946 127.638 286.2 127.638C292.949 127.638 295.831 125.342 300.805 116.001C311.643 95.6478 314.351 70.0229 308.185 46.1763C305.877 37.2496 299.834 24.2653 296.024 20.0463C294.381 18.2262 291.991 16.5846 290.209 16.05C286.466 14.9282 285.777 14.9468 282.055 16.275ZM348.743 16.2385C344.224 17.9058 342.456 20.0323 337.785 29.4199C330.288 44.4842 327.577 57.6896 328.289 75.6578C328.882 90.6081 331.583 102.022 337.176 113.223C342.992 124.869 345.999 127.638 352.824 127.638C360.189 127.638 363.218 124.856 369.209 112.583C378.568 93.4127 380.722 69.1013 375.046 46.7147C373.095 39.0231 368.527 28.3741 364.452 22.0208C360.866 16.4286 354.541 14.1004 348.743 16.2385ZM415.311 16.2688C411.584 17.6242 408.923 20.629 405.241 27.6394C398.739 40.0193 395.707 51.7312 395.023 67.1237C394.143 86.8717 398.311 104.692 407.3 119.62C410.644 125.172 413.332 127.055 418.532 127.486C426.35 128.135 430.009 124.994 435.958 112.525C449.054 85.081 447.757 50.2145 432.678 24.325C428.152 16.5559 422.163 13.7776 415.311 16.2688ZM482 16.2688C478.185 17.656 475.913 20.2798 471.756 28.0987C459.59 50.9833 458.139 81.5371 467.991 107.334C471.16 115.63 476.841 124.526 480.049 126.216C483.382 127.97 489.396 128.065 492.868 126.417C498.768 123.616 507.517 104.865 510.397 88.8469C511.902 80.4765 511.706 61.3841 510.028 52.8841C507.15 38.3024 499.418 21.3482 494.019 17.7801C490.449 15.4216 485.903 14.8498 482 16.2688ZM550.065 15.8723C545.966 16.8856 543.895 18.722 540.617 24.2513C527.204 46.8761 524.496 76.7618 533.456 103.283C536.82 113.241 542.217 123.187 545.542 125.555C547.116 126.677 549.332 127.282 552.532 127.465C558.92 127.828 561.749 126.176 565.654 119.795C582.5 92.2738 582.736 52.3185 566.217 24.4996C561.789 17.0431 556.582 14.2617 550.065 15.8723ZM45.3684 24.6858C43.7516 25.5912 44.0036 28.9164 45.76 29.8567C47.6583 30.873 56.7008 30.904 59.3311 29.9032C61.4442 29.0995 62.1467 25.8317 60.4345 24.7727C59.193 24.0054 46.7122 23.9324 45.3684 24.6858ZM112.057 24.6858C110.44 25.5912 110.692 28.9164 112.448 29.8567C114.347 30.873 123.389 30.904 126.019 29.9032C128.133 29.0995 128.835 25.8317 127.123 24.7727C125.881 24.0054 113.401 23.9324 112.057 24.6858ZM178.745 24.6858C176.835 25.7549 177.393 29.0537 179.626 29.9032C182.256 30.904 191.299 30.873 193.197 29.8567C194.838 28.9777 195.24 25.6556 193.811 24.7727C192.57 24.0054 180.089 23.9324 178.745 24.6858ZM245.35 25.09C243.673 26.7689 244.135 29.0739 246.314 29.9032C248.945 30.904 257.987 30.873 259.886 29.8567C261.526 28.9777 261.928 25.6556 260.5 24.7727C258.822 23.7362 246.445 23.9953 245.35 25.09ZM313.09 24.3157C311.47 24.6284 310.504 28.132 311.706 29.3346C312.721 30.3509 322.437 31.0747 325.326 30.3493C327.934 29.6945 329.1 27.4206 327.764 25.5927C326.932 24.4546 325.577 24.1791 320.564 24.1279C317.168 24.093 313.804 24.1776 313.09 24.3157ZM379.148 25.0791C377.107 26.5105 377.354 28.6999 379.677 29.7589C382.909 31.233 391.953 30.911 394.004 29.25C395.486 28.0498 395.61 27.5889 394.838 26.1467C394.339 25.2149 393.683 24.429 393.378 24.3995C388.048 23.8851 380.324 24.2544 379.148 25.0791ZM445.853 25.0675C441.937 27.8116 445.734 30.6597 453.308 30.6597C460.657 30.6597 464.437 28.0312 461.089 25.2506C459.467 23.9037 447.716 23.7625 445.853 25.0675ZM512.541 25.0675C508.625 27.8116 512.422 30.6597 519.997 30.6597C527.346 30.6597 531.126 28.0312 527.777 25.2506C526.155 23.9037 514.404 23.7625 512.541 25.0675ZM48.2593 112.857C44.9442 113.688 44.0664 114.601 44.3882 116.882C44.6379 118.643 44.9396 118.726 51.8992 118.941C59.4823 119.175 61.3201 118.588 61.3201 115.933C61.3201 115.147 60.6827 114.162 59.9034 113.746C57.7972 112.618 51.2168 112.116 48.2593 112.857ZM114.948 112.857C111.633 113.688 110.755 114.601 111.077 116.882C111.327 118.652 111.605 118.724 119.026 118.94C126.98 119.171 127.97 118.829 127.997 115.834C128.003 115.103 127.371 114.162 126.592 113.746C124.486 112.618 117.905 112.116 114.948 112.857ZM182.263 112.809C178.476 113.591 177.637 114.246 177.637 116.42C177.637 118.834 179.256 119.239 187.718 118.945C194.225 118.719 194.312 118.69 194.55 116.635C194.71 115.246 194.323 114.303 193.386 113.802C191.31 112.69 185.395 112.162 182.263 112.809ZM248.952 112.809C245.344 113.554 244.325 114.246 244.325 115.952C244.325 118.588 246.176 119.174 253.746 118.941C260.972 118.717 260.998 118.709 261.238 116.635C261.398 115.246 261.011 114.303 260.075 113.802C257.999 112.69 252.083 112.162 248.952 112.809ZM315.64 112.837C312.077 113.536 311.014 114.238 311.014 115.892C311.014 118.512 312.68 119.104 320.059 119.104C326.272 119.104 327.348 118.909 328.016 117.66C329.129 115.58 327.498 113.734 323.788 112.874C320.341 112.074 319.552 112.071 315.64 112.837ZM382.329 112.837C378.765 113.536 377.702 114.238 377.702 115.892C377.702 118.512 379.369 119.104 386.748 119.104C393.27 119.104 394.013 118.953 394.81 117.462C395.958 115.317 394.519 113.812 390.413 112.859C387.032 112.074 386.232 112.072 382.329 112.837ZM449.017 112.837C445.454 113.536 444.391 114.238 444.391 115.892C444.391 118.512 446.057 119.104 453.436 119.104C459.958 119.104 460.701 118.953 461.499 117.462C462.646 115.317 461.207 113.812 457.101 112.859C453.72 112.074 452.921 112.072 449.017 112.837ZM516.895 112.601C516.042 112.798 514.582 113.12 513.651 113.317C511.606 113.752 510.594 116.421 511.885 117.978C513.088 119.428 526.566 119.591 527.984 118.173C529.388 116.768 529.109 115.386 527.17 114.14C525.266 112.916 519.365 112.033 516.895 112.601ZM39.2734 130.247C32.4611 132.618 30.1774 135.581 31.401 140.459C32.1873 143.593 34.5082 145.302 40.4156 147.097C45.1156 148.525 47.2318 148.72 54.5993 148.403C68.1045 147.82 74.5027 144.636 74.5027 138.5C74.5027 132.165 68.0083 129.05 53.9533 128.645C45.7026 128.406 44.0393 128.588 39.2734 130.247ZM105.962 130.247C99.1495 132.618 96.8658 135.581 98.0894 140.459C98.8742 143.589 101.195 145.302 107.064 147.085C111.686 148.49 113.916 148.698 121.247 148.414C134.726 147.889 141.191 144.676 141.191 138.5C141.191 132.165 134.697 129.05 120.642 128.645C112.391 128.406 110.728 128.588 105.962 130.247ZM176.238 129.141C170.246 130.652 166.727 132.475 165.601 134.653C162.973 139.738 164.952 143.862 171.229 146.381C175.128 147.946 177.034 148.175 186.167 148.175C195.3 148.175 197.205 147.946 201.105 146.381C205.693 144.54 207.879 141.996 207.879 138.5C207.879 132.21 201.334 129.03 187.718 128.707C182.813 128.591 177.647 128.786 176.238 129.141ZM243.938 128.942C232.584 131.487 228.211 137.222 233.149 143.094C236.429 146.994 243.85 148.833 254.624 148.414C269.441 147.837 275.649 144.122 274.251 136.669C273.62 133.3 271.834 131.947 265.375 129.943C260.69 128.489 248.495 127.92 243.938 128.942ZM310.626 128.942C301.864 130.906 298.254 133.695 298.254 138.5C298.254 142.657 300.783 145.134 306.98 147.049C317.365 150.259 335.149 148.293 339.511 143.452C341.944 140.753 341.898 135.968 339.414 133.483C336.369 130.437 328.287 128.4 319.656 128.504C315.542 128.554 311.479 128.751 310.626 128.942ZM377.315 128.942C368.553 130.906 364.942 133.695 364.942 138.5C364.942 145.366 373.363 148.985 388.001 148.41C401.705 147.872 407.945 144.863 407.945 138.793C407.945 133.777 405.511 131.608 397.476 129.466C393.856 128.501 380.795 128.161 377.315 128.942ZM441.299 129.621C435.782 131.155 433.647 132.61 432.347 135.723C430.327 140.56 432.826 144.565 439.268 146.815C442.25 147.857 445.619 148.198 452.921 148.198C468.242 148.198 474.633 145.325 474.633 138.439C474.633 132.02 468.529 129.065 454.471 128.682C448.2 128.51 444.291 128.789 441.299 129.621ZM507.213 129.922C501.084 131.721 498.672 134.144 498.672 138.5C498.672 144.746 504.488 147.82 517.421 148.406C532.666 149.096 541.321 145.546 541.321 138.603C541.321 132.002 535.353 129.067 521.16 128.686C514.144 128.497 511.17 128.761 507.213 129.922ZM12.7384 150.857C6.49913 154.664 -1.57791 172.097 -4.32765 187.692C-5.82891 196.205 -5.9809 212.53 -4.6386 221.126C-2.53714 234.584 5.14055 253.141 10.5857 257.924C16.2325 262.884 23.6884 262.621 28.7513 257.282C31.9601 253.899 37.1913 243.609 39.8565 235.44C42.7396 226.606 44.2603 216.156 44.2603 205.186C44.2603 189.51 41.1787 175.778 34.7789 162.939C30.973 155.302 28.5706 152.037 25.648 150.525C22.4291 148.859 15.7308 149.032 12.7384 150.857ZM79.0763 151.126C73.3256 154.976 65.9348 170.783 62.8857 185.754C60.9254 195.376 60.7556 212.64 62.5205 222.767C64.8988 236.41 72.0298 253.312 77.4005 258.034C82.9543 262.916 90.4125 262.575 95.5243 257.204C98.7866 253.776 104.664 242.097 107.025 234.351C112.187 217.415 112.303 194.51 107.313 177.292C103.996 165.843 97.3086 153.582 92.9234 150.907C89.2842 148.687 82.5596 148.794 79.0763 151.126ZM145.765 151.138C140.765 154.509 133.592 168.867 130.234 182.227C128.195 190.339 127.391 210.752 128.745 220.016C130.823 234.238 138.344 252.988 143.942 257.906C149.697 262.962 157.042 262.636 162.319 257.092C168.19 250.923 174.863 233.955 176.9 220.016C178.394 209.796 177.484 190.264 175.088 181.113C171.44 167.182 164.696 154.008 159.628 150.917C155.962 148.68 149.251 148.788 145.765 151.138ZM212.834 150.84C209.698 152.752 207.938 155.299 203.626 164.163C197.354 177.055 194.697 189.276 194.697 205.221C194.697 221.168 197.506 234.073 203.794 247.004C209.665 259.08 215.015 263.012 222.881 261.03C227.092 259.969 230.048 257.017 233.808 250.118C248.224 223.668 248.198 186.718 233.747 160.223C229.035 151.586 226.085 149.36 219.356 149.365C216.689 149.366 214.399 149.885 212.834 150.84ZM279.834 150.565C273.754 153.866 265.354 172.536 262.445 189.211C260.62 199.664 261.342 218.515 263.95 228.554C267.393 241.806 273.702 255.187 278.161 258.697C283.248 262.7 291.003 262.257 295.364 257.712C300.834 252.013 307.409 236.476 309.931 223.288C311.504 215.058 311.682 198.203 310.288 189.317C308.968 180.899 305.309 169.649 301.482 162.244C297.825 155.167 295.436 152.095 292.35 150.497C289.546 149.047 282.559 149.085 279.834 150.565ZM346.522 150.565C342.569 152.712 336.651 163.12 332.736 174.813C326.643 193.008 326.519 216.042 332.413 234.836C335.039 243.208 341.526 255.863 344.457 258.331C348.801 261.987 355.077 262.503 360.103 259.617C362.769 258.087 365.779 253.488 369.969 244.543C381.035 220.916 380.844 188.917 369.493 164.924C363.591 152.446 360.276 149.347 352.888 149.396C350.542 149.411 347.678 149.937 346.522 150.565ZM413.381 150.721C408.612 153.111 401.364 166.805 397.943 179.886C393.023 198.697 394.026 221.688 400.519 238.901C403.443 246.654 408.765 256.32 411.275 258.436C415.477 261.979 421.822 262.47 426.762 259.635C432.263 256.479 440.947 237.479 443.53 222.951C446.95 203.714 444.123 181.337 436.193 164.878C432.077 156.333 429.661 152.918 426.272 150.85C423.174 148.961 417.016 148.898 413.381 150.721ZM480.151 150.69C476.961 152.262 473.061 158.125 469.077 167.336C458.348 192.145 458.993 222.567 470.763 246.838C475.232 256.053 478.446 259.81 482.883 261.006C489.712 262.845 495.019 260.133 499.452 252.539C513.543 228.4 515.645 195.984 504.869 168.992C501.266 159.964 496.242 152.297 492.878 150.692C489.356 149.012 483.558 149.011 480.151 150.69ZM546.936 150.643C542.251 152.954 535.009 166.753 531.317 180.402C524.904 204.114 528.519 232.342 540.573 252.675C544.399 259.128 547.793 261.438 553.334 261.357C558.78 261.279 561.833 259.446 565.166 254.255C582.279 227.61 582.762 185.411 566.267 158.183C563.775 154.072 561.803 151.764 559.945 150.785C556.593 149.02 550.365 148.952 546.936 150.643ZM44.7775 158.413C43.6166 159.575 44.3401 162.539 46.005 163.447C48.2119 164.649 57.3428 164.625 59.6087 163.413C61.4845 162.408 61.8466 160.285 60.3895 158.827C59.3993 157.836 45.7165 157.473 44.7775 158.413ZM111.466 158.413C110.305 159.575 111.029 162.539 112.693 163.447C114.9 164.649 124.031 164.625 126.297 163.413C128.3 162.341 128.614 159.07 126.782 158.367C125.116 157.727 112.112 157.766 111.466 158.413ZM177.948 159.866C177.669 160.978 177.791 162.24 178.22 162.669C179.537 163.986 185.546 164.988 188.851 164.441C193.577 163.658 194.826 162.765 194.55 160.365L194.309 158.284L186.383 158.063L178.456 157.842L177.948 159.866ZM245.282 158.801C243.793 160.29 244.152 162.402 246.07 163.447C248.348 164.687 257.392 164.67 259.687 163.421C260.998 162.707 261.414 161.889 261.238 160.365C260.998 158.288 260.984 158.283 253.618 158.064C248.541 157.913 245.94 158.142 245.282 158.801ZM311.944 158.827C310.59 160.181 310.805 162.386 312.371 163.209C316.414 165.334 325.367 164.815 327.87 162.312C328.757 161.423 328.811 160.826 328.122 159.538C327.325 158.047 326.582 157.896 320.059 157.896C315.505 157.896 312.534 158.236 311.944 158.827ZM378.633 158.827C377.279 160.181 377.494 162.386 379.059 163.209C383.102 165.334 392.056 164.815 394.558 162.312C395.445 161.423 395.5 160.826 394.81 159.538C394.013 158.047 393.27 157.896 386.748 157.896C382.194 157.896 379.223 158.236 378.633 158.827ZM445.321 158.827C443.967 160.181 444.182 162.388 445.748 163.2C449.744 165.273 458.806 164.753 461.247 162.31C462.134 161.423 462.188 160.826 461.499 159.538C460.701 158.047 459.958 157.896 453.436 157.896C448.882 157.896 445.911 158.236 445.321 158.827ZM511.885 159.022C510.544 160.64 511.637 163.257 513.845 163.713C514.883 163.927 516.644 164.293 517.758 164.527C521.183 165.245 527.993 163.455 528.554 161.69C529.503 158.698 527.694 157.896 519.997 157.896C514.669 157.896 512.579 158.186 511.885 159.022ZM45.6173 247.178C44.0804 248.074 43.7903 251.389 45.1745 252.244C46.4493 253.033 58.3106 253.115 59.9631 252.347C62.0994 251.355 61.6954 247.996 59.3311 247.097C56.7325 246.108 47.3574 246.164 45.6173 247.178ZM112.306 247.178C110.769 248.074 110.479 251.389 111.863 252.244C113.138 253.033 124.999 253.115 126.651 252.347C128.788 251.355 128.384 247.996 126.019 247.097C123.421 246.108 114.046 246.164 112.306 247.178ZM179.382 247.14C177.481 247.904 176.938 251.247 178.551 252.244C179.826 253.033 191.687 253.115 193.34 252.347C195.168 251.497 195.076 248.15 193.197 247.143C191.376 246.169 181.804 246.167 179.382 247.14ZM246.07 247.14C244.17 247.904 243.626 251.247 245.24 252.244C246.515 253.033 258.376 253.115 260.028 252.347C261.856 251.497 261.764 248.15 259.886 247.143C258.065 246.169 248.492 246.167 246.07 247.14ZM312.759 247.14C310.817 247.922 310.454 250.324 312.038 251.91C312.879 252.751 321.991 253.189 326.69 252.614C326.994 252.577 327.613 251.857 328.064 251.013C328.716 249.795 328.562 249.157 327.316 247.91C326.019 246.612 324.776 246.349 320.125 246.389C317.034 246.416 313.718 246.755 312.759 247.14ZM379.871 246.868C377.975 247.368 377.332 250.076 378.74 251.633C379.683 252.675 381.204 252.91 386.37 252.808C389.919 252.739 393.073 252.652 393.378 252.614C393.683 252.577 394.339 251.785 394.838 250.853C395.61 249.411 395.486 248.95 394.004 247.75C392.656 246.658 391.017 246.361 386.728 246.43C383.683 246.48 380.598 246.677 379.871 246.868ZM446.114 247.548C444.118 248.947 443.914 250.41 445.527 251.749C447.15 253.096 458.901 253.237 460.763 251.933C464.679 249.188 460.883 246.34 453.308 246.34C449.612 246.34 447.278 246.732 446.114 247.548ZM512.803 247.548C510.806 248.947 510.602 250.41 512.216 251.749C513.838 253.096 525.589 253.237 527.452 251.933C531.368 249.188 527.571 246.34 519.997 246.34C516.3 246.34 513.967 246.732 512.803 247.548ZM42.7094 262.686C33.518 265.287 31.0777 267.361 31.0777 272.575C31.0777 276.27 33.5436 278.526 39.7743 280.53C51.9992 284.464 70.7557 281.65 73.5745 275.46C75.8628 270.435 73.2674 266.102 66.5955 263.81C61.821 262.169 46.9984 261.471 42.7094 262.686ZM107.082 263.405C96.2842 266.489 94.2719 275.152 103.384 279.319C111.978 283.25 123.236 283.489 134.124 279.971C140.997 277.75 143.248 271.944 139.055 267.249C134.554 262.208 118.167 260.238 107.082 263.405ZM173.77 263.405C165.801 265.681 162.746 270.266 165.564 275.719C168.014 280.457 181.511 283.682 192.033 282.042C200.693 280.691 204.696 279.096 206.387 276.321C208.173 273.391 208.27 271.07 206.733 268.095C203.893 262.601 185.664 260.007 173.77 263.405ZM244.713 262.183C244.287 262.346 242.018 263.068 239.673 263.787C232.654 265.939 229.853 270.059 231.956 275.138C234.052 280.201 247.809 283.763 258.671 282.056C269.99 280.278 274.568 277.547 274.568 272.575C274.568 265.652 268.589 262.56 254.406 262.146C249.502 262.004 245.14 262.02 244.713 262.183ZM311.402 262.326C299.704 265.191 296.185 268.827 298.876 275.27C299.806 277.498 300.779 278.27 304.329 279.599C313.812 283.15 322.614 283.403 332.869 280.419C338.831 278.686 341.256 276.308 341.256 272.199C341.256 265.703 335.037 262.552 321.482 262.18C316.791 262.051 312.255 262.116 311.402 262.326ZM375.764 262.965C369.078 264.86 367.667 265.625 366.041 268.238C362.759 273.51 365.74 278.06 374.179 280.661C381.61 282.951 391.533 282.929 399.17 280.606C405.635 278.64 407.945 276.377 407.945 272.011C407.945 268.033 406.281 266.103 401.153 264.129C395.442 261.929 381.648 261.298 375.764 262.965ZM442.452 262.965C440.32 263.569 437.633 264.425 436.483 264.866C431.801 266.659 430.21 273.446 433.619 277.076C438.335 282.098 455.084 283.943 465.858 280.627C472.322 278.637 474.633 276.368 474.633 272.011C474.633 268.033 472.97 266.103 467.841 264.129C462.131 261.929 448.336 261.298 442.452 262.965ZM509.14 262.965C500.402 265.442 498.672 266.995 498.672 272.368C498.672 276.495 500.791 278.523 507.31 280.627C517.877 284.039 535.71 281.974 539.719 276.874C541.622 274.454 541.832 269.913 540.151 267.514C539.508 266.594 536.978 265.071 534.529 264.129C528.819 261.929 515.024 261.298 509.14 262.965ZM13.2424 284.119C9.9646 285.811 4.92188 293.199 1.60529 301.169C-8.62284 325.75 -8.07073 356.748 2.99179 378.996C7.60957 388.282 10.7214 390.798 18.1688 391.273C28.5986 391.937 34.2896 385.945 40.0783 368.205C45.4661 351.69 45.7181 329.362 40.7157 311.597C38.0768 302.226 30.852 287.957 27.4176 285.337C23.8753 282.634 17.2282 282.063 13.2424 284.119ZM80.2247 283.877C73.9816 286.705 65.737 303.903 62.5391 320.769C60.9114 329.353 60.9168 348.001 62.5492 356.617C65.4741 372.054 71.0674 384.672 76.7716 388.705C79.7447 390.807 80.6465 391.033 86.0638 391.033C91.1786 391.033 92.4892 390.746 94.9458 389.093C98.6827 386.579 101.821 381.818 104.748 374.224C108.974 363.26 110.273 356.433 110.728 342.815C111.38 323.262 108.738 310.62 100.745 295.052C95.9097 285.634 93.3507 283.391 87.0277 283.03C84.3881 282.88 81.6825 283.216 80.2247 283.877ZM146.941 283.907C143.631 285.349 141.693 288.05 136.874 297.933C130.603 310.796 128.681 319.066 128.219 335.173C127.787 350.252 128.823 358.265 132.733 370.063C136.371 381.038 139.357 385.892 144.354 388.952C148.193 391.303 149.003 391.503 153.693 391.26C162.662 390.794 167.109 386.216 172.185 372.219C176.63 359.962 177.828 351.662 177.42 335.949C177.114 324.151 176.75 320.84 175.072 314.613C171.042 299.658 164.254 286.777 159.026 284.164C155.822 282.562 150.299 282.444 146.941 283.907ZM213.59 283.924C209.395 285.75 202.799 297.146 199.047 309.05C193.074 327.998 193.196 351.444 199.363 369.86C203.497 382.208 206.527 386.804 212.564 389.885C217.217 392.26 224.245 391.824 228.683 388.885C238.779 382.201 246.124 354.524 244.211 330.372C242.647 310.609 233.648 288.128 225.715 284.164C222.497 282.555 216.984 282.446 213.59 283.924ZM280.146 284.104C277.031 285.64 273.84 290.144 269.889 298.579C258.847 322.151 258.395 352.22 268.715 376.7C273.266 387.497 278.836 391.823 287.477 391.273C294.913 390.799 298.03 388.282 302.677 378.996C311.71 360.944 313.892 336.206 308.371 314.43C304.708 299.981 297.78 286.851 292.403 284.164C289.015 282.47 283.513 282.444 280.146 284.104ZM346.774 284.133C342.608 286.186 336.763 296.227 332.74 308.244C325.436 330.054 326.775 357.186 336.206 378.523C340.214 387.589 346.581 391.943 354.834 391.258C361.659 390.692 364.888 387.97 369.362 379.007C381.767 354.162 381.053 319.619 367.618 294.619C364.048 287.977 362.06 285.521 358.936 283.894C356.116 282.427 349.994 282.546 346.774 284.133ZM413.213 284.392C408.453 286.906 401.29 300.576 397.845 313.717C393.274 331.153 393.919 352.453 399.54 369.697C401.818 376.687 405.823 384.425 408.453 386.918C415.553 393.652 427.241 392.652 433.151 384.805C435.913 381.139 440.02 371.099 442.122 362.879C447.382 342.298 445.098 317.191 436.267 298.539C432.188 289.925 429.707 286.389 426.272 284.293C423.066 282.337 417.015 282.382 413.213 284.392ZM480.166 284.261C475.75 286.615 469.732 297.383 465.705 310.139C458.907 331.668 460.462 358.107 469.709 378.228C471.179 381.427 473.325 385.049 474.477 386.278C479.312 391.436 487.685 392.89 494.038 389.675C498.513 387.41 501.822 382.928 504.884 374.985C514.631 349.696 513.884 321.306 502.864 298.321C498.773 289.788 496.356 286.365 492.96 284.293C489.849 282.395 483.694 282.379 480.166 284.261ZM547.033 284.293C543.835 286.244 541.381 289.604 537.637 297.157C527.675 317.257 525.498 341.971 531.66 365.009C533.926 373.479 538.262 383.181 541.166 386.278C547.649 393.194 559.696 393.012 565.715 385.906C572.654 377.714 578.527 356.301 578.538 339.151C578.553 317.107 569.309 290.186 559.715 284.334C556.412 282.319 550.301 282.299 547.033 284.293ZM45.2296 291.852C44.6968 292.068 44.2603 293.105 44.2603 294.158C44.2603 297.701 51.9729 299.443 58.209 297.308C61.096 296.319 62.049 294.316 60.5136 292.465C59.8211 291.629 57.85 291.354 52.8894 291.4C49.2092 291.433 45.7631 291.637 45.2296 291.852ZM111.879 292.27C107.797 296.353 117.132 299.966 124.897 297.308C127.784 296.319 128.737 294.316 127.202 292.465C126.003 291.02 113.291 290.857 111.879 292.27ZM178.466 292.437C175.541 295.964 181.628 299.057 189.111 297.848C193.869 297.079 195.675 295.395 194.223 293.084C193.039 291.201 179.938 290.664 178.466 292.437ZM245.132 292.465C242.354 295.814 247.783 298.804 255.131 297.974C259.96 297.429 261.385 296.533 261.385 294.042C261.385 291.715 260.149 291.339 252.499 291.339C247.822 291.339 245.811 291.646 245.132 292.465ZM311.82 292.465C309.039 295.818 314.472 298.804 321.838 297.972C326.481 297.447 329.013 295.8 328.272 293.787C327.488 291.657 326.421 291.363 319.444 291.35C314.531 291.342 312.507 291.638 311.82 292.465ZM378.509 292.465C375.775 295.761 381.159 298.804 388.299 297.999C394.78 297.268 396.406 295.962 394.732 292.834C394.03 291.521 393.048 291.339 386.687 291.339C381.3 291.339 379.203 291.627 378.509 292.465ZM445.321 292.27C443.903 293.688 444.209 295.841 445.964 296.781C450.21 299.055 460.725 298.229 461.756 295.541C462.011 294.875 461.861 293.657 461.42 292.834C460.719 291.522 459.737 291.339 453.436 291.339C448.882 291.339 445.911 291.679 445.321 292.27ZM512.01 292.27C510.591 293.688 510.898 295.841 512.652 296.781C516.898 299.055 527.413 298.229 528.444 295.541C528.699 294.875 528.549 293.657 528.109 292.834C527.408 291.522 526.425 291.339 520.125 291.339C515.57 291.339 512.6 291.679 512.01 292.27ZM38.1435 400.783C31.277 402.001 29.9145 402.958 29.9145 406.559C29.9145 409.532 30.0797 409.736 34.1795 411.788C43.5298 416.47 55.374 417.276 66.01 413.955C73.3449 411.666 76.0536 409.791 76.0536 407.004C76.0536 401.946 72.0709 400.673 55.1165 400.313C48.0793 400.163 40.4412 400.374 38.1435 400.783ZM105.217 400.731C97.8072 402.056 95.5506 403.964 96.34 408.234C96.7091 410.225 104.001 413.683 110.949 415.159C117.906 416.639 125.439 416.222 132.698 413.955C140.033 411.666 142.742 409.791 142.742 407.004C142.742 401.932 138.685 400.634 121.805 400.302C114.768 400.164 107.303 400.357 105.217 400.731ZM171.905 400.773C164.551 402.006 162.237 403.952 163.028 408.234C163.398 410.225 170.689 413.683 177.637 415.159C184.594 416.639 192.128 416.222 199.387 413.955C207.102 411.547 209.43 409.838 209.43 406.58C209.43 403.329 207.533 402.094 200.548 400.803C195.331 399.838 177.594 399.82 171.905 400.773ZM238.593 400.773C231.24 402.006 228.925 403.952 229.717 408.234C230.086 410.225 237.377 413.683 244.325 415.159C251.283 416.639 258.816 416.222 266.075 413.955C273.791 411.547 276.119 409.838 276.119 406.58C276.119 403.329 274.221 402.094 267.237 400.803C262.02 399.838 244.282 399.82 238.593 400.773ZM304.842 400.791C298.084 401.987 295.619 404.194 296.613 408.159C297.671 412.373 312.293 416.761 322.53 415.937C330.125 415.325 340.23 411.849 342.231 409.16C343.584 407.341 343.636 406.877 342.699 404.961C340.98 401.451 337.145 400.575 322.258 400.292C315.007 400.155 307.171 400.379 304.842 400.791ZM371.53 400.791C364.772 401.987 362.307 404.194 363.301 408.158C364.347 412.325 379.096 416.752 389.218 415.937C397.002 415.31 406.914 411.854 409.012 409.035C410.49 407.051 410.529 406.694 409.479 404.841C407.564 401.459 403.549 400.57 388.946 400.292C381.696 400.155 373.859 400.379 371.53 400.791ZM438.219 400.791C431.461 401.987 428.996 404.194 429.99 408.158C431.051 412.387 445.774 416.748 456.189 415.917C466.867 415.065 476.959 410.534 476.959 406.592C476.959 404.896 474.429 402.522 471.531 401.499C468.094 400.287 443.97 399.774 438.219 400.791ZM506.814 400.506C501.659 401.212 498.615 402.424 497.421 404.247C495.355 407.401 496.528 409.647 501.459 411.981C511.464 416.716 523.836 417.292 534.663 413.525C541.239 411.237 544.073 408.736 543.35 405.857C542.657 403.091 540.248 401.734 534.342 400.78C529.545 400.006 511.76 399.828 506.814 400.506Z" fill="black"/>
</g>
</svg>
