<svg width="573" height="278" viewBox="0 0 573 278" fill="none" xmlns="http://www.w3.org/2000/svg">
<mask id="mask0_439_9995" style="mask-type:alpha" maskUnits="userSpaceOnUse" x="0" y="0" width="574" height="278">
<path fill-rule="evenodd" clip-rule="evenodd" d="M77 58.4549C77 58.9723 81.0571 61.7937 86.0147 64.7246C104.071 75.3977 110.661 83.5067 128.363 116.829C136.08 131.356 140.721 138.655 149.163 149.545C155.141 157.255 160.276 163.318 160.576 163.02C160.875 162.72 157.89 157.528 153.941 151.48C146.078 139.438 142.226 131.623 139.006 121.178C135.579 110.065 136.575 101.593 141.307 101.593C143.564 101.593 154.299 109.105 161.034 115.397C169.86 123.642 176.883 134.082 183.453 148.725C191.158 165.899 191.579 166.641 198.619 175.451C207.897 187.061 214.015 191.565 232.735 200.562C261.691 214.477 270.684 222.065 277.202 238.083C279.276 243.182 282.941 259.44 285.142 273.314C285.469 275.37 286.157 277.052 286.67 277.052C287.805 277.052 288.125 275.74 290.623 260.89C291.703 254.469 293.526 246.394 294.674 242.945C297.505 234.443 303.568 224.432 308.787 219.639C314.819 214.1 326.604 206.974 337.623 202.201C342.766 199.974 349.91 196.53 353.497 194.549C364.644 188.395 381.247 170.16 385.488 159.415C389.196 150.016 396.761 134.933 400.584 129.31C408.579 117.552 425.738 102.761 431.914 102.305C434.238 102.133 435.092 102.679 436.271 105.082C439.566 111.802 431.917 132.953 419.227 152.208C415.878 157.291 413.389 161.702 413.698 162.01C414.253 162.565 425.761 148.573 432.643 138.978C434.608 136.236 440.965 125.138 446.77 114.316C459.554 90.4752 463.198 85.031 472.008 76.596C478.441 70.437 492.59 60.719 495.123 60.719C495.763 60.719 496.287 60.053 496.287 59.2395C496.287 57.9525 495.802 57.9665 492.544 59.3532C480.118 64.6399 479.587 64.9569 456.355 80.8968C453.884 82.5915 443.327 89.8113 432.895 96.9393C422.463 104.068 413.021 110.704 411.913 111.685C407.211 115.85 392.503 123.742 385.08 126.082C380.672 127.473 372.556 129.491 367.045 130.566C344.697 134.924 335.6 138.674 324.781 147.984C319.431 152.588 320.004 153.602 325.757 149.714C342.205 138.597 357.745 133.408 368.475 135.449C374.822 136.656 379.49 141.849 379.476 147.686C379.453 157.687 368.533 172.148 358.89 174.948C353.913 176.392 353.331 176.368 349.183 174.535C345.719 173.006 344.515 171.816 343.587 169.007C342.936 167.038 342.692 164.521 343.045 163.412C344.02 160.342 348.411 155.545 351.902 153.735C356.724 151.235 353.498 151.108 346.929 153.54C342.163 155.303 339.21 157.515 331.321 165.226C321.376 174.946 318.858 179.087 317.281 188.326C316.618 192.205 316.139 192.73 322.715 182.37C325.54 177.921 327.514 176.073 331.646 174.018C338.353 170.68 339.437 170.711 344.046 174.369C346.119 176.014 348.202 177.359 348.676 177.359C349.149 177.359 349.537 178.981 349.537 180.963C349.537 186.271 345.017 193.807 339.741 197.297C335.381 200.181 329.072 202.117 327.888 200.934C327.074 200.122 332.084 193.5 336.455 189.61C338.434 187.848 339.474 186.39 338.765 186.37C334.131 186.234 317.799 198.776 308.644 209.5C301.883 217.42 294.787 230.839 292.007 240.963C290.293 247.201 290.26 247.242 286.915 246.945C283.63 246.653 283.478 246.435 280.612 237.899C277.03 227.23 274.711 222.542 269.111 214.649C261.669 204.158 243.964 188.917 236.738 186.78C234.711 186.181 235.31 187.187 239.982 192.227C243.135 195.627 245.713 199.055 245.713 199.847C245.713 203.661 233.814 198.641 228.985 192.79C224.974 187.931 221.978 177.359 224.611 177.359C225.085 177.359 227.169 176.014 229.241 174.369C233.797 170.754 235.412 170.675 241.503 173.771C247.202 176.667 249.673 179.21 253.742 186.361L256.845 191.815L256.245 187.495C254.744 176.671 241.995 161.186 229.409 154.899C220.312 150.355 216.569 150.208 222.955 154.646C230.705 160.033 232.853 166.43 228.688 171.718C223.325 178.527 211.718 176.58 203.495 167.491C198.858 162.366 195.172 155.101 194.322 149.415C193.767 145.702 194.048 144.378 196.012 141.47C199.182 136.775 202.898 135.195 210.765 135.195C220.796 135.195 230.895 139.003 245.077 148.132C248.846 150.558 252.12 152.351 252.354 152.118C253.321 151.152 242.353 142.522 235.76 139.062C230.172 136.129 224.791 134.506 210.482 131.438C200.484 129.294 189.651 126.587 186.407 125.421C180.224 123.201 166.074 115.252 161.21 111.266C159.644 109.983 150.275 103.393 140.392 96.6233C130.509 89.8531 117.481 80.8848 111.441 76.6947C97.7048 67.1651 89.6176 62.2871 84.4873 60.4348C82.291 59.6423 79.7074 58.6613 78.747 58.2546C77.7867 57.8478 77 57.9385 77 58.4549Z" fill="#FF0000"/>
<path fill-rule="evenodd" clip-rule="evenodd" d="M251.201 5.32512C262.933 18.0246 268.984 35.3564 272.044 65.0229L272.714 71.5191L263.851 63.0211C258.877 58.2509 252.358 53.133 248.994 51.357C245.698 49.616 233.357 44.9977 221.571 41.096C199.399 33.7544 186.335 27.6969 171.665 17.9547C167.594 15.2513 164.118 13.1835 163.941 13.3614C163.763 13.5383 166.819 17.2521 170.731 21.6135C179.23 31.0889 182.54 37.5321 182.553 44.63C182.569 52.9141 178.765 54.6431 164.169 52.984C148.416 51.1931 139.76 46.7217 120.617 30.4863C115.128 25.831 110.637 22.2771 110.637 22.5899C110.637 23.3685 118.005 34.2491 123.467 41.5368C125.938 44.8348 135.84 55.2767 145.47 64.7411C155.1 74.2065 162.753 82.1768 162.477 82.4537C161.758 83.1713 147.126 79.5574 140.098 76.9269C129.624 73.0062 119.855 61.8438 117.57 51.1871L116.496 46.1761L105.824 43.6775C85.2972 38.8724 74.4614 37.6161 54.8746 37.774C33.3388 37.9479 20.545 39.3011 9.67317 42.5562C-3.05271 46.3669 -3.14961 46.9686 8.95391 47.0036C17.3123 47.0266 20.8796 47.4913 25.2411 49.1243C32.7244 51.9257 43.3345 59.1834 53.8856 68.7178C62.4058 76.4182 69.2737 80.9246 87.1053 90.5159C97.3777 96.0407 102.803 100.711 109.413 109.717C111.99 113.228 114.265 115.597 114.47 114.982C114.675 114.367 113.435 111.002 111.714 107.505C106.303 96.5084 90.393 81.1714 71.3376 68.5828C62.5766 62.7953 59.1012 59.5402 55.7996 54.0294C52.9306 49.2412 53.1563 47.3324 56.8585 45.0797C61.6186 42.1834 66.2538 41.8096 76.1726 43.5226C92.0423 46.263 103.137 53.4717 111.683 66.595C119.68 78.8738 134.115 86.4333 157.227 90.445C171.146 92.8615 174.313 94.3317 194.849 107.905C205.399 114.878 214.703 120.994 215.524 121.497C216.345 121.999 215.303 120.023 213.207 117.104C211.112 114.187 209.545 111.652 209.725 111.473C210.338 110.858 249.235 120.805 252.115 122.313C258.928 125.881 268.775 139.979 264.453 139.979C263.89 139.979 260.968 139.113 257.96 138.056C247.972 134.544 251.318 137.467 269.07 147.765L276.157 151.878L276.791 181.158C277.139 197.261 277.883 215.16 278.442 220.931C280.411 241.235 284.245 262.088 286.408 264.256C286.873 264.722 287.953 262.698 288.806 259.758C293.323 244.195 296.294 215.307 297.14 178.719C297.665 156.001 297.996 151.799 299.35 150.67C300.225 149.941 305.211 146.939 310.431 143.999C321.412 137.816 320.921 138.148 320.186 137.412C319.874 137.1 317.239 137.551 314.33 138.416C306.907 140.621 306.174 139.327 310.934 132.415C317.376 123.057 319.243 122.111 342.78 116.29C354.343 113.429 363.937 111.224 364.101 111.388C364.265 111.551 362.824 113.666 360.9 116.088C358.976 118.509 357.398 120.834 357.393 121.253C357.387 121.673 365.549 116.557 375.532 109.885C385.514 103.212 395.74 96.7243 398.259 95.467C400.776 94.2088 408.547 92.009 415.528 90.5769C444.137 84.7064 452.1 80.216 464.244 63.1061C472.419 51.5889 483.389 45.5864 500.956 43.0169C508.326 41.9386 509.371 42.0065 513.521 43.8434C520.054 46.7347 520.794 48.7455 517.31 54.1434C514.461 58.5568 509.848 63.217 505.23 66.3452C503.857 67.2756 499.768 70.053 496.144 72.5155C486.638 78.9757 473.517 90.7698 467.979 97.8316C463.308 103.787 457.577 114.625 458.572 115.62C458.846 115.895 461.587 112.774 464.663 108.685C471.631 99.4237 476.102 95.7728 488.747 89.0228C503.472 81.1634 511.441 75.8046 520.832 67.4445C531.272 58.152 542.865 50.5025 549.493 48.5337C552.478 47.6472 558.654 47.0216 564.601 47.0036C571.798 46.9816 574.171 46.6888 572.944 45.9732C570.278 44.4181 559.92 41.2779 553.498 40.0766C545.258 38.5356 512.962 36.8545 505.23 37.5641C493.495 38.6415 477.939 41.137 467.02 43.6935C456.691 46.1121 456.281 46.31 456.271 48.8695C456.259 52.1445 452.305 60.8214 448.627 65.6466C444.371 71.2273 437.614 75.8386 430.404 78.0793C421.985 80.6957 411.327 82.9584 411.327 82.1289C411.327 81.7771 418.32 74.5233 426.866 66.0104C435.413 57.4974 444.795 47.6082 447.715 44.0353C454.118 36.2009 462.275 24.3309 462.275 22.8478C462.275 22.2571 460.14 23.7603 457.529 26.1878C443.99 38.7794 430.341 48.0839 421.72 50.5984C413.764 52.9191 400.506 54.1514 396.145 52.977C391.392 51.6968 389.949 49.0554 390.671 42.9549C391.48 36.129 395.173 29.5519 402.866 21.2397C406.562 17.2451 409.348 13.7382 409.056 13.4473C408.765 13.1555 406.484 14.4767 403.988 16.3826C393.072 24.7187 375.677 33.0378 354.21 40.1896C323.426 50.4455 320.735 51.8297 308.183 63.8766L301.44 70.3478V66.7579C301.44 61.1242 303.384 48.2668 305.513 39.8288C309.096 25.6202 315.73 12.6678 323.768 4.1818C327.445 0.301083 327.574 0.0142504 324.916 1.64329C314.09 8.27738 301.229 20.6521 294.945 30.4783C291.228 36.2919 287.5 45.3306 287.406 48.7575C287.38 49.733 286.086 47.1115 284.533 42.932C282.979 38.7514 280.013 32.68 277.941 29.4399C271.758 19.7686 258.592 7.03112 247.995 0.467984C245.87 -0.84824 246.802 0.562925 251.201 5.32512ZM205.954 49.3512C203.624 51.357 203.345 52.1675 203.923 55.2527C204.687 59.3253 208.362 66.616 212.167 71.6081C214.818 75.084 216.528 75.2809 216.528 72.1098C216.528 68.8597 222.392 62.0677 227.194 59.7571C233.121 56.9037 234.753 54.4652 232.071 52.4713C228.875 50.0977 224.924 50.7374 220.891 54.2793C218.858 56.0652 217.042 57.0776 216.857 56.528C215.95 53.8375 212.42 49.0424 210.647 48.0939C209.043 47.2344 208.13 47.4793 205.954 49.3512ZM362.121 48.1169C361.156 48.6796 359.461 50.9143 358.355 53.084C357.248 55.2527 356.074 57.0277 355.746 57.0277C355.418 57.0277 353.613 55.6785 351.735 54.0294C347.765 50.5405 343.529 50.1237 340.957 52.9671C338.726 55.4336 339.602 56.7868 344.963 59.1594C349.966 61.3731 355.989 67.9482 356.927 72.2187L357.577 75.182L360.012 72.8943C363.44 69.6722 369.37 57.3895 369.37 53.5107C369.37 51.1601 368.689 49.8149 366.908 48.6476C364.048 46.7727 364.368 46.8077 362.121 48.1169ZM186.226 54.696C185.86 55.0618 185.56 57.1226 185.56 59.2743V63.187L182.195 61.1073C177.549 58.234 173.57 58.3119 173.577 61.2752C173.586 65.1209 176.69 68.7298 187.911 77.9453C195.759 84.3905 202.333 88.693 211.709 93.5212C218.834 97.19 224.843 100.011 225.063 99.7925C225.283 99.5726 223.701 96.0297 221.548 91.9191C216.763 82.7825 207.244 71.2103 202.328 68.5509L198.687 66.582L194.208 69.8001C191.744 71.5701 189.526 73.0182 189.279 73.0182C189.031 73.0182 189.891 70.9185 191.19 68.352C194.027 62.7453 194.229 57.9511 191.724 55.6835C189.835 53.9735 187.388 53.5337 186.226 54.696ZM381.831 55.4236C379.287 57.2855 379.547 63.9806 382.348 68.7298C384.842 72.9603 384.512 73.7068 381.261 71.1823C376.297 67.3286 374.65 66.8759 371.053 68.38C366.735 70.1839 357.047 82.0969 351.581 92.3219C346.597 101.644 346.499 101.636 362.378 93.2903C374.136 87.1099 376.193 85.6878 388.676 75.104C397.118 67.9472 400.338 63.9346 400.338 60.5756C400.338 58.2869 394.175 58.5857 391.075 61.0253C387.801 63.6018 386.982 63.5488 387.698 60.8054C389.15 55.2537 386.006 52.3694 381.831 55.4236ZM237.057 63.3639C231.174 67.6674 245.759 87.6306 256.237 89.6155C259.783 90.2871 260.491 91.5873 257.735 92.3678C253.56 93.5501 243.794 94.0588 241.518 93.2123L239.038 92.2899L241.329 91.5623C245.059 90.378 243.345 85.4839 237.023 79.2646C231.517 73.8497 227.336 72.4426 226.125 75.5987C224.214 80.5808 227.67 91.6253 233.41 98.875C236.697 103.029 247.674 110.996 250.107 110.996C251.738 110.996 251.928 107.684 250.458 104.933C248.54 101.348 251.155 102.966 256.623 108.747C259.611 111.907 265.187 119.432 269.012 125.467L275.967 136.441L276.746 122.291C277.468 109.166 277.341 107.331 274.998 96.9421C273.607 90.7818 272.47 84.4985 272.47 82.9784C272.47 79.7063 264.546 71.9479 254.988 65.8605C250.084 62.7383 248.075 62.0417 243.941 62.0347C241.162 62.0287 238.064 62.6274 237.057 63.3639ZM323.418 62.8442C315.55 66.4111 301.44 78.3721 301.44 81.4743C301.44 82.7185 300.342 89.1307 299 95.7229C296.811 106.476 296.631 109.136 297.252 121.595L297.944 135.481L304.437 125.052C308.009 119.314 313.339 112.006 316.283 108.811C321.596 103.043 324.315 101.374 322.896 104.75C321.098 109.031 321.152 110.996 323.069 110.996C325.384 110.996 331.619 106.944 336.736 102.116C347.163 92.2759 351.695 74.0176 343.709 74.0176C339.904 74.0176 330.41 83.9948 330.41 87.9934C330.41 89.7214 331.07 91.0466 332.131 91.4544C335.934 92.9145 330.889 94.0448 323.418 93.4062C313.729 92.5787 311.638 91.0936 317.68 89.3316C325.104 87.1659 333.637 78.45 337.346 69.2445C338.511 66.3552 338.457 65.7405 336.881 63.9976C335.527 62.5014 333.865 62.0417 330.006 62.0947C327.207 62.1337 324.242 62.4705 323.418 62.8442Z" fill="white"/>
</mask>
<g mask="url(#mask0_439_9995)">
<path fill-rule="evenodd" clip-rule="evenodd" d="M-69.7613 -146.079L-71.6046 -144.157L-38.3083 -110.908L-5.01144 -77.6587H-13.0661C-21.8375 -77.6587 -23.5532 -77.1904 -23.5532 -74.7963C-23.5532 -72.5278 -21.5282 -72.0093 -12.6694 -72.0093H-5.01144L-38.3127 -38.7553C-63.4355 -13.6684 -71.4361 -5.32435 -70.8897 -4.77888C-70.3434 -4.2334 -70.3466 -3.76701 -70.9017 -2.8788C-71.5593 -1.82803 -68.0657 1.86602 -38.3247 31.5647L-5.01144 64.8306H-13.5766C-22.7987 64.8306 -23.8574 65.1802 -23.4444 68.0915C-23.242 69.5151 -23.0961 69.5409 -14.2801 69.7122C-9.35311 69.8083 -5.32138 70.0895 -5.32138 70.338C-5.32138 70.586 -20.2243 85.6716 -38.4397 103.861C-65.7434 131.126 -71.426 137.09 -70.8086 137.833C-70.2189 138.542 -70.2711 138.908 -71.0532 139.556C-71.9214 140.275 -67.8029 144.618 -38.529 173.85L-5.01144 207.32L-13.4968 207.329C-18.1635 207.335 -22.2926 207.546 -22.673 207.8C-23.733 208.507 -24.0737 210.025 -23.4463 211.243C-22.9471 212.211 -21.8199 212.341 -13.9456 212.341H-5.01144L-38.4969 245.779C-68.8912 276.131 -71.8912 279.308 -70.9973 280.2C-70.1033 281.092 -70.1064 281.261 -71.0299 282.026C-71.929 282.771 -68.1644 286.746 -38.529 316.339L-5.01144 349.809H-13.9456C-22.2367 349.809 -22.9289 349.899 -23.5532 351.064C-24.0309 351.956 -24.0309 352.683 -23.5532 353.575C-22.9289 354.74 -22.2367 354.831 -13.9456 354.831H-5.01144L-38.5057 388.277L-72 421.724L-70.0756 423.564L-68.1512 425.405L-34.8506 392.16L-1.54929 358.915V367.185C-1.54929 373.866 -1.35943 375.645 -0.561628 376.442C0.804498 377.805 1.97762 377.675 3.12999 376.033C3.88944 374.95 4.10885 372.876 4.10885 366.777V358.915L37.3862 392.136C66.2515 420.953 70.7944 425.25 71.6494 424.541C72.363 423.95 72.8609 423.912 73.4512 424.401C74.0805 424.922 81.8913 417.464 107.557 391.833L140.847 358.587L141.161 367.47C141.429 375.033 141.639 376.456 142.576 377.044C143.377 377.547 143.975 377.547 144.776 377.044C145.726 376.446 145.9 375.122 146.052 367.338L146.227 358.324L179.801 391.841C208.923 420.914 213.505 425.25 214.36 424.541C215.074 423.95 215.572 423.912 216.162 424.401C216.791 424.922 224.602 417.464 250.268 391.833L283.558 358.587L283.872 367.47C284.14 375.033 284.35 376.456 285.287 377.044C286.088 377.547 286.686 377.547 287.487 377.044C288.424 376.456 288.634 375.033 288.902 367.47L289.216 358.587L322.506 391.833C348.172 417.464 355.983 424.922 356.612 424.401C357.202 423.912 357.7 423.95 358.414 424.541C359.269 425.25 363.851 420.914 392.973 391.841L426.547 358.324L426.722 367.338C426.873 375.122 427.048 376.446 427.998 377.044C428.799 377.547 429.397 377.547 430.198 377.044C431.135 376.456 431.345 375.033 431.612 367.47L431.927 358.587L465.217 391.833C490.883 417.464 498.693 424.922 499.323 424.401C499.913 423.912 500.411 423.95 501.125 424.541C501.98 425.25 506.522 420.953 535.388 392.136L568.665 358.915V366.777C568.665 372.876 568.885 374.95 569.644 376.033C570.796 377.675 571.969 377.805 573.336 376.442C574.133 375.645 574.323 373.866 574.323 367.185V358.915L607.625 392.16L640.925 425.405L642.85 423.564L644.774 421.724L611.28 388.277L577.785 354.831H586.383C593.36 354.831 595.166 354.645 595.968 353.845C597.137 352.677 597.147 352.593 596.305 351.023C595.709 349.91 594.909 349.809 586.72 349.809H577.785L611.271 316.371C641.665 286.02 644.665 282.843 643.771 281.951C642.877 281.058 642.88 280.889 643.804 280.124C644.703 279.379 640.938 275.404 611.303 245.811L577.785 212.341H586.72C595.011 212.341 595.703 212.251 596.327 211.086C596.805 210.194 596.805 209.467 596.327 208.575C595.703 207.41 595.011 207.32 586.72 207.32H577.785L611.275 173.877C637.022 148.168 644.593 140.264 644.023 139.695C643.452 139.125 643.475 138.719 644.12 137.943C644.86 137.053 640.974 132.951 611.842 103.861C593.627 85.6716 578.724 70.5866 578.724 70.3387C578.724 70.0907 582.584 69.8089 587.301 69.7129C594.667 69.5628 595.976 69.3833 596.571 68.4399C597.075 67.6395 597.075 67.0432 596.571 66.2429C595.974 65.2976 594.661 65.1199 587.165 64.9687L578.451 64.7935L611.706 31.586C640.551 2.78184 644.852 -1.75145 644.142 -2.60513C643.471 -3.41299 643.471 -3.76575 644.142 -4.57361C644.852 -5.42729 640.549 -9.96309 611.687 -38.7836L578.414 -72.0093H586.697C595.476 -72.0093 596.956 -72.4657 596.956 -75.1704C596.956 -77.1634 594.867 -77.6587 586.469 -77.6587H578.414L611.711 -110.908L645.007 -144.157L643.164 -146.079L641.321 -148L607.822 -114.558L574.323 -81.1154V-90.0358C574.323 -98.3139 574.233 -99.0051 573.066 -99.6284C572.173 -100.105 571.445 -100.105 570.551 -99.6284C569.384 -99.0051 569.294 -98.3139 569.294 -90.0358V-81.1154L535.804 -114.549C505.405 -144.896 502.224 -147.891 501.33 -146.999C500.436 -146.106 500.267 -146.109 499.501 -147.031C498.754 -147.929 494.774 -144.17 465.134 -114.581L431.612 -81.1154V-90.0358C431.612 -98.2129 431.511 -99.0107 430.397 -99.6064C428.824 -100.447 428.74 -100.437 427.571 -99.2699C426.769 -98.469 426.583 -96.6662 426.583 -89.6993V-81.1154L393.089 -114.553C367.339 -140.26 359.423 -147.819 358.853 -147.25C358.282 -146.68 357.876 -146.703 357.098 -147.347C356.207 -148.085 352.08 -144.187 322.808 -114.964L289.53 -81.7431V-89.4715C289.53 -93.7223 289.256 -97.7132 288.919 -98.3403C288.002 -100.051 286.362 -100.428 285.038 -99.2323C284.012 -98.3045 283.872 -97.1596 283.872 -89.6472V-81.1154L250.378 -114.553C224.628 -140.26 216.712 -147.819 216.142 -147.25C215.594 -146.703 215.178 -146.692 214.556 -147.207C213.891 -147.758 206.68 -140.882 180.424 -114.66L147.134 -81.4155L146.82 -89.9761C146.529 -97.8921 146.402 -98.6058 145.137 -99.4426C143.906 -100.257 143.638 -100.218 142.465 -99.0465C141.282 -97.8658 141.161 -97.0027 141.161 -89.7445V-81.7431L107.884 -114.964C78.6114 -144.187 74.4848 -148.085 73.5939 -147.347C72.8162 -146.703 72.4101 -146.68 71.8393 -147.25C71.269 -147.819 63.3527 -140.26 37.6031 -114.553L4.10885 -81.1154L4.09942 -89.5876C4.09376 -94.247 3.8819 -98.3698 3.62791 -98.7496C2.92001 -99.8079 1.39986 -100.148 0.179589 -99.5217C-0.789839 -99.0233 -0.920605 -97.8978 -0.920605 -90.0358V-81.1154L-34.4193 -114.558L-67.918 -148L-69.7613 -146.079ZM40.5724 -109.986L8.19969 -77.6587H16.4826C23.1743 -77.6587 24.9553 -77.4691 25.7537 -76.6725C26.2969 -76.1296 26.7414 -75.3167 26.7414 -74.866C26.7414 -72.9082 24.6605 -72.3225 16.5832 -72.0093L8.49831 -71.6955L40.7258 -39.5255L72.9539 -7.35561L105.327 -39.6825L137.699 -72.0093H129.645C125.214 -72.0093 121.042 -72.3018 120.373 -72.659C118.983 -73.4022 118.755 -75.9155 119.985 -76.9349C120.464 -77.3323 124.302 -77.6944 129.105 -77.7968L137.398 -77.9725L105.171 -110.142L72.9451 -142.312L40.5724 -109.986ZM182.673 -110.004L150.319 -77.6957L159.024 -77.5206C167.168 -77.3561 167.788 -77.2569 168.637 -75.9783C169.453 -74.7486 169.414 -74.4818 168.241 -73.3105C167.058 -72.1298 166.194 -72.0093 158.922 -72.0093H150.907L183.127 -39.84L215.346 -7.67071L247.565 -39.84L279.785 -72.0093H271.77C264.498 -72.0093 263.634 -72.1298 262.451 -73.3105C261.278 -74.4818 261.238 -74.7486 262.055 -75.9783C262.904 -77.2569 263.524 -77.3561 271.668 -77.5206L280.372 -77.6957L248.019 -110.004C230.224 -127.773 215.521 -142.312 215.346 -142.312C215.171 -142.312 200.468 -127.773 182.673 -110.004ZM325.365 -109.986L292.993 -77.6587H301.509C310.52 -77.6587 311.534 -77.3624 311.534 -74.7304C311.534 -72.492 309.674 -72.0093 301.047 -72.0093H292.993L325.365 -39.6825L357.738 -7.35561L389.966 -39.5255L422.194 -71.6955L414.109 -72.0093C404.652 -72.3765 402.615 -73.3143 404.564 -76.4032C405.027 -77.137 407.038 -77.4139 413.676 -77.6587L422.194 -77.9725L389.965 -110.142L357.738 -142.312L325.365 -109.986ZM468.076 -109.986L435.703 -77.6587H443.758C452.49 -77.6587 454.245 -77.186 454.245 -74.834C454.245 -72.482 452.49 -72.0093 443.758 -72.0093H435.703L468.076 -39.6825L500.449 -7.35561L532.677 -39.5255L564.905 -71.6955L556.388 -72.0093C547.551 -72.3351 546.695 -72.622 546.671 -75.2677C546.655 -77.0341 547.888 -77.3316 556.569 -77.6587L564.904 -77.9725L532.676 -110.142L500.449 -142.312L468.076 -109.986ZM-33.6108 -35.92L-65.986 -3.58812L-33.4536 28.8944L-0.920605 61.3769V52.5583C-0.920605 43.7955 -0.57546 42.2332 1.36088 42.2332C1.78524 42.2332 2.57738 42.677 3.12119 43.2193C3.92276 44.0202 4.10885 45.8236 4.10885 52.7912V61.3769L36.6425 28.8938L69.1762 -3.58937L36.6425 -36.0725L4.10885 -68.5557V-60.0019C4.10885 -50.7928 3.75867 -49.7358 0.842848 -50.1482C-0.575458 -50.3491 -0.613179 -50.543 -0.920605 -59.3033L-1.23495 -68.2525L-33.6108 -35.92ZM108.627 -36.0763L76.4073 -3.89883L108.784 28.4236L141.161 60.7461V52.8847C141.161 46.7853 141.381 44.7107 142.14 43.6285C143.198 42.1195 144.086 41.9168 145.562 42.8458C146.297 43.3084 146.574 45.3158 146.82 51.9438L147.134 60.4479L179.354 28.2698L211.574 -3.90762L179.197 -36.2301L146.82 -68.5525V-60.049C146.82 -54.2728 146.578 -51.3044 146.065 -50.7928C145.078 -49.8073 142.631 -49.8262 141.984 -50.8242C141.705 -51.2555 141.334 -55.3538 141.161 -59.9316L140.847 -68.2544L108.627 -36.0763ZM251.338 -36.075L219.118 -3.89883L251.495 28.4236L283.872 60.7461V52.4761C283.872 45.7948 284.062 44.0165 284.86 43.2193C286.226 41.8559 287.399 41.9858 288.552 43.6285C289.311 44.7107 289.53 46.7853 289.53 52.8847V60.7461L321.908 28.4236L354.285 -3.89883L322.065 -36.0769L289.845 -68.255L289.53 -59.9316C289.358 -55.3544 288.987 -51.2555 288.707 -50.8242C288.039 -49.7923 285.467 -49.818 284.597 -50.8657C284.199 -51.344 283.836 -55.1761 283.734 -59.9712L283.558 -68.2512L251.338 -36.075ZM393.893 -35.9194L361.518 -3.58812L394.05 28.8944L426.583 61.3769V52.4189C426.583 43.5024 426.59 43.4584 428.136 42.7554C431.169 41.3757 431.612 42.6211 431.612 52.5093V61.3769L464.146 28.8944L496.678 -3.58812L464.303 -35.92L431.927 -68.2525L431.612 -59.3033L431.298 -50.3535L429.672 -50.1645C428.778 -50.0609 427.726 -50.3622 427.334 -50.8336C426.904 -51.3509 426.551 -54.9796 426.445 -59.9712L426.269 -68.2512L393.893 -35.9194ZM536.604 -35.9194L504.228 -3.58812L536.761 28.8944L569.294 61.3769V52.4189C569.294 43.5024 569.301 43.4584 570.847 42.7554C573.879 41.3757 574.323 42.6211 574.323 52.5093V61.3769L606.856 28.8944L639.389 -3.58812L607.014 -35.92L574.638 -68.2525L574.323 -59.3033L574.009 -50.3535L571.987 -50.1582C569.451 -49.9134 569.338 -50.324 569.133 -60.5581L568.979 -68.2512L536.604 -35.9194ZM39.9437 32.5037L7.571 64.8306H16.541C25.4702 64.8306 25.5142 64.8375 26.2183 66.381C27.6002 69.4091 26.3529 69.8522 16.4492 69.8522H7.56786L40.1009 102.335L72.6339 134.817L105.016 102.492L137.399 70.1661L128.436 69.8522C119.662 69.5453 119.468 69.5076 119.266 68.0915C118.853 65.1802 119.912 64.8306 129.134 64.8306H137.699L105.327 32.5037C87.5217 14.7239 72.8106 0.176865 72.6352 0.176865C72.4598 0.176865 57.7486 14.7239 39.9437 32.5037ZM182.654 32.5037L150.282 64.8306H158.879C165.857 64.8306 167.662 65.0164 168.465 65.8167C169.633 66.9842 169.643 67.0677 168.801 68.6382C168.205 69.7512 167.406 69.8522 159.215 69.8522H150.279L182.812 102.335L215.346 134.818L247.88 102.335L280.413 69.8522H271.477C263.286 69.8522 262.487 69.7512 261.89 68.6382C261.049 67.0677 261.059 66.9842 262.227 65.8167C263.03 65.0164 264.835 64.8306 271.813 64.8306H280.41L248.037 32.5037C230.233 14.7239 215.521 0.176865 215.346 0.176865C215.171 0.176865 200.459 14.7239 182.654 32.5037ZM325.365 32.5037L292.993 64.8306H301.558C310.78 64.8306 311.839 65.1802 311.426 68.0915C311.224 69.5076 311.03 69.5453 302.256 69.8522L293.293 70.1661L325.676 102.492L358.058 134.817L390.591 102.335L423.124 69.8522H414.292C405.515 69.8522 403.95 69.5076 403.95 67.5743C403.95 67.1506 404.395 66.3597 404.938 65.8167C405.74 65.0164 407.546 64.8306 414.524 64.8306H423.121L390.748 32.5037C372.943 14.7239 358.232 0.176865 358.057 0.176865C357.881 0.176865 343.17 14.7239 325.365 32.5037ZM468.076 32.5037L435.703 64.8306H444.268C453.491 64.8306 454.549 65.1802 454.136 68.0915C453.934 69.5151 453.788 69.5409 444.972 69.7122C440.045 69.8083 436.013 70.092 436.013 70.3425C436.013 70.5929 450.513 85.2737 468.236 102.966L500.458 135.134L532.676 102.961C550.395 85.2668 564.893 70.5866 564.893 70.3387C564.893 70.0907 561.034 69.8089 556.316 69.7129C548.95 69.5628 547.641 69.3833 547.046 68.4399C546.542 67.6402 546.542 67.0426 547.045 66.2429C547.633 65.312 549.045 65.0967 556.32 64.8306L564.903 64.5167L532.676 32.3468L500.449 0.176865L468.076 32.5037ZM431.612 82.5538V91.7981L430.033 92.1941C426.98 92.9587 426.583 91.8426 426.583 82.4873V73.9336L394.05 106.416L361.518 138.899L393.893 171.23L426.269 203.563L426.583 194.68C426.851 187.117 427.061 185.695 427.998 185.106C428.799 184.603 429.397 184.603 430.198 185.107C431.148 185.704 431.322 187.029 431.474 194.813L431.649 203.827L464.008 171.522C481.805 153.755 496.367 138.934 496.367 138.586C496.367 138.238 481.797 123.409 463.99 105.631L431.612 73.309V82.5538ZM-34.0861 106.419L-66.3035 138.59L-33.9264 170.913L-1.54929 203.235V194.965C-1.54929 188.284 -1.35943 186.506 -0.561628 185.708C0.56497 184.584 1.49731 184.483 2.85149 185.336C3.58642 185.799 3.86366 187.806 4.10885 194.434L4.42319 202.938L36.6431 170.76L68.8631 138.582L36.486 106.259L4.10885 73.9367V82.4886C4.10885 91.6964 3.75867 92.7534 0.842848 92.341C-0.583002 92.1389 -0.608779 91.9933 -0.780409 83.191C-0.876597 78.2716 -1.16076 74.2462 -1.4116 74.2462C-1.66245 74.2462 -16.3661 88.7236 -34.0861 106.419ZM108.627 106.413L76.4073 138.59L108.766 170.894L141.124 203.198L141.3 194.498C141.451 187.014 141.629 185.702 142.576 185.107C143.377 184.603 143.975 184.603 144.776 185.106C145.713 185.695 145.923 187.117 146.191 194.68L146.505 203.563L179.04 171.072L211.574 138.582L179.197 106.259L146.82 73.9367V81.9789C146.82 86.4023 146.527 90.5678 146.169 91.2356C145.437 92.6015 142.769 92.8752 141.984 91.665C141.705 91.2338 141.334 87.1355 141.161 82.5576L140.847 74.2348L108.627 106.413ZM251.183 106.567L218.808 138.9L251.183 171.232L283.558 203.563L283.872 194.68C284.14 187.117 284.35 185.695 285.287 185.106C286.088 184.603 286.686 184.603 287.487 185.106C288.424 185.695 288.634 187.117 288.902 194.68L289.216 203.563L321.75 171.072L354.285 138.582L321.908 106.259L289.53 73.9367V81.5834C289.53 90.4096 289.009 92.4496 286.754 92.4496C285.902 92.4496 284.975 92.0968 284.695 91.665C284.415 91.2338 284.045 87.1355 283.872 82.5576L283.558 74.2348L251.183 106.567ZM536.605 106.568L504.23 138.9L536.291 170.918L568.351 202.937L568.665 194.865C568.992 186.472 569.544 184.722 571.863 184.722C573.825 184.722 574.323 186.842 574.323 195.193V203.235L606.7 170.913L639.078 138.59L606.858 106.414L574.638 74.2361L574.323 82.8055C574.057 90.0693 573.841 91.4798 572.909 92.0661C572.108 92.5689 571.509 92.5689 570.708 92.0661C569.776 91.4798 569.56 90.0693 569.294 82.8055L568.979 74.2361L536.605 106.568ZM39.9437 174.993L7.571 207.32H16.1362C25.3583 207.32 26.417 207.669 26.004 210.581C25.8028 211.997 25.6085 212.034 16.8346 212.341L7.87151 212.655L40.2543 244.981L72.6364 277.306L105.169 244.824L137.702 212.341H128.821C118.917 212.341 117.67 211.898 119.052 208.87C119.756 207.327 119.8 207.32 128.729 207.32H137.699L105.327 174.993C87.5217 157.213 72.8106 142.666 72.6352 142.666C72.4598 142.666 57.7486 157.213 39.9437 174.993ZM182.673 174.974L150.319 207.283L159.032 207.458C166.528 207.609 167.842 207.787 168.439 208.732C168.943 209.532 168.943 210.129 168.439 210.929C167.852 211.86 166.44 212.075 159.164 212.341L150.582 212.655L182.964 244.98L215.346 277.305L247.728 244.98L280.11 212.655L271.213 212.341C263.638 212.074 262.214 211.864 261.624 210.929C261.12 210.129 261.12 209.532 261.624 208.732C262.223 207.784 263.549 207.61 271.346 207.458L280.374 207.283L248.019 174.975C230.224 157.205 215.521 142.666 215.346 142.666C215.171 142.666 200.468 157.205 182.673 174.974ZM325.384 174.974L293.03 207.283L301.743 207.458C309.239 207.609 310.553 207.787 311.15 208.732C311.654 209.532 311.654 210.129 311.15 210.929C310.56 211.864 309.136 212.074 301.561 212.341L292.664 212.655L325.206 245.139L357.747 277.623L390.416 245L423.084 212.378L414.057 212.203C406.26 212.051 404.934 211.878 404.335 210.929C403.831 210.129 403.831 209.532 404.335 208.732C404.922 207.801 406.334 207.586 413.61 207.32L422.192 207.006L389.965 174.836L357.738 142.666L325.384 174.974ZM467.447 174.993L435.075 207.32H444.045C452.974 207.32 453.018 207.327 453.722 208.87C455.104 211.898 453.857 212.341 443.953 212.341H435.072L467.605 244.824L500.138 277.306L532.52 244.981L564.902 212.655L555.939 212.341C547.165 212.034 546.971 211.997 546.77 210.581C546.357 207.669 547.416 207.32 556.638 207.32H565.203L532.83 174.993C515.025 157.213 500.314 142.666 500.139 142.666C499.963 142.666 485.252 157.213 467.447 174.993ZM251.183 248.429L218.808 280.761L251.183 313.093L283.558 345.425L283.872 336.856C284.139 329.592 284.354 328.181 285.287 327.595C286.088 327.092 286.686 327.092 287.487 327.596C288.437 328.193 288.611 329.518 288.763 337.302L288.938 346.316L321.297 314.012C339.094 296.244 353.656 281.423 353.656 281.075C353.656 280.727 339.094 265.906 321.297 248.139L288.938 215.835L288.763 224.848C288.611 232.633 288.437 233.957 287.487 234.555C286.686 235.058 286.088 235.058 285.287 234.555C284.35 233.966 284.14 232.544 283.872 224.981L283.558 216.098L251.183 248.429ZM393.734 248.589L361.2 281.08L393.873 313.698L426.547 346.316L426.722 337.302C426.873 329.518 427.048 328.193 427.998 327.596C428.799 327.092 429.396 327.092 430.198 327.596C431.145 328.191 431.323 329.503 431.474 336.987L431.65 345.687L464.008 313.383L496.367 281.08L464.147 248.903L431.927 216.725L431.612 225.295C431.346 232.559 431.13 233.969 430.198 234.555C429.397 235.058 428.799 235.058 427.998 234.555C427.061 233.966 426.851 232.544 426.583 224.981L426.269 216.098L393.734 248.589ZM-34.0836 248.902L-66.3035 281.08L-33.9264 313.402L-1.54929 345.724V337.682C-1.54929 328.964 -1.07589 327.212 1.27978 327.212C3.63545 327.212 4.10885 328.964 4.10885 337.682V345.724L36.486 313.402L68.8631 281.08L36.6431 248.902L4.42319 216.723L4.10885 225.228C3.78256 234.051 3.49526 234.906 0.845362 234.929C-0.923749 234.945 -1.22174 233.714 -1.54929 225.047L-1.86363 216.724L-34.0836 248.902ZM108.627 248.903L76.4073 281.08L108.766 313.383L141.124 345.687L141.3 336.987C141.451 329.503 141.629 328.191 142.576 327.596C143.378 327.092 143.975 327.092 144.776 327.596C145.721 328.19 145.901 329.496 146.051 336.851C146.148 341.562 146.432 345.415 146.683 345.415C146.933 345.415 161.636 330.938 179.356 313.243L211.574 281.071L179.351 248.903C161.629 231.211 146.927 216.735 146.678 216.735C146.43 216.735 146.148 220.589 146.051 225.299C145.901 232.654 145.721 233.96 144.776 234.555C143.975 235.058 143.377 235.058 142.576 234.555C141.644 233.969 141.428 232.559 141.161 225.295L140.847 216.725L108.627 248.903ZM536.131 248.902L503.911 281.08L536.288 313.402L568.665 345.724L568.674 338.194C568.684 329.155 568.949 327.95 571.038 327.426C573.8 326.734 574.323 328.343 574.323 337.529V345.724L606.7 313.402L639.078 281.08L606.858 248.902L574.638 216.724L574.323 225.047C574.15 229.625 573.78 233.723 573.5 234.154C573.221 234.586 572.318 234.939 571.494 234.939C570.671 234.939 569.768 234.586 569.488 234.154C569.208 233.723 568.838 229.624 568.665 225.047L568.351 216.723L536.131 248.902ZM182.358 317.15L149.69 349.773L158.717 349.948C166.514 350.099 167.84 350.273 168.439 351.221C168.943 352.021 168.943 352.619 168.439 353.418C167.852 354.349 166.44 354.564 159.164 354.831L150.582 355.144L182.964 387.469L215.346 419.794L247.728 387.469L280.11 355.144L271.213 354.831C263.638 354.563 262.214 354.354 261.624 353.418C261.12 352.619 261.12 352.021 261.624 351.221C262.214 350.286 263.638 350.076 271.213 349.809L280.11 349.495L247.568 317.011L215.027 284.528L182.358 317.15ZM325.069 317.15L292.4 349.773L301.428 349.948C309.224 350.099 310.551 350.273 311.15 351.221C311.654 352.021 311.654 352.619 311.15 353.418C310.563 354.349 309.15 354.564 301.875 354.831L293.292 355.144L325.52 387.314L357.747 419.484L390.101 387.176L422.454 354.868L413.742 354.693C406.246 354.541 404.932 354.364 404.335 353.418C403.831 352.619 403.831 352.021 404.335 351.221C404.924 350.286 406.349 350.076 413.924 349.809L422.82 349.495L390.279 317.011L357.738 284.528L325.069 317.15ZM39.962 317.464L7.60747 349.773L16.7026 349.948C25.662 350.12 25.8015 350.145 26.004 351.57C26.417 354.481 25.3583 354.831 16.1349 354.831H7.56786L40.1015 387.314L72.6352 419.797L105.169 387.314L137.702 354.831H128.731C119.8 354.831 119.756 354.824 119.052 353.28C117.67 350.252 118.917 349.809 128.82 349.809H137.699L105.327 317.482C87.5217 299.702 72.8106 285.155 72.6352 285.155C72.4598 285.155 57.7568 299.694 39.962 317.464ZM467.466 317.464L435.111 349.773L444.139 349.948C451.935 350.099 453.262 350.273 453.86 351.221C454.364 352.021 454.364 352.619 453.861 353.418C453.271 354.354 451.847 354.563 444.272 354.831L435.375 355.144L467.758 387.47L500.14 419.795L532.673 387.313L565.206 354.831H556.639C547.416 354.831 546.357 354.481 546.77 351.57C546.972 350.145 547.112 350.12 556.071 349.948L565.167 349.773L532.812 317.464C515.017 299.694 500.314 285.155 500.139 285.155C499.963 285.155 485.26 299.694 467.466 317.464Z" fill="black"/>
</g>
</svg>
