<svg width="573" height="278" viewBox="0 0 573 278" fill="none" xmlns="http://www.w3.org/2000/svg">
<mask id="mask0_439_10012" style="mask-type:alpha" maskUnits="userSpaceOnUse" x="0" y="0" width="574" height="278">
<path fill-rule="evenodd" clip-rule="evenodd" d="M77 58.4549C77 58.9723 81.0571 61.7937 86.0147 64.7246C104.071 75.3977 110.661 83.5067 128.363 116.829C136.08 131.356 140.721 138.655 149.163 149.545C155.141 157.255 160.276 163.318 160.576 163.02C160.875 162.72 157.89 157.528 153.941 151.48C146.078 139.438 142.226 131.623 139.006 121.178C135.579 110.065 136.575 101.593 141.307 101.593C143.564 101.593 154.299 109.105 161.034 115.397C169.86 123.642 176.883 134.082 183.453 148.725C191.158 165.899 191.579 166.641 198.619 175.451C207.897 187.061 214.015 191.565 232.735 200.562C261.691 214.477 270.684 222.065 277.202 238.083C279.276 243.182 282.941 259.44 285.142 273.314C285.469 275.37 286.157 277.052 286.67 277.052C287.805 277.052 288.125 275.74 290.623 260.89C291.703 254.469 293.526 246.394 294.674 242.945C297.505 234.443 303.568 224.432 308.787 219.639C314.819 214.1 326.604 206.974 337.623 202.201C342.766 199.974 349.91 196.53 353.497 194.549C364.644 188.395 381.247 170.16 385.488 159.415C389.196 150.016 396.761 134.933 400.584 129.31C408.579 117.552 425.738 102.761 431.914 102.305C434.238 102.133 435.092 102.679 436.271 105.082C439.566 111.802 431.917 132.953 419.227 152.208C415.878 157.291 413.389 161.702 413.698 162.01C414.253 162.565 425.761 148.573 432.643 138.978C434.608 136.236 440.965 125.138 446.77 114.316C459.554 90.4752 463.198 85.031 472.008 76.596C478.441 70.437 492.59 60.719 495.123 60.719C495.763 60.719 496.287 60.053 496.287 59.2395C496.287 57.9525 495.802 57.9665 492.544 59.3532C480.118 64.6399 479.587 64.9569 456.355 80.8968C453.884 82.5915 443.327 89.8113 432.895 96.9393C422.463 104.068 413.021 110.704 411.913 111.685C407.211 115.85 392.503 123.742 385.08 126.082C380.672 127.473 372.556 129.491 367.045 130.566C344.697 134.924 335.6 138.674 324.781 147.984C319.431 152.588 320.004 153.602 325.757 149.714C342.205 138.597 357.745 133.408 368.475 135.449C374.822 136.656 379.49 141.849 379.476 147.686C379.453 157.687 368.533 172.148 358.89 174.948C353.913 176.392 353.331 176.368 349.183 174.535C345.719 173.006 344.515 171.816 343.587 169.007C342.936 167.038 342.692 164.521 343.045 163.412C344.02 160.342 348.411 155.545 351.902 153.735C356.724 151.235 353.498 151.108 346.929 153.54C342.163 155.303 339.21 157.515 331.321 165.226C321.376 174.946 318.858 179.087 317.281 188.326C316.618 192.205 316.139 192.73 322.715 182.37C325.54 177.921 327.514 176.073 331.646 174.018C338.353 170.68 339.437 170.711 344.046 174.369C346.119 176.014 348.202 177.359 348.676 177.359C349.149 177.359 349.537 178.981 349.537 180.963C349.537 186.271 345.017 193.807 339.741 197.297C335.381 200.181 329.072 202.117 327.888 200.934C327.074 200.122 332.084 193.5 336.455 189.61C338.434 187.848 339.474 186.39 338.765 186.37C334.131 186.234 317.799 198.776 308.644 209.5C301.883 217.42 294.787 230.839 292.007 240.963C290.293 247.201 290.26 247.242 286.915 246.945C283.63 246.653 283.478 246.435 280.612 237.899C277.03 227.23 274.711 222.542 269.111 214.649C261.669 204.158 243.964 188.917 236.738 186.78C234.711 186.181 235.31 187.187 239.982 192.227C243.135 195.627 245.713 199.055 245.713 199.847C245.713 203.661 233.814 198.641 228.985 192.79C224.974 187.931 221.978 177.359 224.611 177.359C225.085 177.359 227.169 176.014 229.241 174.369C233.797 170.754 235.412 170.675 241.503 173.771C247.202 176.667 249.673 179.21 253.742 186.361L256.845 191.815L256.245 187.495C254.744 176.671 241.995 161.186 229.409 154.899C220.312 150.355 216.569 150.208 222.955 154.646C230.705 160.033 232.853 166.43 228.688 171.718C223.325 178.527 211.718 176.58 203.495 167.491C198.858 162.366 195.172 155.101 194.322 149.415C193.767 145.702 194.048 144.378 196.012 141.47C199.182 136.775 202.898 135.195 210.765 135.195C220.796 135.195 230.895 139.003 245.077 148.132C248.846 150.558 252.12 152.351 252.354 152.118C253.321 151.152 242.353 142.522 235.76 139.062C230.172 136.129 224.791 134.506 210.482 131.438C200.484 129.294 189.651 126.587 186.407 125.421C180.224 123.201 166.074 115.252 161.21 111.266C159.644 109.983 150.275 103.393 140.392 96.6233C130.509 89.8531 117.481 80.8848 111.441 76.6947C97.7048 67.1651 89.6176 62.2871 84.4873 60.4348C82.291 59.6423 79.7074 58.6613 78.747 58.2546C77.7867 57.8478 77 57.9385 77 58.4549Z" fill="#FF0000"/>
<path fill-rule="evenodd" clip-rule="evenodd" d="M251.201 5.32512C262.933 18.0246 268.984 35.3564 272.044 65.0229L272.714 71.5191L263.851 63.0211C258.877 58.2509 252.358 53.133 248.994 51.357C245.698 49.616 233.357 44.9977 221.571 41.096C199.399 33.7544 186.335 27.6969 171.665 17.9547C167.594 15.2513 164.118 13.1835 163.941 13.3614C163.763 13.5383 166.819 17.2521 170.731 21.6135C179.23 31.0889 182.54 37.5321 182.553 44.63C182.569 52.9141 178.765 54.6431 164.169 52.984C148.416 51.1931 139.76 46.7217 120.617 30.4863C115.128 25.831 110.637 22.2771 110.637 22.5899C110.637 23.3685 118.005 34.2491 123.467 41.5368C125.938 44.8348 135.84 55.2767 145.47 64.7411C155.1 74.2065 162.753 82.1768 162.477 82.4537C161.758 83.1713 147.126 79.5574 140.098 76.9269C129.624 73.0062 119.855 61.8438 117.57 51.1871L116.496 46.1761L105.824 43.6775C85.2972 38.8724 74.4614 37.6161 54.8746 37.774C33.3388 37.9479 20.545 39.3011 9.67317 42.5562C-3.05271 46.3669 -3.14961 46.9686 8.95391 47.0036C17.3123 47.0266 20.8796 47.4913 25.2411 49.1243C32.7244 51.9257 43.3345 59.1834 53.8856 68.7178C62.4058 76.4182 69.2737 80.9246 87.1053 90.5159C97.3777 96.0407 102.803 100.711 109.413 109.717C111.99 113.228 114.265 115.597 114.47 114.982C114.675 114.367 113.435 111.002 111.714 107.505C106.303 96.5084 90.393 81.1714 71.3376 68.5828C62.5766 62.7953 59.1012 59.5402 55.7996 54.0294C52.9306 49.2412 53.1563 47.3324 56.8585 45.0797C61.6186 42.1834 66.2538 41.8096 76.1726 43.5226C92.0423 46.263 103.137 53.4717 111.683 66.595C119.68 78.8738 134.115 86.4333 157.227 90.445C171.146 92.8615 174.313 94.3317 194.849 107.905C205.399 114.878 214.703 120.994 215.524 121.497C216.345 121.999 215.303 120.023 213.207 117.104C211.112 114.187 209.545 111.652 209.725 111.473C210.338 110.858 249.235 120.805 252.115 122.313C258.928 125.881 268.775 139.979 264.453 139.979C263.89 139.979 260.968 139.113 257.96 138.056C247.972 134.544 251.318 137.467 269.07 147.765L276.157 151.878L276.791 181.158C277.139 197.261 277.883 215.16 278.442 220.931C280.411 241.235 284.245 262.088 286.408 264.256C286.873 264.722 287.953 262.698 288.806 259.758C293.323 244.195 296.294 215.307 297.14 178.719C297.665 156.001 297.996 151.799 299.35 150.67C300.225 149.941 305.211 146.939 310.431 143.999C321.412 137.816 320.921 138.148 320.186 137.412C319.874 137.1 317.239 137.551 314.33 138.416C306.907 140.621 306.174 139.327 310.934 132.415C317.376 123.057 319.243 122.111 342.78 116.29C354.343 113.429 363.937 111.224 364.101 111.388C364.265 111.551 362.824 113.666 360.9 116.088C358.976 118.509 357.398 120.834 357.393 121.253C357.387 121.673 365.549 116.557 375.532 109.885C385.514 103.212 395.74 96.7243 398.259 95.467C400.776 94.2088 408.547 92.009 415.528 90.5769C444.137 84.7064 452.1 80.216 464.244 63.1061C472.419 51.5889 483.389 45.5864 500.956 43.0169C508.326 41.9386 509.371 42.0065 513.521 43.8434C520.054 46.7347 520.794 48.7455 517.31 54.1434C514.461 58.5568 509.848 63.217 505.23 66.3452C503.857 67.2756 499.768 70.053 496.144 72.5155C486.638 78.9757 473.517 90.7698 467.979 97.8316C463.308 103.787 457.577 114.625 458.572 115.62C458.846 115.895 461.587 112.774 464.663 108.685C471.631 99.4237 476.102 95.7728 488.747 89.0228C503.472 81.1634 511.441 75.8046 520.832 67.4445C531.272 58.152 542.865 50.5025 549.493 48.5337C552.478 47.6472 558.654 47.0216 564.601 47.0036C571.798 46.9816 574.171 46.6888 572.944 45.9732C570.278 44.4181 559.92 41.2779 553.498 40.0766C545.258 38.5356 512.962 36.8545 505.23 37.5641C493.495 38.6415 477.939 41.137 467.02 43.6935C456.691 46.1121 456.281 46.31 456.271 48.8695C456.259 52.1445 452.305 60.8214 448.627 65.6466C444.371 71.2273 437.614 75.8386 430.404 78.0793C421.985 80.6957 411.327 82.9584 411.327 82.1289C411.327 81.7771 418.32 74.5233 426.866 66.0104C435.413 57.4974 444.795 47.6082 447.715 44.0353C454.118 36.2009 462.275 24.3309 462.275 22.8478C462.275 22.2571 460.14 23.7603 457.529 26.1878C443.99 38.7794 430.341 48.0839 421.72 50.5984C413.764 52.9191 400.506 54.1514 396.145 52.977C391.392 51.6968 389.949 49.0554 390.671 42.9549C391.48 36.129 395.173 29.5519 402.866 21.2397C406.562 17.2451 409.348 13.7382 409.056 13.4473C408.765 13.1555 406.484 14.4767 403.988 16.3826C393.072 24.7187 375.677 33.0378 354.21 40.1896C323.426 50.4455 320.735 51.8297 308.183 63.8766L301.44 70.3478V66.7579C301.44 61.1242 303.384 48.2668 305.513 39.8288C309.096 25.6202 315.73 12.6678 323.768 4.1818C327.445 0.301083 327.574 0.0142504 324.916 1.64329C314.09 8.27738 301.229 20.6521 294.945 30.4783C291.228 36.2919 287.5 45.3306 287.406 48.7575C287.38 49.733 286.086 47.1115 284.533 42.932C282.979 38.7514 280.013 32.68 277.941 29.4399C271.758 19.7686 258.592 7.03112 247.995 0.467984C245.87 -0.84824 246.802 0.562925 251.201 5.32512ZM205.954 49.3512C203.624 51.357 203.345 52.1675 203.923 55.2527C204.687 59.3253 208.362 66.616 212.167 71.6081C214.818 75.084 216.528 75.2809 216.528 72.1098C216.528 68.8597 222.392 62.0677 227.194 59.7571C233.121 56.9037 234.753 54.4652 232.071 52.4713C228.875 50.0977 224.924 50.7374 220.891 54.2793C218.858 56.0652 217.042 57.0776 216.857 56.528C215.95 53.8375 212.42 49.0424 210.647 48.0939C209.043 47.2344 208.13 47.4793 205.954 49.3512ZM362.121 48.1169C361.156 48.6796 359.461 50.9143 358.355 53.084C357.248 55.2527 356.074 57.0277 355.746 57.0277C355.418 57.0277 353.613 55.6785 351.735 54.0294C347.765 50.5405 343.529 50.1237 340.957 52.9671C338.726 55.4336 339.602 56.7868 344.963 59.1594C349.966 61.3731 355.989 67.9482 356.927 72.2187L357.577 75.182L360.012 72.8943C363.44 69.6722 369.37 57.3895 369.37 53.5107C369.37 51.1601 368.689 49.8149 366.908 48.6476C364.048 46.7727 364.368 46.8077 362.121 48.1169ZM186.226 54.696C185.86 55.0618 185.56 57.1226 185.56 59.2743V63.187L182.195 61.1073C177.549 58.234 173.57 58.3119 173.577 61.2752C173.586 65.1209 176.69 68.7298 187.911 77.9453C195.759 84.3905 202.333 88.693 211.709 93.5212C218.834 97.19 224.843 100.011 225.063 99.7925C225.283 99.5726 223.701 96.0297 221.548 91.9191C216.763 82.7825 207.244 71.2103 202.328 68.5509L198.687 66.582L194.208 69.8001C191.744 71.5701 189.526 73.0182 189.279 73.0182C189.031 73.0182 189.891 70.9185 191.19 68.352C194.027 62.7453 194.229 57.9511 191.724 55.6835C189.835 53.9735 187.388 53.5337 186.226 54.696ZM381.831 55.4236C379.287 57.2855 379.547 63.9806 382.348 68.7298C384.842 72.9603 384.512 73.7068 381.261 71.1823C376.297 67.3286 374.65 66.8759 371.053 68.38C366.735 70.1839 357.047 82.0969 351.581 92.3219C346.597 101.644 346.499 101.636 362.378 93.2903C374.136 87.1099 376.193 85.6878 388.676 75.104C397.118 67.9472 400.338 63.9346 400.338 60.5756C400.338 58.2869 394.175 58.5857 391.075 61.0253C387.801 63.6018 386.982 63.5488 387.698 60.8054C389.15 55.2537 386.006 52.3694 381.831 55.4236ZM237.057 63.3639C231.174 67.6674 245.759 87.6306 256.237 89.6155C259.783 90.2871 260.491 91.5873 257.735 92.3678C253.56 93.5501 243.794 94.0588 241.518 93.2123L239.038 92.2899L241.329 91.5623C245.059 90.378 243.345 85.4839 237.023 79.2646C231.517 73.8497 227.336 72.4426 226.125 75.5987C224.214 80.5808 227.67 91.6253 233.41 98.875C236.697 103.029 247.674 110.996 250.107 110.996C251.738 110.996 251.928 107.684 250.458 104.933C248.54 101.348 251.155 102.966 256.623 108.747C259.611 111.907 265.187 119.432 269.012 125.467L275.967 136.441L276.746 122.291C277.468 109.166 277.341 107.331 274.998 96.9421C273.607 90.7818 272.47 84.4985 272.47 82.9784C272.47 79.7063 264.546 71.9479 254.988 65.8605C250.084 62.7383 248.075 62.0417 243.941 62.0347C241.162 62.0287 238.064 62.6274 237.057 63.3639ZM323.418 62.8442C315.55 66.4111 301.44 78.3721 301.44 81.4743C301.44 82.7185 300.342 89.1307 299 95.7229C296.811 106.476 296.631 109.136 297.252 121.595L297.944 135.481L304.437 125.052C308.009 119.314 313.339 112.006 316.283 108.811C321.596 103.043 324.315 101.374 322.896 104.75C321.098 109.031 321.152 110.996 323.069 110.996C325.384 110.996 331.619 106.944 336.736 102.116C347.163 92.2759 351.695 74.0176 343.709 74.0176C339.904 74.0176 330.41 83.9948 330.41 87.9934C330.41 89.7214 331.07 91.0466 332.131 91.4544C335.934 92.9145 330.889 94.0448 323.418 93.4062C313.729 92.5787 311.638 91.0936 317.68 89.3316C325.104 87.1659 333.637 78.45 337.346 69.2445C338.511 66.3552 338.457 65.7405 336.881 63.9976C335.527 62.5014 333.865 62.0417 330.006 62.0947C327.207 62.1337 324.242 62.4705 323.418 62.8442Z" fill="white"/>
</mask>
<g mask="url(#mask0_439_10012)">
<path fill-rule="evenodd" clip-rule="evenodd" d="M0 138.608V425.216L286.769 425.055L573.538 424.893L573.699 138.446L573.861 -148H286.931H0V138.608ZM0.319814 138.93C0.319814 296.564 0.39332 361.051 0.48359 282.234C0.57386 203.417 0.57386 74.4436 0.48359 -4.37384C0.39332 -83.1906 0.319814 -18.7042 0.319814 138.93ZM4.5135 -112.214V-80.9422H19.9768H35.44L35.6128 -96.5783L35.7856 -112.214L51.4217 -112.387L67.0578 -112.56V-128.023V-143.486H35.7856H4.5135V-112.214ZM76.0848 -128.012V-112.537H91.8821H107.679V-96.7395V-80.9422H123.154H138.629V-112.214V-143.486H107.357H76.0848V-128.012ZM147.656 -112.214V-80.9422H163.453H179.251V-96.7395V-112.537H194.725H210.2V-128.012V-143.486H178.928H147.656V-112.214ZM219.872 -128.012V-112.537H235.347H250.822V-96.7395V-80.9422H266.297H281.772V-112.214V-143.486H250.822H219.872V-128.012ZM291.443 -112.214V-80.9422H306.918H322.393V-96.7395V-112.537H337.868H353.343V-128.012V-143.486H322.393H291.443V-112.214ZM363.015 -128.012V-112.537H378.49H393.965V-96.7395V-80.9422H409.762H425.559V-112.214V-143.486H394.287H363.015V-128.012ZM434.586 -112.214V-80.9422H450.049H465.513L465.685 -96.5783L465.858 -112.214L481.494 -112.387L497.13 -112.56V-128.023V-143.486H465.858H434.586V-112.214ZM506.157 -128.023V-112.56L521.793 -112.387L537.429 -112.214L537.602 -96.5783L537.775 -80.9422H553.238H568.702V-112.214V-143.486H537.429H506.157V-128.023ZM40.6215 -94.1603V-80.9422H53.8397H67.0578V-94.1603V-107.378H53.8397H40.6215V-94.1603ZM76.0848 -94.1603V-80.9422H89.6253H103.166V-94.1603V-107.378H89.6253H76.0848V-94.1603ZM183.764 -94.1603V-80.9422H196.982H210.2V-94.1603V-107.378H196.982H183.764V-94.1603ZM219.872 -94.1603V-80.9422H233.09H246.308V-94.1603V-107.378H233.09H219.872V-94.1603ZM326.907 -94.1603V-80.9422H340.125H353.343V-94.1603V-107.378H340.125H326.907V-94.1603ZM363.015 -94.1603V-80.9422H376.233H389.451V-94.1603V-107.378H376.233H363.015V-94.1603ZM470.694 -94.1603V-80.9422H483.912H497.13V-94.1603V-107.378H483.912H470.694V-94.1603ZM506.157 -94.1603V-80.9422H519.375H532.594V-94.1603V-107.378H519.375H506.157V-94.1603ZM4.5135 -40.6431V-9.37093H35.7856H67.0578V-24.8342V-40.2975L51.4217 -40.4703L35.7856 -40.6431L35.6128 -56.2791L35.44 -71.9152H19.9768H4.5135V-40.6431ZM40.6215 -58.6971V-45.479H53.8397H67.0578V-58.6971V-71.9152H53.8397H40.6215V-58.6971ZM76.0848 -58.71V-45.479H89.6389H103.192L103.018 -58.5359L102.843 -71.5928L89.4641 -71.7669L76.0848 -71.9416V-58.71ZM107.679 -56.1179V-40.3207H91.8821H76.0848V-24.8458V-9.37093H107.357H138.629V-40.6431V-71.9152H123.154H107.679V-56.1179ZM147.656 -40.6431V-9.37093H178.928H210.2V-24.8458V-40.3207H194.725H179.251V-56.1179V-71.9152H163.453H147.656V-40.6431ZM183.764 -58.6971V-45.479H196.982H210.2V-58.6971V-71.9152H196.982H183.764V-58.6971ZM219.872 -58.6971V-45.479H233.09H246.308V-58.6971V-71.9152H233.09H219.872V-58.6971ZM250.822 -56.1179V-40.3207H235.347H219.872V-24.8458V-9.37093H250.822H281.772V-40.6431V-71.9152H266.297H250.822V-56.1179ZM291.443 -40.6431V-9.37093H322.393H353.343V-24.8458V-40.3207H337.868H322.393V-56.1179V-71.9152H306.918H291.443V-40.6431ZM326.907 -58.6971V-45.479H340.125H353.343V-58.6971V-71.9152H340.125H326.907V-58.6971ZM363.015 -58.6971V-45.479H376.233H389.451V-58.6971V-71.9152H376.233H363.015V-58.6971ZM393.965 -56.1296V-40.3207H378.49H363.015V-24.8458V-9.37093H394.293H425.571L425.404 -40.4819L425.237 -71.5928L409.601 -71.7656L393.965 -71.9384V-56.1296ZM434.586 -40.6431V-9.37093H465.858H497.13V-24.8458V-40.3207H481.333H465.536V-56.1179V-71.9152H450.061H434.586V-40.6431ZM470.694 -58.6971V-45.479H483.912H497.13V-58.6971V-71.9152H483.912H470.694V-58.6971ZM506.157 -58.6971V-45.479H519.375H532.594V-58.6971V-71.9152H519.375H506.157V-58.6971ZM537.602 -56.2791L537.429 -40.6431L521.793 -40.4703L506.157 -40.2975V-24.8342V-9.37093H537.429H568.702V-40.6431V-71.9152H553.238H537.775L537.602 -56.2791ZM4.5135 30.9282V62.2004H19.9884H35.4633V46.7255V31.2506H51.2605H67.0578V15.4533V-0.343924H35.7856H4.5135V30.9282ZM76.5149 0.0861533C76.2782 0.322145 76.0848 7.43091 76.0848 15.8834V31.2506H91.8821H107.679V46.7255V62.2004H123.154H138.629V30.9282V-0.343924H107.787C90.8233 -0.343924 76.7509 -0.150483 76.5149 0.0861533ZM148.086 0.0861533C147.85 0.322145 147.656 14.3946 147.656 31.3583V62.2004H163.453H179.251V46.7255V31.2506H194.725H210.2V15.4533V-0.343924H179.358C162.395 -0.343924 148.322 -0.150483 148.086 0.0861533ZM219.872 15.4533V31.2506H235.347H250.822V46.7255V62.2004H266.297H281.772V30.9282V-0.343924H250.822H219.872V15.4533ZM291.443 30.9282V62.2004H306.918H322.393V46.7255V31.2506H337.868H353.343V15.4533V-0.343924H322.393H291.443V30.9282ZM363.015 15.4469V31.2506H378.49H393.965V46.7255V62.2004H409.768H425.571L425.404 31.0894L425.237 -0.0215309L394.126 -0.189172L363.015 -0.356173V15.4469ZM434.586 30.9282V62.2004H450.061H465.536V46.7371V31.2738L481.172 31.101L496.808 30.9282L496.981 15.2921L497.154 -0.343924H465.87H434.586V30.9282ZM506.157 15.4533V31.2506H521.955H537.752V46.7255V62.2004H553.227H568.702V30.9282V-0.343924H537.429H506.157V15.4533ZM40.6215 48.9822V62.2004H53.8397H67.0578V48.9822V35.7641H53.8397H40.6215V48.9822ZM76.0848 48.9822V62.2004H89.6253H103.166V48.9822V35.7641H89.6253H76.0848V48.9822ZM183.764 48.9822V62.2004H196.982H210.2V48.9822V35.7641H196.982H183.764V48.9822ZM219.872 48.9822V62.2004H233.09H246.308V48.9822V35.7641H233.09H219.872V48.9822ZM326.907 48.9822V62.2004H340.125H353.343V48.9822V35.7641H340.125H326.907V48.9822ZM363.015 48.9822V62.2004H376.233H389.451V48.9822V35.7641H376.233H363.015V48.9822ZM470.694 48.9822V62.2004H483.912H497.13V48.9822V35.7641H483.912H470.694V48.9822ZM506.157 48.9822V62.2004H519.375H532.594V48.9822V35.7641H519.375H506.157V48.9822ZM4.5135 102.822V133.772H35.7856H67.0578V118.308V102.845L51.4217 102.672L35.7856 102.5L35.6128 87.1858L35.44 71.8721H19.9768H4.5135V102.822ZM40.6215 85.0903V98.3084H53.8397H67.0578V85.0903V71.8721H53.8397H40.6215V85.0903ZM76.0848 85.0903V98.3084H89.6253H103.166V85.0903V71.8721H89.6253H76.0848V85.0903ZM107.679 87.347V102.822H91.8821H76.0848V118.297V133.772H107.357H138.629V102.822V71.8721H123.154H107.679V87.347ZM147.656 102.822V133.772H178.928H210.2V118.297V102.822H194.725H179.251V87.347V71.8721H163.453H147.656V102.822ZM183.764 85.0903V98.3084H196.982H210.2V85.0903V71.8721H196.982H183.764V85.0903ZM219.872 85.0903V98.3084H233.09H246.308V85.0903V71.8721H233.09H219.872V85.0903ZM250.822 87.347V102.822H235.347H219.872V118.297V133.772H250.822H281.772V102.822V71.8721H266.297H250.822V87.347ZM291.443 102.822V133.772H322.393H353.343V118.297V102.822H337.868H322.393V87.347V71.8721H306.918H291.443V102.822ZM326.907 85.0903V98.3084H340.125H353.343V85.0903V71.8721H340.125H326.907V85.0903ZM363.015 85.0903V98.3084H376.233H389.451V85.0903V71.8721H376.233H363.015V85.0903ZM393.965 87.347V102.822H378.49H363.015V118.297V133.772H394.287H425.559V102.822V71.8721H409.762H393.965V87.347ZM434.586 102.822V133.772H465.858H497.13V118.297V102.822H481.333H465.536V87.347V71.8721H450.061H434.586V102.822ZM470.694 85.0903V98.3084H483.912H497.13V85.0903V71.8721H483.912H470.694V85.0903ZM506.157 85.0903V98.3084H519.375H532.594V85.0903V71.8721H519.375H506.157V85.0903ZM537.752 87.347V102.822H521.955H506.157V118.297V133.772H537.429H568.702V102.822V71.8721H553.227H537.752V87.347ZM4.5135 174.393V205.343H19.9884H35.4633V189.868V174.393H51.2605H67.0578V158.918V143.443H35.7856H4.5135V174.393ZM76.0848 158.918V174.393H91.8821H107.679V189.868V205.343H123.154H138.629V174.393V143.443H107.357H76.0848V158.918ZM147.656 174.393V205.343H163.453H179.251V189.868V174.393H194.725H210.2V158.918V143.443H178.928H147.656V174.393ZM219.872 158.918V174.393H235.347H250.822V189.868V205.343H266.297H281.772V174.393V143.443H250.822H219.872V158.918ZM291.443 174.393V205.343H306.918H322.393V189.868V174.393H337.868H353.343V158.918V143.443H322.393H291.443V174.393ZM363.015 158.918V174.393H378.49H393.965V189.868V205.343H409.762H425.559V174.393V143.443H394.287H363.015V158.918ZM434.586 174.393V205.343H450.061H465.536V189.868V174.393H481.333H497.13V158.918V143.443H465.858H434.586V174.393ZM506.157 158.918V174.393H521.955H537.752V189.868V205.343H553.227H568.702V174.393V143.443H537.429H506.157V158.918ZM40.6215 192.125V205.343H53.8397H67.0578V192.125V178.907H53.8397H40.6215V192.125ZM76.0848 192.125V205.343H89.6253H103.166V192.125V178.907H89.6253H76.0848V192.125ZM183.764 192.125V205.343H196.982H210.2V192.125V178.907H196.982H183.764V192.125ZM219.872 192.125V205.343H233.09H246.308V192.125V178.907H233.09H219.872V192.125ZM326.907 192.125V205.343H340.125H353.343V192.125V178.907H340.125H326.907V192.125ZM363.015 192.125V205.343H376.233H389.451V192.125V178.907H376.233H363.015V192.125ZM470.694 192.125V205.343H483.912H497.13V192.125V178.907H483.912H470.694V192.125ZM506.157 192.125V205.343H519.375H532.594V192.125V178.907H519.375H506.157V192.125ZM4.5135 246.287V277.559H35.7856H67.0578V261.762V245.964H51.2605H35.4633V230.49V215.015H19.9884H4.5135V246.287ZM40.6215 228.233V241.451H53.8397H67.0578V228.233V215.015H53.8397H40.6215V228.233ZM76.0848 228.233V241.451H89.6253H103.166V228.233V215.015H89.6253H76.0848V228.233ZM107.679 230.49V245.964H91.8821H76.0848V261.762V277.559H107.357H138.629V246.287V215.015H123.154H107.679V230.49ZM147.811 246.126L147.978 277.237L179.089 277.404L210.2 277.571V261.768V245.964H194.725H179.251V230.49V215.015H163.447H147.644L147.811 246.126ZM183.764 228.233V241.451H196.982H210.2V228.233V215.015H196.982H183.764V228.233ZM219.872 228.233V241.451H233.09H246.308V228.233V215.015H233.09H219.872V228.233ZM250.822 230.49V245.964H235.347H219.872V261.762V277.559H250.822H281.772V246.287V215.015H266.297H250.822V230.49ZM291.443 246.287V277.559H322.393H353.343V261.762V245.964H337.868H322.393V230.49V215.015H306.918H291.443V246.287ZM326.907 228.233V241.451H340.125H353.343V228.233V215.015H340.125H326.907V228.233ZM363.015 228.233V241.451H376.233H389.451V228.233V215.015H376.233H363.015V228.233ZM393.965 230.49V245.964H378.49H363.015V261.768V277.571L394.126 277.404L425.237 277.237L425.404 246.126L425.571 215.015H409.768H393.965V230.49ZM434.586 246.293V277.571L465.697 277.404L496.808 277.237L496.981 261.601L497.154 245.964H481.345H465.536V230.49V215.015H450.061H434.586V246.293ZM470.694 228.233V241.451H483.912H497.13V228.233V215.015H483.912H470.694V228.233ZM506.157 228.233V241.451H519.375H532.594V228.233V215.015H519.375H506.157V228.233ZM537.752 230.49V245.964H521.955H506.157V261.762V277.559H537.429H568.702V246.287V215.015H553.227H537.752V230.49ZM4.5135 317.858V349.13H19.9768H35.44L35.6128 333.494L35.7856 317.858L51.4217 317.685L67.0578 317.513V302.049V286.586H35.7856H4.5135V317.858ZM76.0848 302.061V317.536H91.8821H107.679V333.333V349.13H123.154H138.629V317.858V286.586H107.357H76.0848V302.061ZM147.811 317.697L147.978 348.808L163.615 348.981L179.251 349.154V333.345V317.536H194.725H210.2V302.061V286.586H178.922H147.644L147.811 317.697ZM219.872 302.061V317.536H235.347H250.822V333.333V349.13H266.297H281.772V317.858V286.586H250.822H219.872V302.061ZM291.443 317.858V349.13H306.918H322.393V333.333V317.536H337.868H353.343V302.061V286.586H322.393H291.443V317.858ZM363.015 302.061V317.536H378.478H393.941L394.114 333.172L394.287 348.808L409.923 348.981L425.559 349.154V317.87V286.586H394.287H363.015V302.061ZM434.586 317.858V349.13H450.061H465.536V333.333V317.536H481.333H497.13V302.061V286.586H465.858H434.586V317.858ZM506.157 302.061V317.536H521.955H537.752V333.333V349.13H553.227H568.702V317.858V286.586H537.429H506.157V302.061ZM40.6215 335.59V349.13H53.8397H67.0578V335.59V322.049H53.8397H40.6215V335.59ZM76.5278 322.466C76.284 322.709 76.0848 328.809 76.0848 336.02V349.13H89.6382H103.192L103.018 335.751L102.843 322.372L89.9071 322.198C82.7919 322.101 76.7715 322.223 76.5278 322.466ZM183.764 335.59V349.13H196.982H210.2V335.59V322.049H196.982H183.764V335.59ZM219.872 335.59V349.13H233.09H246.308V335.59V322.049H233.09H219.872V335.59ZM327.337 322.479C327.1 322.715 326.907 328.809 326.907 336.02V349.13H340.125H353.343V335.59V322.049H340.555C333.521 322.049 327.573 322.243 327.337 322.479ZM363.015 335.59V349.13H376.233H389.451V335.59V322.049H376.233H363.015V335.59ZM470.694 335.59V349.13H483.912H497.13V335.59V322.049H483.912H470.694V335.59ZM506.157 335.59V349.13H519.375H532.594V335.59V322.049H519.375H506.157V335.59ZM4.5135 389.429V420.702H35.7856H67.0578V405.238V389.775L51.4217 389.602L35.7856 389.429L35.6128 373.793L35.44 358.157H19.9768H4.5135V389.429ZM40.6215 371.375V384.594H53.8397H67.0578V371.375V358.157H53.8397H40.6215V371.375ZM76.0848 371.375V384.594H89.6253H103.166V371.375V358.157H89.6253H76.0848V371.375ZM107.53 373.793L107.357 389.429L91.7209 389.602L76.0848 389.775V405.238V420.702H107.357H138.629V389.429V358.157H123.166H107.703L107.53 373.793ZM147.656 389.429V420.702H178.928H210.2V405.227V389.752H194.725H179.251V373.955V358.157H163.453H147.656V389.429ZM183.764 371.375V384.594H196.982H210.2V371.375V358.157H196.982H183.764V371.375ZM219.872 371.375V384.594H233.09H246.308V371.375V358.157H233.09H219.872V371.375ZM250.822 373.955V389.752H235.347H219.872V405.227V420.702H250.822H281.772V389.429V358.157H266.297H250.822V373.955ZM291.443 389.429V420.702H322.393H353.343V405.238V389.775L338.029 389.602L322.716 389.429L322.543 373.793L322.37 358.157H306.907H291.443V389.429ZM326.907 371.375V384.594H340.125H353.343V371.375V358.157H340.125H326.907V371.375ZM363.015 371.375V384.594H376.233H389.451V371.375V358.157H376.233H363.015V371.375ZM393.965 373.955V389.752H378.49H363.015V405.227V420.702H394.287H425.559V389.429V358.157H409.762H393.965V373.955ZM434.586 389.429V420.702H465.858H497.13V405.238V389.775L481.494 389.602L465.858 389.429L465.685 373.793L465.513 358.157H450.049H434.586V389.429ZM470.694 371.375V384.594H483.912H497.13V371.375V358.157H483.912H470.694V371.375ZM506.157 371.375V384.594H519.375H532.594V371.375V358.157H519.375H506.157V371.375ZM537.602 373.793L537.429 389.429L521.793 389.602L506.157 389.775V405.238V420.702H537.429H568.702V389.429V358.157H553.238H537.775L537.602 373.793Z" fill="black"/>
</g>
</svg>
