<svg width="573" height="278" viewBox="0 0 573 278" fill="none" xmlns="http://www.w3.org/2000/svg">
<mask id="mask0_439_10029" style="mask-type:alpha" maskUnits="userSpaceOnUse" x="0" y="0" width="574" height="278">
<path fill-rule="evenodd" clip-rule="evenodd" d="M77 58.4549C77 58.9723 81.0571 61.7937 86.0147 64.7246C104.071 75.3977 110.661 83.5067 128.363 116.829C136.08 131.356 140.721 138.655 149.163 149.545C155.141 157.255 160.276 163.318 160.576 163.02C160.875 162.72 157.89 157.528 153.941 151.48C146.078 139.438 142.226 131.623 139.006 121.178C135.579 110.065 136.575 101.593 141.307 101.593C143.564 101.593 154.299 109.105 161.034 115.397C169.86 123.642 176.883 134.082 183.453 148.725C191.158 165.899 191.579 166.641 198.619 175.451C207.897 187.061 214.015 191.565 232.735 200.562C261.691 214.477 270.684 222.065 277.202 238.083C279.276 243.182 282.941 259.44 285.142 273.314C285.469 275.37 286.157 277.052 286.67 277.052C287.805 277.052 288.125 275.74 290.623 260.89C291.703 254.469 293.526 246.394 294.674 242.945C297.505 234.443 303.568 224.432 308.787 219.639C314.819 214.1 326.604 206.974 337.623 202.201C342.766 199.974 349.91 196.53 353.497 194.549C364.644 188.395 381.247 170.16 385.488 159.415C389.196 150.016 396.761 134.933 400.584 129.31C408.579 117.552 425.738 102.761 431.914 102.305C434.238 102.133 435.092 102.679 436.271 105.082C439.566 111.802 431.917 132.953 419.227 152.208C415.878 157.291 413.389 161.702 413.698 162.01C414.253 162.565 425.761 148.573 432.643 138.978C434.608 136.236 440.965 125.138 446.77 114.316C459.554 90.4752 463.198 85.031 472.008 76.596C478.441 70.437 492.59 60.719 495.123 60.719C495.763 60.719 496.287 60.053 496.287 59.2395C496.287 57.9525 495.802 57.9665 492.544 59.3532C480.118 64.6399 479.587 64.9569 456.355 80.8968C453.884 82.5915 443.327 89.8113 432.895 96.9393C422.463 104.068 413.021 110.704 411.913 111.685C407.211 115.85 392.503 123.742 385.08 126.082C380.672 127.473 372.556 129.491 367.045 130.566C344.697 134.924 335.6 138.674 324.781 147.984C319.431 152.588 320.004 153.602 325.757 149.714C342.205 138.597 357.745 133.408 368.475 135.449C374.822 136.656 379.49 141.849 379.476 147.686C379.453 157.687 368.533 172.148 358.89 174.948C353.913 176.392 353.331 176.368 349.183 174.535C345.719 173.006 344.515 171.816 343.587 169.007C342.936 167.038 342.692 164.521 343.045 163.412C344.02 160.342 348.411 155.545 351.902 153.735C356.724 151.235 353.498 151.108 346.929 153.54C342.163 155.303 339.21 157.515 331.321 165.226C321.376 174.946 318.858 179.087 317.281 188.326C316.618 192.205 316.139 192.73 322.715 182.37C325.54 177.921 327.514 176.073 331.646 174.018C338.353 170.68 339.437 170.711 344.046 174.369C346.119 176.014 348.202 177.359 348.676 177.359C349.149 177.359 349.537 178.981 349.537 180.963C349.537 186.271 345.017 193.807 339.741 197.297C335.381 200.181 329.072 202.117 327.888 200.934C327.074 200.122 332.084 193.5 336.455 189.61C338.434 187.848 339.474 186.39 338.765 186.37C334.131 186.234 317.799 198.776 308.644 209.5C301.883 217.42 294.787 230.839 292.007 240.963C290.293 247.201 290.26 247.242 286.915 246.945C283.63 246.653 283.478 246.435 280.612 237.899C277.03 227.23 274.711 222.542 269.111 214.649C261.669 204.158 243.964 188.917 236.738 186.78C234.711 186.181 235.31 187.187 239.982 192.227C243.135 195.627 245.713 199.055 245.713 199.847C245.713 203.661 233.814 198.641 228.985 192.79C224.974 187.931 221.978 177.359 224.611 177.359C225.085 177.359 227.169 176.014 229.241 174.369C233.797 170.754 235.412 170.675 241.503 173.771C247.202 176.667 249.673 179.21 253.742 186.361L256.845 191.815L256.245 187.495C254.744 176.671 241.995 161.186 229.409 154.899C220.312 150.355 216.569 150.208 222.955 154.646C230.705 160.033 232.853 166.43 228.688 171.718C223.325 178.527 211.718 176.58 203.495 167.491C198.858 162.366 195.172 155.101 194.322 149.415C193.767 145.702 194.048 144.378 196.012 141.47C199.182 136.775 202.898 135.195 210.765 135.195C220.796 135.195 230.895 139.003 245.077 148.132C248.846 150.558 252.12 152.351 252.354 152.118C253.321 151.152 242.353 142.522 235.76 139.062C230.172 136.129 224.791 134.506 210.482 131.438C200.484 129.294 189.651 126.587 186.407 125.421C180.224 123.201 166.074 115.252 161.21 111.266C159.644 109.983 150.275 103.393 140.392 96.6233C130.509 89.8531 117.481 80.8848 111.441 76.6947C97.7048 67.1651 89.6176 62.2871 84.4873 60.4348C82.291 59.6423 79.7074 58.6613 78.747 58.2546C77.7867 57.8478 77 57.9385 77 58.4549Z" fill="#FF0000"/>
<path fill-rule="evenodd" clip-rule="evenodd" d="M251.201 5.32512C262.933 18.0246 268.984 35.3564 272.044 65.0229L272.714 71.5191L263.851 63.0211C258.877 58.2509 252.358 53.133 248.994 51.357C245.698 49.616 233.357 44.9977 221.571 41.096C199.399 33.7544 186.335 27.6969 171.665 17.9547C167.594 15.2513 164.118 13.1835 163.941 13.3614C163.763 13.5383 166.819 17.2521 170.731 21.6135C179.23 31.0889 182.54 37.5321 182.553 44.63C182.569 52.9141 178.765 54.6431 164.169 52.984C148.416 51.1931 139.76 46.7217 120.617 30.4863C115.128 25.831 110.637 22.2771 110.637 22.5899C110.637 23.3685 118.005 34.2491 123.467 41.5368C125.938 44.8348 135.84 55.2767 145.47 64.7411C155.1 74.2065 162.753 82.1768 162.477 82.4537C161.758 83.1713 147.126 79.5574 140.098 76.9269C129.624 73.0062 119.855 61.8438 117.57 51.1871L116.496 46.1761L105.824 43.6775C85.2972 38.8724 74.4614 37.6161 54.8746 37.774C33.3388 37.9479 20.545 39.3011 9.67317 42.5562C-3.05271 46.3669 -3.14961 46.9686 8.95391 47.0036C17.3123 47.0266 20.8796 47.4913 25.2411 49.1243C32.7244 51.9257 43.3345 59.1834 53.8856 68.7178C62.4058 76.4182 69.2737 80.9246 87.1053 90.5159C97.3777 96.0407 102.803 100.711 109.413 109.717C111.99 113.228 114.265 115.597 114.47 114.982C114.675 114.367 113.435 111.002 111.714 107.505C106.303 96.5084 90.393 81.1714 71.3376 68.5828C62.5766 62.7953 59.1012 59.5402 55.7996 54.0294C52.9306 49.2412 53.1563 47.3324 56.8585 45.0797C61.6186 42.1834 66.2538 41.8096 76.1726 43.5226C92.0423 46.263 103.137 53.4717 111.683 66.595C119.68 78.8738 134.115 86.4333 157.227 90.445C171.146 92.8615 174.313 94.3317 194.849 107.905C205.399 114.878 214.703 120.994 215.524 121.497C216.345 121.999 215.303 120.023 213.207 117.104C211.112 114.187 209.545 111.652 209.725 111.473C210.338 110.858 249.235 120.805 252.115 122.313C258.928 125.881 268.775 139.979 264.453 139.979C263.89 139.979 260.968 139.113 257.96 138.056C247.972 134.544 251.318 137.467 269.07 147.765L276.157 151.878L276.791 181.158C277.139 197.261 277.883 215.16 278.442 220.931C280.411 241.235 284.245 262.088 286.408 264.256C286.873 264.722 287.953 262.698 288.806 259.758C293.323 244.195 296.294 215.307 297.14 178.719C297.665 156.001 297.996 151.799 299.35 150.67C300.225 149.941 305.211 146.939 310.431 143.999C321.412 137.816 320.921 138.148 320.186 137.412C319.874 137.1 317.239 137.551 314.33 138.416C306.907 140.621 306.174 139.327 310.934 132.415C317.376 123.057 319.243 122.111 342.78 116.29C354.343 113.429 363.937 111.224 364.101 111.388C364.265 111.551 362.824 113.666 360.9 116.088C358.976 118.509 357.398 120.834 357.393 121.253C357.387 121.673 365.549 116.557 375.532 109.885C385.514 103.212 395.74 96.7243 398.259 95.467C400.776 94.2088 408.547 92.009 415.528 90.5769C444.137 84.7064 452.1 80.216 464.244 63.1061C472.419 51.5889 483.389 45.5864 500.956 43.0169C508.326 41.9386 509.371 42.0065 513.521 43.8434C520.054 46.7347 520.794 48.7455 517.31 54.1434C514.461 58.5568 509.848 63.217 505.23 66.3452C503.857 67.2756 499.768 70.053 496.144 72.5155C486.638 78.9757 473.517 90.7698 467.979 97.8316C463.308 103.787 457.577 114.625 458.572 115.62C458.846 115.895 461.587 112.774 464.663 108.685C471.631 99.4237 476.102 95.7728 488.747 89.0228C503.472 81.1634 511.441 75.8046 520.832 67.4445C531.272 58.152 542.865 50.5025 549.493 48.5337C552.478 47.6472 558.654 47.0216 564.601 47.0036C571.798 46.9816 574.171 46.6888 572.944 45.9732C570.278 44.4181 559.92 41.2779 553.498 40.0766C545.258 38.5356 512.962 36.8545 505.23 37.5641C493.495 38.6415 477.939 41.137 467.02 43.6935C456.691 46.1121 456.281 46.31 456.271 48.8695C456.259 52.1445 452.305 60.8214 448.627 65.6466C444.371 71.2273 437.614 75.8386 430.404 78.0793C421.985 80.6957 411.327 82.9584 411.327 82.1289C411.327 81.7771 418.32 74.5233 426.866 66.0104C435.413 57.4974 444.795 47.6082 447.715 44.0353C454.118 36.2009 462.275 24.3309 462.275 22.8478C462.275 22.2571 460.14 23.7603 457.529 26.1878C443.99 38.7794 430.341 48.0839 421.72 50.5984C413.764 52.9191 400.506 54.1514 396.145 52.977C391.392 51.6968 389.949 49.0554 390.671 42.9549C391.48 36.129 395.173 29.5519 402.866 21.2397C406.562 17.2451 409.348 13.7382 409.056 13.4473C408.765 13.1555 406.484 14.4767 403.988 16.3826C393.072 24.7187 375.677 33.0378 354.21 40.1896C323.426 50.4455 320.735 51.8297 308.183 63.8766L301.44 70.3478V66.7579C301.44 61.1242 303.384 48.2668 305.513 39.8288C309.096 25.6202 315.73 12.6678 323.768 4.1818C327.445 0.301083 327.574 0.0142504 324.916 1.64329C314.09 8.27738 301.229 20.6521 294.945 30.4783C291.228 36.2919 287.5 45.3306 287.406 48.7575C287.38 49.733 286.086 47.1115 284.533 42.932C282.979 38.7514 280.013 32.68 277.941 29.4399C271.758 19.7686 258.592 7.03112 247.995 0.467984C245.87 -0.84824 246.802 0.562925 251.201 5.32512ZM205.954 49.3512C203.624 51.357 203.345 52.1675 203.923 55.2527C204.687 59.3253 208.362 66.616 212.167 71.6081C214.818 75.084 216.528 75.2809 216.528 72.1098C216.528 68.8597 222.392 62.0677 227.194 59.7571C233.121 56.9037 234.753 54.4652 232.071 52.4713C228.875 50.0977 224.924 50.7374 220.891 54.2793C218.858 56.0652 217.042 57.0776 216.857 56.528C215.95 53.8375 212.42 49.0424 210.647 48.0939C209.043 47.2344 208.13 47.4793 205.954 49.3512ZM362.121 48.1169C361.156 48.6796 359.461 50.9143 358.355 53.084C357.248 55.2527 356.074 57.0277 355.746 57.0277C355.418 57.0277 353.613 55.6785 351.735 54.0294C347.765 50.5405 343.529 50.1237 340.957 52.9671C338.726 55.4336 339.602 56.7868 344.963 59.1594C349.966 61.3731 355.989 67.9482 356.927 72.2187L357.577 75.182L360.012 72.8943C363.44 69.6722 369.37 57.3895 369.37 53.5107C369.37 51.1601 368.689 49.8149 366.908 48.6476C364.048 46.7727 364.368 46.8077 362.121 48.1169ZM186.226 54.696C185.86 55.0618 185.56 57.1226 185.56 59.2743V63.187L182.195 61.1073C177.549 58.234 173.57 58.3119 173.577 61.2752C173.586 65.1209 176.69 68.7298 187.911 77.9453C195.759 84.3905 202.333 88.693 211.709 93.5212C218.834 97.19 224.843 100.011 225.063 99.7925C225.283 99.5726 223.701 96.0297 221.548 91.9191C216.763 82.7825 207.244 71.2103 202.328 68.5509L198.687 66.582L194.208 69.8001C191.744 71.5701 189.526 73.0182 189.279 73.0182C189.031 73.0182 189.891 70.9185 191.19 68.352C194.027 62.7453 194.229 57.9511 191.724 55.6835C189.835 53.9735 187.388 53.5337 186.226 54.696ZM381.831 55.4236C379.287 57.2855 379.547 63.9806 382.348 68.7298C384.842 72.9603 384.512 73.7068 381.261 71.1823C376.297 67.3286 374.65 66.8759 371.053 68.38C366.735 70.1839 357.047 82.0969 351.581 92.3219C346.597 101.644 346.499 101.636 362.378 93.2903C374.136 87.1099 376.193 85.6878 388.676 75.104C397.118 67.9472 400.338 63.9346 400.338 60.5756C400.338 58.2869 394.175 58.5857 391.075 61.0253C387.801 63.6018 386.982 63.5488 387.698 60.8054C389.15 55.2537 386.006 52.3694 381.831 55.4236ZM237.057 63.3639C231.174 67.6674 245.759 87.6306 256.237 89.6155C259.783 90.2871 260.491 91.5873 257.735 92.3678C253.56 93.5501 243.794 94.0588 241.518 93.2123L239.038 92.2899L241.329 91.5623C245.059 90.378 243.345 85.4839 237.023 79.2646C231.517 73.8497 227.336 72.4426 226.125 75.5987C224.214 80.5808 227.67 91.6253 233.41 98.875C236.697 103.029 247.674 110.996 250.107 110.996C251.738 110.996 251.928 107.684 250.458 104.933C248.54 101.348 251.155 102.966 256.623 108.747C259.611 111.907 265.187 119.432 269.012 125.467L275.967 136.441L276.746 122.291C277.468 109.166 277.341 107.331 274.998 96.9421C273.607 90.7818 272.47 84.4985 272.47 82.9784C272.47 79.7063 264.546 71.9479 254.988 65.8605C250.084 62.7383 248.075 62.0417 243.941 62.0347C241.162 62.0287 238.064 62.6274 237.057 63.3639ZM323.418 62.8442C315.55 66.4111 301.44 78.3721 301.44 81.4743C301.44 82.7185 300.342 89.1307 299 95.7229C296.811 106.476 296.631 109.136 297.252 121.595L297.944 135.481L304.437 125.052C308.009 119.314 313.339 112.006 316.283 108.811C321.596 103.043 324.315 101.374 322.896 104.75C321.098 109.031 321.152 110.996 323.069 110.996C325.384 110.996 331.619 106.944 336.736 102.116C347.163 92.2759 351.695 74.0176 343.709 74.0176C339.904 74.0176 330.41 83.9948 330.41 87.9934C330.41 89.7214 331.07 91.0466 332.131 91.4544C335.934 92.9145 330.889 94.0448 323.418 93.4062C313.729 92.5787 311.638 91.0936 317.68 89.3316C325.104 87.1659 333.637 78.45 337.346 69.2445C338.511 66.3552 338.457 65.7405 336.881 63.9976C335.527 62.5014 333.865 62.0417 330.006 62.0947C327.207 62.1337 324.242 62.4705 323.418 62.8442Z" fill="white"/>
</mask>
<g mask="url(#mask0_439_10029)">
<path fill-rule="evenodd" clip-rule="evenodd" d="M-24 -124.289C-24 -103.304 -23.8746 -100.53 -22.9104 -100.16C-22.3111 -99.9295 -11.8109 -99.7413 0.422949 -99.7413C18.4087 -99.7413 22.8175 -99.9219 23.4498 -100.685C24.0077 -101.357 24.1806 -108.23 24.0511 -124.633L23.8692 -147.638L-0.0653856 -147.819L-24 -148V-124.289ZM71.9017 -124.034L72.0828 -100.086H95.5009H118.919L119.1 -124.034L119.281 -147.982H95.5009H71.7205L71.9017 -124.034ZM167.64 -124.034L167.821 -100.086H191.239H214.657L214.839 -124.034L215.02 -147.982H191.239H167.459L167.64 -124.034ZM262.986 -147.522C262.733 -147.27 262.527 -136.764 262.527 -124.176C262.527 -105.647 262.706 -101.14 263.47 -100.506C264.142 -99.9474 271.01 -99.7744 287.404 -99.904L310.396 -100.086L310.577 -124.034L310.758 -147.982H287.102C274.09 -147.982 263.238 -147.775 262.986 -147.522ZM358.733 -147.531C358.476 -147.274 358.265 -136.604 358.265 -123.82C358.265 -103.262 358.391 -100.53 359.355 -100.16C360.993 -99.5304 404.622 -99.6772 405.627 -100.315C406.306 -100.747 406.457 -106.003 406.316 -124.252L406.134 -147.638L382.668 -147.819C369.761 -147.919 358.99 -147.789 358.733 -147.531ZM454.472 -147.531C454.214 -147.274 454.004 -136.604 454.004 -123.82C454.004 -103.262 454.13 -100.53 455.093 -100.16C456.731 -99.5304 500.361 -99.6772 501.366 -100.315C502.045 -100.747 502.196 -106.003 502.055 -124.252L501.873 -147.638L478.406 -147.819C465.5 -147.919 454.729 -147.789 454.472 -147.531ZM549.742 -124.289C549.742 -103.304 549.867 -100.53 550.832 -100.16C551.431 -99.9295 561.931 -99.7413 574.165 -99.7413C592.151 -99.7413 596.559 -99.9219 597.192 -100.685C597.75 -101.357 597.923 -108.23 597.793 -124.633L597.611 -147.638L573.677 -147.819L549.742 -148V-124.289ZM24.3762 -99.8619C23.6977 -99.4264 23.5462 -94.1668 23.6874 -75.9194L23.8692 -52.5343L47.6317 -52.1897L71.3941 -51.8452L71.5752 -28.2506L71.7564 -4.65605L47.8128 -4.4748L23.8692 -4.29355V19.1377V42.5689L47.8038 42.7501L71.7385 42.9314V19.1466V-4.63813H95.5009H119.263V19.1377V42.9135H142.544C159.732 42.9135 166.04 43.1299 166.65 43.7405C167.26 44.3504 167.477 50.5858 167.477 67.5163V90.4651H191.248H215.02L214.839 66.517L214.657 42.5689L191.067 42.3876L167.477 42.2064V18.7931V-4.62021L191.067 -4.80146L214.657 -4.98271V-28.7585V-52.5343L191.076 -52.7156L167.495 -52.8968L167.314 -76.4914L167.133 -100.086H143.37H119.608V-76.3101V-52.5343L142.991 -52.3524C160.646 -52.2152 166.506 -51.9623 166.915 -51.3186C167.212 -50.85 167.46 -40.155 167.467 -27.5525L167.477 -4.63813H143.37H119.263V-28.7585V-52.8789H95.5098H71.7564L71.5752 -76.4824L71.3941 -100.086L48.3204 -100.253C35.6299 -100.344 24.8549 -100.169 24.3762 -99.8619ZM215.319 -99.5732C215.134 -99.0915 215.064 -88.311 215.164 -75.6161L215.346 -52.5343H239.109H262.871V-76.3101V-100.086L239.263 -100.267C220.677 -100.41 215.583 -100.262 215.319 -99.5732ZM311.2 -99.9708C310.947 -99.7186 310.74 -88.8644 310.74 -75.8504V-52.1897H334.494H358.247L358.428 -28.5862L358.609 -4.98271H382.372H406.134V-28.7585V-52.5343L382.544 -52.7156L358.954 -52.8968V-75.8367C358.954 -92.7602 358.737 -98.9936 358.127 -99.6035C357.518 -100.213 351.311 -100.43 334.48 -100.43C321.928 -100.43 311.452 -100.224 311.2 -99.9708ZM406.947 -99.9798C406.689 -99.7227 406.479 -88.8686 406.479 -75.8594V-52.2076L430.069 -52.0264L453.659 -51.8452L454.004 -28.4139L454.348 -4.98271H478.11H501.873V-28.7585V-52.5343L478.11 -52.8789L454.348 -53.2235L454.004 -76.6547L453.659 -100.086L430.537 -100.267C417.82 -100.367 407.205 -100.238 406.947 -99.9798ZM502.364 -99.6125C501.744 -98.9922 501.528 -93.0565 501.528 -76.5734C501.528 -64.3616 501.716 -53.8795 501.946 -53.28C502.316 -52.3152 505.089 -52.1897 526.062 -52.1897H549.76L549.579 -76.1378L549.398 -100.086L526.298 -100.267C508.908 -100.404 502.993 -100.242 502.364 -99.6125ZM-23.6866 -52.0126C-23.8691 -51.5357 -23.9373 -40.7594 -23.8375 -28.0645L-23.6556 -4.98271L-0.283725 -4.80077C17.9555 -4.65949 23.2087 -4.81041 23.6399 -5.48992C24.2777 -6.49539 24.4244 -50.1498 23.7955 -51.7886C23.4257 -52.7535 20.683 -52.8789 0.0117559 -52.8789C-18.1166 -52.8789 -23.429 -52.6845 -23.6866 -52.0126ZM262.995 -52.4282C262.33 -51.7631 262.432 -6.54363 263.1 -5.48992C263.532 -4.81041 268.785 -4.65949 287.024 -4.80077L310.396 -4.98271V-28.7585V-52.5343L286.93 -52.7156C274.023 -52.8155 263.252 -52.6859 262.995 -52.4282ZM550.055 -52.0126C549.873 -51.5357 549.805 -40.7594 549.905 -28.0645L550.086 -4.98271H573.849H597.611L597.803 -27.3802C597.909 -39.6988 597.826 -50.4751 597.618 -51.3283L597.241 -52.8789H573.814C555.638 -52.8789 550.313 -52.6845 550.055 -52.0126ZM215.002 19.1377V42.9314L238.936 42.7501L262.871 42.5689V19.1377V-4.29355L238.936 -4.4748L215.002 -4.65605V19.1377ZM310.74 19.1198V42.8956L334.33 43.0768L357.921 43.258L358.265 66.6893L358.609 90.1205L382.535 90.3017L406.461 90.483L406.642 114.422L406.823 138.361H430.241H453.659L453.84 114.413L454.021 90.4651H430.25H406.479V66.763C406.479 45.7859 406.353 43.0127 405.389 42.6426C404.79 42.4125 394.101 42.2243 381.636 42.2243H358.972L358.791 18.9654L358.609 -4.29355L334.675 -4.4748L310.74 -4.65605V19.1198ZM406.479 19.1287V42.8956L430.069 43.0768L453.659 43.258L454.004 66.6893L454.348 90.1205H478.11H501.873L502.054 66.517C502.154 53.5354 502.154 42.8459 502.054 42.7639C501.954 42.6819 491.18 42.449 478.11 42.2471L454.348 41.8797L454.167 18.6208L453.985 -4.63813H430.232H406.479V19.1287ZM501.842 -3.77118C501.659 -3.29497 501.591 7.32695 501.691 19.8323L501.873 42.5689L525.807 42.7501L549.742 42.9314V19.1466V-4.63813H525.958C507.49 -4.63813 502.099 -4.44448 501.842 -3.77118ZM-23.5406 42.684C-23.7934 42.9362 -24 53.7904 -24 66.8044V90.4651H-0.311274C20.6541 90.4651 23.4257 90.3396 23.7955 89.3748C24.0256 88.7753 24.2136 78.2932 24.2136 66.0814C24.2136 49.7313 23.996 43.6605 23.3871 43.0513C22.7775 42.4414 16.5711 42.2243 -0.260307 42.2243C-12.8124 42.2243 -23.2885 42.4311 -23.5406 42.684ZM72.2068 42.675C71.9492 42.9321 71.7385 53.7904 71.7385 66.8044V90.4651H95.5098H119.281L119.1 66.517L118.919 42.5689L95.797 42.3876C83.0797 42.2877 72.4644 42.4173 72.2068 42.675ZM263.298 43.1588C262.73 43.8431 262.559 50.5865 262.689 67.1158L262.871 90.1205L286.797 90.3017L310.722 90.483L310.903 114.422L311.085 138.361L334.076 138.543C350.47 138.673 357.339 138.5 358.011 137.942C358.773 137.309 358.954 132.898 358.954 114.902C358.954 102.661 358.766 92.1549 358.536 91.5553C358.166 90.5905 355.396 90.4651 334.438 90.4651H310.758L310.577 66.517L310.396 42.5689L287.242 42.3876C268.214 42.2388 263.947 42.3759 263.298 43.1588ZM550.603 42.6805C549.938 42.9493 549.742 48.415 549.742 66.7375V90.4471L525.807 90.6284L501.873 90.8096L501.691 113.814C501.561 130.344 501.732 137.087 502.3 137.771C502.949 138.554 507.216 138.691 526.243 138.542L549.398 138.361L549.579 114.422L549.76 90.483L573.686 90.3017L597.611 90.1205L597.793 67.1158C597.923 50.7126 597.75 43.8404 597.192 43.1678C596.557 42.4028 592.166 42.2347 573.937 42.2788C561.576 42.3084 551.077 42.4896 550.603 42.6805ZM23.9932 90.9158C23.7356 91.1735 23.5248 101.871 23.5248 114.687V137.99L25.0746 138.368C25.9266 138.576 36.6975 138.66 49.0092 138.554L71.3941 138.361V114.585V90.8096L47.9278 90.6284C35.021 90.5285 24.2501 90.658 23.9932 90.9158ZM119.58 91.3224C119.396 91.8041 119.326 102.585 119.426 115.279L119.608 138.361L141.993 138.554C154.304 138.66 165.079 138.576 165.936 138.366L167.495 137.986L167.314 114.398L167.133 90.8096L143.524 90.6284C124.939 90.4857 119.845 90.6332 119.58 91.3224ZM215.319 91.3224C215.134 91.8041 215.064 102.585 215.164 115.279L215.346 138.361L237.731 138.554C250.043 138.66 260.817 138.576 261.675 138.366L263.233 137.986L263.052 114.398L262.871 90.8096L239.263 90.6284C220.677 90.4857 215.583 90.6332 215.319 91.3224ZM-23.5406 138.476C-23.7934 138.729 -24 149.583 -24 162.597V186.257H-0.311274C20.6541 186.257 23.4257 186.132 23.7955 185.167C24.0256 184.568 24.2136 174.086 24.2136 161.874C24.2136 145.524 23.996 139.453 23.3871 138.844C22.7775 138.234 16.5711 138.017 -0.260307 138.017C-12.8124 138.017 -23.2885 138.223 -23.5406 138.476ZM72.2068 138.467C71.9492 138.724 71.7385 149.579 71.7385 162.588V186.24L47.8038 186.421L23.8692 186.602L23.6874 209.607C23.5579 226.01 23.7308 232.882 24.2887 233.555C24.9224 234.319 29.4971 234.498 48.4044 234.498H71.7385V257.929V281.361H95.5009H119.263V257.594V233.827L95.6731 233.646L72.0828 233.464L71.9017 209.861L71.7205 186.257H95.5009H119.281L119.1 162.309L118.919 138.361L95.797 138.18C83.0797 138.08 72.4644 138.21 72.2068 138.467ZM167.945 138.467C167.688 138.724 167.477 149.583 167.477 162.597V186.257H191.239H215.002V209.959C215.002 230.937 215.127 233.71 216.091 234.08C216.691 234.31 227.191 234.498 239.425 234.498C257.41 234.498 261.819 234.318 262.452 233.555C263.009 232.882 263.182 226.01 263.053 209.607L262.871 186.602L238.945 186.421L215.02 186.24L214.839 162.3L214.657 138.361L191.536 138.18C178.818 138.08 168.203 138.21 167.945 138.467ZM263.298 138.951C262.73 139.635 262.559 146.379 262.689 162.908L262.871 185.913L286.806 186.094L310.74 186.275V209.968C310.74 230.938 310.866 233.71 311.83 234.08C312.429 234.31 323.118 234.498 335.583 234.498H358.246L358.428 257.757L358.609 281.016L382.544 281.197L406.479 281.379V305.49V329.601H430.232H453.986L454.167 353.205L454.348 376.808H478.11H501.873V353.033V329.257L478.11 328.912L454.348 328.568L454.167 304.964L453.986 281.361H478.11H502.235L502.054 257.757L501.873 234.154L478.11 233.809L454.348 233.464L454.167 209.861L453.986 186.257H430.232H406.479V209.959C406.479 230.937 406.604 233.71 407.568 234.08C408.168 234.31 418.861 234.498 431.331 234.498H454.004V257.929V281.361H430.241H406.479V257.594V233.827L382.888 233.646L359.298 233.464L358.954 210.033L358.609 186.602L334.684 186.421L310.758 186.24L310.577 162.3L310.396 138.361L287.242 138.18C268.214 138.031 263.947 138.168 263.298 138.951ZM358.582 138.874C358.397 139.356 358.328 150.136 358.428 162.831L358.609 185.913H382.372H406.134V162.137V138.361L382.526 138.18C363.94 138.037 358.846 138.185 358.582 138.874ZM454.32 138.874C454.136 139.356 454.066 150.136 454.166 162.831L454.348 185.913H478.11H501.873V162.137V138.361L478.265 138.18C459.679 138.037 454.585 138.185 454.32 138.874ZM550.201 138.476C549.949 138.729 549.742 149.579 549.742 162.588V186.24L525.807 186.421L501.873 186.602L501.692 209.832C501.516 232.347 501.552 233.084 502.869 233.789C503.765 234.269 511.932 234.455 526.813 234.336L549.398 234.154L549.579 210.214L549.76 186.275L573.686 186.094L597.611 185.913L597.793 162.908C597.923 146.505 597.75 139.633 597.192 138.96C596.558 138.197 592.054 138.017 573.535 138.017C560.954 138.017 550.453 138.223 550.201 138.476ZM119.732 186.708C119.474 186.966 119.263 197.635 119.263 210.419C119.263 230.977 119.389 233.71 120.353 234.08C120.952 234.31 131.612 234.498 144.042 234.498C164.014 234.498 166.69 234.625 167.059 235.588C167.289 236.188 167.477 246.732 167.477 259.02V281.361H191.239H215.002V257.594V233.827L191.412 233.646L167.821 233.464L167.477 210.033L167.133 186.602L143.666 186.421C130.759 186.321 119.989 186.45 119.732 186.708ZM-24 257.585V281.379L-0.0653856 281.197L23.8692 281.016V257.585V234.154L-0.0653856 233.972L-24 233.791V257.585ZM262.84 234.676C262.657 235.152 262.589 245.774 262.689 258.279L262.871 281.016L286.806 281.197L310.74 281.379V257.594V233.809H286.956C268.488 233.809 263.098 234.003 262.84 234.676ZM549.742 257.585V281.379L573.677 281.197L597.611 281.016V257.585V234.154L573.677 233.972L549.742 233.791V257.585ZM23.8417 282.218C23.6571 282.7 23.5875 293.48 23.6874 306.175L23.8692 329.257H47.6317H71.3941V305.481V281.705L47.7859 281.524C29.2003 281.381 24.1062 281.529 23.8417 282.218ZM119.58 282.218C119.396 282.7 119.326 293.48 119.426 306.175L119.608 329.257L143.198 329.438C156.172 329.538 166.855 329.693 166.938 329.783C167.02 329.872 167.252 340.49 167.454 353.377L167.821 376.808H191.239H214.657L214.839 352.86L215.02 328.912H191.257H167.495L167.314 305.309L167.133 281.705L143.524 281.524C124.939 281.381 119.845 281.529 119.58 282.218ZM215.319 282.218C215.134 282.7 215.064 293.48 215.164 306.175L215.346 329.257H239.109H262.871V305.481V281.705L239.263 281.524C220.677 281.381 215.583 281.529 215.319 282.218ZM311.054 282.227C310.871 282.704 310.803 293.48 310.903 306.175L311.085 329.257L334.666 329.438L358.247 329.619L358.428 353.214L358.609 376.808H382.372H406.134V353.033V329.257L382.544 329.076L358.954 328.894V306.218C358.954 293.745 358.766 283.05 358.536 282.451C358.166 281.486 355.423 281.361 334.752 281.361C316.624 281.361 311.311 281.555 311.054 282.227ZM501.95 282.442C501.319 284.087 501.462 327.741 502.102 328.75C502.533 329.429 507.787 329.58 526.026 329.439L549.398 329.257V305.481V281.705L525.885 281.524C504.892 281.362 502.326 281.461 501.95 282.442ZM-23.6866 329.778C-23.8691 330.255 -23.9373 341.032 -23.8375 353.727L-23.6556 376.808L-0.663923 376.99C15.7301 377.12 22.5985 376.947 23.2707 376.389C24.0332 375.756 24.2136 371.345 24.2136 353.349C24.2136 341.108 24.0256 330.602 23.7955 330.002C23.4257 329.038 20.683 328.912 0.0117559 328.912C-18.1166 328.912 -23.429 329.107 -23.6866 329.778ZM71.9017 352.86L72.0828 376.808H95.5009H118.919L119.1 352.86L119.281 328.912H95.5009H71.7205L71.9017 352.86ZM262.995 329.363C262.33 330.028 262.432 375.247 263.1 376.301C263.532 376.981 268.785 377.132 287.024 376.99L310.396 376.808V353.033V329.257L286.93 329.076C274.023 328.976 263.252 329.105 262.995 329.363ZM550.059 329.77C549.874 330.251 549.805 341.032 549.905 353.727L550.086 376.808L573.661 376.99L597.236 377.171L597.616 375.611C597.825 374.753 597.909 363.973 597.803 351.654L597.611 329.257L574.003 329.076C555.417 328.933 550.323 329.08 550.059 329.77ZM24.3762 377.032C23.6977 377.468 23.5462 382.728 23.6874 400.975L23.8692 424.36H47.6317H71.3941V400.584V376.808L48.3204 376.642C35.6299 376.55 24.8549 376.726 24.3762 377.032ZM120.115 377.032C119.436 377.468 119.285 382.728 119.426 400.975L119.608 424.36H143.37H167.133V400.584V376.808L144.059 376.642C131.368 376.55 120.593 376.726 120.115 377.032ZM215.461 376.923C215.208 377.176 215.002 388.034 215.002 401.053V424.722L238.936 424.541L262.871 424.36L263.053 401.355C263.182 384.952 263.009 378.08 262.452 377.407C261.818 376.644 257.313 376.464 238.794 376.464C226.213 376.464 215.713 376.671 215.461 376.923ZM311.2 376.923C310.947 377.176 310.74 388.03 310.74 401.044V424.705H334.429C355.394 424.705 358.166 424.579 358.536 423.614C358.766 423.015 358.954 412.533 358.954 400.321C358.954 383.971 358.736 377.9 358.127 377.291C357.518 376.681 351.311 376.464 334.48 376.464C321.928 376.464 311.452 376.671 311.2 376.923ZM406.947 376.915C406.689 377.172 406.479 388.03 406.479 401.044V424.705H430.25H454.021L453.84 400.756L453.659 376.808L430.537 376.627C417.82 376.527 407.205 376.657 406.947 376.915ZM502.364 377.282C501.744 377.902 501.528 383.838 501.528 400.321C501.528 412.533 501.716 423.015 501.946 423.614C502.316 424.579 505.089 424.705 526.062 424.705H549.76L549.579 400.756L549.398 376.808L526.298 376.627C508.908 376.491 502.993 376.653 502.364 377.282Z" fill="black"/>
</g>
</svg>
