<svg width="573" height="278" viewBox="0 0 573 278" fill="none" xmlns="http://www.w3.org/2000/svg">
<mask id="mask0_439_10131" style="mask-type:alpha" maskUnits="userSpaceOnUse" x="0" y="0" width="574" height="278">
<path fill-rule="evenodd" clip-rule="evenodd" d="M77 58.4549C77 58.9723 81.0571 61.7937 86.0147 64.7246C104.071 75.3977 110.661 83.5067 128.363 116.829C136.08 131.356 140.721 138.655 149.163 149.545C155.141 157.255 160.276 163.318 160.576 163.02C160.875 162.72 157.89 157.528 153.941 151.48C146.078 139.438 142.226 131.623 139.006 121.178C135.579 110.065 136.575 101.593 141.307 101.593C143.564 101.593 154.299 109.105 161.034 115.397C169.86 123.642 176.883 134.082 183.453 148.725C191.158 165.899 191.579 166.641 198.619 175.451C207.897 187.061 214.015 191.565 232.735 200.562C261.691 214.477 270.684 222.065 277.202 238.083C279.276 243.182 282.941 259.44 285.142 273.314C285.469 275.37 286.157 277.052 286.67 277.052C287.805 277.052 288.125 275.74 290.623 260.89C291.703 254.469 293.526 246.394 294.674 242.945C297.505 234.443 303.568 224.432 308.787 219.639C314.819 214.1 326.604 206.974 337.623 202.201C342.766 199.974 349.91 196.53 353.497 194.549C364.644 188.395 381.247 170.16 385.488 159.415C389.196 150.016 396.761 134.933 400.584 129.31C408.579 117.552 425.738 102.761 431.914 102.305C434.238 102.133 435.092 102.679 436.271 105.082C439.566 111.802 431.917 132.953 419.227 152.208C415.878 157.291 413.389 161.702 413.698 162.01C414.253 162.565 425.761 148.573 432.643 138.978C434.608 136.236 440.965 125.138 446.77 114.316C459.554 90.4752 463.198 85.031 472.008 76.596C478.441 70.437 492.59 60.719 495.123 60.719C495.763 60.719 496.287 60.053 496.287 59.2395C496.287 57.9525 495.802 57.9665 492.544 59.3532C480.118 64.6399 479.587 64.9569 456.355 80.8968C453.884 82.5915 443.327 89.8113 432.895 96.9393C422.463 104.068 413.021 110.704 411.913 111.685C407.211 115.85 392.503 123.742 385.08 126.082C380.672 127.473 372.556 129.491 367.045 130.566C344.697 134.924 335.6 138.674 324.781 147.984C319.431 152.588 320.004 153.602 325.757 149.714C342.205 138.597 357.745 133.408 368.475 135.449C374.822 136.656 379.49 141.849 379.476 147.686C379.453 157.687 368.533 172.148 358.89 174.948C353.913 176.392 353.331 176.368 349.183 174.535C345.719 173.006 344.515 171.816 343.587 169.007C342.936 167.038 342.692 164.521 343.045 163.412C344.02 160.342 348.411 155.545 351.902 153.735C356.724 151.235 353.498 151.108 346.929 153.54C342.163 155.303 339.21 157.515 331.321 165.226C321.376 174.946 318.858 179.087 317.281 188.326C316.618 192.205 316.139 192.73 322.715 182.37C325.54 177.921 327.514 176.073 331.646 174.018C338.353 170.68 339.437 170.711 344.046 174.369C346.119 176.014 348.202 177.359 348.676 177.359C349.149 177.359 349.537 178.981 349.537 180.963C349.537 186.271 345.017 193.807 339.741 197.297C335.381 200.181 329.072 202.117 327.888 200.934C327.074 200.122 332.084 193.5 336.455 189.61C338.434 187.848 339.474 186.39 338.765 186.37C334.131 186.234 317.799 198.776 308.644 209.5C301.883 217.42 294.787 230.839 292.007 240.963C290.293 247.201 290.26 247.242 286.915 246.945C283.63 246.653 283.478 246.435 280.612 237.899C277.03 227.23 274.711 222.542 269.111 214.649C261.669 204.158 243.964 188.917 236.738 186.78C234.711 186.181 235.31 187.187 239.982 192.227C243.135 195.627 245.713 199.055 245.713 199.847C245.713 203.661 233.814 198.641 228.985 192.79C224.974 187.931 221.978 177.359 224.611 177.359C225.085 177.359 227.169 176.014 229.241 174.369C233.797 170.754 235.412 170.675 241.503 173.771C247.202 176.667 249.673 179.21 253.742 186.361L256.845 191.815L256.245 187.495C254.744 176.671 241.995 161.186 229.409 154.899C220.312 150.355 216.569 150.208 222.955 154.646C230.705 160.033 232.853 166.43 228.688 171.718C223.325 178.527 211.718 176.58 203.495 167.491C198.858 162.366 195.172 155.101 194.322 149.415C193.767 145.702 194.048 144.378 196.012 141.47C199.182 136.775 202.898 135.195 210.765 135.195C220.796 135.195 230.895 139.003 245.077 148.132C248.846 150.558 252.12 152.351 252.354 152.118C253.321 151.152 242.353 142.522 235.76 139.062C230.172 136.129 224.791 134.506 210.482 131.438C200.484 129.294 189.651 126.587 186.407 125.421C180.224 123.201 166.074 115.252 161.21 111.266C159.644 109.983 150.275 103.393 140.392 96.6233C130.509 89.8531 117.481 80.8848 111.441 76.6947C97.7048 67.1651 89.6176 62.2871 84.4873 60.4348C82.291 59.6423 79.7074 58.6613 78.747 58.2546C77.7867 57.8478 77 57.9385 77 58.4549Z" fill="#FF0000"/>
<path fill-rule="evenodd" clip-rule="evenodd" d="M251.201 5.32512C262.933 18.0246 268.984 35.3564 272.044 65.0229L272.714 71.5191L263.851 63.0211C258.877 58.2509 252.358 53.133 248.994 51.357C245.698 49.616 233.357 44.9977 221.571 41.096C199.399 33.7544 186.335 27.6969 171.665 17.9547C167.594 15.2513 164.118 13.1835 163.941 13.3614C163.763 13.5383 166.819 17.2521 170.731 21.6135C179.23 31.0889 182.54 37.5321 182.553 44.63C182.569 52.9141 178.765 54.6431 164.169 52.984C148.416 51.1931 139.76 46.7217 120.617 30.4863C115.128 25.831 110.637 22.2771 110.637 22.5899C110.637 23.3685 118.005 34.2491 123.467 41.5368C125.938 44.8348 135.84 55.2767 145.47 64.7411C155.1 74.2065 162.753 82.1768 162.477 82.4537C161.758 83.1713 147.126 79.5574 140.098 76.9269C129.624 73.0062 119.855 61.8438 117.57 51.1871L116.496 46.1761L105.824 43.6775C85.2972 38.8724 74.4614 37.6161 54.8746 37.774C33.3388 37.9479 20.545 39.3011 9.67317 42.5562C-3.05271 46.3669 -3.14961 46.9686 8.95391 47.0036C17.3123 47.0266 20.8796 47.4913 25.2411 49.1243C32.7244 51.9257 43.3345 59.1834 53.8856 68.7178C62.4058 76.4182 69.2737 80.9246 87.1053 90.5159C97.3777 96.0407 102.803 100.711 109.413 109.717C111.99 113.228 114.265 115.597 114.47 114.982C114.675 114.367 113.435 111.002 111.714 107.505C106.303 96.5084 90.393 81.1714 71.3376 68.5828C62.5766 62.7953 59.1012 59.5402 55.7996 54.0294C52.9306 49.2412 53.1563 47.3324 56.8585 45.0797C61.6186 42.1834 66.2538 41.8096 76.1726 43.5226C92.0423 46.263 103.137 53.4717 111.683 66.595C119.68 78.8738 134.115 86.4333 157.227 90.445C171.146 92.8615 174.313 94.3317 194.849 107.905C205.399 114.878 214.703 120.994 215.524 121.497C216.345 121.999 215.303 120.023 213.207 117.104C211.112 114.187 209.545 111.652 209.725 111.473C210.338 110.858 249.235 120.805 252.115 122.313C258.928 125.881 268.775 139.979 264.453 139.979C263.89 139.979 260.968 139.113 257.96 138.056C247.972 134.544 251.318 137.467 269.07 147.765L276.157 151.878L276.791 181.158C277.139 197.261 277.883 215.16 278.442 220.931C280.411 241.235 284.245 262.088 286.408 264.256C286.873 264.722 287.953 262.698 288.806 259.758C293.323 244.195 296.294 215.307 297.14 178.719C297.665 156.001 297.996 151.799 299.35 150.67C300.225 149.941 305.211 146.939 310.431 143.999C321.412 137.816 320.921 138.148 320.186 137.412C319.874 137.1 317.239 137.551 314.33 138.416C306.907 140.621 306.174 139.327 310.934 132.415C317.376 123.057 319.243 122.111 342.78 116.29C354.343 113.429 363.937 111.224 364.101 111.388C364.265 111.551 362.824 113.666 360.9 116.088C358.976 118.509 357.398 120.834 357.393 121.253C357.387 121.673 365.549 116.557 375.532 109.885C385.514 103.212 395.74 96.7243 398.259 95.467C400.776 94.2088 408.547 92.009 415.528 90.5769C444.137 84.7064 452.1 80.216 464.244 63.1061C472.419 51.5889 483.389 45.5864 500.956 43.0169C508.326 41.9386 509.371 42.0065 513.521 43.8434C520.054 46.7347 520.794 48.7455 517.31 54.1434C514.461 58.5568 509.848 63.217 505.23 66.3452C503.857 67.2756 499.768 70.053 496.144 72.5155C486.638 78.9757 473.517 90.7698 467.979 97.8316C463.308 103.787 457.577 114.625 458.572 115.62C458.846 115.895 461.587 112.774 464.663 108.685C471.631 99.4237 476.102 95.7728 488.747 89.0228C503.472 81.1634 511.441 75.8046 520.832 67.4445C531.272 58.152 542.865 50.5025 549.493 48.5337C552.478 47.6472 558.654 47.0216 564.601 47.0036C571.798 46.9816 574.171 46.6888 572.944 45.9732C570.278 44.4181 559.92 41.2779 553.498 40.0766C545.258 38.5356 512.962 36.8545 505.23 37.5641C493.495 38.6415 477.939 41.137 467.02 43.6935C456.691 46.1121 456.281 46.31 456.271 48.8695C456.259 52.1445 452.305 60.8214 448.627 65.6466C444.371 71.2273 437.614 75.8386 430.404 78.0793C421.985 80.6957 411.327 82.9584 411.327 82.1289C411.327 81.7771 418.32 74.5233 426.866 66.0104C435.413 57.4974 444.795 47.6082 447.715 44.0353C454.118 36.2009 462.275 24.3309 462.275 22.8478C462.275 22.2571 460.14 23.7603 457.529 26.1878C443.99 38.7794 430.341 48.0839 421.72 50.5984C413.764 52.9191 400.506 54.1514 396.145 52.977C391.392 51.6968 389.949 49.0554 390.671 42.9549C391.48 36.129 395.173 29.5519 402.866 21.2397C406.562 17.2451 409.348 13.7382 409.056 13.4473C408.765 13.1555 406.484 14.4767 403.988 16.3826C393.072 24.7187 375.677 33.0378 354.21 40.1896C323.426 50.4455 320.735 51.8297 308.183 63.8766L301.44 70.3478V66.7579C301.44 61.1242 303.384 48.2668 305.513 39.8288C309.096 25.6202 315.73 12.6678 323.768 4.1818C327.445 0.301083 327.574 0.0142504 324.916 1.64329C314.09 8.27738 301.229 20.6521 294.945 30.4783C291.228 36.2919 287.5 45.3306 287.406 48.7575C287.38 49.733 286.086 47.1115 284.533 42.932C282.979 38.7514 280.013 32.68 277.941 29.4399C271.758 19.7686 258.592 7.03112 247.995 0.467984C245.87 -0.84824 246.802 0.562925 251.201 5.32512ZM205.954 49.3512C203.624 51.357 203.345 52.1675 203.923 55.2527C204.687 59.3253 208.362 66.616 212.167 71.6081C214.818 75.084 216.528 75.2809 216.528 72.1098C216.528 68.8597 222.392 62.0677 227.194 59.7571C233.121 56.9037 234.753 54.4652 232.071 52.4713C228.875 50.0977 224.924 50.7374 220.891 54.2793C218.858 56.0652 217.042 57.0776 216.857 56.528C215.95 53.8375 212.42 49.0424 210.647 48.0939C209.043 47.2344 208.13 47.4793 205.954 49.3512ZM362.121 48.1169C361.156 48.6796 359.461 50.9143 358.355 53.084C357.248 55.2527 356.074 57.0277 355.746 57.0277C355.418 57.0277 353.613 55.6785 351.735 54.0294C347.765 50.5405 343.529 50.1237 340.957 52.9671C338.726 55.4336 339.602 56.7868 344.963 59.1594C349.966 61.3731 355.989 67.9482 356.927 72.2187L357.577 75.182L360.012 72.8943C363.44 69.6722 369.37 57.3895 369.37 53.5107C369.37 51.1601 368.689 49.8149 366.908 48.6476C364.048 46.7727 364.368 46.8077 362.121 48.1169ZM186.226 54.696C185.86 55.0618 185.56 57.1226 185.56 59.2743V63.187L182.195 61.1073C177.549 58.234 173.57 58.3119 173.577 61.2752C173.586 65.1209 176.69 68.7298 187.911 77.9453C195.759 84.3905 202.333 88.693 211.709 93.5212C218.834 97.19 224.843 100.011 225.063 99.7925C225.283 99.5726 223.701 96.0297 221.548 91.9191C216.763 82.7825 207.244 71.2103 202.328 68.5509L198.687 66.582L194.208 69.8001C191.744 71.5701 189.526 73.0182 189.279 73.0182C189.031 73.0182 189.891 70.9185 191.19 68.352C194.027 62.7453 194.229 57.9511 191.724 55.6835C189.835 53.9735 187.388 53.5337 186.226 54.696ZM381.831 55.4236C379.287 57.2855 379.547 63.9806 382.348 68.7298C384.842 72.9603 384.512 73.7068 381.261 71.1823C376.297 67.3286 374.65 66.8759 371.053 68.38C366.735 70.1839 357.047 82.0969 351.581 92.3219C346.597 101.644 346.499 101.636 362.378 93.2903C374.136 87.1099 376.193 85.6878 388.676 75.104C397.118 67.9472 400.338 63.9346 400.338 60.5756C400.338 58.2869 394.175 58.5857 391.075 61.0253C387.801 63.6018 386.982 63.5488 387.698 60.8054C389.15 55.2537 386.006 52.3694 381.831 55.4236ZM237.057 63.3639C231.174 67.6674 245.759 87.6306 256.237 89.6155C259.783 90.2871 260.491 91.5873 257.735 92.3678C253.56 93.5501 243.794 94.0588 241.518 93.2123L239.038 92.2899L241.329 91.5623C245.059 90.378 243.345 85.4839 237.023 79.2646C231.517 73.8497 227.336 72.4426 226.125 75.5987C224.214 80.5808 227.67 91.6253 233.41 98.875C236.697 103.029 247.674 110.996 250.107 110.996C251.738 110.996 251.928 107.684 250.458 104.933C248.54 101.348 251.155 102.966 256.623 108.747C259.611 111.907 265.187 119.432 269.012 125.467L275.967 136.441L276.746 122.291C277.468 109.166 277.341 107.331 274.998 96.9421C273.607 90.7818 272.47 84.4985 272.47 82.9784C272.47 79.7063 264.546 71.9479 254.988 65.8605C250.084 62.7383 248.075 62.0417 243.941 62.0347C241.162 62.0287 238.064 62.6274 237.057 63.3639ZM323.418 62.8442C315.55 66.4111 301.44 78.3721 301.44 81.4743C301.44 82.7185 300.342 89.1307 299 95.7229C296.811 106.476 296.631 109.136 297.252 121.595L297.944 135.481L304.437 125.052C308.009 119.314 313.339 112.006 316.283 108.811C321.596 103.043 324.315 101.374 322.896 104.75C321.098 109.031 321.152 110.996 323.069 110.996C325.384 110.996 331.619 106.944 336.736 102.116C347.163 92.2759 351.695 74.0176 343.709 74.0176C339.904 74.0176 330.41 83.9948 330.41 87.9934C330.41 89.7214 331.07 91.0466 332.131 91.4544C335.934 92.9145 330.889 94.0448 323.418 93.4062C313.729 92.5787 311.638 91.0936 317.68 89.3316C325.104 87.1659 333.637 78.45 337.346 69.2445C338.511 66.3552 338.457 65.7405 336.881 63.9976C335.527 62.5014 333.865 62.0417 330.006 62.0947C327.207 62.1337 324.242 62.4705 323.418 62.8442Z" fill="white"/>
</mask>
<g mask="url(#mask0_439_10131)">
<path fill-rule="evenodd" clip-rule="evenodd" d="M-10.8626 -112.222C-21.8917 -92.4889 -31.1651 -76.1853 -31.4695 -75.9913C-32.1882 -75.534 -32.175 -74.8383 -31.4401 -74.3845C-30.7772 -73.9756 3.3579 -13.193 5.10377 -9.31418C5.95681 -7.41769 6.18449 -5.90246 6.01445 -3.24058C5.79658 0.184957 5.19138 1.37535 -11.7312 31.6667C-21.3672 48.9154 -29.8579 64.0026 -30.5997 65.1948C-31.9427 67.3516 -31.9433 67.3688 -30.8389 68.9382C-29.334 71.0771 3.62707 130.171 4.99887 133.19C6.3868 136.243 6.39833 140.688 5.02653 143.656C4.02709 145.817 -29.5893 206.051 -31.3842 208.896C-31.9525 209.797 -32.0199 210.339 -31.5974 210.624C-30.7755 211.177 4.59367 274.515 5.44787 276.963C6.41273 279.729 6.24962 283.258 5.0346 285.907C3.72852 288.754 -28.5852 346.669 -30.6095 349.79C-31.7294 351.518 -31.934 352.277 -31.477 353.009C-31.1478 353.536 -22.1303 369.623 -11.4378 388.759C-0.745944 407.894 8.25774 423.874 8.57071 424.27C10.1327 426.247 11.1714 424.716 24.5625 400.694C32.0111 387.332 38.8815 375.499 39.8297 374.4C44.6004 368.869 54.1015 368.921 58.9742 374.505C59.8602 375.521 66.6799 387.29 74.1297 400.66C87.5237 424.7 88.549 426.211 90.1416 424.27C90.4667 423.874 96.7452 412.795 104.094 399.65C111.443 386.504 118.147 375.004 118.992 374.093C123.847 368.858 133.24 369.074 137.939 374.529C138.825 375.558 145.644 387.332 153.092 400.694C162.808 418.123 166.918 424.99 167.633 424.99C168.909 424.99 168.114 426.303 183.325 399.089C190.492 386.268 197.061 375.026 197.924 374.108C202.444 369.293 210.512 368.987 215.797 373.431C216.9 374.358 222.692 384.11 231.558 399.967C243.419 421.18 245.753 425.011 246.741 424.869C247.625 424.743 251.223 418.768 261.512 400.347C268.994 386.952 275.867 375.192 276.787 374.214C281.857 368.82 291.882 369.21 296.172 374.967C296.965 376.031 303.656 387.733 311.043 400.973C322.385 421.305 324.653 425.018 325.633 424.874C326.505 424.745 330.18 418.66 340.379 400.459C347.851 387.126 354.404 375.559 354.942 374.754C356.435 372.522 361.427 370.277 364.884 370.284C368.62 370.291 373.227 372.399 375.122 374.967C375.907 376.031 382.589 387.735 389.972 400.975C401.319 421.328 403.574 425.023 404.556 424.876C405.428 424.745 409.2 418.471 419.719 399.65C430.006 381.242 434.29 374.101 435.868 372.726C440.673 368.543 448.036 368.713 452.833 373.118C454.457 374.608 458.872 381.985 468.883 399.938C480.472 420.717 482.895 424.702 483.944 424.702C484.993 424.702 487.417 420.717 499.006 399.938C508.45 383.002 513.513 374.505 515.019 373.061C519.579 368.688 527.243 368.581 532.121 372.821C533.566 374.077 538.272 381.94 548.179 399.65C559.919 420.636 562.396 424.702 563.441 424.702C564.492 424.702 567.807 419.12 584.479 389.283C595.364 369.803 604.689 353.454 605.2 352.952C605.712 352.451 606.113 351.673 606.091 351.224C606.064 350.687 605.912 350.757 605.646 351.431C605.352 352.175 600.347 343.687 587.307 320.332C577.443 302.665 568.927 287.328 568.383 286.251C567.655 284.809 567.452 283.288 567.617 280.492C567.839 276.716 567.957 276.483 586.2 243.865C596.298 225.81 604.914 210.83 605.346 210.577C605.778 210.324 606.131 209.725 606.131 209.247C606.131 208.769 605.883 208.531 605.58 208.718C604.844 209.173 605.732 210.682 585.597 174.755L567.845 143.08L567.823 138.76L567.802 134.441L585.334 103.054C594.977 85.7906 603.601 70.5519 604.499 69.1899C606.351 66.3794 606.406 66.1986 605.411 66.1859C605.015 66.1807 596.397 51.344 586.259 33.2148L567.829 0.252903L567.815 -3.77849L567.802 -7.80989L585.334 -39.1972C594.977 -56.4603 603.524 -71.6212 604.328 -72.8882C605.937 -75.424 606.327 -76.6634 605.456 -76.4698C605.144 -76.4007 595.967 -92.2822 585.063 -111.762C574.16 -131.243 564.847 -147.436 564.369 -147.747C563.758 -148.146 563.255 -148.061 562.67 -147.459C562.214 -146.989 555.831 -135.85 548.486 -122.705C541.141 -109.56 534.521 -97.9987 533.775 -97.0139C531.941 -94.591 528.739 -93.157 524.53 -92.8725C521.637 -92.6772 520.534 -92.8863 518.19 -94.0744C516.628 -94.8651 514.917 -95.9939 514.386 -96.5825C513.856 -97.1711 507.192 -108.797 499.576 -122.417C491.962 -136.037 485.333 -147.436 484.846 -147.747C484.22 -148.147 483.72 -148.063 483.142 -147.459C482.693 -146.989 476.179 -135.591 468.667 -122.129C461.155 -108.667 454.472 -97.0715 453.816 -96.3619C450.185 -92.4354 443.078 -91.5755 438.054 -94.4545C434.45 -96.5203 434.884 -95.8402 419.109 -124.145C412.224 -136.498 406.247 -146.965 405.827 -147.404C405.406 -147.843 404.693 -148.061 404.241 -147.887C403.788 -147.714 397.373 -136.729 389.985 -123.476C382.597 -110.224 375.749 -98.5066 374.768 -97.4383C369.913 -92.152 360.705 -91.9545 355.981 -97.0346C355.188 -97.887 348.423 -109.504 340.948 -122.849C333.473 -136.196 326.902 -147.389 326.347 -147.724C325.556 -148.201 325.15 -148.084 324.471 -147.181C323.993 -146.548 317.453 -135.015 309.935 -121.553L296.268 -97.0766L293.152 -95.2049C290.562 -93.6494 289.454 -93.3332 286.59 -93.3332C282.681 -93.3332 279.249 -94.7108 276.909 -97.2189C276.096 -98.0908 269.242 -109.894 261.677 -123.447C250.388 -143.675 247.727 -148.059 246.821 -147.924C246.026 -147.804 241.917 -140.969 232.116 -123.463C224.634 -110.102 217.945 -98.4047 217.249 -97.47C214.223 -93.4035 206.486 -92.0184 201.502 -94.6515C200.13 -95.3765 198.3 -96.8664 197.435 -97.963C196.571 -99.0595 189.82 -110.787 182.433 -124.025C171.471 -143.669 168.801 -148.064 167.91 -147.926C167.132 -147.805 162.849 -140.653 152.98 -122.993C145.368 -109.372 138.606 -97.6474 137.953 -96.9378C133.414 -92.0086 123.235 -92.2027 118.942 -97.3001C118.213 -98.1657 111.43 -109.951 103.868 -123.49C92.518 -143.81 89.9249 -148.075 89.0084 -147.932C88.2061 -147.805 84.0561 -140.884 74.0559 -122.993C66.4424 -109.372 59.6705 -97.6474 59.0065 -96.9378C54.5447 -92.1664 44.699 -92.1664 40.2689 -96.9378C39.6095 -97.6474 32.8399 -109.372 25.2253 -122.993C15.3398 -140.675 11.067 -147.806 10.2855 -147.929C9.3863 -148.069 5.62078 -141.712 -10.8626 -112.222ZM4.67552 -127.948C1.19013 -126.335 -0.107888 -124.579 -7.2827 -111.762C-17.3464 -93.7853 -17.0945 -94.3618 -16.8397 -89.8599C-16.5803 -85.2664 -14.808 -82.1334 -11.0695 -79.6604L-8.66833 -78.0715L8.95516 -77.8918C20.6673 -77.772 27.306 -77.9258 28.7493 -78.3496C34.6895 -80.0947 38.8107 -87.4537 37.2152 -93.4685C36.3599 -96.6925 22.0437 -122.438 19.7289 -124.915C18.7404 -125.972 16.9698 -127.333 15.7939 -127.939C12.9962 -129.38 7.77934 -129.384 4.67552 -127.948ZM83.64 -127.948C82.3719 -127.362 80.6388 -126.136 79.7886 -125.225C78.9379 -124.314 74.6582 -117.219 70.2783 -109.459L62.3138 -95.3489V-90.6995C62.3138 -86.5881 62.4977 -85.7726 63.9041 -83.6498C64.7784 -82.3292 66.575 -80.5341 67.8967 -79.6604L70.299 -78.0715H89.1156H107.932L110.335 -79.6604C111.656 -80.5341 113.453 -82.3292 114.327 -83.6498C115.734 -85.7726 115.917 -86.5881 115.917 -90.6995V-95.3489L108.145 -109.16C99.8323 -123.933 98.2392 -126.175 94.8132 -127.922C91.9549 -129.379 86.7594 -129.391 83.64 -127.948ZM162.316 -127.912C161.207 -127.32 159.498 -125.971 158.52 -124.914C156.212 -122.421 141.885 -96.67 141.025 -93.4685C139.405 -87.4422 143.578 -80.0952 149.636 -78.3076C150.895 -77.9361 158.28 -77.7795 169.276 -77.8918L186.9 -78.0715L189.301 -79.6604C190.621 -80.5341 192.417 -82.3292 193.292 -83.6498C194.698 -85.7726 194.882 -86.5881 194.882 -90.6995V-95.3489L186.916 -109.459C182.534 -117.219 178.254 -124.314 177.405 -125.225C173.944 -128.939 166.666 -130.234 162.316 -127.912ZM240.3 -127.311C236.958 -125.396 237.384 -126.039 226.231 -106.03C219.822 -94.5305 219.668 -94.1688 219.715 -90.7687C219.772 -86.6382 221.231 -83.4131 224.234 -80.7783C227.553 -77.8664 228.981 -77.6954 248.293 -77.8918L265.968 -78.0715L268.466 -79.8205C273.558 -83.386 275.558 -90.4352 273.045 -95.9617C270.864 -100.761 257.815 -123.63 256.349 -125.225C252.519 -129.39 245.516 -130.3 240.3 -127.311ZM319.786 -127.814C318.424 -127.141 316.699 -125.78 315.953 -124.791C313.093 -121 298.991 -94.8859 298.62 -92.6957C298.023 -89.1642 299.272 -85.1097 301.864 -82.1679C305.689 -77.8261 306.37 -77.7104 326.965 -77.9033L344.918 -78.0715L347.424 -79.8787C348.946 -80.9764 350.571 -82.8982 351.565 -84.774C352.96 -87.4093 353.168 -88.378 352.983 -91.382C352.781 -94.6653 352.229 -95.8672 344.788 -109.235C340.401 -117.118 336.146 -124.282 335.336 -125.154C331.705 -129.055 324.713 -130.251 319.786 -127.814ZM398.751 -127.814C397.389 -127.141 395.658 -125.78 394.904 -124.791C393.061 -122.371 378.775 -96.7933 377.957 -94.447C375.942 -88.6729 379.173 -81.6203 385.088 -78.8777C387.173 -77.9108 389.078 -77.8077 404.999 -77.7962L422.604 -77.7835L425.724 -79.6552C430.069 -82.2624 432.257 -86.3629 431.951 -91.329C431.753 -94.549 431.168 -95.8142 423.735 -109.107C419.334 -116.979 415.122 -124.146 414.375 -125.033C411.058 -128.971 403.729 -130.276 398.751 -127.814ZM478.4 -127.868C477.098 -127.224 475.501 -126.123 474.851 -125.421C473.386 -123.837 458.454 -97.2264 457.525 -94.5432C456.067 -90.3287 457.068 -85.7317 460.201 -82.2601C464.129 -77.9056 464.652 -77.8088 484.226 -77.8088C499.726 -77.8088 501.757 -77.9177 503.823 -78.8582C506.905 -80.2599 510.235 -84.0587 511.059 -87.1093C512.392 -92.0449 511.691 -93.988 502.945 -109.612C498.47 -117.605 494.266 -124.726 493.601 -125.435C490.251 -129.013 483.047 -130.166 478.4 -127.868ZM557.86 -127.828C556.513 -127.162 554.819 -125.913 554.094 -125.052C553.37 -124.192 549.182 -117.046 544.789 -109.174C536.565 -94.4366 535.785 -92.4129 536.617 -87.9807C537.215 -84.7964 540.094 -81.0253 543.229 -79.32L546.055 -77.7835L563.557 -77.7962C583.409 -77.8106 584.014 -77.9235 587.771 -82.3085C590.912 -85.9759 591.893 -90.4243 590.468 -94.5432C589.534 -97.2414 574.603 -123.842 573.128 -125.435C569.792 -129.039 562.591 -130.168 557.86 -127.828ZM-9.75769 -71.5176C-16.2754 -68.5597 -18.8732 -60.259 -15.4184 -53.4321C-11.6379 -45.9608 -0.532105 -26.6527 0.844298 -25.1587C5.62655 -19.9669 14.9916 -20.1091 19.6799 -25.4444C22.0448 -28.1356 36.3996 -53.9274 37.2135 -56.9475C38.7444 -62.6277 35.2918 -69.3394 29.6225 -71.7059C27.8427 -72.4488 24.5221 -72.598 10.0255 -72.5876C-5.66076 -72.5761 -7.66427 -72.4678 -9.75769 -71.5176ZM69.2068 -71.5176C64.4055 -69.3389 61.7812 -64.6123 62.1449 -58.8014C62.3709 -55.199 62.7265 -54.4198 70.3117 -40.925C74.6738 -33.1645 78.9379 -26.0698 79.7886 -25.1587C84.5063 -20.1039 93.7515 -20.1039 98.43 -25.1587C99.2732 -26.0698 103.533 -33.1645 107.896 -40.925C115.268 -54.0351 115.848 -55.286 116.081 -58.5773C116.385 -62.8558 115.538 -65.6726 113.124 -68.4209C109.589 -72.443 108.826 -72.5749 89.1156 -72.5749C73.2905 -72.5749 71.3037 -72.4695 69.2068 -71.5176ZM148.483 -71.6944C142.918 -69.2519 139.714 -63.0291 141.021 -57.2003C141.726 -54.0599 155.948 -28.2497 158.517 -25.449C163.418 -20.1074 172.609 -19.9657 177.385 -25.1587C178.222 -26.0698 182.014 -32.387 185.811 -39.1972C195.805 -57.122 195.326 -56.0197 195.072 -60.5199C194.812 -65.118 193.04 -68.2498 189.301 -70.7234L186.899 -72.3123L168.7 -72.4459C153.379 -72.5582 150.181 -72.4396 148.483 -71.6944ZM227.159 -71.6575C222.327 -69.0814 219.706 -64.8076 219.732 -59.5431C219.749 -56.0623 219.913 -55.6949 227.707 -41.6898C232.083 -33.8257 236.474 -26.5173 237.464 -25.449C242.587 -19.9196 252.027 -19.9761 256.596 -25.5636C257.524 -26.6993 261.786 -33.9247 266.065 -41.6195L273.846 -55.6108V-59.9722C273.846 -63.7692 273.641 -64.644 272.256 -66.734C271.382 -68.0546 269.586 -69.8497 268.265 -70.7234L265.863 -72.3123L247.376 -72.4454C231.36 -72.5611 228.657 -72.4557 227.159 -71.6575ZM305.75 -71.4519C302.849 -69.9027 299.772 -66.1391 298.918 -63.0954C297.644 -58.5474 298.404 -56.4551 306.794 -41.4134C311.095 -33.7013 315.105 -26.7005 315.704 -25.8567C316.304 -25.013 318.141 -23.6521 319.786 -22.8332C325.17 -20.1523 331.953 -21.246 335.412 -25.3528C336.16 -26.2409 340.371 -33.4127 344.77 -41.2895C352.201 -54.5937 352.783 -55.8561 352.975 -59.0663C353.245 -63.5993 351.112 -68.0298 347.431 -70.5811L344.933 -72.3123L326.393 -72.4431C308.978 -72.5663 307.726 -72.5058 305.75 -71.4519ZM384.8 -71.4847C378.981 -68.3425 375.995 -61.5588 377.957 -55.9368C378.576 -54.1612 392.054 -29.7436 394.293 -26.3411C394.881 -25.4473 396.682 -23.9597 398.295 -23.0353C403.307 -20.1627 410.389 -21.0219 414.058 -24.9485C414.721 -25.6581 418.966 -32.8478 423.492 -40.925C431.124 -54.5459 431.736 -55.8613 431.942 -59.0663C432.132 -62.0132 431.92 -62.986 430.504 -65.6795C429.459 -67.6658 427.926 -69.4817 426.37 -70.5748L423.897 -72.3123L405.357 -72.4431C388.124 -72.5646 386.675 -72.4972 384.8 -71.4847ZM465.034 -71.9961C458.955 -69.5589 455.415 -61.9407 457.525 -55.8406C458.347 -53.4684 473.285 -26.6774 474.628 -25.1691C475.152 -24.5805 476.804 -23.4788 478.299 -22.7215C483.22 -20.2283 490.17 -21.2414 493.579 -24.9485C495.158 -26.6665 510.143 -53.5058 511.041 -56.2264C512.773 -61.4696 510.127 -67.9866 505.094 -70.8702L502.094 -72.5893L484.226 -72.5582C474.399 -72.5415 465.762 -72.2881 465.034 -71.9961ZM543.387 -71.3569C538.817 -69.0964 536.008 -63.7836 536.559 -58.442C536.823 -55.8913 538.176 -53.0606 544.826 -41.1438C549.199 -33.3074 553.375 -26.185 554.106 -25.3165C558.025 -20.6643 566.526 -20.002 571.836 -23.9355C574.717 -26.0693 590.557 -54.5373 590.987 -58.3533C591.574 -63.5503 588.514 -68.9703 583.57 -71.4899C581.559 -72.515 580.034 -72.6003 563.646 -72.5997C546.629 -72.5991 545.796 -72.5484 543.387 -71.3569ZM438.63 -56.4545C437.328 -55.8106 435.734 -54.7095 435.089 -54.0075C433.479 -52.2561 409.944 -10.0784 409.031 -7.30597C408.119 -4.54215 408.574 -0.847099 410.226 2.4143C414.205 10.2715 433.583 44.2885 434.861 45.6592C439.984 51.1545 449.397 51.1315 454.038 45.6119C454.791 44.7164 460.981 34.0147 467.794 21.8301L480.18 -0.323011L480.186 -4.06645L480.192 -7.80989L467.853 -29.902C461.067 -42.0526 454.9 -52.7232 454.15 -53.6135C450.865 -57.5153 443.5 -58.863 438.63 -56.4545ZM518.171 -56.4545C516.869 -55.8106 515.266 -54.7095 514.609 -54.0075C513.953 -53.3054 507.81 -42.7046 500.959 -30.4497C487.619 -6.5878 486.986 -5.05473 488.535 -0.366212C488.922 0.805774 494.533 11.2725 501.002 22.8933C513.902 46.0629 515.444 48.1517 520.612 49.4521C525.057 50.57 530.427 49.0887 533.306 45.95C535.407 43.6596 558.798 1.32872 559.498 -1.45007C559.995 -3.42257 559.992 -4.72069 559.487 -6.7243C558.78 -9.53361 535.43 -51.8172 533.369 -54.0218C530.026 -57.5989 522.817 -58.753 518.171 -56.4545ZM43.8073 -55.8786C42.5053 -55.2347 40.9098 -54.1336 40.262 -53.4315C39.6141 -52.7295 33.5638 -42.3072 26.8173 -30.2706C15.1455 -9.44722 14.538 -8.2136 14.304 -4.83414C13.9916 -0.326454 13.9651 -0.384058 27.6703 24.1534C39.1588 44.7221 41.1433 47.4295 45.7422 48.8065C48.6051 49.6635 49.8743 49.6669 53.2075 48.8284C57.942 47.6374 59.6146 45.3251 72.7285 21.8497L84.7928 0.252903V-4.06645V-8.38581L72.7481 -29.8951C66.1231 -41.7255 60.0867 -52.1369 59.3333 -53.0313C56.0422 -56.9389 48.6812 -58.2894 43.8073 -55.8786ZM122.81 -55.9679C121.529 -55.3868 119.842 -54.1526 119.062 -53.2259C118.281 -52.2987 112.197 -41.8309 105.541 -29.963L93.4385 -8.38581V-3.77849V0.828818L105.428 22.1377C112.24 34.2416 118.323 44.3749 119.512 45.5952C124.384 50.5953 133.194 50.4899 137.915 45.3741C138.601 44.6306 144.696 34.1743 151.46 22.1377L163.757 0.252903V-4.06645V-8.38581L151.469 -30.2706C144.711 -42.3072 138.637 -52.7364 137.973 -53.4459C134.695 -56.9469 127.575 -58.131 122.81 -55.9679ZM201.775 -55.9679C200.494 -55.3868 198.781 -54.1221 197.969 -53.158C195.321 -50.0135 172.538 -8.67722 172.066 -6.1622C171.82 -4.85085 171.87 -2.63876 172.177 -1.24562C172.673 1.00851 192.937 38.2028 196.781 43.9147C197.594 45.1224 199.445 46.8069 200.894 47.6581C205.741 50.506 213.148 49.4469 216.866 45.3741C218.135 43.985 239.225 6.56377 241.647 1.40473C243.127 -1.7484 243.376 -5.14801 242.344 -8.10649C241.407 -10.7926 218.369 -51.8771 216.921 -53.4459C213.693 -56.9406 206.542 -58.1316 201.775 -55.9679ZM280.763 -55.9586C279.495 -55.3724 277.777 -54.1468 276.947 -53.2357C274.997 -51.0985 252.268 -10.4136 251.181 -7.11649C249.721 -2.68426 250.51 -0.77396 263.163 21.8883C269.607 33.4285 275.377 43.5824 275.985 44.452C280.325 50.6541 291.651 50.8193 296.234 44.7475C297.014 43.7154 303.038 33.2044 309.623 21.3907C323.231 -3.02405 323.395 -3.47671 320.687 -9.34009C318.711 -13.618 297.954 -50.5963 296.282 -52.8165C293.278 -56.8035 285.843 -58.309 280.763 -55.9586ZM359.439 -55.9252C358.33 -55.3338 356.733 -54.1146 355.892 -53.215C355.05 -52.3154 348.996 -41.9904 342.437 -30.2706C329.462 -7.08309 328.623 -5.06164 330.107 -0.559138C330.896 1.83494 352.526 41.0449 354.937 44.452C357.52 48.1016 363.83 50.2175 368.434 48.9787C373.785 47.5395 374.335 46.7897 387.97 22.379L400.651 -0.323011V-4.0964V-7.86921L389.74 -27.4209C374.336 -55.0228 375.411 -53.3371 371.944 -55.3234C369.446 -56.7551 368.328 -57.0362 365.203 -57.0195C362.683 -57.0062 360.796 -56.648 359.439 -55.9252ZM5.65479 13.9372C1.78034 15.1771 -0.442764 18.146 -8.75882 33.182C-13.3382 41.4625 -16.9267 48.6263 -17.1244 49.8835C-17.7608 53.9264 -16.1613 58.1997 -12.8073 61.4191C-9.32022 64.7663 -7.58819 65.0433 9.83069 65.0433C28.2865 65.0433 30.0208 64.7358 33.6342 60.819C36.4884 57.7246 37.4412 54.9504 37.1293 50.6437C36.9115 47.6351 36.1368 45.9615 29.2242 33.5713C25.0092 26.0159 20.9042 18.9638 20.1018 17.9001C17.2274 14.0887 10.7419 12.3097 5.65479 13.9372ZM84.6193 13.9372C80.7414 15.1783 78.4871 18.1575 70.3567 32.7869C66.0453 40.5445 62.2441 48.0745 61.9104 49.5212C60.5726 55.3098 64.5283 62.0969 70.4062 64.0982C72.7089 64.882 75.8242 65.0433 88.6747 65.0433C98.1718 65.0433 105.157 64.7945 106.724 64.4C108.216 64.0245 110.343 62.822 111.834 61.51C115.111 58.6282 116.432 55.3075 116.103 50.7727C115.882 47.7232 115.134 46.1038 108.172 33.6197C103.944 26.0378 99.879 19.0185 99.1389 18.0216C96.2582 14.1411 89.7249 12.3033 84.6193 13.9372ZM163.135 14.1353C161.842 14.5943 159.976 15.8049 158.988 16.826C156.831 19.0548 141.973 45.4132 140.95 48.8226C139.443 53.8492 142.225 60.2332 147.193 63.1514L149.924 64.7553L166.458 64.9316C176.807 65.0416 183.836 64.8809 185.247 64.5008C188.395 63.6536 191.08 61.711 193.131 58.794C194.712 56.5468 194.882 55.8776 194.882 51.8917V47.4779L187.134 33.6559C182.873 26.0539 178.767 19.0041 178.009 17.9905C174.968 13.9205 168.483 12.2394 163.135 14.1353ZM242.217 14.057C240.989 14.4947 239.109 15.7001 238.039 16.7356C236.967 17.7739 232.411 25.2182 227.881 33.3363L219.667 48.0538L219.666 51.8422C219.666 55.0546 219.932 56.0602 221.411 58.4502C222.492 60.1975 224.228 61.9322 225.977 63.0126L228.798 64.7553H246.711C263.949 64.7553 264.711 64.7087 266.93 63.5154C269.892 61.9224 271.471 60.2045 272.933 56.9805C274.257 54.0646 274.459 50.593 273.469 47.7584C272.747 45.6879 258.799 20.5625 256.867 17.8511C254.135 14.0173 247.299 12.2469 242.217 14.057ZM321.151 14.0679C317.344 15.4231 314.949 18.6424 306.664 33.5431C299.818 45.8544 298.685 48.2536 298.465 50.9103C297.963 56.95 302.24 62.8796 308.267 64.5013C309.677 64.8803 316.714 65.0416 327.055 64.9316C342.7 64.7645 343.713 64.6885 345.894 63.5154C348.857 61.9224 350.435 60.2045 351.898 56.9805C353.462 53.5336 353.409 49.8921 351.742 46.3261C347.94 38.1878 336.706 19.0813 334.418 16.8617C330.79 13.3406 326.017 12.3356 321.151 14.0679ZM400.728 13.8048C396.867 14.96 394.879 17.1036 390.448 24.8876C380.459 42.4375 377.742 47.7601 377.45 50.3586C376.851 55.668 379.644 60.9226 384.424 63.4762C386.749 64.719 387.326 64.7553 404.73 64.7553H422.644L425.465 63.0126C427.214 61.9322 428.95 60.1975 430.031 58.4502C431.514 56.0538 431.775 55.0581 431.775 51.8099V47.9881L423.802 33.6231C415.267 18.2468 412.767 14.9796 408.664 13.8416C406.051 13.1165 403.073 13.1027 400.728 13.8048ZM480.344 13.7846C477.873 14.5281 474.933 16.538 473.798 18.2606C471.984 21.0129 458.281 45.6718 457.47 47.642C456.957 48.8889 456.801 50.7347 457.011 53.0579C457.516 58.6218 461.268 63.0201 466.771 64.5008C468.183 64.8809 475.225 65.0416 485.607 64.9316L502.188 64.7553L505.008 63.0126C506.754 61.9328 508.491 60.1958 509.572 58.4502C511.051 56.0602 511.316 55.0546 511.316 51.8422L511.316 48.0538L503.029 33.2062C494.256 17.4866 492.49 15.2071 488.055 13.8796C485.525 13.1223 482.662 13.0872 480.344 13.7846ZM559.299 14.0328C554.855 15.6177 553.707 17.114 545.074 32.5773C537.641 45.8913 536.73 47.824 536.508 50.7284C536.077 56.3643 538.528 60.8143 543.539 63.4935C545.822 64.7144 546.482 64.7553 563.767 64.7553H581.635L584.385 63.1399C589.257 60.2787 591.862 54.6198 590.675 49.4792C589.725 45.3689 575.44 19.8858 572.433 16.9389C568.86 13.4362 563.992 12.3592 559.299 14.0328ZM-9.96173 71.1681C-15.1694 73.7609 -18.0219 79.4089 -16.9734 85.0505C-16.5654 87.2465 -5.95933 107.132 -1.02203 114.958C1.09214 118.31 4.51874 120.639 8.20529 121.227C11.3057 121.722 16.2014 120.3 18.6413 118.194C19.7906 117.202 23.6414 110.972 28.7118 101.902C36.8221 87.3922 36.923 87.1676 37.1195 83.1846C37.3028 79.4613 37.172 78.913 35.4065 76.0104C33.9362 73.5939 32.7805 72.4968 30.403 71.2591L27.3112 69.6506H10.1984H-6.91382L-9.96173 71.1681ZM69.163 71.034C62.4118 74.175 59.8481 82.0362 63.3225 88.9437C65.8666 94.0014 78.3557 116.079 79.2382 117.079C80.7621 118.806 84.61 120.818 87.1698 121.227C90.567 121.77 95.3538 120.247 97.8029 117.844C98.8894 116.778 103.39 109.45 107.804 101.56C114.953 88.7825 115.858 86.8612 116.082 83.9655C116.403 79.85 115.471 77.0286 112.822 74.0926C108.937 69.7871 108.345 69.6771 89.1156 69.669C72.4046 69.6621 72.0616 69.6852 69.163 71.034ZM149.348 70.3457C143.229 72.4824 139.332 79.626 140.971 85.7031C141.719 88.4795 156.524 115.267 158.468 117.363C163.17 122.432 172.066 122.557 176.816 117.62C178.63 115.735 189.059 97.8917 193.65 88.8188C195.485 85.1916 195.655 80.8481 194.095 77.4254C192.745 74.4629 188.946 71.0489 186.133 70.268C183.222 69.4605 151.692 69.5268 149.348 70.3457ZM228.162 70.4194C222.773 72.3718 218.978 78.2795 219.551 83.8227C219.82 86.4281 221.119 89.1534 227.788 101.1C232.142 108.9 236.344 116.041 237.124 116.968C240.05 120.442 245.223 122.035 249.921 120.908C254.915 119.711 256.929 117.212 265.821 101.176C274.361 85.7768 274.953 84.0686 273.565 78.8612C272.701 75.6217 268.302 71.1572 265.099 70.2686C261.964 69.3989 230.625 69.5268 228.162 70.4194ZM307.254 70.2634C304.433 71.0829 300.939 74.4866 299.509 77.8096C297.161 83.2629 297.676 84.9313 306.739 101.237C311.081 109.047 315.311 116.172 316.142 117.073C320.824 122.148 328.804 122.693 333.954 118.288C337.132 115.57 352.542 88.0096 352.961 84.2944C353.62 78.4569 349.485 71.9531 344.098 70.3544C341.3 69.5245 310.063 69.4473 307.254 70.2634ZM385.665 70.5087C382.679 71.5546 378.678 75.9189 377.834 79.0495C376.494 84.0202 377.135 85.8384 385.628 101.154C389.984 109.009 394.238 116.172 395.082 117.073C400.244 122.578 409.621 122.545 414.287 117.005C415.05 116.098 419.293 108.895 423.714 100.998L431.752 86.6401L431.742 82.8966C431.727 76.8536 428.252 71.9145 422.886 70.3077C419.502 69.2953 388.655 69.4611 385.665 70.5087ZM465.278 70.4966C460.495 72.2002 456.879 77.407 456.866 82.6087C456.858 86.1367 457.558 87.6756 466.297 103.342C473.949 117.058 476.208 119.745 481.061 120.908C485.545 121.983 490.615 120.542 493.539 117.363C495.192 115.565 510.072 88.9564 511.008 86.1252C512.312 82.1762 510.692 76.2754 507.482 73.2858C506.737 72.593 504.962 71.497 503.535 70.8508C501.113 69.7537 499.834 69.6765 484.226 69.6886C471.495 69.6984 466.979 69.8908 465.278 70.4966ZM544.813 70.4983C543.582 70.9372 541.573 72.2722 540.351 73.4649C537.389 76.3542 536.177 79.6393 536.505 83.8849C536.736 86.8808 537.555 88.635 544.652 101.326C553.403 116.974 555.558 119.652 560.382 120.866C564.828 121.984 570.208 120.499 573.07 117.363C574.945 115.31 589.904 88.2428 590.608 85.6311C591.677 81.6642 590.067 76.1216 587.022 73.2858C586.278 72.593 584.502 71.497 583.076 70.8508C580.654 69.7537 579.375 69.6765 563.767 69.6886C551.018 69.6984 546.521 69.8902 544.813 70.4983ZM440.048 85.4255C437.748 86.2461 435.155 88.1012 433.997 89.7523C432.052 92.5271 409.618 133.171 409.002 135.036C407.412 139.849 407.97 141.229 420.797 164.243C427.374 176.043 433.412 186.568 434.215 187.631C438.63 193.479 448.806 193.785 453.7 188.216C456.213 185.356 479.131 144.078 479.9 141.027C480.338 139.291 480.37 137.67 480 136.023C479.698 134.683 474.087 123.931 467.531 112.129C458.512 95.8956 455.005 90.1025 453.126 88.335C449.401 84.8306 444.666 83.7772 440.048 85.4255ZM520.114 85.198C517.192 86.0768 514.595 88.0966 512.872 90.8316C511.929 92.3272 506.019 102.751 499.738 113.996C489.349 132.597 488.297 134.732 488.082 137.67C487.776 141.865 487.782 141.879 501.521 166.538C509.474 180.813 513.497 187.46 515.059 188.905C520.12 193.586 528.469 193.401 533.034 188.506C535.549 185.81 558.849 143.663 559.35 140.906C560.196 136.239 559.335 134.227 547.009 112.064C534.348 89.302 532.478 86.6856 527.888 85.3114C525.3 84.5368 522.449 84.4954 520.114 85.198ZM43.6984 86.6896C42.0534 87.5086 40.1807 88.9178 39.5375 89.8203C38.8942 90.7233 33.0094 101.003 26.4599 112.663L14.5524 133.865L14.3103 137.956C14.1265 141.068 14.308 142.514 15.0694 144.003C19.1347 151.948 38.8452 186.59 40.0228 187.859C44.9024 193.115 53.9793 193.01 58.9091 187.639C59.8896 186.571 66.1018 175.994 72.7135 164.133C83.663 144.493 84.7559 142.283 84.9685 139.351C85.1178 137.286 84.8873 135.38 84.3253 134.037C82.463 129.583 60.6417 91.1443 58.9322 89.3054C54.9759 85.05 49.0386 84.0306 43.6984 86.6896ZM122.737 86.6528C121.132 87.4515 119.416 88.5533 118.922 89.1004C117.268 90.9329 94.1515 132.679 93.3359 135.305C92.3964 138.331 92.7618 141.457 94.4472 144.807C98.1654 152.199 117.721 186.532 118.968 187.859C123.782 192.978 132.891 193.013 137.638 187.93C138.489 187.019 144.71 176.425 151.463 164.389L163.741 142.504L163.749 138.472L163.757 134.441L151.443 112.42C142.624 96.6472 138.505 89.8353 136.93 88.4133C133.06 84.9198 127.582 84.2402 122.737 86.6528ZM201.731 86.5836C200.109 87.3387 198.133 88.8262 197.341 89.8894C194.102 94.2398 172.156 134.516 171.799 136.769C171.595 138.049 171.723 140.187 172.083 141.521C172.888 144.509 195.811 185.638 197.948 187.93C202.663 192.984 211.916 192.984 216.586 187.93C218.27 186.107 241.277 145.284 242.344 142.224C243.231 139.684 243.184 137.084 242.204 134.37C241.761 133.142 236.187 122.808 229.818 111.404C221.393 96.3206 217.62 90.1111 215.969 88.616C211.978 84.9993 206.743 84.2523 201.731 86.5836ZM281.633 85.9582C277.743 87.1958 275.429 90.5465 263.044 112.882C250.302 135.859 249.628 137.501 251.092 142C252.129 145.185 274.633 185.281 276.713 187.648C281.398 192.979 290.797 193.119 295.53 187.93C297.508 185.762 320.217 145.084 321.322 141.732C322.819 137.189 322 135.206 309.044 111.98C296.489 89.4747 294.88 87.2235 290.394 85.8804C287.658 85.0615 284.36 85.0903 281.633 85.9582ZM360.707 85.9265C356.662 87.2212 354.73 89.9573 343.015 110.983C329.217 135.749 329.23 135.721 329.647 139.757C329.924 142.443 331.579 145.754 341.895 164.28C348.455 176.059 354.748 186.667 355.878 187.852C360.085 192.261 367.412 193.072 372.267 189.665C375.155 187.639 375.547 187.008 389.748 161.526C400.627 142.004 400.651 141.954 400.602 138.489C400.568 136.067 400.151 134.233 399.222 132.425C395.452 125.09 375.844 90.4832 374.786 89.2997C371.781 85.9352 365.432 84.4142 360.707 85.9265ZM7.37529 156.108C4.37234 156.662 1.34056 158.449 -0.147081 160.542C-0.749978 161.39 -4.76276 168.395 -9.0643 176.107C-14.1676 185.257 -17.0121 190.974 -17.2501 192.562C-17.9625 197.31 -15.6771 202.155 -11.2621 205.257L-8.77265 207.006L9.22548 207.173L27.2236 207.34L30.3505 205.708C35.4163 203.064 38.1005 197.367 37.0123 191.571C36.5604 189.162 21.6143 162.157 19.469 159.872C16.4228 156.628 12.0077 155.254 7.37529 156.108ZM85.4919 156.289C80.5794 157.594 79.2808 159.202 70.5809 174.755C66.1508 182.674 62.2372 190.229 61.8833 191.544C60.4469 196.886 63.8966 203.802 69.1981 206.208C71.3031 207.163 73.2599 207.269 88.8274 207.269C108.381 207.269 108.928 207.168 112.822 202.852C115.447 199.943 116.409 197.082 116.083 193.151C115.863 190.506 114.721 188.091 107.877 175.794C103.504 167.937 99.2444 160.772 98.4115 159.872C95.2218 156.426 90.2113 155.037 85.4919 156.289ZM165.036 156.092C162.187 156.76 160.019 157.912 158.468 159.583C157.778 160.325 153.551 167.481 149.074 175.483C142.72 186.839 140.861 190.646 140.602 192.829C140.149 196.656 141.588 200.762 144.315 203.417C148.203 207.201 148.777 207.296 167.918 207.282C187.328 207.267 187.898 207.161 191.786 202.852C194.401 199.954 195.374 197.083 195.052 193.209C194.839 190.647 193.643 188.109 187.061 176.254C182.803 168.586 178.483 161.321 177.46 160.107C174.649 156.774 169.383 155.072 165.036 156.092ZM243.499 156.262C237.929 157.759 237.596 158.177 227.434 176.429C219.199 191.22 218.583 192.988 219.926 197.972C220.747 201.019 224.079 204.818 227.159 206.22C229.226 207.16 231.257 207.269 246.756 207.269C262.324 207.269 264.281 207.163 266.386 206.208C269.411 204.835 272.653 201.02 273.567 197.759C274.894 193.026 274.176 191.031 265.659 175.768C261.307 167.97 257.149 160.879 256.417 160.01C253.648 156.723 247.944 155.068 243.499 156.262ZM323.127 156.003C320.404 156.549 317.961 157.904 316.142 159.874C315.311 160.773 311.051 167.952 306.674 175.826C299.86 188.083 298.679 190.581 298.463 193.183C298.139 197.082 299.107 199.949 301.727 202.852C305.614 207.161 306.185 207.267 325.595 207.282C344.279 207.295 345.293 207.149 348.705 203.952C350.755 202.031 353.087 197.225 353.09 194.912C353.092 193.962 352.826 192.225 352.5 191.053C351.797 188.523 336.819 161.504 335.088 159.642C332.538 156.901 327.018 155.221 323.127 156.003ZM402.092 156.003C399.381 156.547 396.937 157.897 395.082 159.874C394.238 160.773 389.958 167.982 385.571 175.893L377.595 190.276V194.367C377.595 199.831 379.614 203.315 384.155 205.685L387.237 207.294H404.481C418.768 207.294 422.093 207.141 423.869 206.4C429.228 204.163 432.725 197.939 431.777 192.327C431.402 190.113 417.28 163.979 414.456 160.272C412.042 157.105 406.365 155.145 402.092 156.003ZM481.632 156.003C478.922 156.547 476.478 157.896 474.621 159.874C473.248 161.336 462.272 180.417 458.369 188.126C454.986 194.807 457.288 202.356 463.73 205.708L466.866 207.34L484.811 207.173L502.757 207.006L505.159 205.417C509.529 202.526 511.942 197.394 511.245 192.471C511.014 190.842 508.312 185.379 503.125 176.057C498.848 168.373 494.735 161.269 493.983 160.272C491.597 157.11 485.91 155.144 481.632 156.003ZM560.724 156.075C555.475 157.106 554.267 158.574 544.643 175.619L536.677 189.729V194.431C536.677 198.719 536.829 199.352 538.41 201.629C539.549 203.272 541.226 204.677 543.309 205.736L546.476 207.345L564.387 207.176L582.298 207.006L584.7 205.417C589.262 202.399 591.639 196.801 590.507 191.742C589.812 188.636 574.967 161.846 572.669 159.55C569.613 156.496 565.168 155.203 560.724 156.075ZM-31.8793 209.934C-31.8516 210.605 -31.715 210.741 -31.5311 210.282C-31.3646 209.866 -31.3853 209.369 -31.5767 209.178C-31.768 208.987 -31.9041 209.327 -31.8793 209.934ZM-8.00491 212.731C-13.7192 214.3 -18.1435 221.214 -17.2126 227.12C-16.77 229.928 -2.09987 256.746 0.571093 259.629C5.37236 264.812 13.836 265.123 18.7952 260.3C20.0384 259.09 24.1527 252.413 28.9211 243.865L36.953 229.467V225.053C36.953 221.069 36.7829 220.397 35.206 218.156C34.2451 216.79 32.1915 214.889 30.6416 213.931L27.8242 212.189L11.3506 212.064C-1.16151 211.969 -5.81581 212.13 -8.00491 212.731ZM71.1924 212.693C64.9727 214.368 60.7437 220.742 61.6861 227.02C62.1311 229.989 76.6928 256.625 79.5119 259.629C83.4359 263.81 89.2689 264.858 94.6587 262.35C96.2806 261.595 98.2478 260.108 99.03 259.045C99.8121 257.981 103.917 250.891 108.152 243.289C115.019 230.964 115.879 229.114 116.095 226.206C116.581 219.646 112.254 213.907 105.773 212.519C101.686 211.643 74.5839 211.779 71.1924 212.693ZM150.177 212.688C146.593 213.653 144.176 215.498 142.292 218.706C141.004 220.899 140.707 222.105 140.704 225.149C140.702 228.742 140.886 229.231 145.268 237.243C156.095 257.042 157.895 259.869 160.825 261.685C164.829 264.166 169.314 264.393 173.539 262.327C175.276 261.478 177.23 260.037 177.88 259.125C179.781 256.458 193.809 231.181 194.521 229.141C195.592 226.07 195.293 222.742 193.651 219.449C191.823 215.783 188.723 213.373 184.738 212.519C180.668 211.647 153.549 211.779 150.177 212.688ZM229.074 212.685C225.263 213.739 222.598 215.992 220.786 219.693C219.456 222.408 219.268 223.388 219.526 226.234C219.794 229.19 220.692 231.128 227.19 242.771C231.24 250.024 235.282 257.035 236.175 258.349C238.308 261.49 242.718 263.734 246.756 263.734C250.261 263.734 255.123 261.542 256.772 259.221C259.368 255.563 273.582 229.352 273.906 227.622C274.91 222.277 271.867 216.167 266.947 213.653C264.101 212.199 263.979 212.189 247.926 212.064C236.138 211.973 231.041 212.14 229.074 212.685ZM308.038 212.685C301.919 214.376 297.99 219.919 298.45 226.206C298.664 229.116 299.519 230.957 306.383 243.289C310.615 250.891 314.721 257.981 315.508 259.045C316.296 260.108 318.268 261.595 319.89 262.35C325.282 264.859 331.144 263.804 335.013 259.629C336.004 258.56 340.345 251.337 344.661 243.577C350.36 233.332 352.61 228.736 352.874 226.799C353.595 221.5 350.406 215.856 345.241 213.295C343.224 212.295 341.475 212.177 326.874 212.064C315.099 211.973 310.006 212.14 308.038 212.685ZM387.682 212.421C381.077 213.818 376.98 219.24 377.412 226.017C377.619 229.265 378.195 230.525 385.321 243.315C389.548 250.903 393.659 257.981 394.455 259.045C395.252 260.108 397.232 261.595 398.854 262.35C404.269 264.87 410.278 263.784 413.931 259.628C416.736 256.436 431.376 229.791 431.808 227.092C432.383 223.493 430.851 218.966 428.198 216.425C423.776 212.191 423.825 212.2 405.838 212.092C396.962 212.039 388.792 212.187 387.682 212.421ZM467.223 212.421C460.597 213.822 456.521 219.238 456.956 226.064C457.167 229.374 457.718 230.581 465.126 243.938C470.485 253.6 473.793 258.932 475.291 260.318C480.348 265 488.685 264.814 493.271 259.919C495.389 257.658 510.205 231.08 511.008 228.101C512.505 222.545 509.404 216.386 503.535 213.263C501.719 212.297 499.906 212.18 485.379 212.092C476.503 212.039 468.332 212.187 467.223 212.421ZM546.764 212.421C542.466 213.33 538.906 216.209 537.284 220.09C535.983 223.203 536.132 228.142 537.617 231.074C541.315 238.376 552.864 258.49 554.14 259.848C558.946 264.967 568.089 265.001 572.793 259.919C575.094 257.434 589.923 230.626 590.534 227.849C591.799 222.091 588.86 216.341 583.076 213.263C581.26 212.297 579.446 212.18 564.92 212.092C556.044 212.039 547.873 212.187 546.764 212.421ZM441.862 227.445C439.177 227.946 436.721 229.294 434.861 231.287C433.536 232.708 413.616 267.697 409.717 275.454C408.559 277.757 408.347 278.9 408.532 281.815C408.749 285.211 409.307 286.349 421.09 307.437C427.873 319.574 434.136 330.218 435.008 331.089C437.419 333.499 440.586 334.764 444.168 334.75C447.941 334.735 450.778 333.637 453.138 331.278C454.091 330.327 460.432 319.6 467.23 307.439C479.372 285.721 479.595 285.264 479.807 281.537C479.982 278.466 479.778 277.26 478.735 275.202C475.902 269.61 455.481 233.38 454.208 231.685C451.839 228.534 446.273 226.623 441.862 227.445ZM521.403 227.429C518.711 227.952 516.262 229.298 514.383 231.287C513.532 232.186 507.325 242.771 500.586 254.807C489.351 274.877 488.315 276.964 488.087 279.973C487.95 281.777 488.135 284.102 488.496 285.138C488.857 286.175 494.659 296.858 501.387 308.879C514.743 332.739 515.175 333.306 520.856 334.523C522.902 334.962 524.564 334.953 526.734 334.492C531.895 333.396 533.499 331.22 547.048 306.927C558.093 287.125 559.114 285.058 559.336 282.05C559.469 280.245 559.282 277.921 558.921 276.884C558.56 275.848 552.765 265.181 546.045 253.181C535.353 234.086 533.53 231.158 531.45 229.727C528.317 227.574 524.798 226.769 521.403 227.429ZM46.0546 228.093C41.2562 229.217 39.4522 231.686 26.6115 254.712C20.1041 266.38 14.4988 276.969 14.1553 278.245C13.8112 279.521 13.7017 281.637 13.9109 282.948C14.3985 285.995 37.8147 328.195 40.5162 330.895C43.2805 333.656 47.9596 334.936 51.9954 334.033C57.9345 332.705 58.2203 332.328 72.0063 307.637C86.315 282.01 86.4804 281.562 83.8031 275.753C81.8129 271.436 61.0683 234.473 59.3944 232.261C56.788 228.818 50.864 226.967 46.0546 228.093ZM124.645 228.256C122.818 228.763 121.073 229.809 119.626 231.265C117.183 233.724 94.2916 274.099 93.1134 278.027C91.7877 282.449 92.5203 284.22 104.692 306.032C111.018 317.366 116.741 327.526 117.411 328.609C119.031 331.229 122.103 333.238 125.726 334.048C129.662 334.928 134.19 333.682 136.997 330.944C138.164 329.806 144.04 319.96 151.355 306.887L163.738 284.755L163.747 280.976L163.757 277.196L151.74 255.635C145.13 243.777 139.106 233.259 138.354 232.261C135.627 228.646 129.592 226.883 124.645 228.256ZM203.761 228.243C200.972 228.994 198.659 230.527 196.971 232.744C196.414 233.476 190.595 243.683 184.039 255.427C171.466 277.953 170.776 279.602 172.036 284.161C173.039 287.79 195.76 328.186 198.174 330.631C201.202 333.699 205.708 334.976 210.068 334.001C215.488 332.789 216.763 331.086 230.002 307.36C236.498 295.72 242.099 285.13 242.451 283.827C242.802 282.524 242.918 280.385 242.708 279.074C242.194 275.859 218.8 233.823 216.027 231.132C214.853 229.993 212.787 228.807 211.11 228.309C207.721 227.304 207.261 227.3 203.761 228.243ZM282.677 228.242C277.531 229.651 276.985 230.393 263.929 253.725C257.214 265.723 251.447 276.27 251.112 277.161C250.312 279.29 250.338 282.672 251.173 285.065C252.003 287.444 275.027 328.695 276.347 330.168C277.78 331.767 281.645 333.819 283.997 334.23C285.142 334.43 287.41 334.308 289.036 333.96C294.432 332.803 295.768 331.006 309.186 306.847C316.208 294.204 321.374 284.261 321.581 282.99C321.775 281.792 321.679 279.67 321.366 278.276C320.63 274.993 298.217 234.749 295.557 231.934C292.057 228.228 287.499 226.921 282.677 228.242ZM362.084 228.083C359.191 228.777 356.295 230.573 354.911 232.531C353.289 234.825 331.766 273.394 330.455 276.356C329.595 278.298 329.396 279.693 329.625 282.203C329.894 285.18 331.083 287.574 341.897 306.939C348.483 318.731 354.508 329.136 355.286 330.061C359.954 335.603 369.435 335.652 374.491 330.161C375.695 328.852 395.387 294.251 399.479 286.254C400.24 284.765 400.422 283.319 400.238 280.207L399.996 276.116L388.035 254.807C381.457 243.087 375.379 232.762 374.529 231.862C371.412 228.56 366.418 227.043 362.084 228.083ZM4.67552 299.383C3.40747 299.971 1.5544 301.325 0.557835 302.394C-0.438731 303.462 -4.84806 310.803 -9.24068 318.708L-17.227 333.079L-17.2247 336.849C-17.2201 343.075 -13.8915 347.516 -7.87177 349.326C-4.06188 350.472 23.8414 350.456 27.6651 349.305C33.8491 347.446 37.6562 341.987 37.0936 335.786C36.836 332.952 35.8463 330.82 29.4375 319.297C25.389 312.019 21.3439 304.988 20.4488 303.673C17.2113 298.92 9.93962 296.942 4.67552 299.383ZM82.9235 299.739C81.2613 300.58 79.4134 301.958 78.8162 302.802C77.2802 304.974 64.4234 327.942 62.8061 331.404C61.0031 335.262 61.0481 338.724 62.9496 342.537C64.6989 346.043 67.2281 348.164 71.0253 349.305C74.8991 350.471 102.756 350.471 106.63 349.305C110.488 348.145 112.999 346.004 114.791 342.344C117.295 337.23 116.804 334.745 111.309 324.699C100.495 304.932 98.7245 302.154 95.7786 300.328C91.8004 297.863 87.0631 297.645 82.9235 299.739ZM161.811 299.801C158.174 301.612 157.642 302.377 147.857 319.885C141.357 331.514 140.757 332.84 140.553 336.011C140.366 338.933 140.583 339.955 141.958 342.631C143.779 346.175 146.948 348.736 150.543 349.569C153.643 350.287 181.584 350.233 184.795 349.502C188.473 348.666 191.391 346.552 193.265 343.367C194.592 341.111 194.882 339.942 194.882 336.846V333.073L186.896 318.704C182.503 310.802 178.094 303.462 177.097 302.394C173.11 298.121 167.198 297.118 161.811 299.801ZM240.925 299.672C239.303 300.427 237.335 301.915 236.551 302.978C235.767 304.042 231.659 311.132 227.421 318.734C220.307 331.494 219.698 332.822 219.488 336.032C219.13 341.48 221.641 345.959 226.512 348.563C228.811 349.792 229.453 349.833 246.18 349.833C258.952 349.833 264.027 349.636 265.598 349.08C270.708 347.271 274.657 340.691 273.908 335.235C273.487 332.162 259.074 305.659 256.048 302.394C252.18 298.218 246.318 297.163 240.925 299.672ZM320.875 299.033C317.267 300.183 314.925 303.335 306.689 318.117C299.496 331.027 298.665 332.807 298.451 335.766C298.039 341.457 300.476 345.889 305.493 348.571C307.727 349.766 308.689 349.843 323.558 350.018C341.935 350.235 344.588 349.885 348.01 346.796C352.038 343.16 353.711 338.403 352.518 333.975C351.709 330.976 337.392 305.155 335.076 302.519C331.773 298.76 326.097 297.367 320.875 299.033ZM400.009 298.913C396.237 300.006 393.833 303.218 385.42 318.408C377.583 332.557 377.307 333.17 377.307 336.423C377.307 342.01 379.652 345.97 384.512 348.59C386.685 349.762 387.721 349.844 402.522 350.018C420.721 350.233 423.273 349.902 426.822 346.866C430.814 343.452 432.513 338.857 431.483 334.262C430.83 331.355 416.03 304.562 413.757 302.174C410.503 298.756 405.029 297.458 400.009 298.913ZM479.549 298.913C475.886 299.974 473.311 303.292 466.178 316.142C456.561 333.464 456.733 333.088 456.733 336.882C456.733 341.925 459.296 346.026 464.053 348.59C466.271 349.786 467.025 349.833 483.938 349.833C500.851 349.833 501.605 349.786 503.823 348.59C510.613 344.929 513.002 337.272 509.505 330.377C503.99 319.502 494.565 303.523 492.593 301.704C489.222 298.595 484.29 297.539 479.549 298.913ZM558.622 299.145C557.378 299.588 555.517 300.808 554.488 301.855C552.222 304.161 537.281 330.684 536.394 333.976C534.935 339.388 537.976 345.561 543.594 348.59C545.812 349.786 546.566 349.833 563.479 349.833C580.467 349.833 581.138 349.79 583.419 348.571C588.452 345.88 590.873 341.458 590.457 335.714C590.238 332.691 589.454 331.005 582.25 318.066C577.87 310.197 573.734 303.142 573.061 302.388C569.94 298.891 563.437 297.431 558.622 299.145ZM-31.8793 352.184C-31.8516 352.855 -31.715 352.992 -31.5311 352.533C-31.3646 352.117 -31.3853 351.62 -31.5767 351.429C-31.768 351.238 -31.9041 351.577 -31.8793 352.184ZM-9.73925 355.802C-14.5895 358.004 -17.9527 363.91 -17.3331 369.138C-17.0639 371.41 -15.3786 374.92 -9.38592 385.691C-0.472738 401.713 0.128431 402.588 3.63342 404.64C8.637 407.57 15.8412 406.385 19.5105 402.028C20.3001 401.09 24.5233 393.925 28.8957 386.105C37.444 370.816 38.0527 369.093 36.6936 364.05C35.8728 361.003 32.5408 357.205 29.46 355.803C27.3937 354.863 25.3625 354.754 9.86296 354.754C-5.63194 354.754 -7.6683 354.862 -9.73925 355.802ZM69.1981 355.814C66.1727 357.187 62.9305 361.002 62.0164 364.263C60.6769 369.044 61.4089 371.098 69.8938 386.367C74.2167 394.148 78.4301 401.25 79.256 402.15C84.2302 407.57 93.8362 407.536 98.4288 402.082C99.1925 401.175 103.378 394.053 107.73 386.254C116.247 370.991 116.965 368.997 115.638 364.263C114.724 361.002 111.482 357.187 108.457 355.814C106.352 354.86 104.395 354.754 88.8274 354.754C73.2599 354.754 71.3031 354.86 69.1981 355.814ZM148.195 355.803C145.322 357.11 141.933 360.801 140.994 363.644C140.602 364.83 140.396 367.182 140.537 368.872C140.756 371.516 141.898 373.932 148.742 386.229C153.115 394.085 157.375 401.25 158.208 402.15C160.601 404.736 163.91 406.167 167.504 406.17C171.095 406.172 175.177 404.596 177.101 402.464C178.743 400.645 193.693 373.869 194.6 371.124C195.982 366.938 194.108 360.971 190.44 357.881C186.797 354.812 186.185 354.727 167.666 354.741C152.305 354.752 150.258 354.864 148.195 355.803ZM227.159 355.798C220.338 358.961 217.548 366.625 220.735 373.446C223.33 379.001 235.651 400.53 237.161 402.15C242.275 407.635 252.198 407.43 256.527 401.751C259.639 397.666 273.513 371.835 273.869 369.461C274.582 364.713 272.296 359.868 267.881 356.765L265.392 355.016L247.428 354.872C230.959 354.741 229.273 354.818 227.159 355.798ZM305.181 356.337C302.803 357.574 301.648 358.672 300.177 361.088C298.407 363.999 298.282 364.528 298.478 368.262C298.687 372.233 298.81 372.506 306.625 386.404C310.989 394.164 315.255 401.25 316.106 402.15C321.287 407.635 331.209 407.43 335.47 401.751C336.218 400.753 340.426 393.472 344.82 385.569C352.7 371.4 352.81 371.151 352.762 367.715C352.704 363.532 351.18 360.213 348.184 357.745C344.784 354.945 343.12 354.728 324.999 354.728H308.273L305.181 356.337ZM384.811 355.924C381.406 357.467 380.35 358.485 378.626 361.881C377.42 364.259 377.225 365.325 377.414 368.504C377.632 372.143 377.96 372.863 385.642 386.586C391.782 397.552 394.231 401.395 396.174 403.103C399.328 405.878 403.065 406.834 407.25 405.937C412.668 404.776 413.709 403.531 422.663 387.501C427.162 379.448 431.102 371.703 431.42 370.291C432.694 364.628 429.702 358.601 424.392 356.131C421.44 354.758 421.175 354.74 404.397 354.747C388.541 354.753 387.219 354.833 384.811 355.924ZM465.206 355.423C459.306 357.484 455.742 363.771 456.916 370.048C457.53 373.333 472.239 399.965 474.915 402.64C477.332 405.055 480.149 406.151 483.938 406.151C487.702 406.151 490.548 405.054 492.889 402.702C493.831 401.756 498.232 394.527 502.67 386.638L510.74 372.294V367.592C510.74 363.304 510.588 362.671 509.007 360.393C507.872 358.757 506.196 357.349 504.148 356.312L501.023 354.728L483.979 354.774C473.696 354.801 466.249 355.059 465.206 355.423ZM544.56 355.384C541.572 356.244 537.777 360.421 536.702 364.033C535.21 369.049 535.757 370.626 544.302 385.965C548.583 393.65 552.579 400.632 553.182 401.48C555.742 405.086 561.433 406.987 566.45 405.912C571.353 404.861 573.314 402.45 582.31 386.404C590.096 372.517 590.225 372.23 590.433 368.262C590.63 364.528 590.505 363.999 588.734 361.088C587.264 358.672 586.108 357.574 583.731 356.337L580.639 354.728L563.557 354.78C554.162 354.809 545.613 355.08 544.56 355.384Z" fill="black"/>
</g>
</svg>
