<svg width="446" height="353" viewBox="0 0 446 353" fill="none" xmlns="http://www.w3.org/2000/svg">
<mask id="mask0_432_3148" style="mask-type:alpha" maskUnits="userSpaceOnUse" x="0" y="0" width="446" height="353">
<path fill-rule="evenodd" clip-rule="evenodd" d="M108.135 10.2296C110.468 16.3617 118.893 32.1567 123.742 39.486C129.48 48.1585 140.631 60.8425 141.652 59.8571C142 59.5223 140.682 56.869 138.725 53.9608C136.767 51.0527 135.327 48.1795 135.526 47.5749C136.263 45.3253 142.379 45.814 148.076 48.5772C156.203 52.5187 167.543 64.0754 168.999 69.9007C170.293 75.0694 169.961 75.9569 166.733 75.9569C162.866 75.9569 159.582 74.3249 144.788 65.0488C130.058 55.8147 122.235 51.4884 122.235 52.5797C122.235 52.9365 125.047 56.2204 128.483 59.8771C131.921 63.5348 138.691 72.0264 143.528 78.7491C148.366 85.4708 156.355 95.1857 161.282 100.336L170.24 109.703L158.216 105.854C151.603 103.737 141.454 101.091 135.662 99.9736C123.883 97.7021 123.231 97.6351 123.241 98.6924C123.245 99.1042 126.282 100.174 129.99 101.067C140.112 103.506 150.469 108.46 150.041 110.658C149.748 112.161 148.623 112.428 142.713 112.397C138.874 112.377 130.333 111.389 123.734 110.203C99.8064 105.902 54.9061 101.502 58.1685 103.777C58.9504 104.324 62.7747 105.057 66.6671 105.409C84.397 107.009 91.0999 109.844 103.738 121.088C113.406 129.69 121.596 135.162 128.875 137.885C138.676 141.55 138.009 139.421 127.734 134.237C122.354 131.523 115.236 125.292 115.236 123.297C115.236 122.623 116.422 121.14 117.87 120.002C123.125 115.87 133.712 118.022 141.423 124.79C145.675 128.522 147.49 132.474 147.052 137.049C146.756 140.147 146.133 140.712 139.247 144.121C135.13 146.157 128.606 148.682 124.749 149.73L117.735 151.636L136.732 151.522C155.088 151.413 156.01 151.504 164.071 154.23C168.66 155.782 172.615 156.85 172.862 156.603C173.109 156.356 171.011 154.503 168.202 152.485C165.391 150.468 163.263 148.303 163.472 147.675C163.682 147.048 165.098 145.607 166.619 144.474C169.131 142.603 170.74 142.421 184.283 142.479C192.477 142.514 199.04 142.401 198.867 142.228C198.693 142.054 192.944 140.376 186.092 138.498C173.546 135.061 163.27 130.884 161.184 128.37C156.909 123.222 169.762 123.985 183.224 129.679C193.362 133.966 200.885 135.919 207.269 135.919C210.983 135.919 211.219 136.096 211.219 138.889C211.219 141.615 210.788 141.983 205.97 143.36C200.144 145.027 187.057 147.347 177.473 148.412C174.036 148.795 170.992 149.479 170.711 149.935C170.429 150.39 172.672 151.275 175.694 151.903C185.979 154.036 183.902 156.346 167.63 160.873C161.527 162.57 154.163 164.24 151.267 164.583L145.998 165.206L146.712 159.057C147.537 151.955 146.663 151.318 142.501 155.987C138.535 160.437 127.164 167.72 120.489 170.087C115.725 171.776 113.275 172.026 106.237 171.539C101.563 171.216 96.6139 170.654 95.2392 170.289C89.9631 168.888 94.9912 172.01 101.851 174.394C106.555 176.029 112.125 177.002 119.251 177.431C130.629 178.117 136.301 177.028 158.702 169.855C164.04 168.145 168.665 167.003 168.977 167.317C169.956 168.294 166.345 171.539 162.198 173.408C156.438 176.005 157.331 176.925 164.086 175.35C176.833 172.378 187.224 167.632 200.471 158.733C205.283 155.501 209.22 153.411 209.22 154.088C209.22 154.766 206.4 158.07 202.955 161.431C196.502 167.724 193.582 169.331 155.931 187.322C145.014 192.539 143.365 193.718 133.789 203.164C122.068 214.726 116.135 223.243 113.156 232.785C109.883 243.275 107.33 263.655 106.26 287.853C104.805 320.773 101.763 332.467 90.9889 346.56C88.7723 349.46 87.1875 352.062 87.4675 352.342C88.3413 353.215 106.063 333.851 113.861 323.504C122.342 312.25 127.566 302.507 129.927 293.536C133.1 281.483 131.841 251.845 128.155 251.845C127.649 251.845 127.209 254.431 127.178 257.592C127.102 265.243 125.333 270.334 122.747 270.334C119.838 270.334 118.295 266.2 117.339 255.842C116.242 243.954 117.456 232.137 120.376 226.294C123.607 219.828 132.994 209.019 142.008 201.386C148.362 196.005 154.015 192.729 173.929 182.881C194.91 172.507 198.998 170.102 204.673 164.795L211.219 158.675V161.707C211.219 165.788 202.932 173.243 185.724 184.645C166.715 197.239 160.932 202.108 152.394 212.704C148.179 217.936 144.139 222.409 143.415 222.645C142.691 222.882 141.851 222.127 141.548 220.97C140.601 217.35 139.644 218.637 138.316 225.318C137.308 230.384 137.28 233.658 138.182 240.558C140.468 258.032 143.157 261.917 144.396 249.538C145.941 234.105 153.105 222.864 161.396 222.864C164.845 222.864 166.227 224.669 166.227 229.178C166.227 232.67 165.537 233.77 159.847 239.347C156.046 243.072 152.913 247.165 152.098 249.472C150.122 255.065 150.397 284.577 152.534 296.317C154.668 308.034 159.769 324.176 161.889 325.922C163.422 327.185 163.5 326.891 162.855 322.301C161.116 309.947 161.073 304.949 162.631 295.999C165.571 279.101 172.955 262.995 189.511 237.374C194.476 229.689 200.035 220.245 201.864 216.388C205.087 209.586 209.22 195.637 209.22 191.557C209.22 190.454 209.488 189.821 209.817 190.149C210.146 190.478 210.801 201.749 211.273 215.195C212.193 241.459 213.386 256.066 215.774 270.334C217.578 281.105 220.182 290.821 221.265 290.821C222.164 290.821 225.541 276.698 227.119 266.336C229.371 251.56 231.608 220.028 232.259 193.882C232.321 191.41 233.051 193.232 234.752 200.098C237.646 211.774 241.556 219.774 253.162 237.76C276.561 274.022 283.318 295.021 279.844 320.681C278.877 327.831 280.08 328.359 282.817 321.983C290.702 303.609 294.787 260.348 289.769 248.344C288.947 246.377 285.517 242.185 282.148 239.03C276.923 234.137 276.007 232.76 275.92 229.666C275.659 220.488 284.868 220.595 291.697 229.848C294.928 234.224 297.217 241.331 298.038 249.526C298.674 255.882 300.303 258.631 301.534 255.426C301.851 254.602 302.828 249.086 303.707 243.17C305.041 234.189 305.104 231.287 304.086 225.595C302.916 219.051 301.204 215.577 301.204 219.748C301.204 225.419 297.51 222.651 286.977 209.086C281.857 202.494 272.437 194.916 256.705 184.74C251.203 181.18 243.442 175.464 239.458 172.037C233.36 166.79 232.216 165.316 232.216 162.702V159.597L235.719 163.204C242.139 169.809 251.812 175.525 273.218 185.356C290.185 193.15 297.143 197.786 307.614 208.269C316.684 217.352 322.429 225.407 324.08 231.358C325.854 237.758 325.426 259.422 323.406 265.337C320.145 274.887 315.381 270.311 315.257 257.509C315.218 253.45 314.838 251.799 314.007 252.077C312.268 252.656 311.257 257.144 310.569 267.335C309.365 285.149 312.852 299.904 321.516 313.667C326.756 321.989 338.511 336.46 347.412 345.542C355.069 353.357 357.664 354.503 351.978 347.559C341.177 334.369 337.611 321.002 336.177 288.322C334.777 256.431 331.455 235.16 326.297 225.054C323.166 218.92 313.35 207.086 305.139 199.549C299.365 194.25 295.135 191.492 286.206 187.205C252.343 170.949 246.16 167.657 241.307 163.294C238.512 160.784 235.256 157.367 234.07 155.703L231.915 152.677L234.255 153.929C235.543 154.618 239.507 157.173 243.066 159.608C254.26 167.269 265.848 172.47 277.958 175.271C285.059 176.913 286.109 176.055 280.237 173.408C276.042 171.518 272.482 168.291 273.484 167.29C273.812 166.961 277.597 167.842 281.894 169.245C296.966 174.17 307.762 176.927 314.201 177.498C324.078 178.375 336.487 176.434 343.624 172.895C347.896 170.779 348.806 170.039 346.696 170.403C337.072 172.063 328.153 172.111 323.313 170.529C316.385 168.263 307.117 162.67 301.491 157.357C298.899 154.91 296.38 152.908 295.894 152.908C295.399 152.908 295.323 155.619 295.723 159.057L296.437 165.206L291.168 164.583C288.272 164.24 280.908 162.57 274.805 160.873C258.533 156.346 256.456 154.036 266.741 151.903C269.763 151.275 272.006 150.39 271.724 149.935C271.443 149.479 268.399 148.813 264.962 148.452C256.246 147.537 242.705 145.111 236.465 143.345C231.644 141.98 231.216 141.617 231.216 138.889C231.216 136.096 231.452 135.919 235.166 135.919C241.529 135.919 249.06 133.956 259.135 129.673C272.63 123.935 285.531 123.216 281.191 128.444C279.103 130.958 270.055 134.628 257.711 137.966C251.112 139.749 245.038 141.595 244.214 142.067C243.358 142.557 247.052 142.651 252.819 142.287C265.281 141.5 273.312 142.421 276.611 145.015C279.792 147.516 279.159 149.159 273.517 153.039C271.071 154.722 269.283 156.313 269.545 156.575C269.807 156.838 273.775 155.782 278.364 154.23C286.425 151.504 287.347 151.413 305.703 151.522L324.7 151.636L317.686 149.73C313.829 148.682 307.305 146.157 303.188 144.121C295.273 140.202 294.116 138.393 295.641 132.319C297.351 125.509 308.733 117.958 317.316 117.94C321.768 117.93 327.199 120.691 327.199 122.965C327.199 125.07 320.439 131.28 315.288 133.907C304.167 139.58 303.463 142.023 314.225 137.598C321.609 134.561 329.215 129.408 338.781 120.961C351.44 109.783 357.264 107.359 376.191 105.392C379.765 105.02 383.365 104.29 384.189 103.768C387.752 101.515 341.836 105.965 318.201 110.163C302.308 112.986 292.885 113.171 292.397 110.668C291.953 108.398 302.014 103.556 312.08 101.195C318.56 99.6748 321.523 97.9429 317.643 97.9429C313.709 97.9429 294.568 102.486 283.776 105.982L271.847 109.846L278.861 102.645C287.713 93.5567 292.985 87.1548 302.484 73.9581C306.64 68.1868 312.326 61.2332 315.12 58.5059C317.914 55.7777 320.2 53.1503 320.2 52.6677C320.2 51.4944 309.325 57.5306 295.952 66.1261C284.068 73.7643 279.572 75.9569 275.799 75.9569C272.401 75.9569 271.907 74.6967 273.379 69.7858C276.114 60.6616 294.033 45.9759 302.43 45.9759C305.702 45.9759 306.203 46.2817 306.203 48.2774C306.203 49.5436 304.799 52.4868 303.083 54.8193C301.367 57.1518 300.259 59.3554 300.621 59.7172C301.678 60.7745 312.93 48.1705 318.688 39.48C325.418 29.3215 336.166 8 334.557 8C334.26 8 329.897 11.9545 324.86 16.7874C313.842 27.3587 308.943 31.1233 286.206 46.4956C257.256 66.0691 248.613 73.3895 240.312 85.3669C236.382 91.0373 236.215 91.1552 236.215 88.2461C236.215 83.661 239.043 68.3117 241.274 60.7935C244.369 50.3591 250.77 38.5756 257.034 31.7779C262.001 26.3883 262.294 25.8607 259.377 27.5526C253.432 31.0014 240.825 41.6027 236.358 46.9093C229.302 55.292 224.582 63.9085 221.548 73.9441C221.301 74.7606 220.109 72.4861 218.897 68.8894C217.686 65.2926 215.126 59.7122 213.208 56.4882C208.737 48.974 194.593 34.5342 186.223 28.9387L179.725 24.5945L185.392 30.8675C196.495 43.1587 203.721 62.2666 205.657 84.4515C206.169 90.3158 206.062 91.1392 204.994 89.5413C195.042 74.6527 186.795 67.3234 157.6 47.423C134.201 31.4721 124.774 24.2947 116.206 15.909C113.165 12.9339 109.889 9.86981 108.925 9.1003C107.316 7.81612 107.252 7.90906 108.135 10.2296ZM166.862 86.0235C161.469 90.2628 164.687 98.6754 175.985 109.871C180.242 114.089 187.054 119.731 191.124 122.409C198.227 127.084 209.92 132.553 210.842 131.632C211.085 131.389 210.44 127.407 209.41 122.784C207.825 115.671 206.51 112.816 200.868 104.236C193.607 93.1949 188.859 88.7587 181.184 85.8436C174.711 83.3852 170.144 83.4421 166.862 86.0235ZM260.711 85.9815C253.293 88.8387 249.012 92.9171 241.551 104.239C235.51 113.406 234.666 115.315 233.175 123.197L231.518 131.96L233.616 131.37C247.519 127.46 270.501 109.227 276.101 97.6631C278.84 92.0097 278.759 89.4093 275.753 86.4052C272.722 83.3742 267.836 83.2372 260.711 85.9815Z" fill="white"/>
<path fill-rule="evenodd" clip-rule="evenodd" d="M0.0542583 0.76259C0.56417 1.25778 4.78044 3.32125 9.42265 5.34785C19.9508 9.94208 30.385 16.0926 36.0751 21.0575C40.7183 25.1087 41.976 28.1376 42.9799 37.6858C43.6837 44.3774 46.8682 50.3097 51.3854 53.3426C56.1336 56.532 56.7965 56.1803 53.942 51.9876C51.0355 47.7212 50.9775 47.2828 53.0431 45.2233C56.9335 41.3474 70.1432 45.037 72.4768 50.6515C75.1133 56.9953 71.9339 60.9927 60.5608 65.6298C35.4682 75.8614 30.849 80.5204 31.6748 94.7664C32.0468 101.181 33.7245 101.528 34.6083 95.3722C35.4202 89.7158 37.6368 85.3099 40.9952 82.6775C44.1717 80.1876 52.0493 78.4261 56.6685 79.1733C59.1041 79.5669 61.3747 79.1076 64.2662 77.6379C71.9299 73.7422 82.686 75.7917 90.9656 82.7264C95.4968 86.5225 105.674 93.4761 106.697 93.4761C107.194 93.4761 105.376 90.8975 102.659 87.747C96.6956 80.8343 95.4648 78.5924 95.4648 74.6459C95.4648 68.1884 105.499 67.759 111.211 73.9713C117.094 80.367 114.615 83.5125 104.841 82.0518C98.0764 81.0405 99.5071 83.2225 108.583 87.756C116.555 91.7395 132.573 95.8654 144.68 97.0541C151.338 97.7077 151.625 97.6499 150.634 95.8574C150.062 94.8222 145.665 89.7148 140.863 84.5088C136.062 79.3029 127.784 69.2147 122.469 62.0907C117.153 54.9667 110.862 47.3993 108.489 45.2731C104.846 42.012 93.1682 35.6871 90.7876 35.6871C90.3907 35.6871 92.7423 37.6449 96.0147 40.0382C103.973 45.859 106.701 48.9477 106.295 51.6787C105.447 57.3869 99.3632 56.6276 93.2042 50.0437C88.396 44.9044 76.3281 34.613 65.9699 26.8205C57.9643 20.7974 43.0379 13.3138 30.0991 8.83512C18.925 4.96724 -1.17953 -0.434041 0.0542583 0.76259ZM434.406 2.79916C398.809 12.3971 380.183 22.8041 353.743 47.8646C348.012 53.2968 344.82 55.6143 343.067 55.6143C340.499 55.6143 337.423 53.3207 337.423 51.4057C337.423 50.216 346.212 41.4451 350.921 37.9349C353.794 35.7937 353.668 35.8057 347.921 38.2278C338.162 42.3408 332.264 48.0898 319.038 66.385C315.8 70.8637 308.715 79.3517 303.294 85.2471C297.872 91.1436 293.436 96.3038 293.434 96.7143C293.424 99.0936 317.149 94.9806 329.851 90.4003C334.374 88.7693 339.615 86.12 341.497 84.5118L344.922 81.5875L338.923 82.1036C331.919 82.7054 329.894 81.7649 330.765 78.3105C332.281 72.2905 340.315 68.0978 346.324 70.1891C348.27 70.8676 348.999 71.8889 349.231 74.2682C349.612 78.168 348.743 79.8339 342.309 87.5388L337.238 93.6106L341.08 91.6548C343.193 90.5787 347.621 87.5816 350.921 84.9941C362.873 75.6213 372.139 73.3267 380.62 77.6379C383.528 79.1165 385.778 79.5679 388.252 79.1673C390.182 78.8555 393.774 79.0498 396.235 79.5988C404.645 81.4769 408.983 86.3501 410.278 95.3722C411.119 101.239 412.817 100.882 413.224 94.7524C413.669 88.0619 411.723 82.1465 407.732 78.0514C403.873 74.0909 400.1 71.9965 388.752 67.5129C373.784 61.5985 370.416 58.436 371.904 51.6897C372.818 47.5438 379.421 43.658 385.553 43.658C392.481 43.658 394.641 47.6424 390.243 52.3084C387.492 55.2277 388.383 56.1972 392.073 54.2952C398.007 51.2373 401.061 45.6318 402.008 36.0647C402.381 32.2955 403.276 28.044 403.998 26.6182C406.954 20.7755 418.799 12.6133 433.907 6.00944C439.406 3.60521 444.333 1.22889 444.855 0.727718C446.028 -0.397175 446.894 -0.56855 434.406 2.79916ZM132.958 182.605C125.81 184.404 116.361 187.269 111.962 188.971C107.563 190.674 102.501 192.358 100.714 192.715C97.7694 193.301 97.4645 193.137 97.4645 190.968C97.4645 189.651 98.1854 187.549 99.0662 186.295C102.456 181.473 99.0012 182.924 93.9441 188.446C89.9308 192.83 87.3912 197.08 83.5239 205.883C80.7124 212.285 76.3401 220.566 73.8096 224.285C71.278 228.003 69.5183 231.355 69.8972 231.732C70.2762 232.111 78.3218 224.52 87.7752 214.863C105.525 196.732 109.378 193.481 111.954 194.466C114.79 195.55 113.462 198.517 107.781 203.785C103.469 207.784 102.575 209.054 104.072 209.054C106.838 209.054 120.614 200.38 128.959 193.385C132.808 190.158 138.535 186.059 141.686 184.276C147.53 180.968 149.608 179.096 147.265 179.249C146.545 179.296 140.107 180.806 132.958 182.605ZM297.163 180.325C297.841 181.145 300.765 183.083 303.662 184.63C306.558 186.179 311.628 189.77 314.927 192.611C330.249 205.808 350.035 215.777 337.105 203.785C331.446 198.537 330.096 195.55 332.899 194.478C335.581 193.452 340.781 197.79 356.282 213.989C370.66 229.014 375.417 233.279 375.417 231.146C375.417 230.654 374.003 228.509 372.275 226.379C370.547 224.248 367.13 218.246 364.682 213.04C362.234 207.834 359.11 201.211 357.742 198.321C355.085 192.718 346.081 182.194 344.916 183.333C344.532 183.709 344.939 185.042 345.82 186.295C348.035 189.448 347.918 193.112 345.601 193.112C344.6 193.112 338.892 191.277 332.917 189.033C326.942 186.789 317.526 183.923 311.992 182.662C306.457 181.403 300.58 180.026 298.93 179.603C296.338 178.937 296.098 179.036 297.163 180.325Z" fill="#FF0000"/>
</mask>
<g mask="url(#mask0_432_3148)">
<path fill-rule="evenodd" clip-rule="evenodd" d="M524.224 12.9024C734.642 223.197 760.849 249.539 760.191 250.085C759.534 250.63 733.112 224.376 522.806 14.1928C312.447 -196.043 286.237 -222.388 286.839 -222.99C287.441 -223.592 313.809 -197.39 524.224 12.9024ZM482.237 12.9024C692.655 223.197 718.862 249.539 718.204 250.085C717.547 250.63 691.126 224.376 480.819 14.1928C270.46 -196.043 244.25 -222.388 244.852 -222.99C245.454 -223.592 271.822 -197.39 482.237 12.9024ZM468.693 38.6212C679.111 248.916 705.318 275.258 704.66 275.804C704.002 276.349 677.581 250.094 467.275 39.9117C256.916 -170.324 230.706 -196.669 231.308 -197.271C231.91 -197.873 258.277 -171.671 468.693 38.6212ZM426.706 38.6212C637.124 248.916 663.331 275.258 662.673 275.804C662.016 276.349 635.594 250.094 425.288 39.9117C214.929 -170.324 188.719 -196.669 189.321 -197.271C189.923 -197.873 216.291 -171.671 426.706 38.6212ZM413.162 64.34C623.579 274.635 649.787 300.977 649.129 301.523C648.471 302.068 622.05 275.813 411.744 65.6305C201.385 -144.605 175.175 -170.951 175.777 -171.552C176.379 -172.154 202.746 -145.952 413.162 64.34ZM371.175 64.34C581.593 274.635 607.8 300.977 607.142 301.523C606.484 302.068 580.063 275.813 369.757 65.6305C159.398 -144.605 133.188 -170.951 133.79 -171.552C134.392 -172.154 160.759 -145.952 371.175 64.34ZM357.631 90.0588C568.048 300.353 594.256 326.696 593.598 327.241C592.94 327.787 566.519 301.532 356.213 91.3493C145.854 -118.887 119.643 -145.232 120.246 -145.834C120.848 -146.435 147.215 -120.233 357.631 90.0588ZM315.644 90.0588C526.061 300.353 552.269 326.696 551.611 327.241C550.953 327.787 524.532 301.532 314.226 91.3493C103.867 -118.887 77.6565 -145.232 78.2588 -145.834C78.8606 -146.435 105.228 -120.233 315.644 90.0588ZM302.1 115.778C512.517 326.072 538.725 352.415 538.067 352.96C537.409 353.506 510.988 327.251 300.682 117.068C90.323 -93.1679 64.1124 -119.513 64.7146 -120.115C65.3164 -120.716 91.6842 -94.5143 302.1 115.778ZM260.113 115.778C470.53 326.072 496.738 352.415 496.08 352.96C495.422 353.506 469.001 327.251 258.695 117.068C48.3361 -93.1679 22.1254 -119.513 22.7277 -120.115C23.3295 -120.716 49.6973 -94.5143 260.113 115.778ZM246.569 141.496C456.986 351.791 483.194 378.133 482.536 378.679C481.878 379.224 455.457 352.97 245.151 142.787C34.7919 -67.4491 8.58128 -93.7941 9.18355 -94.396C9.78536 -94.9975 36.1531 -68.7954 246.569 141.496ZM204.582 141.496C414.999 351.791 441.207 378.133 440.549 378.679C439.891 379.224 413.47 352.97 203.164 142.787C-7.19497 -67.4491 -33.4056 -93.7941 -32.8034 -94.396C-32.2016 -94.9975 -5.83377 -68.7954 204.582 141.496ZM191.037 167.215C401.455 377.51 427.663 403.852 427.005 404.398C426.347 404.943 399.926 378.688 189.62 168.506C-20.7391 -41.7302 -46.9498 -68.0753 -46.3475 -68.6772C-45.7457 -69.2787 -19.3779 -43.0766 191.037 167.215ZM149.051 167.215C359.468 377.51 385.676 403.852 385.018 404.398C384.36 404.943 357.939 378.688 147.633 168.506C-62.7261 -41.7302 -88.9367 -68.0753 -88.3345 -68.6772C-87.7326 -69.2787 -61.3649 -43.0766 149.051 167.215ZM135.506 192.934C345.924 403.229 372.132 429.571 371.474 430.117C370.816 430.662 344.395 404.407 134.089 194.225C-76.2702 -16.0114 -102.481 -42.3565 -101.879 -42.9584C-101.277 -43.5599 -74.909 -17.3578 135.506 192.934ZM93.5195 192.934C303.937 403.229 330.145 429.571 329.487 430.117C328.829 430.662 302.408 404.407 92.1018 194.225C-118.257 -16.0114 -144.468 -42.3565 -143.866 -42.9584C-143.264 -43.5599 -116.896 -17.3578 93.5195 192.934ZM79.9753 218.653C290.393 428.947 316.6 455.29 315.943 455.835C315.285 456.381 288.864 430.126 78.5577 219.943C-131.801 9.70738 -158.012 -16.6377 -157.41 -17.2396C-156.808 -17.8411 -130.44 8.36099 79.9753 218.653ZM37.9884 218.653C248.406 428.947 274.614 455.29 273.956 455.835C273.298 456.381 246.877 430.126 36.5707 219.943C-173.788 9.70738 -199.999 -16.6377 -199.397 -17.2396C-198.795 -17.8411 -172.427 8.36099 37.9884 218.653ZM24.4442 244.372C234.862 454.666 261.069 481.009 260.412 481.554C259.754 482.1 233.333 455.845 23.0266 245.662C-187.332 35.4262 -213.543 9.0811 -212.941 8.47919C-212.339 7.87773 -185.971 34.0798 24.4442 244.372ZM-17.5427 244.372C192.875 454.666 219.082 481.009 218.425 481.554C217.767 482.1 191.346 455.845 -18.9603 245.662C-229.319 35.4262 -255.53 9.0811 -254.928 8.47919C-254.326 7.87773 -227.958 34.0798 -17.5427 244.372ZM-31.0869 270.091C179.331 480.385 205.538 506.727 204.88 507.273C204.223 507.819 177.802 481.564 -32.5045 271.381C-242.863 61.145 -269.074 34.7999 -268.472 34.198C-267.87 33.5965 -241.502 59.7986 -31.0869 270.091ZM-73.0738 270.091C137.344 480.385 163.551 506.727 162.894 507.273C162.236 507.819 135.815 481.564 -74.4914 271.381C-284.85 61.145 -311.061 34.7999 -310.459 34.198C-309.857 33.5965 -283.489 59.7986 -73.0738 270.091ZM-86.618 295.809C123.8 506.104 150.007 532.446 149.349 532.992C148.692 533.537 122.271 507.282 -88.0356 297.1C-298.395 86.8638 -324.605 60.5187 -324.003 59.9168C-323.401 59.3154 -297.033 85.5174 -86.618 295.809ZM-128.605 295.809C81.8128 506.104 108.02 532.446 107.362 532.992C106.705 533.537 80.2836 507.282 -130.023 297.1C-340.381 86.8638 -366.592 60.5187 -365.99 59.9168C-365.388 59.3154 -339.02 85.5174 -128.605 295.809Z" fill="black"/>
</g>
</svg>
