<svg width="387" height="379" viewBox="0 0 387 379" fill="none" xmlns="http://www.w3.org/2000/svg">
<mask id="mask0_432_2815" style="mask-type:alpha" maskUnits="userSpaceOnUse" x="0" y="0" width="387" height="379">
<path d="M232.581 0.888241C227.162 2.31099 218.28 10.7371 214.633 17.9159C212.842 21.4408 212.253 24.4268 212.504 28.7009C212.955 36.3791 215.478 38.3372 219.739 34.3176C222.955 31.2827 223.432 28.4733 221.307 25.0575C218.101 19.9031 227.355 7.86608 236.681 5.06008C240.905 3.78948 241.952 3.88471 245.636 5.87888C251.448 9.02402 252.972 12.4839 252.37 21.1749C251.988 26.6916 250.7 30.7775 246.937 38.4034C242.739 46.9155 239.633 50.9039 226.03 65.2579C210.035 82.1358 203.948 90.0172 206.911 90.0172C207.735 90.0172 210.153 87.5352 212.283 84.5004C214.413 81.4656 222.772 72.1382 230.858 63.7713C242.894 51.3173 246.304 47.0003 249.664 39.9621C253.982 30.9134 256.961 17.6244 255.752 12.7882C254.624 8.27723 248.448 1.99624 244.321 1.1635C242.281 0.751192 239.83 0.251778 238.876 0.0531744C237.921 -0.145429 235.089 0.229713 232.581 0.888241Z" fill="#FF0000"/>
<path d="M153.766 0.888241C159.185 2.31099 168.067 10.7371 171.713 17.9159C173.505 21.4408 174.094 24.4268 173.843 28.7009C173.392 36.3791 170.869 38.3372 166.608 34.3176C163.391 31.2827 162.915 28.4733 165.04 25.0575C168.246 19.9031 158.992 7.86608 149.665 5.06008C145.441 3.78948 144.395 3.88471 140.711 5.87888C134.899 9.02402 133.375 12.4839 133.977 21.1749C134.358 26.6916 135.647 30.7775 139.41 38.4034C143.608 46.9155 146.714 50.9039 160.317 65.2579C176.312 82.1358 182.399 90.0172 179.436 90.0172C178.612 90.0172 176.194 87.5352 174.064 84.5004C171.934 81.4656 163.575 72.1382 155.489 63.7713C143.453 51.3173 140.043 47.0003 136.683 39.9621C132.364 30.9134 129.386 17.6244 130.595 12.7882C131.722 8.27723 137.899 1.99624 142.026 1.1635C144.066 0.751192 146.517 0.251778 147.471 0.0531744C148.426 -0.145429 151.258 0.229713 153.766 0.888241Z" fill="#FF0000"/>
<path d="M29.9193 127.764C31.6808 137.689 33.3511 141.794 37.0535 145.3C40.9167 148.958 48.0624 151.477 55.1631 151.684C57.7713 151.76 56.5973 152.239 51.4699 153.191C38.5664 155.584 32.7276 160.46 31.1546 170.156C29.3838 181.064 29.0737 181.563 28.2861 174.779C26.7223 161.314 21.6805 156.05 7.85632 153.453L-0.000762939 151.977L7.06281 151.156C11.8143 150.603 15.843 149.241 19.373 146.993C25.0522 143.377 26.8091 139.835 28.285 129.039L29.0946 123.118L29.9193 127.764Z" fill="#FF0000"/>
<path d="M356.428 127.764C354.666 137.689 352.996 141.794 349.293 145.3C345.43 148.958 338.284 151.477 331.184 151.684C328.576 151.76 329.75 152.239 334.877 153.191C347.781 155.584 353.619 160.46 355.192 170.156C356.963 181.064 357.273 181.563 358.061 174.779C359.625 161.314 364.666 156.05 378.491 153.453L386.348 151.977L379.284 151.156C374.533 150.603 370.504 149.241 366.974 146.993C361.295 143.377 359.538 139.835 358.062 129.039L357.252 123.118L356.428 127.764Z" fill="#FF0000"/>
<path fill-rule="evenodd" clip-rule="evenodd" d="M12 29.5733C12 31.666 19.0032 47.8917 23.6793 56.6354C34.2145 76.3305 46.6625 92.6102 64.7141 110.299L77.1331 122.467L72.2694 123.194C66.523 124.052 60.6659 126.485 56.1865 129.875C52.8491 132.399 46.6396 139.655 47.2735 140.289C47.4702 140.486 49.8342 139.649 52.5267 138.429C58.3448 135.792 72.0058 135.29 78.2243 137.484C86.9077 140.548 92.3445 148.349 93.4976 159.403C94.0506 164.701 93.808 165.949 91.3462 170.479C89.8198 173.286 87.6275 176.198 86.4744 176.948C82.2405 179.701 73.7369 181.856 68.936 181.394C62.1744 180.743 52.3669 175.802 45.6932 169.682C39.0005 163.546 38.2737 164.685 43.0976 173.749C46.5967 180.323 56.498 190.78 62.8552 194.615C78.1265 203.828 81.8951 208.596 81.8672 218.678C81.8362 230.236 76.02 233.796 68.0884 227.111C66.4562 225.736 64.8698 224.611 64.5614 224.611C63.6379 224.611 66.6528 232.351 70.136 238.918C71.9289 242.299 78.0506 251.372 83.739 259.079C94.9281 274.238 100.029 283.345 102.371 292.35C103.768 297.726 103.745 298.258 102.009 300.598C98.9943 304.662 95.627 304.348 90.3928 299.517C81.6276 291.424 71.8081 272.772 65.395 252.031C63.3674 245.474 61.3508 239.727 60.9145 239.26C57.062 235.139 60.6789 271.217 66.0618 290.601C73.5392 317.531 86.8657 341.482 98.3144 348.568C102.334 351.056 104.564 350.439 101.182 347.775C94.6077 342.596 84.5137 324.824 82.3633 314.643C81.6625 311.323 81.7114 311.245 83.6372 312.643C93.9847 320.157 95.4533 320.948 99.8538 321.371C103.54 321.726 105.713 321.232 110.239 319.012C115.058 316.65 116.108 316.434 116.877 317.651C117.38 318.446 117.798 319.846 117.807 320.761C117.83 323.303 124.43 340.079 128.325 347.494C134.18 358.643 151.519 380.167 153.249 378.435C153.536 378.147 151.23 373.901 148.124 369.001C139.747 355.781 132.757 342.912 130.554 336.647C127.666 328.433 126.227 313.051 127.548 304.502C129.55 291.552 142.879 272.949 153.755 267.928C158.287 265.835 158.49 264.856 156.209 256.084C155.359 252.817 154.27 245.974 153.789 240.877C152.105 223.046 155.443 212.208 167.306 196.992C170.92 192.357 173.725 188.11 173.541 187.555C173.097 186.223 162.045 192.981 155.689 198.472C152.915 200.867 150.479 202.66 150.275 202.456C149.868 202.048 154.083 192.451 157.451 186.117C162.114 177.344 171.384 169.504 175.31 171.013C179.047 172.45 182.712 191.956 182.712 210.419C182.712 225.31 180.981 234.204 176.272 243.511L173.882 248.236L176.358 254.171C178.481 259.262 178.819 261.56 178.729 270.329C178.629 280.034 180.16 289.063 181.741 288.085C182.142 287.837 182.833 281.89 183.277 274.87L184.084 262.106L184.878 269.604C186.966 289.292 190.464 308.563 192.668 312.512C194.427 315.665 198.9 294.131 201.137 271.741C201.926 263.842 202.762 257.189 202.994 256.956C203.226 256.724 203.735 262.291 204.123 269.329C204.511 276.366 205.174 283.694 205.595 285.613L206.36 289.102L208.109 283.265C209.482 278.688 209.708 275.719 209.158 269.5C208.516 262.223 208.684 261.04 211.214 255.077L213.97 248.58L211.268 243.051C206.762 233.835 204.515 223.387 204.508 211.613C204.499 196.673 208.716 172.943 211.709 171.091C213.794 169.8 219.65 172.91 224.095 177.672C228.625 182.521 238.561 201.004 237.312 202.256C236.983 202.586 234.173 200.588 231.069 197.818C225.673 193.001 213.66 185.697 213.66 187.232C213.66 187.635 216.779 192.049 220.589 197.039C228.453 207.336 232.148 214.686 233.748 223.217C235.043 230.118 234.321 243.479 232.093 253.864C231.238 257.847 230.342 262.059 230.1 263.222C229.749 264.917 230.813 266.05 235.449 268.917C245.65 275.222 255.299 287.723 259.21 299.697C261.236 305.901 260.607 326.359 258.155 334.019C256.158 340.256 247.267 356.97 240.037 368.079C236.977 372.782 234.648 377.158 234.862 377.802C235.679 380.257 251.609 361.25 258.26 349.885C261.585 344.203 269.188 325.219 270.092 320.347C270.473 318.285 271.2 316.598 271.707 316.598C272.213 316.598 274.844 317.722 277.552 319.097C285.722 323.244 291.251 322.369 300.104 315.529C302.901 313.367 305.461 311.598 305.793 311.598C306.655 311.598 303.755 320.981 300.884 327.484C298.363 333.191 292.524 341.664 287.197 347.343C282.677 352.161 286.198 351.523 291.909 346.489C305.6 334.42 317.377 310.613 323.516 282.603C327.407 264.846 329.659 240.466 327.53 239.147C327.015 238.828 324.982 243.737 323.012 250.056C316.193 271.935 307.225 289.53 298.212 298.712C292.719 304.309 288.754 305.181 286.095 301.377C283.939 298.295 284.148 294.692 286.906 287.351C289.938 279.283 293.906 272.753 304.068 259.106C308.573 253.057 313.676 245.779 315.41 242.933C319.02 237.008 323.835 225.639 323.062 224.865C322.777 224.579 320.94 225.755 318.981 227.478C313.616 232.195 308.667 231.397 306.608 225.483C304.234 218.662 305.989 209.97 310.794 204.754C312.003 203.441 317.331 199.499 322.633 195.992C332.57 189.421 339.72 182.42 344.047 175.026C346.571 170.713 348.738 164.62 347.748 164.62C347.447 164.62 344.455 167.166 341.098 170.28C337.741 173.393 332.513 177.095 329.484 178.507C317.888 183.908 303.367 181.024 297.31 172.119C292.085 164.436 294.352 148.632 301.643 141.921C305.332 138.525 311.185 136.492 318.918 135.921C325.643 135.425 330.216 136.386 338.699 140.077C344.846 142.752 333.454 130.194 326.52 126.65C324.198 125.464 319.689 124.034 316.499 123.471L310.699 122.448L324.887 108.289C340.693 92.5162 352.123 77.8873 361.177 61.8456C367.982 49.7904 375.685 32.3479 375.205 30.0833C374.988 29.0594 372.525 30.6902 367.401 35.2505C352.768 48.2726 327.634 62.7995 311.338 67.6508L308.686 68.4407L308.842 59.788C308.979 52.233 308.683 50.5773 306.503 46.7259C303.322 41.1037 298.167 36.9893 292.821 35.8034C289.298 35.0216 287.855 35.2325 283.837 37.1192C281.204 38.3561 276.944 41.2417 274.371 43.5313C269.504 47.8627 261.579 58.8391 261.579 61.2487C261.579 63.8414 263.379 62.6455 265.892 58.3852C271.105 49.5444 280.561 42.6374 287.452 42.6374C293.283 42.6374 296.176 44.6422 297.51 49.6074C299.371 56.5274 293.437 68.5047 285.252 74.3518C278.983 78.8312 276.188 80.075 262.029 84.6893C241.079 91.5163 225.093 99.7211 211.949 110.393L207.743 113.808L208.307 108.469C209.375 98.3513 212.776 83.2685 215.703 75.6676C219.399 66.069 223.425 59.602 229.975 52.745C235.356 47.1118 235.052 47.0138 227.636 51.9941C210.984 63.1805 198.352 79.1461 194.215 94.2379C193.477 96.9286 192.834 98.3303 192.784 97.3545C192.611 93.919 188.821 84.5893 185.117 78.4822C180.701 71.2023 170.488 60.0949 162.755 54.1628C153.377 46.9678 151.746 46.7498 158.002 53.5269C167.534 63.8544 175.459 83.7425 177.213 101.734C177.557 105.25 178.056 109.187 178.322 110.482C178.781 112.697 178.558 112.631 174.521 109.347C162.104 99.2452 148.807 92.4262 128.304 85.6442C105.734 78.1773 97.8283 72.956 92.7089 62.1346C89.5492 55.4576 89.1459 50.9382 91.3292 46.7089C93.0643 43.3473 94.6187 42.6374 100.237 42.6374C103.159 42.6374 105.814 43.5083 108.891 45.475C113.876 48.6626 121.274 56.3524 122.996 60.1369C123.621 61.5107 124.741 62.6345 125.486 62.6345C127.724 62.6345 122.219 52.9439 116.604 46.9978C109.564 39.5429 102.8 35.3895 97.8113 35.4585C92.4024 35.5335 86.108 39.2209 82.4252 44.4722C79.584 48.5256 79.3764 49.4355 79.2376 58.4701C79.0629 69.7375 79.9734 69.3316 66.9074 63.9693C51.121 57.4903 31.8395 45.752 20.9329 35.9794C13.1241 28.9814 12 28.1756 12 29.5733ZM44.036 68.5807C48.0232 75.6846 61.7381 93.4651 69.538 101.643C73.7409 106.048 80.2269 111.915 83.9507 114.68C90.0494 119.208 107.135 129.625 108.462 129.625C108.756 129.625 108.71 128.322 108.36 126.729C107.481 122.719 110.052 117.074 113.795 114.794C116.206 113.325 116.596 112.683 115.585 111.843C113.679 110.259 99.4086 105.628 96.4316 105.628C93.4107 105.628 93.0094 107.964 95.4343 111.43C98.6399 116.015 96.1082 115.709 90.8271 110.873C85.6418 106.124 74.8959 92.1122 73.5781 88.3808C72.7136 85.9331 73.9236 86.1411 83.9916 90.1755C88.8564 92.1252 101.94 96.8696 113.067 100.72C124.193 104.569 138.41 110.263 144.661 113.372L156.026 119.026L158.386 116.077C160.604 113.303 160.641 113.047 159 111.795C152.004 106.455 129.118 97.3395 105.748 90.5845C87.914 85.4292 72.2125 79.2881 55.6903 71.0073C48.6981 67.5018 42.7162 64.6342 42.3987 64.6342C42.0813 64.6342 42.818 66.41 44.036 68.5807ZM337.284 68.7057C322.477 76.1886 301.473 84.6153 285.354 89.5386C254.787 98.8763 235.749 106.326 229.73 111.308L227.331 113.294L229.633 116.413L231.935 119.531L236.524 116.907C239.048 115.464 241.563 113.952 242.112 113.548C244.173 112.031 260.639 105.609 276.363 100.189C285.317 97.1025 297.345 92.7242 303.09 90.4595C308.835 88.1948 313.813 86.619 314.151 86.959C314.49 87.298 313.245 90.1265 311.384 93.2451C307.732 99.3642 292.037 116.47 291.014 115.445C290.671 115.102 291.321 112.995 292.457 110.765C293.594 108.533 294.524 106.465 294.524 106.168C294.524 104.173 281.31 107.186 274.241 110.793L270.43 112.736L273.727 114.962C278.038 117.872 279.729 121.255 279.183 125.875C278.94 127.938 278.992 129.625 279.298 129.625C280.329 129.625 292.969 122.34 299.016 118.261C307.579 112.484 322.313 97.8734 330.827 86.713C339.207 75.7316 345.926 65.7811 345.34 65.2202C345.119 65.0092 341.494 66.578 337.284 68.7057ZM124.039 124.62C118.951 126.768 119.978 131.798 127.028 139.264C130.386 142.821 134.664 145.932 139.46 148.306C143.482 150.297 146.773 152.315 146.773 152.792C146.773 153.838 144.201 153.286 131.798 149.58C119.899 146.022 106.514 142.616 106.093 143.038C105.918 143.214 107.539 145.593 109.696 148.327C114.654 154.608 122.523 160.427 128.492 162.227C151.504 169.163 165.958 149.139 149.145 133.616C141.731 126.772 129.403 122.355 124.039 124.62ZM254.092 124.99C243.399 128.485 236.352 133.86 232.994 141.082C230.055 147.404 230.065 148.091 233.186 154.364C236.742 161.511 241.989 164.076 251.639 163.385C261.107 162.706 267.842 159.221 275.471 151.053C284.617 141.26 284.841 141.333 264.075 147.376C246.518 152.484 241.695 153.563 241.053 152.523C240.742 152.02 241.302 151.338 242.299 151.007C252.975 147.465 266.571 135.605 266.571 129.834C266.571 124.694 261.282 122.641 254.092 124.99ZM172.361 128.327C171.064 129.627 171.799 135.833 173.673 139.413C176.568 144.94 183.953 155.426 183.326 153.121C183.028 152.022 181.847 146.867 180.702 141.667C179.558 136.468 178.12 131.607 177.505 130.865C175.935 128.969 173.11 127.576 172.361 128.327ZM210.77 130.241C207.909 132.802 207.327 134.281 205.557 143.483C204.46 149.18 203.749 154.027 203.975 154.254C204.723 155.002 215.419 137.187 216.072 134.105C216.475 132.203 216.209 130.396 215.351 129.222C214.048 127.437 213.854 127.48 210.77 130.241ZM109.23 177.868C107.785 180.205 104.654 185.042 102.271 188.616C95.4892 198.787 92.5561 208.798 92.4563 222.111C92.4084 228.479 92.9575 235.424 93.7601 238.609C96.4685 249.347 117.227 294.363 118.197 291.601C118.486 290.776 119.715 286.727 120.926 282.603C122.138 278.478 123.919 273.243 124.884 270.969C126.173 267.929 126.342 266.54 125.524 265.72C123.551 263.744 122.158 264.517 120.317 268.605C119.327 270.804 118.142 272.604 117.684 272.604C115.422 272.604 109.875 250.089 108.308 234.546C107.189 223.459 110.518 202.159 114.144 197.196C115.38 195.504 115.55 196.571 115.582 206.195C115.608 213.978 116.22 219.409 117.714 225.111C120.616 236.192 127.35 249.288 132.062 253.01C137.436 257.256 138.404 255.781 136.357 246.465C131.308 223.483 131.363 223.994 132.528 211.215C133.486 200.703 135.88 190.448 139.25 182.409C139.803 181.089 139.322 180.559 137.13 180.077C135.57 179.735 129.745 178.141 124.187 176.536C118.628 174.931 113.58 173.618 112.969 173.618C112.357 173.618 110.675 175.53 109.23 177.868ZM263.077 176.67C258.135 178.223 253.107 179.521 251.904 179.556C250.701 179.59 249.443 180.061 249.108 180.604C248.773 181.147 249.908 185.985 251.631 191.353C254.251 199.524 254.849 203.233 255.301 214.112C255.786 225.824 255.579 228.182 253.218 237.939C250.485 249.233 249.899 255.606 251.593 255.606C254.122 255.606 260.912 247.76 264.049 241.213C269.847 229.109 272.027 219.694 272.002 206.864C271.989 200.677 272.285 195.615 272.66 195.615C273.978 195.615 276.583 203.78 278.174 212.899C279.322 219.478 279.614 225.113 279.195 232.61C278.418 246.516 274.155 267.039 271.204 271.081C269.884 272.889 269.686 272.762 267.669 268.801C265.589 264.718 262.953 263.327 262.086 265.855C261.851 266.543 263.573 272.881 265.913 279.941L270.17 292.777L277.941 276.577C293.296 244.569 295.482 237.964 295.507 223.521C295.523 214.593 293.058 202.536 289.968 196.423C289.049 194.604 285.542 188.741 282.175 183.395C277.645 176.2 275.536 173.697 274.058 173.76C272.96 173.808 268.018 175.117 263.077 176.67Z" fill="white"/>
</mask>
<g mask="url(#mask0_432_2815)">
<path fill-rule="evenodd" clip-rule="evenodd" d="M-160.021 25.9024C-370.438 236.197 -396.646 262.539 -395.988 263.085C-395.33 263.63 -368.909 237.376 -158.603 27.1928C51.7558 -183.043 77.9664 -209.388 77.3642 -209.99C76.7623 -210.592 50.3946 -184.39 -160.021 25.9024ZM-118.034 25.9024C-328.452 236.197 -354.659 262.539 -354.001 263.085C-353.343 263.63 -326.922 237.376 -116.616 27.1928C93.7427 -183.043 119.953 -209.388 119.351 -209.99C118.749 -210.592 92.3815 -184.39 -118.034 25.9024ZM-104.49 51.6212C-314.907 261.916 -341.115 288.258 -340.457 288.804C-339.799 289.349 -313.378 263.094 -103.072 52.9117C107.287 -157.324 133.498 -183.669 132.895 -184.271C132.293 -184.873 105.926 -158.671 -104.49 51.6212ZM-62.5028 51.6212C-272.92 261.916 -299.128 288.258 -298.47 288.804C-297.812 289.349 -271.391 263.094 -61.0852 52.9117C149.274 -157.324 175.484 -183.669 174.882 -184.271C174.28 -184.873 147.913 -158.671 -62.5028 51.6212ZM-48.9587 77.34C-259.376 287.635 -285.584 313.977 -284.926 314.523C-284.268 315.068 -257.847 288.813 -47.541 78.6305C162.818 -131.605 189.029 -157.951 188.426 -158.552C187.825 -159.154 161.457 -132.952 -48.9587 77.34ZM-6.97175 77.34C-217.389 287.635 -243.597 313.977 -242.939 314.523C-242.281 315.068 -215.86 288.813 -5.55412 78.6305C204.805 -131.605 231.016 -157.951 230.413 -158.552C229.811 -159.154 203.444 -132.952 -6.97175 77.34ZM6.57241 103.059C-203.845 313.353 -230.053 339.696 -229.395 340.241C-228.737 340.787 -202.316 314.532 7.99004 104.349C218.349 -105.887 244.56 -132.232 243.957 -132.834C243.356 -133.435 216.988 -107.233 6.57241 103.059ZM48.5593 103.059C-161.858 313.353 -188.066 339.696 -187.408 340.241C-186.75 340.787 -160.329 314.532 49.977 104.349C260.336 -105.887 286.547 -132.232 285.944 -132.834C285.343 -133.435 258.975 -107.233 48.5593 103.059ZM62.1035 128.778C-148.314 339.072 -174.522 365.415 -173.864 365.96C-173.206 366.506 -146.785 340.251 63.5211 130.068C273.88 -80.1679 300.091 -106.513 299.488 -107.115C298.887 -107.716 272.519 -81.5143 62.1035 128.778ZM104.09 128.778C-106.327 339.072 -132.535 365.415 -131.877 365.96C-131.219 366.506 -104.798 340.251 105.508 130.068C315.867 -80.1679 342.078 -106.513 341.475 -107.115C340.874 -107.716 314.506 -81.5143 104.09 128.778ZM117.635 154.496C-92.7831 364.791 -118.991 391.133 -118.333 391.679C-117.675 392.224 -91.2539 365.97 119.052 155.787C329.411 -54.4491 355.622 -80.7941 355.02 -81.396C354.418 -81.9975 328.05 -55.7954 117.635 154.496ZM159.621 154.496C-50.7962 364.791 -77.0037 391.133 -76.3459 391.679C-75.6881 392.224 -49.267 365.97 161.039 155.787C371.398 -54.4491 397.609 -80.7941 397.006 -81.396C396.405 -81.9975 370.037 -55.7954 159.621 154.496ZM173.166 180.215C-37.252 390.51 -63.4595 416.852 -62.8017 417.398C-62.1439 417.943 -35.7229 391.688 174.583 181.506C384.942 -28.7302 411.153 -55.0753 410.551 -55.6772C409.949 -56.2787 383.581 -30.0766 173.166 180.215ZM215.153 180.215C4.73492 390.51 -21.4726 416.852 -20.8148 417.398C-20.157 417.943 6.26407 391.688 216.57 181.506C426.929 -28.7302 453.14 -55.0753 452.538 -55.6772C451.936 -56.2787 425.568 -30.0766 215.153 180.215ZM228.697 205.934C18.2791 416.229 -7.92842 442.571 -7.27062 443.117C-6.61283 443.662 19.8082 417.407 230.114 207.225C440.473 -3.01143 466.684 -29.3565 466.082 -29.9584C465.48 -30.5599 439.112 -4.35782 228.697 205.934ZM270.684 205.934C60.266 416.229 34.0585 442.571 34.7163 443.117C35.3741 443.662 61.7951 417.407 272.101 207.225C482.46 -3.01143 508.671 -29.3565 508.069 -29.9584C507.467 -30.5599 481.099 -4.35782 270.684 205.934ZM284.228 231.653C73.8102 441.947 47.6027 468.29 48.2605 468.835C48.9183 469.381 75.3393 443.126 285.645 232.943C496.004 22.7074 522.215 -3.63768 521.613 -4.23959C521.011 -4.84105 494.643 21.361 284.228 231.653ZM326.215 231.653C115.797 441.947 89.5896 468.29 90.2474 468.835C90.9052 469.381 117.326 443.126 327.632 232.943C537.991 22.7074 564.202 -3.63768 563.6 -4.23959C562.998 -4.84105 536.63 21.361 326.215 231.653ZM339.759 257.372C129.341 467.666 103.134 494.009 103.792 494.554C104.449 495.1 130.87 468.845 341.177 258.662C551.536 48.4262 577.746 22.0811 577.144 21.4792C576.542 20.8777 550.174 47.0798 339.759 257.372ZM381.746 257.372C171.328 467.666 145.121 494.009 145.778 494.554C146.436 495.1 172.857 468.845 383.163 258.662C593.522 48.4262 619.733 22.0811 619.131 21.4792C618.529 20.8777 592.161 47.0798 381.746 257.372ZM395.29 283.091C184.872 493.385 158.665 519.727 159.323 520.273C159.98 520.819 186.401 494.564 396.708 284.381C607.067 74.145 633.277 47.7999 632.675 47.198C632.073 46.5965 605.705 72.7986 395.29 283.091ZM437.277 283.091C226.859 493.385 200.652 519.727 201.31 520.273C201.967 520.819 228.388 494.564 438.695 284.381C649.054 74.145 675.264 47.7999 674.662 47.198C674.06 46.5965 647.692 72.7986 437.277 283.091ZM450.821 308.809C240.403 519.104 214.196 545.446 214.854 545.992C215.512 546.537 241.933 520.282 452.239 310.1C662.598 99.8638 688.808 73.5187 688.206 72.9168C687.604 72.3154 661.236 98.5174 450.821 308.809ZM492.808 308.809C282.39 519.104 256.183 545.446 256.841 545.992C257.498 546.537 283.919 520.282 494.226 310.1C704.585 99.8638 730.795 73.5187 730.193 72.9168C729.591 72.3154 703.223 98.5174 492.808 308.809Z" fill="black"/>
</g>
</svg>
