<svg width="406" height="371" viewBox="0 0 406 371" fill="none" xmlns="http://www.w3.org/2000/svg">
<mask id="mask0_432_2859" style="mask-type:alpha" maskUnits="userSpaceOnUse" x="0" y="0" width="406" height="371">
<path fill-rule="evenodd" clip-rule="evenodd" d="M0.000456195 0.65728C-0.0575268 2.16102 5.41687 10.2423 13.5125 20.6046C27.2025 38.1259 44.3814 52.8696 66.9308 66.4482C78.4824 73.4044 86.9999 80.0848 85.1185 80.7113C83.9788 81.091 74.9235 76.7376 70.7817 73.818C62.3712 67.89 69.807 76.289 80.7208 85.0436C90.8218 93.1459 99.1824 97.82 119.821 106.901C150.993 120.618 157.86 124.749 168.661 136.29C176.863 145.053 178.939 151.312 179.643 169.406C180.13 181.909 180.047 182.639 177.592 187.481C173.541 195.471 163.674 202.758 156.827 202.816C155.407 202.828 153.993 203.09 153.685 203.397C153.378 203.704 154.653 206.222 156.518 208.993C160.415 214.781 160.438 214.911 158.34 219.331C156.148 223.948 152.54 225.162 142.656 224.606C133.381 224.084 126.913 221.58 113.949 213.494C109.839 210.93 105.966 208.833 105.343 208.833C104.718 208.833 103.806 211.189 103.317 214.068C102.1 221.22 100.108 221.429 93.9579 215.052C88.3695 209.257 85.4434 201.959 86.4841 196.41C87.8767 188.995 84.3437 193.031 77.1368 207.091C64.4226 231.897 63.8067 240.82 73.3929 261.289C79.6201 274.584 87.6407 284.355 109.876 305.73C134.514 329.415 140.073 337.394 143.012 353.284C143.973 358.478 143.849 359.32 141.38 364.364C139.91 367.366 138.926 370.041 139.193 370.308C140.471 371.586 146.814 362.12 148.353 356.637C152.529 341.764 151.381 330.604 144.296 317.179C141.849 312.543 140.156 308.749 140.534 308.749C140.913 308.749 143.012 310.661 145.201 312.996C150.545 318.701 151.004 316.574 146.48 307.055C141.881 297.375 135.768 288.816 127.188 280.044C116.185 268.795 102.543 259.59 110.794 268.982C114.486 273.184 115.462 276.662 113.645 279.141C112.38 280.869 112.061 280.894 109.352 279.474C106.139 277.79 100.473 272.081 97.044 267.073C91.6636 259.214 89.0383 243.787 91.9045 236.871C93.444 233.156 94.2078 233.063 96.3512 236.332C98.1217 239.034 114.988 252.819 121.267 256.698C123.442 258.041 125.44 258.67 125.941 258.169C126.44 257.668 124.662 253.654 121.791 248.8C116.483 239.829 112.607 231.796 113.268 231.136C113.485 230.92 117.027 231.871 121.14 233.25C132.335 237.005 146.119 239.137 154.661 238.432C158.648 238.104 161.909 238.063 161.909 238.342C161.909 238.622 160.752 240.597 159.339 242.733C157.924 244.868 155.738 249.671 154.479 253.406C153.22 257.141 151.653 260.376 150.994 260.596C149.211 261.19 142.436 253.604 141.34 249.785C140.318 246.226 137.916 244.511 137.916 247.341C137.916 250.509 144.965 270.128 148.022 275.468C152.396 283.108 159.82 290.817 170.272 298.573C186.16 310.361 189.134 311.564 181.569 303.143C174.172 294.908 168.962 286.685 166.887 279.974C164.239 271.405 164.271 261.737 166.965 256.172C169.338 251.277 176.05 244.803 178.755 244.803C181.948 244.803 184.404 252.05 184.388 261.423C184.38 265.925 184.747 269.378 185.204 269.096C185.661 268.814 187.296 266.841 188.84 264.711L191.646 260.841L192.321 270.057C193.988 292.819 198.343 319.367 200.852 322.041C201.762 323.013 204.243 314.3 206.341 302.754C207.79 294.781 210.895 265.559 210.895 259.893C210.895 257.608 211.272 257.88 214.267 262.324C220.037 270.887 220.398 270.806 220.395 260.956C220.392 250.965 222.601 244.803 226.188 244.803C229.484 244.803 237.307 253.652 238.835 259.109C242.265 271.352 237.6 285.827 225.591 300.206C221.942 304.574 219.138 308.329 219.358 308.55C220.07 309.261 237.29 296.991 243.64 291.248C254.54 281.389 262.826 265.998 266.36 249.049C267.405 244.038 265.429 245.158 262.435 251.274C259.807 256.641 255.484 261.157 253.581 260.523C253.051 260.346 251.499 257.093 250.131 253.293C248.763 249.493 246.574 244.688 245.265 242.616C243.956 240.543 242.885 238.726 242.885 238.578C242.885 238.429 248.171 238.28 254.632 238.246C266.629 238.183 273.243 236.969 285.156 232.645C288.335 231.491 291.178 230.789 291.473 231.083C292.117 231.727 289.403 237.245 282.621 249.076C275.533 261.444 276.276 261.604 291.258 250.924C295.594 247.831 301.831 242.717 305.118 239.557C308.404 236.398 311.212 233.812 311.358 233.812C311.503 233.812 312.184 235.168 312.871 236.825C314.918 241.765 313.713 254.26 310.517 261.239C307.201 268.477 301.937 275.042 296.636 278.548C292.718 281.14 292.621 281.152 291.214 279.231C289.331 276.659 290.26 273.239 294 268.982C300.482 261.603 293.573 265.277 282.378 275.162C273.402 283.086 264.492 294.58 259.272 304.969C253.638 316.179 253.793 319.071 259.688 312.746C261.994 310.274 263.888 308.7 263.899 309.249C263.911 309.799 261.869 314.295 259.362 319.241C255.415 327.027 254.724 329.33 254.2 336.41C253.236 349.452 256.533 362.141 262.399 367.965C263.929 369.485 265.386 370.525 265.635 370.276C265.883 370.027 264.835 367.265 263.303 364.138C260.707 358.832 260.595 358.098 261.633 353.152C265 337.113 270.634 329.014 294.072 306.534C316.261 285.253 324.293 275.695 330.418 263.287C340.811 242.229 340.113 229.037 327.441 207.079C324.925 202.719 322.371 197.733 321.766 196C319.98 190.876 318.001 192.01 318.115 198.092C318.235 204.524 314.709 212.003 309.333 216.721C304.319 221.121 302.585 220.539 301.436 214.076C300.923 211.192 300.053 208.833 299.503 208.833C298.953 208.833 294.334 211.353 289.241 214.433C276.807 221.952 268.675 224.82 259.785 224.82C251.11 224.82 247.467 223.117 245.883 218.323C244.838 215.155 244.985 214.333 247.312 210.365C248.739 207.931 250.359 205.66 250.911 205.319C252.58 204.288 250.939 202.839 248.075 202.816C241.298 202.761 230.585 194.98 226.948 187.472C223.151 179.631 224.663 154.022 229.471 144.728C231.896 140.041 242.361 129.363 248.883 124.921C255.666 120.301 265.75 115.241 285.873 106.363C308.985 96.1633 319.426 89.7867 331.879 78.2633C338.022 72.5791 339.258 70.1181 334.166 73.7091C330.684 76.1641 321.28 80.9401 319.928 80.9401C319.377 80.9401 319.18 80.2786 319.491 79.4693C320.049 78.0155 323.529 75.6026 349.854 58.4159C360.564 51.4248 365.949 47.0125 375.94 37.0468C382.864 30.1386 391.228 20.8903 394.526 16.494C407.393 -0.658619 409.065 -6.12604 397.047 8.25092C373.165 36.821 347.12 52.9465 288.512 75.4457C255.979 87.9352 241.606 96.2063 223.957 112.594L216.084 119.903L216.565 115.659C219.259 91.8629 227.527 71.8337 239.309 60.5521C243.801 56.2517 243.098 56.4866 234.793 62.0619C218.969 72.684 206.141 89.0003 202.532 103.096L201.215 108.237L200.012 103.458C196.773 90.603 186.215 75.8843 172.436 65.0164C161.701 56.5495 159.755 55.7692 165.65 62.2947C175.028 72.674 183.136 92.8101 185.363 111.253L186.068 117.087L177.737 109.884C159.393 94.0221 147.913 87.5885 116.282 75.4457C79.2342 61.2226 60.0878 51.9214 40.4446 38.6005C31.6742 32.6525 14.0013 16.0514 4.68108 5.00364C2.13083 1.98117 0.0244492 0.0248092 0.000456195 0.65728ZM106.925 87.2758C106.925 89.1402 119.63 95.8076 135.96 102.512C161.946 113.182 166.457 115.752 177.444 126.145L186.902 135.091V129.545V124.001L179.654 117.875C165.273 105.719 145.822 94.6946 130.418 89.9695C123.654 87.8943 106.925 85.9759 106.925 87.2758ZM280.374 88.4128C261.138 92.6433 239.055 105.045 219.642 122.522C216.125 125.688 215.893 126.258 215.893 131.717V137.537L226.14 127.445C237.997 115.769 241.428 113.766 268.835 102.512C284.629 96.0274 297.869 89.1472 297.869 87.4247C297.869 86.4625 286.262 87.1179 280.374 88.4128ZM174.905 207.834C172.379 210.359 172.392 212.138 174.976 217.473C177.496 222.675 182.555 226.074 187.126 225.634L190.401 225.319V217.826V210.332L185.94 208.084C180.435 205.309 177.497 205.243 174.905 207.834ZM217.822 208.583L212.394 211.331L212.1 218.021L211.805 224.713L215.342 225.375C220.107 226.268 223.035 225.397 226.373 222.092C233.551 214.986 232.854 205.836 225.135 205.836C224.099 205.836 220.807 207.073 217.822 208.583Z" fill="white"/>
<path fill-rule="evenodd" clip-rule="evenodd" d="M18 72.3526C18 74.1793 31.9868 93.8119 43.3407 107.921C53.7872 120.902 73.2896 140.697 85.5261 150.74C95.6977 159.088 98.966 160.581 93.2272 154.258C85.9833 146.275 84.6485 138.439 89.7985 134.125C94.7334 129.991 101.383 130.991 107.403 136.772C109.183 138.482 110.641 140.453 110.641 141.154C110.641 143.1 106.19 143.786 102.16 142.462C96.9677 140.756 96.5942 142.145 101.177 146.123C106.792 150.995 114.97 155.598 125.232 159.66C139.423 165.275 147.096 165.738 136.919 160.363C130.977 157.224 127.112 151.601 127.858 147.179C128.157 145.406 128.667 143.285 128.991 142.467C129.389 141.459 128.399 140.339 125.921 138.996C123.909 137.905 121.793 136.253 121.219 135.324C116.555 127.787 135.703 138.888 147.321 150.457C153.013 156.125 154.823 159.753 154.117 164.083C152.456 174.281 143.467 174.771 125.197 165.662C121.424 163.781 118.134 162.443 117.887 162.689C117.641 162.935 118.598 165.107 120.016 167.516C123.208 172.937 123.357 176.7 120.444 178.252C112.647 182.406 87.8461 170.107 65.4251 150.967C60.554 146.809 56.3463 143.629 56.0743 143.899C54.2634 145.702 85.4086 178.193 97.6909 187.312C111.156 197.308 128.804 206.021 138.643 207.53L143.015 208.199L138.25 203.978C128.226 195.099 127.848 187.332 137.281 184.057C142.527 182.237 149.124 186.947 150.135 193.233C150.468 195.31 151.083 197.01 151.5 197.01C152.632 197.01 163.596 188.733 166.168 185.937C168.557 183.341 170.497 174.201 168.659 174.201C168.095 174.201 167.369 174.889 167.044 175.731C166.58 176.935 166.026 177.033 164.447 176.192C161.153 174.437 161.828 169.844 165.926 166.132C172.928 159.788 170.339 154.526 153.694 141.263C131.316 123.433 122.129 117.959 97.6909 107.89C81.8643 101.37 70.6588 98.0851 61.0829 97.1619C54.4606 96.5232 52.1595 98.106 58.0945 99.2177C67.3237 100.945 94.7025 117.528 94.7025 121.391C94.7025 124.15 86.8002 121.944 74.2817 115.692C57.4281 107.274 45.4934 98.4937 30.7007 83.6292C23.7158 76.61 18 71.5355 18 72.3526ZM379.559 79.0555C365.827 94.2473 347.324 108.171 329.49 116.73C311.576 125.328 304.682 124.169 317.588 114.729C325.894 108.654 341.959 100.217 346.974 99.297C353.548 98.0901 351.306 96.5083 343.986 97.1877C326.934 98.7694 290.52 113.487 270.789 126.771C260.355 133.796 240.018 150.55 238.075 153.72C235.105 158.572 235.575 162.345 239.64 166.267C243.695 170.179 244.335 174.478 241.12 176.192C239.541 177.033 238.987 176.935 238.523 175.731C237.245 172.415 235.908 174.317 236.409 178.739C236.978 183.764 239.17 186.554 247.701 193.111C253.765 197.771 255.081 197.949 255.081 194.111C255.081 190.622 258.875 185.839 262.986 184.144C265.506 183.104 266.517 183.196 269.725 184.759C277.087 188.344 276.682 194.476 268.546 202.576C262.391 208.703 263.167 209.233 273.256 205.795C287.889 200.809 303.47 191.467 317.339 179.367C328.285 169.815 350.721 145.122 349.53 143.937C349.252 143.661 344.521 147.184 339.015 151.768C323.44 164.733 309.775 173.284 298.405 177.178C284.808 181.836 279.479 177.83 285.55 167.516C286.969 165.107 287.885 162.894 287.587 162.598C287.291 162.301 285.122 163.175 282.768 164.539C276.536 168.149 264.521 172.217 260.09 172.217C257.029 172.217 255.733 171.601 253.675 169.166C248.382 162.904 251.693 154.988 263.684 145.233C271.188 139.129 281.551 132.55 283.661 132.55C287.257 132.55 282.803 138.562 278.169 139.962C276.515 140.462 276.046 141.132 276.523 142.308C276.891 143.213 277.425 145.58 277.709 147.569C278.166 150.762 277.745 151.702 274.099 155.64C271.83 158.092 268.639 160.647 267.009 161.319C265.38 161.991 264.046 162.933 264.046 163.412C264.046 167.588 294.427 154.675 304.005 146.429C308.944 142.177 308.723 140.715 303.407 142.462C299.144 143.863 294.926 143.067 294.926 140.862C294.926 140 296.287 138.031 297.949 136.484C304.028 130.831 312.87 130.229 316.798 135.199C320.549 139.947 318.89 147.039 312.339 154.258C306.562 160.623 309.911 159.067 320.045 150.677C341.694 132.752 370.066 100.46 385.907 75.7145C389.838 69.5749 386.577 71.2915 379.559 79.0555Z" fill="#FF0000"/>
</mask>
<g mask="url(#mask0_432_2859)">
<path fill-rule="evenodd" clip-rule="evenodd" d="M-150.021 21.9024C-360.438 232.197 -386.646 258.539 -385.988 259.085C-385.33 259.63 -358.909 233.376 -148.603 23.1928C61.7558 -187.043 87.9664 -213.388 87.3642 -213.99C86.7623 -214.592 60.3946 -188.39 -150.021 21.9024ZM-108.034 21.9024C-318.452 232.197 -344.659 258.539 -344.001 259.085C-343.343 259.63 -316.922 233.376 -106.616 23.1928C103.743 -187.043 129.953 -213.388 129.351 -213.99C128.749 -214.592 102.381 -188.39 -108.034 21.9024ZM-94.4898 47.6212C-304.907 257.916 -331.115 284.258 -330.457 284.804C-329.799 285.349 -303.378 259.094 -93.0721 48.9117C117.287 -161.324 143.498 -187.669 142.895 -188.271C142.293 -188.873 115.926 -162.671 -94.4898 47.6212ZM-52.5028 47.6212C-262.92 257.916 -289.128 284.258 -288.47 284.804C-287.812 285.349 -261.391 259.094 -51.0852 48.9117C159.274 -161.324 185.484 -187.669 184.882 -188.271C184.28 -188.873 157.913 -162.671 -52.5028 47.6212ZM-38.9587 73.34C-249.376 283.635 -275.584 309.977 -274.926 310.523C-274.268 311.068 -247.847 284.813 -37.541 74.6305C172.818 -135.605 199.029 -161.951 198.426 -162.552C197.825 -163.154 171.457 -136.952 -38.9587 73.34ZM3.02825 73.34C-207.389 283.635 -233.597 309.977 -232.939 310.523C-232.281 311.068 -205.86 284.813 4.44588 74.6305C214.805 -135.605 241.016 -161.951 240.413 -162.552C239.811 -163.154 213.444 -136.952 3.02825 73.34ZM16.5724 99.0588C-193.845 309.353 -220.053 335.696 -219.395 336.241C-218.737 336.787 -192.316 310.532 17.99 100.349C228.349 -109.887 254.56 -136.232 253.957 -136.834C253.356 -137.435 226.988 -111.233 16.5724 99.0588ZM58.5593 99.0588C-151.858 309.353 -178.066 335.696 -177.408 336.241C-176.75 336.787 -150.329 310.532 59.977 100.349C270.336 -109.887 296.547 -136.232 295.944 -136.834C295.343 -137.435 268.975 -111.233 58.5593 99.0588ZM72.1035 124.778C-138.314 335.072 -164.522 361.415 -163.864 361.96C-163.206 362.506 -136.785 336.251 73.5211 126.068C283.88 -84.1679 310.091 -110.513 309.488 -111.115C308.887 -111.716 282.519 -85.5143 72.1035 124.778ZM114.09 124.778C-96.3272 335.072 -122.535 361.415 -121.877 361.96C-121.219 362.506 -94.7981 336.251 115.508 126.068C325.867 -84.1679 352.078 -110.513 351.475 -111.115C350.874 -111.716 324.506 -85.5143 114.09 124.778ZM127.635 150.496C-82.7831 360.791 -108.991 387.133 -108.333 387.679C-107.675 388.224 -81.2539 361.97 129.052 151.787C339.411 -58.4491 365.622 -84.7941 365.02 -85.396C364.418 -85.9975 338.05 -59.7954 127.635 150.496ZM169.621 150.496C-40.7962 360.791 -67.0037 387.133 -66.3459 387.679C-65.6881 388.224 -39.267 361.97 171.039 151.787C381.398 -58.4491 407.609 -84.7941 407.006 -85.396C406.405 -85.9975 380.037 -59.7954 169.621 150.496ZM183.166 176.215C-27.252 386.51 -53.4595 412.852 -52.8017 413.398C-52.1439 413.943 -25.7229 387.688 184.583 177.506C394.942 -32.7302 421.153 -59.0753 420.551 -59.6772C419.949 -60.2787 393.581 -34.0766 183.166 176.215ZM225.153 176.215C14.7349 386.51 -11.4726 412.852 -10.8148 413.398C-10.157 413.943 16.2641 387.688 226.57 177.506C436.929 -32.7302 463.14 -59.0753 462.538 -59.6772C461.936 -60.2787 435.568 -34.0766 225.153 176.215ZM238.697 201.934C28.2791 412.229 2.07158 438.571 2.72938 439.117C3.38717 439.662 29.8082 413.407 240.114 203.225C450.473 -7.01143 476.684 -33.3565 476.082 -33.9584C475.48 -34.5599 449.112 -8.35782 238.697 201.934ZM280.684 201.934C70.266 412.229 44.0585 438.571 44.7163 439.117C45.3741 439.662 71.7951 413.407 282.101 203.225C492.46 -7.01143 518.671 -33.3565 518.069 -33.9584C517.467 -34.5599 491.099 -8.35782 280.684 201.934ZM294.228 227.653C83.8102 437.947 57.6027 464.29 58.2605 464.835C58.9183 465.381 85.3393 439.126 295.645 228.943C506.004 18.7074 532.215 -7.63768 531.613 -8.23959C531.011 -8.84105 504.643 17.361 294.228 227.653ZM336.215 227.653C125.797 437.947 99.5896 464.29 100.247 464.835C100.905 465.381 127.326 439.126 337.632 228.943C547.991 18.7074 574.202 -7.63768 573.6 -8.23959C572.998 -8.84105 546.63 17.361 336.215 227.653ZM349.759 253.372C139.341 463.666 113.134 490.009 113.792 490.554C114.449 491.1 140.87 464.845 351.177 254.662C561.536 44.4262 587.746 18.0811 587.144 17.4792C586.542 16.8777 560.174 43.0798 349.759 253.372ZM391.746 253.372C181.328 463.666 155.121 490.009 155.778 490.554C156.436 491.1 182.857 464.845 393.163 254.662C603.522 44.4262 629.733 18.0811 629.131 17.4792C628.529 16.8777 602.161 43.0798 391.746 253.372ZM405.29 279.091C194.872 489.385 168.665 515.727 169.323 516.273C169.98 516.819 196.401 490.564 406.708 280.381C617.067 70.145 643.277 43.7999 642.675 43.198C642.073 42.5965 615.705 68.7986 405.29 279.091ZM447.277 279.091C236.859 489.385 210.652 515.727 211.31 516.273C211.967 516.819 238.388 490.564 448.695 280.381C659.054 70.145 685.264 43.7999 684.662 43.198C684.06 42.5965 657.692 68.7986 447.277 279.091ZM460.821 304.809C250.403 515.104 224.196 541.446 224.854 541.992C225.512 542.537 251.933 516.282 462.239 306.1C672.598 95.8638 698.808 69.5187 698.206 68.9168C697.604 68.3154 671.236 94.5174 460.821 304.809ZM502.808 304.809C292.39 515.104 266.183 541.446 266.841 541.992C267.498 542.537 293.919 516.282 504.226 306.1C714.585 95.8638 740.795 69.5187 740.193 68.9168C739.591 68.3154 713.223 94.5174 502.808 304.809Z" fill="black"/>
</g>
</svg>
