<svg width="573" height="278" viewBox="0 0 573 278" fill="none" xmlns="http://www.w3.org/2000/svg">
<mask id="mask0_439_10181" style="mask-type:alpha" maskUnits="userSpaceOnUse" x="0" y="0" width="574" height="278">
<path fill-rule="evenodd" clip-rule="evenodd" d="M77 58.4549C77 58.9723 81.0571 61.7937 86.0147 64.7246C104.071 75.3977 110.661 83.5067 128.363 116.829C136.08 131.356 140.721 138.655 149.163 149.545C155.141 157.255 160.276 163.318 160.576 163.02C160.875 162.72 157.89 157.528 153.941 151.48C146.078 139.438 142.226 131.623 139.006 121.178C135.579 110.065 136.575 101.593 141.307 101.593C143.564 101.593 154.299 109.105 161.034 115.397C169.86 123.642 176.883 134.082 183.453 148.725C191.158 165.899 191.579 166.641 198.619 175.451C207.897 187.061 214.015 191.565 232.735 200.562C261.691 214.477 270.684 222.065 277.202 238.083C279.276 243.182 282.941 259.44 285.142 273.314C285.469 275.37 286.157 277.052 286.67 277.052C287.805 277.052 288.125 275.74 290.623 260.89C291.703 254.469 293.526 246.394 294.674 242.945C297.505 234.443 303.568 224.432 308.787 219.639C314.819 214.1 326.604 206.974 337.623 202.201C342.766 199.974 349.91 196.53 353.497 194.549C364.644 188.395 381.247 170.16 385.488 159.415C389.196 150.016 396.761 134.933 400.584 129.31C408.579 117.552 425.738 102.761 431.914 102.305C434.238 102.133 435.092 102.679 436.271 105.082C439.566 111.802 431.917 132.953 419.227 152.208C415.878 157.291 413.389 161.702 413.698 162.01C414.253 162.565 425.761 148.573 432.643 138.978C434.608 136.236 440.965 125.138 446.77 114.316C459.554 90.4752 463.198 85.031 472.008 76.596C478.441 70.437 492.59 60.719 495.123 60.719C495.763 60.719 496.287 60.053 496.287 59.2395C496.287 57.9525 495.802 57.9665 492.544 59.3532C480.118 64.6399 479.587 64.9569 456.355 80.8968C453.884 82.5915 443.327 89.8113 432.895 96.9393C422.463 104.068 413.021 110.704 411.913 111.685C407.211 115.85 392.503 123.742 385.08 126.082C380.672 127.473 372.556 129.491 367.045 130.566C344.697 134.924 335.6 138.674 324.781 147.984C319.431 152.588 320.004 153.602 325.757 149.714C342.205 138.597 357.745 133.408 368.475 135.449C374.822 136.656 379.49 141.849 379.476 147.686C379.453 157.687 368.533 172.148 358.89 174.948C353.913 176.392 353.331 176.368 349.183 174.535C345.719 173.006 344.515 171.816 343.587 169.007C342.936 167.038 342.692 164.521 343.045 163.412C344.02 160.342 348.411 155.545 351.902 153.735C356.724 151.235 353.498 151.108 346.929 153.54C342.163 155.303 339.21 157.515 331.321 165.226C321.376 174.946 318.858 179.087 317.281 188.326C316.618 192.205 316.139 192.73 322.715 182.37C325.54 177.921 327.514 176.073 331.646 174.018C338.353 170.68 339.437 170.711 344.046 174.369C346.119 176.014 348.202 177.359 348.676 177.359C349.149 177.359 349.537 178.981 349.537 180.963C349.537 186.271 345.017 193.807 339.741 197.297C335.381 200.181 329.072 202.117 327.888 200.934C327.074 200.122 332.084 193.5 336.455 189.61C338.434 187.848 339.474 186.39 338.765 186.37C334.131 186.234 317.799 198.776 308.644 209.5C301.883 217.42 294.787 230.839 292.007 240.963C290.293 247.201 290.26 247.242 286.915 246.945C283.63 246.653 283.478 246.435 280.612 237.899C277.03 227.23 274.711 222.542 269.111 214.649C261.669 204.158 243.964 188.917 236.738 186.78C234.711 186.181 235.31 187.187 239.982 192.227C243.135 195.627 245.713 199.055 245.713 199.847C245.713 203.661 233.814 198.641 228.985 192.79C224.973 187.931 221.978 177.359 224.611 177.359C225.085 177.359 227.169 176.014 229.241 174.369C233.797 170.754 235.412 170.675 241.503 173.771C247.202 176.667 249.673 179.21 253.742 186.361L256.845 191.815L256.245 187.495C254.744 176.671 241.995 161.186 229.409 154.899C220.312 150.355 216.569 150.208 222.955 154.646C230.705 160.033 232.853 166.43 228.688 171.718C223.325 178.527 211.718 176.58 203.495 167.491C198.858 162.366 195.172 155.101 194.322 149.415C193.767 145.702 194.048 144.378 196.012 141.47C199.182 136.775 202.898 135.195 210.765 135.195C220.796 135.195 230.895 139.003 245.077 148.132C248.846 150.558 252.12 152.351 252.354 152.118C253.321 151.152 242.353 142.522 235.76 139.062C230.172 136.129 224.791 134.506 210.482 131.438C200.484 129.294 189.651 126.587 186.407 125.421C180.224 123.201 166.074 115.252 161.21 111.266C159.644 109.983 150.275 103.393 140.392 96.6233C130.509 89.8531 117.481 80.8848 111.441 76.6947C97.7048 67.1651 89.6176 62.2871 84.4873 60.4348C82.291 59.6423 79.7074 58.6613 78.747 58.2546C77.7867 57.8478 77 57.9385 77 58.4549Z" fill="#FF0000"/>
<path fill-rule="evenodd" clip-rule="evenodd" d="M251.201 5.32512C262.933 18.0246 268.984 35.3564 272.044 65.0229L272.714 71.5191L263.851 63.0211C258.877 58.2509 252.358 53.1329 248.994 51.357C245.698 49.616 233.357 44.9977 221.571 41.096C199.399 33.7544 186.335 27.6969 171.665 17.9547C167.594 15.2513 164.118 13.1835 163.941 13.3614C163.763 13.5383 166.819 17.2521 170.731 21.6135C179.23 31.0889 182.54 37.5321 182.553 44.63C182.569 52.9141 178.765 54.6431 164.169 52.984C148.416 51.1931 139.76 46.7217 120.617 30.4863C115.128 25.831 110.637 22.2771 110.637 22.5899C110.637 23.3685 118.005 34.2491 123.467 41.5368C125.938 44.8348 135.84 55.2767 145.47 64.7411C155.1 74.2065 162.753 82.1768 162.477 82.4537C161.758 83.1713 147.126 79.5574 140.098 76.9269C129.624 73.0062 119.855 61.8438 117.57 51.1871L116.496 46.1761L105.824 43.6775C85.2972 38.8724 74.4614 37.6161 54.8746 37.774C33.3388 37.9479 20.545 39.3011 9.67317 42.5562C-3.05271 46.3669 -3.14961 46.9686 8.95391 47.0036C17.3123 47.0266 20.8796 47.4913 25.2411 49.1243C32.7244 51.9257 43.3345 59.1834 53.8856 68.7178C62.4058 76.4182 69.2737 80.9246 87.1053 90.5159C97.3777 96.0407 102.803 100.711 109.413 109.717C111.99 113.228 114.265 115.597 114.47 114.982C114.675 114.367 113.435 111.002 111.714 107.505C106.303 96.5084 90.393 81.1714 71.3376 68.5828C62.5766 62.7953 59.1012 59.5402 55.7996 54.0294C52.9306 49.2412 53.1563 47.3324 56.8585 45.0797C61.6186 42.1834 66.2538 41.8096 76.1726 43.5226C92.0423 46.263 103.137 53.4717 111.683 66.595C119.68 78.8738 134.115 86.4333 157.227 90.445C171.146 92.8615 174.313 94.3317 194.849 107.905C205.399 114.878 214.703 120.994 215.524 121.497C216.345 121.999 215.303 120.023 213.207 117.104C211.112 114.187 209.545 111.652 209.725 111.473C210.338 110.858 249.235 120.805 252.115 122.313C258.928 125.881 268.775 139.979 264.453 139.979C263.89 139.979 260.968 139.113 257.96 138.056C247.972 134.544 251.318 137.467 269.07 147.765L276.157 151.878L276.791 181.158C277.139 197.261 277.883 215.16 278.442 220.931C280.411 241.235 284.245 262.088 286.408 264.256C286.873 264.722 287.953 262.698 288.806 259.758C293.323 244.195 296.294 215.307 297.14 178.719C297.665 156.001 297.996 151.799 299.35 150.67C300.225 149.941 305.211 146.939 310.431 143.999C321.412 137.816 320.921 138.148 320.186 137.412C319.874 137.1 317.239 137.551 314.33 138.416C306.907 140.621 306.174 139.327 310.934 132.415C317.376 123.057 319.243 122.111 342.78 116.29C354.343 113.429 363.937 111.224 364.101 111.388C364.265 111.551 362.824 113.666 360.9 116.088C358.976 118.509 357.398 120.834 357.393 121.253C357.387 121.673 365.549 116.557 375.532 109.885C385.514 103.212 395.74 96.7243 398.259 95.467C400.776 94.2088 408.547 92.009 415.528 90.5769C444.137 84.7064 452.1 80.216 464.244 63.1061C472.419 51.5889 483.389 45.5864 500.956 43.0169C508.326 41.9386 509.371 42.0065 513.521 43.8434C520.054 46.7347 520.794 48.7455 517.31 54.1434C514.461 58.5568 509.848 63.217 505.23 66.3452C503.857 67.2756 499.768 70.053 496.144 72.5155C486.638 78.9757 473.517 90.7698 467.979 97.8316C463.308 103.787 457.577 114.625 458.572 115.62C458.846 115.895 461.587 112.774 464.663 108.685C471.631 99.4237 476.102 95.7728 488.747 89.0228C503.472 81.1634 511.441 75.8046 520.832 67.4445C531.272 58.152 542.865 50.5025 549.493 48.5337C552.478 47.6472 558.654 47.0216 564.601 47.0036C571.798 46.9816 574.171 46.6888 572.944 45.9732C570.278 44.4181 559.92 41.2779 553.498 40.0766C545.258 38.5356 512.962 36.8545 505.23 37.5641C493.495 38.6415 477.939 41.137 467.02 43.6935C456.691 46.1121 456.281 46.31 456.271 48.8695C456.259 52.1445 452.305 60.8214 448.627 65.6466C444.371 71.2273 437.614 75.8386 430.404 78.0793C421.985 80.6957 411.327 82.9584 411.327 82.1289C411.327 81.7771 418.32 74.5233 426.866 66.0104C435.413 57.4974 444.795 47.6082 447.715 44.0353C454.118 36.2009 462.275 24.3309 462.275 22.8478C462.275 22.2571 460.14 23.7603 457.529 26.1878C443.99 38.7794 430.341 48.0839 421.72 50.5984C413.764 52.9191 400.506 54.1514 396.145 52.977C391.392 51.6968 389.949 49.0554 390.671 42.9549C391.48 36.129 395.173 29.5518 402.866 21.2397C406.562 17.2451 409.348 13.7382 409.056 13.4473C408.765 13.1555 406.484 14.4767 403.988 16.3826C393.072 24.7187 375.677 33.0378 354.21 40.1896C323.426 50.4455 320.735 51.8297 308.183 63.8766L301.44 70.3478V66.7579C301.44 61.1242 303.384 48.2668 305.513 39.8288C309.096 25.6202 315.73 12.6678 323.768 4.1818C327.445 0.301083 327.574 0.0142504 324.916 1.64329C314.09 8.27738 301.229 20.6521 294.945 30.4783C291.228 36.2919 287.5 45.3306 287.406 48.7575C287.38 49.733 286.086 47.1115 284.533 42.932C282.979 38.7514 280.013 32.68 277.941 29.4399C271.758 19.7686 258.592 7.03112 247.995 0.467984C245.87 -0.84824 246.802 0.562925 251.201 5.32512ZM205.954 49.3512C203.624 51.357 203.345 52.1675 203.923 55.2527C204.687 59.3253 208.362 66.616 212.167 71.6081C214.818 75.084 216.528 75.2809 216.528 72.1098C216.528 68.8597 222.392 62.0677 227.194 59.7571C233.121 56.9037 234.753 54.4652 232.071 52.4713C228.875 50.0977 224.924 50.7374 220.891 54.2793C218.857 56.0652 217.042 57.0776 216.857 56.528C215.95 53.8375 212.42 49.0424 210.647 48.0939C209.043 47.2344 208.13 47.4793 205.954 49.3512ZM362.121 48.1169C361.156 48.6796 359.461 50.9143 358.355 53.084C357.248 55.2527 356.074 57.0277 355.746 57.0277C355.418 57.0277 353.613 55.6785 351.735 54.0294C347.765 50.5405 343.529 50.1237 340.957 52.9671C338.726 55.4336 339.602 56.7868 344.963 59.1594C349.966 61.3731 355.989 67.9482 356.927 72.2187L357.577 75.182L360.012 72.8943C363.44 69.6722 369.37 57.3895 369.37 53.5107C369.37 51.1601 368.689 49.8149 366.908 48.6476C364.048 46.7727 364.367 46.8077 362.121 48.1169ZM186.226 54.696C185.86 55.0618 185.56 57.1226 185.56 59.2743V63.187L182.195 61.1073C177.549 58.234 173.57 58.3119 173.577 61.2752C173.586 65.1209 176.69 68.7298 187.911 77.9453C195.759 84.3905 202.333 88.693 211.709 93.5211C218.834 97.19 224.843 100.011 225.063 99.7925C225.283 99.5726 223.701 96.0297 221.548 91.9191C216.763 82.7825 207.244 71.2103 202.328 68.5509L198.687 66.582L194.208 69.8001C191.744 71.5701 189.526 73.0182 189.279 73.0182C189.031 73.0182 189.891 70.9185 191.19 68.352C194.027 62.7453 194.229 57.9511 191.724 55.6835C189.835 53.9735 187.388 53.5337 186.226 54.696ZM381.831 55.4236C379.287 57.2855 379.547 63.9806 382.348 68.7298C384.842 72.9603 384.512 73.7068 381.261 71.1823C376.297 67.3286 374.65 66.8759 371.053 68.38C366.735 70.1839 357.047 82.0969 351.581 92.3219C346.597 101.644 346.499 101.636 362.378 93.2903C374.136 87.1099 376.193 85.6878 388.676 75.104C397.118 67.9472 400.338 63.9346 400.338 60.5756C400.338 58.2869 394.175 58.5857 391.075 61.0253C387.801 63.6018 386.982 63.5488 387.698 60.8054C389.15 55.2537 386.006 52.3694 381.831 55.4236ZM237.057 63.3639C231.174 67.6674 245.759 87.6306 256.237 89.6154C259.783 90.2871 260.491 91.5873 257.735 92.3678C253.56 93.5501 243.794 94.0588 241.518 93.2123L239.038 92.2899L241.329 91.5623C245.059 90.378 243.345 85.4839 237.023 79.2646C231.517 73.8497 227.336 72.4426 226.125 75.5987C224.214 80.5808 227.67 91.6253 233.41 98.875C236.697 103.029 247.674 110.996 250.107 110.996C251.738 110.996 251.928 107.684 250.458 104.933C248.54 101.348 251.155 102.966 256.623 108.747C259.611 111.907 265.187 119.432 269.012 125.467L275.967 136.441L276.746 122.291C277.468 109.166 277.341 107.331 274.998 96.9421C273.607 90.7818 272.47 84.4985 272.47 82.9784C272.47 79.7063 264.546 71.9479 254.988 65.8605C250.084 62.7383 248.075 62.0417 243.941 62.0347C241.162 62.0287 238.064 62.6274 237.057 63.3639ZM323.418 62.8442C315.55 66.4111 301.44 78.3721 301.44 81.4743C301.44 82.7185 300.342 89.1307 299 95.7229C296.811 106.476 296.631 109.136 297.252 121.595L297.944 135.481L304.437 125.052C308.009 119.314 313.339 112.006 316.283 108.811C321.596 103.043 324.315 101.374 322.896 104.75C321.098 109.031 321.152 110.996 323.069 110.996C325.384 110.996 331.619 106.944 336.736 102.116C347.163 92.2759 351.695 74.0176 343.709 74.0176C339.904 74.0176 330.41 83.9948 330.41 87.9934C330.41 89.7214 331.07 91.0466 332.131 91.4544C335.934 92.9145 330.889 94.0448 323.418 93.4062C313.729 92.5787 311.638 91.0936 317.68 89.3316C325.104 87.1659 333.637 78.45 337.346 69.2445C338.511 66.3552 338.457 65.7405 336.881 63.9976C335.527 62.5014 333.865 62.0417 330.006 62.0947C327.207 62.1337 324.242 62.4705 323.418 62.8442Z" fill="white"/>
</mask>
<g mask="url(#mask0_439_10181)">
<path fill-rule="evenodd" clip-rule="evenodd" d="M32.4989 -150.609C1.72697 -143.098 -20.913 -110.014 -22.711 -69.9298C-23.46 -53.2343 -21.996 -43.8773 -15.765 -25.5413C-11.04 -11.6339 -10.641 -9.71249 -10.268 0.950025C-9.83102 13.4349 -10.687 17.8555 -16.853 34.9389C-25.522 58.9551 -24.872 87.5737 -15.099 112.168C-11.094 122.245 -9.68602 131.004 -10.189 142.718C-10.544 151.02 -11.269 154.325 -15.27 165.896C-21.626 184.279 -23.37 194.959 -22.698 211.381C-22.122 225.453 -20.057 234.81 -13.871 251.368C-10.645 260.004 -10.51 260.926 -10.511 274.361L-10.512 288.356L-15.266 301.852C-20.929 317.931 -22.998 328.791 -23 342.457C-23.005 384.796 0.60097 420.654 33.5639 428.379C41.3619 430.207 50.4979 429.913 63.4989 427.417C73.6709 425.464 86.2769 425.458 96.4989 427.403C110.384 430.044 116.806 430.212 126.544 428.19C138.686 425.671 158.383 425.66 170.392 428.167C180.267 430.23 186.087 430.07 200.999 427.326C212.077 425.287 227.863 425.704 239.999 428.354C248.316 430.17 256.415 429.911 269.499 427.41C279.696 425.461 292.302 425.461 302.499 427.41C315.922 429.976 323.75 430.22 332.534 428.346C345.047 425.677 359.85 425.283 370.999 427.322C386.421 430.143 390.643 430.2 404.949 427.782C419.768 425.276 432.749 425.42 445.498 428.231C454.613 430.242 461.316 430.204 470.79 428.089C481.309 425.742 503.687 425.742 514.206 428.089C531.594 431.97 546.955 428.459 561.977 417.171C577.513 405.496 591.217 380.687 593.559 359.997C593.942 356.608 594.648 353.835 595.127 353.835C595.606 353.835 595.998 348.185 595.998 341.28C595.998 334.375 595.609 328.966 595.133 329.26C594.657 329.554 593.965 327.218 593.596 324.07C593.227 320.922 590.628 311.599 587.821 303.351C583.352 290.221 582.657 287.083 582.227 278.113C581.646 265.982 582.868 258.772 587.581 246.54C589.452 241.685 591.716 233.813 592.612 229.046C593.509 224.279 594.637 219.598 595.12 218.643C596.256 216.398 596.27 193.887 595.136 193.887C594.661 193.887 593.983 191.421 593.629 188.406C593.002 183.077 591.004 176.324 585.49 160.898C583.473 155.256 582.675 150.753 582.264 142.701C581.624 130.125 582.74 123.368 587.492 111.069C589.345 106.273 591.621 98.3152 592.551 93.3858C593.481 88.4564 594.637 83.642 595.12 82.6873C596.258 80.4371 596.27 57.6455 595.133 58.3483C594.657 58.6422 593.985 56.4819 593.641 53.5488C592.944 47.6258 589.687 36.3465 585.379 24.9422C582.736 17.9445 582.549 16.478 582.582 2.94937L582.618 -11.5459L587.258 -24.2168C589.81 -31.1855 592.47 -40.5194 593.169 -44.96C593.868 -49.3995 594.79 -53.0323 595.219 -53.0323C595.647 -53.0323 595.998 -58.6825 595.998 -65.5872C595.998 -73.7026 595.644 -77.9232 594.998 -77.5243C594.419 -77.1665 593.998 -78.1271 593.998 -79.8046C593.998 -84.0472 590.423 -97.5358 587.316 -105.015C582.552 -116.486 576.766 -125.241 568.488 -133.506C552.602 -149.369 533.714 -155.08 512.813 -150.342C507.953 -149.24 500.967 -148.683 491.998 -148.683C483.029 -148.683 476.043 -149.24 471.183 -150.342C461.896 -152.447 453.1 -152.447 443.813 -150.342C433.911 -148.096 412.085 -148.096 402.183 -150.342C392.937 -152.438 385.11 -152.444 375.814 -150.362C365.826 -148.125 343.976 -148.112 334.184 -150.338C324.902 -152.447 316.106 -152.448 306.814 -150.342C301.954 -149.24 294.968 -148.683 285.999 -148.683C277.03 -148.683 270.044 -149.24 265.184 -150.342C261.16 -151.253 255.002 -152 251.499 -152C247.996 -152 241.838 -151.253 237.814 -150.342C232.954 -149.24 225.968 -148.683 216.999 -148.683C208.03 -148.683 201.044 -149.24 196.184 -150.342C186.897 -152.447 178.101 -152.447 168.814 -150.342C158.912 -148.096 137.086 -148.096 127.184 -150.342C117.938 -152.438 110.11 -152.444 100.814 -150.362C90.7259 -148.103 68.9939 -148.077 58.7909 -150.312C49.9269 -152.253 39.7079 -152.369 32.4989 -150.609ZM33.9179 -140.171C4.35097 -132.454 -16.629 -93.6531 -12.252 -54.7818C-10.845 -42.2878 -7.26202 -29.543 -3.60002 -24.0118C1.83897 -15.7955 12.887 -12.9844 31.9449 -14.9688C47.0569 -16.5413 48.9139 -17.0491 51.3139 -20.262L53.3319 -22.9642L50.7289 -31.7503C46.9159 -44.6231 45.9989 -50.991 45.9989 -64.6016C45.9989 -78.7619 47.8419 -89.7803 52.1459 -101.345C59.3599 -120.732 59.2339 -120.247 58.7209 -126.758C57.6599 -140.236 50.0129 -144.37 33.9179 -140.171ZM108.269 -140.521C106.492 -139.749 104.174 -137.696 103.117 -135.958C98.8549 -128.953 99.7369 -120.386 106.505 -103.053C108.536 -97.8507 110.826 -89.9783 111.594 -85.5587C112.361 -81.1402 113.296 -75.7249 113.672 -73.5256C114.318 -69.7389 114.396 -69.9088 115.146 -76.7366C116.34 -87.61 118.601 -96.2462 123.176 -107.415C129.786 -123.549 128.914 -135.038 120.7 -140.044C116.958 -142.326 112.789 -142.485 108.269 -140.521ZM176.181 -139.974C174.123 -138.719 172.082 -136.187 170.808 -133.307C167.96 -126.871 168.754 -119.91 173.76 -107.44C178.614 -95.3445 181.001 -86.0356 181.735 -76.3297C182.041 -72.291 182.413 -69.1081 182.563 -69.258C182.713 -69.408 183.343 -73.2347 183.963 -77.7623C185.468 -88.7487 188.452 -99.855 192.003 -107.683C195.812 -116.083 197.087 -123.17 195.914 -129.438C194.731 -135.762 192.684 -138.82 188.453 -140.588C183.779 -142.539 180.088 -142.355 176.181 -139.974ZM246.417 -141.035C243.21 -139.738 239.152 -134.339 238.409 -130.379C237.288 -124.406 238.621 -116.949 242.47 -107.652C248.405 -93.3192 250.126 -85.2538 250.712 -69.0271C251.274 -53.4382 249.946 -43.0076 245.784 -30.3348C243.443 -23.2041 244.009 -20.393 248.359 -17.5439C250.557 -16.1044 251.177 -16.0914 254.369 -17.425C259.353 -19.5073 259.736 -22.1944 256.633 -33.2928C251.618 -51.2329 250.712 -66.174 253.616 -83.0965C255.071 -91.5787 256.368 -95.7894 263.053 -113.738C265.532 -120.39 265.553 -129.191 263.104 -134.582C260.343 -140.659 252.749 -143.596 246.417 -141.035ZM314.191 -140.384C307.121 -136.781 304.837 -124.413 309.139 -113.013C318.03 -89.4464 320.006 -80.5593 319.991 -64.2067C319.982 -53.6171 318.756 -45.4218 315.365 -33.2928C312.418 -22.7552 312.722 -19.7552 316.957 -17.5659C320.556 -15.7055 324.137 -16.7992 326.563 -20.5C328.386 -23.2821 328.388 -23.2671 324.389 -36.5377C321.878 -44.868 321.672 -46.9053 321.608 -64.0287C321.53 -84.8489 322.679 -91.1549 329.567 -107.699C335.536 -122.037 335.362 -132.41 329.052 -138.453C325.37 -141.98 318.958 -142.813 314.191 -140.384ZM383.451 -140.598C374.713 -136.793 373.18 -122.738 379.884 -107.904C383.621 -99.6361 386.61 -88.6737 388.03 -78.0262C388.653 -73.3537 389.283 -69.409 389.431 -69.262C389.579 -69.1141 389.988 -72.487 390.341 -76.7576C391.15 -86.5714 393.75 -96.4721 398.614 -108.259C404.835 -123.334 403.753 -135.136 395.699 -140.044C392.002 -142.298 387.792 -142.488 383.451 -140.598ZM451.297 -140.103C442.828 -134.787 442.027 -122.892 449.059 -106.875C452.877 -98.1796 455.925 -86.5364 456.703 -77.6733C457.388 -69.8848 458.431 -70.6616 459.41 -79.6876C460.294 -87.839 463.299 -98.4615 467.691 -108.961C473.41 -122.629 472.51 -135.003 465.463 -139.619C461.474 -142.232 455.038 -142.451 451.297 -140.103ZM521.416 -141.035C517.816 -139.579 514.159 -134.259 513.433 -129.424C512.423 -122.691 513.42 -117.663 518.053 -106.118C524.559 -89.9063 526.298 -79.6386 525.686 -61.0297C525.265 -48.2199 524.708 -43.8893 522.469 -36.0379C518.538 -22.2484 518.57 -22.6513 521.163 -19.6372C523.305 -17.1481 524.552 -16.7932 536 -15.4116C557.435 -12.8245 569.217 -15.2227 575.125 -23.377C582.188 -33.1238 586.253 -56.5762 584.175 -75.598C582.833 -87.8869 578.229 -102.632 572.897 -111.718C567.664 -120.636 554.79 -133.089 546.97 -136.798C536.915 -141.566 526.856 -143.235 521.416 -141.035ZM72.4989 -111.494C61.7689 -106.107 55.0779 -84.761 56.2499 -59.6522C57.0679 -42.1369 61.5249 -27.5737 70.1029 -14.395C77.2639 -3.39056 82.1169 -3.53051 89.5089 -14.9538C99.7859 -30.8356 103.479 -45.7507 102.746 -68.4123C101.977 -92.2045 96.8919 -106.468 87.5719 -110.978C82.5999 -113.385 76.6679 -113.588 72.4989 -111.494ZM141.48 -111.619C130.613 -106.886 124.332 -87.0972 125.264 -60.5299C125.661 -49.2396 126.273 -44.805 128.431 -37.5864C131.602 -26.9809 138.017 -14.228 142.653 -9.31463C145.541 -6.25363 146.402 -5.87574 149.237 -6.42856C153.226 -7.20531 156.523 -11.0211 161.868 -21.0428C168.183 -32.8819 171.084 -44.2232 171.713 -59.5302C172.803 -86.0376 166.163 -107.124 155.297 -111.662C151.248 -113.354 145.419 -113.336 141.48 -111.619ZM209.167 -110.867C203.77 -108.197 200.881 -103.815 197.63 -93.3662C189.388 -66.8838 194.171 -32.622 208.953 -12.2597C215.253 -3.5815 220.09 -4.27227 227.047 -14.8408C239.788 -34.1965 244.326 -64.4156 238.12 -88.5877C234.483 -102.756 231.618 -107.637 224.944 -111.041C219.93 -113.599 214.567 -113.54 209.167 -110.867ZM277.969 -110.763C272.438 -107.97 269.685 -103.913 266.516 -93.883C261.439 -77.8162 260.916 -58.4186 265.088 -40.8693C268.928 -24.7126 280.137 -6.04769 285.999 -6.04769C291.931 -6.04769 302.958 -24.5406 307.158 -41.5361C312.298 -62.3303 308.546 -95.4255 299.787 -106.558C297.13 -109.935 290.623 -112.962 285.961 -112.991C284.015 -113.003 280.419 -112 277.969 -110.763ZM347.383 -111.1C342.15 -108.725 338.749 -104.229 335.973 -96.0183C327.02 -69.5359 330.67 -36.5357 344.951 -14.8408C349.521 -7.89909 353.204 -5.34292 356.933 -6.52654C359.807 -7.43824 365.489 -15.1437 369.625 -23.7379C379.84 -44.966 381.205 -73.9345 373.089 -97.3069C370.392 -105.075 367.822 -108.437 362.676 -110.927C357.375 -113.493 352.768 -113.545 347.383 -111.1ZM416.479 -111.619C409.373 -108.524 403.728 -97.2909 400.91 -80.6393C399.244 -70.7915 400.264 -49.5365 402.884 -39.5367C405.236 -30.5547 412.474 -15.3187 416.87 -10.0964C419.233 -7.28929 420.473 -6.6475 423.537 -6.6475C426.596 -6.6475 427.834 -7.28529 430.147 -10.0554C434.53 -15.3047 440.599 -27.6896 443.637 -37.5864C446.172 -45.8467 446.388 -47.878 446.441 -64.0287C446.491 -79.2598 446.202 -82.6037 444.213 -89.8783C441.502 -99.7931 439.194 -104.558 435.34 -108.2C430.258 -113.003 422.771 -114.36 416.479 -111.619ZM484.011 -110.738C474.877 -105.91 468.998 -88.1399 468.998 -65.3583C468.998 -44.756 473.138 -28.9122 482.093 -15.2457C487.131 -7.5552 489.789 -5.62283 494.041 -6.55652C499.506 -7.75713 508.833 -24.0618 513.045 -39.7807C518.64 -60.6608 515.103 -95.6094 506.341 -106.019C500.543 -112.908 491.664 -114.784 484.011 -110.738ZM-22.612 -64.5286C-22.611 -57.3809 -22.451 -54.5878 -22.259 -58.3226C-22.066 -62.0564 -22.067 -67.9045 -22.262 -71.3184C-22.456 -74.7312 -22.614 -71.6762 -22.612 -64.5286ZM182.138 -56.965C181.936 -50.3382 180.289 -41.751 177.318 -31.8333C174.828 -23.521 174.787 -23.0151 176.407 -20.543C181.209 -13.2163 191.026 -16.8042 189.712 -25.4054C189.449 -27.1298 188.092 -33.0389 186.696 -38.5371C185.301 -44.0353 183.736 -51.4579 183.218 -55.0317C182.327 -61.1857 182.27 -61.2876 182.138 -56.965ZM389.129 -59.5302C387.262 -46.3585 385.723 -38.3011 384.068 -33.0389C380.941 -23.0941 381.345 -19.9501 386.064 -17.5099C389.567 -15.6995 393.167 -16.8452 395.591 -20.543C397.211 -23.0151 397.169 -23.52 394.67 -31.8333C391.243 -43.2385 390.938 -44.6501 390.035 -53.2463C389.615 -57.252 389.207 -60.08 389.129 -59.5302ZM113.746 -57.031C113.393 -55.6565 112.81 -51.8377 112.45 -48.5438C112.09 -45.2509 110.716 -38.833 109.397 -34.2835C106.472 -24.1918 106.391 -20.9028 109.012 -18.5316C111.394 -16.3773 116.218 -16.1514 118.55 -18.0858C121.932 -20.8918 122.171 -23.8709 119.622 -31.4564C117.492 -37.7973 115.626 -47.2832 114.691 -56.5312C114.395 -59.4532 114.371 -59.4662 113.746 -57.031ZM456.66 -51.8007C456.312 -47.805 454.849 -40.4864 453.409 -35.5381C451.97 -30.5897 450.776 -25.2664 450.756 -23.7089C450.675 -17.461 459.267 -14.189 463.154 -18.9875C465.513 -21.9005 465.464 -24.9785 462.929 -33.0389C461.805 -36.6127 460.249 -43.7604 459.471 -48.9217C458.692 -54.083 457.884 -58.4776 457.675 -58.6865C457.466 -58.8964 457.009 -55.7974 456.66 -51.8007ZM38.8549 -4.53218C33.3349 -1.53416 33.4459 7.97573 39.0359 10.9668C42.5939 12.8701 55.5419 11.7245 62.4989 8.89143C67.4919 6.8581 68.5509 6.00337 68.8059 3.7961C69.1949 0.438192 66.6479 -1.44219 58.1439 -4.07833C50.7249 -6.37758 42.6049 -6.56851 38.8549 -4.53218ZM102.999 -4.69114C94.8189 -2.47086 90.4989 0.17028 90.4989 2.94937C90.4989 5.0027 91.5619 5.97939 96.4509 8.42059C101.524 10.9538 103.811 11.4476 111.951 11.7705C119.811 12.0814 122.648 11.7615 127.999 9.96208C137.866 6.64316 140.751 2.76744 135.749 -0.45151C128.013 -5.42988 112.918 -7.38426 102.999 -4.69114ZM169.729 -4.1533C161.982 -1.60214 158.999 0.48018 158.999 3.33525C158.999 5.23163 160.185 6.22331 165.249 8.56055C170.992 11.2127 172.432 11.4466 182.999 11.4466C193.777 11.4466 194.876 11.2587 200.499 8.44758C204.833 6.28128 206.588 4.81876 206.821 3.1803C207.095 1.25193 206.121 0.434199 200.321 -2.28091C194.505 -5.00302 192.172 -5.51687 184.499 -5.76378C177.733 -5.98171 174.067 -5.58184 169.729 -4.1533ZM237.676 -3.67246C225.139 0.598147 224.165 4.85375 234.745 9.12436C239.611 11.0887 242.273 11.4456 251.999 11.4396C261.919 11.4336 264.216 11.1097 268.718 9.08137C271.588 7.78779 274.437 6.12534 275.05 5.38658C276.826 3.24828 275.282 0.458182 271.239 -1.50018C260.75 -6.58052 248.535 -7.37125 237.676 -3.67246ZM309.999 -4.99004C303.589 -3.17463 297.037 0.255251 296.45 2.10465C295.593 4.80376 296.657 5.90041 302.877 8.72649C311.164 12.4913 325.233 13.0301 334.528 9.93709C338.221 8.7085 342.121 6.8261 343.194 5.75345C344.936 4.01202 344.992 3.56817 343.718 1.62681C341.282 -2.08598 331.601 -5.34392 321.999 -5.68181C317.324 -5.84676 311.924 -5.53486 309.999 -4.99004ZM377.999 -4.69114C369.819 -2.47086 365.499 0.17028 365.499 2.94937C365.499 4.9997 366.559 5.97739 371.403 8.3966C381.495 13.437 397.496 13.183 408.748 7.80278C411.969 6.26229 412.998 5.19963 412.998 3.41621C412.998 -3.35557 391.459 -8.34594 377.999 -4.69114ZM446.03 -4.44721C438.193 -2.3419 434.498 0.0463201 434.498 3.00535C434.498 4.9917 435.62 6.00937 440.498 8.44758C446.121 11.2587 447.22 11.4466 457.998 11.4466C468.776 11.4466 469.875 11.2587 475.498 8.44758C485.185 3.60516 484.042 0.344228 471.135 -4.00235C463.943 -6.42456 454.043 -6.59951 446.03 -4.44721ZM513.728 -4.09633C505.398 -1.4352 502.81 0.494178 503.188 3.76211C503.447 6.01038 504.477 6.8471 509.498 8.89143C517.172 12.0174 529.852 12.9271 533.395 10.6069C538.63 7.17699 538.411 -1.75009 533.022 -4.53518C529.123 -6.55152 520.819 -6.36259 513.728 -4.09633ZM73.0179 16.6949C68.4359 22.1881 61.2859 37.2542 58.9039 46.4352C56.2499 56.6638 55.3619 74.0991 56.9359 85.0445C59.1439 100.387 65.9139 117.19 73.2559 125.549C77.3169 130.173 81.9069 130.212 86.1129 125.659C89.9729 121.482 97.4499 106.411 100.124 97.4185C102.785 88.4694 103.816 65.294 102.042 54.3006C99.8309 40.6001 92.5769 23.3057 86.0389 16.1501C81.7669 11.4746 77.2139 11.6645 73.0179 16.6949ZM143.389 14.6955C139.893 18.1844 133.998 28.3211 131.109 35.8096C126.079 48.8474 124.666 58.2923 125.266 74.8689C125.881 91.9013 128.503 102.482 135.242 115.134C140.841 125.644 143.952 128.908 148.371 128.908C152.43 128.908 153.954 127.586 159.148 119.555C168.314 105.387 172.506 87.8366 171.718 66.9285C171.127 51.2266 168.895 41.6077 163.019 29.4407C157.706 18.4393 152.868 12.9461 148.493 12.9461C146.636 12.9461 144.36 13.7259 143.389 14.6955ZM210.87 16.195C206.981 20.3847 198.555 37.673 196.56 45.5574C191.429 65.8298 193.018 90.1469 200.659 108.296C203.824 115.814 210.66 126.657 213.035 127.928C216.959 130.027 220.712 129.078 223.98 125.159C228.484 119.759 235.668 104.714 238.18 95.4192C241.314 83.8239 241.314 58.0304 238.18 46.4352C235.668 37.1402 228.484 22.0951 223.98 16.6949C219.771 11.6485 215.25 11.4766 210.87 16.195ZM279.217 16.6949C266.7 32.5987 260.19 58.4672 262.881 81.6087C264.853 98.5671 271.195 115.63 279.083 125.195C281.623 128.276 282.783 128.908 285.897 128.908C290.419 128.908 292.235 127.177 297.949 117.412C303.456 108.001 307.808 94.0166 309.203 81.2508C311.719 58.2123 305.126 32.2678 292.798 16.6949C290.294 13.5309 289.233 12.9461 285.999 12.9461C282.762 12.9461 281.709 13.5279 279.217 16.6949ZM348.018 16.6949C343.514 22.0951 336.33 37.1402 333.818 46.4352C332.013 53.113 331.656 57.1547 331.656 70.9272C331.656 90.2069 333.204 97.5884 340.371 112.477C346.285 124.764 350 128.908 355.096 128.908C358.514 128.908 359.368 128.392 362.126 124.66C366.43 118.836 373.518 103.711 375.418 96.2969C379.331 81.0359 379.339 60.9674 375.438 45.5574C373.434 37.636 364.985 20.2107 361.169 16.1271C356.818 11.4716 352.209 11.6705 348.018 16.6949ZM416.614 17.0797C411.793 22.7099 405.487 35.7587 402.91 45.4355C399.877 56.8248 399.198 77.3851 401.459 89.3961C404.177 103.841 411.587 120.371 418.388 127.159C420.424 129.191 425.896 129.469 428.219 127.659C431.104 125.41 437.872 113.863 440.878 106.06C445.173 94.9093 446.998 84.6287 446.998 71.5799C446.998 52.4712 442.495 35.2028 434.147 22.2991C428.998 14.3377 427.414 12.9461 423.504 12.9461C420.814 12.9461 419.456 13.7608 416.614 17.0797ZM486.368 15.6802C479.976 22.575 472.364 40.1422 470.006 53.4439C468.341 62.8318 469.178 87.2448 471.462 95.919C473.67 104.304 481.991 121.482 485.869 125.659C490.162 130.284 494.674 130.18 498.909 125.357C503.315 120.342 509.538 107.511 512.567 97.2006C517.274 81.1778 516.969 58.7991 511.814 42.0506C509.093 33.2105 503.309 21.6673 499.192 16.8578C494.928 11.8784 490.287 11.4526 486.368 15.6802ZM13.999 20.9385C6.42897 21.9372 2.03697 23.9955 -1.76902 28.3291C-13.765 41.9876 -16.321 81.0559 -6.81202 105.416C-1.35803 119.388 8.92096 123.135 33.9989 120.291C47.1409 118.801 48.7179 118.41 50.8389 116.119C53.5049 113.24 53.4719 112.854 49.3989 99.4179C46.8519 91.0116 46.6699 89.1732 46.6279 71.427C46.5859 53.5278 46.7439 51.8854 49.3649 42.9363C53.5229 28.7399 53.5519 28.4031 50.8539 25.7069C48.4799 23.3347 47.5769 23.1698 22.4989 20.5286C20.8489 20.3547 17.024 20.5386 13.999 20.9385ZM544.498 20.9735C541.198 21.3414 535.142 22.0091 531.04 22.456C520.123 23.6456 517.048 27.3134 520.335 35.2208C524.311 44.7827 525.499 53.2179 525.434 71.427C525.376 87.9306 525.145 90.2079 522.641 98.918C518.472 113.427 518.468 113.473 521.156 116.161C523.096 118.101 525.416 118.778 534.011 119.913C555.531 122.754 566.454 121.149 573.246 114.144C585.896 101.096 588.521 58.9311 578.182 34.86C573.514 23.9925 561.573 19.0691 544.498 20.9735ZM109.188 24.9812C106.391 27.5853 106.435 29.9655 109.474 40.4461C110.835 45.1416 112.25 52.0083 112.619 55.7061C113.505 64.5872 114.85 68.0931 114.936 61.7452C115.013 56.056 117.32 44.6228 120.079 36.2545C121.948 30.5893 121.991 29.8256 120.596 27.1285C118.17 22.44 112.968 21.4603 109.188 24.9812ZM179.228 23.6116C178.529 23.8935 177.265 25.462 176.418 27.0975C175.001 29.8366 175.043 30.5624 176.942 36.2685C179.586 44.2089 181.999 56.8158 181.999 62.6849C181.999 69.4007 182.706 67.5823 184.047 57.4166C184.699 52.4762 186.304 44.7167 187.615 40.1722C188.926 35.6277 189.999 30.8702 189.999 29.5997C189.999 25.1011 183.923 21.7232 179.228 23.6116ZM246.454 25.397C243.483 28.3661 243.421 29.9465 245.979 37.3811C252.633 56.7138 252.656 85.1125 246.034 104.323C243.418 111.914 243.472 113.477 246.454 116.457C249.656 119.659 253.941 119.666 256.941 116.473C259.619 113.624 259.504 112.264 255.37 97.9183C252.85 89.1712 252.635 87.0399 252.652 70.9272C252.668 54.8424 252.891 52.6681 255.419 43.936C259.509 29.8066 259.637 28.2491 256.941 25.381C253.941 22.1881 249.656 22.1951 246.454 25.397ZM314.99 25.6809C312.498 28.8469 312.597 29.9495 316.628 43.936C319.149 52.6861 319.362 54.8094 319.344 70.9272C319.325 86.9649 319.092 89.2542 316.54 98.4182C312.473 113.03 312.407 114.008 315.309 116.734C318.666 119.886 323.561 119.406 326.354 115.652C328.202 113.165 328.285 112.471 327.186 108.654C322.287 91.6394 321.765 88.7813 321.267 76.2614C320.674 61.3453 321.951 50.2869 325.577 38.9386C328.576 29.5557 328.573 28.4241 325.544 25.397C322.161 22.0141 317.782 22.1321 314.99 25.6809ZM384.173 25.2561C381.423 28.1841 381.448 29.9995 384.383 40.1722C385.694 44.7167 387.298 52.4762 387.95 57.4166C389.291 67.5823 389.999 69.4007 389.999 62.6849C389.999 56.8388 392.408 44.2179 395.027 36.3515C396.568 31.724 396.823 29.6097 396.078 27.6513C394.179 22.6579 387.818 21.3783 384.173 25.2561ZM454.227 23.6116C453.528 23.8935 452.264 25.462 451.417 27.0975C450 29.8366 450.042 30.5623 451.941 36.2675C454.728 44.6397 456.953 55.4632 457.011 60.9304C457.076 67.0404 458.553 64.1804 459.334 56.4319C459.666 53.133 460.876 47.06 462.022 42.9363C465.453 30.5903 465.605 27.5843 462.923 25.0871C460.76 23.0718 457.109 22.453 454.227 23.6116ZM-22.616 70.9272C-22.616 77.7999 -22.456 80.612 -22.261 77.1751C-22.065 73.7392 -22.065 68.1161 -22.261 64.6792C-22.456 61.2433 -22.616 64.0544 -22.616 70.9272ZM182.13 79.0865C181.954 85.3345 179.479 97.9653 176.932 105.619C175.131 111.027 175.032 112.211 176.181 114.607C178.845 120.162 187.479 120.173 189.432 114.623C190.097 112.733 190.018 110.544 189.182 107.643C187.585 102.106 184.27 86.874 183.149 79.9242L182.262 74.426L182.13 79.0865ZM389.133 75.9255C388.414 83.3201 385.726 97.6434 384.068 102.917C382.944 106.491 382.019 110.652 382.012 112.164C381.976 119.792 393.326 121.439 396.078 114.203C396.82 112.251 396.571 110.119 395.062 105.517C392.279 97.0306 390.923 90.6587 390.038 81.9236C389.62 77.7999 389.213 75.1008 389.133 75.9255ZM113.802 78.9245C113.468 80.2991 112.653 85.0226 111.991 89.4211C111.328 93.8197 109.94 100.118 108.905 103.417C106.492 111.114 106.515 114.429 108.999 116.912C112.527 120.439 118.182 119.392 120.573 114.77C121.954 112.1 121.876 111.25 119.581 103.986C117.198 96.4448 115.376 87.4368 114.716 79.9242C114.442 76.8032 114.343 76.6953 113.802 78.9245ZM456.684 84.1039C456.341 88.1615 454.841 95.5151 453.35 100.448C451.859 105.379 450.659 110.733 450.684 112.346C450.773 118.121 458.808 121.101 462.998 116.912C465.599 114.312 465.52 111.746 462.523 101.408C461.162 96.7127 459.753 89.846 459.392 86.1482C458.442 76.4274 457.4 75.6406 456.684 84.1039ZM38.6549 130.977C33.2999 134.273 33.5419 143.581 39.0579 146.432C47.0329 150.555 68.0449 145.139 68.7999 138.766C69.0659 136.521 68.3669 135.894 62.7999 133.385C55.7569 130.211 42.1109 128.849 38.6549 130.977ZM100.371 131.69C86.2859 136.708 86.4479 141.467 100.854 145.933C111.88 149.35 128.242 147.666 135.806 142.337C139.659 139.622 138.308 136.81 131.526 133.424C126.285 130.808 124.325 130.407 115.526 130.153C107.791 129.93 104.327 130.281 100.371 131.69ZM169.371 131.69C155.286 136.708 155.448 141.467 169.854 145.933C180.88 149.35 197.242 147.666 204.806 142.337C208.659 139.622 207.308 136.81 200.526 133.424C195.285 130.808 193.325 130.407 184.526 130.153C176.791 129.93 173.327 130.281 169.371 131.69ZM236.568 132.32C225.14 136.212 224.44 140.031 234.341 144.482C244.876 149.22 259.529 148.954 270.44 143.826C275.361 141.514 277.05 138.528 274.743 136.222C273.94 135.418 270.273 133.669 266.595 132.334C257.484 129.028 246.25 129.023 236.568 132.32ZM310.499 130.639C300.684 133.086 295.261 136.818 296.569 140.226C297.674 143.104 309.018 147.223 317.152 147.699C329.644 148.431 344.88 143.501 344.984 138.694C345.022 136.926 340.34 133.972 334.42 132.029C328.219 129.994 315.946 129.28 310.499 130.639ZM375.371 131.69C365.321 135.27 362.35 139.154 367.249 142.306C375.769 147.788 391.035 149.375 402.143 145.933C415.002 141.946 416.281 138.294 406.525 133.424C401.284 130.808 399.324 130.407 390.526 130.153C382.791 129.93 379.327 130.281 375.371 131.69ZM444.37 131.69C430.285 136.708 430.447 141.467 444.853 145.933C455.879 149.35 472.241 147.666 479.805 142.337C483.658 139.622 482.307 136.81 475.525 133.424C470.284 130.808 468.324 130.407 459.525 130.153C451.79 129.93 448.326 130.281 444.37 131.69ZM511.888 132.283C503.408 135.275 502.998 135.558 502.998 138.407C502.998 141.46 505.888 143.463 513.853 145.933C525.7 149.603 534.721 148.003 536.867 141.849C538.175 138.099 536.322 132.686 533.148 130.988C529.646 129.114 519.035 129.761 511.888 132.283ZM76.4069 149.052C73.5779 150.423 66.5299 161.333 63.1149 169.626C57.7319 182.697 56.4899 189.886 56.5919 207.383C56.7029 226.309 58.3939 234.122 65.5059 248.566C73.1229 264.034 79.6999 268.616 85.2559 262.323C91.2569 255.527 97.0869 243.668 100.71 230.89C103.151 222.278 103.619 197.062 101.53 186.711C97.6509 167.496 85.9999 147.296 79.1839 147.97C78.8069 148.007 77.5579 148.494 76.4069 149.052ZM145.406 148.875C141.044 150.638 132.502 165.982 128.31 179.585C125.783 187.783 125.597 189.626 125.606 206.383C125.617 227.123 127.074 234.382 134.058 248.484C139.618 259.709 144.165 264.864 148.51 264.864C151.244 264.864 152.509 264.078 155.346 260.615C162.452 251.944 168.766 236.614 171.042 222.511C172.752 211.916 171.784 191.6 169.083 181.391C165.357 167.306 156.675 151.441 151.371 149.026C148.541 147.736 148.242 147.728 145.406 148.875ZM214.25 148.933C211.497 150.038 204.169 161.167 200.588 169.678C194.226 184.802 191.763 208.592 194.925 224.377C197.738 238.415 204.855 254.979 210.932 261.631C215.231 266.336 219.771 266.156 223.991 261.115C228.5 255.728 235.609 240.687 238.047 231.375C241.021 220.018 241.695 202.044 239.598 190.042C236.047 169.717 224.137 147.34 217.202 147.965C216.815 148 215.487 148.436 214.25 148.933ZM279.848 151.939C274.71 157.338 267.573 172.313 264.859 183.39C262.194 194.265 261.725 214.472 263.885 225.377C267.212 242.174 277.713 263.001 283.6 264.479C288.508 265.711 291.209 263.777 296.593 255.181C312.556 229.691 314.119 193.326 300.461 165.184C295.495 154.953 289.595 147.902 285.999 147.902C284.602 147.902 282.172 149.496 279.848 151.939ZM351.466 149.004C348.997 150.23 344.122 157.293 340.152 165.396C333.361 179.26 330.375 195.126 331.323 212.321C332.087 226.195 334.784 236.805 340.537 248.566C345.953 259.64 350.485 264.864 354.676 264.864C358.286 264.864 359.869 263.639 363.725 257.866C381.227 231.663 383.361 193.483 368.949 164.397C362.46 151.3 356.827 146.341 351.466 149.004ZM420.43 148.844C417.942 149.876 411.078 160.181 407.537 168.2C398.93 187.691 397.524 215.696 404.127 236.126C407.019 245.075 412.577 256.015 416.647 260.768C423.557 268.839 429.669 265.295 437.904 248.444C445.163 233.591 446.506 226.964 446.43 206.383C446.368 189.726 446.16 187.723 443.627 179.441C440.638 169.669 434.524 157.237 430.228 152.199C427.261 148.72 423.682 147.494 420.43 148.844ZM489.342 148.898C484.896 150.691 475.535 167.566 471.756 180.6C469.762 187.478 469.504 190.551 469.551 206.883C469.601 224.074 469.796 225.997 472.314 234.181C475.233 243.671 478.591 250.923 483.129 257.541C487.392 263.757 488.807 264.864 492.497 264.864C496.852 264.864 500.528 260.553 506.562 248.369C513.526 234.309 515.288 226.238 515.402 207.882C515.509 190.697 514.071 182.193 508.923 169.545C505.406 160.907 498.444 150.425 495.258 148.975C492.538 147.735 492.236 147.731 489.342 148.898ZM11.044 156.926C-0.419028 159.34 -6.05002 166.369 -10.017 183.21C-14.214 201.033 -13.664 218.612 -8.36102 236.065C-3.84702 250.922 2.22497 255.868 16.946 256.674C24.8989 257.11 42.5159 255.621 47.9679 254.051C49.3259 253.66 51.0999 252.161 51.9099 250.717C53.2529 248.326 53.1479 247.311 50.7279 239.234C46.9539 226.641 45.9979 220.109 46.0049 206.949C46.0109 193.617 46.9309 187.066 50.6199 174.061L53.2669 164.732L51.2839 162.065C49.6099 159.813 48.0729 159.214 41.3999 158.216C29.5659 156.443 16.059 155.869 11.044 156.926ZM534.498 157.542C518.732 159.73 517.536 161.24 521.391 174.086C525.062 186.317 525.998 192.882 525.998 206.383C525.998 220.109 525.071 226.547 521.269 239.234C518.849 247.311 518.744 248.326 520.087 250.717C521.859 253.874 523.561 254.415 536.551 255.95C562.692 259.039 573.417 255.054 578.981 240.188C583.371 228.458 584.388 222.041 584.339 206.383C584.298 193.436 583.93 190.024 581.643 181.404C578.129 168.163 575.011 163.235 567.821 159.559C560.764 155.951 550.457 155.328 534.498 157.542ZM108.999 160.898C106.476 163.42 106.492 166.702 109.068 174.893C110.192 178.467 111.748 185.615 112.526 190.776C113.305 195.937 114.113 200.332 114.322 200.541C114.531 200.751 114.98 197.639 115.319 193.625C115.659 189.612 117.156 182.295 118.647 177.362C121.798 166.942 121.967 163.624 119.487 160.885C117.107 158.256 111.635 158.263 108.999 160.898ZM176.999 161.626C174.622 164.646 174.62 164.621 178.416 177.392C179.887 182.341 181.362 189.883 181.694 194.154C182.026 198.425 182.431 201.785 182.594 201.622C182.757 201.461 183.564 196.842 184.387 191.359C185.211 185.877 186.805 178.467 187.929 174.893C189.053 171.319 189.979 167.158 189.986 165.646C190.017 159.121 181.133 156.37 176.999 161.626ZM245.993 161.633C243.588 164.689 243.584 164.638 247.566 178.892C249.61 186.209 250.336 191.486 250.727 201.884C251.303 217.178 250.228 226.232 246.295 239.234C243.85 247.315 243.744 248.325 245.088 250.717C247.145 254.382 251.377 255.726 254.804 253.803C259.318 251.27 259.694 248.116 256.667 238.176C250.991 219.541 250.576 197.91 255.539 179.392C259.547 164.442 259.571 164.134 256.946 161.342C253.709 157.897 248.831 158.026 245.993 161.633ZM315.052 161.342C312.427 164.134 312.451 164.442 316.459 179.392C321.442 197.983 321.023 219.065 315.29 238.176C312.308 248.12 312.693 251.277 317.194 253.803C320.621 255.726 324.853 254.382 326.91 250.717C328.253 248.325 328.148 247.313 325.716 239.234C321.595 225.55 320.7 218.164 321.262 202.52C321.663 191.393 322.336 186.37 324.428 178.892C328.414 164.644 328.41 164.689 326.005 161.633C323.167 158.026 318.289 157.897 315.052 161.342ZM384.056 160.841C381.395 163.501 381.464 166.018 384.483 176.434C385.849 181.146 387.536 189.138 388.233 194.193C389.159 200.918 389.568 202.311 389.758 199.385C390.249 191.806 392.055 182.367 394.691 173.608L397.335 164.825L395.317 162.111C392.646 158.521 387.013 157.885 384.056 160.841ZM452.771 160.648C450.134 163.65 449.934 166.282 451.913 171.93C454.428 179.11 456.99 191.713 457.028 197.094C457.073 203.332 458.592 199.839 459.392 191.662C459.753 187.964 461.162 181.097 462.523 176.402C465.52 166.064 465.599 163.498 462.998 160.898C460.484 158.385 454.879 158.248 452.771 160.648ZM-22.616 206.883C-22.616 213.755 -22.456 216.568 -22.261 213.131C-22.065 209.695 -22.065 204.072 -22.261 200.635C-22.456 197.199 -22.616 200.01 -22.616 206.883ZM181.999 215.03C181.999 221.074 180.393 229.678 177.408 239.626C175.367 246.43 175.142 248.27 176.129 250.123C178.816 255.165 183.065 256.176 187.364 252.795C190.627 250.23 190.661 248.195 187.615 237.638C186.304 233.093 184.699 225.334 184.047 220.393C182.712 210.273 181.999 208.406 181.999 215.03ZM388.667 215.88C387.356 225.089 384.887 236.94 383.404 241.142C381.266 247.198 381.606 250.414 384.634 252.795C388.945 256.185 393.161 255.388 395.572 250.725C396.951 248.058 396.877 247.209 394.639 240.101C392.375 232.908 390.348 222.109 389.717 213.88C389.488 210.903 389.333 211.202 388.667 215.88ZM457.1 215.52C456.957 221.312 454.333 234.588 451.978 241.428C449.515 248.587 449.487 248.108 452.587 251.791C455.763 255.564 459.718 255.859 462.824 252.554C465.488 249.719 465.547 246.157 463.053 238.709C462.011 235.595 460.633 229.522 459.992 225.214C459.351 220.904 458.461 216.03 458.014 214.38C457.235 211.501 457.198 211.546 457.1 215.52ZM113.74 214.88C113.407 216.255 112.612 220.923 111.974 225.254C111.335 229.585 109.966 235.658 108.93 238.749C106.25 246.755 106.426 250.273 109.634 252.795C111.083 253.934 113.293 254.867 114.545 254.867C117.274 254.867 122.351 249.239 121.682 246.956C116.976 230.892 115.848 226.207 115.16 219.878C114.604 214.76 114.154 213.174 113.74 214.88ZM40.4989 266.249C36.3029 268.078 34.7989 270.231 34.7989 274.413C34.7989 281.957 41.3229 285.029 52.8819 282.927C62.4649 281.185 68.4169 278.069 68.8179 274.587C69.1029 272.1 68.5779 271.559 63.7449 269.346C58.4849 266.939 49.8559 264.825 45.6129 264.903C44.4499 264.925 42.1489 265.531 40.4989 266.249ZM105.999 265.961C97.7149 267.578 91.0399 270.85 90.3399 273.637C89.5689 276.709 91.0919 278.003 98.9379 280.937C110.075 285.102 123.292 284.319 133.998 278.86C137.077 277.29 137.999 276.235 137.999 274.286C137.999 272.183 137.086 271.348 132.647 269.385C127.109 266.937 117.545 264.782 113.065 264.974C111.654 265.034 108.474 265.478 105.999 265.961ZM173.388 266.295C159.024 269.552 154.895 274.722 163.249 278.991C175.229 285.114 187.995 285.356 201.126 279.709C209.659 276.039 208.486 271.915 197.8 268.011C190.181 265.229 180.954 264.58 173.388 266.295ZM242.388 266.295C235.293 267.904 228.496 271.126 227.672 273.27C226.102 277.361 236.868 282.686 248.499 283.572C259.225 284.388 272.397 280.459 275.393 275.547C276.291 274.078 276.067 273.381 274.208 271.855C267.705 266.518 252.851 263.923 242.388 266.295ZM312.175 265.873C306.197 267.133 297.1 271.434 296.365 273.349C293.987 279.545 316.072 285.947 329.109 282.84C341.685 279.842 346.929 275.79 343.137 271.999C338.311 267.175 321.646 263.878 312.175 265.873ZM381.499 265.902C371.306 267.992 364.999 271.496 364.999 275.07C364.999 277.573 373.916 281.681 382.557 283.161C394.817 285.26 412.998 279.962 412.998 274.289C412.998 272.188 412.094 271.354 407.748 269.437C398.287 265.268 390.027 264.155 381.499 265.902ZM448.387 266.295C434.419 269.462 429.906 274.736 437.748 278.728C443.593 281.705 451.871 283.858 457.469 283.858C467.407 283.858 481.998 278.585 481.998 274.995C481.998 268.471 461.824 263.248 448.387 266.295ZM517.387 266.351C514.026 267.083 509.385 268.645 507.075 269.823C503.512 271.64 502.922 272.373 503.187 274.663C503.556 277.859 509.291 281.069 517.933 282.915C529.526 285.392 537.508 281.865 537.295 274.36C537.175 270.125 535.624 268.024 531.28 266.208C527.415 264.593 525.377 264.614 517.387 266.351ZM73.3779 287.557C68.7599 292.598 61.4759 307.629 58.9419 317.347C56.3239 327.386 55.3279 346.587 56.8939 356.834C58.5569 367.715 62.6949 380.001 66.0789 384.106C70.0129 388.876 76.4229 391.286 82.6839 390.348C91.9859 388.953 97.8629 380.066 101.567 361.792C103.905 350.261 103.126 326.477 100.064 315.847C97.1689 305.798 90.4859 292.451 85.9779 287.713C81.1259 282.615 77.9429 282.576 73.3779 287.557ZM142.332 287.465C138.149 291.898 129.768 309.055 127.491 317.846C125.283 326.369 124.387 349.437 125.913 358.459C127.592 368.384 131.776 380.408 134.801 384.002C137.854 387.628 144.222 390.779 148.499 390.779C152.807 390.779 159.151 387.62 162.26 383.927C165.232 380.395 169.281 368.619 171.087 358.247C171.82 354.044 172.062 346.343 171.727 337.913C171.096 322 168.368 311.209 161.779 298.548C153.998 283.595 148.785 280.625 142.332 287.465ZM212.637 285.927C206.762 290.546 198.45 308.029 195.375 322.23C193.563 330.598 193.306 351.741 194.919 359.833C197.54 372.986 200.302 380.108 204.453 384.416C213.773 394.091 226.71 392.235 233.197 380.294C238.241 371.011 240.504 359.189 240.462 342.338C240.418 324.165 238.243 313.985 231.481 300.303C223.985 285.137 218.735 281.132 212.637 285.927ZM279.916 287.107C275.19 292.276 268.088 307.086 265.277 317.637C263.033 326.055 262.692 329.334 262.711 342.338C262.73 355.303 263.09 358.686 265.368 367.317C268.634 379.687 272.011 385.372 277.999 388.578C281.613 390.514 283.448 390.882 287.318 390.445C297.524 389.293 302.336 383.514 306.683 367.193C308.969 358.606 309.306 355.398 309.287 342.338C309.268 329.476 308.9 325.963 306.7 317.637C303.834 306.791 296.609 291.881 291.874 287.04C287.68 282.752 283.878 282.773 279.916 287.107ZM351.224 284.528C349.307 285.298 342.148 296.249 338.947 303.306C333.373 315.594 331.621 324.765 331.587 341.839C331.553 358.928 333.579 370.12 338.445 379.72C346.241 395.1 364.906 394.088 371.869 377.908C381.734 354.983 380.18 321.207 368.214 298.443C362.09 286.793 356.658 282.344 351.224 284.528ZM417.532 287.251C412.999 292.056 406.566 304.903 403.438 315.396C400.263 326.051 399.061 345.846 400.881 357.538C402.826 370.032 406.769 380.832 410.891 384.953C417.287 391.346 425.968 392.364 433.044 387.55C437.662 384.408 439.693 381.315 442.408 373.29C446.137 362.273 447.324 352.472 446.728 337.625C445.985 319.115 442.156 306.128 433.496 292.746C427.056 282.794 423.041 281.412 417.532 287.251ZM486.019 287.713C481.511 292.451 474.828 305.798 471.933 315.847C468.871 326.477 468.092 350.261 470.43 361.792C473.721 378.03 477.849 385.489 485.457 388.943C490.588 391.273 494.428 391.264 499.614 388.91C505.033 386.45 508.299 381.973 511.347 372.829C516.692 356.791 517.378 333.871 513.007 317.347C510.351 307.304 503.237 292.524 498.693 287.606C494.044 282.576 490.883 282.602 486.019 287.713ZM8.81996 293.25C-1.13103 295.928 -5.88102 302.275 -10.032 318.436C-14.526 335.94 -13.343 358.491 -7.01302 375.981C1.28397 398.903 19.778 415.956 39.6779 419.035C48.8289 420.451 53.3449 418.55 56.8219 411.816C60.2329 405.21 59.4359 397.327 54.0039 383.954C48.3219 369.964 46.0269 358.288 46.0199 343.338C46.0129 329.247 47.0759 321.536 50.6619 309.643C53.1699 301.328 53.2119 300.825 51.5899 298.352C49.3499 294.934 47.3659 294.267 35.4989 292.948C22.9149 291.548 14.799 291.64 8.81996 293.25ZM538.498 292.912C536.298 293.366 532.421 293.765 529.883 293.796C524.924 293.858 520.602 296.375 519.502 299.84C519.164 300.905 519.99 305.28 521.338 309.561C525.253 321.997 526.335 331.249 525.726 347.09C525.114 363.04 523.339 371.287 517.469 385.462C513.228 395.704 512.188 402.854 513.998 409.318C516.35 417.713 522.815 420.871 533.585 418.884C550.621 415.741 565.784 403.203 574.899 384.721C582.502 369.304 584.275 361.522 584.328 343.338C584.413 313.938 577.663 297.504 563.814 293.392C558.294 291.754 545.294 291.507 538.498 292.912ZM109.634 295.927C106.294 298.553 106.267 301.297 109.474 312.359C110.836 317.056 112.372 324.296 112.887 328.449C113.941 336.93 114.999 339.259 114.999 333.097C114.999 327.599 117.334 315.755 119.943 308.013C122.332 300.928 122.047 298.823 118.305 295.88C115.04 293.312 112.944 293.323 109.634 295.927ZM177.922 296.776C174.469 300.228 174.42 300.768 176.913 307.885C179.453 315.133 181.974 327.602 182.102 333.549C182.204 338.261 182.219 338.283 183.002 334.841C183.44 332.917 184.328 327.826 184.975 323.53C185.622 319.233 187.017 313.203 188.075 310.128C190.791 302.236 190.603 298.473 187.364 295.927C183.777 293.106 181.378 293.321 177.922 296.776ZM248.364 295.001C243.855 297.23 243.504 299.887 246.381 310.027C250.055 322.978 250.987 329.575 250.993 342.681C251.001 357.253 248.293 370.718 242.317 385.824C238.103 396.477 237.806 397.822 238.257 404.159C238.821 412.067 240.733 415.373 246.357 418.167C250.952 420.449 255.703 419.774 259.903 416.241C266.561 410.641 266.636 399.279 260.119 383.241C253.883 367.892 252.483 360.105 252.589 341.339C252.669 327.073 252.979 324.263 255.459 315.347C256.989 309.849 258.449 303.985 258.704 302.317C259.541 296.838 253.415 292.505 248.364 295.001ZM317.016 295.14C312.905 297.219 312.294 300.881 314.771 308.606C322.717 333.388 321.238 362.79 310.881 385.958C306.743 395.215 305.809 406.246 308.698 411.745C314.078 421.984 326.898 421.984 332.311 411.745C335.163 406.352 334.165 396.41 329.695 385.678C323.872 371.699 321.783 362.077 321.236 346.711C320.706 331.833 321.566 324.7 325.66 310.027C328.534 299.728 328.137 297.148 323.342 294.964C320.318 293.587 320.072 293.594 317.016 295.14ZM384.453 296.309C381.58 299.181 381.329 302.716 383.555 308.973C385.458 314.326 387.535 324.156 388.6 332.842L389.397 339.339L390.18 330.842C390.61 326.169 392.118 318.296 393.531 313.348C394.943 308.4 396.352 303.353 396.66 302.135C397.064 300.535 396.376 299.076 394.186 296.886C390.512 293.214 387.714 293.048 384.453 296.309ZM454.228 295.405C450.094 298.3 449.682 300.389 451.913 307.153C454.72 315.662 456.998 327.053 456.998 332.574C456.998 339.379 457.876 337.304 459.471 326.732C460.249 321.57 461.805 314.423 462.929 310.849C465.751 301.876 465.622 298.489 462.363 295.927C459.217 293.451 457.202 293.322 454.228 295.405ZM-22.612 342.338C-22.611 349.486 -22.451 352.279 -22.259 348.544C-22.066 344.811 -22.067 338.963 -22.262 335.549C-22.456 332.136 -22.614 335.191 -22.612 342.338ZM181.807 353.335C181.021 363.633 177.953 375.474 173.349 385.978C170.268 393.008 169.677 395.502 169.595 401.819C169.52 407.668 169.946 410.085 171.533 412.815C174.254 417.497 179.346 420.078 184.376 419.327C191.205 418.309 194.477 414.84 195.955 407.05C197.097 401.03 195.657 394.086 190.568 381.061C187.076 372.127 185.08 363.99 183.274 351.336L182.418 345.337L181.807 353.335ZM388.642 351.336C386.17 368.272 384.339 375.054 378.534 388.773C371.65 405.04 377.766 421.01 390.286 419.462C397.801 418.533 401.783 413.698 402.645 404.455C403.175 398.764 401.789 393.067 397.262 382.325C393.653 373.761 391.034 363.288 390.086 353.618L389.371 346.337L388.642 351.336ZM113.762 350.336C113.413 351.985 112.849 355.584 112.509 358.333C111.574 365.888 108.338 377.129 104.338 386.72C99.9489 397.243 99.3489 406.017 102.593 412.266C107.564 421.842 120.603 422.005 125.707 412.557C128.885 406.674 128.03 396.984 123.306 385.324C118.582 373.665 116.28 364.988 115.184 354.714C114.566 348.929 114.26 347.984 113.762 350.336ZM456.725 354.554C455.908 364.296 453.504 373.46 448.655 385.324C445.244 393.67 444.563 396.477 444.534 402.319C444.49 410.802 446.756 415.43 452.284 418.15C460.228 422.059 468.548 417.629 470.916 408.23C472.489 401.983 471.505 396.241 466.888 384.727C462.762 374.437 459.06 360.525 458.935 354.834C458.772 347.477 457.334 347.294 456.725 354.554Z" fill="black"/>
</g>
</svg>
