<svg width="1440" height="2399" viewBox="0 0 1440 2399" fill="none" xmlns="http://www.w3.org/2000/svg">
<g clip-path="url(#clip0_380_59)">
<path d="M1182.09 300.822C1181.68 295.334 1181.08 236.067 1180.75 169.117C1180.09 33.3 1180.59 42.4275 1172.79 26.2557C1164.31 8.66611 1154.15 0.899513 1137.33 -0.858551C1130.44 -1.57894 1133.42 -1.75855 1154.1 -1.86731L1180.32 -2L1208.51 -1.85333C1227.53 -1.75356 1233.93 -1.48114 1228.21 -1.01318C1222.45 -0.543236 1218.32 0.403616 1215.32 1.93918C1208.41 5.48415 1200.25 14.7395 1193.6 26.1741L1193.54 26.2861C1193.48 26.3969 1193.43 26.5066 1193.38 26.6152C1185.75 42.3356 1184.7 34.0065 1184.03 168.786L1184.03 168.888L1184.03 169.067L1184.03 169.231C1183.66 252.377 1182.84 311.05 1182.09 300.822Z" fill="white"/>
<path d="M1 1583.71C1 1589.62 1.27665 1590.73 2.88281 1591.24C6.48395 1592.38 15.0455 1602.68 18.4907 1610C20.3677 1614 22.8785 1621.77 24.0688 1627.27C25.0053 1631.59 25.5387 1634.36 25.9126 1648.26H32.9912C33.5529 1638.64 34.7423 1628.92 35.9736 1623.87C41.2889 1602.08 52.1595 1589.93 69.6265 1586.28C82.4688 1583.59 332.348 1583.37 766.105 1585.66C1125.14 1587.56 1168.84 1587.62 1261.12 1586.29C1323.52 1585.39 1364.16 1585.19 1367.07 1585.75C1389.63 1590.09 1401.03 1605.5 1404.83 1636.77C1405.09 1638.92 1405.32 1642.49 1405.52 1648.26H1412.66C1412.82 1641.79 1412.99 1637.92 1413.17 1636.55C1416.17 1614.04 1423.39 1599.37 1435.28 1591.67L1438.43 1589.62C1439.57 1588.88 1440.26 1587.62 1440.26 1586.26V1580.78C1440.26 1578.57 1438.47 1576.78 1436.26 1576.78L1382.54 1576.77C1350.79 1576.77 1188.47 1577.48 1021.83 1578.35C745.092 1579.8 692.666 1579.8 416.642 1578.35C250.431 1577.48 88.9173 1576.77 57.7205 1576.77L4.99943 1576.78C2.79052 1576.78 1 1578.57 1 1580.78V1583.71Z" fill="white"/>
<path d="M30.0649 1940.67C30.3878 1940.99 31.9998 1875.66 32.0198 1800.65C32.0398 1725.64 32.4765 1657.06 32.9912 1648.26H25.9126C26.3935 1666.15 26.611 1702.46 27.0845 1784.24C27.5171 1858.84 29.5416 1924.54 29.9878 1938.33L29.9863 1938.11C30.0109 1938.96 30.0315 1939.63 30.0469 1940.13L30.0649 1940.67Z" fill="white"/>
<path d="M1409.67 1940.67C1409.99 1940.99 1411.61 1875.66 1411.63 1800.65C1411.65 1725.64 1412.15 1657.06 1412.66 1648.26H1405.52C1406 1666.15 1406.22 1702.46 1406.69 1784.24C1407.12 1858.84 1409.15 1924.54 1409.59 1938.33L1409.59 1938.11C1409.62 1938.96 1409.64 1939.63 1409.65 1940.13L1409.67 1940.67Z" fill="white"/>
<path d="M30.1326 2037.47C30.1442 2037.12 30.1888 2037.07 30.213 2037.42C30.6412 2043.61 32.0865 2105.94 32.1055 2176.94C32.1255 2251.96 32.6034 2320.53 33.1182 2329.33H25.9983C26.4792 2311.44 26.6967 2275.13 27.1702 2193.36C27.6028 2118.75 29.6275 2053.06 30.0737 2039.27L30.0723 2039.49C30.0969 2038.64 30.1172 2037.96 30.1326 2037.47V2037.47Z" fill="white"/>
<path d="M1409.44 2037.47C1409.45 2037.12 1409.49 2037.07 1409.52 2037.42C1409.95 2043.61 1411.39 2105.94 1411.41 2176.94C1411.43 2251.96 1411.91 2320.53 1412.42 2329.33H1405.3C1405.78 2311.44 1406 2275.13 1406.48 2193.36C1406.91 2118.75 1408.93 2053.06 1409.38 2039.27L1409.38 2039.49C1409.4 2038.64 1409.42 2037.96 1409.44 2037.47V2037.47Z" fill="white"/>
<path d="M666.455 2396.63C666.81 2396.64 666.849 2396.67 666.495 2396.69C660.306 2396.99 598.072 2398.01 527.174 2398.02C452.265 2398.03 383.786 2398.57 375 2398.93V2393.73C392.86 2394.07 429.126 2394.22 510.784 2394.55C585.284 2394.86 650.888 2396.28 664.659 2396.59L664.439 2396.59C665.286 2396.61 665.962 2396.62 666.455 2396.63V2396.63Z" fill="white"/>
<path d="M24.2417 2349.36C20.2927 2366.78 14.7027 2377.18 5.71631 2383.85L2.61876 2386.15C1.60166 2386.9 1.00195 2388.09 1.00195 2389.36V2396.84C1.00195 2399.05 2.79652 2400.84 5.00803 2400.84L16.7437 2400.82C25.4022 2400.81 152.123 2400.15 298.348 2399.35C324.032 2399.21 349.792 2399.07 375 2398.93V2393.73C354.552 2393.62 333.864 2393.51 313.34 2393.4C94.5673 2392.21 72.9365 2391.95 67.4673 2390.42C49.1588 2385.31 39.061 2371.65 34.2944 2345.55C33.7691 2342.67 33.399 2338.81 33.1182 2329.33H25.9983C25.6432 2342.33 25.1349 2345.42 24.2417 2349.36Z" fill="white"/>
<path d="M772.147 2396.7C771.793 2396.7 771.754 2396.74 772.108 2396.75C778.296 2397.05 840.531 2398.07 911.428 2398.08C986.338 2398.1 1054.82 2398.57 1063.6 2398.93V2393.79C1045.74 2394.13 1009.48 2394.28 927.819 2394.62C853.319 2394.92 787.714 2396.34 773.944 2396.65L774.164 2396.65C773.316 2396.67 772.641 2396.69 772.147 2396.7V2396.7Z" fill="white"/>
<path d="M1403.45 2350.73C1398.42 2373.52 1387.97 2386.1 1370.31 2390.63C1366.36 2391.65 1272.64 2392.64 1063.6 2393.79V2398.93C1089.02 2399.07 1115 2399.21 1140.91 2399.35C1287.14 2400.15 1414.31 2400.81 1423.52 2400.82L1436.25 2400.84C1438.46 2400.84 1440.26 2399.05 1440.26 2396.84V2394.58C1440.26 2388.43 1440.19 2388.27 1436.75 2386.42C1427.87 2381.63 1419.4 2368.98 1415.91 2355.3L1415.73 2354.61C1414.26 2348.85 1413.01 2343.97 1412.42 2329.33H1405.3C1404.93 2343.1 1404.4 2346.41 1403.45 2350.73Z" fill="white"/>
<path d="M344.085 1276.46C343.682 1281.95 343.083 1341.22 342.753 1408.17C342.085 1543.99 342.594 1534.86 334.795 1551.03C326.31 1568.62 316.152 1576.39 299.328 1578.14C292.439 1578.87 295.421 1579.04 316.1 1579.15L342.324 1579.29L370.506 1579.14C389.534 1579.04 395.933 1578.77 390.208 1578.3C384.447 1577.83 380.315 1576.88 377.321 1575.35C370.406 1571.8 362.249 1562.55 355.601 1551.11L355.536 1551C355.483 1550.89 355.43 1550.78 355.377 1550.67C347.745 1534.95 346.698 1543.28 346.034 1408.5L346.033 1408.4L346.033 1408.22L346.032 1408.05C345.658 1324.91 344.837 1266.24 344.085 1276.46Z" fill="white"/>
<path d="M348.563 147.387C348.172 155.91 347.39 289.084 346.826 443.329C345.818 719.465 345.955 733.189 341.806 745.465C341.4 746.668 340.952 747.856 340.459 749.276C334.681 765.897 324.971 775.657 310.842 779.044C302.885 780.952 292.578 781.21 154.702 782.946C80.0946 783.885 19.2032 784.805 19.3871 784.99C19.572 785.174 83.3229 786.209 161.056 787.289C297.41 789.183 307.696 789.157 315.91 793.27C316.932 793.782 317.922 794.358 319.119 795.009C333.765 802.984 342.031 822.642 343.494 852.984L344 861V861.728C344 863.846 342.349 865.597 340.235 865.721L327 866.5L340.269 867.281C342.37 867.404 344.015 869.133 344.034 871.237L344.175 886.492C344.524 897.077 345.103 932.854 345.465 965.995C345.826 999.135 346.355 1026.02 346.638 1025.73C346.923 1025.45 347.657 989.921 348.269 946.784C348.715 915.298 349.044 884.613 349.385 871.302C349.439 869.167 350.753 867.487 352.889 867.475C429.081 867.038 1069.54 870.193 1079.44 871.138C1091.77 872.316 1099.04 875.115 1105.79 881.289C1115.77 890.418 1121.26 904.495 1123.32 926.284C1124.31 936.803 1126.45 1210.18 1126.43 1324.57C1126.42 1348.17 1126.66 1367.24 1126.95 1366.95C1127.24 1366.66 1128.13 1267.27 1128.93 1146.08C1130.35 930.852 1130.28 917.596 1134.35 905.758C1134.77 904.511 1135.25 903.281 1135.77 901.831C1142.75 882.601 1153.9 873.333 1172.54 871.277C1177.13 870.77 1223.62 869.608 1275.84 868.692C1370.24 867.038 1448.31 864.715 1421.77 864.35C1414.62 864.251 1367.39 863.329 1316.82 862.301C1229.51 860.525 1224.54 860.326 1218.33 858.364C1203.95 853.819 1195.58 844.709 1189.94 827.503C1189.55 826.287 1189.18 825.212 1188.85 824.127C1185.32 812.628 1185.24 800.071 1183.96 607.012L1183.87 592.3C1183.09 474.898 1182.33 374.793 1182.17 369.844C1182.02 364.894 1181.5 423.383 1181.03 499.818C1180.56 576.253 1179.82 677.033 1179.39 723.774C1178.66 803.549 1178.49 809.309 1176.61 817.756C1172.76 835.023 1167.21 845.407 1158.17 852.241C1151.24 857.481 1145.43 859.259 1131.92 860.273C1125.32 860.769 994.437 861.649 841.067 862.23C687.696 862.81 514.424 863.575 456.017 863.93L353.855 864.549C351.633 864.563 349.826 862.762 349.831 860.54L349.842 855.661C349.907 826.417 359.346 803.276 374.595 794.973C375.661 794.393 376.357 793.872 377.087 793.403C384.145 788.869 394.314 789.177 771.603 787.236C980.77 786.159 1152.81 785.111 1153.9 784.906C1155 784.702 1146.01 784.485 1133.92 784.425C1121.82 784.364 953.609 783.63 760.109 782.793C566.609 781.956 403.569 780.868 397.797 780.376C383.262 779.136 376.958 776.593 369.24 768.853C360.257 759.844 355.186 747.376 352.905 728.692C352.301 723.746 351.498 607.792 350.833 429.751C350.236 269.776 349.641 137.314 349.511 135.389C349.382 133.465 348.955 138.864 348.563 147.387Z" fill="white"/>
</g>
<defs>
<clipPath id="clip0_380_59">
<rect width="1440" height="2399" fill="white" transform="matrix(-1 0 0 1 1440 0)"/>
</clipPath>
</defs>
</svg>
