<svg width="1440" height="1680" viewBox="0 0 1440 1680" fill="none" xmlns="http://www.w3.org/2000/svg">
<path d="M1186.09 302.822C1185.68 297.334 1185.08 238.067 1184.75 171.117C1184.09 35.3 1184.59 44.4275 1176.79 28.2557C1168.31 10.6661 1158.15 2.89951 1141.33 1.14145C1134.44 0.421062 1137.42 0.241447 1158.1 0.13269L1184.32 0L1212.51 0.146667C1231.53 0.246444 1237.93 0.518864 1232.21 0.986816C1226.45 1.45676 1222.32 2.40362 1219.32 3.93918C1212.41 7.48415 1204.25 16.7395 1197.6 28.1741L1197.54 28.2861C1197.48 28.3969 1197.43 28.5066 1197.38 28.6152C1189.75 44.3356 1188.7 36.0065 1188.03 170.786L1188.03 170.888L1188.03 171.067L1188.03 171.231C1187.66 254.377 1186.84 313.05 1186.09 302.822Z" fill="white"/>
<path d="M352.563 149.387C352.172 157.91 351.39 291.084 350.826 445.329C349.818 721.465 349.955 735.189 345.806 747.465C345.4 748.668 344.952 749.856 344.459 751.276C338.681 767.897 328.971 777.657 314.842 781.044C306.885 782.952 296.578 783.21 158.702 784.946C84.0946 785.885 23.2032 786.805 23.3871 786.99C23.572 787.174 87.3229 788.209 165.056 789.289C301.41 791.183 311.696 791.157 319.91 795.27C320.932 795.782 321.922 796.358 323.119 797.009C337.765 804.984 346.031 824.642 347.494 854.984L348 863V863.728C348 865.846 346.349 867.597 344.235 867.721L331 868.5L344.269 869.281C346.37 869.404 348.015 871.133 348.034 873.237L348.175 888.492C348.524 899.077 349.103 934.854 349.465 967.995C349.826 1001.14 350.355 1028.02 350.638 1027.73C350.923 1027.45 351.657 991.921 352.269 948.784C352.715 917.298 353.044 886.613 353.385 873.302C353.439 871.167 354.753 869.487 356.889 869.475C433.081 869.038 1073.54 872.193 1083.44 873.138C1095.77 874.316 1103.04 877.115 1109.79 883.289C1119.77 892.418 1125.26 906.495 1127.32 928.284C1128.31 938.803 1130.45 1212.18 1130.43 1326.57C1130.42 1350.17 1130.66 1369.24 1130.95 1368.95C1131.24 1368.66 1132.13 1269.27 1132.93 1148.08C1134.35 932.852 1134.28 919.596 1138.35 907.758C1138.77 906.511 1139.25 905.281 1139.77 903.831C1146.75 884.601 1157.9 875.333 1176.54 873.277C1181.13 872.77 1227.62 871.608 1279.84 870.692C1374.24 869.038 1452.31 866.715 1425.77 866.35C1418.62 866.251 1371.39 865.329 1320.82 864.301C1233.51 862.525 1228.54 862.326 1222.33 860.364C1207.95 855.819 1199.58 846.709 1193.94 829.503C1193.55 828.287 1193.18 827.212 1192.85 826.127C1189.32 814.628 1189.24 802.071 1187.96 609.012L1187.87 594.3C1187.09 476.898 1186.33 376.793 1186.17 371.844C1186.02 366.894 1185.5 425.383 1185.03 501.818C1184.56 578.253 1183.82 679.033 1183.39 725.774C1182.66 805.549 1182.49 811.309 1180.61 819.756C1176.76 837.023 1171.21 847.407 1162.17 854.241C1155.24 859.481 1149.43 861.259 1135.92 862.273C1129.32 862.769 998.437 863.649 845.067 864.23C691.696 864.81 518.424 865.575 460.017 865.93L357.855 866.549C355.633 866.563 353.826 864.762 353.831 862.54L353.842 857.661C353.907 828.417 363.346 805.276 378.595 796.973C379.661 796.393 380.357 795.872 381.087 795.403C388.145 790.869 398.314 791.177 775.603 789.236C984.77 788.159 1156.81 787.111 1157.9 786.906C1159 786.702 1150.01 786.485 1137.92 786.425C1125.82 786.364 957.609 785.63 764.109 784.793C570.609 783.956 407.569 782.868 401.797 782.376C387.262 781.136 380.958 778.593 373.24 770.853C364.257 761.844 359.186 749.376 356.905 730.692C356.301 725.746 355.498 609.792 354.833 431.751C354.236 271.776 353.641 139.314 353.511 137.389C353.382 135.465 352.955 140.864 352.563 149.387Z" fill="white"/>
<path fill-rule="evenodd" clip-rule="evenodd" d="M1.88281 1593.24C5.48395 1594.38 14.0455 1604.68 17.4907 1612C19.3677 1616 21.8785 1624 23.0688 1629.5C21.8785 1635 19.3677 1642.77 17.4907 1646.76C14.0455 1654.09 5.48395 1664.39 1.88281 1665.53H-5V1679.99L56.7205 1680C79.9961 1680 175.813 1679.61 292 1679.04L301.233 1679L388.147 1678.56L388.157 1678.56C389.937 1678.55 391.718 1678.54 393.5 1678.54C400.864 1678.5 408.249 1678.46 415.642 1678.42C691.666 1676.97 744.092 1676.97 1020.83 1678.42C1187.47 1679.29 1349.79 1680 1381.54 1680L1440.26 1679.99V1668.33L1434.28 1665.1C1424.11 1658.52 1417.36 1646.6 1413.74 1629.27C1417.36 1611.94 1424.11 1600.25 1434.28 1593.67L1440.26 1590.44V1578.78L1381.54 1578.77C1349.79 1578.77 1187.47 1579.48 1020.83 1580.35C744.092 1581.8 691.666 1581.8 415.642 1580.35C406.456 1580.3 397.284 1580.25 388.147 1580.21C382.935 1579.71 379.128 1578.79 376.321 1577.35C369.406 1573.8 361.249 1564.55 354.601 1553.11L354.536 1553L354.377 1552.67C346.745 1536.95 345.698 1545.28 345.034 1410.5L345.033 1410.4L345.033 1410.22L345.032 1410.05C344.658 1326.91 343.837 1268.24 343.085 1278.46C342.682 1283.95 342.083 1343.22 341.753 1410.17C341.085 1545.99 341.594 1536.86 333.795 1553.03C325.812 1569.58 316.347 1577.43 301.242 1579.77C180.922 1579.18 80.6105 1578.77 56.7205 1578.77L-5 1578.78V1593.24H1.88281ZM68.6265 1588.28C51.1595 1591.93 40.2889 1604.08 34.9736 1625.87C34.7679 1626.71 34.5634 1627.86 34.3628 1628.99L34.2717 1629.5C34.5014 1630.79 34.7367 1631.93 34.9736 1632.9C40.2889 1654.69 51.1595 1666.84 68.6265 1670.49C81.4688 1673.18 331.348 1673.4 765.105 1671.11C1124.14 1669.21 1167.84 1669.15 1260.12 1670.48C1322.52 1671.37 1363.16 1671.58 1366.07 1671.02C1386.21 1667.14 1397.46 1654.21 1402.34 1629.27C1397.46 1604.33 1386.21 1591.63 1366.07 1587.75C1363.16 1587.19 1322.52 1587.39 1260.12 1588.29C1167.84 1589.62 1124.14 1589.56 765.105 1587.66C331.348 1585.37 81.4688 1585.59 68.6265 1588.28Z" fill="white"/>
</svg>
