<svg width="46" height="46" viewBox="0 0 46 46" fill="none" xmlns="http://www.w3.org/2000/svg">
<mask id="mask0_442_823" style="mask-type:alpha" maskUnits="userSpaceOnUse" x="0" y="0" width="46" height="46">
<rect x="1.10961" y="0.304922" width="44.562" height="44.562" fill="#4200FF" stroke="#FF0000" stroke-width="0.437969"/>
</mask>
<g mask="url(#mask0_442_823)">
<path fill-rule="evenodd" clip-rule="evenodd" d="M-31.4197 -10.9424C-31.4821 -10.8719 -31.5555 -10.8106 -31.6374 -10.7641C-33.4269 -9.74853 -35.3652 -9.19783 -37.3336 -9.19783V-9.19783C-40.9846 -9.19783 -40.9846 -13.9081 -37.3336 -13.9081V-13.9081C-35.365 -13.9081 -33.4265 -13.3573 -31.6368 -12.3415C-31.555 -12.2951 -31.4817 -12.2339 -31.4194 -12.1634V-12.1634C-31.1119 -11.8159 -31.1122 -11.2899 -31.4197 -10.9424V-10.9424ZM-35.4862 -4.11889C-35.0434 -5.27758 -36.0932 -6.66685 -37.3336 -6.66685V-6.66685C-38.1007 -6.66685 -38.856 -6.73117 -39.5964 -6.8558C-43.7387 -7.55312 -48.6298 -7.59345 -50.223 -3.70666C-51.3242 -1.02018 -51.9651 2.09132 -51.9651 5.497C-51.9651 8.89377 -51.3276 11.9979 -50.2317 14.6796C-48.6409 18.5722 -43.7437 18.5325 -39.597 17.8343C-38.8564 17.7096 -38.1009 17.6452 -37.3336 17.6452V17.6452C-36.0955 17.6452 -35.0484 16.2599 -35.4899 15.1032C-36.5973 12.2021 -37.2188 8.94228 -37.2188 5.497C-37.2188 2.04788 -36.5959 -1.21532 -35.4862 -4.11889ZM-54.4961 5.497C-54.4961 9.2511 -53.7583 12.7849 -52.4579 15.8745C-50.7289 19.9825 -50.7289 25.0959 -52.4579 29.2038C-53.7583 32.2934 -54.4961 35.8272 -54.4961 39.5813C-54.4961 43.3364 -53.7579 46.871 -52.4569 49.9612C-50.7254 54.074 -50.7254 59.1962 -52.4569 63.309C-53.7579 66.3992 -54.4961 69.9338 -54.4961 73.6888C-54.4961 85.8038 -46.8122 95.6249 -37.3336 95.6249C-36.278 95.6249 -35.2447 95.5031 -34.2417 95.2699C-30.6713 94.4396 -26.7186 94.4396 -23.1482 95.2699C-22.1453 95.5031 -21.1119 95.6249 -20.0563 95.6249C-19.0007 95.6249 -17.9673 95.5031 -16.9644 95.2699C-13.394 94.4396 -9.4413 94.4396 -5.8709 95.2699C-4.86794 95.5031 -3.83458 95.6249 -2.77896 95.6249C-1.72373 95.6249 -0.690742 95.5032 0.311877 95.2702C3.88061 94.4406 7.831 94.4406 11.3997 95.2702C12.4024 95.5032 13.4353 95.6249 14.4906 95.6249C15.5464 95.6249 16.5799 95.5031 17.583 95.2698C21.1543 94.4392 25.1081 94.4392 28.6793 95.2698C29.6825 95.5031 30.716 95.6249 31.7718 95.6249C32.8272 95.6249 33.8604 95.5032 34.8632 95.27C38.4328 94.4401 42.3843 94.4401 45.9539 95.27C46.9567 95.5032 47.9898 95.6249 49.0453 95.6249C50.1009 95.6249 51.1342 95.5031 52.1372 95.2699C55.7076 94.4396 59.6603 94.4396 63.2307 95.2699C64.2336 95.5031 65.267 95.6249 66.3226 95.6249C67.378 95.6249 68.4112 95.5032 69.414 95.27C72.9835 94.4401 76.9351 94.4401 80.5047 95.27C81.5074 95.5032 82.5406 95.6249 83.596 95.6249C93.0746 95.6249 100.758 85.8038 100.758 73.6888C100.758 69.9338 100.02 66.3992 98.7193 63.309C96.9878 59.1962 96.9878 54.074 98.7193 49.9612C100.02 46.871 100.758 43.3364 100.758 39.5813C100.758 35.8272 100.021 32.2934 98.7203 29.2038C96.9913 25.0959 96.9913 19.9825 98.7203 15.8746C100.021 12.7849 100.758 9.2511 100.758 5.497C100.758 1.74229 100.02 -1.79209 98.7196 -4.88206C96.9889 -8.99325 96.9889 -14.1125 98.7196 -18.2237C100.02 -21.3137 100.758 -24.8481 100.758 -28.6028C100.758 -40.7177 93.0746 -50.5389 83.596 -50.5389C82.5406 -50.5389 81.5075 -50.4171 80.5047 -50.184C76.9351 -49.3541 72.9835 -49.3541 69.414 -50.184C68.4112 -50.4171 67.378 -50.5389 66.3226 -50.5389C65.267 -50.5389 64.2336 -50.4171 63.2307 -50.1838C59.6603 -49.3536 55.7076 -49.3536 52.1372 -50.1838C51.1342 -50.4171 50.1009 -50.5389 49.0453 -50.5389C47.9898 -50.5389 46.9567 -50.4171 45.9539 -50.184C42.3843 -49.3541 38.4328 -49.3541 34.8632 -50.184C33.8604 -50.4171 32.8272 -50.5389 31.7718 -50.5389C30.716 -50.5389 29.6825 -50.417 28.6794 -50.1837C25.1081 -49.3531 21.1543 -49.3531 17.583 -50.1837C16.5799 -50.417 15.5464 -50.5389 14.4906 -50.5389C13.4353 -50.5389 12.4024 -50.4172 11.3997 -50.1841C7.83101 -49.3545 3.8806 -49.3545 0.31186 -50.1841C-0.690754 -50.4172 -1.72374 -50.5389 -2.77896 -50.5389C-3.83451 -50.5389 -4.8678 -50.4171 -5.8707 -50.1839C-9.44106 -49.3537 -13.3937 -49.3537 -16.964 -50.184C-17.967 -50.4172 -19.0004 -50.5391 -20.0561 -50.5391C-21.1117 -50.5391 -22.1451 -50.4172 -23.148 -50.184C-26.7185 -49.3538 -30.6712 -49.3538 -34.2417 -50.184C-35.2447 -50.4172 -36.278 -50.5391 -37.3336 -50.5391C-46.8122 -50.5391 -54.4961 -40.7179 -54.4961 -28.603C-54.4961 -24.8482 -53.758 -21.3139 -52.4572 -18.2239C-50.7265 -14.1126 -50.7265 -8.9933 -52.4572 -4.88208C-53.758 -1.7921 -54.4961 1.74229 -54.4961 5.497ZM85.8585 51.9416C89.9987 52.6385 94.8869 52.6792 96.4813 48.7952C97.585 46.1064 98.2275 42.9913 98.2275 39.5813C98.2275 36.1846 97.59 33.0804 96.4941 30.3988C94.9033 26.5062 90.0061 26.5458 85.8594 27.2441C85.1188 27.3688 84.3633 27.4331 83.596 27.4331V27.4331C82.3593 27.4331 81.3138 28.8166 81.755 29.972C82.8632 32.8739 83.485 36.1348 83.485 39.5813C83.485 43.0336 82.8611 46.2995 81.7495 49.2051C81.3064 50.3634 82.3559 51.7527 83.596 51.7527V51.7527C84.363 51.7527 85.1182 51.817 85.8585 51.9416ZM77.6779 56.0299C77.7396 55.9603 77.812 55.8999 77.8928 55.854C79.6843 54.8359 81.625 54.2837 83.596 54.2837V54.2837C87.2423 54.2837 87.2423 58.9865 83.596 58.9865V58.9865C81.625 58.9865 79.6842 58.4343 77.8928 57.4162C77.812 57.3703 77.7395 57.3098 77.6779 57.2402V57.2402C77.3727 56.8958 77.3727 56.3744 77.6779 56.0299V56.0299ZM72.2407 56.0299C72.546 56.3744 72.546 56.8958 72.2407 57.2403V57.2403C72.1791 57.3098 72.1067 57.3703 72.0259 57.4162C70.2344 58.4343 68.2937 58.9865 66.3226 58.9865C64.3482 58.9865 62.4042 58.4324 60.6102 57.411C60.5302 57.3654 60.4584 57.3055 60.3973 57.2366V57.2366C60.0938 56.8942 60.0938 56.3759 60.3973 56.0336V56.0336C60.4584 55.9646 60.5302 55.9047 60.6102 55.8592C62.4042 54.8377 64.3482 54.2837 66.3226 54.2837C68.2937 54.2837 70.2344 54.8359 72.0259 55.854C72.1067 55.8999 72.1791 55.9604 72.2407 56.0299V56.0299ZM76.3147 53.7203C76.2072 53.8526 76.078 53.9628 75.9344 54.0545V54.0545C75.3423 54.4327 74.5764 54.4327 73.9843 54.0545V54.0545C73.8406 53.9628 73.7115 53.8526 73.604 53.7203C70.8037 50.2755 68.9646 45.3505 68.9646 39.5813C68.9646 33.8445 70.7831 28.9424 73.557 25.5004C73.6692 25.3611 73.8048 25.2455 73.9557 25.1495V25.1495C74.5655 24.7619 75.3531 24.7619 75.963 25.1495V25.1495C76.1139 25.2455 76.2494 25.3611 76.3616 25.5004C79.1355 28.9424 80.9541 33.8445 80.9541 39.5813C80.9541 45.3505 79.115 50.2755 76.3147 53.7203ZM66.3226 61.5175C67.5627 61.5175 68.6122 62.9068 68.1691 64.0651C67.0575 66.9706 66.4336 70.2366 66.4336 73.6888C66.4336 77.8756 67.3513 81.7884 68.9435 85.1165C70.5394 88.4521 70.0203 93.094 66.3226 93.094V93.094V93.094C62.6231 93.094 62.104 88.4496 63.6999 85.112C65.2909 81.7848 66.2077 77.8737 66.2077 73.6888C66.2077 70.2379 65.5842 66.973 64.4734 64.0683C64.0299 62.9086 65.0811 61.5175 66.3226 61.5175V61.5175V61.5175ZM79.3101 82.6491C77.6657 86.8038 72.253 86.8038 70.6086 82.6491C69.5675 80.0187 68.9646 76.9921 68.9646 73.6888C68.9646 67.9197 70.8037 62.9947 73.604 59.5499C73.7115 59.4176 73.8406 59.3074 73.9842 59.2157V59.2157C74.5764 58.8375 75.3423 58.8375 75.9344 59.2157V59.2157C76.078 59.3074 76.2072 59.4176 76.3147 59.5499C79.115 62.9947 80.9541 67.9197 80.9541 73.6888C80.9541 76.9921 80.3511 80.0187 79.3101 82.6491ZM83.596 93.094C79.8984 93.094 79.3793 88.4521 80.9751 85.1165C82.5674 81.7884 83.485 77.8756 83.485 73.6888C83.485 70.2366 82.8611 66.9706 81.7495 64.0651C81.3064 62.9068 82.3559 61.5175 83.596 61.5175V61.5175C84.363 61.5175 85.1182 61.4532 85.8585 61.3285C89.9987 60.6317 94.8869 60.591 96.4813 64.475C97.585 67.1638 98.2275 70.2789 98.2275 73.6888C98.2275 85.0196 91.1336 93.094 83.596 93.094V93.094ZM66.3226 51.7527V51.7527C67.5627 51.7527 68.6122 50.3633 68.1691 49.2051C67.0575 46.2995 66.4336 43.0336 66.4336 39.5813C66.4336 36.1348 67.0555 32.8739 68.1636 29.972C68.6048 28.8166 67.5594 27.4331 66.3226 27.4331V27.4331V27.4331C65.0844 27.4331 64.0373 28.8184 64.4789 29.9752C65.5863 32.8763 66.2077 36.1361 66.2077 39.5813C66.2077 43.0323 65.5842 46.2972 64.4734 49.2019C64.0299 50.3615 65.0811 51.7527 66.3226 51.7527V51.7527ZM58.6546 59.2116C58.0653 58.8348 57.3026 58.8348 56.7132 59.2116V59.2116C56.5708 59.3027 56.4426 59.4121 56.3359 59.5433C53.5326 62.9884 51.6911 67.916 51.6911 73.6888C51.6911 76.99 52.2933 80.0148 53.3332 82.644C54.9769 86.8002 60.3909 86.8002 62.0347 82.644C63.0746 80.0148 63.6767 76.99 63.6767 73.6888C63.6767 67.916 61.8353 62.9884 59.032 59.5433C58.9252 59.4121 58.7971 59.3027 58.6546 59.2116V59.2116ZM49.1602 73.6888C49.1602 70.2379 49.7836 66.973 50.8945 64.0683C51.3379 62.9086 50.2868 61.5175 49.0453 61.5175V61.5175V61.5175C47.8051 61.5175 46.7556 62.9068 47.1987 64.0651C48.3103 66.9706 48.9343 70.2366 48.9343 73.6888C48.9343 77.8756 48.0166 81.7884 46.4243 85.1165C44.8285 88.4521 45.3476 93.094 49.0453 93.094V93.094V93.094C52.7448 93.094 53.2638 88.4496 51.6679 85.112C50.077 81.7848 49.1602 77.8737 49.1602 73.6888ZM54.7576 57.411C54.8377 57.3654 54.9094 57.3055 54.9705 57.2366V57.2366C55.274 56.8942 55.274 56.376 54.9705 56.0336V56.0336C54.9094 55.9647 54.8377 55.9048 54.7576 55.8592C52.9636 54.8377 51.0197 54.2837 49.0453 54.2837C47.0742 54.2837 45.1335 54.8359 43.342 55.854C43.2612 55.8999 43.1888 55.9604 43.1271 56.0299V56.0299C42.8219 56.3744 42.8219 56.8958 43.1271 57.2402V57.2402C43.1888 57.3098 43.2612 57.3703 43.342 57.4162C45.1335 58.4343 47.0742 58.9865 49.0453 58.9865C51.0197 58.9865 52.9636 58.4324 54.7576 57.411ZM56.7132 54.0586C57.3026 54.4354 58.0652 54.4354 58.6546 54.0586V54.0586C58.7971 53.9675 58.9252 53.8581 59.032 53.7269C61.8353 50.2818 63.6767 45.3542 63.6767 39.5813C63.6767 33.8409 61.8559 28.9362 59.079 25.4939C58.9676 25.3557 58.833 25.2409 58.6833 25.1456V25.1456C58.0761 24.7592 57.2917 24.7592 56.6846 25.1456V25.1456C56.5348 25.2409 56.4003 25.3557 56.2888 25.4939C53.512 28.9362 51.6911 33.8409 51.6911 39.5813C51.6911 45.3542 53.5326 50.2818 56.3359 53.7269C56.4426 53.8581 56.5708 53.9675 56.7132 54.0586V54.0586ZM50.8945 49.2019C51.3379 50.3615 50.2868 51.7527 49.0453 51.7527V51.7527V51.7527C47.8051 51.7527 46.7556 50.3634 47.1987 49.2051C48.3103 46.2995 48.9343 43.0336 48.9343 39.5813C48.9343 36.1348 48.3124 32.8739 47.2042 29.972C46.763 28.8166 47.8085 27.4331 49.0453 27.4331V27.4331V27.4331C50.2834 27.4331 51.3305 28.8184 50.889 29.9752C49.7816 32.8763 49.1602 36.1361 49.1602 39.5813C49.1602 43.0323 49.7836 46.2972 50.8945 49.2019ZM37.69 56.0299C37.9952 56.3744 37.9952 56.8958 37.69 57.2402V57.2402C37.6283 57.3098 37.5559 57.3703 37.4751 57.4162C35.6836 58.4343 33.7429 58.9865 31.7718 58.9865C29.7941 58.9865 27.8468 58.4306 26.0503 57.4058C25.971 57.3606 25.8999 57.3012 25.8394 57.2329V57.2329C25.5376 56.8927 25.5376 56.3775 25.8394 56.0372V56.0372C25.8999 55.969 25.971 55.9096 26.0503 55.8644C27.8469 54.8396 29.7941 54.2837 31.7718 54.2837C33.7429 54.2837 35.6836 54.8359 37.4751 55.854C37.5559 55.8999 37.6283 55.9604 37.69 56.0299V56.0299ZM41.7639 53.7204C41.6564 53.8526 41.5272 53.9628 41.3836 54.0545V54.0545C40.7915 54.4327 40.0256 54.4327 39.4335 54.0545V54.0545C39.2899 53.9628 39.1607 53.8526 39.0532 53.7204C36.2529 50.2755 34.4138 45.3505 34.4138 39.5813C34.4138 33.8445 36.2323 28.9424 39.0062 25.5004C39.1184 25.3611 39.254 25.2455 39.4049 25.1495V25.1495C40.0147 24.7619 40.8024 24.7619 41.4122 25.1495V25.1495C41.5631 25.2455 41.6986 25.3611 41.8108 25.5004C44.5847 28.9424 46.4033 33.8445 46.4033 39.5813C46.4033 45.3505 44.5642 50.2755 41.7639 53.7204ZM31.7718 61.5175C33.012 61.5175 34.0615 62.9068 33.6183 64.0651C32.5067 66.9706 31.8828 70.2366 31.8828 73.6888C31.8828 77.8756 32.8005 81.7884 34.3928 85.1165C35.9886 88.4521 35.4695 93.094 31.7718 93.094V93.094V93.094C28.0704 93.094 27.5514 88.4471 29.1474 85.1074C30.737 81.7812 31.653 77.8717 31.653 73.6888C31.653 70.2391 31.03 66.9754 29.9199 64.0714C29.4761 62.9105 30.5289 61.5175 31.7718 61.5175V61.5175V61.5175ZM44.7593 82.6491C43.1149 86.8038 37.7022 86.8038 36.0578 82.6491C35.0167 80.0187 34.4138 76.9921 34.4138 73.6888C34.4138 67.9196 36.2529 62.9946 39.0532 59.5498C39.1607 59.4176 39.2898 59.3074 39.4335 59.2157V59.2157C40.0256 58.8375 40.7915 58.8375 41.3836 59.2157V59.2157C41.5272 59.3074 41.6564 59.4176 41.7639 59.5498C44.5642 62.9946 46.4033 67.9196 46.4033 73.6888C46.4033 76.9921 45.8004 80.0187 44.7593 82.6491ZM31.7718 51.7527V51.7527C33.012 51.7527 34.0615 50.3633 33.6183 49.2051C32.5067 46.2995 31.8828 43.0336 31.8828 39.5813C31.8828 36.1348 32.5047 32.8739 33.6128 29.972C34.054 28.8166 33.0086 27.4331 31.7718 27.4331V27.4331V27.4331C30.5323 27.4331 29.4835 28.8202 29.9254 29.9783C31.032 32.8787 31.653 36.1373 31.653 39.5813C31.653 43.0311 31.03 46.2948 29.9199 49.1988C29.4761 50.3597 30.5289 51.7527 31.7718 51.7527V51.7527ZM24.0975 59.2076C23.5109 58.8321 22.7515 58.8321 22.1649 59.2076V59.2076C22.0236 59.298 21.8964 59.4066 21.7905 59.5367C18.9841 62.9821 17.1404 67.9123 17.1404 73.6888C17.1404 76.9879 17.7418 80.0109 18.7804 82.639C20.4235 86.7965 25.8389 86.7965 27.482 82.639C28.5206 80.0109 29.122 76.9879 29.122 73.6888C29.122 67.9123 27.2783 62.9821 24.4719 59.5367C24.3659 59.4066 24.2388 59.298 24.0975 59.2076V59.2076ZM14.6094 73.6888C14.6094 70.2391 15.2324 66.9754 16.3425 64.0714C16.7863 62.9105 15.7335 61.5175 14.4906 61.5175V61.5175V61.5175C13.2518 61.5175 12.204 62.905 12.6468 64.0619C13.7591 66.9683 14.3835 70.2354 14.3835 73.6888C14.3835 77.8775 13.465 81.7919 11.8713 85.1211C10.2756 88.4546 10.7948 93.094 14.4906 93.094V93.094V93.094C18.192 93.094 18.711 88.4471 17.115 85.1074C15.5254 81.7812 14.6094 77.8717 14.6094 73.6888ZM20.2121 57.4058C20.2914 57.3606 20.3625 57.3012 20.423 57.2329V57.2329C20.7248 56.8927 20.7248 56.3775 20.423 56.0372V56.0372C20.3624 55.969 20.2914 55.9096 20.2121 55.8644C18.4155 54.8396 16.4683 54.2837 14.4906 54.2837C12.5228 54.2837 10.5853 54.834 8.7964 55.8488C8.71483 55.8951 8.64174 55.9561 8.57956 56.0263V56.0263C8.27263 56.3729 8.27263 56.8973 8.57957 57.2439V57.2439C8.64174 57.3141 8.71483 57.3751 8.7964 57.4214C10.5853 58.4362 12.5228 58.9865 14.4906 58.9865C16.4683 58.9865 18.4155 58.4306 20.2121 57.4058ZM22.1649 54.0626C22.7515 54.4381 23.5109 54.4381 24.0974 54.0626V54.0626C24.2388 53.9722 24.3659 53.8636 24.4719 53.7335C27.2782 50.2881 29.122 45.3579 29.122 39.5813C29.122 33.8373 27.2989 28.93 24.5191 25.4874C24.4084 25.3503 24.2749 25.2363 24.1262 25.1416V25.1416C23.5218 24.7565 22.7406 24.7565 22.1362 25.1416V25.1416C21.9875 25.2363 21.854 25.3503 21.7433 25.4874C18.9635 28.93 17.1404 33.8373 17.1404 39.5813C17.1404 45.3579 18.9841 50.2881 21.7905 53.7335C21.8965 53.8636 22.0236 53.9722 22.1649 54.0626V54.0626ZM16.3425 49.1988C16.7863 50.3597 15.7335 51.7527 14.4906 51.7527V51.7527V51.7527C13.2518 51.7527 12.204 50.3652 12.6468 49.2083C13.7591 46.3019 14.3835 43.0348 14.3835 39.5813C14.3835 36.1336 13.7612 32.8716 12.6523 29.9688C12.2114 28.8148 13.2552 27.4331 14.4906 27.4331V27.4331V27.4331C15.7301 27.4331 16.7789 28.8202 16.337 29.9783C15.2303 32.8787 14.6094 36.1373 14.6094 39.5813C14.6094 43.0311 15.2324 46.2948 16.3425 49.1988ZM3.13205 56.0263C3.43898 56.3729 3.43898 56.8973 3.13205 57.2439V57.2439C3.06988 57.3141 2.9968 57.3751 2.91523 57.4213C1.12628 58.4362 -0.81123 58.9865 -2.77896 58.9865C-4.75337 58.9865 -6.69734 58.4324 -8.49134 57.411C-8.57138 57.3654 -8.64314 57.3055 -8.70424 57.2366V57.2366C-9.00773 56.8942 -9.00772 56.3759 -8.70423 56.0336V56.0336C-8.64313 55.9646 -8.57137 55.9047 -8.49133 55.8592C-6.69733 54.8377 -4.75336 54.2837 -2.77896 54.2837C-0.811226 54.2837 1.12628 54.834 2.91523 55.8488C2.9968 55.8951 3.06988 55.9561 3.13205 56.0263V56.0263ZM7.21841 53.7138C7.11017 53.8471 6.98001 53.9581 6.83525 54.0505V54.0505C6.2404 54.43 5.47121 54.43 4.87635 54.0505V54.0505C4.7316 53.9581 4.60145 53.8471 4.4932 53.7138C1.69587 50.2693 -0.140892 45.3469 -0.140892 39.5813C-0.140892 33.8481 1.67537 28.9485 4.44635 25.5068C4.5593 25.3665 4.69588 25.25 4.84792 25.1535V25.1535C5.46041 24.7645 6.2512 24.7645 6.86369 25.1535V25.1535C7.01573 25.25 7.1523 25.3665 7.26526 25.5068C10.0362 28.9485 11.8525 33.8481 11.8525 39.5813C11.8525 45.3469 10.0157 50.2693 7.21841 53.7138ZM-2.77896 61.5175C-1.54022 61.5175 -0.492361 62.905 -0.935147 64.0619C-2.0475 66.9683 -2.67188 70.2354 -2.67188 73.6888C-2.67188 77.8775 -1.75336 81.7919 -0.159738 85.1211C1.43597 88.4546 0.916791 93.094 -2.77896 93.094V93.094V93.094C-6.47851 93.094 -6.99755 88.4496 -5.40162 85.112C-3.81069 81.7848 -2.89386 77.8737 -2.89386 73.6888C-2.89386 70.2379 -3.51734 66.973 -4.62817 64.0683C-5.07163 62.9086 -4.02049 61.5175 -2.77896 61.5175V61.5175V61.5175ZM10.2065 82.6541C8.56146 86.8074 3.15015 86.8074 1.50512 82.6541C0.462812 80.0225 -0.140892 76.9942 -0.140892 73.6888C-0.140892 67.9233 1.69586 63.0009 4.49319 59.5564C4.60144 59.4231 4.7316 59.3121 4.87635 59.2197V59.2197C5.47121 58.8402 6.2404 58.8402 6.83526 59.2197V59.2197C6.98001 59.3121 7.11017 59.4231 7.21842 59.5564C10.0157 63.0009 11.8525 67.9233 11.8525 73.6888C11.8525 76.9942 11.2488 80.0225 10.2065 82.6541ZM-2.77896 51.7527V51.7527C-1.54022 51.7527 -0.492357 50.3652 -0.935142 49.2082C-2.04749 46.3019 -2.67188 43.0348 -2.67188 39.5813C-2.67188 36.1336 -2.04955 32.8716 -0.940645 29.9688C-0.49978 28.8148 -1.54359 27.4331 -2.77896 27.4331V27.4331V27.4331C-4.01712 27.4331 -5.06422 28.8184 -4.62267 29.9752C-3.51528 32.8763 -2.89386 36.1361 -2.89386 39.5813C-2.89386 43.0323 -3.51734 46.2972 -4.62817 49.2019C-5.07163 50.3615 -4.02049 51.7527 -2.77896 51.7527V51.7527ZM-10.4469 59.2116C-11.0363 58.8348 -11.799 58.8348 -12.3883 59.2116V59.2116C-12.5308 59.3027 -12.6589 59.4121 -12.7657 59.5433C-15.569 62.9884 -17.4104 67.916 -17.4104 73.6888C-17.4104 76.99 -16.8083 80.0148 -15.7684 82.644C-14.1247 86.8002 -8.71061 86.8002 -7.06686 82.644C-6.02701 80.0148 -5.42484 76.99 -5.42484 73.6888C-5.42484 67.916 -7.26627 62.9884 -10.0696 59.5433C-10.1763 59.4121 -10.3045 59.3027 -10.4469 59.2116V59.2116ZM-19.9414 73.6888C-19.9414 70.2379 -19.3179 66.973 -18.2071 64.0683C-17.7636 62.9086 -18.8148 61.5175 -20.0563 61.5175V61.5175V61.5175C-21.2978 61.5175 -22.349 62.9086 -21.9055 64.0683C-20.7947 66.973 -20.1712 70.2379 -20.1712 73.6888C-20.1712 77.8737 -21.088 81.7848 -22.679 85.112C-24.2749 88.4496 -23.7559 93.094 -20.0563 93.094V93.094V93.094C-16.3568 93.094 -15.8377 88.4496 -17.4336 85.112C-19.0246 81.7848 -19.9414 77.8737 -19.9414 73.6888ZM-14.3439 57.411C-14.2639 57.3654 -14.1921 57.3055 -14.131 57.2366V57.2366C-13.8275 56.8942 -13.8275 56.3759 -14.131 56.0336V56.0336C-14.1921 55.9646 -14.2639 55.9047 -14.3439 55.8592C-16.1379 54.8377 -18.0819 54.2837 -20.0563 54.2837C-22.0307 54.2837 -23.9747 54.8377 -25.7687 55.8592C-25.8487 55.9047 -25.9205 55.9646 -25.9816 56.0336V56.0336C-26.2851 56.3759 -26.2851 56.8942 -25.9816 57.2366V57.2366C-25.9205 57.3055 -25.8487 57.3654 -25.7687 57.411C-23.9747 58.4324 -22.0307 58.9865 -20.0563 58.9865C-18.0819 58.9865 -16.1379 58.4324 -14.3439 57.411ZM-12.3883 54.0586C-11.7989 54.4354 -11.0363 54.4354 -10.447 54.0586V54.0586C-10.3045 53.9675 -10.1763 53.8581 -10.0696 53.7269C-7.26627 50.2818 -5.42484 45.3542 -5.42484 39.5813C-5.42484 33.8409 -7.24567 28.9362 -10.0225 25.4939C-10.134 25.3557 -10.2685 25.2409 -10.4183 25.1456V25.1456C-11.0254 24.7592 -11.8099 24.7592 -12.417 25.1456V25.1456C-12.5667 25.2409 -12.7013 25.3557 -12.8127 25.4939C-15.5896 28.9362 -17.4104 33.8409 -17.4104 39.5813C-17.4104 45.3542 -15.569 50.2818 -12.7657 53.7269C-12.6589 53.8581 -12.5308 53.9675 -12.3883 54.0586V54.0586ZM-18.2071 49.2019C-17.7636 50.3615 -18.8148 51.7527 -20.0563 51.7527V51.7527V51.7527C-21.2978 51.7527 -22.349 50.3615 -21.9055 49.2019C-20.7947 46.2972 -20.1712 43.0323 -20.1712 39.5813C-20.1712 36.1361 -20.7926 32.8763 -21.9 29.9752C-22.3416 28.8184 -21.2945 27.4331 -20.0563 27.4331V27.4331V27.4331C-18.8181 27.4331 -17.771 28.8184 -18.2126 29.9752C-19.32 32.8763 -19.9414 36.1361 -19.9414 39.5813C-19.9414 43.0323 -19.3179 46.2972 -18.2071 49.2019ZM-31.4084 56.0336C-31.1049 56.3759 -31.1049 56.8942 -31.4084 57.2366V57.2366C-31.4695 57.3055 -31.5412 57.3654 -31.6213 57.411C-33.4153 58.4324 -35.3592 58.9865 -37.3336 58.9865V58.9865C-40.9799 58.9865 -40.9799 54.2837 -37.3336 54.2837V54.2837C-35.3592 54.2837 -33.4153 54.8377 -31.6213 55.8592C-31.5412 55.9047 -31.4695 55.9646 -31.4084 56.0336V56.0336ZM-27.3469 53.7269C-27.4537 53.8581 -27.5818 53.9675 -27.7243 54.0586V54.0586C-28.3137 54.4354 -29.0763 54.4354 -29.6656 54.0586V54.0586C-29.8081 53.9675 -29.9363 53.8581 -30.043 53.7269C-32.8463 50.2818 -34.6878 45.3542 -34.6878 39.5813C-34.6878 33.8409 -32.8669 28.9362 -30.0901 25.4939C-29.9786 25.3557 -29.8441 25.2409 -29.6943 25.1456V25.1456C-29.0872 24.7592 -28.3028 24.7592 -27.6956 25.1456V25.1456C-27.5459 25.2409 -27.4113 25.3557 -27.2999 25.4939C-24.523 28.9362 -22.7022 33.8409 -22.7022 39.5813C-22.7022 45.3542 -24.5436 50.2818 -27.3469 53.7269ZM-37.3336 61.5175C-36.0921 61.5175 -35.041 62.9086 -35.4844 64.0683C-36.5953 66.973 -37.2188 70.2379 -37.2188 73.6888C-37.2188 77.8737 -36.3019 81.7848 -34.711 85.112C-33.1151 88.4496 -33.6341 93.094 -37.3336 93.094V93.094C-44.8712 93.094 -51.9651 85.0196 -51.9651 73.6888C-51.9651 70.2789 -51.3226 67.1638 -50.2189 64.475C-48.6245 60.591 -43.7363 60.6317 -39.5961 61.3286C-38.8558 61.4532 -38.1006 61.5175 -37.3336 61.5175V61.5175ZM-24.3442 82.644C-25.988 86.8002 -31.402 86.8002 -33.0457 82.644C-34.0856 80.0148 -34.6878 76.99 -34.6878 73.6888C-34.6878 67.916 -32.8463 62.9884 -30.043 59.5433C-29.9363 59.4121 -29.8081 59.3027 -29.6657 59.2116V59.2116C-29.0763 58.8348 -28.3137 58.8348 -27.7243 59.2116V59.2116C-27.5818 59.3027 -27.4537 59.4121 -27.3469 59.5433C-24.5436 62.9884 -22.7022 67.916 -22.7022 73.6888C-22.7022 76.99 -23.3043 80.0148 -24.3442 82.644ZM-37.3336 51.7527V51.7527C-36.0921 51.7527 -35.041 50.3615 -35.4844 49.2019C-36.5953 46.2972 -37.2188 43.0323 -37.2188 39.5813C-37.2188 36.1361 -36.5973 32.8763 -35.4899 29.9752C-35.0484 28.8184 -36.0955 27.4331 -37.3336 27.4331V27.4331C-38.1009 27.4331 -38.8564 27.3688 -39.597 27.2441C-43.7437 26.5458 -48.6409 26.5062 -50.2317 30.3988C-51.3276 33.0805 -51.9651 36.1846 -51.9651 39.5813C-51.9651 42.9913 -51.3226 46.1064 -50.2189 48.7952C-48.6245 52.6792 -43.7363 52.6385 -39.5961 51.9416C-38.8558 51.817 -38.1006 51.7527 -37.3336 51.7527ZM85.8594 17.8343C90.0061 18.5325 94.9033 18.5722 96.4941 14.6796C97.59 11.9979 98.2275 8.89378 98.2275 5.497C98.2275 2.09142 97.5867 -1.02 96.4855 -3.70642C94.8924 -7.59328 90.0012 -7.55295 85.8588 -6.85562C85.1184 -6.73098 84.3631 -6.66666 83.596 -6.66666V-6.66666C82.357 -6.66666 81.3089 -5.27925 81.7514 -4.12194C82.8618 -1.21761 83.485 2.04667 83.485 5.497C83.485 8.94353 82.8632 12.2044 81.755 15.1064C81.3138 16.2617 82.3593 17.6452 83.596 17.6452V17.6452C84.3633 17.6452 85.1188 17.7096 85.8594 17.8343ZM77.7126 21.9063C77.7782 21.8319 77.8555 21.7673 77.942 21.7187C79.7198 20.7183 81.643 20.1762 83.596 20.1762V20.1762C87.2565 20.1762 87.2565 24.9021 83.596 24.9021V24.9021C81.643 24.9021 79.7198 24.3601 77.942 23.3597C77.8555 23.311 77.7782 23.2465 77.7126 23.172V23.172C77.3947 22.8113 77.3947 22.267 77.7126 21.9063V21.9063ZM72.206 21.9063C72.5239 22.267 72.5239 22.8113 72.206 23.172V23.172C72.1404 23.2465 72.0631 23.311 71.9767 23.3597C70.1989 24.36 68.2756 24.9021 66.3226 24.9021C64.3663 24.9021 62.4398 24.3582 60.6596 23.3546C60.5739 23.3063 60.4972 23.2423 60.4321 23.1685V23.1685C60.1159 22.8098 60.1159 22.2685 60.4321 21.9099V21.9099C60.4972 21.8361 60.5739 21.772 60.6596 21.7237C62.4398 20.7201 64.3663 20.1762 66.3226 20.1762C68.2756 20.1762 70.1989 20.7183 71.9767 21.7187C72.0631 21.7673 72.1404 21.8319 72.206 21.9063V21.9063ZM76.3616 19.578C76.2494 19.7172 76.1139 19.8329 75.963 19.9288V19.9288C75.3531 20.3165 74.5655 20.3165 73.9557 19.9288V19.9288C73.8048 19.8329 73.6692 19.7172 73.557 19.578C70.7831 16.136 68.9646 11.2339 68.9646 5.497C68.9646 -0.261349 70.7968 -5.17868 73.5882 -8.62258C73.6973 -8.75714 73.8286 -8.86916 73.9746 -8.9623V-8.9623C74.5727 -9.3437 75.3459 -9.34369 75.944 -8.96229V-8.96229C76.0901 -8.86915 76.2214 -8.75713 76.3304 -8.62257C79.1219 -5.17867 80.9541 -0.26135 80.9541 5.497C80.9541 11.2339 79.1355 16.136 76.3616 19.578ZM66.3226 17.6452V17.6452C67.5594 17.6452 68.6048 16.2617 68.1636 15.1064C67.0555 12.2044 66.4336 8.94354 66.4336 5.497C66.4336 2.04667 67.0568 -1.2176 68.1673 -4.12194C68.6098 -5.27925 67.5616 -6.66666 66.3226 -6.66666V-6.66666V-6.66666C65.0822 -6.66666 64.0324 -5.27745 64.4752 -4.11878C65.5849 -1.21523 66.2077 2.04792 66.2077 5.497C66.2077 8.94228 65.5863 12.202 64.4789 15.1032C64.0373 16.2599 65.0844 17.6452 66.3226 17.6452V17.6452ZM54.7083 23.3546C54.794 23.3063 54.8707 23.2423 54.9357 23.1685V23.1685C55.2519 22.8098 55.2519 22.2685 54.9357 21.9099V21.9099C54.8707 21.8361 54.794 21.7721 54.7083 21.7238C52.928 20.7202 51.0016 20.1762 49.0453 20.1762C47.0922 20.1762 45.169 20.7183 43.3912 21.7187C43.3047 21.7673 43.2274 21.8319 43.1618 21.9063V21.9063C42.844 22.267 42.844 22.8113 43.1618 23.172V23.172C43.2274 23.2465 43.3048 23.311 43.3912 23.3597C45.169 24.3601 47.0922 24.9021 49.0453 24.9021C51.0016 24.9021 52.928 24.3582 54.7083 23.3546ZM56.6846 19.9328C57.2917 20.3192 58.0761 20.3191 58.6833 19.9328V19.9328C58.8331 19.8375 58.9676 19.7226 59.0791 19.5844C61.8559 16.1421 63.6767 11.2375 63.6767 5.497C63.6767 -0.265 61.8422 -5.18491 59.0478 -8.62912C58.9395 -8.76262 58.8092 -8.87382 58.6643 -8.96632V-8.96632C58.0689 -9.34637 57.2989 -9.34637 56.7036 -8.96632V-8.96632C56.5587 -8.87382 56.4284 -8.76262 56.3201 -8.62912C53.5256 -5.18491 51.6911 -0.265 51.6911 5.497C51.6911 11.2375 53.512 16.1421 56.2888 19.5844C56.4003 19.7226 56.5348 19.8375 56.6846 19.9328V19.9328ZM50.889 15.1032C51.3305 16.2599 50.2834 17.6452 49.0453 17.6452V17.6452V17.6452C47.8085 17.6452 46.763 16.2617 47.2042 15.1064C48.3124 12.2044 48.9343 8.94353 48.9343 5.497C48.9343 2.04667 48.311 -1.2176 47.2006 -4.12194C46.7581 -5.27925 47.8062 -6.66666 49.0453 -6.66666V-6.66666V-6.66666C50.2857 -6.66666 51.3355 -5.27744 50.8926 -4.11877C49.7829 -1.21523 49.1602 2.04793 49.1602 5.497C49.1602 8.94228 49.7816 12.202 50.889 15.1032ZM37.6553 21.9063C37.9731 22.267 37.9731 22.8113 37.6553 23.172V23.172C37.5897 23.2465 37.5123 23.311 37.4259 23.3597C35.6481 24.36 33.7249 24.9021 31.7718 24.9021C29.8122 24.9021 27.8826 24.3564 26.0998 23.3495C26.0148 23.3016 25.9388 23.2381 25.8743 23.1649V23.1649C25.5598 22.8083 25.5598 22.27 25.8743 21.9134V21.9134C25.9388 21.8403 26.0148 21.7768 26.0998 21.7288C27.8826 20.722 29.8122 20.1762 31.7718 20.1762C33.7248 20.1762 35.6481 20.7183 37.4259 21.7187C37.5123 21.7673 37.5897 21.8319 37.6553 21.9063V21.9063ZM41.8108 19.578C41.6986 19.7172 41.5631 19.8329 41.4122 19.9288V19.9288C40.8024 20.3165 40.0147 20.3165 39.4049 19.9288V19.9288C39.254 19.8329 39.1184 19.7172 39.0062 19.578C36.2323 16.136 34.4138 11.2339 34.4138 5.497C34.4138 -0.261356 36.246 -5.17868 39.0374 -8.62258C39.1465 -8.75714 39.2778 -8.86917 39.4238 -8.9623V-8.9623C40.0219 -9.3437 40.7952 -9.3437 41.3932 -8.9623V-8.9623C41.5393 -8.86917 41.6706 -8.75714 41.7796 -8.62258C44.5711 -5.17868 46.4033 -0.261356 46.4033 5.497C46.4033 11.2339 44.5847 16.136 41.8108 19.578ZM31.7718 17.6452V17.6452C33.0086 17.6452 34.054 16.2617 33.6128 15.1064C32.5047 12.2044 31.8828 8.94354 31.8828 5.497C31.8828 2.04667 32.5061 -1.2176 33.6165 -4.12194C34.059 -5.27925 33.0108 -6.66666 31.7718 -6.66666V-6.66666V-6.66666C30.53 -6.66666 29.4786 -5.27564 29.9217 -4.11561C31.0307 -1.21286 31.653 2.04918 31.653 5.497C31.653 8.94103 31.032 12.1997 29.9254 15.1C29.4835 16.2581 30.5323 17.6452 31.7718 17.6452V17.6452ZM20.1626 23.3495C20.2476 23.3016 20.3236 23.2381 20.3881 23.1649V23.1649C20.7026 22.8084 20.7026 22.27 20.3881 21.9134V21.9134C20.3236 21.8403 20.2476 21.7768 20.1626 21.7288C18.3798 20.722 16.4502 20.1762 14.4906 20.1762C12.5408 20.1762 10.6208 20.7165 8.8455 21.7136C8.75827 21.7626 8.68027 21.8277 8.61414 21.9028V21.9028C8.29463 22.2656 8.29463 22.8128 8.61415 23.1756V23.1756C8.68028 23.2506 8.75827 23.3157 8.8455 23.3647C10.6208 24.3619 12.5408 24.9021 14.4906 24.9021C16.4502 24.9021 18.3798 24.3564 20.1626 23.3495ZM22.1361 19.9368C22.7406 20.3218 23.5218 20.3218 24.1263 19.9368V19.9368C24.2749 19.8421 24.4084 19.7281 24.5191 19.5909C27.2989 16.1483 29.122 11.2411 29.122 5.497C29.122 -0.268658 27.2852 -5.19116 24.4878 -8.63568C24.3802 -8.76812 24.2509 -8.87849 24.1072 -8.97037V-8.97037C23.5146 -9.34906 22.7478 -9.34906 22.1552 -8.97037V-8.97037C22.0115 -8.87849 21.8822 -8.76812 21.7746 -8.63568C18.9772 -5.19116 17.1404 -0.268658 17.1404 5.497C17.1404 11.2411 18.9635 16.1483 21.7433 19.5909C21.854 19.7281 21.9875 19.8421 22.1361 19.9368V19.9368ZM16.337 15.1C16.7789 16.2581 15.7301 17.6452 14.4906 17.6452V17.6452V17.6452C13.2552 17.6452 12.2114 16.2636 12.6523 15.1095C13.7612 12.2068 14.3835 8.94479 14.3835 5.497C14.3835 2.04542 13.7598 -1.21998 12.6486 -4.12511C12.2064 -5.28106 13.2529 -6.66666 14.4906 -6.66666V-6.66666V-6.66666C15.7324 -6.66666 16.7838 -5.27564 16.3406 -4.11561C15.2317 -1.21286 14.6094 2.04918 14.6094 5.497C14.6094 8.94103 15.2303 12.1997 16.337 15.1ZM3.09746 21.9028C3.41698 22.2656 3.41698 22.8128 3.09746 23.1756V23.1756C3.03134 23.2506 2.95334 23.3157 2.86611 23.3647C1.09084 24.3619 -0.829222 24.9021 -2.77896 24.9021C-4.73528 24.9021 -6.66172 24.3582 -8.44201 23.3546C-8.5277 23.3063 -8.60437 23.2423 -8.66943 23.1685V23.1685C-8.98563 22.8098 -8.98564 22.2685 -8.66944 21.9099V21.9099C-8.60438 21.8361 -8.52773 21.7721 -8.44203 21.7238C-6.66174 20.7202 -4.73529 20.1762 -2.77896 20.1762C-0.829217 20.1762 1.09084 20.7165 2.86612 21.7136C2.95335 21.7626 3.03134 21.8277 3.09746 21.9028V21.9028ZM7.26527 19.5715C7.15231 19.7118 7.01574 19.8283 6.86369 19.9249V19.9249C6.2512 20.3139 5.4604 20.3139 4.84792 19.9249V19.9249C4.69587 19.8283 4.5593 19.7118 4.44634 19.5715C1.67537 16.1298 -0.140892 11.2303 -0.140892 5.497C-0.140892 -0.257718 1.68898 -5.17247 4.47747 -8.61605C4.58729 -8.75168 4.71959 -8.86452 4.86678 -8.95829V-8.95829C5.46757 -9.34103 6.24404 -9.34103 6.84483 -8.95829V-8.95829C6.99201 -8.86452 7.12431 -8.75168 7.23414 -8.61605C10.0226 -5.17247 11.8525 -0.257717 11.8525 5.497C11.8525 11.2303 10.0362 16.1298 7.26527 19.5715ZM-2.77896 17.6452V17.6452C-1.54359 17.6452 -0.49978 16.2636 -0.940645 15.1095C-2.04955 12.2068 -2.67188 8.94479 -2.67188 5.497C-2.67188 2.04542 -2.04818 -1.21997 -0.936977 -4.12511C-0.494832 -5.28106 -1.54134 -6.66666 -2.77896 -6.66666V-6.66666V-6.66666C-4.01937 -6.66666 -5.06916 -5.27744 -4.62634 -4.11878C-3.51665 -1.21523 -2.89386 2.04793 -2.89386 5.497C-2.89386 8.94228 -3.51528 12.2021 -4.62267 15.1032C-5.06422 16.2599 -4.01712 17.6452 -2.77896 17.6452V17.6452ZM-14.3933 23.3546C-14.3076 23.3063 -14.2309 23.2423 -14.1658 23.1685V23.1685C-13.8496 22.8098 -13.8496 22.2685 -14.1658 21.9099V21.9099C-14.2309 21.8361 -14.3076 21.7721 -14.3932 21.7237C-16.1735 20.7201 -18.1 20.1762 -20.0563 20.1762C-22.0126 20.1762 -23.9391 20.7201 -25.7194 21.7237C-25.8051 21.7721 -25.8817 21.8361 -25.9468 21.9099V21.9099C-26.263 22.2685 -26.263 22.8098 -25.9468 23.1685V23.1685C-25.8817 23.2423 -25.8051 23.3063 -25.7194 23.3546C-23.9391 24.3582 -22.0126 24.9021 -20.0563 24.9021C-18.1 24.9021 -16.1735 24.3582 -14.3933 23.3546ZM-12.417 19.9328C-11.8099 20.3192 -11.0254 20.3192 -10.4183 19.9328V19.9328C-10.2685 19.8375 -10.134 19.7226 -10.0225 19.5845C-7.24567 16.1421 -5.42484 11.2375 -5.42484 5.497C-5.42484 -0.264999 -7.25935 -5.18491 -10.0538 -8.62912C-10.1621 -8.76262 -10.2924 -8.87383 -10.4373 -8.96634V-8.96634C-11.0326 -9.34636 -11.8026 -9.34642 -12.3979 -8.9664V-8.9664C-12.5428 -8.87391 -12.6731 -8.76271 -12.7814 -8.62922C-15.5759 -5.18501 -17.4104 -0.265057 -17.4104 5.497C-17.4104 11.2375 -15.5896 16.1421 -12.8128 19.5845C-12.7013 19.7226 -12.5668 19.8375 -12.417 19.9328V19.9328ZM-18.2126 15.1032C-17.771 16.2599 -18.8181 17.6452 -20.0563 17.6452V17.6452V17.6452C-21.2945 17.6452 -22.3416 16.2599 -21.9 15.1032C-20.7926 12.202 -20.1712 8.94228 -20.1712 5.497C-20.1712 2.04795 -20.794 -1.21517 -21.9037 -4.1187C-22.3465 -5.27747 -21.2966 -6.66685 -20.0561 -6.66685V-6.66685V-6.66685C-18.8157 -6.66685 -17.766 -5.27769 -18.2088 -4.11908C-19.3186 -1.21546 -19.9414 2.0478 -19.9414 5.497C-19.9414 8.94228 -19.32 12.2021 -18.2126 15.1032ZM-31.4432 21.9099C-31.127 22.2685 -31.127 22.8098 -31.4432 23.1685V23.1685C-31.5082 23.2423 -31.5849 23.3063 -31.6706 23.3546C-33.4509 24.3582 -35.3773 24.9021 -37.3336 24.9021V24.9021C-40.9941 24.9021 -40.9941 20.1762 -37.3336 20.1762V20.1762C-35.3773 20.1762 -33.4509 20.7201 -31.6706 21.7237C-31.5849 21.7721 -31.5082 21.8361 -31.4432 21.9099V21.9099ZM-27.2998 19.5844C-27.4113 19.7226 -27.5459 19.8375 -27.6956 19.9328V19.9328C-28.3028 20.3191 -29.0872 20.3191 -29.6943 19.9328V19.9328C-29.8441 19.8375 -29.9786 19.7226 -30.0901 19.5844C-32.8669 16.1421 -34.6878 11.2375 -34.6878 5.497C-34.6878 -0.265256 -32.8531 -5.18534 -30.0584 -8.62957C-29.9502 -8.76303 -29.8199 -8.87424 -29.675 -8.96672V-8.96672C-29.08 -9.34659 -28.3101 -9.3468 -27.715 -8.96691V-8.96691C-27.5703 -8.87448 -27.4401 -8.76337 -27.3319 -8.63C-24.537 -5.18574 -22.7022 -0.26549 -22.7022 5.497C-22.7022 11.2375 -24.523 16.1421 -27.2998 19.5844ZM85.8588 -16.2501C90.0012 -15.5528 94.8924 -15.5125 96.4855 -19.3993C97.5867 -22.0858 98.2275 -25.1972 98.2275 -28.6028C98.2275 -39.9335 91.1336 -48.0079 83.596 -48.0079V-48.0079C79.8984 -48.0079 79.3793 -43.366 80.9751 -40.0305C82.5674 -36.7023 83.485 -32.7895 83.485 -28.6028C83.485 -25.1524 82.8618 -21.8882 81.7514 -18.9838C81.3089 -17.8265 82.357 -16.4391 83.596 -16.4391V-16.4391C84.3631 -16.4391 85.1184 -16.3748 85.8588 -16.2501ZM77.6896 -12.1674C77.7525 -12.2386 77.8266 -12.3004 77.9093 -12.3472C79.6962 -13.3594 81.631 -13.9081 83.596 -13.9081V-13.9081C87.2471 -13.9081 87.2471 -9.19765 83.596 -9.19765V-9.19765C81.631 -9.19765 79.6962 -9.74641 77.9093 -10.7586C77.8266 -10.8054 77.7525 -10.8672 77.6896 -10.9384V-10.9384C77.3801 -11.2883 77.3801 -11.8174 77.6896 -12.1674V-12.1674ZM72.2291 -12.1674C72.5386 -11.8174 72.5386 -11.2883 72.2291 -10.9384V-10.9384C72.1661 -10.8672 72.0921 -10.8054 72.0094 -10.7586C70.2225 -9.74641 68.2876 -9.19765 66.3226 -9.19765C64.3543 -9.19765 62.4162 -9.74827 60.6268 -10.7637C60.5448 -10.8102 60.4714 -10.8715 60.409 -10.942V-10.942C60.1012 -11.2899 60.1012 -11.8159 60.409 -12.1637V-12.1637C60.4714 -12.2343 60.5448 -12.2956 60.6268 -12.3421C62.4162 -13.3575 64.3543 -13.9081 66.3226 -13.9081C68.2876 -13.9081 70.2225 -13.3594 72.0094 -12.3472C72.0921 -12.3004 72.1661 -12.2386 72.2291 -12.1674V-12.1674ZM76.3304 -14.4832C76.2214 -14.3486 76.0901 -14.2366 75.944 -14.1435V-14.1435C75.3459 -13.7621 74.5727 -13.7621 73.9746 -14.1435V-14.1435C73.8286 -14.2366 73.6973 -14.3486 73.5882 -14.4832C70.7968 -17.9271 68.9646 -22.8444 68.9646 -28.6028C68.9646 -31.9061 69.5675 -34.9326 70.6086 -37.563C72.253 -41.7177 77.6657 -41.7177 79.3101 -37.563C80.3511 -34.9326 80.9541 -31.9061 80.9541 -28.6028C80.9541 -22.8444 79.1219 -17.9271 76.3304 -14.4832ZM66.3226 -16.4391V-16.4391C67.5616 -16.4391 68.6098 -17.8265 68.1673 -18.9838C67.0568 -21.8882 66.4336 -25.1524 66.4336 -28.6028C66.4336 -32.7895 67.3513 -36.7023 68.9435 -40.0305C70.5394 -43.366 70.0203 -48.0079 66.3226 -48.0079V-48.0079V-48.0079C62.6231 -48.0079 62.104 -43.3635 63.6999 -40.0259C65.2909 -36.6987 66.2077 -32.7876 66.2077 -28.6028C66.2077 -25.1537 65.5849 -21.8905 64.4752 -18.987C64.0324 -17.8283 65.0822 -16.4391 66.3226 -16.4391V-16.4391ZM54.7411 -10.7637C54.823 -10.8102 54.8964 -10.8715 54.9588 -10.942V-10.942C55.2666 -11.2899 55.2666 -11.8159 54.9588 -12.1638V-12.1638C54.8964 -12.2343 54.823 -12.2956 54.7411 -12.3421C52.9517 -13.3575 51.0136 -13.9081 49.0453 -13.9081C47.0802 -13.9081 45.1454 -13.3594 43.3585 -12.3472C43.2758 -12.3004 43.2017 -12.2386 43.1388 -12.1674V-12.1674C42.8293 -11.8174 42.8293 -11.2883 43.1388 -10.9384V-10.9384C43.2017 -10.8672 43.2758 -10.8054 43.3585 -10.7586C45.1454 -9.74641 47.0802 -9.19765 49.0453 -9.19765C51.0136 -9.19765 52.9517 -9.74827 54.7411 -10.7637ZM56.7036 -14.1394C57.2989 -13.7594 58.0689 -13.7594 58.6643 -14.1394V-14.1394C58.8092 -14.2319 58.9395 -14.3431 59.0478 -14.4766C61.8422 -17.9209 63.6767 -22.8408 63.6767 -28.6028C63.6767 -31.904 63.0746 -34.9288 62.0347 -37.558C60.3909 -41.7141 54.9769 -41.7141 53.3332 -37.558C52.2933 -34.9288 51.6911 -31.904 51.6911 -28.6028C51.6911 -22.8408 53.5256 -17.9209 56.3201 -14.4766C56.4284 -14.3431 56.5587 -14.2319 56.7036 -14.1394V-14.1394ZM50.8926 -18.987C51.3355 -17.8283 50.2857 -16.4391 49.0453 -16.4391V-16.4391V-16.4391C47.8062 -16.4391 46.7581 -17.8265 47.2006 -18.9838C48.311 -21.8882 48.9343 -25.1524 48.9343 -28.6028C48.9343 -32.7895 48.0166 -36.7023 46.4243 -40.0305C44.8285 -43.366 45.3476 -48.0079 49.0453 -48.0079V-48.0079V-48.0079C52.7448 -48.0079 53.2638 -43.3635 51.6679 -40.0259C50.077 -36.6987 49.1602 -32.7876 49.1602 -28.6028C49.1602 -25.1537 49.7829 -21.8905 50.8926 -18.987ZM37.6783 -12.1674C37.9878 -11.8174 37.9878 -11.2883 37.6783 -10.9384V-10.9384C37.6153 -10.8672 37.5413 -10.8054 37.4586 -10.7586C35.6717 -9.74641 33.7368 -9.19765 31.7718 -9.19765C29.8002 -9.19765 27.8588 -9.75013 26.0669 -10.7689C25.9857 -10.815 25.913 -10.8757 25.8511 -10.9456V-10.9456C25.5451 -11.2914 25.5451 -11.8144 25.8511 -12.1601V-12.1601C25.913 -12.23 25.9857 -12.2908 26.0669 -12.3369C27.8588 -13.3556 29.8001 -13.9081 31.7718 -13.9081C33.7368 -13.9081 35.6717 -13.3594 37.4586 -12.3472C37.5413 -12.3004 37.6153 -12.2386 37.6783 -12.1674V-12.1674ZM41.7796 -14.4832C41.6706 -14.3486 41.5393 -14.2366 41.3932 -14.1435V-14.1435C40.7952 -13.7621 40.0219 -13.7621 39.4238 -14.1435V-14.1435C39.2778 -14.2366 39.1465 -14.3486 39.0374 -14.4832C36.246 -17.9271 34.4138 -22.8444 34.4138 -28.6028C34.4138 -31.9061 35.0167 -34.9326 36.0578 -37.563C37.7022 -41.7177 43.1149 -41.7177 44.7593 -37.563C45.8003 -34.9326 46.4033 -31.9061 46.4033 -28.6028C46.4033 -22.8444 44.5711 -17.9271 41.7796 -14.4832ZM31.7718 -16.4391V-16.4391C33.0108 -16.4391 34.059 -17.8265 33.6165 -18.9838C32.5061 -21.8882 31.8828 -25.1524 31.8828 -28.6028C31.8828 -32.7895 32.8005 -36.7023 34.3928 -40.0305C35.9886 -43.366 35.4695 -48.0079 31.7718 -48.0079V-48.0079V-48.0079C28.0704 -48.0079 27.5514 -43.361 29.1474 -40.0213C30.737 -36.6951 31.653 -32.7857 31.653 -28.6028C31.653 -25.1549 31.0307 -21.8929 29.9217 -18.9902C29.4786 -17.8301 30.53 -16.4391 31.7718 -16.4391V-16.4391ZM20.1955 -10.7689C20.2767 -10.815 20.3494 -10.8757 20.4113 -10.9456V-10.9456C20.7173 -11.2914 20.7173 -11.8144 20.4113 -12.1601V-12.1601C20.3494 -12.23 20.2767 -12.2908 20.1955 -12.3369C18.4036 -13.3556 16.4622 -13.9081 14.4906 -13.9081C12.5289 -13.9081 10.5972 -13.3612 8.81286 -12.3523C8.72941 -12.3051 8.65469 -12.2428 8.59119 -12.171V-12.171C8.28002 -11.8189 8.28001 -11.2868 8.59118 -10.9348V-10.9348C8.65468 -10.863 8.7294 -10.8006 8.81285 -10.7534C10.5972 -9.74456 12.5289 -9.19765 14.4906 -9.19765C16.4622 -9.19765 18.4036 -9.75014 20.1955 -10.7689ZM22.1552 -14.1354C22.7478 -13.7567 23.5146 -13.7567 24.1072 -14.1354V-14.1354C24.2509 -14.2273 24.3802 -14.3376 24.4877 -14.4701C27.2852 -17.9146 29.122 -22.8371 29.122 -28.6028C29.122 -31.9019 28.5206 -34.9249 27.482 -37.5529C25.8389 -41.7105 20.4235 -41.7105 18.7804 -37.5529C17.7418 -34.9249 17.1404 -31.9019 17.1404 -28.6028C17.1404 -22.8371 18.9772 -17.9146 21.7746 -14.4701C21.8822 -14.3376 22.0115 -14.2273 22.1552 -14.1354V-14.1354ZM16.3406 -18.9902C16.7838 -17.8301 15.7324 -16.4391 14.4906 -16.4391V-16.4391V-16.4391C13.253 -16.4391 12.2064 -17.8247 12.6486 -18.9807C13.7598 -21.8858 14.3835 -25.1512 14.3835 -28.6028C14.3835 -32.7914 13.465 -36.7059 11.8713 -40.035C10.2756 -43.3685 10.7948 -48.0079 14.4906 -48.0079V-48.0079V-48.0079C18.192 -48.0079 18.711 -43.361 17.115 -40.0213C15.5254 -36.6951 14.6094 -32.7857 14.6094 -28.6028C14.6094 -25.1549 15.2317 -21.8929 16.3406 -18.9902ZM3.12043 -12.171C3.43161 -11.8189 3.4316 -11.2868 3.12043 -10.9348V-10.9348C3.05693 -10.863 2.98221 -10.8006 2.89876 -10.7534C1.11438 -9.74456 -0.817264 -9.19765 -2.77896 -9.19765C-4.74731 -9.19765 -6.6854 -9.74827 -8.47481 -10.7637C-8.55673 -10.8102 -8.63012 -10.8715 -8.69253 -10.942V-10.942C-9.00031 -11.2898 -9.0002 -11.816 -8.69242 -12.1638V-12.1638C-8.62999 -12.2344 -8.55657 -12.2957 -8.47463 -12.3422C-6.68527 -13.3575 -4.74724 -13.9081 -2.77896 -13.9081C-0.817263 -13.9081 1.1144 -13.3612 2.89877 -12.3523C2.98222 -12.3051 3.05694 -12.2428 3.12043 -12.171V-12.171ZM7.23414 -14.4897C7.12432 -14.3541 6.99202 -14.2412 6.84484 -14.1475V-14.1475C6.24404 -13.7647 5.46757 -13.7647 4.86677 -14.1475V-14.1475C4.71959 -14.2412 4.58729 -14.3541 4.47747 -14.4897C1.68898 -17.9333 -0.140892 -22.8481 -0.140892 -28.6028C-0.140892 -31.9082 0.462811 -34.9365 1.50511 -37.568C3.15014 -41.7213 8.56147 -41.7213 10.2065 -37.568C11.2488 -34.9365 11.8525 -31.9082 11.8525 -28.6028C11.8525 -22.8481 10.0226 -17.9333 7.23414 -14.4897ZM-2.77896 -16.4391V-16.4391C-1.54134 -16.4391 -0.494832 -17.8247 -0.936977 -18.9807C-2.04818 -21.8858 -2.67188 -25.1512 -2.67188 -28.6028C-2.67188 -32.7914 -1.75336 -36.7059 -0.159733 -40.035C1.43598 -43.3685 0.916789 -48.0079 -2.77896 -48.0079V-48.0079V-48.0079C-6.47832 -48.0079 -6.9974 -43.3638 -5.40151 -40.0263C-3.8105 -36.6991 -2.89362 -32.7879 -2.89362 -28.603C-2.89362 -25.1538 -3.51646 -21.8905 -4.62622 -18.9869C-5.06904 -17.8283 -4.01931 -16.4391 -2.77896 -16.4391V-16.4391ZM-14.3604 -10.7638C-14.2784 -10.8103 -14.2051 -10.8716 -14.1427 -10.9421V-10.9421C-13.8349 -11.2899 -13.835 -11.8159 -14.1427 -12.1637V-12.1637C-14.2051 -12.2343 -14.2785 -12.2956 -14.3605 -12.3421C-16.1499 -13.3575 -18.088 -13.9081 -20.0563 -13.9081C-22.0248 -13.9081 -23.963 -13.3574 -25.7525 -12.3418C-25.8344 -12.2954 -25.9078 -12.2341 -25.9702 -12.1636V-12.1636C-26.2778 -11.816 -26.2779 -11.2901 -25.9704 -10.9426V-10.9426C-25.908 -10.8721 -25.8347 -10.8109 -25.7529 -10.7644C-23.9632 -9.74865 -22.0248 -9.19783 -20.0561 -9.19783C-18.0878 -9.19783 -16.1497 -9.74843 -14.3604 -10.7638ZM-12.398 -14.1394C-11.8026 -13.7594 -11.0325 -13.7595 -10.4372 -14.1395V-14.1395C-10.2923 -14.232 -10.1619 -14.3433 -10.0536 -14.4768C-7.25913 -17.921 -5.42461 -22.8409 -5.42461 -28.603C-5.42461 -31.9042 -6.0268 -34.9291 -7.0667 -37.5583C-8.71046 -41.7144 -14.1244 -41.7144 -15.7682 -37.5584C-16.8082 -34.9291 -17.4104 -31.9041 -17.4104 -28.6028C-17.4104 -22.8408 -15.5759 -17.9209 -12.7815 -14.4766C-12.6732 -14.3431 -12.5429 -14.2319 -12.398 -14.1394V-14.1394ZM-18.2089 -18.987C-17.7661 -17.8283 -18.8159 -16.4391 -20.0563 -16.4391V-16.4391V-16.4391C-21.2967 -16.4391 -22.3466 -17.8284 -21.9037 -18.9871C-20.794 -21.8906 -20.1712 -25.1538 -20.1712 -28.603C-20.1712 -32.7877 -21.088 -36.6987 -22.6788 -40.0258C-24.2748 -43.3635 -23.7557 -48.0081 -20.0561 -48.0081V-48.0081V-48.0081C-16.3566 -48.0081 -15.8375 -43.3637 -17.4335 -40.0262C-19.0245 -36.6989 -19.9414 -32.7877 -19.9414 -28.6028C-19.9414 -25.1537 -19.3186 -21.8905 -18.2089 -18.987ZM-27.7149 -14.1393C-27.5701 -14.2317 -27.4398 -14.3429 -27.3315 -14.4764C-24.5369 -17.9206 -22.7022 -22.8407 -22.7022 -28.603C-22.7022 -31.904 -23.3043 -34.9287 -24.3441 -37.5578C-25.9878 -41.7141 -31.4019 -41.7141 -33.0456 -37.5578C-34.0854 -34.9287 -34.6875 -31.904 -34.6875 -28.603C-34.6875 -22.8405 -32.8527 -17.9202 -30.0579 -14.4759C-29.9496 -14.3426 -29.8195 -14.2315 -29.6747 -14.1391V-14.1391C-29.0797 -13.7592 -28.3099 -13.7594 -27.7149 -14.1393V-14.1393ZM-51.9651 -28.603C-51.9651 -25.1973 -51.3242 -22.0858 -50.223 -19.3993C-48.6298 -15.5125 -43.7387 -15.5528 -39.5964 -16.2501C-38.856 -16.3748 -38.1007 -16.4391 -37.3336 -16.4391V-16.4391C-36.0931 -16.4391 -35.0432 -17.8285 -35.4861 -18.9873C-36.5957 -21.8908 -37.2185 -25.1539 -37.2185 -28.603C-37.2185 -32.7877 -36.3017 -36.6987 -34.7109 -40.0258C-33.1149 -43.3635 -33.634 -48.0081 -37.3336 -48.0081V-48.0081C-44.8712 -48.0081 -51.9651 -39.9337 -51.9651 -28.603Z" fill="white"/>
</g>
</svg>
