<svg width="45" height="45" viewBox="0 0 45 45" fill="none" xmlns="http://www.w3.org/2000/svg">
<mask id="mask0_442_461" style="mask-type:alpha" maskUnits="userSpaceOnUse" x="0" y="0" width="45" height="45">
<path d="M0.219 0.218985H44.0903L44.0935 44.0597H0.222188L0.219 0.218985Z" fill="#D9D9D9" stroke="white" stroke-width="0.437969"/>
</mask>
<g mask="url(#mask0_442_461)">
<path d="M-0.619857 34.3384C-0.393215 34.3384 -0.209486 34.1546 -0.209486 33.928V30.2347C-0.209486 30.008 -0.393215 29.8243 -0.619857 29.8243C-0.846498 29.8243 -1.03023 30.008 -1.03023 30.2347V33.5176H-4.31319C-4.53984 33.5176 -4.72356 33.7014 -4.72356 33.928C-4.72356 34.1546 -4.53984 34.3384 -4.31319 34.3384H-0.619857ZM-12.3331 22.7951L-0.910033 34.2182L-0.329681 33.6378L-11.7528 22.2147L-12.3331 22.7951Z" fill="white"/>
<path d="M-0.580794 11.4868C-0.354153 11.4868 -0.170423 11.3031 -0.170423 11.0764V7.3831C-0.170423 7.15645 -0.354153 6.97272 -0.580794 6.97272C-0.807436 6.97272 -0.991165 7.15645 -0.991165 7.3831V10.6661H-4.27413C-4.50077 10.6661 -4.6845 10.8498 -4.6845 11.0764C-4.6845 11.3031 -4.50077 11.4868 -4.27413 11.4868H-0.580794ZM-12.2941 -0.0565037L-0.87097 11.3666L-0.290618 10.7863L-11.7137 -0.636856L-12.2941 -0.0565037Z" fill="white"/>
<path d="M-0.619857 57.1899C-0.393215 57.1899 -0.209486 57.0062 -0.209486 56.7796V53.0862C-0.209486 52.8596 -0.393215 52.6758 -0.619857 52.6758C-0.846498 52.6758 -1.03023 52.8596 -1.03023 53.0862V56.3692H-4.31319C-4.53984 56.3692 -4.72356 56.5529 -4.72356 56.7796C-4.72356 57.0062 -4.53984 57.1899 -4.31319 57.1899H-0.619857ZM-12.3331 45.6466L-0.910033 57.0697L-0.329681 56.4894L-11.7528 45.0663L-12.3331 45.6466Z" fill="white"/>
<path d="M22.2278 34.3384C22.4544 34.3384 22.6382 34.1546 22.6382 33.928V30.2347C22.6382 30.008 22.4544 29.8243 22.2278 29.8243C22.0012 29.8243 21.8174 30.008 21.8174 30.2347V33.5176H18.5345C18.3078 33.5176 18.1241 33.7014 18.1241 33.928C18.1241 34.1546 18.3078 34.3384 18.5345 34.3384H22.2278ZM10.5145 22.7951L21.9376 34.2182L22.518 33.6378L11.0949 22.2147L10.5145 22.7951Z" fill="white"/>
<path d="M22.2649 11.4868C22.4916 11.4868 22.6753 11.3031 22.6753 11.0764V7.3831C22.6753 7.15645 22.4916 6.97272 22.2649 6.97272C22.0383 6.97272 21.8545 7.15645 21.8545 7.3831V10.6661H18.5716C18.3449 10.6661 18.1612 10.8498 18.1612 11.0764C18.1612 11.3031 18.3449 11.4868 18.5716 11.4868H22.2649ZM10.5516 -0.0565037L21.9747 11.3666L22.5551 10.7863L11.132 -0.636856L10.5516 -0.0565037Z" fill="white"/>
<path d="M22.2278 57.1899C22.4544 57.1899 22.6382 57.0062 22.6382 56.7796V53.0862C22.6382 52.8596 22.4544 52.6758 22.2278 52.6758C22.0012 52.6758 21.8174 52.8596 21.8174 53.0862V56.3692H18.5345C18.3078 56.3692 18.1241 56.5529 18.1241 56.7796C18.1241 57.0062 18.3078 57.1899 18.5345 57.1899H22.2278ZM10.5145 45.6466L21.9376 57.0697L22.518 56.4894L11.0949 45.0663L10.5145 45.6466Z" fill="white"/>
<path d="M45.0735 34.3384C45.3001 34.3384 45.4839 34.1546 45.4839 33.928V30.2347C45.4839 30.008 45.3001 29.8243 45.0735 29.8243C44.8469 29.8243 44.6631 30.008 44.6631 30.2347V33.5176H41.3802C41.1535 33.5176 40.9698 33.7014 40.9698 33.928C40.9698 34.1546 41.1535 34.3384 41.3802 34.3384H45.0735ZM33.3602 22.7951L44.7833 34.2182L45.3637 33.6378L33.9406 22.2147L33.3602 22.7951Z" fill="white"/>
<path d="M45.1087 11.4868C45.3353 11.4868 45.519 11.3031 45.519 11.0764V7.3831C45.519 7.15645 45.3353 6.97272 45.1087 6.97272C44.882 6.97272 44.6983 7.15645 44.6983 7.3831V10.6661H41.4153C41.1887 10.6661 41.005 10.8498 41.005 11.0764C41.005 11.3031 41.1887 11.4868 41.4153 11.4868H45.1087ZM33.3954 -0.0565037L44.8185 11.3666L45.3988 10.7863L33.9757 -0.636856L33.3954 -0.0565037Z" fill="white"/>
<path d="M45.0735 57.1899C45.3001 57.1899 45.4839 57.0062 45.4839 56.7796V53.0862C45.4839 52.8596 45.3001 52.6758 45.0735 52.6758C44.8469 52.6758 44.6631 52.8596 44.6631 53.0862V56.3692H41.3802C41.1535 56.3692 40.9698 56.5529 40.9698 56.7796C40.9698 57.0062 41.1535 57.1899 41.3802 57.1899H45.0735ZM33.3602 45.6466L44.7833 57.0697L45.3637 56.4894L33.9406 45.0663L33.3602 45.6466Z" fill="white"/>
<path d="M-0.580794 -12.1802C-0.354153 -12.1802 -0.170423 -11.9964 -0.170423 -11.7698V-8.07645C-0.170423 -7.84981 -0.354153 -7.66608 -0.580794 -7.66608C-0.807436 -7.66608 -0.991165 -7.84981 -0.991165 -8.07645V-11.3594H-4.27413C-4.50077 -11.3594 -4.6845 -11.5432 -4.6845 -11.7698C-4.6845 -11.9964 -4.50077 -12.1802 -4.27413 -12.1802H-0.580794ZM-12.2941 -0.636856L-0.87097 -12.06L-0.290618 -11.4796L-11.7137 -0.0565037L-12.2941 -0.636856Z" fill="white"/>
<path d="M-0.619857 33.523C-0.393215 33.523 -0.209486 33.7067 -0.209486 33.9333V37.6267C-0.209486 37.8533 -0.393215 38.037 -0.619857 38.037C-0.846498 38.037 -1.03023 37.8533 -1.03023 37.6267V34.3437H-4.31319C-4.53984 34.3437 -4.72356 34.16 -4.72356 33.9333C-4.72356 33.7067 -4.53984 33.523 -4.31319 33.523H-0.619857ZM-12.3331 45.0663L-0.910033 33.6432L-0.329681 34.2235L-11.7528 45.6466L-12.3331 45.0663Z" fill="white"/>
<path d="M-0.580794 10.6714C-0.354153 10.6714 -0.170423 10.8551 -0.170423 11.0818V14.7751C-0.170423 15.0017 -0.354153 15.1855 -0.580794 15.1855C-0.807436 15.1855 -0.991165 15.0017 -0.991165 14.7751V11.4921H-4.27413C-4.50077 11.4921 -4.6845 11.3084 -4.6845 11.0818C-4.6845 10.8551 -4.50077 10.6714 -4.27413 10.6714H-0.580794ZM-12.2941 22.2147L-0.87097 10.7916L-0.290618 11.3719L-11.7137 22.7951L-12.2941 22.2147Z" fill="white"/>
<path d="M22.2649 -12.1802C22.4916 -12.1802 22.6753 -11.9964 22.6753 -11.7698V-8.07645C22.6753 -7.84981 22.4916 -7.66608 22.2649 -7.66608C22.0383 -7.66608 21.8545 -7.84981 21.8545 -8.07645V-11.3594H18.5716C18.3449 -11.3594 18.1612 -11.5432 18.1612 -11.7698C18.1612 -11.9964 18.3449 -12.1802 18.5716 -12.1802H22.2649ZM10.5516 -0.636856L21.9747 -12.06L22.5551 -11.4796L11.132 -0.0565037L10.5516 -0.636856Z" fill="white"/>
<path d="M22.2278 33.523C22.4544 33.523 22.6382 33.7067 22.6382 33.9333V37.6267C22.6382 37.8533 22.4544 38.037 22.2278 38.037C22.0012 38.037 21.8174 37.8533 21.8174 37.6267V34.3437H18.5345C18.3078 34.3437 18.1241 34.16 18.1241 33.9333C18.1241 33.7067 18.3078 33.523 18.5345 33.523H22.2278ZM10.5145 45.0663L21.9376 33.6432L22.518 34.2235L11.0949 45.6466L10.5145 45.0663Z" fill="white"/>
<path d="M22.2649 10.6714C22.4916 10.6714 22.6753 10.8551 22.6753 11.0818V14.7751C22.6753 15.0017 22.4916 15.1855 22.2649 15.1855C22.0383 15.1855 21.8545 15.0017 21.8545 14.7751V11.4921H18.5716C18.3449 11.4921 18.1612 11.3084 18.1612 11.0818C18.1612 10.8551 18.3449 10.6714 18.5716 10.6714H22.2649ZM10.5516 22.2147L21.9747 10.7916L22.5551 11.3719L11.132 22.7951L10.5516 22.2147Z" fill="white"/>
<path d="M45.1087 -12.1802C45.3353 -12.1802 45.519 -11.9964 45.519 -11.7698V-8.07645C45.519 -7.84981 45.3353 -7.66608 45.1087 -7.66608C44.882 -7.66608 44.6983 -7.84981 44.6983 -8.07645V-11.3594H41.4153C41.1887 -11.3594 41.005 -11.5432 41.005 -11.7698C41.005 -11.9964 41.1887 -12.1802 41.4153 -12.1802H45.1087ZM33.3954 -0.636856L44.8185 -12.06L45.3988 -11.4796L33.9757 -0.0565037L33.3954 -0.636856Z" fill="white"/>
<path d="M45.0735 33.523C45.3001 33.523 45.4839 33.7067 45.4839 33.9333V37.6267C45.4839 37.8533 45.3001 38.037 45.0735 38.037C44.8469 38.037 44.6631 37.8533 44.6631 37.6267V34.3437H41.3802C41.1535 34.3437 40.9698 34.16 40.9698 33.9333C40.9698 33.7067 41.1535 33.523 41.3802 33.523H45.0735ZM33.3602 45.0663L44.7833 33.6432L45.3637 34.2235L33.9406 45.6466L33.3602 45.0663Z" fill="white"/>
<path d="M45.1087 10.6714C45.3353 10.6714 45.519 10.8551 45.519 11.0818V14.7751C45.519 15.0017 45.3353 15.1855 45.1087 15.1855C44.882 15.1855 44.6983 15.0017 44.6983 14.7751V11.4921H41.4153C41.1887 11.4921 41.005 11.3084 41.005 11.0818C41.005 10.8551 41.1887 10.6714 41.4153 10.6714H45.1087ZM33.3954 22.2147L44.8185 10.7916L45.3988 11.3719L33.9757 22.7951L33.3954 22.2147Z" fill="white"/>
<path d="M-0.618425 34.3384C-0.845066 34.3384 -1.0288 34.1546 -1.0288 33.928V30.2347C-1.0288 30.008 -0.845066 29.8243 -0.618425 29.8243C-0.391783 29.8243 -0.208054 30.008 -0.208054 30.2347V33.5176H3.07491C3.30155 33.5176 3.48528 33.7014 3.48528 33.928C3.48528 34.1546 3.30155 34.3384 3.07491 34.3384H-0.618425ZM11.0949 22.7951L-0.328249 34.2182L-0.908601 33.6378L10.5145 22.2147L11.0949 22.7951Z" fill="white"/>
<path d="M-0.581315 11.4868C-0.807957 11.4868 -0.991686 11.3031 -0.991686 11.0764V7.3831C-0.991686 7.15645 -0.807957 6.97272 -0.581315 6.97272C-0.354674 6.97272 -0.170944 7.15645 -0.170944 7.3831V10.6661H3.11202C3.33866 10.6661 3.52239 10.8498 3.52239 11.0764C3.52239 11.3031 3.33866 11.4868 3.11202 11.4868H-0.581315ZM11.132 -0.0565037L-0.291139 11.3666L-0.871491 10.7863L10.5516 -0.636856L11.132 -0.0565037Z" fill="white"/>
<path d="M-0.618425 57.1899C-0.845066 57.1899 -1.0288 57.0062 -1.0288 56.7796V53.0862C-1.0288 52.8596 -0.845066 52.6758 -0.618425 52.6758C-0.391783 52.6758 -0.208054 52.8596 -0.208054 53.0862V56.3692H3.07491C3.30155 56.3692 3.48528 56.5529 3.48528 56.7796C3.48528 57.0062 3.30155 57.1899 3.07491 57.1899H-0.618425ZM11.0949 45.6466L-0.328249 57.0697L-0.908601 56.4894L10.5145 45.0663L11.0949 45.6466Z" fill="white"/>
<path d="M22.2273 34.3384C22.0006 34.3384 21.8169 34.1546 21.8169 33.928V30.2347C21.8169 30.008 22.0006 29.8243 22.2273 29.8243C22.4539 29.8243 22.6376 30.008 22.6376 30.2347V33.5176H25.9206C26.1473 33.5176 26.331 33.7014 26.331 33.928C26.331 34.1546 26.1473 34.3384 25.9206 34.3384H22.2273ZM33.9406 22.7951L22.5175 34.2182L21.9371 33.6378L33.3602 22.2147L33.9406 22.7951Z" fill="white"/>
<path d="M22.2624 11.4868C22.0358 11.4868 21.8521 11.3031 21.8521 11.0764V7.3831C21.8521 7.15645 22.0358 6.97272 22.2624 6.97272C22.4891 6.97272 22.6728 7.15645 22.6728 7.3831V10.6661H25.9558C26.1824 10.6661 26.3661 10.8498 26.3661 11.0764C26.3661 11.3031 26.1824 11.4868 25.9558 11.4868H22.2624ZM33.9757 -0.0565037L22.5526 11.3666L21.9723 10.7863L33.3954 -0.636856L33.9757 -0.0565037Z" fill="white"/>
<path d="M22.2273 57.1899C22.0006 57.1899 21.8169 57.0062 21.8169 56.7796V53.0862C21.8169 52.8596 22.0006 52.6758 22.2273 52.6758C22.4539 52.6758 22.6376 52.8596 22.6376 53.0862V56.3692H25.9206C26.1473 56.3692 26.331 56.5529 26.331 56.7796C26.331 57.0062 26.1473 57.1899 25.9206 57.1899H22.2273ZM33.9406 45.6466L22.5175 57.0697L21.9371 56.4894L33.3602 45.0663L33.9406 45.6466Z" fill="white"/>
<path d="M45.0749 34.3384C44.8483 34.3384 44.6646 34.1546 44.6646 33.928V30.2347C44.6646 30.008 44.8483 29.8243 45.0749 29.8243C45.3016 29.8243 45.4853 30.008 45.4853 30.2347V33.5176H48.7683C48.9949 33.5176 49.1786 33.7014 49.1786 33.928C49.1786 34.1546 48.9949 34.3384 48.7683 34.3384H45.0749ZM56.7882 22.7951L45.3651 34.2182L44.7848 33.6378L56.2079 22.2147L56.7882 22.7951Z" fill="white"/>
<path d="M45.1081 11.4868C44.8815 11.4868 44.6978 11.3031 44.6978 11.0764V7.3831C44.6978 7.15645 44.8815 6.97272 45.1081 6.97272C45.3348 6.97272 45.5185 7.15645 45.5185 7.3831V10.6661H48.8015C49.0281 10.6661 49.2118 10.8498 49.2118 11.0764C49.2118 11.3031 49.0281 11.4868 48.8015 11.4868H45.1081ZM56.8214 -0.0565037L45.3983 11.3666L44.818 10.7863L56.2411 -0.636856L56.8214 -0.0565037Z" fill="white"/>
<path d="M45.0749 57.1899C44.8483 57.1899 44.6646 57.0062 44.6646 56.7796V53.0862C44.6646 52.8596 44.8483 52.6758 45.0749 52.6758C45.3016 52.6758 45.4853 52.8596 45.4853 53.0862V56.3692H48.7683C48.9949 56.3692 49.1786 56.5529 49.1786 56.7796C49.1786 57.0062 48.9949 57.1899 48.7683 57.1899H45.0749ZM56.7882 45.6466L45.3651 57.0697L44.7848 56.4894L56.2079 45.0663L56.7882 45.6466Z" fill="white"/>
<path d="M-0.581315 -12.1802C-0.807957 -12.1802 -0.991686 -11.9964 -0.991686 -11.7698V-8.07645C-0.991686 -7.84981 -0.807957 -7.66608 -0.581315 -7.66608C-0.354674 -7.66608 -0.170944 -7.84981 -0.170944 -8.07645V-11.3594H3.11202C3.33866 -11.3594 3.52239 -11.5432 3.52239 -11.7698C3.52239 -11.9964 3.33866 -12.1802 3.11202 -12.1802H-0.581315ZM11.132 -0.636856L-0.291139 -12.06L-0.871491 -11.4796L10.5516 -0.0565037L11.132 -0.636856Z" fill="white"/>
<path d="M-0.618425 33.523C-0.845066 33.523 -1.0288 33.7067 -1.0288 33.9333V37.6267C-1.0288 37.8533 -0.845066 38.037 -0.618425 38.037C-0.391783 38.037 -0.208054 37.8533 -0.208054 37.6267V34.3437H3.07491C3.30155 34.3437 3.48528 34.16 3.48528 33.9333C3.48528 33.7067 3.30155 33.523 3.07491 33.523H-0.618425ZM11.0949 45.0663L-0.328249 33.6432L-0.908601 34.2235L10.5145 45.6466L11.0949 45.0663Z" fill="white"/>
<path d="M-0.581315 10.6714C-0.807957 10.6714 -0.991686 10.8551 -0.991686 11.0818V14.7751C-0.991686 15.0017 -0.807957 15.1855 -0.581315 15.1855C-0.354674 15.1855 -0.170944 15.0017 -0.170944 14.7751V11.4921H3.11202C3.33866 11.4921 3.52239 11.3084 3.52239 11.0818C3.52239 10.8551 3.33866 10.6714 3.11202 10.6714H-0.581315ZM11.132 22.2147L-0.291139 10.7916L-0.871491 11.3719L10.5516 22.7951L11.132 22.2147Z" fill="white"/>
<path d="M22.2624 -12.1802C22.0358 -12.1802 21.8521 -11.9964 21.8521 -11.7698V-8.07645C21.8521 -7.84981 22.0358 -7.66608 22.2624 -7.66608C22.4891 -7.66608 22.6728 -7.84981 22.6728 -8.07645V-11.3594H25.9558C26.1824 -11.3594 26.3661 -11.5432 26.3661 -11.7698C26.3661 -11.9964 26.1824 -12.1802 25.9558 -12.1802H22.2624ZM33.9757 -0.636856L22.5526 -12.06L21.9723 -11.4796L33.3954 -0.0565037L33.9757 -0.636856Z" fill="white"/>
<path d="M22.2273 33.523C22.0006 33.523 21.8169 33.7067 21.8169 33.9333V37.6267C21.8169 37.8533 22.0006 38.037 22.2273 38.037C22.4539 38.037 22.6376 37.8533 22.6376 37.6267V34.3437H25.9206C26.1473 34.3437 26.331 34.16 26.331 33.9333C26.331 33.7067 26.1473 33.523 25.9206 33.523H22.2273ZM33.9406 45.0663L22.5175 33.6432L21.9371 34.2235L33.3602 45.6466L33.9406 45.0663Z" fill="white"/>
<path d="M22.2624 10.6714C22.0358 10.6714 21.8521 10.8551 21.8521 11.0818V14.7751C21.8521 15.0017 22.0358 15.1855 22.2624 15.1855C22.4891 15.1855 22.6728 15.0017 22.6728 14.7751V11.4921H25.9558C26.1824 11.4921 26.3661 11.3084 26.3661 11.0818C26.3661 10.8551 26.1824 10.6714 25.9558 10.6714H22.2624ZM33.9757 22.2147L22.5526 10.7916L21.9723 11.3719L33.3954 22.7951L33.9757 22.2147Z" fill="white"/>
<path d="M45.1081 -12.1802C44.8815 -12.1802 44.6978 -11.9964 44.6978 -11.7698V-8.07645C44.6978 -7.84981 44.8815 -7.66608 45.1081 -7.66608C45.3348 -7.66608 45.5185 -7.84981 45.5185 -8.07645V-11.3594H48.8015C49.0281 -11.3594 49.2118 -11.5432 49.2118 -11.7698C49.2118 -11.9964 49.0281 -12.1802 48.8015 -12.1802H45.1081ZM56.8214 -0.636856L45.3983 -12.06L44.818 -11.4796L56.2411 -0.0565037L56.8214 -0.636856Z" fill="white"/>
<path d="M45.0749 33.523C44.8483 33.523 44.6646 33.7067 44.6646 33.9333V37.6267C44.6646 37.8533 44.8483 38.037 45.0749 38.037C45.3016 38.037 45.4853 37.8533 45.4853 37.6267V34.3437H48.7683C48.9949 34.3437 49.1786 34.16 49.1786 33.9333C49.1786 33.7067 48.9949 33.523 48.7683 33.523H45.0749ZM56.7882 45.0663L45.3651 33.6432L44.7848 34.2235L56.2079 45.6466L56.7882 45.0663Z" fill="white"/>
<path d="M45.1081 10.6714C44.8815 10.6714 44.6978 10.8551 44.6978 11.0818V14.7751C44.6978 15.0017 44.8815 15.1855 45.1081 15.1855C45.3348 15.1855 45.5185 15.0017 45.5185 14.7751V11.4921H48.8015C49.0281 11.4921 49.2118 11.3084 49.2118 11.0818C49.2118 10.8551 49.0281 10.6714 48.8015 10.6714H45.1081ZM56.8214 22.2147L45.3983 10.7916L44.818 11.3719L56.2411 22.7951L56.8214 22.2147Z" fill="white"/>
</g>
</svg>
