<svg width="45" height="45" viewBox="0 0 45 45" fill="none" xmlns="http://www.w3.org/2000/svg">
<mask id="mask0_442_447" style="mask-type:alpha" maskUnits="userSpaceOnUse" x="0" y="0" width="45" height="45">
<path d="M0.218985 0.336172H44.281V44.3982H0.218985V0.336172Z" fill="#D9D9D9" stroke="white" stroke-width="0.437969"/>
</mask>
<g mask="url(#mask0_442_447)">
<path d="M-233.392 -10.1116V-7.93774H-235.566V-10.1116H-233.392ZM-235.566 -7.93774V-5.76388H-237.739V-7.93774H-235.566ZM-237.739 -5.76388V-3.59001H-239.913V-5.76388H-237.739ZM-239.913 -3.59001V-1.41614H-242.087V-3.59001H-239.913ZM-242.087 -1.41614V0.757731H-244.261V-1.41614H-242.087ZM-244.261 0.757731V2.9316H-246.435V0.757731H-244.261ZM-246.435 2.9316V5.10547H-248.609V2.9316H-246.435ZM-220.824 -10.1116V-7.93774H-222.998V-10.1116H-220.824ZM-222.998 -7.93774V-5.76388H-225.172V-7.93774H-222.998ZM-225.172 -5.76388V-3.59001H-227.346V-5.76388H-225.172ZM-227.346 -3.59001V-1.41614H-229.519V-3.59001H-227.346ZM-229.519 -1.41614V0.757731H-231.693V-1.41614H-229.519ZM-231.693 0.757731V2.9316H-233.867V0.757731H-231.693ZM-233.867 2.9316V5.10547H-236.041V2.9316H-233.867ZM-208.256 -10.1116V-7.93774H-210.43V-10.1116H-208.256ZM-210.43 -7.93774V-5.76388H-212.604V-7.93774H-210.43ZM-212.604 -5.76388V-3.59001H-214.778V-5.76388H-212.604ZM-214.778 -3.59001V-1.41614H-216.952V-3.59001H-214.778ZM-216.952 -1.41614V0.757731H-219.126V-1.41614H-216.952ZM-219.126 0.757731V2.9316H-221.299V0.757731H-219.126ZM-221.299 2.9316V5.10547H-223.473V2.9316H-221.299ZM-195.689 -10.1116V-7.93774H-197.862V-10.1116H-195.689ZM-197.862 -7.93774V-5.76388H-200.036V-7.93774H-197.862ZM-200.036 -5.76388V-3.59001H-202.21V-5.76388H-200.036ZM-202.21 -3.59001V-1.41614H-204.384V-3.59001H-202.21ZM-204.384 -1.41614V0.757731H-206.558V-1.41614H-204.384ZM-206.558 0.757731V2.9316H-208.732V0.757731H-206.558ZM-208.732 2.9316V5.10547H-210.906V2.9316H-208.732ZM-183.121 -10.1116V-7.93774H-185.295V-10.1116H-183.121ZM-185.295 -7.93774V-5.76388H-187.469V-7.93774H-185.295ZM-187.469 -5.76388V-3.59001H-189.643V-5.76388H-187.469ZM-189.643 -3.59001V-1.41614H-191.816V-3.59001H-189.643ZM-191.816 -1.41614V0.757731H-193.99V-1.41614H-191.816ZM-193.99 0.757731V2.9316H-196.164V0.757731H-193.99ZM-196.164 2.9316V5.10547H-198.338V2.9316H-196.164ZM-170.553 -10.1116V-7.93774H-172.727V-10.1116H-170.553ZM-172.727 -7.93774V-5.76388H-174.901V-7.93774H-172.727ZM-174.901 -5.76388V-3.59001H-177.075V-5.76388H-174.901ZM-177.075 -3.59001V-1.41614H-179.249V-3.59001H-177.075ZM-179.249 -1.41614V0.757731H-181.423V-1.41614H-179.249ZM-181.423 0.757731V2.9316H-183.596V0.757731H-181.423ZM-183.596 2.9316V5.10547H-185.77V2.9316H-183.596ZM-157.986 -10.1116V-7.93774H-160.159V-10.1116H-157.986ZM-160.159 -7.93774V-5.76388H-162.333V-7.93774H-160.159ZM-162.333 -5.76388V-3.59001H-164.507V-5.76388H-162.333ZM-164.507 -3.59001V-1.41614H-166.681V-3.59001H-164.507ZM-166.681 -1.41614V0.757731H-168.855V-1.41614H-166.681ZM-168.855 0.757731V2.9316H-171.029V0.757731H-168.855ZM-171.029 2.9316V5.10547H-173.203V2.9316H-171.029ZM-145.418 -10.1116V-7.93774H-147.592V-10.1116H-145.418ZM-147.592 -7.93774V-5.76388H-149.766V-7.93774H-147.592ZM-149.766 -5.76388V-3.59001H-151.94V-5.76388H-149.766ZM-151.94 -3.59001V-1.41614H-154.113V-3.59001H-151.94ZM-154.113 -1.41614V0.757731H-156.287V-1.41614H-154.113ZM-156.287 0.757731V2.9316H-158.461V0.757731H-156.287ZM-158.461 2.9316V5.10547H-160.635V2.9316H-158.461ZM-132.85 -10.1116V-7.93774H-135.024V-10.1116H-132.85ZM-135.024 -7.93774V-5.76388H-137.198V-7.93774H-135.024ZM-137.198 -5.76388V-3.59001H-139.372V-5.76388H-137.198ZM-139.372 -3.59001V-1.41614H-141.546V-3.59001H-139.372ZM-141.546 -1.41614V0.757731H-143.72V-1.41614H-141.546ZM-143.72 0.757731V2.9316H-145.893V0.757731H-143.72ZM-145.893 2.9316V5.10547H-148.067V2.9316H-145.893ZM-120.283 -10.1116V-7.93774H-122.456V-10.1116H-120.283ZM-122.456 -7.93774V-5.76388H-124.63V-7.93774H-122.456ZM-124.63 -5.76388V-3.59001H-126.804V-5.76388H-124.63ZM-126.804 -3.59001V-1.41614H-128.978V-3.59001H-126.804ZM-128.978 -1.41614V0.757731H-131.152V-1.41614H-128.978ZM-131.152 0.757731V2.9316H-133.326V0.757731H-131.152ZM-133.326 2.9316V5.10547H-135.5V2.9316H-133.326ZM-107.715 -10.1116V-7.93774H-109.889V-10.1116H-107.715ZM-109.889 -7.93774V-5.76388H-112.063V-7.93774H-109.889ZM-112.063 -5.76388V-3.59001H-114.236V-5.76388H-112.063ZM-114.236 -3.59001V-1.41614H-116.41V-3.59001H-114.236ZM-116.41 -1.41614V0.757731H-118.584V-1.41614H-116.41ZM-118.584 0.757731V2.9316H-120.758V0.757731H-118.584ZM-120.758 2.9316V5.10547H-122.932V2.9316H-120.758ZM-95.1472 -10.1116V-7.93774H-97.321V-10.1116H-95.1472ZM-97.321 -7.93774V-5.76388H-99.4949V-7.93774H-97.321ZM-99.4949 -5.76388V-3.59001H-101.669V-5.76388H-99.4949ZM-101.669 -3.59001V-1.41614H-103.843V-3.59001H-101.669ZM-103.843 -1.41614V0.757731H-106.017V-1.41614H-103.843ZM-106.017 0.757731V2.9316H-108.19V0.757731H-106.017ZM-108.19 2.9316V5.10547H-110.364V2.9316H-108.19ZM-82.5795 -10.1116V-7.93774H-84.7534V-10.1116H-82.5795ZM-84.7534 -7.93774V-5.76388H-86.9272V-7.93774H-84.7534ZM-86.9272 -5.76388V-3.59001H-89.1011V-5.76388H-86.9272ZM-89.1011 -3.59001V-1.41614H-91.275V-3.59001H-89.1011ZM-91.275 -1.41614V0.757731H-93.4489V-1.41614H-91.275ZM-93.4489 0.757731V2.9316H-95.6227V0.757731H-93.4489ZM-95.6227 2.9316V5.10547H-97.7966V2.9316H-95.6227ZM-70.0118 -10.1116V-7.93774H-72.1857V-10.1116H-70.0118ZM-72.1857 -7.93774V-5.76388H-74.3596V-7.93774H-72.1857ZM-74.3596 -5.76388V-3.59001H-76.5334V-5.76388H-74.3596ZM-76.5334 -3.59001V-1.41614H-78.7073V-3.59001H-76.5334ZM-78.7073 -1.41614V0.757731H-80.8812V-1.41614H-78.7073ZM-80.8812 0.757731V2.9316H-83.055V0.757731H-80.8812ZM-83.055 2.9316V5.10547H-85.2289V2.9316H-83.055ZM-57.4441 -10.1116V-7.93774H-59.618V-10.1116H-57.4441ZM-59.618 -7.93774V-5.76388H-61.7919V-7.93774H-59.618ZM-61.7919 -5.76388V-3.59001H-63.9658V-5.76388H-61.7919ZM-63.9658 -3.59001V-1.41614H-66.1396V-3.59001H-63.9658ZM-66.1396 -1.41614V0.757731H-68.3135V-1.41614H-66.1396ZM-68.3135 0.757731V2.9316H-70.4874V0.757731H-68.3135ZM-70.4874 2.9316V5.10547H-72.6612V2.9316H-70.4874ZM-44.8765 -10.1116V-7.93774H-47.0503V-10.1116H-44.8765ZM-47.0503 -7.93774V-5.76388H-49.2242V-7.93774H-47.0503ZM-49.2242 -5.76388V-3.59001H-51.3981V-5.76388H-49.2242ZM-51.3981 -3.59001V-1.41614H-53.5719V-3.59001H-51.3981ZM-53.5719 -1.41614V0.757731H-55.7458V-1.41614H-53.5719ZM-55.7458 0.757731V2.9316H-57.9197V0.757731H-55.7458ZM-57.9197 2.9316V5.10547H-60.0935V2.9316H-57.9197ZM-32.3088 -10.1116V-7.93774H-34.4827V-10.1116H-32.3088ZM-34.4827 -7.93774V-5.76388H-36.6565V-7.93774H-34.4827ZM-36.6565 -5.76388V-3.59001H-38.8304V-5.76388H-36.6565ZM-38.8304 -3.59001V-1.41614H-41.0043V-3.59001H-38.8304ZM-41.0043 -1.41614V0.757731H-43.1781V-1.41614H-41.0043ZM-43.1781 0.757731V2.9316H-45.352V0.757731H-43.1781ZM-45.352 2.9316V5.10547H-47.5259V2.9316H-45.352ZM-19.7411 -10.1116V-7.93774H-21.915V-10.1116H-19.7411ZM-21.915 -7.93774V-5.76388H-24.0889V-7.93774H-21.915ZM-24.0889 -5.76388V-3.59001H-26.2627V-5.76388H-24.0889ZM-26.2627 -3.59001V-1.41614H-28.4366V-3.59001H-26.2627ZM-28.4366 -1.41614V0.757731H-30.6105V-1.41614H-28.4366ZM-30.6105 0.757731V2.9316H-32.7843V0.757731H-30.6105ZM-32.7843 2.9316V5.10547H-34.9582V2.9316H-32.7843ZM-7.17343 -10.1116V-7.93774H-9.34729V-10.1116H-7.17343ZM-9.34729 -7.93774V-5.76388H-11.5212V-7.93774H-9.34729ZM-11.5212 -5.76388V-3.59001H-13.695V-5.76388H-11.5212ZM-13.695 -3.59001V-1.41614H-15.8689V-3.59001H-13.695ZM-15.8689 -1.41614V0.757731H-18.0428V-1.41614H-15.8689ZM-18.0428 0.757731V2.9316H-20.2166V0.757731H-18.0428ZM-20.2166 2.9316V5.10547H-22.3905V2.9316H-20.2166ZM5.39425 -10.1116V-7.93774H3.22038V-10.1116H5.39425ZM3.22038 -7.93774V-5.76388H1.04651V-7.93774H3.22038ZM1.04651 -5.76388V-3.59001H-1.12736V-5.76388H1.04651ZM-1.12736 -3.59001V-1.41614H-3.30123V-3.59001H-1.12736ZM-3.30123 -1.41614V0.757731H-5.4751V-1.41614H-3.30123ZM-5.4751 0.757731V2.9316H-7.64897V0.757731H-5.4751ZM-7.64897 2.9316V5.10547H-9.82284V2.9316H-7.64897ZM17.9619 -10.1116V-7.93774H15.7881V-10.1116H17.9619ZM15.7881 -7.93774V-5.76388H13.6142V-7.93774H15.7881ZM13.6142 -5.76388V-3.59001H11.4403V-5.76388H13.6142ZM11.4403 -3.59001V-1.41614H9.26646V-3.59001H11.4403ZM9.26646 -1.41614V0.757731H7.09259V-1.41614H9.26646ZM7.09259 0.757731V2.9316H4.91872V0.757731H7.09259ZM4.91872 2.9316V5.10547H2.74485V2.9316H4.91872ZM30.5296 -10.1116V-7.93774H28.3557V-10.1116H30.5296ZM28.3557 -7.93774V-5.76388H26.1819V-7.93774H28.3557ZM26.1819 -5.76388V-3.59001H24.008V-5.76388H26.1819ZM24.008 -3.59001V-1.41614H21.8341V-3.59001H24.008ZM21.8341 -1.41614V0.757731H19.6602V-1.41614H21.8341ZM19.6602 0.757731V2.9316H17.4864V0.757731H19.6602ZM17.4864 2.9316V5.10547H15.3125V2.9316H17.4864ZM43.0973 -10.1116V-7.93774H40.9234V-10.1116H43.0973ZM40.9234 -7.93774V-5.76388H38.7495V-7.93774H40.9234ZM38.7495 -5.76388V-3.59001H36.5757V-5.76388H38.7495ZM36.5757 -3.59001V-1.41614H34.4018V-3.59001H36.5757ZM34.4018 -1.41614V0.757731H32.2279V-1.41614H34.4018ZM32.2279 0.757731V2.9316H30.0541V0.757731H32.2279ZM30.0541 2.9316V5.10547H27.8802V2.9316H30.0541ZM55.665 -10.1116V-7.93774H53.4911V-10.1116H55.665ZM53.4911 -7.93774V-5.76388H51.3172V-7.93774H53.4911ZM51.3172 -5.76388V-3.59001H49.1434V-5.76388H51.3172ZM49.1434 -3.59001V-1.41614H46.9695V-3.59001H49.1434ZM46.9695 -1.41614V0.757731H44.7956V-1.41614H46.9695ZM44.7956 0.757731V2.9316H42.6218V0.757731H44.7956ZM42.6218 2.9316V5.10547H40.4479V2.9316H42.6218ZM68.2326 -10.1116V-7.93774H66.0588V-10.1116H68.2326ZM66.0588 -7.93774V-5.76388H63.8849V-7.93774H66.0588ZM63.8849 -5.76388V-3.59001H61.711V-5.76388H63.8849ZM61.711 -3.59001V-1.41614H59.5372V-3.59001H61.711ZM59.5372 -1.41614V0.757731H57.3633V-1.41614H59.5372ZM57.3633 0.757731V2.9316H55.1894V0.757731H57.3633ZM55.1894 2.9316V5.10547H53.0155V2.9316H55.1894ZM80.8003 -10.1116V-7.93774H78.6264V-10.1116H80.8003ZM78.6264 -7.93774V-5.76388H76.4526V-7.93774H78.6264ZM76.4526 -5.76388V-3.59001H74.2787V-5.76388H76.4526ZM74.2787 -3.59001V-1.41614H72.1048V-3.59001H74.2787ZM72.1048 -1.41614V0.757731H69.931V-1.41614H72.1048ZM69.931 0.757731V2.9316H67.7571V0.757731H69.931ZM67.7571 2.9316V5.10547H65.5832V2.9316H67.7571ZM93.368 -10.1116V-7.93774H91.1941V-10.1116H93.368ZM91.1941 -7.93774V-5.76388H89.0203V-7.93774H91.1941ZM89.0203 -5.76388V-3.59001H86.8464V-5.76388H89.0203ZM86.8464 -3.59001V-1.41614H84.6725V-3.59001H86.8464ZM84.6725 -1.41614V0.757731H82.4987V-1.41614H84.6725ZM82.4987 0.757731V2.9316H80.3248V0.757731H82.4987ZM80.3248 2.9316V5.10547H78.1509V2.9316H80.3248ZM105.936 -10.1116V-7.93774H103.762V-10.1116H105.936ZM103.762 -7.93774V-5.76388H101.588V-7.93774H103.762ZM101.588 -5.76388V-3.59001H99.4141V-5.76388H101.588ZM99.4141 -3.59001V-1.41614H97.2402V-3.59001H99.4141ZM97.2402 -1.41614V0.757731H95.0663V-1.41614H97.2402ZM95.0663 0.757731V2.9316H92.8925V0.757731H95.0663ZM92.8925 2.9316V5.10547H90.7186V2.9316H92.8925ZM118.503 -10.1116V-7.93774H116.329V-10.1116H118.503ZM116.329 -7.93774V-5.76388H114.156V-7.93774H116.329ZM114.156 -5.76388V-3.59001H111.982V-5.76388H114.156ZM111.982 -3.59001V-1.41614H109.808V-3.59001H111.982ZM109.808 -1.41614V0.757731H107.634V-1.41614H109.808ZM107.634 0.757731V2.9316H105.46V0.757731H107.634ZM105.46 2.9316V5.10547H103.286V2.9316H105.46ZM131.071 -10.1116V-7.93774H128.897V-10.1116H131.071ZM128.897 -7.93774V-5.76388H126.723V-7.93774H128.897ZM126.723 -5.76388V-3.59001H124.549V-5.76388H126.723ZM124.549 -3.59001V-1.41614H122.376V-3.59001H124.549ZM122.376 -1.41614V0.757731H120.202V-1.41614H122.376ZM120.202 0.757731V2.9316H118.028V0.757731H120.202ZM118.028 2.9316V5.10547H115.854V2.9316H118.028ZM143.639 -10.1116V-7.93774H141.465V-10.1116H143.639ZM141.465 -7.93774V-5.76388H139.291V-7.93774H141.465ZM139.291 -5.76388V-3.59001H137.117V-5.76388H139.291ZM137.117 -3.59001V-1.41614H134.943V-3.59001H137.117ZM134.943 -1.41614V0.757731H132.769V-1.41614H134.943ZM132.769 0.757731V2.9316H130.596V0.757731H132.769ZM130.596 2.9316V5.10547H128.422V2.9316H130.596ZM156.206 -10.1116V-7.93774H154.033V-10.1116H156.206ZM154.033 -7.93774V-5.76388H151.859V-7.93774H154.033ZM151.859 -5.76388V-3.59001H149.685V-5.76388H151.859ZM149.685 -3.59001V-1.41614H147.511V-3.59001H149.685ZM147.511 -1.41614V0.757731H145.337V-1.41614H147.511ZM145.337 0.757731V2.9316H143.163V0.757731H145.337ZM143.163 2.9316V5.10547H140.989V2.9316H143.163ZM168.774 -10.1116V-7.93774H166.6V-10.1116H168.774ZM166.6 -7.93774V-5.76388H164.426V-7.93774H166.6ZM164.426 -5.76388V-3.59001H162.252V-5.76388H164.426ZM162.252 -3.59001V-1.41614H160.079V-3.59001H162.252ZM160.079 -1.41614V0.757731H157.905V-1.41614H160.079ZM157.905 0.757731V2.9316H155.731V0.757731H157.905ZM155.731 2.9316V5.10547H153.557V2.9316H155.731ZM181.342 -10.1116V-7.93774H179.168V-10.1116H181.342ZM179.168 -7.93774V-5.76388H176.994V-7.93774H179.168ZM176.994 -5.76388V-3.59001H174.82V-5.76388H176.994ZM174.82 -3.59001V-1.41614H172.646V-3.59001H174.82ZM172.646 -1.41614V0.757731H170.472V-1.41614H172.646ZM170.472 0.757731V2.9316H168.299V0.757731H170.472ZM168.299 2.9316V5.10547H166.125V2.9316H168.299ZM193.909 -10.1116V-7.93774H191.736V-10.1116H193.909ZM191.736 -7.93774V-5.76388H189.562V-7.93774H191.736ZM189.562 -5.76388V-3.59001H187.388V-5.76388H189.562ZM187.388 -3.59001V-1.41614H185.214V-3.59001H187.388ZM185.214 -1.41614V0.757731H183.04V-1.41614H185.214ZM183.04 0.757731V2.9316H180.866V0.757731H183.04ZM180.866 2.9316V5.10547H178.692V2.9316H180.866ZM206.477 -10.1116V-7.93774H204.303V-10.1116H206.477ZM204.303 -7.93774V-5.76388H202.129V-7.93774H204.303ZM202.129 -5.76388V-3.59001H199.955V-5.76388H202.129ZM199.955 -3.59001V-1.41614H197.782V-3.59001H199.955ZM197.782 -1.41614V0.757731H195.608V-1.41614H197.782ZM195.608 0.757731V2.9316H193.434V0.757731H195.608ZM193.434 2.9316V5.10547H191.26V2.9316H193.434ZM219.045 -10.1116V-7.93774H216.871V-10.1116H219.045ZM216.871 -7.93774V-5.76388H214.697V-7.93774H216.871ZM214.697 -5.76388V-3.59001H212.523V-5.76388H214.697ZM212.523 -3.59001V-1.41614H210.349V-3.59001H212.523ZM210.349 -1.41614V0.757731H208.175V-1.41614H210.349ZM208.175 0.757731V2.9316H206.002V0.757731H208.175ZM206.002 2.9316V5.10547H203.828V2.9316H206.002ZM231.612 -10.1116V-7.93774H229.439V-10.1116H231.612ZM229.439 -7.93774V-5.76388H227.265V-7.93774H229.439ZM227.265 -5.76388V-3.59001H225.091V-5.76388H227.265ZM225.091 -3.59001V-1.41614H222.917V-3.59001H225.091ZM222.917 -1.41614V0.757731H220.743V-1.41614H222.917ZM220.743 0.757731V2.9316H218.569V0.757731H220.743ZM218.569 2.9316V5.10547H216.395V2.9316H218.569ZM244.18 -10.1116V-7.93774H242.006V-10.1116H244.18ZM242.006 -7.93774V-5.76388H239.832V-7.93774H242.006ZM239.832 -5.76388V-3.59001H237.659V-5.76388H239.832ZM237.659 -3.59001V-1.41614H235.485V-3.59001H237.659ZM235.485 -1.41614V0.757731H233.311V-1.41614H235.485ZM233.311 0.757731V2.9316H231.137V0.757731H233.311ZM231.137 2.9316V5.10547H228.963V2.9316H231.137ZM256.748 -10.1116V-7.93774H254.574V-10.1116H256.748ZM254.574 -7.93774V-5.76388H252.4V-7.93774H254.574ZM252.4 -5.76388V-3.59001H250.226V-5.76388H252.4ZM250.226 -3.59001V-1.41614H248.052V-3.59001H250.226ZM248.052 -1.41614V0.757731H245.878V-1.41614H248.052ZM245.878 0.757731V2.9316H243.705V0.757731H245.878ZM243.705 2.9316V5.10547H241.531V2.9316H243.705ZM269.316 -10.1116V-7.93774H267.142V-10.1116H269.316ZM267.142 -7.93774V-5.76388H264.968V-7.93774H267.142ZM264.968 -5.76388V-3.59001H262.794V-5.76388H264.968ZM262.794 -3.59001V-1.41614H260.62V-3.59001H262.794ZM260.62 -1.41614V0.757731H258.446V-1.41614H260.62ZM258.446 0.757731V2.9316H256.272V0.757731H258.446ZM256.272 2.9316V5.10547H254.098V2.9316H256.272ZM281.883 -10.1116V-7.93774H279.709V-10.1116H281.883ZM279.709 -7.93774V-5.76388H277.535V-7.93774H279.709ZM277.535 -5.76388V-3.59001H275.362V-5.76388H277.535ZM275.362 -3.59001V-1.41614H273.188V-3.59001H275.362ZM273.188 -1.41614V0.757731H271.014V-1.41614H273.188ZM271.014 0.757731V2.9316H268.84V0.757731H271.014ZM268.84 2.9316V5.10547H266.666V2.9316H268.84ZM294.451 -10.1116V-7.93774H292.277V-10.1116H294.451ZM292.277 -7.93774V-5.76388H290.103V-7.93774H292.277ZM290.103 -5.76388V-3.59001H287.929V-5.76388H290.103ZM287.929 -3.59001V-1.41614H285.755V-3.59001H287.929ZM285.755 -1.41614V0.757731H283.581V-1.41614H285.755ZM283.581 0.757731V2.9316H281.408V0.757731H283.581ZM281.408 2.9316V5.10547H279.234V2.9316H281.408Z" fill="white"/>
<path d="M-233.392 16.028V18.2019H-235.566V16.028H-233.392ZM-235.566 18.2019V20.3758H-237.739V18.2019H-235.566ZM-237.739 20.3758V22.5496H-239.913V20.3758H-237.739ZM-239.913 22.5496V24.7235H-242.087V22.5496H-239.913ZM-242.087 24.7235V26.8974H-244.261V24.7235H-242.087ZM-244.261 26.8974V29.0712H-246.435V26.8974H-244.261ZM-246.435 29.0712V31.2451H-248.609V29.0712H-246.435ZM-220.824 16.028V18.2019H-222.998V16.028H-220.824ZM-222.998 18.2019V20.3758H-225.172V18.2019H-222.998ZM-225.172 20.3758V22.5496H-227.346V20.3758H-225.172ZM-227.346 22.5496V24.7235H-229.519V22.5496H-227.346ZM-229.519 24.7235V26.8974H-231.693V24.7235H-229.519ZM-231.693 26.8974V29.0712H-233.867V26.8974H-231.693ZM-233.867 29.0712V31.2451H-236.041V29.0712H-233.867ZM-208.256 16.028V18.2019H-210.43V16.028H-208.256ZM-210.43 18.2019V20.3758H-212.604V18.2019H-210.43ZM-212.604 20.3758V22.5496H-214.778V20.3758H-212.604ZM-214.778 22.5496V24.7235H-216.952V22.5496H-214.778ZM-216.952 24.7235V26.8974H-219.126V24.7235H-216.952ZM-219.126 26.8974V29.0712H-221.299V26.8974H-219.126ZM-221.299 29.0712V31.2451H-223.473V29.0712H-221.299ZM-195.689 16.028V18.2019H-197.862V16.028H-195.689ZM-197.862 18.2019V20.3758H-200.036V18.2019H-197.862ZM-200.036 20.3758V22.5496H-202.21V20.3758H-200.036ZM-202.21 22.5496V24.7235H-204.384V22.5496H-202.21ZM-204.384 24.7235V26.8974H-206.558V24.7235H-204.384ZM-206.558 26.8974V29.0712H-208.732V26.8974H-206.558ZM-208.732 29.0712V31.2451H-210.906V29.0712H-208.732ZM-183.121 16.028V18.2019H-185.295V16.028H-183.121ZM-185.295 18.2019V20.3758H-187.469V18.2019H-185.295ZM-187.469 20.3758V22.5496H-189.643V20.3758H-187.469ZM-189.643 22.5496V24.7235H-191.816V22.5496H-189.643ZM-191.816 24.7235V26.8974H-193.99V24.7235H-191.816ZM-193.99 26.8974V29.0712H-196.164V26.8974H-193.99ZM-196.164 29.0712V31.2451H-198.338V29.0712H-196.164ZM-170.553 16.028V18.2019H-172.727V16.028H-170.553ZM-172.727 18.2019V20.3758H-174.901V18.2019H-172.727ZM-174.901 20.3758V22.5496H-177.075V20.3758H-174.901ZM-177.075 22.5496V24.7235H-179.249V22.5496H-177.075ZM-179.249 24.7235V26.8974H-181.423V24.7235H-179.249ZM-181.423 26.8974V29.0712H-183.596V26.8974H-181.423ZM-183.596 29.0712V31.2451H-185.77V29.0712H-183.596ZM-157.986 16.028V18.2019H-160.159V16.028H-157.986ZM-160.159 18.2019V20.3758H-162.333V18.2019H-160.159ZM-162.333 20.3758V22.5496H-164.507V20.3758H-162.333ZM-164.507 22.5496V24.7235H-166.681V22.5496H-164.507ZM-166.681 24.7235V26.8974H-168.855V24.7235H-166.681ZM-168.855 26.8974V29.0712H-171.029V26.8974H-168.855ZM-171.029 29.0712V31.2451H-173.203V29.0712H-171.029ZM-145.418 16.028V18.2019H-147.592V16.028H-145.418ZM-147.592 18.2019V20.3758H-149.766V18.2019H-147.592ZM-149.766 20.3758V22.5496H-151.94V20.3758H-149.766ZM-151.94 22.5496V24.7235H-154.113V22.5496H-151.94ZM-154.113 24.7235V26.8974H-156.287V24.7235H-154.113ZM-156.287 26.8974V29.0712H-158.461V26.8974H-156.287ZM-158.461 29.0712V31.2451H-160.635V29.0712H-158.461ZM-132.85 16.028V18.2019H-135.024V16.028H-132.85ZM-135.024 18.2019V20.3758H-137.198V18.2019H-135.024ZM-137.198 20.3758V22.5496H-139.372V20.3758H-137.198ZM-139.372 22.5496V24.7235H-141.546V22.5496H-139.372ZM-141.546 24.7235V26.8974H-143.72V24.7235H-141.546ZM-143.72 26.8974V29.0712H-145.893V26.8974H-143.72ZM-145.893 29.0712V31.2451H-148.067V29.0712H-145.893ZM-120.283 16.028V18.2019H-122.456V16.028H-120.283ZM-122.456 18.2019V20.3758H-124.63V18.2019H-122.456ZM-124.63 20.3758V22.5496H-126.804V20.3758H-124.63ZM-126.804 22.5496V24.7235H-128.978V22.5496H-126.804ZM-128.978 24.7235V26.8974H-131.152V24.7235H-128.978ZM-131.152 26.8974V29.0712H-133.326V26.8974H-131.152ZM-133.326 29.0712V31.2451H-135.5V29.0712H-133.326ZM-107.715 16.028V18.2019H-109.889V16.028H-107.715ZM-109.889 18.2019V20.3758H-112.063V18.2019H-109.889ZM-112.063 20.3758V22.5496H-114.236V20.3758H-112.063ZM-114.236 22.5496V24.7235H-116.41V22.5496H-114.236ZM-116.41 24.7235V26.8974H-118.584V24.7235H-116.41ZM-118.584 26.8974V29.0712H-120.758V26.8974H-118.584ZM-120.758 29.0712V31.2451H-122.932V29.0712H-120.758ZM-95.1472 16.028V18.2019H-97.321V16.028H-95.1472ZM-97.321 18.2019V20.3758H-99.4949V18.2019H-97.321ZM-99.4949 20.3758V22.5496H-101.669V20.3758H-99.4949ZM-101.669 22.5496V24.7235H-103.843V22.5496H-101.669ZM-103.843 24.7235V26.8974H-106.017V24.7235H-103.843ZM-106.017 26.8974V29.0712H-108.19V26.8974H-106.017ZM-108.19 29.0712V31.2451H-110.364V29.0712H-108.19ZM-82.5795 16.028V18.2019H-84.7534V16.028H-82.5795ZM-84.7534 18.2019V20.3758H-86.9272V18.2019H-84.7534ZM-86.9272 20.3758V22.5496H-89.1011V20.3758H-86.9272ZM-89.1011 22.5496V24.7235H-91.275V22.5496H-89.1011ZM-91.275 24.7235V26.8974H-93.4489V24.7235H-91.275ZM-93.4489 26.8974V29.0712H-95.6227V26.8974H-93.4489ZM-95.6227 29.0712V31.2451H-97.7966V29.0712H-95.6227ZM-70.0118 16.028V18.2019H-72.1857V16.028H-70.0118ZM-72.1857 18.2019V20.3758H-74.3596V18.2019H-72.1857ZM-74.3596 20.3758V22.5496H-76.5334V20.3758H-74.3596ZM-76.5334 22.5496V24.7235H-78.7073V22.5496H-76.5334ZM-78.7073 24.7235V26.8974H-80.8812V24.7235H-78.7073ZM-80.8812 26.8974V29.0712H-83.055V26.8974H-80.8812ZM-83.055 29.0712V31.2451H-85.2289V29.0712H-83.055ZM-57.4441 16.028V18.2019H-59.618V16.028H-57.4441ZM-59.618 18.2019V20.3758H-61.7919V18.2019H-59.618ZM-61.7919 20.3758V22.5496H-63.9658V20.3758H-61.7919ZM-63.9658 22.5496V24.7235H-66.1396V22.5496H-63.9658ZM-66.1396 24.7235V26.8974H-68.3135V24.7235H-66.1396ZM-68.3135 26.8974V29.0712H-70.4874V26.8974H-68.3135ZM-70.4874 29.0712V31.2451H-72.6612V29.0712H-70.4874ZM-44.8765 16.028V18.2019H-47.0503V16.028H-44.8765ZM-47.0503 18.2019V20.3758H-49.2242V18.2019H-47.0503ZM-49.2242 20.3758V22.5496H-51.3981V20.3758H-49.2242ZM-51.3981 22.5496V24.7235H-53.5719V22.5496H-51.3981ZM-53.5719 24.7235V26.8974H-55.7458V24.7235H-53.5719ZM-55.7458 26.8974V29.0712H-57.9197V26.8974H-55.7458ZM-57.9197 29.0712V31.2451H-60.0935V29.0712H-57.9197ZM-32.3088 16.028V18.2019H-34.4827V16.028H-32.3088ZM-34.4827 18.2019V20.3758H-36.6565V18.2019H-34.4827ZM-36.6565 20.3758V22.5496H-38.8304V20.3758H-36.6565ZM-38.8304 22.5496V24.7235H-41.0043V22.5496H-38.8304ZM-41.0043 24.7235V26.8974H-43.1781V24.7235H-41.0043ZM-43.1781 26.8974V29.0712H-45.352V26.8974H-43.1781ZM-45.352 29.0712V31.2451H-47.5259V29.0712H-45.352ZM-19.7411 16.028V18.2019H-21.915V16.028H-19.7411ZM-21.915 18.2019V20.3758H-24.0889V18.2019H-21.915ZM-24.0889 20.3758V22.5496H-26.2627V20.3758H-24.0889ZM-26.2627 22.5496V24.7235H-28.4366V22.5496H-26.2627ZM-28.4366 24.7235V26.8974H-30.6105V24.7235H-28.4366ZM-30.6105 26.8974V29.0712H-32.7843V26.8974H-30.6105ZM-32.7843 29.0712V31.2451H-34.9582V29.0712H-32.7843ZM-7.17343 16.028V18.2019H-9.34729V16.028H-7.17343ZM-9.34729 18.2019V20.3758H-11.5212V18.2019H-9.34729ZM-11.5212 20.3758V22.5496H-13.695V20.3758H-11.5212ZM-13.695 22.5496V24.7235H-15.8689V22.5496H-13.695ZM-15.8689 24.7235V26.8974H-18.0428V24.7235H-15.8689ZM-18.0428 26.8974V29.0712H-20.2166V26.8974H-18.0428ZM-20.2166 29.0712V31.2451H-22.3905V29.0712H-20.2166ZM5.39425 16.028V18.2019H3.22038V16.028H5.39425ZM3.22038 18.2019V20.3758H1.04651V18.2019H3.22038ZM1.04651 20.3758V22.5496H-1.12736V20.3758H1.04651ZM-1.12736 22.5496V24.7235H-3.30123V22.5496H-1.12736ZM-3.30123 24.7235V26.8974H-5.4751V24.7235H-3.30123ZM-5.4751 26.8974V29.0712H-7.64897V26.8974H-5.4751ZM-7.64897 29.0712V31.2451H-9.82284V29.0712H-7.64897ZM17.9619 16.028V18.2019H15.7881V16.028H17.9619ZM15.7881 18.2019V20.3758H13.6142V18.2019H15.7881ZM13.6142 20.3758V22.5496H11.4403V20.3758H13.6142ZM11.4403 22.5496V24.7235H9.26646V22.5496H11.4403ZM9.26646 24.7235V26.8974H7.09259V24.7235H9.26646ZM7.09259 26.8974V29.0712H4.91872V26.8974H7.09259ZM4.91872 29.0712V31.2451H2.74485V29.0712H4.91872ZM30.5296 16.028V18.2019H28.3557V16.028H30.5296ZM28.3557 18.2019V20.3758H26.1819V18.2019H28.3557ZM26.1819 20.3758V22.5496H24.008V20.3758H26.1819ZM24.008 22.5496V24.7235H21.8341V22.5496H24.008ZM21.8341 24.7235V26.8974H19.6602V24.7235H21.8341ZM19.6602 26.8974V29.0712H17.4864V26.8974H19.6602ZM17.4864 29.0712V31.2451H15.3125V29.0712H17.4864ZM43.0973 16.028V18.2019H40.9234V16.028H43.0973ZM40.9234 18.2019V20.3758H38.7495V18.2019H40.9234ZM38.7495 20.3758V22.5496H36.5757V20.3758H38.7495ZM36.5757 22.5496V24.7235H34.4018V22.5496H36.5757ZM34.4018 24.7235V26.8974H32.2279V24.7235H34.4018ZM32.2279 26.8974V29.0712H30.0541V26.8974H32.2279ZM30.0541 29.0712V31.2451H27.8802V29.0712H30.0541ZM55.665 16.028V18.2019H53.4911V16.028H55.665ZM53.4911 18.2019V20.3758H51.3172V18.2019H53.4911ZM51.3172 20.3758V22.5496H49.1434V20.3758H51.3172ZM49.1434 22.5496V24.7235H46.9695V22.5496H49.1434ZM46.9695 24.7235V26.8974H44.7956V24.7235H46.9695ZM44.7956 26.8974V29.0712H42.6218V26.8974H44.7956ZM42.6218 29.0712V31.2451H40.4479V29.0712H42.6218ZM68.2326 16.028V18.2019H66.0588V16.028H68.2326ZM66.0588 18.2019V20.3758H63.8849V18.2019H66.0588ZM63.8849 20.3758V22.5496H61.711V20.3758H63.8849ZM61.711 22.5496V24.7235H59.5372V22.5496H61.711ZM59.5372 24.7235V26.8974H57.3633V24.7235H59.5372ZM57.3633 26.8974V29.0712H55.1894V26.8974H57.3633ZM55.1894 29.0712V31.2451H53.0155V29.0712H55.1894ZM80.8003 16.028V18.2019H78.6264V16.028H80.8003ZM78.6264 18.2019V20.3758H76.4526V18.2019H78.6264ZM76.4526 20.3758V22.5496H74.2787V20.3758H76.4526ZM74.2787 22.5496V24.7235H72.1048V22.5496H74.2787ZM72.1048 24.7235V26.8974H69.931V24.7235H72.1048ZM69.931 26.8974V29.0712H67.7571V26.8974H69.931ZM67.7571 29.0712V31.2451H65.5832V29.0712H67.7571ZM93.368 16.028V18.2019H91.1941V16.028H93.368ZM91.1941 18.2019V20.3758H89.0203V18.2019H91.1941ZM89.0203 20.3758V22.5496H86.8464V20.3758H89.0203ZM86.8464 22.5496V24.7235H84.6725V22.5496H86.8464ZM84.6725 24.7235V26.8974H82.4987V24.7235H84.6725ZM82.4987 26.8974V29.0712H80.3248V26.8974H82.4987ZM80.3248 29.0712V31.2451H78.1509V29.0712H80.3248ZM105.936 16.028V18.2019H103.762V16.028H105.936ZM103.762 18.2019V20.3758H101.588V18.2019H103.762ZM101.588 20.3758V22.5496H99.4141V20.3758H101.588ZM99.4141 22.5496V24.7235H97.2402V22.5496H99.4141ZM97.2402 24.7235V26.8974H95.0663V24.7235H97.2402ZM95.0663 26.8974V29.0712H92.8925V26.8974H95.0663ZM92.8925 29.0712V31.2451H90.7186V29.0712H92.8925ZM118.503 16.028V18.2019H116.329V16.028H118.503ZM116.329 18.2019V20.3758H114.156V18.2019H116.329ZM114.156 20.3758V22.5496H111.982V20.3758H114.156ZM111.982 22.5496V24.7235H109.808V22.5496H111.982ZM109.808 24.7235V26.8974H107.634V24.7235H109.808ZM107.634 26.8974V29.0712H105.46V26.8974H107.634ZM105.46 29.0712V31.2451H103.286V29.0712H105.46ZM131.071 16.028V18.2019H128.897V16.028H131.071ZM128.897 18.2019V20.3758H126.723V18.2019H128.897ZM126.723 20.3758V22.5496H124.549V20.3758H126.723ZM124.549 22.5496V24.7235H122.376V22.5496H124.549ZM122.376 24.7235V26.8974H120.202V24.7235H122.376ZM120.202 26.8974V29.0712H118.028V26.8974H120.202ZM118.028 29.0712V31.2451H115.854V29.0712H118.028ZM143.639 16.028V18.2019H141.465V16.028H143.639ZM141.465 18.2019V20.3758H139.291V18.2019H141.465ZM139.291 20.3758V22.5496H137.117V20.3758H139.291ZM137.117 22.5496V24.7235H134.943V22.5496H137.117ZM134.943 24.7235V26.8974H132.769V24.7235H134.943ZM132.769 26.8974V29.0712H130.596V26.8974H132.769ZM130.596 29.0712V31.2451H128.422V29.0712H130.596ZM156.206 16.028V18.2019H154.033V16.028H156.206ZM154.033 18.2019V20.3758H151.859V18.2019H154.033ZM151.859 20.3758V22.5496H149.685V20.3758H151.859ZM149.685 22.5496V24.7235H147.511V22.5496H149.685ZM147.511 24.7235V26.8974H145.337V24.7235H147.511ZM145.337 26.8974V29.0712H143.163V26.8974H145.337ZM143.163 29.0712V31.2451H140.989V29.0712H143.163ZM168.774 16.028V18.2019H166.6V16.028H168.774ZM166.6 18.2019V20.3758H164.426V18.2019H166.6ZM164.426 20.3758V22.5496H162.252V20.3758H164.426ZM162.252 22.5496V24.7235H160.079V22.5496H162.252ZM160.079 24.7235V26.8974H157.905V24.7235H160.079ZM157.905 26.8974V29.0712H155.731V26.8974H157.905ZM155.731 29.0712V31.2451H153.557V29.0712H155.731ZM181.342 16.028V18.2019H179.168V16.028H181.342ZM179.168 18.2019V20.3758H176.994V18.2019H179.168ZM176.994 20.3758V22.5496H174.82V20.3758H176.994ZM174.82 22.5496V24.7235H172.646V22.5496H174.82ZM172.646 24.7235V26.8974H170.472V24.7235H172.646ZM170.472 26.8974V29.0712H168.299V26.8974H170.472ZM168.299 29.0712V31.2451H166.125V29.0712H168.299ZM193.909 16.028V18.2019H191.736V16.028H193.909ZM191.736 18.2019V20.3758H189.562V18.2019H191.736ZM189.562 20.3758V22.5496H187.388V20.3758H189.562ZM187.388 22.5496V24.7235H185.214V22.5496H187.388ZM185.214 24.7235V26.8974H183.04V24.7235H185.214ZM183.04 26.8974V29.0712H180.866V26.8974H183.04ZM180.866 29.0712V31.2451H178.692V29.0712H180.866ZM206.477 16.028V18.2019H204.303V16.028H206.477ZM204.303 18.2019V20.3758H202.129V18.2019H204.303ZM202.129 20.3758V22.5496H199.955V20.3758H202.129ZM199.955 22.5496V24.7235H197.782V22.5496H199.955ZM197.782 24.7235V26.8974H195.608V24.7235H197.782ZM195.608 26.8974V29.0712H193.434V26.8974H195.608ZM193.434 29.0712V31.2451H191.26V29.0712H193.434ZM219.045 16.028V18.2019H216.871V16.028H219.045ZM216.871 18.2019V20.3758H214.697V18.2019H216.871ZM214.697 20.3758V22.5496H212.523V20.3758H214.697ZM212.523 22.5496V24.7235H210.349V22.5496H212.523ZM210.349 24.7235V26.8974H208.175V24.7235H210.349ZM208.175 26.8974V29.0712H206.002V26.8974H208.175ZM206.002 29.0712V31.2451H203.828V29.0712H206.002ZM231.612 16.028V18.2019H229.439V16.028H231.612ZM229.439 18.2019V20.3758H227.265V18.2019H229.439ZM227.265 20.3758V22.5496H225.091V20.3758H227.265ZM225.091 22.5496V24.7235H222.917V22.5496H225.091ZM222.917 24.7235V26.8974H220.743V24.7235H222.917ZM220.743 26.8974V29.0712H218.569V26.8974H220.743ZM218.569 29.0712V31.2451H216.395V29.0712H218.569ZM244.18 16.028V18.2019H242.006V16.028H244.18ZM242.006 18.2019V20.3758H239.832V18.2019H242.006ZM239.832 20.3758V22.5496H237.659V20.3758H239.832ZM237.659 22.5496V24.7235H235.485V22.5496H237.659ZM235.485 24.7235V26.8974H233.311V24.7235H235.485ZM233.311 26.8974V29.0712H231.137V26.8974H233.311ZM231.137 29.0712V31.2451H228.963V29.0712H231.137ZM256.748 16.028V18.2019H254.574V16.028H256.748ZM254.574 18.2019V20.3758H252.4V18.2019H254.574ZM252.4 20.3758V22.5496H250.226V20.3758H252.4ZM250.226 22.5496V24.7235H248.052V22.5496H250.226ZM248.052 24.7235V26.8974H245.878V24.7235H248.052ZM245.878 26.8974V29.0712H243.705V26.8974H245.878ZM243.705 29.0712V31.2451H241.531V29.0712H243.705ZM269.316 16.028V18.2019H267.142V16.028H269.316ZM267.142 18.2019V20.3758H264.968V18.2019H267.142ZM264.968 20.3758V22.5496H262.794V20.3758H264.968ZM262.794 22.5496V24.7235H260.62V22.5496H262.794ZM260.62 24.7235V26.8974H258.446V24.7235H260.62ZM258.446 26.8974V29.0712H256.272V26.8974H258.446ZM256.272 29.0712V31.2451H254.098V29.0712H256.272ZM281.883 16.028V18.2019H279.709V16.028H281.883ZM279.709 18.2019V20.3758H277.535V18.2019H279.709ZM277.535 20.3758V22.5496H275.362V20.3758H277.535ZM275.362 22.5496V24.7235H273.188V22.5496H275.362ZM273.188 24.7235V26.8974H271.014V24.7235H273.188ZM271.014 26.8974V29.0712H268.84V26.8974H271.014ZM268.84 29.0712V31.2451H266.666V29.0712H268.84ZM294.451 16.028V18.2019H292.277V16.028H294.451ZM292.277 18.2019V20.3758H290.103V18.2019H292.277ZM290.103 20.3758V22.5496H287.929V20.3758H290.103ZM287.929 22.5496V24.7235H285.755V22.5496H287.929ZM285.755 24.7235V26.8974H283.581V24.7235H285.755ZM283.581 26.8974V29.0712H281.408V26.8974H283.581ZM281.408 29.0712V31.2451H279.234V29.0712H281.408Z" fill="white"/>
<path d="M-233.392 42.1228V44.2966H-235.566V42.1228H-233.392ZM-235.566 44.2966V46.4705H-237.739V44.2966H-235.566ZM-237.739 46.4705V48.6444H-239.913V46.4705H-237.739ZM-239.913 48.6444V50.8182H-242.087V48.6444H-239.913ZM-242.087 50.8182V52.9921H-244.261V50.8182H-242.087ZM-244.261 52.9921V55.166H-246.435V52.9921H-244.261ZM-246.435 55.166V57.3398H-248.609V55.166H-246.435ZM-220.824 42.1228V44.2966H-222.998V42.1228H-220.824ZM-222.998 44.2966V46.4705H-225.172V44.2966H-222.998ZM-225.172 46.4705V48.6444H-227.346V46.4705H-225.172ZM-227.346 48.6444V50.8182H-229.519V48.6444H-227.346ZM-229.519 50.8182V52.9921H-231.693V50.8182H-229.519ZM-231.693 52.9921V55.166H-233.867V52.9921H-231.693ZM-233.867 55.166V57.3398H-236.041V55.166H-233.867ZM-208.256 42.1228V44.2966H-210.43V42.1228H-208.256ZM-210.43 44.2966V46.4705H-212.604V44.2966H-210.43ZM-212.604 46.4705V48.6444H-214.778V46.4705H-212.604ZM-214.778 48.6444V50.8182H-216.952V48.6444H-214.778ZM-216.952 50.8182V52.9921H-219.126V50.8182H-216.952ZM-219.126 52.9921V55.166H-221.299V52.9921H-219.126ZM-221.299 55.166V57.3398H-223.473V55.166H-221.299ZM-195.689 42.1228V44.2966H-197.862V42.1228H-195.689ZM-197.862 44.2966V46.4705H-200.036V44.2966H-197.862ZM-200.036 46.4705V48.6444H-202.21V46.4705H-200.036ZM-202.21 48.6444V50.8182H-204.384V48.6444H-202.21ZM-204.384 50.8182V52.9921H-206.558V50.8182H-204.384ZM-206.558 52.9921V55.166H-208.732V52.9921H-206.558ZM-208.732 55.166V57.3398H-210.906V55.166H-208.732ZM-183.121 42.1228V44.2966H-185.295V42.1228H-183.121ZM-185.295 44.2966V46.4705H-187.469V44.2966H-185.295ZM-187.469 46.4705V48.6444H-189.643V46.4705H-187.469ZM-189.643 48.6444V50.8182H-191.816V48.6444H-189.643ZM-191.816 50.8182V52.9921H-193.99V50.8182H-191.816ZM-193.99 52.9921V55.166H-196.164V52.9921H-193.99ZM-196.164 55.166V57.3398H-198.338V55.166H-196.164ZM-170.553 42.1228V44.2966H-172.727V42.1228H-170.553ZM-172.727 44.2966V46.4705H-174.901V44.2966H-172.727ZM-174.901 46.4705V48.6444H-177.075V46.4705H-174.901ZM-177.075 48.6444V50.8182H-179.249V48.6444H-177.075ZM-179.249 50.8182V52.9921H-181.423V50.8182H-179.249ZM-181.423 52.9921V55.166H-183.596V52.9921H-181.423ZM-183.596 55.166V57.3398H-185.77V55.166H-183.596ZM-157.986 42.1228V44.2966H-160.159V42.1228H-157.986ZM-160.159 44.2966V46.4705H-162.333V44.2966H-160.159ZM-162.333 46.4705V48.6444H-164.507V46.4705H-162.333ZM-164.507 48.6444V50.8182H-166.681V48.6444H-164.507ZM-166.681 50.8182V52.9921H-168.855V50.8182H-166.681ZM-168.855 52.9921V55.166H-171.029V52.9921H-168.855ZM-171.029 55.166V57.3398H-173.203V55.166H-171.029ZM-145.418 42.1228V44.2966H-147.592V42.1228H-145.418ZM-147.592 44.2966V46.4705H-149.766V44.2966H-147.592ZM-149.766 46.4705V48.6444H-151.94V46.4705H-149.766ZM-151.94 48.6444V50.8182H-154.113V48.6444H-151.94ZM-154.113 50.8182V52.9921H-156.287V50.8182H-154.113ZM-156.287 52.9921V55.166H-158.461V52.9921H-156.287ZM-158.461 55.166V57.3398H-160.635V55.166H-158.461ZM-132.85 42.1228V44.2966H-135.024V42.1228H-132.85ZM-135.024 44.2966V46.4705H-137.198V44.2966H-135.024ZM-137.198 46.4705V48.6444H-139.372V46.4705H-137.198ZM-139.372 48.6444V50.8182H-141.546V48.6444H-139.372ZM-141.546 50.8182V52.9921H-143.72V50.8182H-141.546ZM-143.72 52.9921V55.166H-145.893V52.9921H-143.72ZM-145.893 55.166V57.3398H-148.067V55.166H-145.893ZM-120.283 42.1228V44.2966H-122.456V42.1228H-120.283ZM-122.456 44.2966V46.4705H-124.63V44.2966H-122.456ZM-124.63 46.4705V48.6444H-126.804V46.4705H-124.63ZM-126.804 48.6444V50.8182H-128.978V48.6444H-126.804ZM-128.978 50.8182V52.9921H-131.152V50.8182H-128.978ZM-131.152 52.9921V55.166H-133.326V52.9921H-131.152ZM-133.326 55.166V57.3398H-135.5V55.166H-133.326ZM-107.715 42.1228V44.2966H-109.889V42.1228H-107.715ZM-109.889 44.2966V46.4705H-112.063V44.2966H-109.889ZM-112.063 46.4705V48.6444H-114.236V46.4705H-112.063ZM-114.236 48.6444V50.8182H-116.41V48.6444H-114.236ZM-116.41 50.8182V52.9921H-118.584V50.8182H-116.41ZM-118.584 52.9921V55.166H-120.758V52.9921H-118.584ZM-120.758 55.166V57.3398H-122.932V55.166H-120.758ZM-95.1472 42.1228V44.2966H-97.321V42.1228H-95.1472ZM-97.321 44.2966V46.4705H-99.4949V44.2966H-97.321ZM-99.4949 46.4705V48.6444H-101.669V46.4705H-99.4949ZM-101.669 48.6444V50.8182H-103.843V48.6444H-101.669ZM-103.843 50.8182V52.9921H-106.017V50.8182H-103.843ZM-106.017 52.9921V55.166H-108.19V52.9921H-106.017ZM-108.19 55.166V57.3398H-110.364V55.166H-108.19ZM-82.5795 42.1228V44.2966H-84.7534V42.1228H-82.5795ZM-84.7534 44.2966V46.4705H-86.9272V44.2966H-84.7534ZM-86.9272 46.4705V48.6444H-89.1011V46.4705H-86.9272ZM-89.1011 48.6444V50.8182H-91.275V48.6444H-89.1011ZM-91.275 50.8182V52.9921H-93.4489V50.8182H-91.275ZM-93.4489 52.9921V55.166H-95.6227V52.9921H-93.4489ZM-95.6227 55.166V57.3398H-97.7966V55.166H-95.6227ZM-70.0118 42.1228V44.2966H-72.1857V42.1228H-70.0118ZM-72.1857 44.2966V46.4705H-74.3596V44.2966H-72.1857ZM-74.3596 46.4705V48.6444H-76.5334V46.4705H-74.3596ZM-76.5334 48.6444V50.8182H-78.7073V48.6444H-76.5334ZM-78.7073 50.8182V52.9921H-80.8812V50.8182H-78.7073ZM-80.8812 52.9921V55.166H-83.055V52.9921H-80.8812ZM-83.055 55.166V57.3398H-85.2289V55.166H-83.055ZM-57.4441 42.1228V44.2966H-59.618V42.1228H-57.4441ZM-59.618 44.2966V46.4705H-61.7919V44.2966H-59.618ZM-61.7919 46.4705V48.6444H-63.9658V46.4705H-61.7919ZM-63.9658 48.6444V50.8182H-66.1396V48.6444H-63.9658ZM-66.1396 50.8182V52.9921H-68.3135V50.8182H-66.1396ZM-68.3135 52.9921V55.166H-70.4874V52.9921H-68.3135ZM-70.4874 55.166V57.3398H-72.6612V55.166H-70.4874ZM-44.8765 42.1228V44.2966H-47.0503V42.1228H-44.8765ZM-47.0503 44.2966V46.4705H-49.2242V44.2966H-47.0503ZM-49.2242 46.4705V48.6444H-51.3981V46.4705H-49.2242ZM-51.3981 48.6444V50.8182H-53.5719V48.6444H-51.3981ZM-53.5719 50.8182V52.9921H-55.7458V50.8182H-53.5719ZM-55.7458 52.9921V55.166H-57.9197V52.9921H-55.7458ZM-57.9197 55.166V57.3398H-60.0935V55.166H-57.9197ZM-32.3088 42.1228V44.2966H-34.4827V42.1228H-32.3088ZM-34.4827 44.2966V46.4705H-36.6565V44.2966H-34.4827ZM-36.6565 46.4705V48.6444H-38.8304V46.4705H-36.6565ZM-38.8304 48.6444V50.8182H-41.0043V48.6444H-38.8304ZM-41.0043 50.8182V52.9921H-43.1781V50.8182H-41.0043ZM-43.1781 52.9921V55.166H-45.352V52.9921H-43.1781ZM-45.352 55.166V57.3398H-47.5259V55.166H-45.352ZM-19.7411 42.1228V44.2966H-21.915V42.1228H-19.7411ZM-21.915 44.2966V46.4705H-24.0889V44.2966H-21.915ZM-24.0889 46.4705V48.6444H-26.2627V46.4705H-24.0889ZM-26.2627 48.6444V50.8182H-28.4366V48.6444H-26.2627ZM-28.4366 50.8182V52.9921H-30.6105V50.8182H-28.4366ZM-30.6105 52.9921V55.166H-32.7843V52.9921H-30.6105ZM-32.7843 55.166V57.3398H-34.9582V55.166H-32.7843ZM-7.17343 42.1228V44.2966H-9.34729V42.1228H-7.17343ZM-9.34729 44.2966V46.4705H-11.5212V44.2966H-9.34729ZM-11.5212 46.4705V48.6444H-13.695V46.4705H-11.5212ZM-13.695 48.6444V50.8182H-15.8689V48.6444H-13.695ZM-15.8689 50.8182V52.9921H-18.0428V50.8182H-15.8689ZM-18.0428 52.9921V55.166H-20.2166V52.9921H-18.0428ZM-20.2166 55.166V57.3398H-22.3905V55.166H-20.2166ZM5.39425 42.1228V44.2966H3.22038V42.1228H5.39425ZM3.22038 44.2966V46.4705H1.04651V44.2966H3.22038ZM1.04651 46.4705V48.6444H-1.12736V46.4705H1.04651ZM-1.12736 48.6444V50.8182H-3.30123V48.6444H-1.12736ZM-3.30123 50.8182V52.9921H-5.4751V50.8182H-3.30123ZM-5.4751 52.9921V55.166H-7.64897V52.9921H-5.4751ZM-7.64897 55.166V57.3398H-9.82284V55.166H-7.64897ZM17.9619 42.1228V44.2966H15.7881V42.1228H17.9619ZM15.7881 44.2966V46.4705H13.6142V44.2966H15.7881ZM13.6142 46.4705V48.6444H11.4403V46.4705H13.6142ZM11.4403 48.6444V50.8182H9.26646V48.6444H11.4403ZM9.26646 50.8182V52.9921H7.09259V50.8182H9.26646ZM7.09259 52.9921V55.166H4.91872V52.9921H7.09259ZM4.91872 55.166V57.3398H2.74485V55.166H4.91872ZM30.5296 42.1228V44.2966H28.3557V42.1228H30.5296ZM28.3557 44.2966V46.4705H26.1819V44.2966H28.3557ZM26.1819 46.4705V48.6444H24.008V46.4705H26.1819ZM24.008 48.6444V50.8182H21.8341V48.6444H24.008ZM21.8341 50.8182V52.9921H19.6602V50.8182H21.8341ZM19.6602 52.9921V55.166H17.4864V52.9921H19.6602ZM17.4864 55.166V57.3398H15.3125V55.166H17.4864ZM43.0973 42.1228V44.2966H40.9234V42.1228H43.0973ZM40.9234 44.2966V46.4705H38.7495V44.2966H40.9234ZM38.7495 46.4705V48.6444H36.5757V46.4705H38.7495ZM36.5757 48.6444V50.8182H34.4018V48.6444H36.5757ZM34.4018 50.8182V52.9921H32.2279V50.8182H34.4018ZM32.2279 52.9921V55.166H30.0541V52.9921H32.2279ZM30.0541 55.166V57.3398H27.8802V55.166H30.0541ZM55.665 42.1228V44.2966H53.4911V42.1228H55.665ZM53.4911 44.2966V46.4705H51.3172V44.2966H53.4911ZM51.3172 46.4705V48.6444H49.1434V46.4705H51.3172ZM49.1434 48.6444V50.8182H46.9695V48.6444H49.1434ZM46.9695 50.8182V52.9921H44.7956V50.8182H46.9695ZM44.7956 52.9921V55.166H42.6218V52.9921H44.7956ZM42.6218 55.166V57.3398H40.4479V55.166H42.6218ZM68.2326 42.1228V44.2966H66.0588V42.1228H68.2326ZM66.0588 44.2966V46.4705H63.8849V44.2966H66.0588ZM63.8849 46.4705V48.6444H61.711V46.4705H63.8849ZM61.711 48.6444V50.8182H59.5372V48.6444H61.711ZM59.5372 50.8182V52.9921H57.3633V50.8182H59.5372ZM57.3633 52.9921V55.166H55.1894V52.9921H57.3633ZM55.1894 55.166V57.3398H53.0155V55.166H55.1894ZM80.8003 42.1228V44.2966H78.6264V42.1228H80.8003ZM78.6264 44.2966V46.4705H76.4526V44.2966H78.6264ZM76.4526 46.4705V48.6444H74.2787V46.4705H76.4526ZM74.2787 48.6444V50.8182H72.1048V48.6444H74.2787ZM72.1048 50.8182V52.9921H69.931V50.8182H72.1048ZM69.931 52.9921V55.166H67.7571V52.9921H69.931ZM67.7571 55.166V57.3398H65.5832V55.166H67.7571ZM93.368 42.1228V44.2966H91.1941V42.1228H93.368ZM91.1941 44.2966V46.4705H89.0203V44.2966H91.1941ZM89.0203 46.4705V48.6444H86.8464V46.4705H89.0203ZM86.8464 48.6444V50.8182H84.6725V48.6444H86.8464ZM84.6725 50.8182V52.9921H82.4987V50.8182H84.6725ZM82.4987 52.9921V55.166H80.3248V52.9921H82.4987ZM80.3248 55.166V57.3398H78.1509V55.166H80.3248ZM105.936 42.1228V44.2966H103.762V42.1228H105.936ZM103.762 44.2966V46.4705H101.588V44.2966H103.762ZM101.588 46.4705V48.6444H99.4141V46.4705H101.588ZM99.4141 48.6444V50.8182H97.2402V48.6444H99.4141ZM97.2402 50.8182V52.9921H95.0663V50.8182H97.2402ZM95.0663 52.9921V55.166H92.8925V52.9921H95.0663ZM92.8925 55.166V57.3398H90.7186V55.166H92.8925ZM118.503 42.1228V44.2966H116.329V42.1228H118.503ZM116.329 44.2966V46.4705H114.156V44.2966H116.329ZM114.156 46.4705V48.6444H111.982V46.4705H114.156ZM111.982 48.6444V50.8182H109.808V48.6444H111.982ZM109.808 50.8182V52.9921H107.634V50.8182H109.808ZM107.634 52.9921V55.166H105.46V52.9921H107.634ZM105.46 55.166V57.3398H103.286V55.166H105.46ZM131.071 42.1228V44.2966H128.897V42.1228H131.071ZM128.897 44.2966V46.4705H126.723V44.2966H128.897ZM126.723 46.4705V48.6444H124.549V46.4705H126.723ZM124.549 48.6444V50.8182H122.376V48.6444H124.549ZM122.376 50.8182V52.9921H120.202V50.8182H122.376ZM120.202 52.9921V55.166H118.028V52.9921H120.202ZM118.028 55.166V57.3398H115.854V55.166H118.028ZM143.639 42.1228V44.2966H141.465V42.1228H143.639ZM141.465 44.2966V46.4705H139.291V44.2966H141.465ZM139.291 46.4705V48.6444H137.117V46.4705H139.291ZM137.117 48.6444V50.8182H134.943V48.6444H137.117ZM134.943 50.8182V52.9921H132.769V50.8182H134.943ZM132.769 52.9921V55.166H130.596V52.9921H132.769ZM130.596 55.166V57.3398H128.422V55.166H130.596ZM156.206 42.1228V44.2966H154.033V42.1228H156.206ZM154.033 44.2966V46.4705H151.859V44.2966H154.033ZM151.859 46.4705V48.6444H149.685V46.4705H151.859ZM149.685 48.6444V50.8182H147.511V48.6444H149.685ZM147.511 50.8182V52.9921H145.337V50.8182H147.511ZM145.337 52.9921V55.166H143.163V52.9921H145.337ZM143.163 55.166V57.3398H140.989V55.166H143.163ZM168.774 42.1228V44.2966H166.6V42.1228H168.774ZM166.6 44.2966V46.4705H164.426V44.2966H166.6ZM164.426 46.4705V48.6444H162.252V46.4705H164.426ZM162.252 48.6444V50.8182H160.079V48.6444H162.252ZM160.079 50.8182V52.9921H157.905V50.8182H160.079ZM157.905 52.9921V55.166H155.731V52.9921H157.905ZM155.731 55.166V57.3398H153.557V55.166H155.731ZM181.342 42.1228V44.2966H179.168V42.1228H181.342ZM179.168 44.2966V46.4705H176.994V44.2966H179.168ZM176.994 46.4705V48.6444H174.82V46.4705H176.994ZM174.82 48.6444V50.8182H172.646V48.6444H174.82ZM172.646 50.8182V52.9921H170.472V50.8182H172.646ZM170.472 52.9921V55.166H168.299V52.9921H170.472ZM168.299 55.166V57.3398H166.125V55.166H168.299ZM193.909 42.1228V44.2966H191.736V42.1228H193.909ZM191.736 44.2966V46.4705H189.562V44.2966H191.736ZM189.562 46.4705V48.6444H187.388V46.4705H189.562ZM187.388 48.6444V50.8182H185.214V48.6444H187.388ZM185.214 50.8182V52.9921H183.04V50.8182H185.214ZM183.04 52.9921V55.166H180.866V52.9921H183.04ZM180.866 55.166V57.3398H178.692V55.166H180.866ZM206.477 42.1228V44.2966H204.303V42.1228H206.477ZM204.303 44.2966V46.4705H202.129V44.2966H204.303ZM202.129 46.4705V48.6444H199.955V46.4705H202.129ZM199.955 48.6444V50.8182H197.782V48.6444H199.955ZM197.782 50.8182V52.9921H195.608V50.8182H197.782ZM195.608 52.9921V55.166H193.434V52.9921H195.608ZM193.434 55.166V57.3398H191.26V55.166H193.434ZM219.045 42.1228V44.2966H216.871V42.1228H219.045ZM216.871 44.2966V46.4705H214.697V44.2966H216.871ZM214.697 46.4705V48.6444H212.523V46.4705H214.697ZM212.523 48.6444V50.8182H210.349V48.6444H212.523ZM210.349 50.8182V52.9921H208.175V50.8182H210.349ZM208.175 52.9921V55.166H206.002V52.9921H208.175ZM206.002 55.166V57.3398H203.828V55.166H206.002ZM231.612 42.1228V44.2966H229.439V42.1228H231.612ZM229.439 44.2966V46.4705H227.265V44.2966H229.439ZM227.265 46.4705V48.6444H225.091V46.4705H227.265ZM225.091 48.6444V50.8182H222.917V48.6444H225.091ZM222.917 50.8182V52.9921H220.743V50.8182H222.917ZM220.743 52.9921V55.166H218.569V52.9921H220.743ZM218.569 55.166V57.3398H216.395V55.166H218.569ZM244.18 42.1228V44.2966H242.006V42.1228H244.18ZM242.006 44.2966V46.4705H239.832V44.2966H242.006ZM239.832 46.4705V48.6444H237.659V46.4705H239.832ZM237.659 48.6444V50.8182H235.485V48.6444H237.659ZM235.485 50.8182V52.9921H233.311V50.8182H235.485ZM233.311 52.9921V55.166H231.137V52.9921H233.311ZM231.137 55.166V57.3398H228.963V55.166H231.137ZM256.748 42.1228V44.2966H254.574V42.1228H256.748ZM254.574 44.2966V46.4705H252.4V44.2966H254.574ZM252.4 46.4705V48.6444H250.226V46.4705H252.4ZM250.226 48.6444V50.8182H248.052V48.6444H250.226ZM248.052 50.8182V52.9921H245.878V50.8182H248.052ZM245.878 52.9921V55.166H243.705V52.9921H245.878ZM243.705 55.166V57.3398H241.531V55.166H243.705ZM269.316 42.1228V44.2966H267.142V42.1228H269.316ZM267.142 44.2966V46.4705H264.968V44.2966H267.142ZM264.968 46.4705V48.6444H262.794V46.4705H264.968ZM262.794 48.6444V50.8182H260.62V48.6444H262.794ZM260.62 50.8182V52.9921H258.446V50.8182H260.62ZM258.446 52.9921V55.166H256.272V52.9921H258.446ZM256.272 55.166V57.3398H254.098V55.166H256.272ZM281.883 42.1228V44.2966H279.709V42.1228H281.883ZM279.709 44.2966V46.4705H277.535V44.2966H279.709ZM277.535 46.4705V48.6444H275.362V46.4705H277.535ZM275.362 48.6444V50.8182H273.188V48.6444H275.362ZM273.188 50.8182V52.9921H271.014V50.8182H273.188ZM271.014 52.9921V55.166H268.84V52.9921H271.014ZM268.84 55.166V57.3398H266.666V55.166H268.84ZM294.451 42.1228V44.2966H292.277V42.1228H294.451ZM292.277 44.2966V46.4705H290.103V44.2966H292.277ZM290.103 46.4705V48.6444H287.929V46.4705H290.103ZM287.929 48.6444V50.8182H285.755V48.6444H287.929ZM285.755 50.8182V52.9921H283.581V50.8182H285.755ZM283.581 52.9921V55.166H281.408V52.9921H283.581ZM281.408 55.166V57.3398H279.234V55.166H281.408Z" fill="white"/>
</g>
</svg>
