<svg width="45" height="45" viewBox="0 0 45 45" fill="none" xmlns="http://www.w3.org/2000/svg">
<mask id="mask0_442_583" style="mask-type:alpha" maskUnits="userSpaceOnUse" x="0" y="0" width="45" height="45">
<rect x="0.218985" y="0.218985" width="44.562" height="44.562" fill="#4200FF" stroke="#FF0000" stroke-width="0.437969"/>
</mask>
<g mask="url(#mask0_442_583)">
<mask id="mask1_442_583" style="mask-type:alpha" maskUnits="userSpaceOnUse" x="-73" y="-32" width="191" height="109">
<path fill-rule="evenodd" clip-rule="evenodd" d="M-47.876 0.843246C-48.3727 0.797914 -48.8003 1.28111 -48.5936 1.73503V1.73503C-48.2998 2.38023 -45.6258 2.38064 -45.332 1.73543V1.73543C-45.1254 1.28178 -45.5524 0.798958 -46.0488 0.843903C-46.3494 0.871115 -46.6528 0.884953 -46.9588 0.884953C-47.2672 0.884953 -47.5731 0.870893 -47.876 0.843246ZM-47.876 18.9255C-48.3727 18.9709 -48.8003 18.4877 -48.5936 18.0337V18.0337C-48.2998 17.3885 -45.6258 17.3881 -45.332 18.0333V18.0333C-45.1254 18.487 -45.5524 18.9698 -46.0488 18.9249C-46.3494 18.8977 -46.6528 18.8838 -46.9588 18.8838C-47.2672 18.8838 -47.5731 18.8979 -47.876 18.9255ZM-32.7261 26.9668C-33.0213 27.6159 -35.6813 27.6161 -35.9765 26.967V26.967C-36.1843 26.5101 -35.7544 26.0235 -35.2545 26.0683C-34.9568 26.095 -34.6563 26.1086 -34.3533 26.1086C-34.0491 26.1086 -33.7474 26.0949 -33.4485 26.068C-32.9485 26.023 -32.5183 26.5097 -32.7261 26.9668V26.9668ZM-32.729 43.2429C-33.0236 42.5943 -35.679 42.5941 -35.9736 43.2427V43.2427C-36.1809 43.6989 -35.7519 44.1845 -35.2528 44.1398C-34.9557 44.1133 -34.6557 44.0997 -34.3533 44.0997C-34.0497 44.0997 -33.7485 44.1134 -33.4502 44.1402C-32.951 44.185 -32.5217 43.6992 -32.729 43.2429V43.2429ZM-22.6558 51.291C-23.1516 51.246 -23.578 51.7281 -23.3718 52.1812V52.1812C-23.0786 52.8258 -20.4093 52.8258 -20.116 52.1812V52.1812C-19.9099 51.7281 -20.3363 51.246 -20.832 51.291C-21.1332 51.3183 -21.4373 51.3322 -21.7439 51.3322C-22.0506 51.3322 -22.3547 51.3183 -22.6558 51.291ZM-25.6678 73.9489C-26.2423 73.6576 -26.379 72.9686 -25.9521 72.4864V72.4864C-25.1365 71.5654 -18.3514 71.5654 -17.5358 72.4864V72.4864C-17.1089 72.9686 -17.2456 73.6576 -17.82 73.9489C-19.0608 74.5779 -20.3897 74.9172 -21.7439 74.9172C-23.0982 74.9172 -24.4271 74.5779 -25.6678 73.9489ZM-21.7439 76.5482C-20.774 76.5482 -19.8295 76.4091 -18.9219 76.1458C-16.6855 75.4968 -14.193 75.4968 -11.9566 76.1458C-11.049 76.4091 -10.1045 76.5482 -9.13457 76.5482C-8.16462 76.5482 -7.22008 76.4091 -6.31249 76.1458C-4.07609 75.4968 -1.58367 75.4968 0.65273 76.1458C1.56032 76.4091 2.50486 76.5482 3.47481 76.5482C4.44503 76.5482 5.38983 76.409 6.29766 76.1455C8.53476 75.4962 11.0281 75.4962 13.2652 76.1455C14.1731 76.409 15.1179 76.5482 16.0881 76.5482C17.058 76.5482 18.0026 76.4091 18.9102 76.1458C21.1466 75.4968 23.639 75.4968 25.8754 76.1458C26.783 76.4091 27.7275 76.5482 28.6975 76.5482C29.6671 76.5482 30.6114 76.4092 31.5187 76.146C33.7545 75.4975 36.2459 75.4975 38.4816 76.146C39.389 76.4092 40.3333 76.5482 41.3029 76.5482C42.2732 76.5482 43.218 76.409 44.1258 76.1455C46.3629 75.4962 48.8563 75.4962 51.0934 76.1455C52.0012 76.409 52.946 76.5482 53.9162 76.5482C54.8859 76.5482 55.8302 76.4092 56.7375 76.146C58.9732 75.4975 61.4647 75.4975 63.7004 76.146C64.6077 76.4092 65.552 76.5482 66.5217 76.5482C67.4919 76.5482 68.4367 76.409 69.3445 76.1455C71.5816 75.4962 74.075 75.4962 76.3121 76.1455C77.2199 76.409 78.1647 76.5482 79.135 76.5482C80.1046 76.5482 81.0489 76.4092 81.9563 76.146C84.192 75.4975 86.6834 75.4975 88.9191 76.146C89.8265 76.4092 90.7708 76.5482 91.7404 76.5482C92.7104 76.5482 93.6549 76.4091 94.5625 76.1458C96.7989 75.4968 99.2913 75.4968 101.528 76.1458C102.435 76.4091 103.38 76.5482 104.35 76.5482C111.36 76.5482 117.043 69.2843 117.043 60.324C117.043 57.2614 116.379 54.3971 115.226 51.9532C113.999 49.3548 113.999 46.0772 115.226 43.4788C116.379 41.0349 117.043 38.1706 117.043 35.108C117.043 32.045 116.379 29.1802 115.225 26.736C113.997 24.1363 113.997 20.8561 115.225 18.2564C116.379 15.8122 117.043 12.9474 117.043 9.88438C117.043 0.923996 111.36 -6.33983 104.35 -6.33983V-6.33983C103.493 -6.33983 102.786 -7.29004 103.099 -8.08765C103.953 -10.27 104.434 -12.7328 104.434 -15.3393C104.434 -24.2996 98.7509 -31.5635 91.7404 -31.5635C90.7708 -31.5635 89.8265 -31.4245 88.9191 -31.1613C86.6834 -30.5128 84.192 -30.5128 81.9563 -31.1613C81.0489 -31.4245 80.1046 -31.5635 79.135 -31.5635C78.1647 -31.5635 77.2199 -31.4243 76.3121 -31.1608C74.075 -30.5115 71.5816 -30.5115 69.3445 -31.1608C68.4367 -31.4243 67.4919 -31.5635 66.5217 -31.5635C65.552 -31.5635 64.6077 -31.4245 63.7004 -31.1613C61.4647 -30.5128 58.9732 -30.5128 56.7375 -31.1613C55.8302 -31.4245 54.8859 -31.5635 53.9162 -31.5635C52.946 -31.5635 52.0012 -31.4243 51.0934 -31.1608C48.8563 -30.5115 46.3629 -30.5115 44.1258 -31.1608C43.218 -31.4243 42.2732 -31.5635 41.3029 -31.5635C40.3333 -31.5635 39.389 -31.4245 38.4816 -31.1613C36.2459 -30.5128 33.7545 -30.5128 31.5188 -31.1613C30.6114 -31.4245 29.6671 -31.5635 28.6975 -31.5635C27.7275 -31.5635 26.783 -31.4244 25.8754 -31.1611C23.639 -30.5121 21.1466 -30.5121 18.9102 -31.1611C18.0026 -31.4244 17.058 -31.5635 16.0881 -31.5635C15.1179 -31.5635 14.1731 -31.4243 13.2652 -31.1608C11.0281 -30.5115 8.53476 -30.5115 6.29767 -31.1608C5.38984 -31.4243 4.44503 -31.5635 3.47481 -31.5635C2.50486 -31.5635 1.56032 -31.4244 0.652722 -31.1611C-1.58367 -30.5121 -4.07609 -30.5121 -6.31248 -31.1611C-7.22008 -31.4244 -8.16462 -31.5635 -9.13457 -31.5635C-10.1045 -31.5635 -11.0491 -31.4244 -11.9566 -31.1611C-14.193 -30.5121 -16.6855 -30.5121 -18.9219 -31.1611C-19.8295 -31.4244 -20.774 -31.5635 -21.7439 -31.5635C-22.7139 -31.5635 -23.6584 -31.4244 -24.566 -31.1611C-26.8024 -30.5121 -29.2948 -30.5121 -31.5312 -31.1611C-32.4388 -31.4244 -33.3834 -31.5635 -34.3533 -31.5635C-35.323 -31.5635 -36.2673 -31.4245 -37.1746 -31.1613C-39.4103 -30.5128 -41.9018 -30.5128 -44.1375 -31.1613C-45.0448 -31.4245 -45.9891 -31.5635 -46.9588 -31.5635C-47.929 -31.5635 -48.8738 -31.4243 -49.7816 -31.1608C-52.0187 -30.5115 -54.5121 -30.5115 -56.7492 -31.1608C-57.657 -31.4243 -58.6018 -31.5635 -59.5721 -31.5635C-66.5825 -31.5635 -72.2656 -24.2996 -72.2656 -15.3393C-72.2656 -12.2762 -71.6015 -9.41142 -70.4473 -6.96727C-69.2196 -4.36751 -69.2196 -1.08737 -70.4473 1.51239C-71.6015 3.95654 -72.2656 6.82133 -72.2656 9.88438C-72.2656 12.9474 -71.6015 15.8122 -70.4473 18.2564C-69.2196 20.8561 -69.2196 24.1363 -70.4473 26.736C-71.6015 29.1802 -72.2656 32.045 -72.2656 35.108C-72.2656 38.1706 -71.6017 41.0349 -70.4479 43.4788C-69.2211 46.0772 -69.2211 49.3548 -70.4479 51.9532C-71.6017 54.3971 -72.2656 57.2614 -72.2656 60.324C-72.2656 69.2843 -66.5825 76.5482 -59.5721 76.5482C-58.6018 76.5482 -57.657 76.409 -56.7492 76.1455C-54.5121 75.4962 -52.0187 75.4962 -49.7816 76.1455C-48.8738 76.409 -47.929 76.5482 -46.9588 76.5482C-45.9891 76.5482 -45.0448 76.4092 -44.1375 76.146C-41.9018 75.4975 -39.4103 75.4975 -37.1746 76.146C-36.2673 76.4092 -35.323 76.5482 -34.3533 76.5482C-33.3834 76.5482 -32.4388 76.4091 -31.5312 76.1458C-29.2948 75.4968 -26.8024 75.4968 -24.566 76.1458C-23.6584 76.4091 -22.7139 76.5482 -21.7439 76.5482ZM106.844 44.4129C109.512 45.0924 112.696 45.1105 113.843 42.6082C114.831 40.4549 115.412 37.9085 115.412 35.108C115.412 32.3034 114.829 29.7537 113.839 27.5984C112.69 25.0985 109.509 25.117 106.843 25.7957C106.037 26.0009 105.203 26.1086 104.35 26.1086V26.1086C103.493 26.1086 102.786 27.0588 103.099 27.8564C103.953 30.0387 104.434 32.5016 104.434 35.108C104.434 37.7126 103.954 40.1738 103.1 42.3549C102.789 43.1515 103.494 44.0997 104.35 44.0997V44.0997C105.204 44.0997 106.038 44.2075 106.844 44.4129ZM100.547 46.792C100.677 46.6329 100.84 46.4989 101.029 46.4192C102.093 45.97 103.213 45.7307 104.35 45.7307V45.7307C107.367 45.7307 107.367 49.7013 104.35 49.7013V49.7013C103.213 49.7013 102.093 49.4619 101.029 49.0127C100.84 48.933 100.677 48.7991 100.547 48.6399V48.6399C100.112 48.104 100.112 47.3279 100.547 46.792V46.792ZM95.5429 46.792C95.978 47.3279 95.978 48.104 95.5429 48.6399V48.6399C95.4137 48.7991 95.2503 48.933 95.0615 49.0127C93.9971 49.462 92.8777 49.7013 91.7404 49.7013C90.6058 49.7013 89.4889 49.463 88.4267 49.0158C88.2371 48.936 88.073 48.8015 87.9433 48.6417V48.6417C87.5075 48.1048 87.5075 47.3272 87.9434 46.7902V46.7902C88.073 46.6305 88.2371 46.496 88.4267 46.4161C89.4889 45.9689 90.6058 45.7307 91.7404 45.7307C92.8777 45.7307 93.9971 45.97 95.0614 46.4192C95.2503 46.4989 95.4137 46.6329 95.5429 46.792V46.792ZM99.978 44.8328C99.8001 45.0921 99.5564 45.2915 99.2817 45.4445V45.4445C98.5188 45.8697 97.5715 45.8697 96.8085 45.4445V45.4445C96.5339 45.2915 96.2901 45.0921 96.1123 44.8328C94.38 42.307 93.2872 38.9462 93.2872 35.108C93.2872 31.2617 94.3847 27.8949 96.1233 25.3672C96.3 25.1104 96.5416 24.9127 96.8139 24.7608V24.7608C97.5734 24.337 98.5168 24.337 99.2764 24.7608V24.7608C99.5486 24.9127 99.7903 25.1104 99.967 25.3672C101.706 27.8949 102.803 31.2617 102.803 35.108C102.803 38.9462 101.71 42.307 99.978 44.8328ZM92.6435 51.2918C93.1428 51.247 93.572 51.7328 93.3647 52.1891V52.1891C93.0701 52.8377 90.4148 52.8379 90.1201 52.1893V52.1893C89.9129 51.7331 90.3419 51.2475 90.841 51.2921C91.1381 51.3187 91.438 51.3322 91.7404 51.3322C92.0441 51.3322 92.3452 51.3186 92.6435 51.2918ZM95.9417 72.4787C95.1205 71.55 88.3634 71.5512 87.5421 72.4798V72.4798C87.1115 72.9666 87.2493 73.6624 87.8295 73.9554C89.0665 74.5802 90.3909 74.9172 91.7404 74.9172C93.0911 74.9172 94.4166 74.5796 95.6545 73.9538C96.2343 73.6607 96.372 72.9654 95.9417 72.4787V72.4787ZM100.955 68.4009C99.7008 70.8633 96.3895 70.8633 95.1354 68.4009C93.9795 66.1312 93.2872 63.3788 93.2872 60.324C93.2872 56.4858 94.38 53.125 96.1123 50.5992C96.2901 50.3399 96.5339 50.1405 96.8085 49.9874V49.9874C97.5715 49.5623 98.5188 49.5623 99.2817 49.9874V49.9874C99.5563 50.1405 99.8001 50.3399 99.978 50.5992C101.71 53.125 102.803 56.4858 102.803 60.324C102.803 63.3788 102.111 66.1312 100.955 68.4009ZM104.35 74.9172C101.609 74.9172 101.239 71.4717 102.46 69.0176C103.71 66.5047 104.434 63.5224 104.434 60.324C104.434 57.7194 103.954 55.2582 103.1 53.0771C102.789 52.2805 103.494 51.3322 104.35 51.3322V51.3322C105.204 51.3322 106.038 51.2245 106.844 51.0191C109.512 50.3396 112.696 50.3215 113.843 52.8238C114.831 54.9771 115.412 57.5235 115.412 60.324C115.412 68.779 110.109 74.9172 104.35 74.9172V74.9172ZM115.412 9.88438C115.412 12.689 114.829 15.2387 113.839 17.394C112.69 19.8939 109.509 19.8755 106.843 19.1967C106.037 18.9915 105.203 18.8838 104.35 18.8838V18.8838C103.493 18.8838 102.786 17.9336 103.099 17.136C103.953 14.9537 104.434 12.4908 104.434 9.88438C104.434 5.29188 102.941 1.14504 100.542 -1.80655C100.109 -2.33923 100.107 -3.11341 100.54 -3.64601V-3.64601C100.668 -3.80338 100.829 -3.93588 101.016 -4.01502C102.084 -4.46765 103.208 -4.70885 104.35 -4.70885C110.109 -4.70885 115.412 1.42937 115.412 9.88438ZM104.35 20.5148C103.208 20.5148 102.084 20.756 101.016 21.2086C100.829 21.2878 100.668 21.4203 100.54 21.5776V21.5776C100.107 22.1102 100.107 22.8822 100.54 23.4148V23.4148C100.668 23.5721 100.829 23.7046 101.016 23.7838C102.084 24.2364 103.208 24.4776 104.35 24.4776V24.4776C107.362 24.4776 107.362 20.5148 104.35 20.5148V20.5148ZM95.074 23.7838C95.2608 23.7046 95.4224 23.5722 95.5504 23.4148V23.4148C95.9835 22.8822 95.9835 22.1102 95.5504 21.5776V21.5776C95.4224 21.4203 95.2608 21.2878 95.074 21.2086C94.006 20.756 92.8822 20.5148 91.7404 20.5148C90.6013 20.5148 89.4801 20.7549 88.4142 21.2055C88.2266 21.2848 88.0643 21.4178 87.9358 21.5758V21.5758C87.502 22.1095 87.502 22.8829 87.9358 23.4166V23.4166C88.0643 23.5746 88.2266 23.7076 88.4142 23.7869C89.4801 24.2375 90.6013 24.4776 91.7404 24.4776C92.8822 24.4776 94.0059 24.2364 95.074 23.7838ZM96.8139 20.2316C97.5734 20.6554 98.5168 20.6554 99.2764 20.2316V20.2316C99.5486 20.0797 99.7903 19.882 99.967 19.6252C101.706 17.0975 102.803 13.7307 102.803 9.88438C102.803 5.92238 101.639 2.46911 99.8083 -0.0822193C99.1444 -1.00775 97.8491 -1.04616 96.8568 -0.486914V-0.486914C96.5558 -0.317243 96.289 -0.0993534 96.0942 0.186084C94.3724 2.70891 93.2872 6.0596 93.2872 9.88438C93.2872 13.7307 94.3847 17.0975 96.1233 19.6252C96.2999 19.882 96.5416 20.0797 96.8139 20.2316V20.2316ZM90.1172 26.967C90.4124 27.6161 93.0724 27.616 93.3676 26.9668V26.9668C93.5755 26.5098 93.1453 26.023 92.6452 26.068C92.3464 26.0949 92.0446 26.1086 91.7404 26.1086C91.4374 26.1086 91.1369 26.095 90.8393 26.0683C90.3393 26.0235 89.9094 26.5101 90.1172 26.967V26.967ZM92.6435 44.1402C93.1428 44.185 93.5721 43.6992 93.3647 43.2429V43.2429C93.0701 42.5943 90.4147 42.5941 90.1201 43.2427V43.2427C89.9129 43.6989 90.3418 44.1845 90.8409 44.1398C91.1381 44.1133 91.438 44.0997 91.7404 44.0997C92.0441 44.0997 92.3452 44.1134 92.6435 44.1402ZM95.2279 -3.94817C96.0433 -3.58527 96.1351 -2.52484 95.5705 -1.83359V-1.83359C95.4297 -1.66113 95.2515 -1.51435 95.0462 -1.42813C93.9864 -0.983059 92.8723 -0.746025 91.7404 -0.746025C90.6013 -0.746025 89.4801 -0.986126 88.4142 -1.43676C88.2266 -1.51606 88.0643 -1.64905 87.9358 -1.80706V-1.80706C87.502 -2.34074 87.502 -3.11413 87.9358 -3.64781V-3.64781C88.0643 -3.80582 88.2266 -3.93882 88.4142 -4.01812C89.4801 -4.46875 90.6013 -4.70885 91.7404 -4.70885C92.9371 -4.70885 94.1141 -4.44386 95.2279 -3.94817ZM99.967 -5.59846C99.7903 -5.34161 99.5486 -5.14394 99.2764 -4.99205V-4.99205C98.5168 -4.56828 97.5765 -4.56626 96.8171 -4.99027C95.2624 -5.8583 93.5454 -6.33983 91.7404 -6.33983V-6.33983C90.8853 -6.33983 90.1799 -7.28823 90.4919 -8.08445C91.3472 -10.2675 91.8285 -12.7316 91.8285 -15.3393C91.8285 -18.5396 91.1035 -21.5236 89.852 -24.0374C88.6312 -26.4895 89.0012 -29.9325 91.7404 -29.9325V-29.9325C97.5001 -29.9325 102.803 -23.7943 102.803 -15.3393C102.803 -11.493 101.706 -8.1261 99.967 -5.59846ZM92.6452 0.844372C93.1453 0.79936 93.5755 1.28612 93.3676 1.74316V1.74316C93.0724 2.39231 90.4124 2.3925 90.1172 1.74335V1.74335C89.9095 1.28645 90.3394 0.799879 90.8393 0.844697C91.1369 0.871384 91.4374 0.884953 91.7404 0.884953C92.0446 0.884953 92.3464 0.871274 92.6452 0.844372ZM93.3676 18.0256C93.0724 17.3765 90.4124 17.3763 90.1172 18.0254V18.0254C89.9095 18.4823 90.3394 18.9689 90.8393 18.9241C91.1369 18.8974 91.4374 18.8838 91.7404 18.8838C92.0446 18.8838 92.3464 18.8975 92.6452 18.9244C93.1453 18.9694 93.5755 18.4827 93.3676 18.0256V18.0256ZM86.6767 49.9899C85.9122 49.5643 84.9632 49.5643 84.1987 49.9899V49.9899C83.9229 50.1434 83.678 50.3436 83.4996 50.604C81.7693 53.1293 80.6779 56.4882 80.6779 60.324C80.6779 63.3807 81.371 66.1347 82.5283 68.4053C83.7826 70.8664 87.0928 70.8664 88.3471 68.4053C89.5044 66.1347 90.1975 63.3807 90.1975 60.324C90.1975 56.4882 89.1061 53.1293 87.3758 50.604C87.1974 50.3436 86.9525 50.1434 86.6767 49.9899V49.9899ZM82.4487 49.0158C82.6383 48.936 82.8024 48.8015 82.932 48.6417V48.6417C83.3679 48.1048 83.3679 47.3272 82.932 46.7902V46.7902C82.8024 46.6305 82.6383 46.496 82.4487 46.4161C81.3865 45.9689 80.2696 45.7307 79.135 45.7307C77.9951 45.7307 76.8731 45.9711 75.8066 46.4223C75.6186 46.5019 75.4559 46.6353 75.3271 46.7938V46.7938C74.8928 47.3287 74.8928 48.1033 75.3271 48.6381V48.6381C75.4559 48.7966 75.6186 48.9301 75.8066 49.0096C76.8731 49.4609 77.9951 49.7013 79.135 49.7013C80.2696 49.7013 81.3865 49.463 82.4487 49.0158ZM84.1987 45.4421C84.9632 45.8677 85.9122 45.8677 86.6767 45.4421V45.4421C86.9525 45.2886 87.1974 45.0884 87.3758 44.828C89.1061 42.3027 90.1975 38.9438 90.1975 35.108C90.1975 31.2642 89.1015 27.8992 87.3648 25.3721C87.1875 25.1141 86.9448 24.9156 86.6713 24.7632V24.7632C85.9102 24.339 84.9652 24.339 84.2041 24.7633V24.7633C83.9306 24.9156 83.6879 25.1141 83.5106 25.3721C81.7739 27.8992 80.6779 31.2642 80.6779 35.108C80.6779 38.9438 81.7693 42.3027 83.4996 44.828C83.678 45.0884 83.9229 45.2886 84.1987 45.4421V45.4421ZM77.5031 52.181C77.7963 52.8257 80.4656 52.8261 80.7588 52.1814V52.1814C80.9649 51.7285 80.5388 51.2466 80.0432 51.2914C79.7432 51.3185 79.4403 51.3322 79.135 51.3322C78.8271 51.3322 78.5218 51.3182 78.2195 51.2907C77.7236 51.2455 77.2969 51.7278 77.5031 52.181V52.181ZM83.0557 73.9504C83.6305 73.6593 83.7672 72.9697 83.34 72.4874V72.4874C82.5245 71.5666 75.7394 71.5642 74.924 72.4852V72.4852C74.4973 72.9673 74.6339 73.656 75.208 73.9473C76.4496 74.5773 77.7796 74.9172 79.135 74.9172C80.488 74.9172 81.8159 74.5784 83.0557 73.9504ZM82.9396 21.5758C83.3734 22.1095 83.3734 22.8829 82.9395 23.4166V23.4166C82.8111 23.5746 82.6488 23.7076 82.4612 23.7869C81.3953 24.2375 80.2741 24.4776 79.135 24.4776C77.9906 24.4776 76.8643 24.2353 75.794 23.7807C75.6081 23.7017 75.4471 23.5697 75.3196 23.413V23.413C74.8872 22.8815 74.8872 22.111 75.3196 21.5795V21.5795C75.4471 21.4227 75.6081 21.2907 75.794 21.2117C76.8643 20.7571 77.9906 20.5148 79.135 20.5148C80.2741 20.5148 81.3953 20.7549 82.4613 21.2055C82.6488 21.2848 82.8111 21.4178 82.9396 21.5758V21.5758ZM87.3648 19.6203C87.1875 19.8783 86.9448 20.0768 86.6713 20.2292V20.2292C85.9102 20.6534 84.9652 20.6534 84.2041 20.2292V20.2292C83.9306 20.0768 83.6879 19.8783 83.5106 19.6203C81.7739 17.0932 80.6779 13.7282 80.6779 9.88438C80.6779 6.04054 81.7739 2.67553 83.5106 0.148437C83.6879 -0.109547 83.9306 -0.307997 84.2041 -0.460393V-0.460393C84.9652 -0.884605 85.9102 -0.884605 86.6713 -0.460393V-0.460393C86.9448 -0.307997 87.1875 -0.109547 87.3648 0.148438C89.1015 2.67553 90.1975 6.04054 90.1975 9.88438C90.1975 13.7282 89.1015 17.0932 87.3648 19.6203ZM80.0449 26.0676C80.5414 26.0226 80.9683 26.5054 80.7618 26.9591V26.9591C80.468 27.6043 77.794 27.6039 77.5002 26.9587V26.9587C77.2935 26.5048 77.7211 26.0216 78.2178 26.0669C78.5207 26.0945 78.8265 26.1086 79.135 26.1086C79.4409 26.1086 79.7444 26.0948 80.0449 26.0676ZM80.7588 43.2505C80.4656 42.6059 77.7963 42.6063 77.5031 43.2509V43.2509C77.2969 43.7042 77.7236 44.1865 78.2195 44.1413C78.5218 44.1137 78.8271 44.0997 79.135 44.0997C79.4403 44.0997 79.7432 44.1135 80.0432 44.1406C80.5388 44.1854 80.9649 43.7035 80.7588 43.2505V43.2505ZM82.4612 -1.43676C82.6488 -1.51605 82.8111 -1.64905 82.9395 -1.80706V-1.80706C83.3734 -2.34074 83.3734 -3.11414 82.9396 -3.64782V-3.64782C82.8111 -3.80582 82.6488 -3.93882 82.4613 -4.01811C81.3954 -4.46875 80.2741 -4.70885 79.135 -4.70885C77.9906 -4.70885 76.8643 -4.46654 75.794 -4.0119C75.6081 -3.93291 75.4471 -3.80092 75.3196 -3.64419V-3.64419C74.8872 -3.11268 74.8872 -2.3422 75.3196 -1.81069V-1.81069C75.4471 -1.65396 75.6081 -1.52197 75.794 -1.44297C76.8643 -0.988334 77.9906 -0.746025 79.135 -0.746025C80.2741 -0.746025 81.3953 -0.986124 82.4612 -1.43676ZM84.2041 -4.99448C84.9652 -4.57027 85.9102 -4.57027 86.6713 -4.99448V-4.99448C86.9448 -5.14688 87.1875 -5.34533 87.3648 -5.60331C89.1015 -8.13041 90.1975 -11.4954 90.1975 -15.3393C90.1975 -18.396 89.5044 -21.15 88.3471 -23.4206C87.0928 -25.8817 83.7826 -25.8817 82.5283 -23.4206C81.371 -21.15 80.6779 -18.396 80.6779 -15.3393C80.6779 -11.4954 81.7739 -8.13041 83.5106 -5.60331C83.6879 -5.34533 83.9306 -5.14688 84.2041 -4.99448V-4.99448ZM77.5002 1.73506C77.794 2.38028 80.468 2.38068 80.7618 1.73546V1.73546C80.9683 1.2818 80.5414 0.798961 80.0449 0.843906C79.7444 0.871116 79.4409 0.884953 79.135 0.884953C78.8265 0.884953 78.5207 0.870894 78.2178 0.843249C77.721 0.797917 77.2935 1.28112 77.5002 1.73506V1.73506ZM80.0449 18.9249C80.5414 18.9698 80.9683 18.487 80.7618 18.0333V18.0333C80.468 17.3881 77.794 17.3885 77.5002 18.0337V18.0337C77.2935 18.4876 77.721 18.9709 78.2178 18.9255C78.5207 18.8979 78.8265 18.8838 79.135 18.8838C79.4409 18.8838 79.7444 18.8977 80.0449 18.9249ZM83.34 -27.5027C83.7672 -27.9851 83.6305 -28.6746 83.0557 -28.9658C81.8159 -29.5937 80.488 -29.9325 79.135 -29.9325C77.7796 -29.9325 76.4496 -29.5926 75.208 -28.9626C74.6339 -28.6713 74.4973 -27.9826 74.924 -27.5005V-27.5005C75.7394 -26.5796 82.5245 -26.5819 83.34 -27.5027V-27.5027ZM80.7618 -7.19034C80.468 -7.83556 77.794 -7.83515 77.5002 -7.18994V-7.18994C77.2935 -6.736 77.7211 -6.25279 78.2178 -6.29813C78.5207 -6.32577 78.8265 -6.33983 79.135 -6.33983C79.4409 -6.33983 79.7444 -6.32599 80.0449 -6.29878C80.5414 -6.25384 80.9683 -6.73668 80.7618 -7.19034V-7.19034ZM74.0625 49.985C73.3011 49.5603 72.3555 49.5603 71.5942 49.985V49.985C71.3207 50.1375 71.078 50.3362 70.9008 50.5943C69.1666 53.1207 68.0724 56.4833 68.0724 60.324C68.0724 63.3769 68.7638 66.1277 69.9184 68.3966C71.172 70.8602 74.4846 70.8602 75.7383 68.3966C76.8929 66.1277 77.5843 63.3769 77.5843 60.324C77.5843 56.4833 76.4901 53.1207 74.7559 50.5943C74.5787 50.3362 74.3359 50.1375 74.0625 49.985V49.985ZM69.85 49.0097C70.0381 48.9301 70.2008 48.7967 70.3295 48.6381V48.6381C70.7639 48.1033 70.7639 47.3287 70.3295 46.7938V46.7938C70.2008 46.6353 70.0381 46.5019 69.85 46.4223C68.7835 45.9711 67.6615 45.7307 66.5217 45.7307C65.387 45.7307 64.2701 45.9689 63.208 46.4161C63.0183 46.496 62.8543 46.6305 62.7246 46.7902V46.7902C62.2888 47.3272 62.2887 48.1048 62.7246 48.6417V48.6417C62.8543 48.8015 63.0183 48.936 63.208 49.0158C64.2701 49.463 65.387 49.7013 66.5217 49.7013C67.6615 49.7013 68.7835 49.4609 69.85 49.0097ZM71.5942 45.447C72.3555 45.8717 73.3011 45.8717 74.0625 45.447V45.447C74.3359 45.2944 74.5787 45.0958 74.7559 44.8377C76.4901 42.3113 77.5843 38.9487 77.5843 35.108C77.5843 31.2592 76.4854 27.8905 74.7448 25.3624C74.5688 25.1067 74.3282 24.9098 74.0571 24.7584V24.7584C73.2992 24.3351 72.3575 24.3351 71.5995 24.7584V24.7584C71.3285 24.9098 71.0878 25.1067 70.9118 25.3624C69.1712 27.8906 68.0724 31.2593 68.0724 35.108C68.0724 38.9487 69.1666 42.3113 70.9008 44.8377C71.078 45.0958 71.3207 45.2944 71.5942 45.447V45.447ZM64.8978 52.1814C65.191 52.8261 67.8603 52.8257 68.1536 52.181V52.181C68.3598 51.7278 67.9331 51.2455 67.4372 51.2907C67.1348 51.3182 66.8295 51.3322 66.5217 51.3322C66.2163 51.3322 65.9134 51.3185 65.6135 51.2914C65.1178 51.2466 64.6918 51.7285 64.8978 52.1814V52.1814ZM70.4487 73.9473C71.0228 73.656 71.1594 72.9673 70.7326 72.4852V72.4852C69.9173 71.5642 63.1321 71.5666 62.3166 72.4874V72.4874C61.8894 72.9697 62.0261 73.6593 62.6009 73.9504C63.8407 74.5784 65.1686 74.9172 66.5217 74.9172C67.877 74.9172 69.2071 74.5773 70.4487 73.9473ZM70.337 21.5795C70.7694 22.111 70.7694 22.8815 70.337 23.413V23.413C70.2095 23.5697 70.0486 23.7017 69.8626 23.7807C68.7923 24.2353 67.666 24.4776 66.5217 24.4776C65.3826 24.4776 64.2613 24.2375 63.1954 23.7869C63.0078 23.7076 62.8456 23.5746 62.7171 23.4166V23.4166C62.2832 22.8829 62.2832 22.1095 62.7171 21.5758V21.5758C62.8456 21.4178 63.0078 21.2848 63.1954 21.2055C64.2613 20.7549 65.3826 20.5148 66.5217 20.5148C67.666 20.5148 68.7923 20.7571 69.8626 21.2117C70.0486 21.2907 70.2095 21.4227 70.337 21.5795V21.5795ZM74.7449 19.63C74.5688 19.8858 74.3282 20.0827 74.0571 20.234V20.234C73.2992 20.6574 72.3575 20.6574 71.5995 20.234V20.234C71.3285 20.0827 71.0878 19.8858 70.9118 19.6301C69.1712 17.1019 68.0724 13.7332 68.0724 9.88438C68.0724 6.03561 69.1712 2.66691 70.9118 0.138726C71.0878 -0.116988 71.3285 -0.313892 71.5995 -0.465273V-0.465273C72.3575 -0.888597 73.2992 -0.888598 74.0571 -0.465274V-0.465274C74.3282 -0.313894 74.5688 -0.11699 74.7449 0.138723C76.4854 2.6669 77.5843 6.03561 77.5843 9.88438C77.5843 13.7332 76.4854 17.1019 74.7449 19.63ZM67.4389 26.0669C67.9356 26.0216 68.3632 26.5048 68.1565 26.9587V26.9587C67.8627 27.6039 65.1887 27.6043 64.8949 26.9591V26.9591C64.6883 26.5054 65.1153 26.0226 65.6117 26.0675C65.9123 26.0948 66.2157 26.1086 66.5217 26.1086C66.8301 26.1086 67.136 26.0945 67.4389 26.0669ZM68.1536 43.2509C67.8603 42.6063 65.191 42.6059 64.8978 43.2505V43.2505C64.6918 43.7035 65.1178 44.1854 65.6135 44.1406C65.9134 44.1135 66.2163 44.0997 66.5217 44.0997C66.8295 44.0997 67.1348 44.1137 67.4372 44.1413C67.9331 44.1865 68.3597 43.7042 68.1536 43.2509V43.2509ZM69.8626 -1.44297C70.0486 -1.52196 70.2095 -1.65396 70.337 -1.81069V-1.81069C70.7694 -2.34219 70.7694 -3.11268 70.337 -3.64418V-3.64418C70.2095 -3.80092 70.0486 -3.93291 69.8626 -4.0119C68.7923 -4.46654 67.666 -4.70885 66.5217 -4.70885C65.3826 -4.70885 64.2613 -4.46875 63.1954 -4.01812C63.0078 -3.93882 62.8456 -3.80582 62.7171 -3.64781V-3.64781C62.2832 -3.11413 62.2832 -2.34074 62.7171 -1.80706V-1.80706C62.8456 -1.64905 63.0078 -1.51606 63.1954 -1.43676C64.2613 -0.986126 65.3826 -0.746025 66.5217 -0.746025C67.666 -0.746025 68.7923 -0.98833 69.8626 -1.44297ZM71.5995 -4.98961C72.3575 -4.56628 73.2992 -4.56628 74.0571 -4.98961V-4.98961C74.3282 -5.14099 74.5688 -5.33789 74.7449 -5.5936C76.4854 -8.12179 77.5843 -11.4905 77.5843 -15.3393C77.5843 -18.3922 76.8929 -21.143 75.7383 -23.4119C74.4846 -25.8755 71.172 -25.8755 69.9184 -23.4119C68.7638 -21.143 68.0724 -18.3922 68.0724 -15.3393C68.0724 -11.4905 69.1712 -8.12179 70.9118 -5.5936C71.0878 -5.33789 71.3285 -5.14099 71.5995 -4.98961V-4.98961ZM64.8949 1.73545C65.1887 2.38068 67.8627 2.38027 68.1565 1.73505V1.73505C68.3632 1.28112 67.9356 0.797914 67.4389 0.843247C67.136 0.870893 66.8301 0.884953 66.5217 0.884953C66.2157 0.884953 65.9123 0.871116 65.6117 0.843906C65.1153 0.798961 64.6883 1.2818 64.8949 1.73545V1.73545ZM67.4389 18.9255C67.9356 18.9709 68.3632 18.4877 68.1565 18.0337V18.0337C67.8627 17.3885 65.1887 17.3881 64.8949 18.0333V18.0333C64.6883 18.487 65.1153 18.9698 65.6117 18.9249C65.9123 18.8977 66.2157 18.8838 66.5217 18.8838C66.8301 18.8838 67.136 18.8979 67.4389 18.9255ZM70.7326 -27.5005C71.1594 -27.9826 71.0228 -28.6713 70.4487 -28.9626C69.2071 -29.5926 67.877 -29.9325 66.5217 -29.9325C65.1686 -29.9325 63.8407 -29.5937 62.6009 -28.9658C62.0261 -28.6746 61.8894 -27.9851 62.3166 -27.5027V-27.5027C63.1321 -26.5819 69.9173 -26.5796 70.7326 -27.5005V-27.5005ZM68.1565 -7.18993C67.8627 -7.83515 65.1887 -7.83556 64.8949 -7.19033V-7.19033C64.6883 -6.73667 65.1153 -6.25384 65.6117 -6.29878C65.9123 -6.32599 66.2157 -6.33983 66.5217 -6.33983C66.8301 -6.33983 67.136 -6.32577 67.4389 -6.29813C67.9356 -6.25279 68.3632 -6.73599 68.1565 -7.18993V-7.18993ZM61.4579 49.9899C60.6934 49.5643 59.7445 49.5643 58.98 49.9899V49.9899C58.7041 50.1434 58.4593 50.3436 58.2808 50.604C56.5505 53.1293 55.4591 56.4882 55.4591 60.324C55.4591 63.3807 56.1522 66.1347 57.3095 68.4053C58.5639 70.8664 61.874 70.8664 63.1284 68.4053C64.2857 66.1347 64.9788 63.3807 64.9788 60.324C64.9788 56.4882 63.8874 53.1293 62.1571 50.604C61.9786 50.3436 61.7338 50.1434 61.4579 49.9899V49.9899ZM57.2299 49.0158C57.4196 48.936 57.5836 48.8015 57.7133 48.6417V48.6417C58.1491 48.1048 58.1491 47.3272 57.7133 46.7902V46.7902C57.5836 46.6305 57.4196 46.496 57.2299 46.4161C56.1678 45.9689 55.0509 45.7307 53.9162 45.7307C52.7764 45.7307 51.6544 45.9711 50.5879 46.4223C50.3998 46.5019 50.2371 46.6353 50.1084 46.7938V46.7938C49.674 47.3287 49.674 48.1033 50.1084 48.6381V48.6381C50.2371 48.7966 50.3998 48.9301 50.5879 49.0096C51.6544 49.4609 52.7764 49.7013 53.9162 49.7013C55.0509 49.7013 56.1678 49.463 57.2299 49.0158ZM58.98 45.4421C59.7445 45.8677 60.6934 45.8677 61.4579 45.4421V45.4421C61.7338 45.2886 61.9786 45.0884 62.1571 44.828C63.8874 42.3027 64.9788 38.9438 64.9788 35.108C64.9788 31.2642 63.8828 27.8992 62.1461 25.3721C61.9688 25.1141 61.726 24.9156 61.4526 24.7632V24.7632C60.6915 24.339 59.7464 24.339 58.9853 24.7633V24.7633C58.7119 24.9157 58.4691 25.1141 58.2918 25.3721C56.5551 27.8992 55.4591 31.2642 55.4591 35.108C55.4591 38.9438 56.5505 42.3027 58.2808 44.828C58.4593 45.0884 58.7041 45.2886 58.98 45.4421V45.4421ZM52.2843 52.181C52.5776 52.8257 55.2469 52.8261 55.5401 52.1814V52.1814C55.7461 51.7284 55.3201 51.2466 54.8245 51.2914C54.5245 51.3185 54.2216 51.3322 53.9162 51.3322C53.6084 51.3322 53.3031 51.3182 53.0007 51.2907C52.5048 51.2455 52.0782 51.7278 52.2843 52.181V52.181ZM57.837 73.9504C58.4118 73.6593 58.5485 72.9697 58.1213 72.4874V72.4874C57.3058 71.5666 50.5206 71.5643 49.7053 72.4852V72.4852C49.2785 72.9673 49.4151 73.656 49.9892 73.9473C51.2308 74.5773 52.5609 74.9172 53.9162 74.9172C55.2693 74.9172 56.5972 74.5784 57.837 73.9504ZM57.7208 21.5758C58.1547 22.1095 58.1547 22.8829 57.7208 23.4166V23.4166C57.5923 23.5746 57.43 23.7076 57.2425 23.7869C56.1766 24.2375 55.0553 24.4776 53.9162 24.4776C52.7719 24.4776 51.6456 24.2353 50.5753 23.7807C50.3893 23.7017 50.2284 23.5697 50.1009 23.413V23.413C49.6685 22.8814 49.6685 22.111 50.1009 21.5795V21.5795C50.2284 21.4227 50.3893 21.2907 50.5753 21.2117C51.6456 20.7571 52.7719 20.5148 53.9162 20.5148C55.0553 20.5148 56.1766 20.7549 57.2425 21.2055C57.4301 21.2848 57.5924 21.4178 57.7208 21.5758V21.5758ZM62.1461 19.6203C61.9688 19.8783 61.726 20.0768 61.4526 20.2292V20.2292C60.6915 20.6534 59.7464 20.6534 58.9853 20.2292V20.2292C58.7119 20.0768 58.4691 19.8783 58.2918 19.6203C56.5551 17.0932 55.4591 13.7282 55.4591 9.88438C55.4591 6.04054 56.5551 2.67554 58.2918 0.148442C58.4691 -0.109543 58.7119 -0.307995 58.9853 -0.460391V-0.460391C59.7464 -0.884602 60.6915 -0.884605 61.4526 -0.460393V-0.460393C61.726 -0.307997 61.9688 -0.109547 62.1461 0.148438C63.8828 2.67553 64.9788 6.04054 64.9788 9.88438C64.9788 13.7282 63.8828 17.0932 62.1461 19.6203ZM54.8262 26.0675C55.3226 26.0226 55.7496 26.5054 55.543 26.9591V26.9591C55.2492 27.6043 52.5752 27.6039 52.2814 26.9587V26.9587C52.0747 26.5048 52.5023 26.0216 52.999 26.0669C53.3019 26.0945 53.6078 26.1086 53.9162 26.1086C54.2222 26.1086 54.5256 26.0948 54.8262 26.0675ZM55.5401 43.2506C55.2469 42.6059 52.5776 42.6063 52.2843 43.251V43.251C52.0782 43.7042 52.5048 44.1865 53.0007 44.1413C53.3031 44.1137 53.6084 44.0997 53.9162 44.0997C54.2216 44.0997 54.5245 44.1135 54.8245 44.1406C55.3201 44.1854 55.7461 43.7035 55.5401 43.2506V43.2506ZM57.2425 -1.43676C57.4301 -1.51605 57.5923 -1.64905 57.7208 -1.80706V-1.80706C58.1547 -2.34074 58.1547 -3.11414 57.7208 -3.64782V-3.64782C57.5924 -3.80582 57.4301 -3.93882 57.2425 -4.01811C56.1766 -4.46875 55.0553 -4.70885 53.9162 -4.70885C52.7719 -4.70885 51.6455 -4.46654 50.5753 -4.0119C50.3893 -3.93291 50.2284 -3.80092 50.1009 -3.64418V-3.64418C49.6685 -3.11268 49.6685 -2.3422 50.1009 -1.81069V-1.81069C50.2284 -1.65396 50.3893 -1.52197 50.5753 -1.44298C51.6456 -0.988336 52.7719 -0.746025 53.9162 -0.746025C55.0553 -0.746025 56.1766 -0.986124 57.2425 -1.43676ZM58.9853 -4.99449C59.7464 -4.57028 60.6915 -4.57027 61.4526 -4.99449V-4.99449C61.726 -5.14688 61.9688 -5.34533 62.1461 -5.60331C63.8828 -8.13041 64.9788 -11.4954 64.9788 -15.3393C64.9788 -18.396 64.2857 -21.15 63.1284 -23.4206C61.874 -25.8817 58.5639 -25.8817 57.3095 -23.4206C56.1522 -21.15 55.4591 -18.396 55.4591 -15.3393C55.4591 -11.4954 56.5551 -8.13041 58.2918 -5.60332C58.4691 -5.34533 58.7119 -5.14688 58.9853 -4.99449V-4.99449ZM52.2814 1.73503C52.5752 2.38024 55.2492 2.38064 55.543 1.73543V1.73543C55.7496 1.28178 55.3226 0.798958 54.8262 0.843903C54.5256 0.871115 54.2222 0.884953 53.9162 0.884953C53.6078 0.884953 53.3019 0.870893 52.999 0.843247C52.5023 0.797915 52.0747 1.28111 52.2814 1.73503V1.73503ZM54.8262 18.9249C55.3226 18.9698 55.7496 18.487 55.543 18.0333V18.0333C55.2492 17.3881 52.5752 17.3885 52.2814 18.0337V18.0337C52.0747 18.4877 52.5023 18.9709 52.999 18.9255C53.3019 18.8979 53.6078 18.8838 53.9162 18.8838C54.2222 18.8838 54.5256 18.8977 54.8262 18.9249ZM58.1213 -27.5027C58.5485 -27.9851 58.4118 -28.6746 57.837 -28.9657C56.5972 -29.5937 55.2693 -29.9325 53.9162 -29.9325C52.5609 -29.9325 51.2308 -29.5926 49.9892 -28.9626C49.4151 -28.6713 49.2785 -27.9826 49.7053 -27.5005V-27.5005C50.5206 -26.5796 57.3058 -26.5819 58.1213 -27.5027V-27.5027ZM55.543 -7.1903C55.2492 -7.83551 52.5752 -7.83511 52.2814 -7.18991V-7.18991C52.0747 -6.73598 52.5023 -6.25279 52.999 -6.29812C53.3019 -6.32577 53.6078 -6.33983 53.9162 -6.33983C54.2222 -6.33983 54.5256 -6.32599 54.8262 -6.29878C55.3226 -6.25384 55.7496 -6.73666 55.543 -7.1903V-7.1903ZM48.8437 49.985C48.0824 49.5603 47.1368 49.5603 46.3754 49.985V49.985C46.102 50.1375 45.8592 50.3362 45.682 50.5943C43.9478 53.1207 42.8536 56.4833 42.8536 60.324C42.8536 63.3769 43.545 66.1277 44.6996 68.3966C45.9533 70.8602 49.2658 70.8602 50.5195 68.3966C51.6741 66.1277 52.3655 63.3769 52.3655 60.324C52.3655 56.4833 51.2713 53.1207 49.5371 50.5943C49.3599 50.3362 49.1172 50.1375 48.8437 49.985V49.985ZM44.6313 49.0096C44.8193 48.9301 44.982 48.7966 45.1108 48.6381V48.6381C45.5451 48.1033 45.5451 47.3287 45.1107 46.7938V46.7938C44.982 46.6353 44.8193 46.5019 44.6313 46.4223C43.5647 45.9711 42.4428 45.7307 41.3029 45.7307C40.1683 45.7307 39.0514 45.9689 37.9892 46.4161C37.7996 46.496 37.6355 46.6305 37.5059 46.7902V46.7902C37.07 47.3272 37.07 48.1048 37.5058 48.6417V48.6417C37.6355 48.8015 37.7995 48.936 37.9892 49.0158C39.0514 49.463 40.1683 49.7013 41.3029 49.7013C42.4428 49.7013 43.5648 49.4608 44.6313 49.0096ZM46.3754 45.447C47.1368 45.8717 48.0824 45.8717 48.8437 45.447V45.447C49.1172 45.2944 49.3599 45.0958 49.5371 44.8377C51.2713 42.3113 52.3655 38.9487 52.3655 35.108C52.3655 31.2593 51.2667 27.8906 49.5261 25.3624C49.3501 25.1067 49.1094 24.9098 48.8384 24.7584V24.7584C48.0804 24.3351 47.1387 24.3351 46.3808 24.7584V24.7584C46.1097 24.9098 45.8691 25.1067 45.693 25.3624C43.9525 27.8906 42.8536 31.2593 42.8536 35.108C42.8536 38.9487 43.9478 42.3113 45.682 44.8377C45.8592 45.0958 46.102 45.2944 46.3754 45.447V45.447ZM39.679 52.1814C39.9723 52.8261 42.6416 52.8257 42.9348 52.181V52.181C43.141 51.7278 42.7143 51.2455 42.2184 51.2907C41.9161 51.3182 41.6108 51.3322 41.3029 51.3322C40.9975 51.3322 40.6947 51.3185 40.3947 51.2914C39.8991 51.2466 39.473 51.7284 39.679 52.1814V52.1814ZM45.2299 73.9473C45.804 73.656 45.9406 72.9673 45.5139 72.4852V72.4852C44.6986 71.5643 37.9134 71.5666 37.0979 72.4874V72.4874C36.6707 72.9697 36.8074 73.6593 37.3821 73.9504C38.622 74.5784 39.9499 74.9172 41.3029 74.9172C42.6583 74.9172 43.9883 74.5773 45.2299 73.9473ZM45.1183 21.5795C45.5507 22.111 45.5507 22.8815 45.1183 23.413V23.413C44.9908 23.5697 44.8298 23.7017 44.6439 23.7807C43.5736 24.2353 42.4473 24.4776 41.3029 24.4776C40.1638 24.4776 39.0426 24.2375 37.9767 23.7869C37.7891 23.7076 37.6268 23.5746 37.4984 23.4166V23.4166C37.0645 22.8829 37.0645 22.1095 37.4984 21.5758V21.5758C37.6268 21.4178 37.7891 21.2848 37.9767 21.2055C39.0426 20.7549 40.1638 20.5148 41.3029 20.5148C42.4473 20.5148 43.5736 20.7571 44.6439 21.2118C44.8298 21.2907 44.9908 21.4227 45.1183 21.5795V21.5795ZM49.5261 19.63C49.3501 19.8858 49.1094 20.0827 48.8384 20.234V20.234C48.0804 20.6574 47.1387 20.6574 46.3807 20.234V20.234C46.1097 20.0827 45.8691 19.8858 45.693 19.6301C43.9525 17.1019 42.8536 13.7332 42.8536 9.88438C42.8536 6.03561 43.9525 2.66691 45.693 0.138725C45.8691 -0.116987 46.1097 -0.31389 46.3808 -0.465269V-0.465269C47.1387 -0.888592 48.0804 -0.888592 48.8384 -0.465267V-0.465267C49.1094 -0.313888 49.3501 -0.116985 49.5261 0.138726C51.2667 2.66691 52.3655 6.03561 52.3655 9.88438C52.3655 13.7332 51.2667 17.1019 49.5261 19.63ZM42.2202 26.0669C42.7169 26.0216 43.1444 26.5048 42.9377 26.9587V26.9587C42.6439 27.6039 39.9699 27.6043 39.6761 26.9591V26.9591C39.4696 26.5054 39.8965 26.0226 40.393 26.0675C40.6935 26.0948 40.997 26.1086 41.3029 26.1086C41.6114 26.1086 41.9172 26.0945 42.2202 26.0669ZM42.9348 43.251C42.6416 42.6063 39.9723 42.6059 39.679 43.2506V43.2506C39.473 43.7035 39.8991 44.1854 40.3947 44.1406C40.6947 44.1135 40.9975 44.0997 41.3029 44.0997C41.6108 44.0997 41.9161 44.1137 42.2184 44.1413C42.7143 44.1865 43.141 43.7042 42.9348 43.251V43.251ZM44.6439 -1.44297C44.8298 -1.52197 44.9908 -1.65396 45.1183 -1.81069V-1.81069C45.5506 -2.34219 45.5507 -3.11268 45.1183 -3.64419V-3.64419C44.9908 -3.80091 44.8298 -3.9329 44.6439 -4.0119C43.5736 -4.46654 42.4473 -4.70885 41.3029 -4.70885C40.1638 -4.70885 39.0425 -4.46875 37.9766 -4.01811C37.7891 -3.93882 37.6268 -3.80582 37.4983 -3.64782V-3.64782C37.0645 -3.11414 37.0645 -2.34074 37.4984 -1.80706V-1.80706C37.6268 -1.64906 37.7891 -1.51606 37.9767 -1.43676C39.0426 -0.986129 40.1638 -0.746025 41.3029 -0.746025C42.4473 -0.746025 43.5736 -0.988333 44.6439 -1.44297ZM46.3807 -4.98961C47.1387 -4.56629 48.0804 -4.56629 48.8384 -4.98961V-4.98961C49.1094 -5.14099 49.3501 -5.33789 49.5261 -5.5936C51.2667 -8.12179 52.3655 -11.4905 52.3655 -15.3393C52.3655 -18.3922 51.6741 -21.143 50.5195 -23.412C49.2658 -25.8755 45.9533 -25.8755 44.6996 -23.412C43.545 -21.143 42.8536 -18.3922 42.8536 -15.3393C42.8536 -11.4905 43.9525 -8.12178 45.693 -5.5936C45.8691 -5.33789 46.1097 -5.14099 46.3807 -4.98961V-4.98961ZM39.6761 1.73543C39.9699 2.38064 42.6439 2.38023 42.9377 1.73503V1.73503C43.1444 1.28111 42.7169 0.797915 42.2202 0.843246C41.9172 0.870893 41.6114 0.884953 41.3029 0.884953C40.997 0.884953 40.6935 0.871115 40.393 0.843903C39.8965 0.798958 39.4696 1.28178 39.6761 1.73543V1.73543ZM42.2202 18.9255C42.7169 18.9709 43.1444 18.4877 42.9377 18.0337V18.0337C42.6439 17.3885 39.9699 17.3881 39.6761 18.0333V18.0333C39.4696 18.487 39.8965 18.9698 40.393 18.9249C40.6935 18.8977 40.997 18.8838 41.3029 18.8838C41.6114 18.8838 41.9172 18.8979 42.2202 18.9255ZM45.5139 -27.5005C45.9406 -27.9826 45.804 -28.6713 45.2299 -28.9626C43.9883 -29.5926 42.6583 -29.9325 41.3029 -29.9325C39.9499 -29.9325 38.622 -29.5937 37.3821 -28.9658C36.8074 -28.6746 36.6707 -27.9851 37.0979 -27.5027V-27.5027C37.9134 -26.5819 44.6985 -26.5796 45.5139 -27.5005V-27.5005ZM42.9377 -7.18991C42.6439 -7.83511 39.9699 -7.83551 39.6761 -7.1903V-7.1903C39.4696 -6.73666 39.8965 -6.25384 40.393 -6.29878C40.6935 -6.32599 40.997 -6.33983 41.3029 -6.33983C41.6114 -6.33983 41.9172 -6.32577 42.2202 -6.29812C42.7169 -6.25279 43.1444 -6.73598 42.9377 -7.18991V-7.18991ZM36.2392 49.9899C35.4747 49.5643 34.5257 49.5643 33.7612 49.9899V49.9899C33.4854 50.1434 33.2405 50.3436 33.0621 50.604C31.3318 53.1293 30.2403 56.4882 30.2403 60.324C30.2403 63.3807 30.9335 66.1347 32.0908 68.4053C33.3451 70.8664 36.6553 70.8664 37.9096 68.4053C39.0669 66.1347 39.76 63.3807 39.76 60.324C39.76 56.4882 38.6686 53.1293 36.9383 50.604C36.7599 50.3436 36.515 50.1434 36.2392 49.9899V49.9899ZM32.0112 49.0158C32.2008 48.936 32.3649 48.8015 32.4945 48.6417V48.6417C32.9304 48.1047 32.9304 47.3272 32.4945 46.7902V46.7902C32.3649 46.6305 32.2008 46.496 32.0112 46.4161C30.949 45.9689 29.8321 45.7307 28.6975 45.7307C27.5602 45.7307 26.4408 45.97 25.3765 46.4192C25.1876 46.4989 25.0242 46.6329 24.895 46.792V46.792C24.4599 47.328 24.4599 48.104 24.895 48.6399V48.6399C25.0242 48.7991 25.1876 48.933 25.3764 49.0127C26.4408 49.4619 27.5602 49.7013 28.6975 49.7013C29.8321 49.7013 30.949 49.463 32.0112 49.0158ZM33.7612 45.4421C34.5257 45.8677 35.4747 45.8677 36.2392 45.4421V45.4421C36.515 45.2886 36.7599 45.0884 36.9383 44.828C38.6686 42.3027 39.76 38.9438 39.76 35.108C39.76 31.2642 38.664 27.8992 36.9273 25.3721C36.75 25.1141 36.5073 24.9157 36.2339 24.7633V24.7633C35.4727 24.339 34.5277 24.339 33.7665 24.7633V24.7633C33.4931 24.9157 33.2503 25.1141 33.0731 25.3721C31.3364 27.8992 30.2403 31.2642 30.2403 35.108C30.2403 38.9438 31.3318 42.3027 33.0621 44.828C33.2405 45.0884 33.4854 45.2886 33.7612 45.4421V45.4421ZM27.0732 52.1891C27.3678 52.8377 30.0231 52.8379 30.3178 52.1893V52.1893C30.525 51.7331 30.096 51.2475 29.5969 51.2921C29.2998 51.3187 28.9999 51.3322 28.6975 51.3322C28.3938 51.3322 28.0927 51.3186 27.7944 51.2918C27.2951 51.247 26.8658 51.7328 27.0732 52.1891V52.1891ZM32.6084 73.9554C33.1886 73.6624 33.3264 72.9666 32.8958 72.4798V72.4798C32.0745 71.5511 25.3174 71.55 24.4962 72.4787V72.4787C24.0659 72.9654 24.2036 73.6607 24.7834 73.9538C26.0213 74.5796 27.3468 74.9172 28.6975 74.9172C30.047 74.9172 31.3714 74.5802 32.6084 73.9554ZM32.5021 21.5758C32.9359 22.1095 32.9359 22.8829 32.502 23.4166V23.4166C32.3736 23.5746 32.2113 23.7076 32.0237 23.7869C30.9578 24.2375 29.8366 24.4776 28.6975 24.4776C27.5557 24.4776 26.4319 24.2364 25.3639 23.7838C25.1771 23.7046 25.0155 23.5721 24.8875 23.4148V23.4148C24.4544 22.8822 24.4544 22.1102 24.8875 21.5776V21.5776C25.0155 21.4203 25.1771 21.2878 25.3639 21.2086C26.4319 20.756 27.5557 20.5148 28.6975 20.5148C29.8366 20.5148 30.9579 20.7549 32.0238 21.2055C32.2113 21.2848 32.3736 21.4178 32.5021 21.5758V21.5758ZM36.9273 19.6203C36.75 19.8783 36.5073 20.0768 36.2339 20.2292V20.2292C35.4727 20.6534 34.5277 20.6534 33.7665 20.2292V20.2292C33.4931 20.0768 33.2504 19.8783 33.0731 19.6203C31.3364 17.0932 30.2403 13.7282 30.2403 9.88438C30.2403 6.04055 31.3364 2.67554 33.0731 0.14845C33.2503 -0.109538 33.4931 -0.307991 33.7665 -0.460389V-0.460389C34.5277 -0.884603 35.4727 -0.884607 36.2338 -0.460392V-0.460392C36.5073 -0.307994 36.75 -0.109542 36.9273 0.148444C38.664 2.67554 39.76 6.04054 39.76 9.88438C39.76 13.7282 38.664 17.0932 36.9273 19.6203ZM29.5986 26.0683C30.0986 26.0235 30.5284 26.5101 30.3207 26.967V26.967C30.0255 27.6161 27.3655 27.6159 27.0703 26.9668V26.9668C26.8624 26.5098 27.2926 26.023 27.7927 26.068C28.0915 26.0949 28.3932 26.1086 28.6975 26.1086C29.0005 26.1086 29.301 26.095 29.5986 26.0683ZM30.3178 43.2427C30.0231 42.5941 27.3678 42.5943 27.0732 43.2429V43.2429C26.8659 43.6992 27.2951 44.185 27.7944 44.1402C28.0927 44.1134 28.3938 44.0997 28.6975 44.0997C28.9999 44.0997 29.2998 44.1133 29.5969 44.1398C30.096 44.1845 30.525 43.6989 30.3178 43.2427V43.2427ZM32.0237 -1.43676C32.2113 -1.51606 32.3736 -1.64906 32.502 -1.80706V-1.80706C32.9359 -2.34074 32.9359 -3.11414 32.5021 -3.64781V-3.64781C32.3736 -3.80582 32.2113 -3.93881 32.0238 -4.01811C30.9578 -4.46875 29.8366 -4.70885 28.6975 -4.70885C27.5557 -4.70885 26.4319 -4.46765 25.3639 -4.01502C25.1771 -3.93587 25.0155 -3.80338 24.8875 -3.64601V-3.64601C24.4544 -3.11341 24.4544 -2.34146 24.8875 -1.80887V-1.80887C25.0155 -1.6515 25.1771 -1.51901 25.3639 -1.43986C26.4319 -0.987226 27.5557 -0.746025 28.6975 -0.746025C29.8366 -0.746025 30.9578 -0.986126 32.0237 -1.43676ZM33.7665 -4.99448C34.5277 -4.57027 35.4727 -4.57027 36.2339 -4.99449V-4.99449C36.5073 -5.14689 36.75 -5.34534 36.9273 -5.60333C38.664 -8.13042 39.76 -11.4954 39.76 -15.3393C39.76 -18.3961 39.0669 -21.15 37.9096 -23.4206C36.6553 -25.8817 33.3451 -25.8817 32.0908 -23.4206C30.9335 -21.15 30.2403 -18.3961 30.2403 -15.3393C30.2403 -11.4954 31.3364 -8.13042 33.0731 -5.60332C33.2503 -5.34533 33.4931 -5.14688 33.7665 -4.99448V-4.99448ZM27.0703 1.74314C27.3655 2.39229 30.0255 2.39248 30.3207 1.74334V1.74334C30.5284 1.28644 30.0986 0.799878 29.5986 0.844696C29.301 0.871384 29.0005 0.884953 28.6975 0.884953C28.3932 0.884953 28.0915 0.871274 27.7927 0.844371C27.2926 0.799358 26.8624 1.28611 27.0703 1.74314V1.74314ZM29.5986 18.9241C30.0986 18.9689 30.5284 18.4823 30.3207 18.0254V18.0254C30.0255 17.3763 27.3655 17.3765 27.0703 18.0256V18.0256C26.8624 18.4827 27.2926 18.9694 27.7927 18.9244C28.0915 18.8975 28.3932 18.8838 28.6975 18.8838C29.0005 18.8838 29.301 18.8974 29.5986 18.9241ZM32.8958 -27.4951C33.3264 -27.9819 33.1886 -28.6777 32.6084 -28.9707C31.3714 -29.5955 30.047 -29.9325 28.6975 -29.9325C27.3468 -29.9325 26.0213 -29.595 24.7834 -28.9691C24.2036 -28.676 24.0658 -27.9807 24.4962 -27.494V-27.494C25.3174 -26.5653 32.0745 -26.5664 32.8958 -27.4951V-27.4951ZM30.3207 -7.19821C30.0255 -7.84736 27.3655 -7.84716 27.0703 -7.19802V-7.19802C26.8624 -6.74098 27.2926 -6.25424 27.7927 -6.29925C28.0915 -6.32615 28.3932 -6.33983 28.6975 -6.33983C29.0005 -6.33983 29.301 -6.32626 29.5986 -6.29957C30.0986 -6.25476 30.5284 -6.74132 30.3207 -7.19821V-7.19821ZM23.6294 49.9874C22.8664 49.5623 21.9191 49.5623 21.1562 49.9874V49.9874C20.8816 50.1405 20.6378 50.3399 20.4599 50.5992C18.7277 53.125 17.6349 56.4858 17.6349 60.324C17.6349 63.3788 18.3271 66.1312 19.4831 68.401C20.7371 70.8633 24.0484 70.8633 25.3025 68.401C26.4584 66.1312 27.1507 63.3788 27.1507 60.324C27.1507 56.4858 26.0579 53.125 24.3256 50.5992C24.1478 50.3399 23.904 50.1405 23.6294 49.9874V49.9874ZM19.4091 49.0127C19.598 48.933 19.7613 48.7991 19.8905 48.64V48.64C20.3256 48.104 20.3256 47.3279 19.8905 46.792V46.792C19.7613 46.6329 19.598 46.4989 19.4091 46.4192C18.3448 45.97 17.2253 45.7307 16.0881 45.7307C14.9482 45.7307 13.8263 45.9711 12.7598 46.4223C12.5717 46.5019 12.409 46.6353 12.2803 46.7938V46.7938C11.8459 47.3287 11.8459 48.1033 12.2803 48.6381V48.6381C12.409 48.7966 12.5717 48.9301 12.7597 49.0096C13.8263 49.4609 14.9482 49.7013 16.0881 49.7013C17.2253 49.7013 18.3448 49.462 19.4091 49.0127ZM21.1562 45.4445C21.9191 45.8697 22.8664 45.8697 23.6294 45.4445V45.4445C23.904 45.2915 24.1478 45.0921 24.3256 44.8328C26.0579 42.307 27.1507 38.9462 27.1507 35.108C27.1507 31.2617 26.0532 27.8949 24.3146 25.3672C24.138 25.1104 23.8963 24.9127 23.624 24.7608V24.7608C22.8645 24.337 21.9211 24.3371 21.1615 24.7608V24.7608C20.8893 24.9127 20.6476 25.1104 20.4709 25.3672C18.7323 27.8949 17.6349 31.2617 17.6349 35.108C17.6349 38.9462 18.7277 42.307 20.4599 44.8328C20.6378 45.0921 20.8816 45.2915 21.1562 45.4445V45.4445ZM14.4525 52.1729C14.7443 52.8135 17.4279 52.8137 17.7197 52.1731V52.1731C17.9245 51.7233 17.5012 51.2451 17.009 51.2902C16.7049 51.3181 16.3978 51.3322 16.0881 51.3322C15.7772 51.3322 15.4689 51.318 15.1636 51.2899C14.6712 51.2446 14.2476 51.723 14.4525 52.1729V52.1729ZM20.022 73.9438C20.591 73.6545 20.7266 72.9718 20.3031 72.4942V72.4942C19.4934 71.5811 12.6798 71.58 11.8702 72.4931V72.4931C11.4469 72.9705 11.5825 73.6529 12.1511 73.9422C13.3956 74.5755 14.7291 74.9172 16.0881 74.9172C17.4459 74.9172 18.7784 74.576 20.022 73.9438ZM19.8981 21.5776C20.3312 22.1102 20.3312 22.8822 19.898 23.4148V23.4148C19.7701 23.5721 19.6084 23.7046 19.4217 23.7838C18.3536 24.2364 17.2298 24.4776 16.0881 24.4776C14.9437 24.4776 13.8174 24.2353 12.7472 23.7807C12.5612 23.7017 12.4002 23.5697 12.2727 23.413V23.413C11.8404 22.8814 11.8404 22.111 12.2727 21.5795V21.5795C12.4002 21.4227 12.5612 21.2907 12.7472 21.2117C13.8174 20.7571 14.9437 20.5148 16.0881 20.5148C17.2298 20.5148 18.3536 20.756 19.4217 21.2086C19.6085 21.2878 19.7701 21.4203 19.8981 21.5776V21.5776ZM24.3146 19.6252C24.138 19.882 23.8963 20.0797 23.624 20.2316V20.2316C22.8645 20.6554 21.9211 20.6554 21.1615 20.2316V20.2316C20.8893 20.0797 20.6476 19.882 20.4709 19.6252C18.7323 17.0975 17.6349 13.7307 17.6349 9.88438C17.6349 6.03808 18.7323 2.67123 20.4709 0.143589C20.6476 -0.113259 20.8893 -0.310936 21.1615 -0.462823V-0.462823C21.9211 -0.886594 22.8645 -0.886596 23.624 -0.462824V-0.462824C23.8963 -0.310937 24.138 -0.113262 24.3146 0.143585C26.0532 2.67122 27.1507 6.03807 27.1507 9.88438C27.1507 13.7307 26.0532 17.0975 24.3146 19.6252ZM17.0107 26.0664C17.5037 26.0211 17.928 26.5003 17.7226 26.9508V26.9508C17.4302 27.5919 14.7419 27.5917 14.4496 26.9506V26.9506C14.2441 26.5 14.6687 26.0206 15.1619 26.0661C15.4677 26.0943 15.7766 26.1086 16.0881 26.1086C16.3984 26.1086 16.706 26.0944 17.0107 26.0664ZM17.7197 43.2589C17.4279 42.6183 14.7443 42.6185 14.4525 43.2591V43.2591C14.2476 43.709 14.6712 44.1874 15.1636 44.1421C15.4689 44.114 15.7772 44.0997 16.0881 44.0997C16.3978 44.0997 16.7049 44.1139 17.009 44.1418C17.5012 44.1869 17.9245 43.7087 17.7197 43.2589V43.2589ZM19.4217 -1.43986C19.6084 -1.51901 19.7701 -1.6515 19.898 -1.80887V-1.80887C20.3312 -2.34146 20.3312 -3.11341 19.8981 -3.646V-3.646C19.7701 -3.80337 19.6085 -3.93586 19.4217 -4.01501C18.3536 -4.46765 17.2298 -4.70885 16.0881 -4.70885C14.9437 -4.70885 13.8174 -4.46654 12.7471 -4.0119C12.5612 -3.93291 12.4002 -3.80092 12.2727 -3.64418V-3.64418C11.8404 -3.11268 11.8404 -2.3422 12.2727 -1.81069V-1.81069C12.4002 -1.65396 12.5612 -1.52197 12.7472 -1.44298C13.8174 -0.988336 14.9437 -0.746025 16.0881 -0.746025C17.2298 -0.746025 18.3536 -0.987228 19.4217 -1.43986ZM21.1615 -4.99205C21.9211 -4.56828 22.8645 -4.56828 23.624 -4.99205V-4.99205C23.8963 -5.14394 24.138 -5.34162 24.3146 -5.59846C26.0532 -8.1261 27.1507 -11.493 27.1507 -15.3393C27.1507 -18.3941 26.4584 -21.1465 25.3025 -23.4163C24.0484 -25.8786 20.7371 -25.8786 19.4831 -23.4163C18.3271 -21.1465 17.6349 -18.3941 17.6349 -15.3393C17.6349 -11.493 18.7323 -8.12611 20.4709 -5.59847C20.6476 -5.34162 20.8893 -5.14394 21.1615 -4.99205V-4.99205ZM14.4496 1.72691C14.7419 2.36809 17.4302 2.36829 17.7226 1.72711V1.72711C17.928 1.27665 17.5037 0.79749 17.0107 0.842752C16.706 0.870725 16.3984 0.884953 16.0881 0.884953C15.7766 0.884953 15.4677 0.870612 15.1619 0.84242C14.6687 0.796967 14.2441 1.27631 14.4496 1.72691V1.72691ZM17.0107 18.926C17.5037 18.9713 17.928 18.4921 17.7226 18.0417V18.0417C17.4302 17.4005 14.7419 17.4007 14.4496 18.0419V18.0419C14.2441 18.4925 14.6687 18.9718 15.1619 18.9263C15.4677 18.8982 15.7766 18.8838 16.0881 18.8838C16.3984 18.8838 16.706 18.898 17.0107 18.926ZM20.3031 -27.5095C20.7266 -27.9871 20.5909 -28.6698 20.022 -28.9591C18.7784 -29.5913 17.4459 -29.9325 16.0881 -29.9325C14.7291 -29.9325 13.3956 -29.5908 12.1511 -28.9575C11.5825 -28.6682 11.4469 -27.9858 11.8702 -27.5084V-27.5084C12.6798 -26.5953 19.4934 -26.5964 20.3031 -27.5095V-27.5095ZM17.7226 -7.18199C17.4302 -7.82317 14.7419 -7.82296 14.4496 -7.18179V-7.18179C14.2441 -6.73119 14.6687 -6.25184 15.1619 -6.2973C15.4677 -6.32549 15.7766 -6.33983 16.0881 -6.33983C16.3984 -6.33983 16.706 -6.3256 17.0107 -6.29763C17.5037 -6.25237 17.928 -6.73153 17.7226 -7.18199V-7.18199ZM11.0156 49.985C10.2543 49.5603 9.30864 49.5603 8.54729 49.985V49.985C8.27383 50.1375 8.03109 50.3362 7.85388 50.5943C6.11971 53.1207 5.02551 56.4833 5.02551 60.324C5.02551 63.3769 5.71689 66.1277 6.87151 68.3966C8.12518 70.8602 11.4377 70.8602 12.6914 68.3966C13.846 66.1277 14.5374 63.3769 14.5374 60.324C14.5374 56.4833 13.4432 53.1207 11.709 50.5943C11.5318 50.3362 11.2891 50.1375 11.0156 49.985V49.985ZM6.80316 49.0096C6.99122 48.9301 7.1539 48.7966 7.28263 48.6381V48.6381C7.717 48.1033 7.71699 47.3287 7.28262 46.7938V46.7938C7.15388 46.6353 6.9912 46.5019 6.80314 46.4223C5.73662 45.9711 4.61466 45.7307 3.47481 45.7307C2.33757 45.7307 1.21813 45.97 0.153801 46.4192C-0.0350646 46.4989 -0.198425 46.6329 -0.327638 46.792V46.792C-0.76275 47.328 -0.76276 48.104 -0.327646 48.6399V48.6399C-0.198437 48.7991 -0.0350845 48.933 0.153773 49.0127C1.21811 49.4619 2.33755 49.7013 3.47481 49.7013C4.61467 49.7013 5.73664 49.4608 6.80316 49.0096ZM8.54728 45.447C9.30864 45.8717 10.2543 45.8717 11.0156 45.447V45.447C11.2891 45.2944 11.5318 45.0958 11.709 44.8377C13.4432 42.3113 14.5374 38.9487 14.5374 35.108C14.5374 31.2593 13.4386 27.8906 11.698 25.3624C11.5219 25.1067 11.2813 24.9098 11.0103 24.7584V24.7584C10.2523 24.3351 9.3106 24.3351 8.55264 24.7584V24.7584C8.28159 24.9098 8.04095 25.1067 7.8649 25.3624C6.12434 27.8906 5.02551 31.2593 5.02551 35.108C5.02551 38.9487 6.11971 42.3113 7.8539 44.8377C8.0311 45.0958 8.27383 45.2944 8.54728 45.447V45.447ZM1.84322 52.1731C2.13501 52.8137 4.8186 52.8135 5.11039 52.1729V52.1729C5.31533 51.723 4.89166 51.2446 4.39933 51.2899C4.09402 51.318 3.78572 51.3322 3.47481 51.3322C3.16513 51.3322 2.85804 51.3181 2.55392 51.2902C2.06172 51.2451 1.63835 51.7233 1.84322 52.1731V52.1731ZM7.41178 73.9422C7.98043 73.6529 8.11602 72.9705 7.69274 72.4931V72.4931C6.88315 71.58 0.0695045 71.5811 -0.74018 72.4942V72.4942C-1.16368 72.9718 -1.02804 73.6545 -0.459057 73.9438C0.784516 74.576 2.11697 74.9172 3.47481 74.9172C4.83377 74.9172 6.16732 74.5755 7.41178 73.9422ZM7.29016 21.5795C7.72253 22.111 7.72253 22.8815 7.29016 23.413V23.413C7.16265 23.5697 7.00171 23.7017 6.81574 23.7807C5.74547 24.2353 4.61915 24.4776 3.47481 24.4776C2.33308 24.4776 1.20929 24.2364 0.141206 23.7838C-0.0455527 23.7046 -0.207172 23.5721 -0.335149 23.4148V23.4148C-0.768278 22.8822 -0.768278 22.1102 -0.335149 21.5776V21.5776C-0.207172 21.4203 -0.0455528 21.2878 0.141206 21.2086C1.20929 20.756 2.33308 20.5148 3.47481 20.5148C4.61916 20.5148 5.74548 20.7571 6.81576 21.2118C7.00172 21.2907 7.16266 21.4227 7.29016 21.5795V21.5795ZM11.698 19.63C11.522 19.8858 11.2813 20.0827 11.0103 20.234V20.234C10.2523 20.6574 9.31059 20.6574 8.55262 20.234V20.234C8.28158 20.0827 8.04094 19.8858 7.8649 19.6301C6.12434 17.1019 5.02551 13.7332 5.02551 9.88438C5.02551 6.03561 6.12434 2.66691 7.86489 0.138725C8.04094 -0.116987 8.28158 -0.31389 8.55263 -0.465269V-0.465269C9.3106 -0.888592 10.2523 -0.888592 11.0103 -0.465267V-0.465267C11.2813 -0.313888 11.5219 -0.116985 11.698 0.138726C13.4386 2.66691 14.5374 6.03561 14.5374 9.88438C14.5374 13.7332 13.4386 17.1019 11.698 19.63ZM4.40105 26.0661C4.89419 26.0206 5.31878 26.4999 5.11332 26.9506V26.9506C4.82096 27.5917 2.13265 27.5919 1.8403 26.9508V26.9508C1.63491 26.5003 2.05919 26.0211 2.55219 26.0664C2.85688 26.0944 3.16454 26.1086 3.47481 26.1086C3.7863 26.1086 4.09518 26.0943 4.40105 26.0661ZM5.11039 43.2591C4.8186 42.6185 2.13501 42.6183 1.84323 43.2589V43.2589C1.63836 43.7087 2.06173 44.1869 2.55392 44.1418C2.85804 44.1139 3.16513 44.0997 3.47481 44.0997C3.78572 44.0997 4.09401 44.114 4.39932 44.1421C4.89165 44.1874 5.31533 43.709 5.11039 43.2591V43.2591ZM6.81575 -1.44297C7.00171 -1.52197 7.16265 -1.65396 7.29015 -1.81069V-1.81069C7.72252 -2.34219 7.72253 -3.11268 7.29016 -3.64419V-3.64419C7.16266 -3.80091 7.00172 -3.9329 6.81576 -4.0119C5.74548 -4.46654 4.61916 -4.70885 3.47481 -4.70885C2.33308 -4.70885 1.20929 -4.46765 0.141201 -4.01502C-0.0455594 -3.93587 -0.207178 -3.80338 -0.335156 -3.64601V-3.64601C-0.768278 -3.11341 -0.768275 -2.34146 -0.33515 -1.80887V-1.80887C-0.207173 -1.6515 -0.045553 -1.51901 0.141205 -1.43986C1.20929 -0.987226 2.33308 -0.746025 3.47481 -0.746025C4.61915 -0.746025 5.74547 -0.988333 6.81575 -1.44297ZM8.55262 -4.98961C9.31059 -4.56629 10.2523 -4.56629 11.0103 -4.98961V-4.98961C11.2813 -5.14099 11.522 -5.33789 11.698 -5.5936C13.4386 -8.12179 14.5374 -11.4905 14.5374 -15.3393C14.5374 -18.3922 13.846 -21.143 12.6914 -23.412C11.4377 -25.8755 8.12518 -25.8755 6.87151 -23.412C5.71689 -21.143 5.02551 -18.3922 5.02551 -15.3393C5.02551 -11.4905 6.12434 -8.12178 7.8649 -5.5936C8.04094 -5.33789 8.28158 -5.14099 8.55262 -4.98961V-4.98961ZM1.8403 1.72711C2.13265 2.36829 4.82095 2.36809 5.11331 1.72691V1.72691C5.31877 1.27631 4.89419 0.796966 4.40104 0.84242C4.09517 0.870612 3.7863 0.884953 3.47481 0.884953C3.16454 0.884953 2.85688 0.870725 2.55219 0.842752C2.05919 0.79749 1.63491 1.27665 1.8403 1.72711V1.72711ZM4.40105 18.9264C4.89419 18.9718 5.31878 18.4925 5.11332 18.0419V18.0419C4.82096 17.4007 2.13265 17.4005 1.8403 18.0417V18.0417C1.63491 18.4921 2.05919 18.9713 2.55219 18.926C2.85688 18.898 3.16454 18.8838 3.47481 18.8838C3.7863 18.8838 4.09518 18.8982 4.40105 18.9264ZM7.69274 -27.5084C8.11602 -27.9858 7.98043 -28.6682 7.41177 -28.9575C6.16732 -29.5908 4.83377 -29.9325 3.47481 -29.9325C2.11697 -29.9325 0.784512 -29.5913 -0.459064 -28.9591C-1.02805 -28.6698 -1.16369 -27.9871 -0.740187 -27.5095V-27.5095C0.069498 -26.5964 6.88315 -26.5953 7.69274 -27.5084V-27.5084ZM5.11332 -7.18179C4.82096 -7.82296 2.13265 -7.82317 1.8403 -7.18199V-7.18199C1.63491 -6.73153 2.05919 -6.25237 2.55219 -6.29763C2.85688 -6.3256 3.16454 -6.33983 3.47481 -6.33983C3.7863 -6.33983 4.09518 -6.32549 4.40105 -6.2973C4.89419 -6.25184 5.31878 -6.73119 5.11332 -7.18179V-7.18179ZM-1.5933 49.9874C-2.35624 49.5623 -3.30353 49.5623 -4.06646 49.9874V49.9874C-4.34111 50.1405 -4.5849 50.3399 -4.76272 50.5992C-6.49497 53.125 -7.58778 56.4858 -7.58778 60.324C-7.58778 63.3788 -6.89551 66.1312 -5.73957 68.401C-4.48554 70.8633 -1.17421 70.8633 0.0798065 68.401C1.23575 66.1312 1.92801 63.3788 1.92801 60.324C1.92801 56.4858 0.835207 53.125 -0.897037 50.5992C-1.07486 50.3399 -1.31865 50.1405 -1.5933 49.9874V49.9874ZM-5.81354 49.0127C-5.62468 48.933 -5.46133 48.7991 -5.33213 48.64V48.64C-4.89701 48.104 -4.89702 47.3279 -5.33213 46.792V46.792C-5.46134 46.6329 -5.6247 46.4989 -5.81356 46.4192C-6.87789 45.97 -7.99732 45.7307 -9.13457 45.7307C-10.2718 45.7307 -11.3912 45.97 -12.4556 46.4192C-12.6444 46.4989 -12.8078 46.6329 -12.937 46.792V46.792C-13.3721 47.3279 -13.3721 48.104 -12.937 48.6399V48.6399C-12.8078 48.7991 -12.6445 48.933 -12.4556 49.0127C-11.3913 49.4619 -10.2718 49.7013 -9.13457 49.7013C-7.99732 49.7013 -6.87787 49.462 -5.81354 49.0127ZM-4.06646 45.4445C-3.30352 45.8697 -2.35624 45.8697 -1.5933 45.4445V45.4445C-1.31866 45.2915 -1.07487 45.0921 -0.897048 44.8328C0.835205 42.307 1.92801 38.9462 1.92801 35.108C1.92801 31.2617 0.830583 27.8949 -0.908034 25.3672C-1.08471 25.1104 -1.3264 24.9127 -1.59864 24.7608V24.7608C-2.35819 24.337 -3.30157 24.3371 -4.06112 24.7608V24.7608C-4.33336 24.9127 -4.57506 25.1104 -4.75173 25.3672C-6.49035 27.8949 -7.58778 31.2617 -7.58778 35.108C-7.58778 38.9462 -6.49497 42.307 -4.76271 44.8328C-4.58489 45.0921 -4.3411 45.2915 -4.06646 45.4445V45.4445ZM-10.7625 52.1812C-10.4692 52.8258 -7.79989 52.8258 -7.50666 52.1812V52.1812C-7.30055 51.7281 -7.72692 51.246 -8.22267 51.291C-8.52386 51.3183 -8.82794 51.3322 -9.13457 51.3322C-9.44119 51.3322 -9.74528 51.3183 -10.0465 51.291C-10.5422 51.246 -10.9686 51.7281 -10.7625 52.1812V52.1812ZM-5.21066 73.9489C-4.63622 73.6576 -4.49948 72.9686 -4.92644 72.4864V72.4864C-5.74199 71.5654 -12.5271 71.5654 -13.3427 72.4864V72.4864C-13.7696 72.9686 -13.6329 73.6576 -13.0585 73.9489C-11.8177 74.5779 -10.4888 74.9172 -9.13457 74.9172C-7.78036 74.9172 -6.45139 74.5779 -5.21066 73.9489ZM-5.32461 21.5776C-4.89148 22.1102 -4.89149 22.8822 -5.32461 23.4148V23.4148C-5.45259 23.5721 -5.61421 23.7046 -5.80096 23.7838C-6.86905 24.2364 -7.99284 24.4776 -9.13457 24.4776C-10.2763 24.4776 -11.4001 24.2364 -12.4682 23.7838C-12.6549 23.7046 -12.8166 23.5721 -12.9445 23.4148V23.4148C-13.3777 22.8822 -13.3777 22.1102 -12.9445 21.5776V21.5776C-12.8166 21.4203 -12.6549 21.2878 -12.4682 21.2086C-11.4001 20.756 -10.2763 20.5148 -9.13457 20.5148C-7.99283 20.5148 -6.86905 20.756 -5.80096 21.2086C-5.6142 21.2878 -5.45258 21.4203 -5.32461 21.5776V21.5776ZM-0.908028 19.6252C-1.0847 19.882 -1.3264 20.0797 -1.59863 20.2316V20.2316C-2.35819 20.6554 -3.30157 20.6554 -4.06112 20.2316V20.2316C-4.33336 20.0797 -4.57506 19.882 -4.75173 19.6252C-6.49035 17.0975 -7.58778 13.7307 -7.58778 9.88438C-7.58778 6.03808 -6.49035 2.67123 -4.75173 0.143589C-4.57506 -0.113259 -4.33336 -0.310936 -4.06112 -0.462823V-0.462823C-3.30157 -0.886594 -2.35819 -0.886596 -1.59864 -0.462824V-0.462824C-1.3264 -0.310937 -1.08471 -0.113262 -0.908036 0.143585C0.830583 2.67122 1.92801 6.03807 1.92801 9.88438C1.92801 13.7307 0.830589 17.0975 -0.908028 19.6252ZM-8.22096 26.0672C-7.72439 26.0221 -7.29711 26.5051 -7.50374 26.9588V26.9588C-7.79754 27.6041 -10.4716 27.6041 -10.7654 26.9588V26.9588C-10.972 26.5051 -10.5447 26.0221 -10.0482 26.0672C-9.74644 26.0946 -9.44178 26.1086 -9.13457 26.1086C-8.82736 26.1086 -8.5227 26.0946 -8.22096 26.0672ZM-7.50667 43.2508C-7.7999 42.6061 -10.4692 42.6061 -10.7625 43.2508V43.2508C-10.9686 43.7039 -10.5422 44.1859 -10.0465 44.141C-9.74528 44.1136 -9.44119 44.0997 -9.13457 44.0997C-8.82794 44.0997 -8.52386 44.1136 -8.22268 44.141C-7.72692 44.1859 -7.30056 43.7039 -7.50667 43.2508V43.2508ZM-5.80096 -1.43986C-5.61421 -1.51901 -5.45259 -1.6515 -5.32461 -1.80887V-1.80887C-4.89149 -2.34146 -4.89148 -3.11341 -5.32461 -3.646V-3.646C-5.45258 -3.80337 -5.6142 -3.93586 -5.80096 -4.01501C-6.86905 -4.46765 -7.99284 -4.70885 -9.13457 -4.70885C-10.2763 -4.70885 -11.4001 -4.46765 -12.4682 -4.01502C-12.6549 -3.93587 -12.8165 -3.80338 -12.9445 -3.64601V-3.64601C-13.3777 -3.11341 -13.3777 -2.34147 -12.9445 -1.80887V-1.80887C-12.8166 -1.6515 -12.6549 -1.51901 -12.4682 -1.43986C-11.4001 -0.987226 -10.2763 -0.746025 -9.13457 -0.746025C-7.99284 -0.746025 -6.86905 -0.987228 -5.80096 -1.43986ZM-4.06112 -4.99205C-3.30157 -4.56828 -2.35819 -4.56828 -1.59863 -4.99205V-4.99205C-1.3264 -5.14394 -1.0847 -5.34162 -0.908027 -5.59846C0.83059 -8.1261 1.92801 -11.493 1.92801 -15.3393C1.92801 -18.3941 1.23575 -21.1465 0.079807 -23.4163C-1.17421 -25.8786 -4.48554 -25.8786 -5.73957 -23.4163C-6.89551 -21.1465 -7.58778 -18.3941 -7.58778 -15.3393C-7.58778 -11.493 -6.49035 -8.12611 -4.75173 -5.59847C-4.57506 -5.34162 -4.33336 -5.14394 -4.06112 -4.99205V-4.99205ZM-10.7654 1.7352C-10.4716 2.38042 -7.79755 2.38042 -7.50374 1.7352V1.7352C-7.29711 1.28141 -7.72439 0.798435 -8.22096 0.843575C-8.5227 0.871004 -8.82736 0.884953 -9.13457 0.884953C-9.44178 0.884953 -9.74643 0.871004 -10.0482 0.843574C-10.5447 0.798435 -10.972 1.28141 -10.7654 1.7352V1.7352ZM-8.22096 18.9252C-7.72439 18.9703 -7.29711 18.4874 -7.50374 18.0336V18.0336C-7.79755 17.3883 -10.4716 17.3883 -10.7654 18.0336V18.0336C-10.972 18.4874 -10.5447 18.9703 -10.0482 18.9252C-9.74643 18.8978 -9.44177 18.8838 -9.13457 18.8838C-8.82736 18.8838 -8.5227 18.8978 -8.22096 18.9252ZM-4.92645 -27.5017C-4.49948 -27.9839 -4.63622 -28.673 -5.21066 -28.9642C-6.45138 -29.5932 -7.78035 -29.9325 -9.13457 -29.9325C-10.4888 -29.9325 -11.8177 -29.5932 -13.0585 -28.9642C-13.6329 -28.673 -13.7696 -27.9839 -13.3427 -27.5017V-27.5017C-12.5271 -26.5807 -5.74199 -26.5807 -4.92645 -27.5017V-27.5017ZM-7.50374 -7.19008C-7.79755 -7.83531 -10.4716 -7.8353 -10.7654 -7.19008V-7.19008C-10.972 -6.73629 -10.5447 -6.25331 -10.0482 -6.29845C-9.74643 -6.32588 -9.44177 -6.33983 -9.13457 -6.33983C-8.82736 -6.33983 -8.5227 -6.32588 -8.22096 -6.29845C-7.7244 -6.25331 -7.29711 -6.73629 -7.50374 -7.19008V-7.19008ZM-14.2027 49.9874C-14.9656 49.5623 -15.9129 49.5623 -16.6758 49.9874V49.9874C-16.9505 50.1405 -17.1943 50.3399 -17.3721 50.5992C-19.1043 53.125 -20.1971 56.4858 -20.1971 60.324C-20.1971 63.3788 -19.5049 66.1312 -18.3489 68.401C-17.0949 70.8633 -13.7836 70.8633 -12.5296 68.401C-11.3736 66.1312 -10.6814 63.3788 -10.6814 60.324C-10.6814 56.4858 -11.7742 53.125 -13.5064 50.5991C-13.6842 50.3399 -13.928 50.1405 -14.2027 49.9874V49.9874ZM-10.6814 35.108C-10.6814 38.9462 -11.7742 42.307 -13.5064 44.8328C-13.6842 45.0921 -13.928 45.2915 -14.2027 45.4445V45.4445C-14.9656 45.8697 -15.9129 45.8697 -16.6758 45.4445V45.4445C-16.9505 45.2915 -17.1943 45.0921 -17.3721 44.8328C-19.1043 42.307 -20.1971 38.9462 -20.1971 35.108C-20.1971 31.2617 -19.0997 27.8949 -17.3611 25.3672C-17.1844 25.1104 -16.9427 24.9127 -16.6705 24.7608V24.7608C-15.9109 24.3371 -14.9676 24.337 -14.208 24.7608V24.7608C-13.9358 24.9127 -13.6941 25.1104 -13.5174 25.3672C-11.7788 27.8949 -10.6814 31.2617 -10.6814 35.108ZM-18.4229 46.4192C-18.2341 46.4989 -18.0707 46.6329 -17.9415 46.792V46.792C-17.5064 47.3279 -17.5064 48.104 -17.9415 48.6399V48.6399C-18.0707 48.7991 -18.2341 48.933 -18.4229 49.0127C-19.4873 49.462 -20.6067 49.7013 -21.7439 49.7013C-22.8812 49.7013 -24.0006 49.4619 -25.065 49.0127C-25.2538 48.933 -25.4172 48.7991 -25.5464 48.6399V48.6399C-25.9815 48.104 -25.9815 47.3279 -25.5464 46.792V46.792C-25.4172 46.6329 -25.2538 46.4989 -25.065 46.4192C-24.0006 45.97 -22.8812 45.7307 -21.7439 45.7307C-20.6067 45.7307 -19.4873 45.97 -18.4229 46.4192ZM-17.934 21.5776C-17.5009 22.1102 -17.5009 22.8822 -17.934 23.4148V23.4148C-18.062 23.5721 -18.2236 23.7046 -18.4103 23.7838C-19.4784 24.2364 -20.6022 24.4776 -21.7439 24.4776C-22.8857 24.4776 -24.0095 24.2364 -25.0775 23.7838C-25.2643 23.7046 -25.4259 23.5721 -25.5539 23.4148V23.4148C-25.987 22.8822 -25.987 22.1102 -25.5539 21.5776V21.5776C-25.4259 21.4203 -25.2643 21.2878 -25.0775 21.2086C-24.0095 20.756 -22.8857 20.5148 -21.7439 20.5148C-20.6022 20.5148 -19.4784 20.756 -18.4103 21.2086C-18.2236 21.2878 -18.062 21.4203 -17.934 21.5776V21.5776ZM-13.5174 19.6252C-13.6941 19.882 -13.9358 20.0797 -14.208 20.2316V20.2316C-14.9676 20.6554 -15.9109 20.6554 -16.6705 20.2316V20.2316C-16.9427 20.0797 -17.1844 19.882 -17.3611 19.6252C-19.0997 17.0975 -20.1971 13.7307 -20.1971 9.88438C-20.1971 6.03808 -19.0997 2.67123 -17.3611 0.143593C-17.1844 -0.113256 -16.9427 -0.310934 -16.6705 -0.462823V-0.462823C-15.9109 -0.886593 -14.9676 -0.886598 -14.208 -0.462827V-0.462827C-13.9358 -0.310939 -13.6941 -0.113263 -13.5174 0.143584C-11.7788 2.67122 -10.6814 6.03808 -10.6814 9.88438C-10.6814 13.7307 -11.7788 17.0975 -13.5174 19.6252ZM-20.8303 26.0672C-20.3338 26.0221 -19.9065 26.5051 -20.1131 26.9588V26.9588C-20.4069 27.6041 -23.081 27.6041 -23.3748 26.9588V26.9588C-23.5814 26.5051 -23.1541 26.0221 -22.6576 26.0672C-22.3558 26.0946 -22.0512 26.1086 -21.7439 26.1086C-21.4367 26.1086 -21.1321 26.0946 -20.8303 26.0672ZM-23.3718 43.2508C-23.0786 42.6061 -20.4093 42.6061 -20.116 43.2508V43.2508C-19.9099 43.7039 -20.3363 44.1859 -20.8321 44.141C-21.1332 44.1136 -21.4373 44.0997 -21.7439 44.0997C-22.0506 44.0997 -22.3547 44.1136 -22.6558 44.141C-23.1516 44.1859 -23.578 43.7039 -23.3718 43.2508V43.2508ZM-18.4103 -1.43986C-18.2236 -1.519 -18.062 -1.6515 -17.934 -1.80887V-1.80887C-17.5009 -2.34146 -17.5009 -3.11341 -17.934 -3.64601V-3.64601C-18.062 -3.80337 -18.2236 -3.93587 -18.4103 -4.01501C-19.4784 -4.46765 -20.6022 -4.70885 -21.7439 -4.70885C-22.8857 -4.70885 -24.0095 -4.46765 -25.0775 -4.01502C-25.2643 -3.93587 -25.4259 -3.80338 -25.5539 -3.64601V-3.64601C-25.987 -3.11341 -25.987 -2.34147 -25.5539 -1.80887V-1.80887C-25.4259 -1.6515 -25.2643 -1.51901 -25.0775 -1.43986C-24.0095 -0.987226 -22.8857 -0.746025 -21.7439 -0.746025C-20.6022 -0.746025 -19.4784 -0.987223 -18.4103 -1.43986ZM-16.6705 -4.99205C-15.9109 -4.56828 -14.9676 -4.56828 -14.208 -4.99205V-4.99205C-13.9358 -5.14394 -13.6941 -5.34162 -13.5174 -5.59847C-11.7788 -8.1261 -10.6814 -11.493 -10.6814 -15.3393C-10.6814 -18.3941 -11.3736 -21.1465 -12.5296 -23.4163C-13.7836 -25.8786 -17.0949 -25.8786 -18.3489 -23.4163C-19.5049 -21.1465 -20.1971 -18.3941 -20.1971 -15.3393C-20.1971 -11.493 -19.0997 -8.12611 -17.3611 -5.59847C-17.1844 -5.34162 -16.9427 -5.14394 -16.6705 -4.99205V-4.99205ZM-23.3748 1.7352C-23.081 2.38042 -20.4069 2.38042 -20.1131 1.7352V1.7352C-19.9065 1.28141 -20.3338 0.798435 -20.8303 0.843575C-21.1321 0.871004 -21.4367 0.884953 -21.7439 0.884953C-22.0511 0.884953 -22.3558 0.871004 -22.6576 0.843574C-23.1541 0.798435 -23.5814 1.28141 -23.3748 1.7352V1.7352ZM-20.8303 18.9252C-20.3338 18.9703 -19.9065 18.4874 -20.1131 18.0336V18.0336C-20.4069 17.3883 -23.081 17.3883 -23.3748 18.0336V18.0336C-23.5814 18.4874 -23.1541 18.9703 -22.6576 18.9252C-22.3558 18.8978 -22.0511 18.8838 -21.7439 18.8838C-21.4367 18.8838 -21.1321 18.8978 -20.8303 18.9252ZM-17.5358 -27.5017C-17.1089 -27.9839 -17.2456 -28.673 -17.82 -28.9642C-19.0608 -29.5932 -20.3897 -29.9325 -21.7439 -29.9325C-23.0982 -29.9325 -24.4271 -29.5932 -25.6678 -28.9642C-26.2423 -28.673 -26.379 -27.9839 -25.9521 -27.5017V-27.5017C-25.1365 -26.5807 -18.3514 -26.5807 -17.5358 -27.5017V-27.5017ZM-20.1131 -7.19008C-20.4069 -7.8353 -23.081 -7.8353 -23.3748 -7.19008V-7.19008C-23.5814 -6.73629 -23.1541 -6.25331 -22.6576 -6.29845C-22.3558 -6.32588 -22.0511 -6.33983 -21.7439 -6.33983C-21.4367 -6.33983 -21.1321 -6.32588 -20.8303 -6.29845C-20.3338 -6.25331 -19.9065 -6.73629 -20.1131 -7.19008V-7.19008ZM-32.8065 60.324C-32.8065 63.3788 -32.1143 66.1312 -30.9583 68.401C-29.7043 70.8633 -26.393 70.8633 -25.1389 68.401C-23.983 66.1312 -23.2907 63.3788 -23.2907 60.324C-23.2907 56.4858 -24.3835 53.125 -26.1158 50.5991C-26.2936 50.3399 -26.5374 50.1405 -26.8121 49.9874V49.9874C-27.575 49.5623 -28.5223 49.5623 -29.2852 49.9874V49.9874C-29.5599 50.1405 -29.8037 50.3399 -29.9815 50.5992C-31.7137 53.125 -32.8065 56.4858 -32.8065 60.324ZM-35.9736 52.1893C-35.679 52.8379 -33.0237 52.8377 -32.729 52.1891V52.1891C-32.5217 51.7328 -32.951 51.247 -33.4502 51.2918C-33.7485 51.3186 -34.0497 51.3322 -34.3533 51.3322C-34.6557 51.3322 -34.9557 51.3187 -35.2528 51.2921C-35.7519 51.2475 -36.1809 51.7331 -35.9736 52.1893V52.1893ZM-31.0323 49.0127C-30.8434 48.933 -30.6801 48.7991 -30.5509 48.6399V48.6399C-30.1158 48.104 -30.1158 47.3279 -30.5509 46.792V46.792C-30.6801 46.6329 -30.8435 46.4989 -31.0323 46.4192C-32.0966 45.97 -33.2161 45.7307 -34.3533 45.7307C-35.488 45.7307 -36.6049 45.9689 -37.667 46.4161C-37.8567 46.496 -38.0207 46.6305 -38.1504 46.7902V46.7902C-38.5862 47.3272 -38.5862 48.1048 -38.1504 48.6417V48.6417C-38.0207 48.8015 -37.8567 48.936 -37.667 49.0158C-36.6049 49.463 -35.488 49.7013 -34.3533 49.7013C-33.2161 49.7013 -32.0966 49.462 -31.0323 49.0127ZM-29.2852 45.4445C-28.5223 45.8697 -27.575 45.8697 -26.8121 45.4445V45.4445C-26.5374 45.2915 -26.2936 45.0921 -26.1158 44.8328C-24.3835 42.307 -23.2907 38.9462 -23.2907 35.108C-23.2907 31.2617 -24.3882 27.8949 -26.1268 25.3672C-26.3035 25.1104 -26.5452 24.9127 -26.8174 24.7608V24.7608C-27.5769 24.337 -28.5203 24.3371 -29.2799 24.7608V24.7608C-29.5521 24.9127 -29.7938 25.1104 -29.9705 25.3672C-31.7091 27.8949 -32.8065 31.2617 -32.8065 35.108C-32.8065 38.9462 -31.7137 42.307 -29.9815 44.8328C-29.8036 45.0921 -29.5598 45.2915 -29.2852 45.4445V45.4445ZM-30.4392 73.9538C-29.8594 73.6607 -29.7217 72.9654 -30.1521 72.4787V72.4787C-30.9732 71.55 -37.7304 71.5512 -38.5516 72.4798V72.4798C-38.9822 72.9666 -38.8445 73.6624 -38.2643 73.9554C-37.0273 74.5802 -35.7028 74.9172 -34.3533 74.9172C-33.0027 74.9172 -31.6771 74.5796 -30.4392 73.9538ZM-26.8174 20.2316C-26.5451 20.0797 -26.3034 19.882 -26.1268 19.6252C-24.3882 17.0975 -23.2907 13.7307 -23.2907 9.88438C-23.2907 6.03808 -24.3882 2.67122 -26.1268 0.143585C-26.3035 -0.113263 -26.5452 -0.310939 -26.8174 -0.462827V-0.462827C-27.5769 -0.886598 -28.5203 -0.886593 -29.2799 -0.462823V-0.462823C-29.5521 -0.310934 -29.7938 -0.113256 -29.9705 0.143594C-31.7091 2.67123 -32.8065 6.03808 -32.8065 9.88438C-32.8065 13.7307 -31.7091 17.0975 -29.9705 19.6252C-29.7938 19.882 -29.5521 20.0797 -29.2799 20.2316V20.2316C-28.5203 20.6554 -27.5769 20.6554 -26.8174 20.2316V20.2316ZM-30.5434 23.4148C-30.1102 22.8822 -30.1102 22.1102 -30.5434 21.5776V21.5776C-30.6713 21.4203 -30.8329 21.2878 -31.0197 21.2086C-32.0878 20.756 -33.2116 20.5148 -34.3533 20.5148C-35.4924 20.5148 -36.6137 20.7549 -37.6796 21.2055C-37.8672 21.2848 -38.0294 21.4178 -38.1579 21.5758V21.5758C-38.5918 22.1095 -38.5918 22.8829 -38.1579 23.4166V23.4166C-38.0294 23.5746 -37.8672 23.7076 -37.6796 23.7869C-36.6137 24.2375 -35.4924 24.4776 -34.3533 24.4776C-33.2116 24.4776 -32.0878 24.2364 -31.0197 23.7838C-30.833 23.7046 -30.6713 23.5721 -30.5434 23.4148V23.4148ZM-31.0197 -1.43986C-30.833 -1.519 -30.6713 -1.6515 -30.5434 -1.80887V-1.80887C-30.1102 -2.34146 -30.1102 -3.11341 -30.5434 -3.64601V-3.64601C-30.6713 -3.80337 -30.8329 -3.93587 -31.0197 -4.01501C-32.0878 -4.46765 -33.2116 -4.70885 -34.3533 -4.70885C-35.4924 -4.70885 -36.6137 -4.46875 -37.6796 -4.01811C-37.8672 -3.93882 -38.0295 -3.80582 -38.1579 -3.64781V-3.64781C-38.5918 -3.11414 -38.5918 -2.34074 -38.1579 -1.80706V-1.80706C-38.0294 -1.64906 -37.8672 -1.51606 -37.6796 -1.43676C-36.6137 -0.986129 -35.4924 -0.746025 -34.3533 -0.746025C-33.2116 -0.746025 -32.0878 -0.987223 -31.0197 -1.43986ZM-29.2799 -4.99205C-28.5203 -4.56828 -27.5769 -4.56828 -26.8174 -4.99205V-4.99205C-26.5451 -5.14394 -26.3035 -5.34162 -26.1268 -5.59847C-24.3882 -8.1261 -23.2907 -11.493 -23.2907 -15.3393C-23.2907 -18.3941 -23.983 -21.1465 -25.1389 -23.4163C-26.393 -25.8786 -29.7043 -25.8786 -30.9583 -23.4163C-32.1143 -21.1465 -32.8065 -18.3941 -32.8065 -15.3393C-32.8065 -11.493 -31.7091 -8.12611 -29.9705 -5.59847C-29.7938 -5.34162 -29.5521 -5.14394 -29.2799 -4.99205V-4.99205ZM-35.9765 1.74334C-35.6813 2.39248 -33.0213 2.39228 -32.7261 1.74314V1.74314C-32.5183 1.28611 -32.9485 0.799358 -33.4485 0.844371C-33.7474 0.871274 -34.0491 0.884953 -34.3533 0.884953C-34.6563 0.884953 -34.9568 0.871384 -35.2545 0.844696C-35.7544 0.799878 -36.1843 1.28644 -35.9765 1.74334V1.74334ZM-33.4485 18.9244C-32.9485 18.9694 -32.5183 18.4827 -32.7261 18.0256V18.0256C-33.0213 17.3765 -35.6813 17.3763 -35.9765 18.0254V18.0254C-36.1843 18.4823 -35.7544 18.9689 -35.2545 18.9241C-34.9568 18.8974 -34.6563 18.8838 -34.3533 18.8838C-34.0491 18.8838 -33.7474 18.8975 -33.4485 18.9244ZM-30.1521 -27.494C-29.7217 -27.9807 -29.8594 -28.676 -30.4392 -28.9691C-31.6771 -29.595 -33.0027 -29.9325 -34.3533 -29.9325C-35.7028 -29.9325 -37.0273 -29.5955 -38.2643 -28.9707C-38.8445 -28.6777 -38.9822 -27.9819 -38.5516 -27.4951V-27.4951C-37.7304 -26.5665 -30.9732 -26.5653 -30.1521 -27.494V-27.494ZM-35.9765 -7.19821C-35.6813 -7.84736 -33.0213 -7.84716 -32.7261 -7.19802V-7.19802C-32.5183 -6.74098 -32.9485 -6.25424 -33.4485 -6.29925C-33.7474 -6.32615 -34.0491 -6.33983 -34.3533 -6.33983C-34.6563 -6.33983 -34.9568 -6.32626 -35.2545 -6.29957C-35.7544 -6.25476 -36.1843 -6.74132 -35.9765 -7.19821V-7.19821ZM-43.6451 49.0158C-43.4554 48.936 -43.2914 48.8015 -43.1617 48.6417V48.6417C-42.7258 48.1048 -42.7259 47.3272 -43.1617 46.7902V46.7902C-43.2914 46.6305 -43.4554 46.496 -43.6451 46.4161C-44.7072 45.9689 -45.8241 45.7307 -46.9588 45.7307C-48.0986 45.7307 -49.2206 45.9711 -50.2871 46.4223C-50.4752 46.5019 -50.6379 46.6353 -50.7666 46.7938V46.7938C-51.201 47.3287 -51.201 48.1033 -50.7666 48.6381V48.6381C-50.6379 48.7966 -50.4752 48.9301 -50.2871 49.0097C-49.2206 49.4609 -48.0986 49.7013 -46.9588 49.7013C-45.8241 49.7013 -44.7072 49.463 -43.6451 49.0158ZM-42.5942 44.828C-42.4157 45.0884 -42.1709 45.2886 -41.895 45.4421V45.4421C-41.1305 45.8677 -40.1816 45.8677 -39.4171 45.4421V45.4421C-39.1412 45.2886 -38.8964 45.0884 -38.7179 44.828C-36.9876 42.3027 -35.8962 38.9438 -35.8962 35.108C-35.8962 31.2642 -36.9922 27.8992 -38.7289 25.3721C-38.9062 25.1141 -39.149 24.9156 -39.4224 24.7633V24.7633C-40.1835 24.339 -41.1286 24.339 -41.8897 24.7633V24.7633C-42.1631 24.9157 -42.4059 25.1141 -42.5832 25.3721C-44.3199 27.8992 -45.4159 31.2642 -45.4159 35.108C-45.4159 38.9438 -44.3245 42.3027 -42.5942 44.828ZM-48.5907 52.181C-48.2974 52.8257 -45.6281 52.8261 -45.3349 52.1814V52.1814C-45.1289 51.7284 -45.5549 51.2466 -46.0505 51.2914C-46.3505 51.3185 -46.6534 51.3322 -46.9588 51.3322C-47.2666 51.3322 -47.5719 51.3182 -47.8743 51.2907C-48.3702 51.2455 -48.7969 51.7278 -48.5907 52.181V52.181ZM-50.8858 73.9473C-51.4599 73.656 -51.5965 72.9673 -51.1698 72.4852V72.4852C-50.3544 71.5643 -43.5692 71.5666 -42.7537 72.4874V72.4874C-42.3265 72.9697 -42.4632 73.6593 -43.038 73.9504C-44.2778 74.5784 -45.6057 74.9172 -46.9588 74.9172C-48.3141 74.9172 -49.6442 74.5773 -50.8858 73.9473ZM-45.4159 60.324C-45.4159 63.3807 -44.7228 66.1347 -43.5655 68.4053C-42.3111 70.8664 -39.001 70.8664 -37.7466 68.4053C-36.5893 66.1347 -35.8962 63.3807 -35.8962 60.324C-35.8962 56.4882 -36.9876 53.1293 -38.7179 50.604C-38.8964 50.3436 -39.1412 50.1434 -39.4171 49.9899V49.9899C-40.1816 49.5643 -41.1305 49.5643 -41.895 49.9899V49.9899C-42.1709 50.1434 -42.4157 50.3436 -42.5942 50.604C-44.3245 53.1293 -45.4159 56.4882 -45.4159 60.324ZM-46.0488 26.0675C-45.5524 26.0226 -45.1254 26.5054 -45.332 26.9591V26.9591C-45.6258 27.6043 -48.2998 27.6039 -48.5936 26.9587V26.9587C-48.8003 26.5047 -48.3727 26.0216 -47.876 26.0669C-47.5731 26.0945 -47.2672 26.1086 -46.9588 26.1086C-46.6528 26.1086 -46.3494 26.0948 -46.0488 26.0675ZM-43.1542 21.5758C-42.7203 22.1095 -42.7203 22.8829 -43.1542 23.4166V23.4166C-43.2827 23.5746 -43.445 23.7076 -43.6325 23.7869C-44.6984 24.2375 -45.8197 24.4776 -46.9588 24.4776C-48.1031 24.4776 -49.2295 24.2353 -50.2997 23.7807C-50.4857 23.7017 -50.6466 23.5697 -50.7741 23.413V23.413C-51.2065 22.8815 -51.2065 22.111 -50.7741 21.5795V21.5795C-50.6466 21.4227 -50.4857 21.2907 -50.2997 21.2117C-49.2295 20.7571 -48.1031 20.5148 -46.9588 20.5148C-45.8197 20.5148 -44.6984 20.7549 -43.6325 21.2055C-43.4449 21.2848 -43.2827 21.4178 -43.1542 21.5758V21.5758ZM-38.7289 19.6203C-38.9062 19.8783 -39.149 20.0768 -39.4224 20.2292V20.2292C-40.1835 20.6534 -41.1286 20.6534 -41.8897 20.2292V20.2292C-42.1631 20.0768 -42.4059 19.8783 -42.5832 19.6203C-44.3199 17.0932 -45.4159 13.7282 -45.4159 9.88438C-45.4159 6.04054 -44.3199 2.67554 -42.5832 0.148441C-42.4059 -0.109544 -42.1631 -0.307993 -41.8897 -0.460389V-0.460389C-41.1286 -0.884604 -40.1835 -0.884604 -39.4224 -0.460389V-0.460389C-39.149 -0.307993 -38.9062 -0.109543 -38.7289 0.148442C-36.9922 2.67554 -35.8962 6.04054 -35.8962 9.88438C-35.8962 13.7282 -36.9922 17.0932 -38.7289 19.6203ZM-48.5907 43.251C-48.2974 42.6063 -45.6281 42.6059 -45.3349 43.2506V43.2506C-45.1289 43.7035 -45.5549 44.1854 -46.0505 44.1406C-46.3505 44.1135 -46.6534 44.0997 -46.9588 44.0997C-47.2666 44.0997 -47.5719 44.1137 -47.8743 44.1413C-48.3702 44.1865 -48.7969 43.7042 -48.5907 43.251V43.251ZM-35.8962 -15.3393C-35.8962 -11.4954 -36.9922 -8.13042 -38.7289 -5.60332C-38.9062 -5.34533 -39.149 -5.14688 -39.4224 -4.99449V-4.99449C-40.1835 -4.57027 -41.1286 -4.57027 -41.8897 -4.99449V-4.99449C-42.1631 -5.14688 -42.4059 -5.34533 -42.5832 -5.60332C-44.3199 -8.13041 -45.4159 -11.4954 -45.4159 -15.3393C-45.4159 -18.3961 -44.7228 -21.15 -43.5655 -23.4206C-42.3111 -25.8817 -39.001 -25.8817 -37.7466 -23.4206C-36.5893 -21.15 -35.8962 -18.3961 -35.8962 -15.3393ZM-43.6325 -4.01811C-43.4449 -3.93882 -43.2827 -3.80582 -43.1542 -3.64782V-3.64782C-42.7203 -3.11414 -42.7203 -2.34074 -43.1542 -1.80706V-1.80706C-43.2827 -1.64905 -43.445 -1.51605 -43.6325 -1.43676C-44.6984 -0.986124 -45.8197 -0.746025 -46.9588 -0.746025C-48.1031 -0.746025 -49.2294 -0.988336 -50.2997 -1.44298C-50.4857 -1.52197 -50.6466 -1.65396 -50.7741 -1.81069V-1.81069C-51.2065 -2.34219 -51.2065 -3.11268 -50.7741 -3.64419V-3.64419C-50.6466 -3.80092 -50.4857 -3.93291 -50.2997 -4.0119C-49.2295 -4.46654 -48.1031 -4.70885 -46.9588 -4.70885C-45.8197 -4.70885 -44.6984 -4.46875 -43.6325 -4.01811ZM-42.7537 -27.5027C-42.3265 -27.9851 -42.4632 -28.6746 -43.038 -28.9657C-44.2778 -29.5937 -45.6057 -29.9325 -46.9588 -29.9325C-48.3141 -29.9325 -49.6442 -29.5926 -50.8858 -28.9626C-51.4599 -28.6713 -51.5965 -27.9826 -51.1698 -27.5006V-27.5006C-50.3544 -26.5796 -43.5692 -26.5819 -42.7537 -27.5027V-27.5027ZM-48.5936 -7.1899C-48.2998 -7.8351 -45.6258 -7.83551 -45.332 -7.1903V-7.1903C-45.1254 -6.73666 -45.5524 -6.25384 -46.0488 -6.29878C-46.3494 -6.32599 -46.6528 -6.33983 -46.9588 -6.33983C-47.2672 -6.33983 -47.5731 -6.32577 -47.876 -6.29812C-48.3727 -6.25279 -48.8003 -6.73598 -48.5936 -7.1899V-7.1899ZM-52.0313 49.985C-52.7926 49.5603 -53.7382 49.5603 -54.4996 49.985V49.985C-54.7731 50.1375 -55.0158 50.3362 -55.193 50.5943C-56.9272 53.1207 -58.0214 56.4833 -58.0214 60.324C-58.0214 63.3769 -57.33 66.1277 -56.1754 68.3966C-54.9217 70.8602 -51.6092 70.8602 -50.3555 68.3966C-49.2009 66.1277 -48.5095 63.3769 -48.5095 60.324C-48.5095 56.4833 -49.6037 53.1207 -51.3379 50.5943C-51.5151 50.3362 -51.7578 50.1375 -52.0313 49.985V49.985ZM-59.6523 60.324C-59.6523 57.7207 -59.1726 55.2606 -58.3201 53.0803C-58.008 52.2823 -58.7153 51.3322 -59.5721 51.3322V51.3322C-60.4259 51.3322 -61.26 51.2245 -62.0665 51.0191C-64.7342 50.3396 -67.9179 50.3215 -69.0654 52.8238C-70.0529 54.9771 -70.6346 57.5235 -70.6346 60.324C-70.6346 68.779 -65.3317 74.9172 -59.5721 74.9172V74.9172C-56.8292 74.9172 -56.4593 71.4693 -57.6803 69.0131C-58.9291 66.5012 -59.6523 63.5205 -59.6523 60.324ZM-56.2437 49.0097C-56.0557 48.9301 -55.893 48.7967 -55.7643 48.6381V48.6381C-55.3299 48.1033 -55.3299 47.3287 -55.7643 46.7938V46.7938C-55.893 46.6353 -56.0557 46.5019 -56.2437 46.4223C-57.3103 45.9711 -58.4322 45.7307 -59.5721 45.7307V45.7307C-62.5891 45.7307 -62.5891 49.7013 -59.5721 49.7013V49.7013C-58.4322 49.7013 -57.3102 49.4609 -56.2437 49.0097ZM-54.4996 45.447C-53.7382 45.8717 -52.7926 45.8717 -52.0313 45.447V45.447C-51.7578 45.2944 -51.5151 45.0958 -51.3379 44.8377C-49.6037 42.3113 -48.5095 38.9487 -48.5095 35.108C-48.5095 31.2593 -49.6083 27.8905 -51.3489 25.3624C-51.5249 25.1067 -51.7656 24.9098 -52.0366 24.7584V24.7584C-52.7946 24.3351 -53.7363 24.3351 -54.4942 24.7584V24.7584C-54.7653 24.9098 -55.0059 25.1067 -55.182 25.3624C-56.9225 27.8906 -58.0214 31.2593 -58.0214 35.108C-58.0214 38.9487 -56.9272 42.3113 -55.193 44.8377C-55.0158 45.0958 -54.773 45.2944 -54.4996 45.447V45.447ZM-55.7567 21.5795C-55.3243 22.111 -55.3244 22.8815 -55.7567 23.413V23.413C-55.8842 23.5697 -56.0452 23.7017 -56.2311 23.7807C-57.3014 24.2353 -58.4277 24.4776 -59.5721 24.4776V24.4776C-62.5845 24.4776 -62.5845 20.5148 -59.5721 20.5148V20.5148C-58.4277 20.5148 -57.3014 20.7571 -56.2311 21.2117C-56.0452 21.2907 -55.8842 21.4227 -55.7567 21.5795V21.5795ZM-52.0366 20.234C-52.7946 20.6574 -53.7363 20.6574 -54.4942 20.234V20.234C-54.7653 20.0827 -55.0059 19.8858 -55.182 19.63C-56.9225 17.1019 -58.0214 13.7332 -58.0214 9.88438C-58.0214 6.03561 -56.9225 2.66691 -55.182 0.138726C-55.0059 -0.116987 -54.7653 -0.31389 -54.4942 -0.465269V-0.465269C-53.7363 -0.888593 -52.7946 -0.888593 -52.0366 -0.465267V-0.465267C-51.7656 -0.313888 -51.5249 -0.116985 -51.3489 0.138728C-49.6083 2.66691 -48.5095 6.03561 -48.5095 9.88438C-48.5095 13.7331 -49.6083 17.1019 -51.3489 19.63C-51.5249 19.8858 -51.7656 20.0827 -52.0366 20.234V20.234ZM-59.5721 26.1086C-58.714 26.1086 -58.0055 27.0606 -58.3182 27.8596C-59.1719 30.0411 -59.6523 32.5029 -59.6523 35.108C-59.6523 37.7113 -59.1726 40.1714 -58.3201 42.3517C-58.008 43.1497 -58.7153 44.0997 -59.5721 44.0997V44.0997C-60.4259 44.0997 -61.26 44.2075 -62.0665 44.4129C-64.7342 45.0923 -67.9179 45.1105 -69.0654 42.6082C-70.0529 40.4549 -70.6346 37.9085 -70.6346 35.108C-70.6346 32.3034 -70.0511 29.7537 -69.061 27.5984C-67.9126 25.0985 -64.7315 25.1169 -62.0656 25.7957C-61.2593 26.0009 -60.4255 26.1086 -59.5721 26.1086V26.1086ZM-59.5721 18.8838V18.8838C-58.714 18.8838 -58.0055 17.9318 -58.3182 17.1328C-59.1719 14.9513 -59.6523 12.4895 -59.6523 9.88438C-59.6523 7.27923 -59.1719 4.81748 -58.3182 2.63597C-58.0055 1.83696 -58.714 0.884953 -59.5721 0.884953V0.884953C-60.4255 0.884953 -61.2593 0.777298 -62.0656 0.572033C-64.7315 -0.106698 -67.9126 -0.125113 -69.061 2.37473C-70.0511 4.53004 -70.6346 7.07975 -70.6346 9.88438C-70.6346 12.689 -70.0511 15.2387 -69.061 17.394C-67.9126 19.8939 -64.7315 19.8755 -62.0656 19.1967C-61.2593 18.9915 -60.4255 18.8838 -59.5721 18.8838ZM-48.5095 -15.3393C-48.5095 -11.4905 -49.6083 -8.12179 -51.3489 -5.59361C-51.5249 -5.3379 -51.7656 -5.14099 -52.0366 -4.98961V-4.98961C-52.7946 -4.56629 -53.7363 -4.56628 -54.4942 -4.98961V-4.98961C-54.7653 -5.14099 -55.0059 -5.33789 -55.182 -5.5936C-56.9225 -8.12179 -58.0214 -11.4905 -58.0214 -15.3393C-58.0214 -18.3922 -57.33 -21.143 -56.1754 -23.4119C-54.9217 -25.8755 -51.6092 -25.8755 -50.3555 -23.4119C-49.2009 -21.143 -48.5095 -18.3922 -48.5095 -15.3393ZM-56.2311 -4.0119C-56.0452 -3.93291 -55.8842 -3.80092 -55.7567 -3.64419V-3.64419C-55.3243 -3.11269 -55.3243 -2.34219 -55.7567 -1.81069V-1.81069C-55.8842 -1.65396 -56.0452 -1.52197 -56.2311 -1.44297C-57.3014 -0.988331 -58.4277 -0.746025 -59.5721 -0.746025V-0.746025C-62.5844 -0.746025 -62.5844 -4.70885 -59.5721 -4.70885V-4.70885C-58.4277 -4.70885 -57.3014 -4.46654 -56.2311 -4.0119ZM-58.3182 -8.09085C-58.0055 -7.29184 -58.714 -6.33983 -59.5721 -6.33983V-6.33983C-60.4255 -6.33983 -61.2593 -6.23218 -62.0656 -6.02691C-64.7315 -5.34818 -67.9126 -5.32977 -69.061 -7.82961C-70.0511 -9.98492 -70.6346 -12.5346 -70.6346 -15.3393C-70.6346 -23.7943 -65.3317 -29.9325 -59.5721 -29.9325V-29.9325C-56.8292 -29.9325 -56.4593 -26.4846 -57.6803 -24.0284C-58.9291 -21.5165 -59.6523 -18.5358 -59.6523 -15.3393C-59.6523 -12.7341 -59.1719 -10.2724 -58.3182 -8.09085Z" fill="#4200FF"/>
</mask>
<g mask="url(#mask1_442_583)">
<rect x="-34.9414" y="-31.5654" width="114.83" height="108.105" fill="white"/>
</g>
</g>
</svg>
