<svg width="45" height="45" viewBox="0 0 45 45" fill="none" xmlns="http://www.w3.org/2000/svg">
<mask id="mask0_442_346" style="mask-type:alpha" maskUnits="userSpaceOnUse" x="0" y="0" width="45" height="45">
<path d="M0.218985 0.218985H44.781V44.781H0.218985V0.218985Z" fill="#D9D9D9" stroke="white" stroke-width="0.437969"/>
</mask>
<g mask="url(#mask0_442_346)">
<path fill-rule="evenodd" clip-rule="evenodd" d="M143.422 -85.4512H-97.0781V130.953H-81.3996C-81.5636 130.925 -81.7173 130.828 -81.8103 130.661L-96.6943 104.022L-96.7766 103.875C-96.8044 103.825 -96.857 103.794 -96.9141 103.794C-97.0343 103.794 -97.1102 103.665 -97.0516 103.56L-97.0466 103.551C-97.0189 103.502 -97.0189 103.441 -97.0466 103.392L-97.0516 103.383C-97.1102 103.278 -97.0343 103.149 -96.9141 103.149C-96.857 103.149 -96.8044 103.118 -96.7766 103.068L-96.6943 102.921L-83.2857 78.9223C-82.4502 77.427 -82.4502 75.6054 -83.2857 74.1101L-96.6494 50.1921L-96.7318 50.0447C-96.7596 49.9949 -96.8122 49.964 -96.8692 49.964C-96.9894 49.964 -97.0653 49.8347 -97.0067 49.7298L-97.0017 49.7209C-96.9741 49.6714 -96.9741 49.611 -97.0017 49.5615L-97.0067 49.5527C-97.0653 49.4477 -96.9894 49.3184 -96.8692 49.3184C-96.8122 49.3184 -96.7596 49.2875 -96.7318 49.2378L-96.6494 49.0903L-83.2652 25.1356C-82.4297 23.6403 -82.4297 21.8187 -83.2652 20.3234L-96.6201 -3.57885L-96.7023 -3.72606C-96.7302 -3.77588 -96.7828 -3.80674 -96.8398 -3.80674C-96.9601 -3.80674 -97.036 -3.93608 -96.9773 -4.04107L-96.9724 -4.04992C-96.9447 -4.09947 -96.9447 -4.15983 -96.9724 -4.20938L-96.9773 -4.21824C-97.036 -4.32322 -96.9601 -4.45256 -96.8398 -4.45256C-96.7828 -4.45256 -96.7302 -4.48342 -96.7023 -4.53324L-96.6201 -4.68045L-83.2193 -28.6648C-82.3838 -30.1601 -82.3838 -31.9817 -83.2193 -33.477L-96.5771 -57.3844L-96.6594 -57.5317C-96.6872 -57.5815 -96.7398 -57.6124 -96.7969 -57.6124C-96.9171 -57.6124 -96.993 -57.7417 -96.9344 -57.8467L-96.9294 -57.8555C-96.9017 -57.9051 -96.9017 -57.9654 -96.9294 -58.015L-96.9344 -58.0238C-96.993 -58.1288 -96.9171 -58.2581 -96.7969 -58.2581C-96.7398 -58.2581 -96.6872 -58.289 -96.6594 -58.3388L-96.5771 -58.4861L-81.6931 -85.125C-81.469 -85.5261 -80.8919 -85.5261 -80.6678 -85.125L-70.604 -67.1132C-68.7216 -63.7441 -63.8737 -63.7441 -61.9912 -67.1132L-51.9275 -85.125C-51.7034 -85.5261 -51.1263 -85.5261 -50.9022 -85.125L-40.8374 -67.1115C-38.955 -63.7423 -34.1071 -63.7423 -32.2246 -67.1115L-22.1599 -85.125C-21.9358 -85.5261 -21.3587 -85.5261 -21.1346 -85.125L-11.0679 -67.108C-9.18545 -63.7388 -4.33755 -63.7388 -2.45509 -67.108L7.61157 -85.125C7.83568 -85.5261 8.4128 -85.5261 8.63691 -85.125L18.7016 -67.1115C20.5841 -63.7423 25.432 -63.7423 27.3144 -67.1115L37.3792 -85.125C37.6033 -85.5261 38.1804 -85.5261 38.4045 -85.125L48.4682 -67.1132C50.3507 -63.7441 55.1986 -63.7441 57.081 -67.1132L67.1448 -85.125C67.3689 -85.5261 67.946 -85.5261 68.1701 -85.125L78.3481 -66.9088C80.2306 -63.5396 85.0785 -63.5396 86.9609 -66.9088L97.1389 -85.125C97.363 -85.5261 97.9401 -85.5261 98.1642 -85.125L108.34 -66.9123C110.223 -63.5431 115.071 -63.5431 116.953 -66.9122L127.129 -85.125C127.353 -85.5261 127.93 -85.5261 128.154 -85.125L143.038 -58.4861L143.121 -58.3388C143.149 -58.289 143.201 -58.2581 143.258 -58.2581C143.379 -58.2581 143.454 -58.1288 143.396 -58.0238L143.391 -58.015C143.363 -57.9654 143.363 -57.9051 143.391 -57.8555L143.396 -57.8467C143.454 -57.7417 143.379 -57.6124 143.258 -57.6124C143.201 -57.6124 143.149 -57.5815 143.121 -57.5317L143.038 -57.3844L129.639 -33.4019C128.803 -31.9066 128.803 -30.0849 129.639 -28.5896L142.997 -4.68045L143.08 -4.53323C143.108 -4.48342 143.16 -4.45256 143.217 -4.45256C143.337 -4.45256 143.413 -4.32322 143.355 -4.21824L143.35 -4.20939C143.322 -4.15984 143.322 -4.09948 143.35 -4.04994L143.355 -4.04107C143.413 -3.93608 143.337 -3.80674 143.217 -3.80674C143.16 -3.80674 143.108 -3.77588 143.08 -3.72606L142.997 -3.57885L129.606 20.388C128.771 21.8833 128.771 23.705 129.606 25.2003L142.955 49.0903L143.037 49.2378C143.065 49.2875 143.117 49.3184 143.174 49.3184C143.295 49.3184 143.37 49.4477 143.312 49.5526L143.307 49.5615C143.279 49.611 143.279 49.6714 143.307 49.7209L143.312 49.7298C143.37 49.8347 143.295 49.964 143.174 49.964C143.117 49.964 143.065 49.9949 143.037 50.0447L142.955 50.1921L129.551 74.1817C128.715 75.677 128.715 77.4987 129.551 78.994L142.919 102.921L143.002 103.068C143.029 103.118 143.082 103.149 143.139 103.149C143.259 103.149 143.335 103.278 143.277 103.383L143.272 103.392C143.244 103.441 143.244 103.502 143.272 103.551L143.277 103.56C143.335 103.665 143.259 103.794 143.139 103.794C143.082 103.794 143.029 103.825 143.002 103.875L142.919 104.022L128.035 130.661C127.942 130.828 127.789 130.925 127.625 130.953H143.422V-85.4512ZM127.421 130.953C127.257 130.925 127.103 130.828 127.01 130.661L116.836 112.452C114.953 109.083 110.106 109.083 108.223 112.452L98.049 130.661C97.956 130.828 97.8023 130.925 97.6382 130.953H127.421ZM97.4345 130.953C97.2704 130.925 97.1167 130.828 97.0237 130.661L86.8486 112.45C84.9661 109.081 80.1183 109.081 78.2358 112.45L68.0607 130.661C67.9678 130.828 67.814 130.925 67.6499 130.953H97.4345ZM67.4462 130.953C67.2821 130.925 67.1284 130.828 67.0354 130.661L56.9678 112.642C55.0853 109.273 50.2374 109.273 48.3549 112.642L38.2873 130.661C38.1943 130.828 38.0406 130.925 37.8765 130.953H67.4462ZM37.6727 130.953C37.5087 130.925 37.3549 130.828 37.262 130.661L27.1982 112.649C25.3158 109.28 20.4679 109.28 18.5854 112.649L8.52168 130.661C8.4287 130.828 8.27498 130.925 8.11091 130.953H37.6727ZM7.90709 130.953C7.74303 130.925 7.5893 130.828 7.49634 130.661L-2.57423 112.637C-4.4567 109.268 -9.30458 109.268 -11.1871 112.637L-21.2576 130.661C-21.3506 130.828 -21.5043 130.925 -21.6684 130.953H7.90709ZM-21.8722 130.953C-22.0363 130.925 -22.19 130.828 -22.283 130.661L-32.3438 112.655C-34.2262 109.286 -39.0741 109.286 -40.9566 112.655L-51.0174 130.661C-51.1103 130.828 -51.2641 130.925 -51.4281 130.953H-21.8722ZM-51.632 130.953C-51.7961 130.925 -51.9498 130.828 -52.0427 130.661L-62.1074 112.648C-63.9899 109.279 -68.8378 109.279 -70.7203 112.648L-80.785 130.661C-80.8779 130.828 -81.0316 130.925 -81.1957 130.953H-51.632ZM125.53 78.9311C126.365 77.4358 126.365 75.6141 125.53 74.1188L116.871 58.6218C114.989 55.2526 110.141 55.2526 108.258 58.6218L99.5644 74.1817C98.7289 75.677 98.7289 77.4987 99.5644 78.994L108.223 94.491C110.106 97.8602 114.953 97.8602 116.836 94.491L125.53 78.9311ZM95.5434 78.9311C96.3789 77.4358 96.3789 75.6141 95.5434 74.1188L86.8818 58.6165C84.9993 55.2474 80.1515 55.2474 78.269 58.6166L69.5742 74.1782C68.7387 75.6735 68.7387 77.4952 69.5742 78.9905L78.2358 94.4928C80.1183 97.862 84.9662 97.862 86.8486 94.4928L95.5434 78.9311ZM65.5532 78.9346C66.3887 77.4393 66.3887 75.6176 65.5532 74.1223L57.0058 58.8245C55.1234 55.4553 50.2755 55.4554 48.393 58.8246L39.8076 74.1905C38.9721 75.6858 38.9721 77.5075 39.8076 79.0028L48.3549 94.3005C50.2374 97.6697 55.0853 97.6697 56.9678 94.3005L65.5532 78.9346ZM125.552 25.1234C126.388 23.6281 126.388 21.8064 125.552 20.3111L116.916 4.85431C115.034 1.48513 110.186 1.48513 108.303 4.85432L99.622 20.3915C98.7866 21.8868 98.7866 23.7085 99.622 25.2038L108.258 40.6606C110.141 44.0298 114.989 44.0298 116.871 40.6606L125.552 25.1234ZM95.5679 25.1199C96.4033 23.6246 96.4033 21.8029 95.5679 20.3076L86.9275 4.84338C85.045 1.4742 80.1971 1.47419 78.3147 4.84338L69.6286 20.3893C68.7932 21.8846 68.7932 23.7063 69.6286 25.2016L78.269 40.6659C80.1515 44.035 84.9994 44.035 86.8818 40.6659L95.5679 25.1199ZM65.5749 25.1212C66.4104 23.6259 66.4104 21.8042 65.5749 20.3089L57.0471 5.04614C55.1647 1.67695 50.3168 1.67694 48.4343 5.04613L39.8652 20.3828C39.0297 21.8781 39.0297 23.6998 39.8652 25.1951L48.393 40.4579C50.2755 43.827 55.1234 43.8271 57.0058 40.4579L65.5749 25.1212ZM125.604 -28.663C126.439 -30.1583 126.439 -31.98 125.604 -33.4753L116.953 -48.9582C115.071 -52.3274 110.223 -52.3274 108.34 -48.9582L99.6523 -33.4089C98.8169 -31.9136 98.8169 -30.0919 99.6523 -28.5966L108.303 -13.1136C110.186 -9.74444 115.034 -9.74443 116.916 -13.1136L125.604 -28.663ZM95.6176 -28.656C96.4531 -30.1513 96.4531 -31.973 95.6176 -33.4683L86.9609 -48.9617C85.0785 -52.3309 80.2306 -52.3309 78.3481 -48.9617L69.6585 -33.4093C68.823 -31.914 68.823 -30.0924 69.6585 -28.5971L78.3152 -13.1036C80.1976 -9.73442 85.0455 -9.73442 86.928 -13.1036L95.6176 -28.656ZM65.6232 -28.6565C66.4587 -30.1518 66.4587 -31.9735 65.6232 -33.4688L57.0811 -48.7572C55.1986 -52.1264 50.3507 -52.1264 48.4682 -48.7572L39.8916 -33.4071C39.0561 -31.9118 39.0561 -30.0901 39.8916 -28.5948L48.4338 -13.3064C50.3162 -9.93718 55.1641 -9.93717 57.0466 -13.3064L65.6232 -28.6565ZM35.7866 78.9223C36.6221 77.427 36.6221 75.6054 35.7866 74.1101L27.2422 58.8176C25.3597 55.4484 20.5118 55.4484 18.6294 58.8176L10.041 74.1887C9.20551 75.684 9.20551 77.5057 10.041 79.001L18.5854 94.2935C20.4679 97.6627 25.3158 97.6627 27.1982 94.2935L35.7866 78.9223ZM35.811 25.1286C36.6465 23.6333 36.6465 21.8117 35.811 20.3164L27.2773 5.04309C25.3949 1.67391 20.547 1.67391 18.6645 5.04309L10.0957 20.3793C9.26021 21.8746 9.26021 23.6963 10.0957 25.1916L18.6293 40.4649C20.5118 43.834 25.3597 43.834 27.2422 40.4649L35.811 25.1286ZM35.8569 -28.6578C36.6923 -30.1531 36.6923 -31.9747 35.8569 -33.47L27.3144 -48.759C25.432 -52.1282 20.5841 -52.1282 18.7016 -48.759L10.1221 -33.4036C9.28661 -31.9083 9.28661 -30.0866 10.1221 -28.5913L18.6645 -13.3024C20.547 -9.93321 25.3949 -9.9332 27.2773 -13.3024L35.8569 -28.6578ZM6.02 78.9241C6.85547 77.4288 6.85547 75.6071 6.02 74.1118L-2.53028 58.8088C-4.41275 55.4396 -9.26064 55.4396 -11.1431 58.8088L-19.7373 74.1905C-20.5728 75.6858 -20.5728 77.5075 -19.7373 79.0028L-11.1871 94.3058C-9.30459 97.675 -4.4567 97.675 -2.57423 94.3058L6.02 78.9241ZM6.04147 25.1321C6.87695 23.6368 6.87695 21.8152 6.04147 20.3199L-2.49121 5.04834C-4.37368 1.67916 -9.22158 1.67915 -11.104 5.04834L-19.6758 20.3898C-20.5113 21.8851 -20.5113 23.7068 -19.6758 25.2021L-11.1431 40.4736C-9.26064 43.8428 -4.41275 43.8428 -2.53028 40.4736L6.04147 25.1321ZM6.08734 -28.6613C6.92281 -30.1566 6.92281 -31.9782 6.08734 -33.4735L-2.45508 -48.7625C-4.33755 -52.1317 -9.18544 -52.1317 -11.0679 -48.7625L-19.6465 -33.4089C-20.4819 -31.9136 -20.4819 -30.0919 -19.6465 -28.5966L-11.104 -13.3076C-9.22158 -9.93844 -4.37369 -9.93844 -2.49122 -13.3076L6.08734 -28.6613ZM-23.7583 78.9223C-22.9229 77.427 -22.9229 75.6054 -23.7583 74.1101L-32.2988 58.8246C-34.1813 55.4554 -39.0292 55.4554 -40.9117 58.8246L-49.4971 74.1905C-50.3326 75.6858 -50.3326 77.5075 -49.4971 79.0028L-40.9566 94.2883C-39.0741 97.6575 -34.2262 97.6575 -32.3438 94.2883L-23.7583 78.9223ZM-23.73 25.1216C-22.8945 23.6263 -22.8945 21.8047 -23.73 20.3094L-32.2617 5.03958C-34.1442 1.6704 -38.9921 1.67041 -40.8746 5.03959L-49.4434 20.3758C-50.2789 21.8711 -50.2789 23.6928 -49.4434 25.1881L-40.9117 40.4579C-39.0292 43.8271 -34.1813 43.8271 -32.2988 40.4579L-23.73 25.1216ZM-23.6812 -28.656C-22.8457 -30.1513 -22.8457 -31.973 -23.6812 -33.4683L-32.2246 -48.759C-34.1071 -52.1282 -38.955 -52.1282 -40.8374 -48.759L-49.418 -33.4019C-50.2534 -31.9066 -50.2534 -30.0849 -49.418 -28.5896L-40.8746 -13.2989C-38.9921 -9.92971 -34.1442 -9.92971 -32.2617 -13.2989L-23.6812 -28.656ZM-53.5181 78.9223C-52.6826 77.427 -52.6826 75.6054 -53.5181 74.1101L-62.0625 58.8176C-63.945 55.4484 -68.7929 55.4484 -70.6753 58.8176L-79.2647 74.1905C-80.1002 75.6858 -80.1002 77.5074 -79.2647 79.0027L-70.7203 94.2953C-68.8378 97.6644 -63.9899 97.6645 -62.1074 94.2953L-53.5181 78.9223ZM-53.4976 25.1356C-52.6621 23.6403 -52.6621 21.8187 -53.4976 20.3234L-62.0332 5.04658C-63.9157 1.67739 -68.7636 1.67739 -70.646 5.04658L-79.211 20.3758C-80.0464 21.8711 -80.0464 23.6928 -79.211 25.1881L-70.6753 40.4649C-68.7929 43.834 -63.945 43.834 -62.0625 40.4649L-53.4976 25.1356ZM-53.4527 -28.663C-52.6172 -30.1583 -52.6172 -31.98 -53.4527 -33.4753L-61.9912 -48.7572C-63.8737 -52.1264 -68.7216 -52.1264 -70.604 -48.7572L-79.1846 -33.4001C-80.02 -31.9048 -80.02 -30.0832 -79.1846 -28.5879L-70.646 -13.3059C-68.7636 -9.9367 -63.9157 -9.9367 -62.0332 -13.3059L-53.4527 -28.663ZM-90.963 -66.126C-92.8002 -62.8379 -90.4232 -58.7869 -86.6566 -58.7869H-75.7043C-71.9377 -58.7869 -69.5607 -62.8378 -71.3979 -66.126L-76.874 -75.927C-78.7565 -79.2962 -83.6044 -79.2962 -85.4869 -75.9271L-90.963 -66.126ZM-90.963 -49.7444C-92.8002 -53.0326 -90.4232 -57.0836 -86.6566 -57.0836H-75.7043C-71.9377 -57.0836 -69.5607 -53.0326 -71.3979 -49.7444L-76.874 -39.9434C-78.7565 -36.5743 -83.6044 -36.5742 -85.4869 -39.9434L-90.963 -49.7444ZM-85.5298 -22.1214C-83.6474 -25.4906 -78.7995 -25.4906 -76.917 -22.1214L-71.4409 -12.3204C-69.6036 -9.03224 -71.9806 -4.98127 -75.7473 -4.98127H-86.6996C-90.4662 -4.98127 -92.8432 -9.03223 -91.006 -12.3204L-85.5298 -22.1214ZM-91.006 4.06112C-92.8432 0.772922 -90.4662 -3.27803 -86.6996 -3.27803H-75.7473C-71.9806 -3.27803 -69.6036 0.77293 -71.4409 4.06112L-76.917 13.8621C-78.7995 17.2313 -83.6474 17.2313 -85.5298 13.8621L-91.006 4.06112ZM-85.5591 31.6493C-83.6767 28.2801 -78.8288 28.2801 -76.9463 31.6493L-71.4702 41.4503C-69.6329 44.7385 -72.0099 48.7895 -75.7766 48.7895H-86.7289C-90.4955 48.7895 -92.8725 44.7385 -91.0353 41.4503L-85.5591 31.6493ZM-91.0353 57.8321C-92.8725 54.5439 -90.4955 50.4929 -86.7289 50.4929H-75.7766C-72.0099 50.4929 -69.6329 54.5439 -71.4702 57.8321L-76.9463 67.6331C-78.8288 71.0023 -83.6767 71.0023 -85.5591 67.6331L-91.0353 57.8321ZM-85.604 85.4797C-83.7216 82.1105 -78.8737 82.1105 -76.9912 85.4797L-71.5151 95.2807C-69.6779 98.5689 -72.0549 102.62 -75.8215 102.62H-86.7738C-90.5404 102.62 -92.9174 98.5689 -91.0802 95.2807L-85.604 85.4797ZM-91.0802 111.662C-92.9174 108.374 -90.5404 104.323 -86.7738 104.323H-75.8215C-72.0549 104.323 -69.6779 108.374 -71.5151 111.662L-76.9912 121.463C-78.8737 124.832 -83.7216 124.832 -85.6041 121.463L-91.0802 111.662ZM-55.7212 -75.927C-53.8388 -79.2962 -48.9909 -79.2962 -47.1084 -75.9271L-41.6323 -66.126C-39.7951 -62.8379 -42.172 -58.7869 -45.9387 -58.7869H-56.891C-60.6576 -58.7869 -63.0346 -62.8378 -61.1974 -66.126L-55.7212 -75.927ZM-61.1974 -49.7444C-63.0346 -53.0326 -60.6576 -57.0836 -56.891 -57.0836H-45.9387C-42.172 -57.0836 -39.795 -53.0326 -41.6323 -49.7444L-47.1084 -39.9434C-48.9909 -36.5743 -53.8388 -36.5742 -55.7212 -39.9434L-61.1974 -49.7444ZM-55.7623 -22.1214C-53.8798 -25.4906 -49.0319 -25.4906 -47.1494 -22.1214L-41.6733 -12.3204C-39.8361 -9.03224 -42.2131 -4.98127 -45.9797 -4.98127H-56.932C-60.6986 -4.98127 -63.0756 -9.03223 -61.2384 -12.3204L-55.7623 -22.1214ZM-61.2384 4.06112C-63.0756 0.772922 -60.6986 -3.27803 -56.932 -3.27803H-45.9797C-42.2131 -3.27803 -39.8361 0.77293 -41.6733 4.06112L-47.1494 13.8621C-49.0319 17.2313 -53.8798 17.2313 -55.7623 13.8621L-61.2384 4.06112ZM-55.7915 31.6493C-53.9091 28.2801 -49.0612 28.2801 -47.1787 31.6493L-41.7026 41.4503C-39.8654 44.7385 -42.2424 48.7895 -46.009 48.7895H-56.9613C-60.7279 48.7895 -63.1049 44.7385 -61.2677 41.4503L-55.7915 31.6493ZM-61.2677 57.8321C-63.1049 54.5439 -60.7279 50.4929 -56.9613 50.4929H-46.009C-42.2423 50.4929 -39.8654 54.5439 -41.7026 57.8321L-47.1787 67.6331C-49.0612 71.0023 -53.9091 71.0023 -55.7915 67.6331L-61.2677 57.8321ZM-55.8365 85.4797C-53.954 82.1105 -49.1061 82.1105 -47.2236 85.4797L-41.7475 95.2807C-39.9103 98.5689 -42.2873 102.62 -46.0539 102.62H-57.0062C-60.7728 102.62 -63.1498 98.5689 -61.3126 95.2807L-55.8365 85.4797ZM-61.3126 111.662C-63.1498 108.374 -60.7728 104.323 -57.0062 104.323H-46.0539C-42.2873 104.323 -39.9103 108.374 -41.7475 111.662L-47.2236 121.463C-49.1061 124.832 -53.954 124.832 -55.8365 121.463L-61.3126 111.662ZM-25.9537 -75.927C-24.0712 -79.2962 -19.2233 -79.2962 -17.3408 -75.9271L-11.8647 -66.126C-10.0275 -62.8378 -12.4045 -58.7869 -16.1711 -58.7869H-27.1234C-30.89 -58.7869 -33.267 -62.8378 -31.4298 -66.126L-25.9537 -75.927ZM-31.4298 -49.7444C-33.267 -53.0326 -30.89 -57.0836 -27.1234 -57.0836H-16.1711C-12.4045 -57.0836 -10.0275 -53.0326 -11.8647 -49.7444L-17.3408 -39.9434C-19.2233 -36.5743 -24.0712 -36.5742 -25.9537 -39.9434L-31.4298 -49.7444ZM-25.9869 -22.1214C-24.1044 -25.4906 -19.2565 -25.4906 -17.374 -22.1214L-11.8979 -12.3204C-10.0607 -9.03224 -12.4377 -4.98127 -16.2043 -4.98127H-27.1566C-30.9232 -4.98127 -33.3002 -9.03223 -31.463 -12.3204L-25.9869 -22.1214ZM-31.463 4.06112C-33.3002 0.772922 -30.9232 -3.27803 -27.1566 -3.27803H-16.2043C-12.4377 -3.27803 -10.0607 0.77293 -11.8979 4.06112L-17.374 13.8621C-19.2565 17.2313 -24.1044 17.2313 -25.9869 13.8621L-31.463 4.06112ZM-26.0318 31.6493C-24.1493 28.2801 -19.3014 28.2801 -17.419 31.6493L-11.9428 41.4503C-10.1056 44.7385 -12.4826 48.7895 -16.2492 48.7895H-27.2015C-30.9681 48.7895 -33.3451 44.7385 -31.5079 41.4503L-26.0318 31.6493ZM-31.5079 57.8321C-33.3451 54.5439 -30.9681 50.4929 -27.2015 50.4929H-16.2492C-12.4826 50.4929 -10.1056 54.5439 -11.9428 57.8321L-17.419 67.6331C-19.3014 71.0023 -24.1493 71.0023 -26.0318 67.6331L-31.5079 57.8321ZM-26.0767 85.4797C-24.1942 82.1105 -19.3463 82.1105 -17.4639 85.4797L-11.9877 95.2807C-10.1505 98.5689 -12.5275 102.62 -16.2942 102.62H-27.2464C-31.0131 102.62 -33.3901 98.5689 -31.5528 95.2807L-26.0767 85.4797ZM-31.5528 111.662C-33.3901 108.374 -31.0131 104.323 -27.2464 104.323H-16.2941C-12.5275 104.323 -10.1505 108.374 -11.9877 111.662L-17.4639 121.463C-19.3463 124.832 -24.1942 124.832 -26.0767 121.463L-31.5528 111.662ZM3.81782 -75.927C5.70029 -79.2962 10.5482 -79.2962 12.4307 -75.9271L17.9068 -66.126C19.744 -62.8378 17.367 -58.7869 13.6004 -58.7869H2.6481C-1.11854 -58.7869 -3.49553 -62.8378 -1.65831 -66.126L3.81782 -75.927ZM-1.65831 -49.7444C-3.49553 -53.0326 -1.11854 -57.0836 2.6481 -57.0836H13.6004C17.367 -57.0836 19.744 -53.0326 17.9068 -49.7444L12.4307 -39.9434C10.5482 -36.5743 5.70029 -36.5742 3.81783 -39.9434L-1.65831 -49.7444ZM3.77876 -22.1214C5.66122 -25.4906 10.5091 -25.4906 12.3916 -22.1214L17.8677 -12.3204C19.7049 -9.03224 17.328 -4.98127 13.5613 -4.98127H2.60904C-1.1576 -4.98127 -3.53459 -9.03223 -1.69737 -12.3204L3.77876 -22.1214ZM-1.69737 4.06113C-3.53459 0.772938 -1.1576 -3.27803 2.60904 -3.27803H13.5613C17.328 -3.27803 19.7049 0.77293 17.8677 4.06112L12.3916 13.8621C10.5091 17.2313 5.66123 17.2313 3.77876 13.8621L-1.69737 4.06113ZM3.74555 31.6493C5.62802 28.2801 10.4759 28.2801 12.3584 31.6493L17.8345 41.4503C19.6718 44.7385 17.2948 48.7895 13.5281 48.7895H2.57584C-1.1908 48.7895 -3.56779 44.7385 -1.73058 41.4503L3.74555 31.6493ZM-1.73058 57.8321C-3.56779 54.5439 -1.1908 50.4929 2.57584 50.4929H13.5281C17.2948 50.4929 19.6717 54.5439 17.8345 57.8321L12.3584 67.6331C10.4759 71.0023 5.62803 71.0023 3.74556 67.6331L-1.73058 57.8321ZM3.70258 85.4797C5.58505 82.1105 10.433 82.1105 12.3154 85.4797L17.7916 95.2807C19.6288 98.5689 17.2518 102.62 13.4851 102.62H2.53287C-1.23377 102.62 -3.61076 98.5689 -1.77354 95.2807L3.70258 85.4797ZM-1.77354 111.662C-3.61076 108.374 -1.23377 104.323 2.53287 104.323H13.4852C17.2518 104.323 19.6288 108.374 17.7916 111.662L12.3154 121.463C10.433 124.832 5.58506 124.832 3.70259 121.463L-1.77354 111.662ZM33.5854 -75.927C35.4679 -79.2962 40.3158 -79.2962 42.1982 -75.9271L47.6744 -66.126C49.5116 -62.8378 47.1346 -58.7869 43.368 -58.7869H32.4157C28.649 -58.7869 26.272 -62.8378 28.1093 -66.126L33.5854 -75.927ZM28.1093 -49.7444C26.272 -53.0326 28.649 -57.0836 32.4157 -57.0836H43.368C47.1346 -57.0836 49.5116 -53.0326 47.6744 -49.7444L42.1982 -39.9434C40.3158 -36.5742 35.4679 -36.5742 33.5854 -39.9434L28.1093 -49.7444ZM33.5502 -22.1214C35.4327 -25.4906 40.2806 -25.4906 42.1631 -22.1214L47.6392 -12.3204C49.4764 -9.03224 47.0994 -4.98127 43.3328 -4.98127H32.3805C28.6139 -4.98127 26.2369 -9.03223 28.0741 -12.3204L33.5502 -22.1214ZM28.0741 4.06113C26.2369 0.772938 28.6139 -3.27803 32.3805 -3.27803H43.3328C47.0994 -3.27803 49.4764 0.77293 47.6392 4.06112L42.1631 13.8621C40.2806 17.2313 35.4327 17.2313 33.5502 13.8621L28.0741 4.06113ZM33.5131 31.6493C35.3956 28.2801 40.2435 28.2801 42.126 31.6493L47.6021 41.4503C49.4393 44.7385 47.0623 48.7895 43.2957 48.7895H32.3434C28.5768 48.7895 26.1998 44.7385 28.037 41.4503L33.5131 31.6493ZM28.037 57.8321C26.1998 54.5439 28.5768 50.4929 32.3434 50.4929H43.2957C47.0623 50.4929 49.4393 54.5439 47.6021 57.8321L42.126 67.6331C40.2435 71.0023 35.3956 71.0023 33.5131 67.6331L28.037 57.8321ZM33.4682 85.4797C35.3507 82.1105 40.1986 82.1105 42.081 85.4797L47.5572 95.2807C49.3944 98.5689 47.0174 102.62 43.2508 102.62H32.2985C28.5319 102.62 26.1549 98.5689 27.9921 95.2807L33.4682 85.4797ZM27.9921 111.662C26.1549 108.374 28.5319 104.323 32.2985 104.323H43.2508C47.0174 104.323 49.3944 108.374 47.5572 111.662L42.0811 121.463C40.1986 124.832 35.3507 124.832 33.4682 121.463L27.9921 111.662ZM63.351 -75.927C65.2335 -79.2962 70.0814 -79.2962 71.9639 -75.9271L77.44 -66.126C79.2772 -62.8378 76.9002 -58.7869 73.1336 -58.7869H62.1813C58.4147 -58.7869 56.0377 -62.8378 57.8749 -66.126L63.351 -75.927ZM57.8749 -49.7444C56.0377 -53.0326 58.4147 -57.0836 62.1813 -57.0836H73.1336C76.9002 -57.0836 79.2772 -53.0326 77.44 -49.7444L71.9639 -39.9434C70.0814 -36.5742 65.2335 -36.5742 63.351 -39.9434L57.8749 -49.7444ZM93.3452 -75.927C95.2276 -79.2962 100.076 -79.2962 101.958 -75.9271L107.434 -66.126C109.271 -62.8378 106.894 -58.7869 103.128 -58.7869H92.1754C88.4088 -58.7869 86.0318 -62.8378 87.869 -66.126L93.3452 -75.927ZM87.869 -49.7444C86.0318 -53.0326 88.4088 -57.0836 92.1754 -57.0836H103.128C106.894 -57.0836 109.271 -53.0326 107.434 -49.7444L101.958 -39.9434C100.076 -36.5742 95.2276 -36.5742 93.3452 -39.9434L87.869 -49.7444ZM123.335 -75.927C125.218 -79.2962 130.066 -79.2962 131.948 -75.9271L137.424 -66.126C139.262 -62.8378 136.885 -58.7869 133.118 -58.7869H122.166C118.399 -58.7869 116.022 -62.8378 117.859 -66.126L123.335 -75.927ZM117.859 -49.7444C116.022 -53.0326 118.399 -57.0836 122.166 -57.0836H133.118C136.885 -57.0836 139.262 -53.0326 137.424 -49.7444L131.948 -39.9434C130.066 -36.5742 125.218 -36.5742 123.335 -39.9434L117.859 -49.7444ZM63.3178 -22.1224C65.2003 -25.4916 70.0482 -25.4916 71.9306 -22.1224L77.4068 -12.3214C79.244 -9.03318 76.867 -4.98222 73.1004 -4.98222H62.1481C58.3815 -4.98222 56.0045 -9.03318 57.8417 -12.3214L63.3178 -22.1224ZM57.8417 4.06022C56.0045 0.77203 58.3815 -3.27893 62.1481 -3.27893H73.1004C76.867 -3.27893 79.244 0.772022 77.4068 4.06021L71.9307 13.8612C70.0482 17.2304 65.2003 17.2304 63.3178 13.8612L57.8417 4.06022ZM93.312 -22.1214C95.1944 -25.4906 100.042 -25.4906 101.925 -22.1214L107.401 -12.3204C109.238 -9.03224 106.861 -4.98127 103.095 -4.98127H92.1422C88.3756 -4.98127 85.9986 -9.03223 87.8358 -12.3204L93.312 -22.1214ZM87.8358 4.06113C85.9986 0.772938 88.3756 -3.27803 92.1422 -3.27803H103.095C106.861 -3.27803 109.238 0.77293 107.401 4.06112L101.925 13.8621C100.042 17.2313 95.1944 17.2313 93.312 13.8621L87.8358 4.06113ZM123.294 -22.1214C125.177 -25.4906 130.025 -25.4906 131.907 -22.1214L137.383 -12.3204C139.221 -9.03224 136.844 -4.98127 133.077 -4.98127H122.125C118.358 -4.98127 115.981 -9.03223 117.818 -12.3204L123.294 -22.1214ZM117.818 4.06113C115.981 0.772938 118.358 -3.27803 122.125 -3.27803H133.077C136.844 -3.27803 139.221 0.77293 137.383 4.06112L131.907 13.8621C130.025 17.2313 125.177 17.2313 123.294 13.8621L117.818 4.06113ZM63.2729 31.6493C65.1554 28.2801 70.0033 28.2801 71.8857 31.6493L77.3619 41.4503C79.1991 44.7385 76.8221 48.7895 73.0555 48.7895H62.1032C58.3365 48.7895 55.9595 44.7385 57.7968 41.4503L63.2729 31.6493ZM57.7968 57.8321C55.9595 54.5439 58.3365 50.4929 62.1032 50.4929H73.0555C76.8221 50.4929 79.1991 54.5439 77.3619 57.8321L71.8857 67.6331C70.0033 71.0023 65.1554 71.0023 63.2729 67.6331L57.7968 57.8321ZM93.2651 31.6493C95.1476 28.2801 99.9955 28.2801 101.878 31.6493L107.354 41.4503C109.191 44.7385 106.814 48.7895 103.048 48.7895H92.0954C88.3287 48.7895 85.9517 44.7385 87.789 41.4503L93.2651 31.6493ZM87.789 57.8321C85.9517 54.5439 88.3287 50.4929 92.0954 50.4929H103.048C106.814 50.4929 109.191 54.5439 107.354 57.8321L101.878 67.6331C99.9954 71.0023 95.1476 71.0023 93.2651 67.6331L87.789 57.8321ZM123.251 31.6493C125.134 28.2801 129.982 28.2801 131.864 31.6493L137.34 41.4503C139.178 44.7385 136.801 48.7895 133.034 48.7895H122.082C118.315 48.7895 115.938 44.7385 117.775 41.4503L123.251 31.6493ZM117.775 57.8321C115.938 54.5439 118.315 50.4929 122.082 50.4929H133.034C136.801 50.4929 139.178 54.5439 137.34 57.8321L131.864 67.6331C129.982 71.0023 125.134 71.0023 123.251 67.6331L117.775 57.8321ZM63.2417 85.4797C65.1241 82.1105 69.972 82.1105 71.8545 85.4797L77.3306 95.2807C79.1678 98.5689 76.7908 102.62 73.0242 102.62H62.0719C58.3053 102.62 55.9283 98.5689 57.7655 95.2807L63.2417 85.4797ZM57.7655 111.662C55.9283 108.374 58.3053 104.323 62.0719 104.323H73.0242C76.7908 104.323 79.1678 108.374 77.3306 111.662L71.8545 121.463C69.972 124.832 65.1241 124.832 63.2417 121.463L57.7655 111.662ZM93.2299 85.4797C95.1124 82.1105 99.9603 82.1105 101.843 85.4797L107.319 95.2807C109.156 98.5689 106.779 102.62 103.012 102.62H92.0602C88.2936 102.62 85.9166 98.5689 87.7538 95.2807L93.2299 85.4797ZM87.7538 111.662C85.9166 108.374 88.2936 104.323 92.0602 104.323H103.012C106.779 104.323 109.156 108.374 107.319 111.662L101.843 121.463C99.9603 124.832 95.1124 124.832 93.2299 121.463L87.7538 111.662ZM123.216 85.4797C125.099 82.1105 129.947 82.1105 131.829 85.4797L137.305 95.2807C139.142 98.5689 136.765 102.62 132.999 102.62H122.047C118.28 102.62 115.903 98.5689 117.74 95.2807L123.216 85.4797ZM117.74 111.662C115.903 108.374 118.28 104.323 122.047 104.323H132.999C136.765 104.323 139.142 108.374 137.305 111.662L131.829 121.463C129.947 124.832 125.099 124.832 123.216 121.463L117.74 111.662Z" fill="white"/>
</g>
</svg>
