<svg width="46" height="46" viewBox="0 0 46 46" fill="none" xmlns="http://www.w3.org/2000/svg">
<mask id="mask0_442_732" style="mask-type:alpha" maskUnits="userSpaceOnUse" x="0" y="0" width="46" height="46">
<rect x="0.847891" y="0.304922" width="44.562" height="44.562" fill="white" stroke="#FF0000" stroke-width="0.437969"/>
</mask>
<g mask="url(#mask0_442_732)">
<path fill-rule="evenodd" clip-rule="evenodd" d="M-46.1016 -46.6338H91.9273V-38.4504C91.672 -42.9857 87.9135 -46.5847 83.3143 -46.5847C78.6093 -46.5847 74.7841 -42.8181 74.6893 -38.1358C74.5945 -42.8181 70.7693 -46.5847 66.0643 -46.5847C61.2999 -46.5847 57.4375 -42.7223 57.4375 -37.9579C57.4375 -33.1934 61.2999 -29.3311 66.0643 -29.3311C70.7693 -29.3311 74.5945 -33.0976 74.6893 -37.7799C74.7841 -33.0976 78.6093 -29.3311 83.3143 -29.3311C87.9135 -29.3311 91.672 -32.93 91.9273 -37.4653V-21.1921C91.672 -25.7274 87.9135 -29.3264 83.3143 -29.3264C78.6093 -29.3264 74.7841 -25.5598 74.6893 -20.8776C74.5945 -25.5598 70.7693 -29.3264 66.0643 -29.3264C61.2999 -29.3264 57.4375 -25.464 57.4375 -20.6996C57.4375 -16.0922 61.0494 -12.3284 65.5962 -12.0853C61.0494 -11.8421 57.4375 -8.07835 57.4375 -3.47094C57.4375 1.29351 61.2999 5.15586 66.0643 5.15586C70.7693 5.15586 74.5945 1.38936 74.6893 -3.2929C74.784 1.3894 78.6093 5.15596 83.3143 5.15596C87.9135 5.15596 91.672 1.55697 91.9273 -2.97831V13.2949C91.672 8.75962 87.9135 5.16064 83.3143 5.16064C78.6093 5.16064 74.7841 8.92717 74.6893 13.6095C74.5945 8.92717 70.7693 5.16064 66.0643 5.16064C61.2999 5.16064 57.4375 9.02299 57.4375 13.7874C57.4375 18.4838 61.1902 22.3036 65.8605 22.4119C61.1902 22.5202 57.4375 26.34 57.4375 31.0363C57.4375 35.8008 61.2999 39.6631 66.0643 39.6631C70.7693 39.6631 74.5945 35.8966 74.6893 31.2143C74.7841 35.8966 78.6093 39.6631 83.3143 39.6631C87.9135 39.6631 91.672 36.0641 91.9273 31.5289V47.8021C91.672 43.2668 87.9135 39.6678 83.3143 39.6678C78.6093 39.6678 74.7841 43.4343 74.6893 48.1166C74.5945 43.4343 70.7693 39.6678 66.0643 39.6678C61.2999 39.6678 57.4375 43.5302 57.4375 48.2946C57.4375 52.9286 61.0913 56.7092 65.6751 56.9128C61.0913 57.1163 57.4375 60.897 57.4375 65.531C57.4375 70.2954 61.2999 74.1578 66.0643 74.1578C70.7693 74.1578 74.5945 70.3912 74.6893 65.7089C74.7841 70.3912 78.6093 74.1578 83.3143 74.1578C87.9135 74.1578 91.672 70.5588 91.9273 66.0235V82.2967C91.672 77.7614 87.9135 74.1624 83.3143 74.1624C78.6093 74.1624 74.7841 77.929 74.6893 82.6113C74.5945 77.929 70.7693 74.1624 66.0643 74.1624C61.2999 74.1624 57.4375 78.0248 57.4375 82.7892C57.4375 87.3498 60.9763 91.0838 65.4577 91.3951H49.4131C53.8945 91.0838 57.4333 87.3498 57.4333 82.7892C57.4333 78.0248 53.5709 74.1624 48.8065 74.1624C44.1015 74.1624 40.2763 77.929 40.1815 82.6113C40.0867 77.929 36.2615 74.1624 31.5565 74.1624C26.792 74.1624 22.9297 78.0248 22.9297 82.7892C22.9297 87.3498 26.4685 91.0838 30.9499 91.3951H14.9092C19.3906 91.0838 22.9294 87.3498 22.9294 82.7892C22.9294 78.0248 19.067 74.1624 14.3026 74.1624C9.59763 74.1624 5.7724 77.9289 5.67759 82.6112C5.58277 77.9289 1.75753 74.1624 -2.94742 74.1624C-7.71187 74.1624 -11.5742 78.0248 -11.5742 82.7892C-11.5742 87.3498 -8.03543 91.0838 -3.55402 91.3951H-19.6025C-15.1211 91.0838 -11.5823 87.3498 -11.5823 82.7892C-11.5823 78.0248 -15.4447 74.1624 -20.2091 74.1624C-24.9141 74.1624 -28.7393 77.9289 -28.8341 82.6112C-28.9289 77.9289 -32.7542 74.1624 -37.4591 74.1624C-42.2236 74.1624 -46.0859 78.0248 -46.0859 82.7892C-46.0859 87.3498 -42.5471 91.0838 -38.0657 91.3951H-46.1016V-46.6338ZM74.6893 65.353C74.7814 60.8005 78.4001 57.1137 82.925 56.9128C78.4001 56.7119 74.7814 53.0251 74.6893 48.4726C74.5972 53.0251 70.9785 56.7119 66.4535 56.9128C70.9785 57.1137 74.5972 60.8005 74.6893 65.353ZM91.9273 65.0384C91.6792 60.6318 88.1238 57.1091 83.7036 56.9128C88.1238 56.7165 91.6792 53.1938 91.9273 48.7871V65.0384ZM74.6893 82.9672C74.5986 87.4466 71.0939 91.0878 66.6709 91.3951H82.7077C78.2847 91.0878 74.78 87.4466 74.6893 82.9672ZM83.9209 91.3951H91.9273V83.2818C91.6833 87.616 88.2399 91.095 83.9209 91.3951ZM40.1815 82.9672C40.0908 87.4466 36.5861 91.0878 32.1631 91.3951H48.1999C43.7769 91.0878 40.2721 87.4466 40.1815 82.9672ZM74.6893 30.8583C74.7827 26.2439 78.4994 22.5188 83.1105 22.4119C78.4993 22.305 74.7827 18.5799 74.6893 13.9654C74.5959 18.5799 70.8793 22.305 66.2681 22.4119C70.8792 22.5188 74.5959 26.2439 74.6893 30.8583ZM91.9273 30.5438C91.6758 26.0757 88.024 22.5164 83.5181 22.4119C88.024 22.3074 91.6758 18.7481 91.9273 14.28V30.5438ZM5.67759 82.9673C5.58688 87.4466 2.08212 91.0878 -2.34082 91.3951H13.696C9.27304 91.0878 5.76828 87.4466 5.67759 82.9673ZM-28.8341 82.9673C-28.9248 87.4466 -32.4296 91.0878 -36.8525 91.3951H-20.8157C-25.2387 91.0878 -28.7434 87.4466 -28.8341 82.9673ZM74.6893 -3.64888C74.7809 -8.17515 78.3586 -11.8457 82.8471 -12.0852C78.3586 -12.3247 74.7809 -15.9953 74.6893 -20.5216C74.5977 -15.9956 71.0205 -12.3252 66.5324 -12.0853C71.0205 -11.8453 74.5977 -8.1749 74.6893 -3.64888ZM91.9273 -3.96338C91.6807 -8.34409 88.1655 -11.8512 83.7815 -12.0852C88.1656 -12.3192 91.6807 -15.8263 91.9273 -20.207V-3.96338ZM-36.9911 -12.0853C-32.503 -11.8453 -28.9258 -8.17495 -28.8341 -3.64897C-28.7425 -8.17521 -25.1648 -11.8457 -20.6763 -12.0852C-25.1648 -12.3247 -28.7425 -15.9952 -28.8341 -20.5215C-28.9258 -15.9955 -32.503 -12.3252 -36.9911 -12.0853ZM-28.8341 -3.29281C-28.7393 1.38945 -24.9141 5.15596 -20.2091 5.15596C-15.4447 5.15596 -11.5823 1.29361 -11.5823 -3.47084C-11.5823 -8.07856 -15.1947 -11.8425 -19.742 -12.0852C-15.1947 -12.3279 -11.5823 -16.0919 -11.5823 -20.6996C-11.5823 -25.464 -15.4447 -29.3264 -20.2091 -29.3264C-24.9141 -29.3264 -28.7393 -25.5599 -28.8341 -20.8777C-28.9289 -25.5599 -32.7542 -29.3264 -37.4591 -29.3264C-42.2236 -29.3264 -46.0859 -25.464 -46.0859 -20.6996C-46.0859 -16.0922 -42.474 -12.3284 -37.9272 -12.0853C-42.474 -11.8421 -46.0859 -8.07835 -46.0859 -3.47094C-46.0859 1.29351 -42.2236 5.15586 -37.4591 5.15586C-32.7542 5.15586 -28.929 1.38941 -28.8341 -3.29281ZM-11.5823 -37.9579C-11.5823 -33.1934 -15.4447 -29.3311 -20.2091 -29.3311C-24.9141 -29.3311 -28.7393 -33.0975 -28.8341 -37.7798C-28.9289 -33.0975 -32.7542 -29.3311 -37.4591 -29.3311C-42.2236 -29.3311 -46.0859 -33.1934 -46.0859 -37.9579C-46.0859 -42.7223 -42.2236 -46.5847 -37.4591 -46.5847C-32.7542 -46.5847 -28.9289 -42.8182 -28.8341 -38.1359C-28.7393 -42.8182 -24.9141 -46.5847 -20.2091 -46.5847C-15.4447 -46.5847 -11.5823 -42.7223 -11.5823 -37.9579ZM-2.47934 -12.0853C2.00875 -11.8453 5.58596 -8.17495 5.67759 -3.64897C5.76926 -8.17521 9.34693 -11.8457 13.8354 -12.0852C9.34691 -12.3247 5.76924 -15.9952 5.67759 -20.5215C5.58594 -15.9955 2.00874 -12.3252 -2.47934 -12.0853ZM5.67758 -3.29281C5.77237 1.38945 9.59762 5.15596 14.3026 5.15596C19.067 5.15596 22.9294 1.29361 22.9294 -3.47084C22.9294 -8.07856 19.317 -11.8425 14.7698 -12.0852C19.317 -12.3279 22.9294 -16.0919 22.9294 -20.6996C22.9294 -25.464 19.067 -29.3264 14.3026 -29.3264C9.59763 -29.3264 5.7724 -25.5599 5.67759 -20.8777C5.58277 -25.5599 1.75753 -29.3264 -2.94742 -29.3264C-7.71187 -29.3264 -11.5742 -25.464 -11.5742 -20.6996C-11.5742 -16.0922 -7.96229 -12.3284 -3.4155 -12.0853C-7.96229 -11.8421 -11.5742 -8.07835 -11.5742 -3.47094C-11.5742 1.29351 -7.71187 5.15586 -2.94742 5.15586C1.75752 5.15586 5.58274 1.38941 5.67758 -3.29281ZM22.9294 -37.9579C22.9294 -33.1934 19.067 -29.3311 14.3026 -29.3311C9.59763 -29.3311 5.7724 -33.0975 5.67758 -37.7798C5.58277 -33.0975 1.75753 -29.3311 -2.94742 -29.3311C-7.71187 -29.3311 -11.5742 -33.1934 -11.5742 -37.9579C-11.5742 -42.7223 -7.71187 -46.5847 -2.94742 -46.5847C1.75753 -46.5847 5.58277 -42.8182 5.67758 -38.1359C5.7724 -42.8182 9.59763 -46.5847 14.3026 -46.5847C19.067 -46.5847 22.9294 -42.7223 22.9294 -37.9579ZM-37.2553 22.4119C-32.6442 22.5188 -28.9276 26.2438 -28.8341 30.8582C-28.7407 26.2438 -25.0241 22.5188 -20.4129 22.4119C-25.0241 22.305 -28.7407 18.58 -28.8341 13.9655C-28.9276 18.58 -32.6442 22.305 -37.2553 22.4119ZM-28.8341 31.2144C-28.7393 35.8967 -24.9141 39.6631 -20.2091 39.6631C-15.4447 39.6631 -11.5823 35.8008 -11.5823 31.0363C-11.5823 26.34 -15.335 22.5202 -20.0053 22.4119C-15.335 22.3036 -11.5823 18.4838 -11.5823 13.7874C-11.5823 9.02299 -15.4447 5.16064 -20.2091 5.16064C-24.9141 5.16064 -28.7393 8.92712 -28.8341 13.6094C-28.9289 8.92712 -32.7542 5.16064 -37.4591 5.16064C-42.2236 5.16064 -46.0859 9.02299 -46.0859 13.7874C-46.0859 18.4838 -42.3332 22.3036 -37.6629 22.4119C-42.3332 22.5202 -46.0859 26.34 -46.0859 31.0363C-46.0859 35.8008 -42.2236 39.6631 -37.4591 39.6631C-32.7542 39.6631 -28.9289 35.8967 -28.8341 31.2144ZM-2.74362 22.4119C1.8675 22.5188 5.58412 26.2438 5.67758 30.8582C5.77102 26.2438 9.48766 22.5188 14.0988 22.4119C9.48765 22.305 5.77103 18.58 5.67759 13.9655C5.58414 18.58 1.86752 22.305 -2.74362 22.4119ZM5.67758 31.2144C5.7724 35.8967 9.59763 39.6631 14.3026 39.6631C19.067 39.6631 22.9294 35.8008 22.9294 31.0363C22.9294 26.34 19.1767 22.5202 14.5064 22.4119C19.1767 22.3036 22.9294 18.4838 22.9294 13.7874C22.9294 9.02299 19.067 5.16064 14.3026 5.16064C9.59763 5.16064 5.7724 8.92712 5.67759 13.6094C5.58277 8.92712 1.75753 5.16064 -2.94742 5.16064C-7.71187 5.16064 -11.5742 9.02299 -11.5742 13.7874C-11.5742 18.4838 -7.82153 22.3036 -3.15122 22.4119C-7.82153 22.5202 -11.5742 26.34 -11.5742 31.0363C-11.5742 35.8008 -7.71187 39.6631 -2.94742 39.6631C1.75753 39.6631 5.58277 35.8967 5.67758 31.2144ZM32.0246 -12.0853C36.5127 -11.8453 40.0899 -8.1749 40.1815 -3.64888C40.2731 -8.17515 43.8508 -11.8457 48.3393 -12.0852C43.8508 -12.3247 40.2731 -15.9953 40.1815 -20.5216C40.0899 -15.9956 36.5127 -12.3252 32.0246 -12.0853ZM40.1815 -3.2929C40.2762 1.3894 44.1015 5.15596 48.8065 5.15596C53.5709 5.15596 57.4333 1.29361 57.4333 -3.47084C57.4333 -8.07856 53.8209 -11.8425 49.2737 -12.0852C53.8209 -12.3279 57.4333 -16.0919 57.4333 -20.6996C57.4333 -25.464 53.5709 -29.3264 48.8065 -29.3264C44.1015 -29.3264 40.2763 -25.5598 40.1815 -20.8776C40.0867 -25.5598 36.2615 -29.3264 31.5565 -29.3264C26.792 -29.3264 22.9297 -25.464 22.9297 -20.6996C22.9297 -16.0922 26.5416 -12.3284 31.0884 -12.0853C26.5416 -11.8421 22.9297 -8.07835 22.9297 -3.47094C22.9297 1.29351 26.792 5.15586 31.5565 5.15586C36.2615 5.15586 40.0867 1.38936 40.1815 -3.2929ZM57.4333 -37.9579C57.4333 -33.1934 53.5709 -29.3311 48.8065 -29.3311C44.1015 -29.3311 40.2763 -33.0976 40.1815 -37.7799C40.0867 -33.0976 36.2615 -29.3311 31.5565 -29.3311C26.792 -29.3311 22.9297 -33.1934 22.9297 -37.9579C22.9297 -42.7223 26.792 -46.5847 31.5565 -46.5847C36.2615 -46.5847 40.0867 -42.8181 40.1815 -38.1358C40.2763 -42.8181 44.1015 -46.5847 48.8065 -46.5847C53.5709 -46.5847 57.4333 -42.7223 57.4333 -37.9579ZM31.7603 22.4119C36.3714 22.5188 40.0881 26.2439 40.1815 30.8583C40.2749 26.2439 43.9915 22.5188 48.6027 22.4119C43.9915 22.305 40.2749 18.5799 40.1815 13.9654C40.0881 18.5799 36.3715 22.305 31.7603 22.4119ZM40.1815 31.2143C40.2763 35.8966 44.1015 39.6631 48.8065 39.6631C53.5709 39.6631 57.4333 35.8008 57.4333 31.0363C57.4333 26.34 53.6806 22.5202 49.0103 22.4119C53.6806 22.3036 57.4333 18.4838 57.4333 13.7874C57.4333 9.02299 53.5709 5.16064 48.8065 5.16064C44.1015 5.16064 40.2763 8.92717 40.1815 13.6095C40.0867 8.92717 36.2615 5.16064 31.5565 5.16064C26.792 5.16064 22.9297 9.02299 22.9297 13.7874C22.9297 18.4838 26.6824 22.3036 31.3527 22.4119C26.6824 22.5202 22.9297 26.34 22.9297 31.0363C22.9297 35.8008 26.792 39.6631 31.5565 39.6631C36.2615 39.6631 40.0867 35.8966 40.1815 31.2143ZM-37.0699 56.9128C-32.5449 57.1137 -28.9263 60.8004 -28.8341 65.3529C-28.742 60.8004 -25.1233 57.1137 -20.5984 56.9128C-25.1233 56.7119 -28.742 53.0251 -28.8341 48.4727C-28.9263 53.0251 -32.5449 56.7119 -37.0699 56.9128ZM-28.8341 65.709C-28.7393 70.3913 -24.9141 74.1578 -20.2091 74.1578C-15.4447 74.1578 -11.5823 70.2954 -11.5823 65.531C-11.5823 60.897 -15.2361 57.1163 -19.8199 56.9128C-15.2361 56.7092 -11.5823 52.9286 -11.5823 48.2946C-11.5823 43.5302 -15.4447 39.6678 -20.2091 39.6678C-24.9141 39.6678 -28.7393 43.4343 -28.8341 48.1165C-28.9289 43.4343 -32.7542 39.6678 -37.4591 39.6678C-42.2236 39.6678 -46.0859 43.5302 -46.0859 48.2946C-46.0859 52.9286 -42.4322 56.7092 -37.8484 56.9128C-42.4322 57.1163 -46.0859 60.897 -46.0859 65.531C-46.0859 70.2954 -42.2236 74.1578 -37.4591 74.1578C-32.7542 74.1578 -28.9289 70.3913 -28.8341 65.709ZM-2.55817 56.9128C1.96678 57.1137 5.58539 60.8004 5.67758 65.3529C5.76977 60.8004 9.38838 57.1137 13.9133 56.9128C9.38839 56.7119 5.76977 53.0251 5.67759 48.4727C5.5854 53.0251 1.96677 56.7119 -2.55817 56.9128ZM5.67758 65.709C5.7724 70.3913 9.59763 74.1578 14.3026 74.1578C19.067 74.1578 22.9294 70.2954 22.9294 65.531C22.9294 60.897 19.2756 57.1163 14.6918 56.9128C19.2756 56.7092 22.9294 52.9286 22.9294 48.2946C22.9294 43.5302 19.067 39.6678 14.3026 39.6678C9.59763 39.6678 5.7724 43.4343 5.67759 48.1165C5.58277 43.4343 1.75753 39.6678 -2.94742 39.6678C-7.71187 39.6678 -11.5742 43.5302 -11.5742 48.2946C-11.5742 52.9286 -7.92046 56.7092 -3.33666 56.9128C-7.92046 57.1163 -11.5742 60.897 -11.5742 65.531C-11.5742 70.2954 -7.71187 74.1578 -2.94742 74.1578C1.75753 74.1578 5.58277 70.3913 5.67758 65.709ZM31.9457 56.9128C36.4707 57.1137 40.0893 60.8005 40.1815 65.353C40.2736 60.8005 43.8923 57.1137 48.4172 56.9128C43.8923 56.7119 40.2736 53.0251 40.1815 48.4726C40.0893 53.0251 36.4707 56.7119 31.9457 56.9128ZM40.1815 65.7089C40.2763 70.3912 44.1015 74.1578 48.8065 74.1578C53.5709 74.1578 57.4333 70.2954 57.4333 65.531C57.4333 60.897 53.7795 57.1163 49.1957 56.9128C53.7795 56.7092 57.4333 52.9286 57.4333 48.2946C57.4333 43.5302 53.5709 39.6678 48.8065 39.6678C44.1015 39.6678 40.2763 43.4343 40.1815 48.1166C40.0867 43.4343 36.2615 39.6678 31.5565 39.6678C26.792 39.6678 22.9297 43.5302 22.9297 48.2946C22.9297 52.9286 26.5834 56.7092 31.1672 56.9128C26.5834 57.1163 22.9297 60.897 22.9297 65.531C22.9297 70.2954 26.792 74.1578 31.5565 74.1578C36.2615 74.1578 40.0867 70.3912 40.1815 65.7089Z" fill="white"/>
</g>
</svg>
