<svg width="45" height="45" viewBox="0 0 45 45" fill="none" xmlns="http://www.w3.org/2000/svg">
<mask id="mask0_442_955" style="mask-type:alpha" maskUnits="userSpaceOnUse" x="0" y="0" width="45" height="45">
<rect x="0.5" y="0.5" width="44" height="44" fill="#4200FF" stroke="#FF0000"/>
</mask>
<g mask="url(#mask0_442_955)">
<line x1="-221.057" y1="56.9199" x2="10.9532" y2="-175.09" stroke="white"/>
<line x1="-193.83" y1="69.5312" x2="38.1798" y2="-162.479" stroke="white"/>
<line x1="-166.596" y1="82.1513" x2="65.4142" y2="-149.859" stroke="white"/>
<line x1="-139.365" y1="94.7783" x2="92.6446" y2="-137.232" stroke="white"/>
<line x1="-112.135" y1="107.397" x2="119.875" y2="-124.613" stroke="white"/>
<line x1="-84.9082" y1="120.01" x2="147.102" y2="-112" stroke="white"/>
<line x1="-57.6778" y1="132.637" x2="174.332" y2="-99.3733" stroke="white"/>
<line x1="-30.4434" y1="145.257" x2="201.567" y2="-86.7531" stroke="white"/>
<line x1="-3.21293" y1="157.876" x2="228.797" y2="-74.134" stroke="white"/>
<line x1="24.0175" y1="170.503" x2="256.027" y2="-61.507" stroke="white"/>
<line x1="-227.697" y1="44.3154" x2="4.31261" y2="-187.695" stroke="white"/>
<line x1="-200.467" y1="56.9199" x2="31.5431" y2="-175.09" stroke="white"/>
<line x1="-173.236" y1="69.5312" x2="58.7735" y2="-162.479" stroke="white"/>
<line x1="-146.01" y1="82.1513" x2="86.0001" y2="-149.859" stroke="white"/>
<line x1="-118.775" y1="94.7783" x2="113.234" y2="-137.232" stroke="white"/>
<line x1="-91.545" y1="107.397" x2="140.465" y2="-124.613" stroke="white"/>
<line x1="-64.3184" y1="120.01" x2="167.692" y2="-112" stroke="white"/>
<line x1="-37.084" y1="132.637" x2="194.926" y2="-99.3733" stroke="white"/>
<line x1="-9.85746" y1="145.257" x2="222.152" y2="-86.7531" stroke="white"/>
<line x1="17.3769" y1="157.876" x2="249.387" y2="-74.134" stroke="white"/>
<line x1="44.6035" y1="170.503" x2="276.613" y2="-61.507" stroke="white"/>
</g>
</svg>
