<svg width="45" height="45" viewBox="0 0 45 45" fill="none" xmlns="http://www.w3.org/2000/svg">
<mask id="mask0_442_158" style="mask-type:alpha" maskUnits="userSpaceOnUse" x="0" y="0" width="45" height="45">
<path d="M0.218985 0.336172H44.281V44.3982H0.218985V0.336172Z" fill="#D9D9D9" stroke="white" stroke-width="0.437969"/>
</mask>
<g mask="url(#mask0_442_158)">
<path fill-rule="evenodd" clip-rule="evenodd" d="M-60 -60.0435C-60 -60.2309 -59.8481 -60.3828 -59.6607 -60.3828H-47.5923C-47.4049 -60.3828 -47.253 -60.2309 -47.253 -60.0435V-47.9751C-47.253 -47.7877 -47.4049 -47.6358 -47.5923 -47.6358H-59.6607C-59.8481 -47.6358 -60 -47.7877 -60 -47.9751V-60.0435ZM-60 -34.6401C-60 -34.8275 -59.8481 -34.9794 -59.6607 -34.9794H-47.5923C-47.4049 -34.9794 -47.253 -34.8275 -47.253 -34.6401V-22.5736C-47.253 -22.3862 -47.1011 -22.2343 -46.9137 -22.2343H-34.8472C-34.6598 -22.2343 -34.5079 -22.0824 -34.5079 -21.895V-9.82657C-34.5079 -9.63919 -34.6598 -9.48729 -34.8472 -9.48729H-46.9137C-47.1011 -9.48729 -47.253 -9.33539 -47.253 -9.14802V2.82121C-47.253 3.00859 -47.1011 3.16048 -46.9137 3.16048H-34.8472C-34.6598 3.16048 -34.5079 3.31238 -34.5079 3.49976V15.5682C-34.5079 15.7556 -34.6598 15.9075 -34.8472 15.9075H-46.9157C-47.1031 15.9075 -47.255 15.7556 -47.255 15.5682V3.50172C-47.255 3.31435 -47.4068 3.16245 -47.5942 3.16245H-59.6607C-59.8481 3.16245 -60 3.01055 -60 2.82317V-9.24529C-60 -9.43267 -59.8481 -9.58456 -59.6607 -9.58456H-47.5942C-47.4068 -9.58456 -47.255 -9.73646 -47.255 -9.92384V-21.8931C-47.255 -22.0804 -47.4068 -22.2323 -47.5942 -22.2323H-59.6607C-59.8481 -22.2323 -60 -22.3842 -60 -22.5716V-34.6401ZM-47.242 -47.2812C-47.242 -47.4685 -47.0901 -47.6204 -46.9027 -47.6204H-34.8342C-34.6468 -47.6204 -34.4949 -47.4685 -34.4949 -47.2812V-35.3186C-34.4949 -35.1313 -34.343 -34.9794 -34.1557 -34.9794H-22.0998C-21.9124 -34.9794 -21.7605 -35.1313 -21.7605 -35.3186V-47.2812C-21.7605 -47.4685 -21.6086 -47.6204 -21.4212 -47.6204H-9.35278C-9.16541 -47.6204 -9.01351 -47.4685 -9.01351 -47.2812V-35.2127C-9.01351 -35.0253 -9.16541 -34.8734 -9.35278 -34.8734H-21.4193C-21.6067 -34.8734 -21.7586 -34.7215 -21.7586 -34.5341V-22.5736C-21.7586 -22.3862 -21.6067 -22.2343 -21.4193 -22.2343H-9.35278C-9.16541 -22.2343 -9.01351 -22.0824 -9.01351 -21.895V-9.82657C-9.01351 -9.63919 -9.16541 -9.48729 -9.35278 -9.48729H-21.4193C-21.6067 -9.48729 -21.7586 -9.33539 -21.7586 -9.14802V2.82121C-21.7586 3.00859 -21.6067 3.16048 -21.4193 3.16048H-9.35278C-9.16541 3.16048 -9.01351 3.31238 -9.01351 3.49976V15.5682C-9.01351 15.7556 -9.16541 15.9075 -9.35278 15.9075H-21.4212C-21.6086 15.9075 -21.7605 15.7556 -21.7605 15.5682V3.50172C-21.7605 3.31435 -21.9124 3.16245 -22.0998 3.16245H-34.1663C-34.3537 3.16245 -34.5056 3.01055 -34.5056 2.82317V-9.24529C-34.5056 -9.43267 -34.3537 -9.58456 -34.1663 -9.58456H-22.0998C-21.9124 -9.58456 -21.7605 -9.73646 -21.7605 -9.92384V-21.8931C-21.7605 -22.0804 -21.9124 -22.2323 -22.0998 -22.2323H-34.1663C-34.3537 -22.2323 -34.5056 -22.3842 -34.5056 -22.5716V-34.5341C-34.5056 -34.7215 -34.6575 -34.8734 -34.8448 -34.8734H-46.9027C-47.0901 -34.8734 -47.242 -35.0253 -47.242 -35.2127V-47.2812ZM-21.7586 -60.0435C-21.7586 -60.2309 -21.9105 -60.3828 -22.0978 -60.3828H-34.1663C-34.3537 -60.3828 -34.5056 -60.2309 -34.5056 -60.0435V-47.9751C-34.5056 -47.7877 -34.3537 -47.6358 -34.1663 -47.6358H-22.0978C-21.9105 -47.6358 -21.7586 -47.7877 -21.7586 -47.9751V-60.0435ZM3.74021 -60.0435C3.74021 -60.2309 3.58831 -60.3828 3.40093 -60.3828H-8.66753C-8.85491 -60.3828 -9.00681 -60.2309 -9.00681 -60.0435V-47.9751C-9.00681 -47.7877 -8.85491 -47.6358 -8.66753 -47.6358H3.40093C3.58831 -47.6358 3.74021 -47.7877 3.74021 -47.9751V-60.0435ZM-9.00681 -34.6401C-9.00681 -34.8275 -8.85491 -34.9794 -8.66753 -34.9794H3.39464C3.58201 -34.9794 3.73391 -35.1313 3.73391 -35.3186V-47.2812C3.73391 -47.4685 3.88581 -47.6204 4.07318 -47.6204H16.1416C16.329 -47.6204 16.4809 -47.4685 16.4809 -47.2812V-35.3186C16.4809 -35.1313 16.6328 -34.9794 16.8202 -34.9794H28.8867C29.0741 -34.9794 29.226 -34.8275 29.226 -34.6401V-22.5716C29.226 -22.3842 29.0741 -22.2323 28.8867 -22.2323H16.8202C16.6328 -22.2323 16.4809 -22.0804 16.4809 -21.8931V-9.92384C16.4809 -9.73646 16.6328 -9.58456 16.8202 -9.58456H28.8867C29.0741 -9.58456 29.226 -9.43267 29.226 -9.24529V2.82317C29.226 3.01055 29.0741 3.16245 28.8867 3.16245H16.8202C16.6328 3.16245 16.4809 3.31435 16.4809 3.50172V15.5682C16.4809 15.7556 16.329 15.9075 16.1416 15.9075H4.07318C3.88581 15.9075 3.73391 15.7556 3.73391 15.5682V3.50172C3.73391 3.31435 3.58201 3.16245 3.39464 3.16245H-8.66753C-8.85491 3.16245 -9.00681 3.01055 -9.00681 2.82317V-9.24529C-9.00681 -9.43267 -8.85491 -9.58456 -8.66753 -9.58456H3.39464C3.58201 -9.58456 3.73391 -9.73646 3.73391 -9.92384V-21.8931C3.73391 -22.0804 3.58201 -22.2323 3.39464 -22.2323H-8.66753C-8.85491 -22.2323 -9.00681 -22.3842 -9.00681 -22.5716V-34.6401ZM16.1397 3.16048C16.3271 3.16048 16.479 3.00859 16.479 2.82121V-9.14802C16.479 -9.33539 16.3271 -9.48729 16.1397 -9.48729H4.07948C3.89211 -9.48729 3.74021 -9.33539 3.74021 -9.14802V2.82121C3.74021 3.00859 3.89211 3.16048 4.07948 3.16048H16.1397ZM3.74021 -34.5341C3.74021 -34.7215 3.89211 -34.8734 4.07948 -34.8734H16.1397C16.3271 -34.8734 16.479 -34.7215 16.479 -34.5341V-22.5736C16.479 -22.3862 16.3271 -22.2343 16.1397 -22.2343H4.07948C3.89211 -22.2343 3.74021 -22.3862 3.74021 -22.5736V-34.5341ZM29.226 -60.0435C29.226 -60.2309 29.0741 -60.3828 28.8867 -60.3828H16.8182C16.6309 -60.3828 16.479 -60.2309 16.479 -60.0435V-47.9751C16.479 -47.7877 16.6309 -47.6358 16.8182 -47.6358H28.8867C29.0741 -47.6358 29.226 -47.7877 29.226 -47.9751V-60.0435Z" fill="white"/>
<path fill-rule="evenodd" clip-rule="evenodd" d="M54.6971 -60.0435C54.6971 -60.2309 54.5452 -60.3828 54.3579 -60.3828H42.2894C42.102 -60.3828 41.9501 -60.2309 41.9501 -60.0435V-47.9751C41.9501 -47.7877 42.102 -47.6358 42.2894 -47.6358H54.3579C54.5452 -47.6358 54.6971 -47.7877 54.6971 -47.9751V-60.0435ZM41.9651 -47.2812C41.9651 -47.4685 41.8132 -47.6204 41.6258 -47.6204H29.5573C29.37 -47.6204 29.2181 -47.4685 29.2181 -47.2812V-35.2127C29.2181 -35.0253 29.37 -34.8734 29.5573 -34.8734H41.6109C41.7982 -34.8734 41.9501 -34.7215 41.9501 -34.5341V-22.5736C41.9501 -22.3862 41.7982 -22.2343 41.6109 -22.2343H29.5444C29.357 -22.2343 29.2051 -22.0824 29.2051 -21.895V-9.82657C29.2051 -9.63919 29.357 -9.48729 29.5444 -9.48729H41.6109C41.7982 -9.48729 41.9501 -9.33539 41.9501 -9.14802V2.82121C41.9501 3.00859 41.7982 3.16048 41.6109 3.16048H29.5444C29.357 3.16048 29.2051 3.31238 29.2051 3.49976V15.5682C29.2051 15.7556 29.357 15.9075 29.5444 15.9075H41.6128C41.8002 15.9075 41.9521 15.7556 41.9521 15.5682V3.50172C41.9521 3.31435 42.104 3.16245 42.2914 3.16245H54.3579C54.5452 3.16245 54.6971 3.01055 54.6971 2.82317V-9.24529C54.6971 -9.43267 54.5452 -9.58456 54.3579 -9.58456H42.2914C42.104 -9.58456 41.9521 -9.73646 41.9521 -9.92384V-21.8931C41.9521 -22.0804 42.104 -22.2323 42.2914 -22.2323H54.3579C54.5452 -22.2323 54.6971 -22.3842 54.6971 -22.5716V-34.6401C54.6971 -34.8275 54.5452 -34.9794 54.3579 -34.9794H42.3044C42.117 -34.9794 41.9651 -35.1313 41.9651 -35.3186V-47.2812ZM54.6995 -47.2812C54.6995 -47.4685 54.8514 -47.6204 55.0388 -47.6204H67.1072C67.2946 -47.6204 67.4465 -47.4685 67.4465 -47.2812V-35.3186C67.4465 -35.1313 67.5984 -34.9794 67.7858 -34.9794H79.8523C80.0397 -34.9794 80.1916 -34.8275 80.1916 -34.6401V-22.5716C80.1916 -22.3842 80.0397 -22.2323 79.8523 -22.2323H67.7858C67.5984 -22.2323 67.4465 -22.0804 67.4465 -21.8931V-9.92384C67.4465 -9.73646 67.5984 -9.58456 67.7858 -9.58456H79.8523C80.0397 -9.58456 80.1916 -9.43267 80.1916 -9.24529V2.82317C80.1916 3.01055 80.0397 3.16245 79.8523 3.16245H67.7858C67.5984 3.16245 67.4465 3.31435 67.4465 3.50172V15.5682C67.4465 15.7556 67.2946 15.9075 67.1072 15.9075H55.0388C54.8514 15.9075 54.6995 15.7556 54.6995 15.5682V3.49976C54.6995 3.31238 54.8514 3.16048 55.0388 3.16048H67.1053C67.2927 3.16048 67.4446 3.00859 67.4446 2.82121V-9.14802C67.4446 -9.3354 67.2927 -9.48729 67.1053 -9.48729H55.0388C54.8514 -9.48729 54.6995 -9.63919 54.6995 -9.82657V-21.895C54.6995 -22.0824 54.8514 -22.2343 55.0388 -22.2343H67.1053C67.2927 -22.2343 67.4446 -22.3862 67.4446 -22.5736V-34.5341C67.4446 -34.7215 67.2927 -34.8734 67.1053 -34.8734H55.0388C54.8514 -34.8734 54.6995 -35.0253 54.6995 -35.2127V-47.2812ZM80.1916 -60.0435C80.1916 -60.2309 80.0397 -60.3828 79.8523 -60.3828H67.7838C67.5965 -60.3828 67.4446 -60.2309 67.4446 -60.0435V-47.9751C67.4446 -47.7877 67.5965 -47.6358 67.7838 -47.6358H79.8523C80.0397 -47.6358 80.1916 -47.7877 80.1916 -47.9751V-60.0435ZM80.1983 -47.2812C80.1983 -47.4685 80.3502 -47.6204 80.5375 -47.6204H92.606C92.7934 -47.6204 92.9453 -47.4685 92.9453 -47.2812V-35.3186C92.9453 -35.1313 93.0972 -34.9794 93.2846 -34.9794H105.347C105.534 -34.9794 105.686 -34.8275 105.686 -34.6401V-22.5716C105.686 -22.3842 105.534 -22.2323 105.347 -22.2323H93.2846C93.0972 -22.2323 92.9453 -22.0804 92.9453 -21.8931V-9.92384C92.9453 -9.73646 93.0972 -9.58456 93.2846 -9.58456H105.347C105.534 -9.58456 105.686 -9.43267 105.686 -9.24529V2.82317C105.686 3.01055 105.534 3.16245 105.347 3.16245H93.2846C93.0972 3.16245 92.9453 3.31435 92.9453 3.50172V15.5682C92.9453 15.7556 92.7934 15.9075 92.606 15.9075H80.5375C80.3502 15.9075 80.1983 15.7556 80.1983 15.5682V3.49976C80.1983 3.31238 80.3502 3.16048 80.5375 3.16048H92.5997C92.7871 3.16048 92.939 3.00859 92.939 2.82121V-9.14802C92.939 -9.33539 92.7871 -9.48729 92.5997 -9.48729H80.5375C80.3502 -9.48729 80.1983 -9.63919 80.1983 -9.82657V-21.895C80.1983 -22.0824 80.3502 -22.2343 80.5375 -22.2343H92.5997C92.7871 -22.2343 92.939 -22.3862 92.939 -22.5736V-34.5341C92.939 -34.7215 92.7871 -34.8734 92.5997 -34.8734H80.5375C80.3502 -34.8734 80.1983 -35.0253 80.1983 -35.2127V-47.2812ZM105.686 -60.0435C105.686 -60.2309 105.534 -60.3828 105.347 -60.3828H93.2783C93.0909 -60.3828 92.939 -60.2309 92.939 -60.0435V-47.9751C92.939 -47.7877 93.0909 -47.6358 93.2783 -47.6358H105.347C105.534 -47.6358 105.686 -47.7877 105.686 -47.9751V-60.0435Z" fill="white"/>
<path fill-rule="evenodd" clip-rule="evenodd" d="M-60 16.2641C-60 16.0767 -59.8481 15.9248 -59.6607 15.9248H-47.5923C-47.4049 15.9248 -47.253 16.0767 -47.253 16.2641V28.3325C-47.253 28.5199 -47.4049 28.6718 -47.5923 28.6718H-59.6607C-59.8481 28.6718 -60 28.5199 -60 28.3325V16.2641ZM-60 41.6675C-60 41.4802 -59.8481 41.3283 -59.6607 41.3283H-47.5923C-47.4049 41.3283 -47.253 41.4802 -47.253 41.6675V53.734C-47.253 53.9214 -47.1011 54.0733 -46.9137 54.0733H-34.8472C-34.6598 54.0733 -34.5079 54.2252 -34.5079 54.4126V66.481C-34.5079 66.6684 -34.6598 66.8203 -34.8472 66.8203H-46.9137C-47.1011 66.8203 -47.253 66.9722 -47.253 67.1596V79.1288C-47.253 79.3162 -47.1011 79.4681 -46.9137 79.4681H-34.8472C-34.6598 79.4681 -34.5079 79.62 -34.5079 79.8074V91.8758C-34.5079 92.0632 -34.6598 92.2151 -34.8472 92.2151H-46.9157C-47.1031 92.2151 -47.255 92.0632 -47.255 91.8758V79.8093C-47.255 79.622 -47.4068 79.4701 -47.5942 79.4701H-59.6607C-59.8481 79.4701 -60 79.3182 -60 79.1308V67.0623C-60 66.8749 -59.8481 66.723 -59.6607 66.723H-47.5942C-47.4068 66.723 -47.255 66.5712 -47.255 66.3838V54.4145C-47.255 54.2272 -47.4068 54.0753 -47.5942 54.0753H-59.6607C-59.8481 54.0753 -60 53.9234 -60 53.736V41.6675ZM-47.242 29.0265C-47.242 28.8391 -47.0901 28.6872 -46.9027 28.6872H-34.8342C-34.6468 28.6872 -34.4949 28.8391 -34.4949 29.0265V40.989C-34.4949 41.1764 -34.343 41.3283 -34.1557 41.3283H-22.0998C-21.9124 41.3283 -21.7605 41.1764 -21.7605 40.989V29.0265C-21.7605 28.8391 -21.6086 28.6872 -21.4212 28.6872H-9.35278C-9.16541 28.6872 -9.01351 28.8391 -9.01351 29.0265V41.0949C-9.01351 41.2823 -9.16541 41.4342 -9.35278 41.4342H-21.4193C-21.6067 41.4342 -21.7586 41.5861 -21.7586 41.7735V53.734C-21.7586 53.9214 -21.6067 54.0733 -21.4193 54.0733H-9.35278C-9.16541 54.0733 -9.01351 54.2252 -9.01351 54.4126V66.481C-9.01351 66.6684 -9.16541 66.8203 -9.35278 66.8203H-21.4193C-21.6067 66.8203 -21.7586 66.9722 -21.7586 67.1596V79.1288C-21.7586 79.3162 -21.6067 79.4681 -21.4193 79.4681H-9.35278C-9.16541 79.4681 -9.01351 79.62 -9.01351 79.8074V91.8758C-9.01351 92.0632 -9.16541 92.2151 -9.35278 92.2151H-21.4212C-21.6086 92.2151 -21.7605 92.0632 -21.7605 91.8758V79.8093C-21.7605 79.622 -21.9124 79.4701 -22.0998 79.4701H-34.1663C-34.3537 79.4701 -34.5056 79.3182 -34.5056 79.1308V67.0623C-34.5056 66.8749 -34.3537 66.723 -34.1663 66.723H-22.0998C-21.9124 66.723 -21.7605 66.5712 -21.7605 66.3838V54.4145C-21.7605 54.2272 -21.9124 54.0753 -22.0998 54.0753H-34.1663C-34.3537 54.0753 -34.5056 53.9234 -34.5056 53.736V41.7735C-34.5056 41.5861 -34.6575 41.4342 -34.8448 41.4342H-46.9027C-47.0901 41.4342 -47.242 41.2823 -47.242 41.0949V29.0265ZM-21.7586 16.2641C-21.7586 16.0767 -21.9105 15.9248 -22.0978 15.9248H-34.1663C-34.3537 15.9248 -34.5056 16.0767 -34.5056 16.2641V28.3325C-34.5056 28.5199 -34.3537 28.6718 -34.1663 28.6718H-22.0978C-21.9105 28.6718 -21.7586 28.5199 -21.7586 28.3325V16.2641ZM3.74021 16.2641C3.74021 16.0767 3.58831 15.9248 3.40093 15.9248H-8.66753C-8.85491 15.9248 -9.00681 16.0767 -9.00681 16.2641V28.3325C-9.00681 28.5199 -8.85491 28.6718 -8.66753 28.6718H3.40093C3.58831 28.6718 3.74021 28.5199 3.74021 28.3325V16.2641ZM-9.00681 41.6675C-9.00681 41.4802 -8.85491 41.3283 -8.66753 41.3283H3.39464C3.58201 41.3283 3.73391 41.1764 3.73391 40.989V29.0265C3.73391 28.8391 3.88581 28.6872 4.07318 28.6872H16.1416C16.329 28.6872 16.4809 28.8391 16.4809 29.0265V40.989C16.4809 41.1764 16.6328 41.3283 16.8202 41.3283H28.8867C29.0741 41.3283 29.226 41.4802 29.226 41.6675V53.736C29.226 53.9234 29.0741 54.0753 28.8867 54.0753H16.8202C16.6328 54.0753 16.4809 54.2272 16.4809 54.4145V66.3838C16.4809 66.5712 16.6328 66.723 16.8202 66.723H28.8867C29.0741 66.723 29.226 66.8749 29.226 67.0623V79.1308C29.226 79.3182 29.0741 79.4701 28.8867 79.4701H16.8202C16.6328 79.4701 16.4809 79.622 16.4809 79.8093V91.8758C16.4809 92.0632 16.329 92.2151 16.1416 92.2151H4.07318C3.88581 92.2151 3.73391 92.0632 3.73391 91.8758V79.8093C3.73391 79.622 3.58201 79.4701 3.39464 79.4701H-8.66753C-8.85491 79.4701 -9.00681 79.3182 -9.00681 79.1308V67.0623C-9.00681 66.8749 -8.85491 66.723 -8.66753 66.723H3.39464C3.58201 66.723 3.73391 66.5712 3.73391 66.3838V54.4145C3.73391 54.2272 3.58201 54.0753 3.39464 54.0753H-8.66753C-8.85491 54.0753 -9.00681 53.9234 -9.00681 53.736V41.6675ZM16.1397 79.4681C16.3271 79.4681 16.479 79.3162 16.479 79.1288V67.1596C16.479 66.9722 16.3271 66.8203 16.1397 66.8203H4.07948C3.89211 66.8203 3.74021 66.9722 3.74021 67.1596V79.1288C3.74021 79.3162 3.89211 79.4681 4.07948 79.4681H16.1397ZM3.74021 41.7735C3.74021 41.5861 3.89211 41.4342 4.07948 41.4342H16.1397C16.3271 41.4342 16.479 41.5861 16.479 41.7735V53.734C16.479 53.9214 16.3271 54.0733 16.1397 54.0733H4.07948C3.89211 54.0733 3.74021 53.9214 3.74021 53.734V41.7735ZM29.226 16.2641C29.226 16.0767 29.0741 15.9248 28.8867 15.9248H16.8182C16.6309 15.9248 16.479 16.0767 16.479 16.2641V28.3325C16.479 28.5199 16.6309 28.6718 16.8182 28.6718H28.8867C29.0741 28.6718 29.226 28.5199 29.226 28.3325V16.2641Z" fill="white"/>
<path fill-rule="evenodd" clip-rule="evenodd" d="M54.6971 16.2641C54.6971 16.0767 54.5452 15.9248 54.3579 15.9248H42.2894C42.102 15.9248 41.9501 16.0767 41.9501 16.2641V28.3325C41.9501 28.5199 42.102 28.6718 42.2894 28.6718H54.3579C54.5452 28.6718 54.6971 28.5199 54.6971 28.3325V16.2641ZM41.9651 29.0265C41.9651 28.8391 41.8132 28.6872 41.6258 28.6872H29.5573C29.37 28.6872 29.2181 28.8391 29.2181 29.0265V41.0949C29.2181 41.2823 29.37 41.4342 29.5573 41.4342H41.6109C41.7982 41.4342 41.9501 41.5861 41.9501 41.7735V53.734C41.9501 53.9214 41.7982 54.0733 41.6109 54.0733H29.5444C29.357 54.0733 29.2051 54.2252 29.2051 54.4126V66.481C29.2051 66.6684 29.357 66.8203 29.5444 66.8203H41.6109C41.7982 66.8203 41.9501 66.9722 41.9501 67.1596V79.1288C41.9501 79.3162 41.7982 79.4681 41.6109 79.4681H29.5444C29.357 79.4681 29.2051 79.62 29.2051 79.8074V91.8758C29.2051 92.0632 29.357 92.2151 29.5444 92.2151H41.6128C41.8002 92.2151 41.9521 92.0632 41.9521 91.8758V79.8093C41.9521 79.622 42.104 79.4701 42.2914 79.4701H54.3579C54.5452 79.4701 54.6971 79.3182 54.6971 79.1308V67.0623C54.6971 66.8749 54.5452 66.723 54.3579 66.723H42.2914C42.104 66.723 41.9521 66.5712 41.9521 66.3838V54.4145C41.9521 54.2272 42.104 54.0753 42.2914 54.0753H54.3579C54.5452 54.0753 54.6971 53.9234 54.6971 53.736V41.6675C54.6971 41.4802 54.5452 41.3283 54.3579 41.3283H42.3044C42.117 41.3283 41.9651 41.1764 41.9651 40.989V29.0265ZM54.6995 29.0265C54.6995 28.8391 54.8514 28.6872 55.0388 28.6872H67.1072C67.2946 28.6872 67.4465 28.8391 67.4465 29.0265V40.989C67.4465 41.1764 67.5984 41.3283 67.7858 41.3283H79.8523C80.0397 41.3283 80.1916 41.4802 80.1916 41.6675V53.736C80.1916 53.9234 80.0397 54.0753 79.8523 54.0753H67.7858C67.5984 54.0753 67.4465 54.2272 67.4465 54.4145V66.3838C67.4465 66.5712 67.5984 66.723 67.7858 66.723H79.8523C80.0397 66.723 80.1916 66.8749 80.1916 67.0623V79.1308C80.1916 79.3182 80.0397 79.4701 79.8523 79.4701H67.7858C67.5984 79.4701 67.4465 79.622 67.4465 79.8093V91.8758C67.4465 92.0632 67.2946 92.2151 67.1072 92.2151H55.0388C54.8514 92.2151 54.6995 92.0632 54.6995 91.8758V79.8074C54.6995 79.62 54.8514 79.4681 55.0388 79.4681H67.1053C67.2927 79.4681 67.4446 79.3162 67.4446 79.1288V67.1596C67.4446 66.9722 67.2927 66.8203 67.1053 66.8203H55.0388C54.8514 66.8203 54.6995 66.6684 54.6995 66.481V54.4126C54.6995 54.2252 54.8514 54.0733 55.0388 54.0733H67.1053C67.2927 54.0733 67.4446 53.9214 67.4446 53.734V41.7735C67.4446 41.5861 67.2927 41.4342 67.1053 41.4342H55.0388C54.8514 41.4342 54.6995 41.2823 54.6995 41.0949V29.0265ZM80.1916 16.2641C80.1916 16.0767 80.0397 15.9248 79.8523 15.9248H67.7838C67.5965 15.9248 67.4446 16.0767 67.4446 16.2641V28.3325C67.4446 28.5199 67.5965 28.6718 67.7838 28.6718H79.8523C80.0397 28.6718 80.1916 28.5199 80.1916 28.3325V16.2641ZM80.1983 29.0265C80.1983 28.8391 80.3502 28.6872 80.5375 28.6872H92.606C92.7934 28.6872 92.9453 28.8391 92.9453 29.0265V40.989C92.9453 41.1764 93.0972 41.3283 93.2846 41.3283H105.347C105.534 41.3283 105.686 41.4802 105.686 41.6675V53.736C105.686 53.9234 105.534 54.0753 105.347 54.0753H93.2846C93.0972 54.0753 92.9453 54.2272 92.9453 54.4145V66.3838C92.9453 66.5712 93.0972 66.723 93.2846 66.723H105.347C105.534 66.723 105.686 66.8749 105.686 67.0623V79.1308C105.686 79.3182 105.534 79.4701 105.347 79.4701H93.2846C93.0972 79.4701 92.9453 79.622 92.9453 79.8093V91.8758C92.9453 92.0632 92.7934 92.2151 92.606 92.2151H80.5375C80.3502 92.2151 80.1983 92.0632 80.1983 91.8758V79.8074C80.1983 79.62 80.3502 79.4681 80.5375 79.4681H92.5997C92.7871 79.4681 92.939 79.3162 92.939 79.1288V67.1596C92.939 66.9722 92.7871 66.8203 92.5997 66.8203H80.5375C80.3502 66.8203 80.1983 66.6684 80.1983 66.481V54.4126C80.1983 54.2252 80.3502 54.0733 80.5375 54.0733H92.5997C92.7871 54.0733 92.939 53.9214 92.939 53.734V41.7735C92.939 41.5861 92.7871 41.4342 92.5997 41.4342H80.5375C80.3502 41.4342 80.1983 41.2823 80.1983 41.0949V29.0265ZM105.686 16.2641C105.686 16.0767 105.534 15.9248 105.347 15.9248H93.2783C93.0909 15.9248 92.939 16.0767 92.939 16.2641V28.3325C92.939 28.5199 93.0909 28.6718 93.2783 28.6718H105.347C105.534 28.6718 105.686 28.5199 105.686 28.3325V16.2641Z" fill="white"/>
</g>
</svg>
