<svg width="45" height="45" viewBox="0 0 45 45" fill="none" xmlns="http://www.w3.org/2000/svg">
<mask id="mask0_442_858" style="mask-type:alpha" maskUnits="userSpaceOnUse" x="0" y="0" width="45" height="45">
<path d="M0.218985 0.218985H44.781V44.7806L0.218985 44.6953V0.218985Z" fill="#4200FF" stroke="#FF0000" stroke-width="0.437969"/>
</mask>
<g mask="url(#mask0_442_858)">
<path fill-rule="evenodd" clip-rule="evenodd" d="M100.563 -50.5391H-54.6953V-28.6028V5.49719V39.5815V73.689V95.6254H100.563V-50.5391ZM-54.6953 73.689C-54.6953 85.804 -47.0114 95.6251 -37.5329 95.6251C-36.4772 95.6251 -35.4439 95.5033 -34.4409 95.2701C-30.8705 94.4398 -26.9179 94.4398 -23.3475 95.2701C-22.3445 95.5033 -21.3111 95.6251 -20.2555 95.6251C-19.1999 95.6251 -18.1665 95.5033 -17.1636 95.2701C-13.5932 94.4398 -9.64052 94.4398 -6.07012 95.2701C-5.06715 95.5033 -4.0338 95.6251 -2.97818 95.6251C-1.92295 95.6251 -0.889961 95.5034 0.112659 95.2703C3.68139 94.4408 7.63178 94.4408 11.2005 95.2703C12.2031 95.5034 13.2361 95.6251 14.2914 95.6251C15.3472 95.6251 16.3807 95.5033 17.3838 95.27C20.9551 94.4394 24.9089 94.4394 28.4801 95.27C29.4833 95.5033 30.5168 95.6251 31.5726 95.6251C32.628 95.6251 33.6612 95.5034 34.664 95.2702C38.2336 94.4403 42.1851 94.4403 45.7547 95.2702C46.7574 95.5034 47.7906 95.6251 48.846 95.6251C49.9017 95.6251 50.935 95.5033 51.938 95.2701C55.5084 94.4398 59.461 94.4398 63.0314 95.2701C64.0344 95.5033 65.0678 95.6251 66.1234 95.6251C67.1788 95.6251 68.212 95.5034 69.2148 95.2702C72.7843 94.4403 76.7359 94.4403 80.3054 95.2702C81.3082 95.5034 82.3414 95.6251 83.3968 95.6251C92.8754 95.6251 100.559 85.804 100.559 73.689C100.559 69.934 99.8211 66.3994 98.5201 63.3092C96.7886 59.1964 96.7886 54.0742 98.5201 49.9614C99.8211 46.8712 100.559 43.3365 100.559 39.5815C100.559 35.8274 99.8214 32.2936 98.521 29.204C96.792 25.096 96.792 19.9827 98.521 15.8747C99.8214 12.7851 100.559 9.25129 100.559 5.49719C100.559 1.74248 99.8212 -1.7919 98.5204 -4.88188C96.7897 -8.99306 96.7897 -14.1123 98.5204 -18.2235C99.8212 -21.3135 100.559 -24.8479 100.559 -28.6026C100.559 -40.7176 92.8754 -50.5387 83.3968 -50.5387C82.3414 -50.5387 81.3082 -50.4169 80.3055 -50.1838C76.7359 -49.3539 72.7843 -49.3539 69.2147 -50.1838C68.212 -50.4169 67.1788 -50.5387 66.1234 -50.5387C65.0678 -50.5387 64.0344 -50.4169 63.0315 -50.1837C59.4611 -49.3534 55.5084 -49.3534 51.938 -50.1837C50.935 -50.4169 49.9016 -50.5387 48.846 -50.5387C47.7906 -50.5387 46.7575 -50.4169 45.7547 -50.1838C42.1851 -49.3539 38.2335 -49.3539 34.664 -50.1838C33.6612 -50.4169 32.628 -50.5387 31.5726 -50.5387C30.5168 -50.5387 29.4833 -50.4168 28.4801 -50.1835C24.9089 -49.3529 20.9551 -49.3529 17.3838 -50.1835C16.3807 -50.4168 15.3472 -50.5387 14.2914 -50.5387C13.2361 -50.5387 12.2031 -50.417 11.2005 -50.1839C7.63179 -49.3544 3.68139 -49.3544 0.11264 -50.1839C-0.889973 -50.417 -1.92295 -50.5387 -2.97818 -50.5387C-4.03373 -50.5387 -5.06702 -50.4169 -6.06992 -50.1837C-9.64028 -49.3535 -13.5929 -49.3535 -17.1632 -50.1838C-18.1662 -50.4171 -19.1996 -50.5389 -20.2553 -50.5389C-21.3109 -50.5389 -22.3443 -50.4171 -23.3472 -50.1838C-26.9177 -49.3536 -30.8705 -49.3536 -34.4409 -50.1838C-35.4439 -50.4171 -36.4772 -50.5389 -37.5329 -50.5389C-47.0114 -50.5389 -54.6953 -40.7177 -54.6953 -28.6028C-54.6953 -24.8481 -53.9573 -21.3137 -52.6565 -18.2237C-50.9257 -14.1125 -50.9257 -8.99312 -52.6565 -4.88189C-53.9573 -1.79192 -54.6953 1.74247 -54.6953 5.49719C-54.6953 9.25128 -53.9575 12.7851 -52.6571 15.8747C-50.9281 19.9827 -50.9281 25.096 -52.6571 29.204C-53.9575 32.2936 -54.6953 35.8274 -54.6953 39.5815C-54.6953 43.3365 -53.9571 46.8712 -52.6561 49.9614C-50.9246 54.0742 -50.9246 59.1964 -52.6561 63.3092C-53.9571 66.3994 -54.6953 69.934 -54.6953 73.689ZM-31.8367 -10.7639C-31.7548 -10.8104 -31.6813 -10.8717 -31.6189 -10.9422C-31.3114 -11.2898 -31.3111 -11.8157 -31.6186 -12.1632C-31.6809 -12.2337 -31.7542 -12.2949 -31.8361 -12.3413C-33.6257 -13.3571 -35.5642 -13.9079 -37.5329 -13.9079C-41.1838 -13.9079 -41.1838 -9.19765 -37.5329 -9.19765C-35.5644 -9.19765 -33.6262 -9.74834 -31.8367 -10.7639ZM-37.5329 -6.66666C-36.2924 -6.66666 -35.2426 -5.2774 -35.6854 -4.11871C-36.7952 -1.21513 -37.418 2.04807 -37.418 5.49719C-37.418 8.94247 -36.7966 12.2022 -35.6892 15.1034C-35.2476 16.2601 -36.2947 17.6454 -37.5329 17.6454C-38.3001 17.6454 -39.0556 17.7098 -39.7962 17.8345C-43.9429 18.5327 -48.8401 18.5723 -50.4309 14.6797C-51.5268 11.9981 -52.1643 8.89396 -52.1643 5.49719C-52.1643 2.09151 -51.5234 -1.01999 -50.4223 -3.70647C-48.8291 -7.59326 -43.938 -7.55294 -39.7956 -6.85562C-39.0552 -6.73098 -38.2999 -6.66666 -37.5329 -6.66666ZM96.282 48.7954C94.6877 52.6794 89.7995 52.6387 85.6593 51.9418C84.9189 51.8172 84.1638 51.7529 83.3968 51.7529C82.1567 51.7529 81.1072 50.3635 81.5503 49.2053C82.6619 46.2997 83.2858 43.0338 83.2858 39.5815C83.2858 36.135 82.664 32.8741 81.5558 29.9722C81.1146 28.8168 82.16 27.4333 83.3968 27.4333C84.1641 27.4333 84.9195 27.3689 85.6601 27.2442C89.8069 26.546 94.7041 26.5064 96.2949 30.399C97.3907 33.0806 98.0283 36.1848 98.0283 39.5815C98.0283 42.9915 97.3858 46.1066 96.282 48.7954ZM77.6936 55.8542C77.6128 55.9001 77.5403 55.9605 77.4787 56.0301C77.1735 56.3746 77.1735 56.896 77.4787 57.2404C77.5403 57.31 77.6127 57.3704 77.6935 57.4164C79.485 58.4345 81.4258 58.9866 83.3968 58.9866C87.0431 58.9866 87.0431 54.2839 83.3968 54.2839C81.4258 54.2839 79.485 54.836 77.6936 55.8542ZM72.0415 57.2404C72.3467 56.896 72.3467 56.3746 72.0415 56.0301C71.9799 55.9605 71.9075 55.9001 71.8267 55.8542C70.0352 54.836 68.0944 54.2839 66.1234 54.2839C64.149 54.2839 62.205 54.8379 60.411 55.8594C60.331 55.9049 60.2592 55.9648 60.1981 56.0338C59.8946 56.3761 59.8946 56.8944 60.1981 57.2368C60.2592 57.3057 60.331 57.3656 60.411 57.4112C62.205 58.4326 64.149 58.9866 66.1234 58.9866C68.0944 58.9866 70.0352 58.4345 71.8267 57.4164C71.9075 57.3704 71.9799 57.31 72.0415 57.2404ZM75.7352 54.0547C75.8788 53.963 76.0079 53.8528 76.1154 53.7205C78.9158 50.2757 80.7549 45.3507 80.7549 39.5815C80.7549 33.8447 78.9363 28.9426 76.1624 25.5006C76.0502 25.3613 75.9146 25.2457 75.7637 25.1497C75.1539 24.762 74.3663 24.762 73.7565 25.1497C73.6056 25.2457 73.47 25.3613 73.3578 25.5006C70.5839 28.9426 68.7654 33.8447 68.7654 39.5815C68.7654 45.3507 70.6044 50.2757 73.4048 53.7205C73.5123 53.8528 73.6414 53.963 73.785 54.0547C74.3772 54.4329 75.1431 54.4329 75.7352 54.0547ZM67.9699 64.0653C68.413 62.907 67.3635 61.5176 66.1234 61.5176C64.8819 61.5176 63.8307 62.9088 64.2742 64.0685C65.385 66.9732 66.0085 70.2381 66.0085 73.689C66.0085 77.8738 65.0917 81.785 63.5007 85.1122C61.9048 88.4498 62.4238 93.0941 66.1234 93.0941C69.821 93.0941 70.3401 88.4523 68.7443 85.1167C67.152 81.7885 66.2344 77.8758 66.2344 73.689C66.2344 70.2368 66.8583 66.9708 67.9699 64.0653ZM70.4094 82.6492C72.0538 86.804 77.4664 86.804 79.1108 82.6492C80.1519 80.0189 80.7549 76.9923 80.7549 73.689C80.7549 67.9199 78.9158 62.9949 76.1155 59.55C76.008 59.4178 75.8788 59.3076 75.7352 59.2159C75.1431 58.8377 74.3771 58.8377 73.785 59.2159C73.6414 59.3076 73.5123 59.4178 73.4048 59.55C70.6044 62.9949 68.7654 67.9198 68.7654 73.689C68.7654 76.9923 69.3683 80.0189 70.4094 82.6492ZM80.7759 85.1167C79.1801 88.4523 79.6992 93.0941 83.3968 93.0941C90.9343 93.0941 98.0283 85.0197 98.0283 73.689C98.0283 70.279 97.3858 67.164 96.282 64.4752C94.6877 60.5912 89.7995 60.6319 85.6593 61.3287C84.9189 61.4533 84.1638 61.5176 83.3968 61.5176C82.1567 61.5176 81.1072 62.907 81.5503 64.0653C82.6619 66.9708 83.2858 70.2368 83.2858 73.689C83.2858 77.8758 82.3681 81.7885 80.7759 85.1167ZM67.9699 49.2053C68.413 50.3635 67.3635 51.7529 66.1234 51.7529C64.8819 51.7529 63.8307 50.3617 64.2742 49.2021C65.385 46.2974 66.0085 43.0325 66.0085 39.5815C66.0085 36.1363 65.3871 32.8765 64.2797 29.9753C63.8381 28.8186 64.8852 27.4333 66.1234 27.4333C67.3601 27.4333 68.4056 28.8168 67.9644 29.9722C66.8562 32.8741 66.2344 36.135 66.2344 39.5815C66.2344 43.0338 66.8583 46.2997 67.9699 49.2053ZM56.514 59.2118C57.1034 58.835 57.866 58.835 58.4554 59.2118C58.5979 59.3029 58.726 59.4123 58.8327 59.5434C61.6361 62.9886 63.4775 67.9162 63.4775 73.689C63.4775 76.9902 62.8753 80.015 61.8355 82.6442C60.1917 86.8003 54.7777 86.8003 53.1339 82.6442C52.0941 80.015 51.4919 76.9902 51.4919 73.689C51.4919 67.9162 53.3333 62.9886 56.1367 59.5434C56.2434 59.4123 56.3716 59.3029 56.514 59.2118ZM50.6952 64.0685C49.5844 66.9732 48.9609 70.2381 48.9609 73.689C48.9609 77.8738 49.8778 81.785 51.4687 85.1121C53.0646 88.4498 52.5456 93.0941 48.846 93.0941C45.1484 93.0941 44.6293 88.4523 46.2251 85.1167C47.8174 81.7885 48.735 77.8758 48.735 73.689C48.735 70.2368 48.1111 66.9708 46.9995 64.0653C46.5564 62.907 47.6059 61.5176 48.846 61.5176C50.0876 61.5176 51.1387 62.9088 50.6952 64.0685ZM54.7713 57.2368C54.7102 57.3057 54.6385 57.3656 54.5584 57.4112C52.7644 58.4326 50.8204 58.9866 48.846 58.9866C46.875 58.9866 44.9342 58.4345 43.1428 57.4164C43.062 57.3704 42.9895 57.31 42.9279 57.2404C42.6227 56.896 42.6227 56.3746 42.9279 56.0301C42.9895 55.9605 43.062 55.9001 43.1428 55.8542C44.9342 54.836 46.875 54.2839 48.846 54.2839C50.8204 54.2839 52.7644 54.8379 54.5584 55.8594C54.6385 55.9049 54.7102 55.9648 54.7713 56.0338C55.0748 56.3761 55.0748 56.8944 54.7713 57.2368ZM58.4554 54.0587C57.866 54.4356 57.1034 54.4356 56.514 54.0587C56.3716 53.9676 56.2434 53.8583 56.1367 53.7271C53.3333 50.282 51.4919 45.3544 51.4919 39.5815C51.4919 33.8411 53.3127 28.9364 56.0896 25.4941C56.201 25.3559 56.3356 25.2411 56.4854 25.1457C57.0925 24.7594 57.8769 24.7594 58.484 25.1457C58.6338 25.2411 58.7684 25.3559 58.8798 25.4941C61.6567 28.9364 63.4775 33.8411 63.4775 39.5815C63.4775 45.3544 61.6361 50.282 58.8327 53.7271C58.726 53.8583 58.5979 53.9677 58.4554 54.0587ZM48.846 51.7529C50.0876 51.7529 51.1387 50.3617 50.6952 49.2021C49.5844 46.2974 48.9609 43.0325 48.9609 39.5815C48.9609 36.1363 49.5824 32.8765 50.6898 29.9753C51.1313 28.8186 50.0842 27.4333 48.846 27.4333C47.6093 27.4333 46.5638 28.8168 47.005 29.9722C48.1132 32.8741 48.735 36.135 48.735 39.5815C48.735 43.0338 48.1111 46.2997 46.9995 49.2053C46.5564 50.3635 47.6059 51.7529 48.846 51.7529ZM37.4907 57.2404C37.796 56.896 37.796 56.3746 37.4907 56.0301C37.4291 55.9606 37.3567 55.9001 37.2759 55.8542C35.4844 54.8361 33.5437 54.2839 31.5726 54.2839C29.5948 54.2839 27.6476 54.8398 25.8511 55.8646C25.7718 55.9098 25.7007 55.9691 25.6402 56.0374C25.3384 56.3777 25.3384 56.8929 25.6402 57.2331C25.7007 57.3014 25.7718 57.3608 25.8511 57.406C27.6476 58.4307 29.5948 58.9866 31.5726 58.9866C33.5437 58.9866 35.4844 58.4345 37.2759 57.4164C37.3567 57.3704 37.4291 57.31 37.4907 57.2404ZM41.1844 54.0547C41.328 53.963 41.4572 53.8528 41.5646 53.7205C44.365 50.2757 46.2041 45.3507 46.2041 39.5815C46.2041 33.8447 44.3855 28.9426 41.6116 25.5006C41.4994 25.3613 41.3639 25.2457 41.2129 25.1497C40.6031 24.762 39.8155 24.762 39.2057 25.1497C39.0548 25.2457 38.9192 25.3613 38.807 25.5006C36.0331 28.9426 34.2146 33.8447 34.2146 39.5815C34.2146 45.3507 36.0537 50.2757 38.854 53.7205C38.9615 53.8528 39.0906 53.963 39.2343 54.0547C39.8264 54.4329 40.5923 54.4329 41.1844 54.0547ZM33.4191 64.0653C33.8622 62.907 32.8127 61.5176 31.5726 61.5176C30.3297 61.5176 29.2769 62.9106 29.7207 64.0716C30.8308 66.9756 31.4538 70.2393 31.4538 73.689C31.4538 77.8719 30.5378 81.7814 28.9482 85.1076C27.3522 88.4473 27.8712 93.0941 31.5726 93.0941C35.2702 93.0941 35.7894 88.4523 34.1935 85.1167C32.6013 81.7885 31.6836 77.8758 31.6836 73.689C31.6836 70.2368 32.3075 66.9708 33.4191 64.0653ZM35.8586 82.6492C37.503 86.804 42.9157 86.804 44.5601 82.6492C45.6011 80.0189 46.2041 76.9923 46.2041 73.689C46.2041 67.9198 44.365 62.9948 41.5646 59.55C41.4572 59.4178 41.328 59.3076 41.1844 59.2159C40.5923 58.8377 39.8264 58.8377 39.2342 59.2159C39.0906 59.3076 38.9615 59.4178 38.854 59.55C36.0537 62.9948 34.2146 67.9198 34.2146 73.689C34.2146 76.9923 34.8175 80.0189 35.8586 82.6492ZM33.4191 49.2053C33.8622 50.3635 32.8127 51.7529 31.5726 51.7529C30.3297 51.7529 29.2769 50.3599 29.7207 49.1989C30.8308 46.295 31.4538 43.0312 31.4538 39.5815C31.4538 36.1375 30.8328 32.8789 29.7262 29.9785C29.2843 28.8204 30.333 27.4333 31.5726 27.4333C32.8094 27.4333 33.8548 28.8168 33.4136 29.9722C32.3055 32.8741 31.6836 36.135 31.6836 39.5815C31.6836 43.0338 32.3075 46.2997 33.4191 49.2053ZM21.9657 59.2077C22.5523 58.8323 23.3116 58.8323 23.8982 59.2077C24.0396 59.2982 24.1667 59.4068 24.2727 59.5369C27.079 62.9823 28.9228 67.9125 28.9228 73.689C28.9228 76.9881 28.3214 80.0111 27.2828 82.6392C25.6397 86.7967 20.2243 86.7967 18.5812 82.6392C17.5425 80.0111 16.9411 76.9881 16.9411 73.689C16.9411 67.9125 18.7849 62.9823 21.5913 59.5369C21.6972 59.4068 21.8244 59.2982 21.9657 59.2077ZM16.1433 64.0716C15.0332 66.9756 14.4102 70.2393 14.4102 73.689C14.4102 77.8719 15.3261 81.7814 16.9157 85.1076C18.5118 88.4473 17.9928 93.0941 14.2914 93.0941C10.5956 93.0941 10.0764 88.4548 11.6721 85.1213C13.2658 81.7921 14.1843 77.8777 14.1843 73.689C14.1843 70.2355 13.5599 66.9685 12.4475 64.0621C12.0047 62.9052 13.0526 61.5176 14.2914 61.5176C15.5343 61.5176 16.5871 62.9106 16.1433 64.0716ZM20.2238 57.2331C20.1632 57.3014 20.0921 57.3608 20.0129 57.406C18.2163 58.4307 16.2691 58.9866 14.2914 58.9866C12.3236 58.9866 10.3861 58.4364 8.59718 57.4215C8.51561 57.3753 8.44252 57.3143 8.38035 57.2441C8.07341 56.8975 8.07341 56.3731 8.38034 56.0265C8.44252 55.9563 8.51561 55.8953 8.59718 55.849C10.3861 54.8342 12.3236 54.2839 14.2914 54.2839C16.2691 54.2839 18.2163 54.8398 20.0129 55.8646C20.0921 55.9098 20.1632 55.9691 20.2238 56.0374C20.5256 56.3777 20.5256 56.8929 20.2238 57.2331ZM23.8982 54.0628C23.3116 54.4383 22.5523 54.4383 21.9657 54.0628C21.8244 53.9724 21.6973 53.8638 21.5913 53.7337C18.7849 50.2883 16.9411 45.3581 16.9411 39.5815C16.9411 33.8374 18.7643 28.9302 21.5441 25.4876C21.6548 25.3505 21.7883 25.2365 21.9369 25.1418C22.5414 24.7567 23.3226 24.7567 23.927 25.1418C24.0756 25.2365 24.2092 25.3505 24.3199 25.4876C27.0997 28.9302 28.9228 33.8374 28.9228 39.5815C28.9228 45.3581 27.079 50.2883 24.2727 53.7337C24.1667 53.8638 24.0396 53.9724 23.8982 54.0628ZM14.2914 51.7529C15.5343 51.7529 16.5871 50.3599 16.1433 49.1989C15.0332 46.295 14.4102 43.0312 14.4102 39.5815C14.4102 36.1375 15.0311 32.8789 16.1378 29.9785C16.5796 28.8204 15.5309 27.4333 14.2914 27.4333C13.056 27.4333 12.0122 28.815 12.453 29.969C13.5619 32.8717 14.1843 36.1337 14.1843 39.5815C14.1843 43.035 13.5599 46.3021 12.4475 49.2084C12.0047 50.3653 13.0526 51.7529 14.2914 51.7529ZM2.93283 57.2441C3.23976 56.8975 3.23976 56.3731 2.93283 56.0265C2.87066 55.9563 2.79758 55.8953 2.71601 55.849C0.927059 54.8342 -1.01044 54.2839 -2.97818 54.2839C-4.95258 54.2839 -6.89655 54.8379 -8.69055 55.8594C-8.77059 55.9049 -8.84235 55.9648 -8.90345 56.0338C-9.20694 56.3761 -9.20695 56.8944 -8.90345 57.2368C-8.84236 57.3057 -8.7706 57.3656 -8.69056 57.4112C-6.89656 58.4326 -4.95259 58.9866 -2.97818 58.9866C-1.01045 58.9866 0.927055 58.4364 2.71601 57.4215C2.79758 57.3753 2.87066 57.3143 2.93283 57.2441ZM6.63604 54.0507C6.78079 53.9583 6.91095 53.8473 7.0192 53.714C9.81653 50.2695 11.6533 45.3471 11.6533 39.5815C11.6533 33.8483 9.83701 28.9487 7.06604 25.507C6.95309 25.3667 6.81651 25.2502 6.66447 25.1537C6.05198 24.7647 5.26119 24.7647 4.6487 25.1537C4.49665 25.2502 4.36008 25.3667 4.24713 25.507C1.47615 28.9487 -0.340111 33.8483 -0.340111 39.5815C-0.340111 45.3471 1.49665 50.2695 4.29398 53.714C4.40223 53.8473 4.53239 53.9583 4.67714 54.0507C5.272 54.4302 6.04118 54.4302 6.63604 54.0507ZM-1.13437 64.0621C-0.691582 62.9052 -1.73944 61.5176 -2.97818 61.5176C-4.21971 61.5176 -5.27085 62.9088 -4.82739 64.0685C-3.71656 66.9732 -3.09308 70.2381 -3.09308 73.689C-3.09308 77.8738 -4.00991 81.785 -5.60084 85.1121C-7.19677 88.4498 -6.67773 93.0941 -2.97818 93.0941C0.717571 93.0941 1.23676 88.4548 -0.358955 85.1213C-1.95258 81.7921 -2.87109 77.8777 -2.87109 73.689C-2.87109 70.2355 -2.24672 66.9685 -1.13437 64.0621ZM1.3059 82.6543C2.95093 86.8076 8.36224 86.8076 10.0073 82.6543C11.0496 80.0227 11.6533 76.9944 11.6533 73.689C11.6533 67.9235 9.81653 63.0011 7.0192 59.5566C6.91095 59.4233 6.78079 59.3123 6.63604 59.2199C6.04118 58.8404 5.27199 58.8404 4.67713 59.2199C4.53238 59.3123 4.40222 59.4233 4.29398 59.5566C1.49664 63.0011 -0.340111 67.9235 -0.340111 73.689C-0.340111 76.9944 0.263592 80.0227 1.3059 82.6543ZM-1.13436 49.2084C-0.691574 50.3653 -1.73944 51.7529 -2.97818 51.7529C-4.21971 51.7529 -5.27085 50.3617 -4.82739 49.2021C-3.71656 46.2974 -3.09308 43.0325 -3.09308 39.5815C-3.09308 36.1363 -3.7145 32.8765 -4.82189 29.9753C-5.26344 28.8186 -4.21634 27.4333 -2.97818 27.4333C-1.74281 27.4333 -0.698997 28.815 -1.13986 29.969C-2.24877 32.8717 -2.87109 36.1337 -2.87109 39.5815C-2.87109 43.035 -2.24671 46.3021 -1.13436 49.2084ZM-12.5875 59.2118C-11.9982 58.835 -11.2355 58.835 -10.6462 59.2118C-10.5037 59.3029 -10.3755 59.4123 -10.2688 59.5435C-7.46548 62.9886 -5.62406 67.9162 -5.62406 73.689C-5.62406 76.9902 -6.22622 80.015 -7.26608 82.6442C-8.90983 86.8003 -14.3239 86.8003 -15.9676 82.6442C-17.0075 80.015 -17.6096 76.9902 -17.6096 73.689C-17.6096 67.9162 -15.7682 62.9886 -12.9649 59.5435C-12.8582 59.4123 -12.73 59.3029 -12.5875 59.2118ZM-18.4063 64.0685C-19.5171 66.9732 -20.1406 70.2381 -20.1406 73.689C-20.1406 77.8738 -19.2238 81.785 -17.6329 85.1121C-16.0369 88.4498 -16.556 93.0941 -20.2555 93.0941C-23.9551 93.0941 -24.4741 88.4498 -22.8782 85.1122C-21.2873 81.785 -20.3704 77.8738 -20.3704 73.689C-20.3704 70.2381 -20.9939 66.9732 -22.1047 64.0685C-22.5482 62.9088 -21.4971 61.5176 -20.2555 61.5176C-19.014 61.5176 -17.9629 62.9088 -18.4063 64.0685ZM-14.3302 57.2368C-14.3913 57.3057 -14.4631 57.3656 -14.5431 57.4112C-16.3371 58.4326 -18.2811 58.9866 -20.2555 58.9866C-22.2299 58.9866 -24.1739 58.4326 -25.9679 57.4112C-26.0479 57.3656 -26.1197 57.3057 -26.1808 57.2368C-26.4843 56.8944 -26.4843 56.3761 -26.1808 56.0338C-26.1197 55.9648 -26.0479 55.9049 -25.9679 55.8594C-24.1739 54.8379 -22.2299 54.2839 -20.2555 54.2839C-18.2811 54.2839 -16.3372 54.8379 -14.5432 55.8594C-14.4631 55.9049 -14.3914 55.9648 -14.3303 56.0338C-14.0268 56.3761 -14.0268 56.8944 -14.3302 57.2368ZM-10.6462 54.0587C-11.2355 54.4356 -11.9982 54.4356 -12.5875 54.0587C-12.73 53.9677 -12.8581 53.8583 -12.9649 53.7271C-15.7682 50.282 -17.6096 45.3544 -17.6096 39.5815C-17.6096 33.8411 -15.7888 28.9364 -13.012 25.4941C-12.9005 25.3559 -12.766 25.2411 -12.6162 25.1457C-12.0091 24.7594 -11.2246 24.7594 -10.6175 25.1457C-10.4677 25.2411 -10.3332 25.3559 -10.2217 25.4941C-7.44489 28.9364 -5.62406 33.8411 -5.62406 39.5815C-5.62406 45.3544 -7.46549 50.282 -10.2688 53.7271C-10.3756 53.8583 -10.5037 53.9677 -10.6462 54.0587ZM-20.2555 51.7529C-19.014 51.7529 -17.9629 50.3617 -18.4063 49.2021C-19.5171 46.2974 -20.1406 43.0325 -20.1406 39.5815C-20.1406 36.1363 -19.5192 32.8765 -18.4118 29.9753C-17.9703 28.8186 -19.0174 27.4333 -20.2555 27.4333C-21.4937 27.4333 -22.5408 28.8186 -22.0992 29.9753C-20.9918 32.8765 -20.3704 36.1363 -20.3704 39.5815C-20.3704 43.0325 -20.9939 46.2974 -22.1047 49.2021C-22.5482 50.3617 -21.4971 51.7529 -20.2555 51.7529ZM-31.6076 57.2368C-31.3041 56.8944 -31.3041 56.3761 -31.6076 56.0338C-31.6687 55.9648 -31.7405 55.9049 -31.8205 55.8594C-33.6145 54.8379 -35.5585 54.2839 -37.5329 54.2839C-41.1792 54.2839 -41.1792 58.9866 -37.5329 58.9866C-35.5585 58.9866 -33.6145 58.4326 -31.8205 57.4112C-31.7404 57.3656 -31.6687 57.3057 -31.6076 57.2368ZM-27.9235 54.0588C-27.781 53.9677 -27.6529 53.8583 -27.5462 53.7271C-24.7428 50.282 -22.9014 45.3544 -22.9014 39.5815C-22.9014 33.8411 -24.7222 28.9364 -27.4991 25.4941C-27.6105 25.3559 -27.7451 25.2411 -27.8949 25.1457C-28.502 24.7594 -29.2864 24.7594 -29.8935 25.1458C-30.0433 25.2411 -30.1779 25.3559 -30.2893 25.4941C-33.0662 28.9364 -34.887 33.8411 -34.887 39.5815C-34.887 45.3544 -33.0456 50.282 -30.2422 53.7271C-30.1355 53.8583 -30.0073 53.9677 -29.8649 54.0587C-29.2755 54.4356 -28.5129 54.4356 -27.9235 54.0588ZM-35.6837 64.0685C-35.2402 62.9088 -36.2913 61.5176 -37.5329 61.5176C-38.2998 61.5176 -39.055 61.4533 -39.7953 61.3287C-43.9356 60.6319 -48.8237 60.5912 -50.4181 64.4752C-51.5218 67.164 -52.1643 70.279 -52.1643 73.689C-52.1643 85.0197 -45.0704 93.0941 -37.5329 93.0941C-33.8333 93.0941 -33.3143 88.4498 -34.9102 85.1122C-36.5011 81.785 -37.418 77.8738 -37.418 73.689C-37.418 70.2381 -36.7945 66.9732 -35.6837 64.0685ZM-33.245 82.6442C-31.6012 86.8003 -26.1872 86.8003 -24.5434 82.6442C-23.5036 80.015 -22.9014 76.9902 -22.9014 73.689C-22.9014 67.9162 -24.7428 62.9886 -27.5462 59.5434C-27.6529 59.4123 -27.781 59.3029 -27.9235 59.2118C-28.5129 58.835 -29.2755 58.835 -29.8649 59.2118C-30.0074 59.3029 -30.1355 59.4123 -30.2422 59.5435C-33.0456 62.9886 -34.887 67.9162 -34.887 73.689C-34.887 76.9902 -34.2848 80.015 -33.245 82.6442ZM-35.6837 49.2021C-35.2402 50.3617 -36.2913 51.7529 -37.5329 51.7529C-38.2998 51.7529 -39.055 51.8172 -39.7953 51.9418C-43.9356 52.6387 -48.8237 52.6794 -50.4181 48.7954C-51.5218 46.1066 -52.1643 42.9915 -52.1643 39.5815C-52.1643 36.1848 -51.5268 33.0806 -50.4309 30.399C-48.8401 26.5064 -43.9429 26.546 -39.7962 27.2442C-39.0556 27.3689 -38.3001 27.4333 -37.5329 27.4333C-36.2947 27.4333 -35.2476 28.8186 -35.6892 29.9753C-36.7965 32.8765 -37.418 36.1363 -37.418 39.5815C-37.418 43.0325 -36.7945 46.2974 -35.6837 49.2021ZM96.2949 14.6798C94.7041 18.5723 89.8069 18.5327 85.6601 17.8345C84.9195 17.7098 84.1641 17.6454 83.3968 17.6454C82.16 17.6454 81.1146 16.2619 81.5558 15.1065C82.664 12.2046 83.2858 8.94372 83.2858 5.49719C83.2858 2.04686 82.6626 -1.21742 81.5521 -4.12176C81.1097 -5.27907 82.1578 -6.66648 83.3968 -6.66648C84.1639 -6.66648 84.9191 -6.73079 85.6596 -6.85543C89.802 -7.55277 94.6931 -7.59309 96.2863 -3.70624C97.3874 -1.01981 98.0283 2.09161 98.0283 5.49719C98.0283 8.89396 97.3907 11.9981 96.2949 14.6798ZM77.7428 21.7189C77.6563 21.7675 77.579 21.8321 77.5134 21.9065C77.1955 22.2672 77.1955 22.8115 77.5134 23.1722C77.579 23.2467 77.6563 23.3112 77.7428 23.3599C79.5206 24.3602 81.4438 24.9023 83.3968 24.9023C87.0573 24.9023 87.0573 20.1764 83.3968 20.1764C81.4438 20.1764 79.5205 20.7185 77.7428 21.7189ZM72.0068 23.1722C72.3247 22.8115 72.3247 22.2672 72.0068 21.9065C71.9412 21.8321 71.8639 21.7675 71.7774 21.7189C69.9997 20.7185 68.0764 20.1764 66.1234 20.1764C64.1671 20.1764 62.2406 20.7203 60.4603 21.7239C60.3746 21.7722 60.298 21.8363 60.2329 21.91C59.9167 22.2687 59.9167 22.81 60.2329 23.1687C60.298 23.2425 60.3746 23.3065 60.4603 23.3548C62.2406 24.3584 64.1671 24.9023 66.1234 24.9023C68.0764 24.9023 69.9997 24.3602 71.7774 23.3599C71.8639 23.3112 71.9412 23.2467 72.0068 23.1722ZM75.7637 19.929C75.9147 19.8331 76.0502 19.7174 76.1624 19.5781C78.9363 16.1362 80.7549 11.2341 80.7549 5.49719C80.7549 -0.261166 78.9227 -5.17849 76.1312 -8.62239C76.0221 -8.75695 75.8908 -8.86897 75.7448 -8.9621C75.1467 -9.34351 74.3735 -9.34351 73.7754 -8.96211C73.6294 -8.86898 73.4981 -8.75695 73.389 -8.62239C70.5975 -5.17849 68.7654 -0.261162 68.7654 5.49719C68.7654 11.234 70.5839 16.1362 73.3578 19.5781C73.47 19.7174 73.6056 19.8331 73.7565 19.929C74.3663 20.3167 75.1539 20.3167 75.7637 19.929ZM67.9644 15.1065C68.4056 16.2619 67.3602 17.6454 66.1234 17.6454C64.8852 17.6454 63.8381 16.2601 64.2797 15.1034C65.3871 12.2022 66.0085 8.94247 66.0085 5.49719C66.0085 2.04811 65.3857 -1.21505 64.276 -4.11859C63.8332 -5.27726 64.883 -6.66648 66.1234 -6.66648C67.3624 -6.66648 68.4105 -5.27906 67.9681 -4.12176C66.8576 -1.21742 66.2344 2.04686 66.2344 5.49719C66.2344 8.94372 66.8562 12.2046 67.9644 15.1065ZM54.7365 23.1687C54.6714 23.2425 54.5948 23.3065 54.5091 23.3548C52.7288 24.3584 50.8024 24.9023 48.846 24.9023C46.893 24.9023 44.9698 24.3602 43.192 23.3599C43.1055 23.3112 43.0282 23.2467 42.9626 23.1722C42.6447 22.8115 42.6447 22.2672 42.9626 21.9065C43.0282 21.8321 43.1055 21.7675 43.192 21.7189C44.9698 20.7185 46.893 20.1764 48.846 20.1764C50.8024 20.1764 52.7288 20.7203 54.5091 21.7239C54.5948 21.7722 54.6715 21.8363 54.7365 21.91C55.0527 22.2687 55.0527 22.81 54.7365 23.1687ZM58.4841 19.933C57.8769 20.3193 57.0925 20.3193 56.4854 19.933C56.3356 19.8377 56.201 19.7228 56.0896 19.5846C53.3127 16.1423 51.4919 11.2377 51.4919 5.49719C51.4919 -0.264812 53.3264 -5.18472 56.1209 -8.62893C56.2292 -8.76243 56.3595 -8.87363 56.5044 -8.96614C57.0997 -9.34619 57.8697 -9.34619 58.465 -8.96614C58.6099 -8.87363 58.7402 -8.76243 58.8485 -8.62893C61.643 -5.18472 63.4775 -0.264812 63.4775 5.49719C63.4775 11.2377 61.6567 16.1423 58.8798 19.5846C58.7684 19.7228 58.6338 19.8377 58.4841 19.933ZM48.846 17.6454C50.0842 17.6454 51.1313 16.2601 50.6898 15.1034C49.5824 12.2022 48.9609 8.94247 48.9609 5.49719C48.9609 2.04811 49.5837 -1.21504 50.6934 -4.11858C51.1362 -5.27726 50.0864 -6.66648 48.846 -6.66648C47.607 -6.66648 46.5589 -5.27907 47.0014 -4.12176C48.1118 -1.21742 48.735 2.04686 48.735 5.49719C48.735 8.94372 48.1132 12.2046 47.005 15.1065C46.5638 16.2619 47.6093 17.6454 48.846 17.6454ZM37.456 23.1722C37.7739 22.8115 37.7739 22.2672 37.456 21.9065C37.3904 21.8321 37.3131 21.7675 37.2266 21.7189C35.4489 20.7185 33.5256 20.1764 31.5726 20.1764C29.613 20.1764 27.6833 20.7222 25.9005 21.729C25.8156 21.777 25.7396 21.8405 25.6751 21.9136C25.3606 22.2702 25.3606 22.8085 25.6751 23.1651C25.7396 23.2383 25.8156 23.3018 25.9005 23.3497C27.6833 24.3566 29.613 24.9023 31.5726 24.9023C33.5256 24.9023 35.4489 24.3602 37.2267 23.3599C37.3131 23.3112 37.3904 23.2467 37.456 23.1722ZM41.2129 19.929C41.3639 19.8331 41.4994 19.7174 41.6116 19.5782C44.3855 16.1362 46.2041 11.2341 46.2041 5.49719C46.2041 -0.261169 44.3719 -5.1785 41.5804 -8.62239C41.4713 -8.75696 41.3401 -8.86898 41.194 -8.96211C40.5959 -9.34351 39.8227 -9.34351 39.2246 -8.96211C39.0786 -8.86898 38.9473 -8.75696 38.8382 -8.62239C36.0468 -5.1785 34.2146 -0.261169 34.2146 5.49719C34.2146 11.2341 36.0331 16.1362 38.807 19.5782C38.9192 19.7174 39.0548 19.8331 39.2057 19.929C39.8155 20.3167 40.6031 20.3167 41.2129 19.929ZM33.4136 15.1065C33.8548 16.2619 32.8094 17.6454 31.5726 17.6454C30.333 17.6454 29.2843 16.2583 29.7262 15.1002C30.8328 12.1999 31.4538 8.94122 31.4538 5.49719C31.4538 2.04937 30.8315 -1.21267 29.7225 -4.11543C29.2794 -5.27545 30.3308 -6.66648 31.5726 -6.66648C32.8116 -6.66648 33.8598 -5.27907 33.4173 -4.12176C32.3068 -1.21742 31.6836 2.04686 31.6836 5.49719C31.6836 8.94372 32.3055 12.2046 33.4136 15.1065ZM20.1889 23.1651C20.1243 23.2383 20.0483 23.3018 19.9634 23.3497C18.1806 24.3566 16.251 24.9023 14.2914 24.9023C12.3416 24.9023 10.4216 24.3621 8.64628 23.3649C8.55906 23.3159 8.48106 23.2508 8.41493 23.1757C8.09541 22.813 8.09541 22.2657 8.41492 21.903C8.48105 21.8279 8.55905 21.7628 8.64628 21.7138C10.4216 20.7167 12.3416 20.1764 14.2914 20.1764C16.251 20.1764 18.1806 20.7222 19.9634 21.729C20.0483 21.777 20.1243 21.8405 20.1889 21.9136C20.5034 22.2702 20.5034 22.8085 20.1889 23.1651ZM23.927 19.9369C23.3226 20.322 22.5414 20.322 21.9369 19.9369C21.7883 19.8423 21.6548 19.7282 21.544 19.5911C18.7643 16.1485 16.9411 11.2413 16.9411 5.49719C16.9411 -0.268471 18.778 -5.19097 21.5754 -8.63549C21.683 -8.76793 21.8122 -8.87831 21.956 -8.97018C22.5486 -9.34887 23.3153 -9.34887 23.9079 -8.97018C24.0517 -8.87831 24.181 -8.76793 24.2885 -8.63549C27.086 -5.19097 28.9228 -0.268471 28.9228 5.49719C28.9228 11.2413 27.0997 16.1485 24.3199 19.5911C24.2092 19.7282 24.0757 19.8423 23.927 19.9369ZM14.2914 17.6454C15.5309 17.6454 16.5796 16.2583 16.1378 15.1002C15.0311 12.1999 14.4102 8.94121 14.4102 5.49719C14.4102 2.04937 15.0325 -1.21267 16.1414 -4.11543C16.5846 -5.27545 15.5331 -6.66648 14.2914 -6.66648C13.0537 -6.66648 12.0072 -5.28087 12.4494 -4.12492C13.5606 -1.21979 14.1843 2.0456 14.1843 5.49719C14.1843 8.94497 13.5619 12.207 12.453 15.1097C12.0122 16.2637 13.056 17.6454 14.2914 17.6454ZM2.89824 23.1758C3.21776 22.813 3.21776 22.2657 2.89825 21.903C2.83212 21.8279 2.75413 21.7628 2.6669 21.7138C0.891621 20.7167 -1.02843 20.1764 -2.97818 20.1764C-4.93451 20.1764 -6.86096 20.7203 -8.64125 21.7239C-8.72694 21.7722 -8.8036 21.8363 -8.86866 21.91C-9.18486 22.2687 -9.18484 22.81 -8.86864 23.1687C-8.80359 23.2425 -8.72692 23.3065 -8.64123 23.3548C-6.86094 24.3584 -4.9345 24.9023 -2.97818 24.9023C-1.02844 24.9023 0.891617 24.3621 2.66689 23.3649C2.75412 23.3159 2.83212 23.2508 2.89824 23.1758ZM6.66447 19.9251C6.81652 19.8285 6.95309 19.712 7.06605 19.5717C9.83701 16.13 11.6533 11.2305 11.6533 5.49719C11.6533 -0.25753 9.82341 -5.17228 7.03492 -8.61586C6.92509 -8.75149 6.7928 -8.86434 6.64561 -8.9581C6.04482 -9.34084 5.26835 -9.34084 4.66756 -8.9581C4.52037 -8.86434 4.38808 -8.75149 4.27825 -8.61586C1.48976 -5.17228 -0.340111 -0.25753 -0.340111 5.49719C-0.340111 11.2305 1.47615 16.13 4.24712 19.5717C4.36008 19.712 4.49665 19.8285 4.6487 19.9251C5.26118 20.314 6.05198 20.314 6.66447 19.9251ZM-1.13986 15.1097C-0.698997 16.2637 -1.74281 17.6454 -2.97818 17.6454C-4.21634 17.6454 -5.26344 16.2601 -4.82189 15.1034C-3.7145 12.2022 -3.09308 8.94247 -3.09308 5.49719C-3.09308 2.04811 -3.71587 -1.21505 -4.82555 -4.11859C-5.26838 -5.27726 -4.21859 -6.66648 -2.97818 -6.66648C-1.74056 -6.66648 -0.69405 -5.28087 -1.1362 -4.12492C-2.2474 -1.21979 -2.87109 2.0456 -2.87109 5.49719C-2.87109 8.94498 -2.24877 12.207 -1.13986 15.1097ZM-14.3651 23.1687C-14.4301 23.2425 -14.5068 23.3065 -14.5925 23.3548C-16.3728 24.3584 -18.2992 24.9023 -20.2555 24.9023C-22.2118 24.9023 -24.1383 24.3584 -25.9186 23.3548C-26.0043 23.3065 -26.0809 23.2425 -26.146 23.1687C-26.4622 22.81 -26.4622 22.2687 -26.146 21.91C-26.0809 21.8363 -26.0043 21.7722 -25.9186 21.7239C-24.1383 20.7203 -22.2118 20.1764 -20.2555 20.1764C-18.2992 20.1764 -16.3728 20.7203 -14.5925 21.7239C-14.5068 21.7722 -14.4301 21.8363 -14.3651 21.91C-14.0488 22.2687 -14.0489 22.81 -14.3651 23.1687ZM-10.6175 19.933C-11.2246 20.3193 -12.0091 20.3193 -12.6162 19.933C-12.766 19.8377 -12.9005 19.7228 -13.012 19.5846C-15.7888 16.1423 -17.6096 11.2377 -17.6096 5.49719C-17.6096 -0.26487 -15.7751 -5.18482 -12.9806 -8.62904C-12.8723 -8.76253 -12.742 -8.87372 -12.5971 -8.96622C-12.0018 -9.34623 -11.2318 -9.34617 -10.6365 -8.96615C-10.4916 -8.87365 -10.3613 -8.76244 -10.253 -8.62893C-7.45857 -5.18472 -5.62406 -0.264812 -5.62406 5.49719C-5.62406 11.2377 -7.44489 16.1423 -10.2217 19.5846C-10.3332 19.7228 -10.4677 19.8377 -10.6175 19.933ZM-20.2555 17.6454C-19.0174 17.6454 -17.9703 16.2601 -18.4118 15.1034C-19.5192 12.2022 -20.1406 8.94247 -20.1406 5.49719C-20.1406 2.04799 -19.5178 -1.21527 -18.408 -4.11889C-17.9652 -5.2775 -19.0149 -6.66666 -20.2553 -6.66666C-21.4958 -6.66666 -22.5457 -5.27729 -22.1029 -4.11852C-20.9932 -1.21499 -20.3704 2.04814 -20.3704 5.49719C-20.3704 8.94247 -20.9918 12.2022 -22.0992 15.1034C-22.5408 16.2601 -21.4937 17.6454 -20.2555 17.6454ZM-31.6424 23.1687C-31.3262 22.81 -31.3262 22.2687 -31.6424 21.91C-31.7075 21.8363 -31.7841 21.7722 -31.8698 21.7239C-33.6501 20.7203 -35.5765 20.1764 -37.5329 20.1764C-41.1934 20.1764 -41.1934 24.9023 -37.5329 24.9023C-35.5765 24.9023 -33.6501 24.3584 -31.8698 23.3548C-31.7841 23.3065 -31.7075 23.2425 -31.6424 23.1687ZM-27.8948 19.933C-27.7451 19.8377 -27.6105 19.7228 -27.4991 19.5846C-24.7222 16.1423 -22.9014 11.2377 -22.9014 5.49719C-22.9014 -0.265305 -24.7362 -5.18555 -27.5311 -8.62981C-27.6393 -8.76319 -27.7695 -8.87429 -27.9142 -8.96672C-28.5093 -9.34661 -29.2792 -9.34641 -29.8742 -8.96653C-30.0191 -8.87405 -30.1494 -8.76284 -30.2577 -8.62939C-33.0523 -5.18515 -34.887 -0.265068 -34.887 5.49719C-34.887 11.2377 -33.0662 16.1423 -30.2893 19.5846C-30.1779 19.7228 -30.0433 19.8377 -29.8935 19.933C-29.2864 20.3193 -28.502 20.3193 -27.8948 19.933ZM96.2863 -19.3992C94.6931 -15.5123 89.802 -15.5526 85.6596 -16.25C84.9191 -16.3746 84.1639 -16.4389 83.3968 -16.4389C82.1578 -16.4389 81.1097 -17.8263 81.5521 -18.9836C82.6626 -21.888 83.2858 -25.1523 83.2858 -28.6026C83.2858 -32.7893 82.3682 -36.7021 80.7759 -40.0303C79.1801 -43.3658 79.6992 -48.0077 83.3968 -48.0077C90.9343 -48.0077 98.0283 -39.9333 98.0283 -28.6026C98.0283 -25.197 97.3874 -22.0856 96.2863 -19.3992ZM77.7101 -12.347C77.6274 -12.3002 77.5533 -12.2384 77.4904 -12.1672C77.1809 -11.8173 77.1809 -11.2882 77.4904 -10.9382C77.5533 -10.867 77.6274 -10.8052 77.7101 -10.7584C79.4969 -9.74623 81.4318 -9.19746 83.3968 -9.19746C87.0479 -9.19746 87.0479 -13.9079 83.3968 -13.9079C81.4318 -13.9079 79.4969 -13.3592 77.7101 -12.347ZM72.0298 -10.9382C72.3393 -11.2882 72.3393 -11.8172 72.0299 -12.1672C71.9669 -12.2384 71.8928 -12.3002 71.8102 -12.347C70.0233 -13.3592 68.0884 -13.9079 66.1234 -13.9079C64.155 -13.9079 62.217 -13.3573 60.4275 -12.3419C60.3456 -12.2954 60.2722 -12.2341 60.2098 -12.1636C59.902 -11.8157 59.902 -11.2897 60.2098 -10.9418C60.2722 -10.8713 60.3456 -10.81 60.4275 -10.7635C62.2169 -9.74808 64.155 -9.19746 66.1234 -9.19746C68.0884 -9.19746 70.0233 -9.74622 71.8102 -10.7584C71.8928 -10.8052 71.9669 -10.867 72.0298 -10.9382ZM75.7448 -14.1433C75.8908 -14.2364 76.0221 -14.3484 76.1312 -14.483C78.9227 -17.9269 80.7549 -22.8442 80.7549 -28.6026C80.7549 -31.9059 80.1519 -34.9324 79.1108 -37.5628C77.4664 -41.7175 72.0538 -41.7175 70.4094 -37.5628C69.3683 -34.9324 68.7654 -31.9059 68.7654 -28.6026C68.7654 -22.8442 70.5975 -17.9269 73.389 -14.483C73.4981 -14.3484 73.6293 -14.2364 73.7754 -14.1433C74.3735 -13.7619 75.1467 -13.7619 75.7448 -14.1433ZM67.9681 -18.9836C68.4105 -17.8263 67.3624 -16.4389 66.1234 -16.4389C64.883 -16.4389 63.8332 -17.8281 64.276 -18.9868C65.3857 -21.8904 66.0085 -25.1535 66.0085 -28.6026C66.0085 -32.7874 65.0917 -36.6985 63.5007 -40.0257C61.9048 -43.3633 62.4238 -48.0077 66.1234 -48.0077C69.821 -48.0077 70.3401 -43.3658 68.7443 -40.0303C67.152 -36.7021 66.2344 -32.7893 66.2344 -28.6026C66.2344 -25.1523 66.8576 -21.888 67.9681 -18.9836ZM54.7596 -10.9418C54.6972 -10.8713 54.6238 -10.81 54.5419 -10.7635C52.7525 -9.74809 50.8144 -9.19746 48.846 -9.19746C46.881 -9.19746 44.9462 -9.74622 43.1593 -10.7584C43.0766 -10.8052 43.0025 -10.867 42.9396 -10.9382C42.6301 -11.2882 42.6301 -11.8172 42.9396 -12.1672C43.0025 -12.2384 43.0766 -12.3002 43.1593 -12.347C44.9462 -13.3592 46.881 -13.9079 48.846 -13.9079C50.8144 -13.9079 52.7525 -13.3573 54.5419 -12.3419C54.6238 -12.2954 54.6972 -12.2341 54.7596 -12.1636C55.0674 -11.8157 55.0674 -11.2897 54.7596 -10.9418ZM58.465 -14.1393C57.8697 -13.7592 57.0997 -13.7592 56.5044 -14.1393C56.3595 -14.2318 56.2292 -14.343 56.1209 -14.4765C53.3264 -17.9207 51.4919 -22.8406 51.4919 -28.6026C51.4919 -31.9038 52.0941 -34.9286 53.1339 -37.5578C54.7777 -41.7139 60.1917 -41.7139 61.8355 -37.5578C62.8753 -34.9286 63.4775 -31.9038 63.4775 -28.6026C63.4775 -22.8406 61.643 -17.9207 58.8485 -14.4765C58.7402 -14.343 58.6099 -14.2318 58.465 -14.1393ZM48.846 -16.4389C50.0864 -16.4389 51.1362 -17.8281 50.6934 -18.9868C49.5837 -21.8904 48.9609 -25.1535 48.9609 -28.6026C48.9609 -32.7874 49.8778 -36.6985 51.4687 -40.0257C53.0646 -43.3633 52.5456 -48.0077 48.846 -48.0077C45.1484 -48.0077 44.6293 -43.3658 46.2251 -40.0303C47.8174 -36.7021 48.735 -32.7893 48.735 -28.6026C48.735 -25.1523 48.1118 -21.888 47.0014 -18.9836C46.5589 -17.8263 47.607 -16.4389 48.846 -16.4389ZM37.4791 -10.9382C37.7886 -11.2882 37.7886 -11.8172 37.4791 -12.1672C37.4161 -12.2384 37.3421 -12.3002 37.2594 -12.347C35.4725 -13.3592 33.5376 -13.9079 31.5726 -13.9079C29.6009 -13.9079 27.6596 -13.3554 25.8677 -12.3367C25.7865 -12.2906 25.7138 -12.2298 25.6519 -12.1599C25.3458 -11.8142 25.3458 -11.2912 25.6519 -10.9455C25.7138 -10.8756 25.7865 -10.8148 25.8677 -10.7687C27.6596 -9.74995 29.6009 -9.19746 31.5726 -9.19746C33.5376 -9.19746 35.4725 -9.74622 37.2594 -10.7584C37.3421 -10.8052 37.4161 -10.867 37.4791 -10.9382ZM41.194 -14.1433C41.3401 -14.2364 41.4713 -14.3484 41.5804 -14.483C44.3719 -17.9269 46.2041 -22.8442 46.2041 -28.6026C46.2041 -31.9059 45.6011 -34.9324 44.5601 -37.5628C42.9157 -41.7175 37.503 -41.7175 35.8586 -37.5628C34.8175 -34.9324 34.2146 -31.9059 34.2146 -28.6026C34.2146 -22.8442 36.0468 -17.9269 38.8382 -14.483C38.9473 -14.3484 39.0786 -14.2364 39.2246 -14.1433C39.8227 -13.7619 40.5959 -13.7619 41.194 -14.1433ZM33.4173 -18.9836C33.8598 -17.8263 32.8116 -16.4389 31.5726 -16.4389C30.3308 -16.4389 29.2794 -17.8299 29.7225 -18.99C30.8315 -21.8927 31.4538 -25.1548 31.4538 -28.6026C31.4538 -32.7855 30.5378 -36.6949 28.9482 -40.0211C27.3522 -43.3608 27.8712 -48.0077 31.5726 -48.0077C35.2702 -48.0077 35.7894 -43.3658 34.1936 -40.0303C32.6013 -36.7021 31.6836 -32.7893 31.6836 -28.6026C31.6836 -25.1523 32.3068 -21.888 33.4173 -18.9836ZM20.2121 -10.9455C20.1502 -10.8756 20.0774 -10.8148 19.9963 -10.7687C18.2043 -9.74995 16.263 -9.19746 14.2914 -9.19746C12.3297 -9.19746 10.398 -9.74437 8.61363 -10.7533C8.53018 -10.8004 8.45546 -10.8628 8.39196 -10.9346C8.08079 -11.2866 8.0808 -11.8188 8.39198 -12.1708C8.45547 -12.2426 8.53019 -12.305 8.61364 -12.3521C10.398 -13.361 12.3297 -13.9079 14.2914 -13.9079C16.263 -13.9079 18.2043 -13.3554 19.9963 -12.3367C20.0774 -12.2906 20.1502 -12.2298 20.212 -12.1599C20.5181 -11.8142 20.5181 -11.2912 20.2121 -10.9455ZM23.9079 -14.1352C23.3153 -13.7565 22.5486 -13.7565 21.956 -14.1352C21.8123 -14.2271 21.683 -14.3375 21.5754 -14.4699C18.778 -17.9144 16.9411 -22.8369 16.9411 -28.6026C16.9411 -31.9017 17.5425 -34.9247 18.5812 -37.5527C20.2243 -41.7103 25.6397 -41.7103 27.2828 -37.5527C28.3214 -34.9247 28.9228 -31.9017 28.9228 -28.6026C28.9228 -22.8369 27.086 -17.9144 24.2885 -14.4699C24.181 -14.3375 24.0517 -14.2271 23.9079 -14.1352ZM14.2914 -16.4389C15.5331 -16.4389 16.5846 -17.8299 16.1414 -18.99C15.0325 -21.8927 14.4102 -25.1548 14.4102 -28.6026C14.4102 -32.7855 15.3261 -36.6949 16.9157 -40.0211C18.5118 -43.3608 17.9928 -48.0077 14.2914 -48.0077C10.5956 -48.0077 10.0764 -43.3684 11.6721 -40.0349C13.2658 -36.7057 14.1843 -32.7912 14.1843 -28.6026C14.1843 -25.151 13.5606 -21.8856 12.4494 -18.9805C12.0072 -17.8245 13.0537 -16.4389 14.2914 -16.4389ZM2.92121 -10.9346C3.23238 -11.2867 3.23239 -11.8187 2.92121 -12.1708C2.85772 -12.2426 2.783 -12.3049 2.69955 -12.3521C0.915176 -13.361 -1.01648 -13.9079 -2.97818 -13.9079C-4.94646 -13.9079 -6.88449 -13.3573 -8.67385 -12.342C-8.75579 -12.2955 -8.82921 -12.2342 -8.89164 -12.1636C-9.19941 -11.8158 -9.19952 -11.2897 -8.89175 -10.9418C-8.82933 -10.8713 -8.75595 -10.81 -8.67403 -10.7635C-6.88462 -9.74809 -4.94653 -9.19746 -2.97818 -9.19746C-1.01648 -9.19746 0.915165 -9.74438 2.69954 -10.7533C2.78299 -10.8004 2.85772 -10.8628 2.92121 -10.9346ZM6.64562 -14.1473C6.7928 -14.2411 6.9251 -14.3539 7.03492 -14.4895C9.82341 -17.9331 11.6533 -22.8479 11.6533 -28.6026C11.6533 -31.908 11.0496 -34.9363 10.0073 -37.5678C8.36225 -41.7211 2.95092 -41.7211 1.3059 -37.5679C0.263592 -34.9363 -0.340111 -31.908 -0.340111 -28.6026C-0.340111 -22.8479 1.48976 -17.9331 4.27825 -14.4895C4.38807 -14.3539 4.52037 -14.2411 4.66755 -14.1473C5.26835 -13.7646 6.04482 -13.7645 6.64562 -14.1473ZM-1.1362 -18.9805C-0.69405 -17.8245 -1.74056 -16.4389 -2.97818 -16.4389C-4.21853 -16.4389 -5.26826 -17.8281 -4.82544 -18.9867C-3.71568 -21.8903 -3.09284 -25.1536 -3.09284 -28.6028C-3.09284 -32.7877 -4.00972 -36.6989 -5.60073 -40.0262C-7.19662 -43.3636 -6.67754 -48.0077 -2.97818 -48.0077C0.717571 -48.0077 1.23676 -43.3684 -0.358952 -40.0349C-1.95258 -36.7057 -2.87109 -32.7912 -2.87109 -28.6026C-2.87109 -25.151 -2.2474 -21.8856 -1.1362 -18.9805ZM-14.3419 -10.9419C-14.4043 -10.8714 -14.4777 -10.8101 -14.5596 -10.7636C-16.3489 -9.74824 -18.287 -9.19765 -20.2553 -9.19765C-22.224 -9.19765 -24.1624 -9.74847 -25.9521 -10.7643C-26.0339 -10.8107 -26.1072 -10.8719 -26.1696 -10.9424C-26.4772 -11.2899 -26.477 -11.8158 -26.1694 -12.1634C-26.107 -12.2339 -26.0336 -12.2952 -25.9518 -12.3416C-24.1622 -13.3572 -22.224 -13.9079 -20.2555 -13.9079C-18.2872 -13.9079 -16.3491 -13.3573 -14.5597 -12.3419C-14.4778 -12.2954 -14.4044 -12.2341 -14.3419 -12.1636C-14.0342 -11.8158 -14.0341 -11.2897 -14.3419 -10.9419ZM-10.6364 -14.1393C-11.2318 -13.7593 -12.0018 -13.7592 -12.5972 -14.1393C-12.7421 -14.2318 -12.8724 -14.343 -12.9807 -14.4765C-15.7751 -17.9207 -17.6096 -22.8406 -17.6096 -28.6026C-17.6096 -31.904 -17.0074 -34.9289 -15.9675 -37.5582C-14.3236 -41.7142 -8.90968 -41.7142 -7.26591 -37.5581C-6.22602 -34.9289 -5.62383 -31.904 -5.62383 -28.6028C-5.62383 -22.8407 -7.45835 -17.9208 -10.2528 -14.4766C-10.3612 -14.3431 -10.4915 -14.2318 -10.6364 -14.1393ZM-20.2555 -16.4389C-19.0151 -16.4389 -17.9653 -17.8281 -18.4081 -18.9868C-19.5178 -21.8904 -20.1406 -25.1535 -20.1406 -28.6026C-20.1406 -32.7875 -19.2237 -36.6988 -17.6327 -40.026C-16.0368 -43.3636 -16.5558 -48.0079 -20.2553 -48.0079C-23.955 -48.0079 -24.474 -43.3634 -22.8781 -40.0256C-21.2872 -36.6985 -20.3704 -32.7875 -20.3704 -28.6028C-20.3704 -25.1537 -20.9932 -21.8905 -22.1029 -18.9869C-22.5458 -17.8282 -21.496 -16.4389 -20.2555 -16.4389ZM-27.5307 -14.4762C-27.639 -14.3427 -27.7693 -14.2315 -27.9142 -14.1391C-28.5091 -13.7592 -29.279 -13.759 -29.8739 -14.1389C-30.0187 -14.2313 -30.1489 -14.3424 -30.2571 -14.4758C-33.0519 -17.92 -34.8867 -22.8403 -34.8867 -28.6028C-34.8867 -31.9038 -34.2846 -34.9285 -33.2448 -37.5577C-31.6011 -41.7139 -26.187 -41.7139 -24.5433 -37.5577C-23.5035 -34.9285 -22.9014 -31.9038 -22.9014 -28.6028C-22.9014 -22.8405 -24.7361 -17.9204 -27.5307 -14.4762ZM-50.4223 -19.3991C-51.5234 -22.0856 -52.1643 -25.1971 -52.1643 -28.6028C-52.1643 -39.9335 -45.0704 -48.0079 -37.5329 -48.0079C-33.8332 -48.0079 -33.3142 -43.3634 -34.9101 -40.0256C-36.501 -36.6985 -37.4177 -32.7875 -37.4177 -28.6028C-37.4177 -25.1537 -36.795 -21.8906 -35.6853 -18.9871C-35.2424 -17.8283 -36.2924 -16.4389 -37.5329 -16.4389C-38.2999 -16.4389 -39.0552 -16.3746 -39.7956 -16.25C-43.938 -15.5526 -48.8291 -15.5123 -50.4223 -19.3991Z" fill="white"/>
</g>
</svg>
