<svg width="45" height="45" viewBox="0 0 45 45" fill="none" xmlns="http://www.w3.org/2000/svg">
<mask id="mask0_442_247" style="mask-type:alpha" maskUnits="userSpaceOnUse" x="0" y="0" width="45" height="45">
<path d="M44.781 0.785209V44.3982H0.218985V0.338379L44.781 0.785209Z" fill="#D9D9D9" stroke="white" stroke-width="0.437969"/>
</mask>
<g mask="url(#mask0_442_247)">
<path fill-rule="evenodd" clip-rule="evenodd" d="M-49.5771 -71.1713V-71.1713C-49.7347 -71.4533 -50.1406 -71.4533 -50.2982 -71.1713V-71.1713L-60.6491 -52.6456L-60.7045 -52.5463C-60.7242 -52.511 -60.7615 -52.4891 -60.802 -52.4891V-52.4891C-60.8873 -52.4891 -60.9411 -52.3974 -60.8995 -52.3229L-60.896 -52.3167C-60.8764 -52.2815 -60.8764 -52.2387 -60.896 -52.2036L-60.8995 -52.1973C-60.9411 -52.1228 -60.8873 -52.0311 -60.802 -52.0311V-52.0311C-60.7615 -52.0311 -60.7242 -52.0092 -60.7045 -51.9739L-60.6491 -51.8747L-51.3737 -35.2739C-50.7861 -34.2224 -50.7861 -32.9413 -51.3737 -31.8897L-60.6827 -15.2287L-60.7382 -15.1294C-60.7579 -15.0941 -60.7952 -15.0722 -60.8357 -15.0722V-15.0722C-60.921 -15.0722 -60.9748 -14.9805 -60.9332 -14.906L-60.9297 -14.8998C-60.91 -14.8646 -60.91 -14.8218 -60.9297 -14.7867L-60.9332 -14.7804C-60.9748 -14.706 -60.921 -14.6142 -60.8357 -14.6142V-14.6142C-60.7952 -14.6142 -60.7579 -14.5923 -60.7382 -14.557L-60.6827 -14.4578L-51.402 2.15264C-50.8144 3.20421 -50.8144 4.4853 -51.402 5.53687L-60.7015 22.1809L-60.757 22.2801C-60.7767 22.3155 -60.814 22.3374 -60.8545 22.3374V22.3374C-60.9398 22.3374 -60.9936 22.4291 -60.952 22.5035L-60.9485 22.5098C-60.9288 22.545 -60.9288 22.5878 -60.9485 22.6229L-60.952 22.6292C-60.9936 22.7036 -60.9398 22.7954 -60.8545 22.7954V22.7954C-60.814 22.7954 -60.7767 22.8173 -60.757 22.8526L-60.7015 22.9518L-51.424 39.5565C-50.8364 40.608 -50.8364 41.8891 -51.424 42.9407L-60.7352 59.6056L-60.7906 59.7048C-60.8104 59.7402 -60.8477 59.7621 -60.8881 59.7621V59.7621C-60.9734 59.7621 -61.0273 59.8538 -60.9857 59.9282L-60.9821 59.9345C-60.9625 59.9697 -60.9625 60.0125 -60.9821 60.0476L-60.9857 60.0539C-61.0273 60.1283 -60.9734 60.2201 -60.8881 60.2201V60.2201C-60.8477 60.2201 -60.8104 60.242 -60.7906 60.2773L-60.7352 60.3765L-50.3843 78.9022V78.9022C-50.2267 79.1843 -49.8208 79.1843 -49.6632 78.9022V78.9022L-42.6981 66.4363C-41.3743 64.0669 -37.965 64.0669 -36.6411 66.4363L-29.676 78.9022V78.9022C-29.5184 79.1843 -29.1126 79.1843 -28.955 78.9022V78.9022L-21.9974 66.4498C-20.6736 64.0804 -17.2643 64.0804 -15.9404 66.4498L-8.98288 78.9022V78.9022C-8.82528 79.1843 -8.41941 79.1843 -8.26181 78.9022V78.9022L-1.29487 66.433C0.0289804 64.0636 3.43827 64.0636 4.76212 66.433L11.729 78.9022V78.9022C11.8867 79.1843 12.2925 79.1843 12.4501 78.9022V78.9022L19.4077 66.4498C20.7315 64.0804 24.1408 64.0804 25.4646 66.4498L32.4222 78.9022V78.9022C32.5798 79.1843 32.9857 79.1843 33.1433 78.9022V78.9022L40.1102 66.433C41.4341 64.0636 44.8433 64.0636 46.1672 66.433L53.1341 78.9022V78.9022C53.2917 79.1843 53.6976 79.1843 53.8552 78.9022V78.9022L60.8914 66.309C62.2153 63.9396 65.6246 63.9396 66.9484 66.309L73.9847 78.9022V78.9022C74.1423 79.1843 74.5481 79.1843 74.7057 78.9022V78.9022L81.7456 66.3024C83.0695 63.9331 86.4788 63.9331 87.8026 66.3024L94.8425 78.9022V78.9022C95.0001 79.1843 95.406 79.1843 95.5636 78.9022V78.9022L105.914 60.3765L105.97 60.2773C105.99 60.242 106.027 60.2201 106.067 60.2201V60.2201C106.153 60.2201 106.207 60.1283 106.165 60.0539L106.161 60.0476C106.142 60.0125 106.142 59.9697 106.161 59.9345L106.165 59.9282C106.207 59.8538 106.153 59.7621 106.067 59.7621V59.7621C106.027 59.7621 105.99 59.7402 105.97 59.7048L105.914 59.6056L96.6295 42.9876C96.0419 41.9361 96.0419 40.655 96.6295 39.6034L105.933 22.9518L105.989 22.8526C106.008 22.8173 106.046 22.7954 106.086 22.7954V22.7954C106.171 22.7954 106.225 22.7036 106.184 22.6292L106.18 22.6229C106.161 22.5878 106.161 22.545 106.18 22.5098L106.184 22.5035C106.225 22.4291 106.171 22.3374 106.086 22.3374V22.3374C106.046 22.3374 106.008 22.3155 105.989 22.2801L105.933 22.1809L96.6599 5.58381C96.0724 4.53224 96.0724 3.25115 96.6599 2.19958L105.967 -14.4578L106.022 -14.557C106.042 -14.5923 106.079 -14.6142 106.12 -14.6142V-14.6142C106.205 -14.6142 106.259 -14.706 106.217 -14.7804L106.214 -14.7867C106.194 -14.8218 106.194 -14.8646 106.214 -14.8998L106.217 -14.906C106.259 -14.9805 106.205 -15.0722 106.12 -15.0722V-15.0722C106.079 -15.0722 106.042 -15.0941 106.022 -15.1294L105.967 -15.2287L96.6859 -31.8395C96.0984 -32.891 96.0984 -34.1721 96.6859 -35.2237L105.989 -51.8747L106.045 -51.9739C106.065 -52.0092 106.102 -52.0311 106.142 -52.0311V-52.0311C106.228 -52.0311 106.281 -52.1229 106.24 -52.1973L106.236 -52.2036C106.217 -52.2387 106.217 -52.2815 106.236 -52.3167L106.24 -52.3229C106.281 -52.3974 106.228 -52.4891 106.142 -52.4891V-52.4891C106.102 -52.4891 106.065 -52.511 106.045 -52.5463L105.989 -52.6456L95.6385 -71.1713V-71.1713C95.4809 -71.4533 95.075 -71.4533 94.9174 -71.1713V-71.1713L87.8794 -58.5748C86.5555 -56.2054 83.1462 -56.2054 81.8224 -58.5748L74.7843 -71.1713V-71.1713C74.6267 -71.4533 74.2208 -71.4533 74.0632 -71.1713V-71.1713L67.0252 -58.5748C65.7013 -56.2054 62.292 -56.2054 60.9682 -58.5748L53.9301 -71.1713V-71.1713C53.7725 -71.4533 53.3666 -71.4533 53.209 -71.1713V-71.1713L46.2439 -58.7053C44.9201 -56.3359 41.5108 -56.3359 40.1869 -58.7053L33.2218 -71.1713V-71.1713C33.0642 -71.4533 32.6584 -71.4533 32.5008 -71.1713V-71.1713L25.5414 -58.7156C24.2175 -56.3462 20.8083 -56.3462 19.4844 -58.7156L12.525 -71.1713V-71.1713C12.3674 -71.4533 11.9616 -71.4533 11.804 -71.1713V-71.1713L4.84447 -58.7154C3.52062 -56.346 0.111335 -56.346 -1.21252 -58.7154L-8.17202 -71.1713V-71.1713C-8.32962 -71.4533 -8.73548 -71.4533 -8.89309 -71.1713V-71.1713L-15.8581 -58.7055C-17.1819 -56.3362 -20.5912 -56.3362 -21.9151 -58.7055L-28.88 -71.1713V-71.1713C-29.0376 -71.4533 -29.4435 -71.4533 -29.6011 -71.1713V-71.1713L-36.5606 -58.7154C-37.8845 -56.346 -41.2938 -56.346 -42.6176 -58.7154L-49.5771 -71.1713ZM93.7954 39.5698C94.3829 40.6213 94.3829 41.9024 93.7954 42.954L87.8026 53.6797C86.4788 56.0491 83.0695 56.0491 81.7456 53.6797L75.7753 42.9942C75.1877 41.9426 75.1877 40.6615 75.7753 39.61L81.7681 28.8843C83.0919 26.5149 86.5012 26.5149 87.8251 28.8843L93.7954 39.5698ZM72.9412 39.5632C73.5288 40.6148 73.5288 41.8959 72.9412 42.9475L66.9484 53.6732C65.6246 56.0425 62.2153 56.0425 60.8914 53.6732L54.9229 42.9909C54.3354 41.9393 54.3354 40.6583 54.9229 39.6067L60.9157 28.881C62.2396 26.5116 65.6489 26.5116 66.9727 28.881L72.9412 39.5632ZM52.0889 39.5665C52.6764 40.6181 52.6764 41.8992 52.0889 42.9507L46.1672 53.5491C44.8433 55.9185 41.4341 55.9185 40.1102 53.5491L34.2148 42.9977C33.6272 41.9461 33.6272 40.665 34.2148 39.6135L40.1364 29.0151C41.4603 26.6457 44.8696 26.6457 46.1934 29.015L52.0889 39.5665ZM93.8174 2.13933C94.4049 3.1909 94.4049 4.47198 93.8174 5.52356L87.825 16.2484C86.5012 18.6178 83.0919 18.6178 81.7681 16.2484L75.8076 5.58054C75.22 4.52897 75.22 3.24789 75.8076 2.19632L81.7999 -8.52857C83.1238 -10.898 86.533 -10.898 87.8569 -8.52857L93.8174 2.13933ZM72.9651 2.14259C73.5526 3.19417 73.5526 4.47525 72.9651 5.52682L66.9727 16.2517C65.6489 18.6211 62.2396 18.6211 60.9157 16.2517L54.9534 5.58054C54.3658 4.52897 54.3658 3.24789 54.9534 2.19631L60.9457 -8.5286C62.2696 -10.898 65.6789 -10.898 67.0027 -8.5286L72.9651 2.14259ZM52.1109 2.14259C52.6984 3.19417 52.6984 4.47525 52.1109 5.52682L46.1934 16.1177C44.8696 18.4871 41.4603 18.487 40.1364 16.1177L34.2471 5.57705C33.6595 4.52548 33.6595 3.24439 34.2471 2.19282L40.1645 -8.39803C41.4884 -10.7674 44.8976 -10.7674 46.2215 -8.39803L52.1109 2.14259ZM93.8475 -35.2639C94.435 -34.2123 94.435 -32.9312 93.8475 -31.8797L87.8569 -21.1579C86.533 -18.7885 83.1238 -18.7885 81.7999 -21.1579L75.8318 -31.8395C75.2442 -32.891 75.2442 -34.1721 75.8318 -35.2237L81.8224 -45.9455C83.1462 -48.3149 86.5555 -48.3149 87.8794 -45.9455L93.8475 -35.2639ZM72.9933 -35.2639C73.5809 -34.2123 73.5809 -32.9312 72.9933 -31.8796L67.0027 -21.1579C65.6789 -18.7885 62.2696 -18.7885 60.9457 -21.1579L54.9776 -31.8395C54.39 -32.891 54.39 -34.1721 54.9776 -35.2237L60.9682 -45.9455C62.292 -48.3149 65.7013 -48.3149 67.0252 -45.9455L72.9933 -35.2639ZM52.1391 -35.2639C52.7267 -34.2123 52.7267 -32.9312 52.1391 -31.8797L46.2215 -21.2884C44.8976 -18.919 41.4883 -18.919 40.1645 -21.2884L34.2693 -31.8395C33.6818 -32.8911 33.6818 -34.1721 34.2693 -35.2237L40.1869 -45.8149C41.5108 -48.1843 44.9201 -48.1843 46.2439 -45.8149L52.1391 -35.2639ZM31.3807 39.5597C31.9682 40.6113 31.9682 41.8924 31.3807 42.944L25.4647 53.5323C24.1408 55.9017 20.7315 55.9017 19.4077 53.5323L13.5179 42.9909C12.9303 41.9393 12.9303 40.6583 13.5179 39.6067L19.4339 29.0183C20.7578 26.649 24.167 26.649 25.4909 29.0183L31.3807 39.5597ZM31.4045 2.14609C31.9921 3.19766 31.9921 4.47874 31.4045 5.53032L25.4909 16.1144C24.167 18.4838 20.7578 18.4838 19.4339 16.1144L13.5445 5.57378C12.957 4.5222 12.957 3.24112 13.5445 2.18955L19.4582 -8.39452C20.782 -10.7639 24.1913 -10.7639 25.5152 -8.39452L31.4045 2.14609ZM31.4309 -35.2639C32.0184 -34.2123 32.0184 -32.9312 31.4309 -31.8797L25.5152 -21.2919C24.1913 -18.9226 20.782 -18.9226 19.4582 -21.2919L13.5687 -31.8327C12.9812 -32.8843 12.9812 -34.1654 13.5687 -35.2169L19.4844 -45.8046C20.8083 -48.174 24.2175 -48.174 25.5414 -45.8046L31.4309 -35.2639ZM10.6838 39.5665C11.2713 40.6181 11.2713 41.8992 10.6838 42.9507L4.76212 53.5491C3.43827 55.9185 0.0289804 55.9185 -1.29487 53.5491L-7.18847 43.001C-7.77601 41.9494 -7.77601 40.6683 -7.18846 39.6167L-1.26681 29.0183C0.0570376 26.649 3.46632 26.649 4.79017 29.0183L10.6838 39.5665ZM10.702 2.14935C11.2895 3.20093 11.2895 4.48201 10.702 5.53358L4.79017 16.1144C3.46632 18.4838 0.0570379 18.4838 -1.26681 16.1144L-7.15619 5.57377C-7.74374 4.5222 -7.74374 3.24111 -7.15619 2.18954L-1.24436 -8.39126C0.0794883 -10.7606 3.48877 -10.7606 4.81262 -8.39126L10.702 2.14935ZM10.7303 -35.2707C11.3178 -34.2191 11.3178 -32.938 10.7303 -31.8864L4.81262 -21.2952C3.48877 -18.9258 0.0794852 -18.9258 -1.24436 -21.2952L-7.13017 -31.8294C-7.71772 -32.881 -7.71772 -34.1621 -7.13017 -35.2137L-1.21252 -45.8049C0.111333 -48.1743 3.52062 -48.1743 4.84447 -45.8049L10.7303 -35.2707ZM-10.0225 39.5565C-9.435 40.608 -9.435 41.8891 -10.0225 42.9407L-15.9404 53.5323C-17.2643 55.9017 -20.6736 55.9017 -21.9974 53.5323L-27.8872 42.9909C-28.4748 41.9393 -28.4748 40.6583 -27.8872 39.6067L-21.9693 29.0151C-20.6455 26.6457 -17.2362 26.6457 -15.9124 29.0151L-10.0225 39.5565ZM-9.99871 2.14937C-9.41116 3.20094 -9.41116 4.48202 -9.99871 5.5336L-15.9124 16.1177C-17.2362 18.487 -20.6455 18.487 -21.9693 16.1177L-27.8549 5.58382C-28.4425 4.53224 -28.4425 3.25116 -27.8549 2.19959L-21.9413 -8.38448C-20.6174 -10.7539 -17.2082 -10.7539 -15.8843 -8.38448L-9.99871 2.14937ZM-9.96861 -35.2739C-9.38106 -34.2224 -9.38106 -32.9413 -9.96861 -31.8897L-15.8843 -21.302C-17.2082 -18.9326 -20.6174 -18.9326 -21.9413 -21.302L-27.8308 -31.8428C-28.4183 -32.8943 -28.4183 -34.1754 -27.8308 -35.227L-21.9151 -45.8147C-20.5912 -48.1841 -17.1819 -48.1841 -15.8581 -45.8147L-9.96861 -35.2739ZM-30.7213 39.5665C-30.1338 40.6181 -30.1338 41.8992 -30.7213 42.9507L-36.6411 53.5459C-37.965 55.9152 -41.3743 55.9152 -42.6981 53.5459L-48.5899 43.001C-49.1774 41.9494 -49.1774 40.6683 -48.5899 39.6167L-42.6701 29.0216C-41.3462 26.6522 -37.9369 26.6522 -36.6131 29.0216L-30.7213 39.5665ZM-30.6975 2.13932C-30.1099 3.19089 -30.1099 4.47198 -30.6975 5.52355L-36.6131 16.1111C-37.9369 18.4805 -41.3462 18.4805 -42.6701 16.1111L-48.5594 5.5705C-49.147 4.51892 -49.147 3.23784 -48.5594 2.18626L-42.6438 -8.40129C-41.32 -10.7707 -37.9107 -10.7707 -36.5868 -8.40129L-30.6975 2.13932ZM-30.6692 -35.2606C-30.0817 -34.209 -30.0816 -32.9279 -30.6692 -31.8764L-36.5868 -21.2852C-37.9107 -18.9158 -41.32 -18.9158 -42.6438 -21.2852L-48.5352 -31.8294C-49.1228 -32.881 -49.1228 -34.1621 -48.5352 -35.2137L-42.6176 -45.8049C-41.2938 -48.1743 -37.8845 -48.1743 -36.5606 -45.8049L-30.6692 -35.2606ZM-53.6724 -52.8571C-56.3213 -52.8571 -57.9929 -55.706 -56.7009 -58.0184L-52.9661 -64.7028C-51.6423 -67.0722 -48.233 -67.0722 -46.9091 -64.7028L-43.1743 -58.0184C-41.8823 -55.706 -43.5539 -52.8571 -46.2028 -52.8571H-53.6724ZM-53.6724 -51.6631C-56.3213 -51.6631 -57.9929 -48.8143 -56.7009 -46.5019L-52.9661 -39.8174C-51.6423 -37.4481 -48.233 -37.4481 -46.9091 -39.8174L-43.1743 -46.5019C-41.8823 -48.8143 -43.5539 -51.6631 -46.2028 -51.6631H-53.6724ZM-46.9428 -27.2859C-48.2667 -29.6553 -51.6759 -29.6553 -52.9998 -27.2859L-56.7346 -20.6015C-58.0266 -18.2891 -56.355 -15.4402 -53.7061 -15.4402H-46.2365C-43.5876 -15.4402 -41.916 -18.2891 -43.208 -20.6015L-46.9428 -27.2859ZM-53.7061 -14.2462C-56.355 -14.2462 -58.0266 -11.3974 -56.7346 -9.08497L-52.9998 -2.40055C-51.6759 -0.0311626 -48.2667 -0.0311637 -46.9428 -2.40055L-43.208 -9.08497C-41.916 -11.3974 -43.5876 -14.2462 -46.2365 -14.2462H-53.7061ZM-46.9616 10.1237C-48.2854 7.7543 -51.6947 7.7543 -53.0186 10.1237L-56.7534 16.8081C-58.0454 19.1205 -56.3738 21.9694 -53.7249 21.9694H-46.2553C-43.6064 21.9694 -41.9348 19.1205 -43.2268 16.8081L-46.9616 10.1237ZM-53.7249 23.1633C-56.3738 23.1633 -58.0454 26.0122 -56.7534 28.3246L-53.0186 35.009C-51.6947 37.3784 -48.2854 37.3784 -46.9616 35.009L-43.2268 28.3246C-41.9348 26.0122 -43.6064 23.1633 -46.2553 23.1633H-53.7249ZM-46.9953 47.5484C-48.3191 45.179 -51.7284 45.179 -53.0523 47.5484L-56.7871 54.2328C-58.0791 56.5452 -56.4075 59.3941 -53.7586 59.3941H-46.289C-43.6401 59.3941 -41.9684 56.5452 -43.2605 54.2328L-46.9953 47.5484ZM-53.7586 60.588C-56.4075 60.588 -58.0791 63.4369 -56.7871 65.7493L-53.0523 72.4337C-51.7284 74.8031 -48.3191 74.8031 -46.9953 72.4337L-43.2605 65.7493C-41.9684 63.4369 -43.6401 60.588 -46.289 60.588H-53.7586ZM-26.2121 -64.7028C-27.5359 -67.0722 -30.9452 -67.0722 -32.2691 -64.7028L-36.0039 -58.0184C-37.2959 -55.706 -35.6243 -52.8571 -32.9754 -52.8571H-25.5058C-22.8569 -52.8571 -21.1853 -55.706 -22.4773 -58.0184L-26.2121 -64.7028ZM-32.9754 -51.6631C-35.6243 -51.6631 -37.2959 -48.8143 -36.0039 -46.5019L-32.2691 -39.8174C-30.9452 -37.4481 -27.5359 -37.4481 -26.2121 -39.8174L-22.4773 -46.5019C-21.1853 -48.8143 -22.8569 -51.6631 -25.5058 -51.6631H-32.9754ZM-26.2309 -27.2859C-27.5547 -29.6553 -30.964 -29.6553 -32.2879 -27.2859L-36.0227 -20.6015C-37.3147 -18.2891 -35.6431 -15.4402 -32.9942 -15.4402H-25.5246C-22.8757 -15.4402 -21.2041 -18.2891 -22.4961 -20.6015L-26.2309 -27.2859ZM-32.9942 -14.2462C-35.6431 -14.2462 -37.3147 -11.3974 -36.0227 -9.08497L-32.2879 -2.40055C-30.964 -0.0311624 -27.5547 -0.0311635 -26.2309 -2.40055L-22.4961 -9.08497C-21.2041 -11.3974 -22.8757 -14.2462 -25.5246 -14.2462H-32.9942ZM-26.2645 10.1237C-27.5884 7.7543 -30.9977 7.7543 -32.3215 10.1237L-36.0563 16.8081C-37.3484 19.1205 -35.6767 21.9694 -33.0278 21.9694H-25.5582C-22.9093 21.9694 -21.2377 19.1205 -22.5297 16.8081L-26.2645 10.1237ZM-33.0278 23.1633C-35.6767 23.1633 -37.3484 26.0122 -36.0563 28.3246L-32.3215 35.009C-30.9977 37.3784 -27.5884 37.3784 -26.2645 35.009L-22.5297 28.3246C-21.2377 26.0122 -22.9093 23.1633 -25.5582 23.1633H-33.0278ZM-26.287 47.5484C-27.6108 45.179 -31.0201 45.179 -32.344 47.5484L-36.0788 54.2328C-37.3708 56.5452 -35.6992 59.3941 -33.0503 59.3941H-25.5807C-22.9318 59.3941 -21.2602 56.5452 -22.5522 54.2328L-26.287 47.5484ZM-33.0503 60.588C-35.6992 60.588 -37.3708 63.4369 -36.0788 65.7493L-32.344 72.4337C-31.0201 74.8031 -27.6108 74.8031 -26.287 72.4337L-22.5522 65.7493C-21.2602 63.4369 -22.9318 60.588 -25.5807 60.588H-33.0503ZM-5.50406 -64.7028C-6.82791 -67.0722 -10.2372 -67.0722 -11.561 -64.7028L-15.2958 -58.0184C-16.5879 -55.706 -14.9162 -52.8571 -12.2674 -52.8571H-4.79775C-2.14885 -52.8571 -0.477232 -55.706 -1.76926 -58.0184L-5.50406 -64.7028ZM-12.2673 -51.6631C-14.9162 -51.6631 -16.5879 -48.8143 -15.2958 -46.5019L-11.561 -39.8174C-10.2372 -37.4481 -6.82791 -37.4481 -5.50406 -39.8174L-1.76926 -46.5019C-0.477229 -48.8143 -2.14885 -51.6631 -4.79774 -51.6631H-12.2673ZM-5.53773 -27.2859C-6.86158 -29.6553 -10.2709 -29.6553 -11.5947 -27.2859L-15.3295 -20.6015C-16.6215 -18.2891 -14.9499 -15.4402 -12.301 -15.4402H-4.83142C-2.18253 -15.4402 -0.510908 -18.2891 -1.80293 -20.6015L-5.53773 -27.2859ZM-12.301 -14.2462C-14.9499 -14.2462 -16.6215 -11.3974 -15.3295 -9.08497L-11.5947 -2.40055C-10.2709 -0.0311622 -6.86158 -0.0311637 -5.53773 -2.40055L-1.80293 -9.08497C-0.510905 -11.3974 -2.18252 -14.2462 -4.83142 -14.2462H-12.301ZM-5.56018 10.1237C-6.88403 7.7543 -10.2933 7.7543 -11.6172 10.1237L-15.352 16.8081C-16.644 19.1205 -14.9724 21.9694 -12.3235 21.9694H-4.85387C-2.20497 21.9694 -0.533352 19.1205 -1.82538 16.8081L-5.56018 10.1237ZM-12.3235 23.1633C-14.9724 23.1633 -16.644 26.0122 -15.352 28.3246L-11.6172 35.009C-10.2933 37.3784 -6.88403 37.3784 -5.56018 35.009L-1.82538 28.3246C-0.533351 26.0122 -2.20497 23.1633 -4.85387 23.1633H-12.3235ZM-5.59385 47.5484C-6.9177 45.179 -10.327 45.179 -11.6508 47.5484L-15.3856 54.2328C-16.6777 56.5452 -15.006 59.3941 -12.3571 59.3941H-4.88754C-2.23864 59.3941 -0.567021 56.5452 -1.85905 54.2328L-5.59385 47.5484ZM-12.3571 60.588C-15.006 60.588 -16.6777 63.4369 -15.3856 65.7493L-11.6508 72.4337C-10.327 74.8031 -6.9177 74.8031 -5.59385 72.4337L-1.85905 65.7493C-0.56702 63.4369 -2.23864 60.588 -4.88753 60.588H-12.3571ZM15.193 -64.7028C13.8691 -67.0722 10.4599 -67.0722 9.13601 -64.7028L5.40121 -58.0184C4.10919 -55.706 5.78081 -52.8571 8.4297 -52.8571H15.8993C18.5482 -52.8571 20.2198 -55.706 18.9278 -58.0184L15.193 -64.7028ZM8.4297 -51.6631C5.78081 -51.6631 4.10919 -48.8143 5.40121 -46.5019L9.13601 -39.8174C10.4599 -37.4481 13.8691 -37.4481 15.193 -39.8174L18.9278 -46.5019C20.2198 -48.8143 18.5482 -51.6631 15.8993 -51.6631H8.4297ZM15.163 -27.2859C13.8391 -29.6553 10.4298 -29.6553 9.106 -27.2859L5.3712 -20.6015C4.07917 -18.2891 5.75079 -15.4402 8.39969 -15.4402H15.8693C18.5182 -15.4402 20.1898 -18.2891 18.8978 -20.6015L15.163 -27.2859ZM8.39969 -14.2462C5.7508 -14.2462 4.07917 -11.3974 5.3712 -9.08497L9.106 -2.40055C10.4298 -0.0311624 13.8391 -0.0311635 15.163 -2.40055L18.8978 -9.08497C20.1898 -11.3974 18.5182 -14.2462 15.8693 -14.2462H8.39969ZM15.1405 10.1237C13.8167 7.7543 10.4074 7.7543 9.08354 10.1237L5.34874 16.8081C4.05672 19.1205 5.72834 21.9694 8.37723 21.9694H15.8468C18.4957 21.9694 20.1674 19.1205 18.8753 16.8081L15.1405 10.1237ZM8.37724 23.1633C5.72834 23.1633 4.05672 26.0122 5.34875 28.3246L9.08354 35.009C10.4074 37.3784 13.8167 37.3784 15.1405 35.009L18.8753 28.3246C20.1674 26.0122 18.4957 23.1633 15.8468 23.1633H8.37724ZM15.1181 47.5484C13.7942 45.179 10.3849 45.179 9.0611 47.5484L5.3263 54.2328C4.03427 56.5452 5.70589 59.3941 8.35479 59.3941H15.8244C18.4733 59.3941 20.1449 56.5452 18.8529 54.2328L15.1181 47.5484ZM8.35479 60.588C5.7059 60.588 4.03427 63.4369 5.3263 65.7493L9.0611 72.4337C10.3849 74.8031 13.7942 74.8031 15.1181 72.4337L18.8529 65.7493C20.1449 63.4369 18.4733 60.588 15.8244 60.588H8.35479ZM35.8898 -64.7028C34.5659 -67.0722 31.1567 -67.0722 29.8328 -64.7028L26.098 -58.0184C24.806 -55.706 26.4776 -52.8571 29.1265 -52.8571H36.5961C39.245 -52.8571 40.9166 -55.706 39.6246 -58.0184L35.8898 -64.7028ZM29.1265 -51.6631C26.4776 -51.6631 24.806 -48.8143 26.098 -46.5019L29.8328 -39.8174C31.1567 -37.4481 34.5659 -37.4481 35.8898 -39.8174L39.6246 -46.5019C40.9166 -48.8143 39.245 -51.6631 36.5961 -51.6631H29.1265ZM35.8673 -27.2859C34.5435 -29.6553 31.1342 -29.6553 29.8104 -27.2859L26.0756 -20.6015C24.7835 -18.2891 26.4552 -15.4402 29.104 -15.4402H36.5737C39.2225 -15.4402 40.8942 -18.2891 39.6021 -20.6015L35.8673 -27.2859ZM29.1041 -14.2462C26.4552 -14.2462 24.7835 -11.3974 26.0756 -9.08497L29.8104 -2.40055C31.1342 -0.0311624 34.5435 -0.0311635 35.8673 -2.40055L39.6021 -9.08497C40.8942 -11.3974 39.2226 -14.2462 36.5737 -14.2462H29.1041ZM35.8412 10.1237C34.5174 7.7543 31.1081 7.7543 29.7843 10.1237L26.0495 16.8081C24.7574 19.1205 26.429 21.9694 29.0779 21.9694H36.5475C39.1964 21.9694 40.8681 19.1205 39.576 16.8081L35.8412 10.1237ZM29.0779 23.1633C26.429 23.1633 24.7574 26.0122 26.0495 28.3246L29.7843 35.009C31.1081 37.3784 34.5174 37.3784 35.8412 35.009L39.576 28.3246C40.8681 26.0122 39.1964 23.1633 36.5475 23.1633H29.0779ZM35.8112 47.5484C34.4874 45.179 31.0781 45.179 29.7542 47.5484L26.0194 54.2328C24.7274 56.5452 26.399 59.3941 29.0479 59.3941H36.5175C39.1664 59.3941 40.838 56.5452 39.546 54.2328L35.8112 47.5484ZM29.0479 60.588C26.399 60.588 24.7274 63.4369 26.0194 65.7493L29.7542 72.4337C31.0781 74.8031 34.4874 74.8031 35.8112 72.4337L39.546 65.7493C40.838 63.4369 39.1664 60.588 36.5175 60.588H29.0479ZM56.5981 -64.7028C55.2742 -67.0722 51.8649 -67.0722 50.5411 -64.7028L46.8063 -58.0184C45.5143 -55.706 47.1859 -52.8571 49.8348 -52.8571H57.3044C59.9533 -52.8571 61.6249 -55.706 60.3329 -58.0184L56.5981 -64.7028ZM49.8348 -51.6631C47.1859 -51.6631 45.5143 -48.8143 46.8063 -46.5019L50.5411 -39.8174C51.8649 -37.4481 55.2742 -37.4481 56.5981 -39.8174L60.3329 -46.5019C61.6249 -48.8143 59.9533 -51.6631 57.3044 -51.6631H49.8348ZM77.4523 -64.7028C76.1284 -67.0722 72.7191 -67.0722 71.3953 -64.7028L67.6605 -58.0184C66.3684 -55.706 68.0401 -52.8571 70.689 -52.8571H78.1586C80.8075 -52.8571 82.4791 -55.706 81.1871 -58.0184L77.4523 -64.7028ZM70.689 -51.6631C68.0401 -51.6631 66.3684 -48.8143 67.6605 -46.5019L71.3953 -39.8174C72.7191 -37.4481 76.1284 -37.4481 77.4523 -39.8175L81.1871 -46.5019C82.4791 -48.8143 80.8075 -51.6631 78.1586 -51.6631H70.689ZM98.3064 -64.7028C96.9826 -67.0722 93.5733 -67.0722 92.2494 -64.7028L88.5147 -58.0184C87.2226 -55.706 88.8942 -52.8571 91.5431 -52.8571H99.0127C101.662 -52.8571 103.333 -55.706 102.041 -58.0184L98.3064 -64.7028ZM91.5431 -51.6631C88.8942 -51.6631 87.2226 -48.8143 88.5147 -46.5019L92.2494 -39.8174C93.5733 -37.4481 96.9826 -37.4481 98.3064 -39.8174L102.041 -46.5019C103.333 -48.8143 101.662 -51.6631 99.0127 -51.6631H91.5431ZM56.5756 -27.2859C55.2518 -29.6553 51.8425 -29.6553 50.5186 -27.2859L46.7838 -20.6015C45.4918 -18.2891 47.1634 -15.4402 49.8123 -15.4402H57.2819C59.9308 -15.4402 61.6025 -18.2891 60.3104 -20.6015L56.5756 -27.2859ZM49.8123 -14.2462C47.1634 -14.2462 45.4918 -11.3974 46.7838 -9.08497L50.5186 -2.40055C51.8425 -0.0311624 55.2518 -0.0311635 56.5756 -2.40055L60.3104 -9.08497C61.6025 -11.3974 59.9308 -14.2462 57.2819 -14.2462H49.8123ZM77.4298 -27.2859C76.106 -29.6553 72.6967 -29.6553 71.3728 -27.2859L67.638 -20.6015C66.346 -18.2891 68.0176 -15.4402 70.6665 -15.4402H78.1361C80.785 -15.4402 82.4566 -18.2891 81.1646 -20.6015L77.4298 -27.2859ZM70.6665 -14.2462C68.0176 -14.2462 66.346 -11.3974 67.638 -9.08497L71.3728 -2.40055C72.6967 -0.0311642 76.106 -0.0311679 77.4298 -2.40055L81.1646 -9.08497C82.4566 -11.3974 80.785 -14.2462 78.1361 -14.2462H70.6665ZM98.284 -27.2859C96.9601 -29.6553 93.5508 -29.6553 92.227 -27.2859L88.4922 -20.6015C87.2002 -18.2891 88.8718 -15.4402 91.5207 -15.4402H98.9903C101.639 -15.4402 103.311 -18.2891 102.019 -20.6015L98.284 -27.2859ZM91.5207 -14.2462C88.8718 -14.2462 87.2002 -11.3974 88.4922 -9.08497L92.227 -2.40055C93.5508 -0.031162 96.9601 -0.0311639 98.284 -2.40055L102.019 -9.08497C103.311 -11.3974 101.639 -14.2462 98.9903 -14.2462H91.5207ZM56.5456 10.1237C55.2218 7.7543 51.8125 7.7543 50.4886 10.1237L46.7538 16.8081C45.4618 19.1205 47.1334 21.9694 49.7823 21.9694H57.2519C59.9008 21.9694 61.5724 19.1205 60.2804 16.8081L56.5456 10.1237ZM49.7823 23.1633C47.1334 23.1633 45.4618 26.0122 46.7538 28.3246L50.4886 35.009C51.8125 37.3784 55.2218 37.3784 56.5456 35.009L60.2804 28.3246C61.5724 26.0122 59.9008 23.1633 57.2519 23.1633H49.7823ZM77.3998 10.1237C76.0759 7.7543 72.6667 7.7543 71.3428 10.1237L67.608 16.8081C66.316 19.1205 67.9876 21.9694 70.6365 21.9694H78.1061C80.755 21.9694 82.4266 19.1205 81.1346 16.8081L77.3998 10.1237ZM70.6365 23.1633C67.9876 23.1633 66.316 26.0122 67.608 28.3246L71.3428 35.009C72.6667 37.3784 76.076 37.3784 77.3998 35.009L81.1346 28.3246C82.4266 26.0122 80.755 23.1633 78.1061 23.1633H70.6365ZM98.2503 10.1237C96.9265 7.7543 93.5172 7.7543 92.1933 10.1237L88.4585 16.8081C87.1665 19.1205 88.8381 21.9694 91.487 21.9694H98.9566C101.606 21.9694 103.277 19.1205 101.985 16.8081L98.2503 10.1237ZM91.487 23.1633C88.8381 23.1633 87.1665 26.0122 88.4585 28.3246L92.1933 35.009C93.5172 37.3784 96.9265 37.3784 98.2503 35.009L101.985 28.3246C103.277 26.0122 101.606 23.1633 98.9566 23.1633H91.487ZM56.5232 47.5484C55.1993 45.179 51.79 45.179 50.4662 47.5484L46.7314 54.2328C45.4394 56.5452 47.111 59.3941 49.7599 59.3941H57.2295C59.8784 59.3941 61.55 56.5452 60.258 54.2328L56.5232 47.5484ZM49.7599 60.588C47.111 60.588 45.4394 63.4369 46.7314 65.7493L50.4662 72.4337C51.79 74.8031 55.1993 74.8031 56.5232 72.4337L60.258 65.7493C61.55 63.4369 59.8784 60.588 57.2295 60.588H49.7599ZM77.3737 47.5484C76.0498 45.179 72.6406 45.179 71.3167 47.5484L67.5819 54.2328C66.2899 56.5452 67.9615 59.3941 70.6104 59.3941H78.08C80.7289 59.3941 82.4005 56.5452 81.1085 54.2328L77.3737 47.5484ZM70.6104 60.588C67.9615 60.588 66.2899 63.4369 67.5819 65.7493L71.3167 72.4337C72.6406 74.8031 76.0498 74.8031 77.3737 72.4337L81.1085 65.7493C82.4005 63.4369 80.7289 60.588 78.08 60.588H70.6104ZM98.2315 47.5484C96.9077 45.179 93.4984 45.179 92.1745 47.5484L88.4397 54.2328C87.1477 56.5452 88.8193 59.3941 91.4682 59.3941H98.9378C101.587 59.3941 103.258 56.5452 101.966 54.2328L98.2315 47.5484ZM91.4682 60.588C88.8193 60.588 87.1477 63.4369 88.4397 65.7493L92.1745 72.4337C93.4984 74.8031 96.9077 74.8031 98.2315 72.4337L101.966 65.7493C103.258 63.4369 101.587 60.588 98.9378 60.588H91.4682Z" fill="white"/>
</g>
</svg>
