<svg width="44" height="45" viewBox="0 0 44 45" fill="none" xmlns="http://www.w3.org/2000/svg">
<mask id="mask0_442_5" style="mask-type:alpha" maskUnits="userSpaceOnUse" x="0" y="0" width="44" height="45">
<rect x="0.218985" y="0.836172" width="43.562" height="43.562" fill="#D9D9D9" stroke="white" stroke-width="0.437969"/>
</mask>
<g mask="url(#mask0_442_5)">
<line y1="-0.345245" x2="247.144" y2="-0.345245" transform="matrix(-0.707107 -0.707107 -0.707107 0.707107 209.375 66.8584)" stroke="white" stroke-width="0.690489"/>
<line y1="-0.345245" x2="247.144" y2="-0.345245" transform="matrix(-0.707107 -0.707107 -0.707107 0.707107 188.861 76.3633)" stroke="white" stroke-width="0.690489"/>
<line y1="-0.345245" x2="247.144" y2="-0.345245" transform="matrix(-0.707107 -0.707107 -0.707107 0.707107 168.354 85.877)" stroke="white" stroke-width="0.690489"/>
<line y1="-0.345245" x2="247.144" y2="-0.345245" transform="matrix(-0.707107 -0.707107 -0.707107 0.707107 147.844 95.3906)" stroke="white" stroke-width="0.690489"/>
<line y1="-0.345245" x2="247.144" y2="-0.345245" transform="matrix(-0.707107 -0.707107 -0.707107 0.707107 127.33 104.888)" stroke="white" stroke-width="0.690489"/>
<line y1="-0.345245" x2="247.144" y2="-0.345245" transform="matrix(-0.707107 -0.707107 -0.707107 0.707107 106.816 114.401)" stroke="white" stroke-width="0.690489"/>
<line y1="-0.345245" x2="247.144" y2="-0.345245" transform="matrix(-0.707107 -0.707107 -0.707107 0.707107 86.3145 123.892)" stroke="white" stroke-width="0.690489"/>
<line y1="-0.345245" x2="247.144" y2="-0.345245" transform="matrix(-0.707107 -0.707107 -0.707107 0.707107 65.7949 133.397)" stroke="white" stroke-width="0.690489"/>
<line y1="-0.345245" x2="247.144" y2="-0.345245" transform="matrix(-0.707107 -0.707107 -0.707107 0.707107 45.2891 142.895)" stroke="white" stroke-width="0.690489"/>
<line y1="-0.345245" x2="247.144" y2="-0.345245" transform="matrix(-0.707107 -0.707107 -0.707107 0.707107 24.7754 152.416)" stroke="white" stroke-width="0.690489"/>
<line y1="-0.345245" x2="247.144" y2="-0.345245" transform="matrix(-0.707107 -0.707107 -0.707107 0.707107 4.26953 161.914)" stroke="white" stroke-width="0.690489"/>
<line y1="-0.345245" x2="247.144" y2="-0.345245" transform="matrix(-0.707107 -0.707107 -0.707107 0.707107 214.379 57.376)" stroke="white" stroke-width="0.690489"/>
<line y1="-0.345245" x2="247.144" y2="-0.345245" transform="matrix(-0.707107 -0.707107 -0.707107 0.707107 193.865 66.8584)" stroke="white" stroke-width="0.690489"/>
<line y1="-0.345245" x2="247.144" y2="-0.345245" transform="matrix(-0.707107 -0.707107 -0.707107 0.707107 173.355 76.3633)" stroke="white" stroke-width="0.690489"/>
<line y1="-0.345245" x2="247.144" y2="-0.345245" transform="matrix(-0.707107 -0.707107 -0.707107 0.707107 152.85 85.877)" stroke="white" stroke-width="0.690489"/>
<line y1="-0.345245" x2="247.144" y2="-0.345245" transform="matrix(-0.707107 -0.707107 -0.707107 0.707107 132.33 95.3906)" stroke="white" stroke-width="0.690489"/>
<line y1="-0.345245" x2="247.144" y2="-0.345245" transform="matrix(-0.707107 -0.707107 -0.707107 0.707107 111.824 104.888)" stroke="white" stroke-width="0.690489"/>
<line y1="-0.345245" x2="247.144" y2="-0.345245" transform="matrix(-0.707107 -0.707107 -0.707107 0.707107 91.3105 114.401)" stroke="white" stroke-width="0.690489"/>
<line y1="-0.345245" x2="247.144" y2="-0.345245" transform="matrix(-0.707107 -0.707107 -0.707107 0.707107 70.8047 123.892)" stroke="white" stroke-width="0.690489"/>
<line y1="-0.345245" x2="247.144" y2="-0.345245" transform="matrix(-0.707107 -0.707107 -0.707107 0.707107 50.2988 133.397)" stroke="white" stroke-width="0.690489"/>
<line y1="-0.345245" x2="247.144" y2="-0.345245" transform="matrix(-0.707107 -0.707107 -0.707107 0.707107 29.7793 142.895)" stroke="white" stroke-width="0.690489"/>
<line y1="-0.345245" x2="247.144" y2="-0.345245" transform="matrix(-0.707107 -0.707107 -0.707107 0.707107 9.26562 152.416)" stroke="white" stroke-width="0.690489"/>
<line x1="-165.732" y1="66.6143" x2="9.02448" y2="-108.143" stroke="white" stroke-width="0.690489"/>
<line x1="-145.219" y1="76.1192" x2="29.5382" y2="-98.6377" stroke="white" stroke-width="0.690489"/>
<line x1="-124.711" y1="85.6328" x2="50.046" y2="-89.1241" stroke="white" stroke-width="0.690489"/>
<line x1="-104.201" y1="95.1465" x2="70.5557" y2="-79.6104" stroke="white" stroke-width="0.690489"/>
<line x1="-83.6875" y1="104.644" x2="91.0694" y2="-70.1133" stroke="white" stroke-width="0.690489"/>
<line x1="-63.1738" y1="114.157" x2="111.583" y2="-60.5997" stroke="white" stroke-width="0.690489"/>
<line x1="-42.6719" y1="123.647" x2="132.085" y2="-51.1094" stroke="white" stroke-width="0.690489"/>
<line x1="-22.1523" y1="133.153" x2="152.605" y2="-41.6036" stroke="white" stroke-width="0.690489"/>
<line x1="-1.64647" y1="142.65" x2="173.11" y2="-32.1065" stroke="white" stroke-width="0.690489"/>
<line x1="18.8672" y1="152.172" x2="193.624" y2="-22.585" stroke="white" stroke-width="0.690489"/>
<line x1="39.3731" y1="161.67" x2="214.13" y2="-13.087" stroke="white" stroke-width="0.690489"/>
<line x1="-170.736" y1="57.1319" x2="4.02058" y2="-117.625" stroke="white" stroke-width="0.690489"/>
<line x1="-150.223" y1="66.6143" x2="24.5343" y2="-108.143" stroke="white" stroke-width="0.690489"/>
<line x1="-129.713" y1="76.1192" x2="45.044" y2="-98.6377" stroke="white" stroke-width="0.690489"/>
<line x1="-109.207" y1="85.6328" x2="65.5499" y2="-89.1241" stroke="white" stroke-width="0.690489"/>
<line x1="-88.6875" y1="95.1465" x2="86.0694" y2="-79.6104" stroke="white" stroke-width="0.690489"/>
<line x1="-68.1816" y1="104.644" x2="106.575" y2="-70.1133" stroke="white" stroke-width="0.690489"/>
<line x1="-47.668" y1="114.157" x2="127.089" y2="-60.5997" stroke="white" stroke-width="0.690489"/>
<line x1="-27.1621" y1="123.647" x2="147.595" y2="-51.1094" stroke="white" stroke-width="0.690489"/>
<line x1="-6.65623" y1="133.153" x2="168.101" y2="-41.6036" stroke="white" stroke-width="0.690489"/>
<line x1="13.8633" y1="142.65" x2="188.62" y2="-32.1065" stroke="white" stroke-width="0.690489"/>
<line x1="34.377" y1="152.172" x2="209.134" y2="-22.585" stroke="white" stroke-width="0.690489"/>
</g>
</svg>
