<svg width="45" height="45" viewBox="0 0 45 45" fill="none" xmlns="http://www.w3.org/2000/svg">
<mask id="mask0_442_895" style="mask-type:alpha" maskUnits="userSpaceOnUse" x="0" y="0" width="45" height="45">
<rect x="0.218985" y="0.218985" width="44.562" height="44.562" fill="#4200FF" stroke="#FF0000" stroke-width="0.437969"/>
</mask>
<g mask="url(#mask0_442_895)">
<path fill-rule="evenodd" clip-rule="evenodd" d="M79.7836 -31.5801H-35.0469V-31.5614C-34.8507 -31.573 -34.6533 -31.5788 -34.4549 -31.5788C-33.4849 -31.5788 -32.5404 -31.4397 -31.6328 -31.1764C-29.3964 -30.5274 -26.904 -30.5274 -24.6676 -31.1764C-23.76 -31.4397 -22.8155 -31.5788 -21.8455 -31.5788C-20.8758 -31.5788 -19.9316 -31.4398 -19.0242 -31.1766C-16.7885 -30.5281 -14.297 -30.5281 -12.0613 -31.1766C-11.154 -31.4398 -10.2097 -31.5788 -9.24004 -31.5788C-8.26981 -31.5788 -7.32501 -31.4396 -6.41718 -31.1761C-4.18008 -30.5268 -1.68671 -30.5268 0.550385 -31.1761C1.45822 -31.4396 2.40302 -31.5788 3.37325 -31.5788C4.34347 -31.5788 5.28827 -31.4396 6.19611 -31.1761C8.4332 -30.5268 10.9266 -30.5268 13.1637 -31.1761C14.0715 -31.4396 15.0163 -31.5788 15.9865 -31.5788C16.9565 -31.5788 17.901 -31.4397 18.8086 -31.1764C21.045 -30.5274 23.5374 -30.5274 25.7738 -31.1764C26.6814 -31.4397 27.6259 -31.5788 28.5959 -31.5788C29.5656 -31.5788 30.5098 -31.4398 31.4172 -31.1766C33.6529 -30.5281 36.1444 -30.5281 38.3801 -31.1766C39.2874 -31.4398 40.2317 -31.5788 41.2014 -31.5788C42.1716 -31.5788 43.1164 -31.4396 44.0242 -31.1761C46.2613 -30.5268 48.7547 -30.5268 50.9918 -31.1761C51.8996 -31.4396 52.8444 -31.5788 53.8147 -31.5788C54.7843 -31.5788 55.7286 -31.4398 56.636 -31.1766C58.8717 -30.528 61.3631 -30.528 63.5988 -31.1766C64.5062 -31.4398 65.4504 -31.5788 66.4201 -31.5788C67.3903 -31.5788 68.3352 -31.4396 69.243 -31.1761C71.4801 -30.5268 73.9734 -30.5268 76.2105 -31.1761C77.1184 -31.4396 78.0632 -31.5788 79.0334 -31.5788C79.2852 -31.5788 79.5354 -31.5694 79.7836 -31.5509V-31.5801ZM79.7836 71.7918V74.8663C79.5346 74.8893 79.2845 74.9009 79.0334 74.9009C77.6781 74.9009 76.348 74.561 75.1064 73.9311C74.5323 73.6397 74.3957 72.951 74.8225 72.469C75.2842 71.9474 77.661 71.7219 79.7836 71.7918ZM79.7836 51.2833V52.5853C78.8809 52.7379 77.5979 52.5963 77.3997 52.1607C77.1932 51.7071 77.6204 51.2242 78.1168 51.2695C78.4195 51.2971 78.7252 51.3112 79.0334 51.3112C79.2852 51.3112 79.5354 51.3018 79.7836 51.2833ZM79.7836 45.7491V49.6455C79.5346 49.6685 79.2845 49.6802 79.0334 49.6802C77.8907 49.6802 76.7661 49.4386 75.6972 48.9852C75.5104 48.906 75.3488 48.7735 75.2209 48.6161C74.7878 48.0834 74.7878 47.3113 75.2209 46.7785C75.3489 46.6212 75.5105 46.4886 75.6972 46.4094C76.7661 45.9561 77.8907 45.7145 79.0334 45.7145C79.2845 45.7145 79.5346 45.7261 79.7836 45.7491ZM79.7836 42.8093V44.1114C79.5354 44.0929 79.2852 44.0835 79.0334 44.0835C78.7252 44.0835 78.4195 44.0975 78.1168 44.1251C77.6204 44.1704 77.1932 43.6876 77.3997 43.2339C77.598 42.7983 78.8809 42.6567 79.7836 42.8093ZM79.7836 26.0704V27.3706C78.8824 27.5234 77.6006 27.3819 77.4027 26.9466C77.1967 26.4936 77.623 26.0117 78.1186 26.0568C78.4207 26.0843 78.7258 26.0983 79.0334 26.0983C79.2852 26.0983 79.5354 26.0889 79.7836 26.0704ZM79.7836 20.5284V24.4327C79.5346 24.4557 79.2845 24.4673 79.0334 24.4673C77.8953 24.4673 76.7751 24.2277 75.71 23.7778C75.5211 23.698 75.3578 23.564 75.2285 23.4048C74.7934 22.8687 74.7934 22.0924 75.2286 21.5562C75.3578 21.397 75.5211 21.263 75.71 21.1832C76.7751 20.7334 77.8953 20.4937 79.0334 20.4937C79.2845 20.4937 79.5346 20.5054 79.7836 20.5284ZM79.7836 17.5905V18.8906C79.5354 18.8721 79.2852 18.8627 79.0334 18.8627C78.7258 18.8627 78.4207 18.8767 78.1186 18.9042C77.623 18.9493 77.1967 18.4675 77.4027 18.0145C77.6006 17.5791 78.8824 17.4377 79.7836 17.5905ZM79.7836 0.841796V2.14581C78.8793 2.29814 77.5953 2.15632 77.3967 1.7206C77.1897 1.26623 77.6178 0.782413 78.1151 0.82785C78.4184 0.855563 78.7246 0.869655 79.0334 0.869655C79.2852 0.869655 79.5354 0.860282 79.7836 0.841796ZM79.7836 -4.68448V-0.795993C79.5346 -0.772984 79.2845 -0.761321 79.0334 -0.761321C77.8861 -0.761321 76.757 -1.00487 75.6843 -1.46176C75.4997 -1.54038 75.3398 -1.67143 75.2131 -1.82702C74.7821 -2.35635 74.7821 -3.12412 75.2131 -3.65345C75.3398 -3.80904 75.4997 -3.94009 75.6843 -4.01871C76.757 -4.4756 77.8861 -4.71915 79.0334 -4.71915C79.2845 -4.71915 79.5346 -4.70748 79.7836 -4.68448ZM79.7836 -7.62628V-6.32226C79.5354 -6.34075 79.2852 -6.35013 79.0334 -6.35013C78.7246 -6.35013 78.4184 -6.33603 78.1151 -6.30832C77.6178 -6.26288 77.1897 -6.7467 77.3967 -7.20106C77.5952 -7.63679 78.8793 -7.77861 79.7836 -7.62628ZM79.7836 -29.9131V-26.8386C77.661 -26.7688 75.2842 -26.9942 74.8224 -27.5158C74.3957 -27.9979 74.5323 -28.6866 75.1064 -28.9779C76.348 -29.6079 77.6781 -29.9478 79.0334 -29.9478C79.2845 -29.9478 79.5346 -29.9361 79.7836 -29.9131ZM79.7836 76.5041V76.5253H79.3996C79.5281 76.5207 79.6561 76.5136 79.7836 76.5041ZM78.6672 76.5253C77.8252 76.4948 77.0038 76.3595 76.2105 76.1293C73.9734 75.48 71.4801 75.48 69.243 76.1293C68.4498 76.3595 67.6283 76.4948 66.7863 76.5253H78.6672ZM66.0539 76.5253C65.2125 76.4948 64.3916 76.3597 63.5988 76.1297C61.3631 75.4812 58.8717 75.4812 56.6359 76.1297C55.8432 76.3597 55.0223 76.4948 54.1809 76.5253H66.0539ZM53.4484 76.5253C52.6065 76.4948 51.785 76.3595 50.9918 76.1293C48.7547 75.48 46.2613 75.48 44.0242 76.1293C43.231 76.3595 42.4096 76.4948 41.5676 76.5253H53.4484ZM40.8352 76.5253C39.9937 76.4948 39.1728 76.3597 38.3801 76.1298C36.1444 75.4812 33.6529 75.4812 31.4172 76.1298C30.6245 76.3597 29.8035 76.4948 28.9621 76.5253H40.8352ZM28.2297 76.5253C27.388 76.4948 26.5668 76.3596 25.7738 76.1295C23.5374 75.4806 21.045 75.4806 18.8086 76.1295C18.0156 76.3596 17.1944 76.4948 16.3527 76.5253H28.2297ZM15.6203 76.5253C14.7783 76.4948 13.9569 76.3595 13.1637 76.1293C10.9266 75.48 8.43319 75.48 6.1961 76.1293C5.40288 76.3595 4.58143 76.4948 3.73946 76.5253H15.6203ZM3.00703 76.5253C2.16506 76.4948 1.34361 76.3595 0.550388 76.1293C-1.6867 75.48 -4.18009 75.48 -6.41718 76.1293C-7.2104 76.3595 -8.03185 76.4948 -8.87382 76.5253H3.00703ZM-9.60624 76.5253C-10.4477 76.4948 -11.2686 76.3597 -12.0613 76.1297C-14.2971 75.4812 -16.7885 75.4812 -19.0242 76.1297C-19.8169 76.3597 -20.6379 76.4948 -21.4793 76.5253H-9.60624ZM-22.2117 76.5253C-23.0534 76.4948 -23.8746 76.3596 -24.6676 76.1295C-26.904 75.4806 -29.3964 75.4806 -31.6328 76.1295C-32.4258 76.3596 -33.247 76.4948 -34.0887 76.5253H-22.2117ZM-34.8211 76.5253C-34.8965 76.5226 -34.9718 76.519 -35.0469 76.5146V76.5253H-34.8211ZM-35.0469 74.8794C-34.8502 74.8937 -34.6528 74.9009 -34.4549 74.9009C-33.1042 74.9009 -31.7787 74.5634 -30.5408 73.9376C-29.961 73.6445 -29.8233 72.9492 -30.2536 72.4624C-30.7072 71.9495 -32.9719 71.7202 -35.0469 71.7742V74.8794ZM-35.0469 52.6193C-34.1629 52.7323 -33.0166 52.5821 -32.8288 52.1689C-32.6211 51.7121 -33.051 51.2257 -33.5507 51.2706C-33.8494 51.2975 -34.1509 51.3112 -34.4549 51.3112C-34.6533 51.3112 -34.8507 51.3053 -35.0469 51.2938V52.6193ZM-35.0469 49.6586C-34.8502 49.6729 -34.6528 49.6802 -34.4549 49.6802C-33.3148 49.6802 -32.1927 49.4397 -31.126 48.9883C-30.9384 48.909 -30.7762 48.776 -30.6477 48.6179C-30.2139 48.0841 -30.2139 47.3106 -30.6477 46.7767C-30.7762 46.6187 -30.9384 46.4857 -31.126 46.4063C-32.1927 45.955 -33.3148 45.7145 -34.4549 45.7145C-34.6528 45.7145 -34.8502 45.7217 -35.0469 45.7361V49.6586ZM-35.0469 44.1008C-34.8507 44.0893 -34.6533 44.0835 -34.4549 44.0835C-34.1509 44.0835 -33.8494 44.0972 -33.5507 44.124C-33.051 44.169 -32.6211 43.6826 -32.8288 43.2258C-33.0166 42.8125 -34.1629 42.6624 -35.0469 42.7754V44.1008ZM-35.0469 27.4045C-34.1643 27.5177 -33.0193 27.3677 -32.8317 26.9546C-32.6246 26.4985 -33.0535 26.0131 -33.5524 26.0579C-33.8505 26.0847 -34.1515 26.0983 -34.4549 26.0983C-34.6533 26.0983 -34.8507 26.0925 -35.0469 26.081V27.4045ZM-35.0469 24.4457C-34.8502 24.4601 -34.6528 24.4673 -34.4549 24.4673C-33.3194 24.4673 -32.2017 24.2288 -31.1388 23.7809C-30.9491 23.701 -30.7851 23.5665 -30.6554 23.4066C-30.2195 22.8694 -30.2195 22.0917 -30.6554 21.5544C-30.7851 21.3946 -30.9491 21.2601 -31.1388 21.1801C-32.2017 20.7323 -33.3194 20.4937 -34.4549 20.4937C-34.6528 20.4937 -34.8502 20.501 -35.0469 20.5153V24.4457ZM-35.0469 18.8801C-34.8507 18.8686 -34.6533 18.8627 -34.4549 18.8627C-34.1515 18.8627 -33.8505 18.8763 -33.5524 18.9031C-33.0535 18.9479 -32.6246 18.4625 -32.8317 18.0064C-33.0193 17.5934 -34.1643 17.4434 -35.0469 17.5566V18.8801ZM-35.0469 2.17965C-34.1614 2.29252 -33.0139 2.14217 -32.8258 1.72871C-32.6176 1.27124 -33.0484 0.783862 -33.549 0.828979C-33.8482 0.855945 -34.1503 0.869655 -34.4549 0.869655C-34.6533 0.869655 -34.8507 0.863837 -35.0469 0.852325V2.17965ZM-35.0469 -0.782914C-34.8502 -0.768571 -34.6528 -0.761321 -34.4549 -0.761321C-33.3102 -0.761321 -32.1836 -1.00375 -31.1131 -1.45862C-30.9277 -1.5374 -30.7672 -1.66895 -30.64 -1.82517C-30.2082 -2.35561 -30.2082 -3.12486 -30.64 -3.65529C-30.7672 -3.81151 -30.9277 -3.94306 -31.1131 -4.02184C-32.1836 -4.47671 -33.3102 -4.71915 -34.4549 -4.71915C-34.6528 -4.71915 -34.8502 -4.7119 -35.0469 -4.69755V-0.782914ZM-35.0469 -6.33279C-34.8507 -6.34431 -34.6533 -6.35013 -34.4549 -6.35013C-34.1503 -6.35013 -33.8482 -6.33641 -33.549 -6.30945C-33.0484 -6.26433 -32.6176 -6.75171 -32.8258 -7.20918C-33.0139 -7.62264 -34.1614 -7.77298 -35.0469 -7.66012V-6.33279ZM-35.0469 -26.8211C-32.9719 -26.767 -30.7072 -26.9963 -30.2536 -27.5093C-29.8233 -27.996 -29.961 -28.6913 -30.5408 -28.9844C-31.7787 -29.6102 -33.1042 -29.9478 -34.4549 -29.9478C-34.6528 -29.9478 -34.8502 -29.9405 -35.0469 -29.9262V-26.8211ZM-23.4716 52.1689C-23.6793 51.7121 -23.2494 51.2257 -22.7497 51.2706C-22.451 51.2975 -22.1495 51.3112 -21.8455 51.3112C-21.5427 51.3112 -21.2424 51.2976 -20.945 51.271C-20.4454 51.2262 -20.0158 51.7124 -20.2234 52.1691C-20.5184 52.818 -23.1766 52.8178 -23.4716 52.1689ZM-26.0468 72.4624C-26.4771 72.9492 -26.3394 73.6445 -25.7596 73.9376C-24.5217 74.5634 -23.1961 74.9009 -21.8455 74.9009C-20.496 74.9009 -19.1715 74.564 -17.9345 73.9392C-17.3544 73.6461 -17.2166 72.9504 -17.6472 72.4635C-18.4685 71.5349 -25.2256 71.5338 -26.0468 72.4624ZM71.4959 49.9621C72.2552 49.5382 73.1984 49.5382 73.9576 49.9621C74.2295 50.1139 74.471 50.3114 74.6474 50.568C76.3856 53.0955 77.4827 56.462 77.4827 60.3077C77.4827 63.3606 76.7913 66.1115 75.6367 68.3804C74.383 70.8439 71.0705 70.8439 69.8168 68.3804C68.6622 66.1115 67.9708 63.3606 67.9708 60.3077C67.9708 56.462 69.0679 53.0955 70.8061 50.568C70.9826 50.3114 71.224 50.1139 71.4959 49.9621ZM70.2326 48.6161C70.1047 48.7735 69.9431 48.906 69.7563 48.9852C68.6875 49.4386 67.5628 49.6802 66.4201 49.6802C65.2827 49.6802 64.163 49.4408 63.0985 48.9914C62.9102 48.9119 62.7473 48.7784 62.6183 48.6197C62.1837 48.0848 62.1837 47.3099 62.6184 46.7749C62.7473 46.6163 62.9102 46.4827 63.0986 46.4032C64.1631 45.9539 65.2827 45.7145 66.4201 45.7145C67.5628 45.7145 68.6875 45.9561 69.7563 46.4094C69.9431 46.4886 70.1047 46.6212 70.2326 46.7786C70.6658 47.3113 70.6658 48.0834 70.2326 48.6161ZM73.9576 45.4326C73.1984 45.8564 72.2552 45.8564 71.4959 45.4326C71.224 45.2808 70.9826 45.0832 70.8061 44.8266C69.0679 42.2991 67.9708 38.9327 67.9708 35.087C67.9708 31.2495 69.0632 27.8893 70.7949 25.3636C70.9725 25.1045 71.2161 24.9052 71.4905 24.7522C72.2532 24.327 73.2003 24.327 73.963 24.7522C74.2374 24.9052 74.481 25.1045 74.6586 25.3636C76.3903 27.8893 77.4827 31.2495 77.4827 35.087C77.4827 38.9327 76.3856 42.2991 74.6475 44.8266C74.471 45.0832 74.2295 45.2808 73.9576 45.4326ZM68.0538 52.1608C67.7602 52.8058 65.088 52.8062 64.7944 52.1612C64.588 51.7078 65.0147 51.2253 65.5108 51.2702C65.8111 51.2973 66.1144 51.3112 66.4201 51.3112C66.7283 51.3112 67.034 51.2971 67.3367 51.2695C67.8331 51.2242 68.2603 51.7071 68.0538 52.1608ZM70.6311 72.469C71.0578 72.951 70.9212 73.6397 70.3471 73.9311C69.1055 74.561 67.7755 74.9009 66.4201 74.9009C65.067 74.9009 63.7392 74.5622 62.4993 73.9342C61.9246 73.6431 61.7879 72.9535 62.215 72.4712C63.0306 71.5503 69.8157 71.548 70.6311 72.469ZM70.225 23.4048C70.6601 22.8687 70.6601 22.0924 70.225 21.5562C70.0957 21.397 69.9324 21.263 69.7435 21.1832C68.6785 20.7334 67.5582 20.4937 66.4201 20.4937C65.2872 20.4937 64.172 20.7312 63.1114 21.1771C62.9209 21.2571 62.7562 21.3922 62.626 21.5526C62.1894 22.0909 62.1894 22.8701 62.626 23.4084C62.7562 23.5689 62.9209 23.7039 63.1114 23.784C64.172 24.2299 65.2872 24.4673 66.4201 24.4673C67.5582 24.4673 68.6785 24.2277 69.7435 23.7778C69.9324 23.698 70.0957 23.564 70.225 23.4048ZM73.963 20.2088C74.2374 20.0558 74.481 19.8565 74.6587 19.5974C76.3903 17.0717 77.4827 13.7115 77.4827 9.87409C77.4827 6.02004 76.3809 2.64738 74.6362 0.118043C74.4609 -0.136086 74.2216 -0.331881 73.9521 -0.482508C73.1963 -0.904944 72.2572 -0.904948 71.5014 -0.48251C71.2319 -0.331883 70.9927 -0.136092 70.8174 0.118036C69.0727 2.64738 67.9708 6.02005 67.9708 9.87409C67.9708 13.7115 69.0632 17.0717 70.7949 19.5974C70.9725 19.8565 71.2161 20.0558 71.4905 20.2088C72.2532 20.634 73.2003 20.634 73.963 20.2088ZM68.0508 26.9466C68.2568 26.4936 67.8305 26.0117 67.3349 26.0568C67.0328 26.0843 66.7277 26.0983 66.4201 26.0983C66.115 26.0983 65.8123 26.0845 65.5126 26.0575C65.0173 26.0127 64.5916 26.4942 64.7974 26.947C65.0904 27.5914 67.7578 27.591 68.0508 26.9466ZM64.7944 43.2335C65.088 42.5885 67.7602 42.5889 68.0538 43.2339C68.2603 43.6876 67.8331 44.1704 67.3367 44.1251C67.034 44.0975 66.7283 44.0835 66.4201 44.0835C66.1144 44.0835 65.8111 44.0973 65.5108 44.1245C65.0147 44.1694 64.588 43.6869 64.7944 43.2335ZM70.2404 -1.827C70.1137 -1.67142 69.9538 -1.54038 69.7693 -1.46176C68.6965 -1.00487 67.5674 -0.761321 66.4201 -0.761321C65.2781 -0.761321 64.154 -1.00265 63.0857 -1.45552C62.8995 -1.53445 62.7383 -1.6665 62.6106 -1.82336C62.1781 -2.35488 62.1781 -3.12559 62.6106 -3.65711C62.7383 -3.81397 62.8995 -3.94602 63.0857 -4.02495C64.154 -4.47782 65.2781 -4.71915 66.4201 -4.71915C67.5674 -4.71915 68.6965 -4.4756 69.7692 -4.01871C69.9538 -3.94009 70.1137 -3.80904 70.2404 -3.65346C70.6714 -3.12413 70.6714 -2.35633 70.2404 -1.827ZM73.9521 -4.99796C73.1963 -4.57552 72.2572 -4.57552 71.5014 -4.99796C71.2319 -5.14859 70.9927 -5.34438 70.8174 -5.59851C69.0727 -8.12785 67.9708 -11.5005 67.9708 -15.3546C67.9708 -18.4075 68.6622 -21.1583 69.8168 -23.4272C71.0705 -25.8908 74.383 -25.8908 75.6367 -23.4272C76.7913 -21.1583 77.4827 -18.4075 77.4827 -15.3546C77.4827 -11.5005 76.3809 -8.12786 74.6362 -5.59852C74.4609 -5.34439 74.2216 -5.14859 73.9521 -4.99796ZM68.0568 1.7206C67.7626 2.36617 65.0856 2.36658 64.7914 1.721C64.5845 1.26692 65.0121 0.783462 65.509 0.82851C65.81 0.855785 66.1138 0.869655 66.4201 0.869655C66.7289 0.869655 67.0352 0.855563 67.3385 0.82785C67.8357 0.782413 68.2639 1.26623 68.0568 1.7206ZM68.0508 18.0145C68.2568 18.4675 67.8305 18.9493 67.3349 18.9042C67.0328 18.8767 66.7277 18.8627 66.4201 18.8627C66.115 18.8627 65.8123 18.8765 65.5126 18.9036C65.0173 18.9483 64.5916 18.4668 64.7974 18.0141C65.0904 17.3697 67.7578 17.3701 68.0508 18.0145ZM70.3471 -28.9779C70.9212 -28.6866 71.0578 -27.9979 70.6311 -27.5158C69.8157 -26.5948 63.0306 -26.5972 62.215 -27.518C61.7879 -28.0004 61.9245 -28.6899 62.4993 -28.9811C63.7392 -29.609 65.067 -29.9478 66.4201 -29.9478C67.7755 -29.9478 69.1055 -29.6079 70.3471 -28.9779ZM64.7914 -7.20147C65.0856 -7.84706 67.7626 -7.84664 68.0568 -7.20107C68.2639 -6.7467 67.8357 -6.26288 67.3384 -6.30832C67.0352 -6.33603 66.7289 -6.35013 66.4201 -6.35013C66.1138 -6.35013 65.81 -6.33625 65.509 -6.30898C65.0121 -6.26393 64.5845 -6.74739 64.7914 -7.20147ZM58.8817 49.9669C59.6441 49.5422 60.5906 49.5422 61.353 49.9669C61.6274 50.1198 61.8709 50.3188 62.0486 50.5777C63.7829 53.1042 64.8772 56.4669 64.8772 60.3077C64.8772 63.3645 64.1841 66.1185 63.0268 68.389C61.7724 70.8501 58.4623 70.8501 57.2079 68.389C56.0507 66.1185 55.3575 63.3645 55.3575 60.3077C55.3575 56.4669 56.4518 53.1042 58.1861 50.5778C58.3639 50.3188 58.6074 50.1198 58.8817 49.9669ZM57.6164 48.6197C57.4875 48.7784 57.3246 48.9119 57.1362 48.9915C56.0717 49.4408 54.9521 49.6802 53.8147 49.6802C52.672 49.6802 51.5473 49.4386 50.4784 48.9852C50.2917 48.906 50.1301 48.7735 50.0021 48.6161C49.569 48.0834 49.569 47.3113 50.0021 46.7785C50.1301 46.6212 50.2917 46.4886 50.4784 46.4094C51.5473 45.9561 52.672 45.7145 53.8147 45.7145C54.9521 45.7145 56.0717 45.9539 57.1362 46.4032C57.3246 46.4827 57.4875 46.6163 57.6164 46.7749C58.051 47.3099 58.051 48.0848 57.6164 48.6197ZM61.353 45.4277C60.5906 45.8524 59.6441 45.8524 58.8818 45.4277C58.6074 45.2749 58.3639 45.0758 58.1861 44.8169C56.4518 42.2905 55.3575 38.9278 55.3575 35.087C55.3575 31.2544 56.4471 27.8979 58.175 25.3733C58.3539 25.1119 58.5995 24.9111 58.8763 24.7571C59.6422 24.331 60.5926 24.331 61.3585 24.7571C61.6352 24.9111 61.8809 25.1119 62.0598 25.3733C63.7876 27.8979 64.8772 31.2544 64.8772 35.087C64.8772 38.9278 63.7829 42.2905 62.0487 44.8169C61.8709 45.0758 61.6274 45.2749 61.353 45.4277ZM55.4404 52.1612C55.1468 52.8062 52.4745 52.8058 52.1809 52.1608C51.9744 51.7071 52.4017 51.2242 52.8981 51.2695C53.2008 51.2971 53.5064 51.3112 53.8147 51.3112C54.1204 51.3112 54.4236 51.2973 54.724 51.2702C55.2201 51.2253 55.6467 51.7078 55.4404 52.1612ZM58.0197 72.4712C58.4469 72.9535 58.3102 73.6431 57.7354 73.9342C56.4956 74.5622 55.1677 74.9009 53.8147 74.9009C52.4593 74.9009 51.1293 74.561 49.8876 73.931C49.3135 73.6397 49.177 72.951 49.6037 72.469C50.419 71.548 57.2042 71.5503 58.0197 72.4712ZM57.6088 23.4084C58.0454 22.8701 58.0454 22.0909 57.6088 21.5526C57.4786 21.3922 57.3139 21.2571 57.1234 21.1771C56.0628 20.7312 54.9475 20.4937 53.8147 20.4937C52.6766 20.4937 51.5563 20.7334 50.4913 21.1832C50.3024 21.263 50.139 21.397 50.0098 21.5562C49.5747 22.0924 49.5746 22.8687 50.0098 23.4048C50.139 23.564 50.3024 23.698 50.4913 23.7778C51.5563 24.2277 52.6766 24.4673 53.8147 24.4673C54.9475 24.4673 56.0627 24.2299 57.1234 23.784C57.3139 23.7039 57.4786 23.5689 57.6088 23.4084ZM61.3584 20.204C61.6352 20.05 61.8809 19.8491 62.0598 19.5877C63.7876 17.0632 64.8772 13.7066 64.8772 9.87409C64.8772 6.02499 63.7782 2.65603 62.0374 0.127776C61.8609 -0.128625 61.6195 -0.325967 61.3476 -0.477612C60.5886 -0.900948 59.6461 -0.900946 58.8872 -0.477608C58.6153 -0.325959 58.3739 -0.128615 58.1974 0.127788C56.4566 2.65604 55.3575 6.02499 55.3575 9.87409C55.3575 13.7066 56.4471 17.0632 58.175 19.5877C58.3539 19.8491 58.5995 20.05 58.8763 20.204C59.6421 20.63 60.5926 20.63 61.3584 20.204ZM55.4374 26.947C55.6432 26.4942 55.2175 26.0127 54.7222 26.0575C54.4225 26.0845 54.1198 26.0983 53.8147 26.0983C53.507 26.0983 53.202 26.0843 52.8998 26.0568C52.4043 26.0117 51.978 26.4936 52.1839 26.9466C52.4769 27.591 55.1444 27.5914 55.4374 26.947ZM52.1809 43.2339C52.4745 42.5889 55.1468 42.5885 55.4404 43.2335C55.6467 43.6869 55.2201 44.1694 54.724 44.1245C54.4236 44.0973 54.1204 44.0835 53.8147 44.0835C53.5064 44.0835 53.2008 44.0975 52.8981 44.1251C52.4017 44.1704 51.9744 43.6876 52.1809 43.2339ZM57.6241 -1.82335C57.4965 -1.6665 57.3353 -1.53444 57.1491 -1.45551C56.0808 -1.00265 54.9567 -0.761321 53.8147 -0.761321C52.6674 -0.761321 51.5382 -1.00487 50.4655 -1.46176C50.2809 -1.54038 50.1211 -1.67143 49.9944 -1.82701C49.5633 -2.35634 49.5633 -3.12413 49.9944 -3.65346C50.1211 -3.80904 50.2809 -3.94009 50.4655 -4.01871C51.5382 -4.4756 52.6674 -4.71915 53.8147 -4.71915C54.9567 -4.71915 56.0807 -4.47782 57.1491 -4.02495C57.3353 -3.94602 57.4965 -3.81397 57.6241 -3.65711C58.0567 -3.12559 58.0567 -2.35488 57.6241 -1.82335ZM61.3476 -5.00286C60.5886 -4.57952 59.6461 -4.57952 58.8872 -5.00286C58.6153 -5.15451 58.3739 -5.35185 58.1974 -5.60825C56.4566 -8.13651 55.3575 -11.5055 55.3575 -15.3546C55.3575 -18.4113 56.0507 -21.1653 57.2079 -23.4359C58.4623 -25.897 61.7724 -25.897 63.0268 -23.4359C64.1841 -21.1653 64.8772 -18.4113 64.8772 -15.3546C64.8772 -11.5055 63.7782 -8.1365 62.0374 -5.60825C61.8609 -5.35185 61.6195 -5.1545 61.3476 -5.00286ZM55.4434 1.721C55.1492 2.36658 52.4721 2.36617 52.178 1.72059C51.9709 1.26623 52.3991 0.782409 52.8963 0.827846C53.1996 0.85556 53.5058 0.869655 53.8147 0.869655C54.121 0.869655 54.4248 0.855785 54.7257 0.82851C55.2227 0.783462 55.6503 1.26692 55.4434 1.721ZM55.4374 18.0141C55.6432 18.4668 55.2175 18.9483 54.7222 18.9036C54.4225 18.8765 54.1198 18.8627 53.8147 18.8627C53.507 18.8627 53.202 18.8767 52.8998 18.9042C52.4043 18.9493 51.978 18.4675 52.1839 18.0145C52.4769 17.3701 55.1444 17.3697 55.4374 18.0141ZM57.7354 -28.981C58.3102 -28.6899 58.4469 -28.0004 58.0197 -27.518C57.2042 -26.5972 50.419 -26.5949 49.6037 -27.5158C49.177 -27.9979 49.3135 -28.6866 49.8876 -28.9779C51.1293 -29.6079 52.4593 -29.9478 53.8147 -29.9478C55.1677 -29.9478 56.4956 -29.609 57.7354 -28.981ZM52.178 -7.20107C52.4721 -7.84664 55.1492 -7.84705 55.4434 -7.20146C55.6503 -6.74738 55.2227 -6.26393 54.7257 -6.30898C54.4248 -6.33625 54.121 -6.35013 53.8147 -6.35013C53.5058 -6.35013 53.1996 -6.33603 52.8963 -6.30832C52.3991 -6.26288 51.9709 -6.7467 52.178 -7.20107ZM46.2772 49.9621C47.0364 49.5382 47.9796 49.5382 48.7388 49.9621C49.0108 50.1139 49.2522 50.3114 49.4287 50.568C51.1668 53.0955 52.2639 56.462 52.2639 60.3077C52.2639 63.3606 51.5726 66.1115 50.4179 68.3804C49.1643 70.8439 45.8517 70.8439 44.5981 68.3804C43.4435 66.1115 42.7521 63.3606 42.7521 60.3077C42.7521 56.462 43.8492 53.0955 45.5873 50.568C45.7638 50.3114 46.0052 50.1139 46.2772 49.9621ZM45.0139 48.6161C44.8859 48.7735 44.7243 48.906 44.5376 48.9852C43.4687 49.4386 42.344 49.6802 41.2014 49.6802C40.0639 49.6802 38.9443 49.4408 37.8798 48.9914C37.6915 48.9119 37.5285 48.7784 37.3996 48.6197C36.965 48.0848 36.965 47.3099 37.3996 46.7749C37.5285 46.6163 37.6915 46.4827 37.8798 46.4032C38.9443 45.9539 40.0639 45.7145 41.2014 45.7145C42.344 45.7145 43.4687 45.9561 44.5376 46.4094C44.7243 46.4886 44.8859 46.6212 45.0139 46.7785C45.447 47.3113 45.447 48.0834 45.0139 48.6161ZM48.7388 45.4326C47.9796 45.8564 47.0364 45.8564 46.2772 45.4326C46.0052 45.2808 45.7638 45.0832 45.5873 44.8266C43.8492 42.2991 42.7521 38.9327 42.7521 35.087C42.7521 31.2495 43.8444 27.8893 45.5761 25.3636C45.7538 25.1045 45.9973 24.9052 46.2717 24.7522C47.0344 24.327 47.9816 24.327 48.7443 24.7522C49.0187 24.9052 49.2622 25.1045 49.4399 25.3636C51.1716 27.8893 52.2639 31.2495 52.2639 35.087C52.2639 38.9327 51.1668 42.2991 49.4287 44.8266C49.2522 45.0832 49.0108 45.2808 48.7388 45.4326ZM42.8351 52.1608C42.5415 52.8058 39.8692 52.8062 39.5757 52.1612C39.3693 51.7078 39.7959 51.2253 40.2921 51.2702C40.5924 51.2973 40.8956 51.3112 41.2014 51.3112C41.5096 51.3112 41.8152 51.2971 42.1179 51.2695C42.6143 51.2242 43.0416 51.7071 42.8351 52.1608ZM45.4123 72.469C45.8391 72.951 45.7025 73.6397 45.1284 73.931C43.8868 74.561 42.5567 74.9009 41.2014 74.9009C39.8483 74.9009 38.5204 74.5622 37.2806 73.9342C36.7058 73.6431 36.5691 72.9535 36.9963 72.4712C37.8118 71.5503 44.597 71.548 45.4123 72.469ZM45.0062 23.4048C45.4414 22.8687 45.4414 22.0924 45.0062 21.5562C44.877 21.397 44.7136 21.263 44.5247 21.1832C43.4597 20.7334 42.3394 20.4937 41.2014 20.4937C40.0685 20.4937 38.9533 20.7312 37.8926 21.1771C37.7021 21.2571 37.5374 21.3922 37.4073 21.5527C36.9706 22.091 36.9706 22.8701 37.4072 23.4084C37.5374 23.5689 37.7021 23.7039 37.8926 23.784C38.9533 24.2299 40.0685 24.4673 41.2014 24.4673C42.3394 24.4673 43.4597 24.2277 44.5247 23.7778C44.7136 23.6981 44.877 23.564 45.0062 23.4048ZM48.7443 20.2088C49.0187 20.0558 49.2623 19.8565 49.4399 19.5974C51.1716 17.0717 52.2639 13.7115 52.2639 9.87409C52.2639 6.02005 51.1621 2.64739 49.4174 0.118049C49.2421 -0.136084 49.0028 -0.331879 48.7333 -0.482512C47.9776 -0.90495 47.0384 -0.90495 46.2827 -0.482512C46.0132 -0.331879 45.7739 -0.136084 45.5986 0.118049C43.8539 2.64739 42.7521 6.02005 42.7521 9.87409C42.7521 13.7115 43.8444 17.0717 45.5761 19.5974C45.7538 19.8565 45.9973 20.0558 46.2717 20.2088C47.0344 20.634 47.9816 20.634 48.7443 20.2088ZM42.8321 26.9466C43.0381 26.4936 42.6118 26.0117 42.1162 26.0568C41.8141 26.0843 41.509 26.0983 41.2014 26.0983C40.8962 26.0983 40.5936 26.0845 40.2938 26.0575C39.7985 26.0127 39.3728 26.4942 39.5786 26.947C39.8716 27.5914 42.5391 27.591 42.8321 26.9466ZM39.5757 43.2335C39.8692 42.5885 42.5415 42.5889 42.8351 43.2339C43.0416 43.6876 42.6143 44.1704 42.1179 44.1251C41.8152 44.0975 41.5096 44.0835 41.2014 44.0835C40.8956 44.0835 40.5924 44.0973 40.2921 44.1245C39.7959 44.1694 39.3693 43.6869 39.5757 43.2335ZM45.0216 -1.827C44.8949 -1.67142 44.7351 -1.54038 44.5505 -1.46175C43.4778 -1.00487 42.3486 -0.761321 41.2014 -0.761321C40.0593 -0.761321 38.9353 -1.00265 37.8669 -1.45552C37.6807 -1.53445 37.5196 -1.6665 37.3919 -1.82335C36.9593 -2.35488 36.9593 -3.12559 37.3919 -3.65711C37.5196 -3.81397 37.6807 -3.94602 37.8669 -4.02495C38.9353 -4.47782 40.0593 -4.71915 41.2014 -4.71915C42.3486 -4.71915 43.4778 -4.4756 44.5505 -4.01871C44.7351 -3.94009 44.8949 -3.80904 45.0216 -3.65346C45.4527 -3.12413 45.4527 -2.35634 45.0216 -1.827ZM48.7333 -4.99796C47.9776 -4.57552 47.0384 -4.57552 46.2827 -4.99796C46.0132 -5.14859 45.7739 -5.34438 45.5986 -5.59852C43.8539 -8.12786 42.7521 -11.5005 42.7521 -15.3546C42.7521 -18.4075 43.4435 -21.1583 44.5981 -23.4272C45.8517 -25.8908 49.1643 -25.8908 50.4179 -23.4272C51.5726 -21.1583 52.2639 -18.4075 52.2639 -15.3546C52.2639 -11.5005 51.1621 -8.12786 49.4174 -5.59852C49.2421 -5.34439 49.0028 -5.14859 48.7333 -4.99796ZM42.8381 1.7206C42.5439 2.36617 39.8668 2.36658 39.5727 1.72099C39.3658 1.26691 39.7933 0.783458 40.2903 0.82851C40.5912 0.855785 40.895 0.869655 41.2014 0.869655C41.5102 0.869655 41.8164 0.855563 42.1197 0.82785C42.6169 0.782413 43.0451 1.26623 42.8381 1.7206ZM42.8321 18.0145C43.0381 18.4675 42.6118 18.9493 42.1162 18.9042C41.8141 18.8767 41.509 18.8627 41.2014 18.8627C40.8962 18.8627 40.5936 18.8765 40.2938 18.9036C39.7985 18.9483 39.3728 18.4668 39.5786 18.0141C39.8716 17.3697 42.5391 17.3701 42.8321 18.0145ZM45.1284 -28.9779C45.7025 -28.6866 45.8391 -27.9979 45.4123 -27.5158C44.597 -26.5949 37.8118 -26.5972 36.9963 -27.518C36.5691 -28.0004 36.7058 -28.6899 37.2806 -28.981C38.5204 -29.609 39.8483 -29.9478 41.2014 -29.9478C42.5567 -29.9478 43.8868 -29.6079 45.1284 -28.9779ZM39.5727 -7.20147C39.8668 -7.84705 42.5439 -7.84664 42.8381 -7.20107C43.0451 -6.7467 42.6169 -6.26288 42.1197 -6.30832C41.8164 -6.33603 41.5102 -6.35013 41.2014 -6.35013C40.895 -6.35013 40.5912 -6.33625 40.2903 -6.30898C39.7933 -6.26393 39.3658 -6.74738 39.5727 -7.20147ZM33.663 49.9669C34.4254 49.5422 35.3719 49.5422 36.1343 49.9669C36.4086 50.1198 36.6522 50.3188 36.8299 50.5777C38.5642 53.1042 39.6585 56.4669 39.6585 60.3077C39.6585 63.3645 38.9653 66.1185 37.8081 68.389C36.5537 70.8501 33.2436 70.8501 31.9892 68.389C30.8319 66.1185 30.1388 63.3645 30.1388 60.3077C30.1388 56.4669 31.2331 53.1042 32.9674 50.5778C33.1451 50.3188 33.3887 50.1198 33.663 49.9669ZM32.3977 48.6197C32.2688 48.7784 32.1058 48.9119 31.9175 48.9914C30.853 49.4408 29.7333 49.6802 28.5959 49.6802C27.4559 49.6802 26.3337 49.4397 25.267 48.9883C25.0795 48.909 24.9172 48.776 24.7888 48.6179C24.3549 48.0841 24.3549 47.3106 24.7888 46.7767C24.9172 46.6187 25.0795 46.4857 25.267 46.4063C26.3337 45.955 27.4559 45.7145 28.5959 45.7145C29.7333 45.7145 30.853 45.9539 31.9175 46.4032C32.1058 46.4827 32.2688 46.6163 32.3977 46.7749C32.8323 47.3099 32.8323 48.0848 32.3977 48.6197ZM36.1343 45.4277C35.3719 45.8524 34.4254 45.8524 33.663 45.4277C33.3886 45.2749 33.1451 45.0758 32.9674 44.8169C31.2331 42.2905 30.1388 38.9278 30.1388 35.087C30.1388 31.2544 31.2284 27.8979 32.9562 25.3733C33.1351 25.1119 33.3808 24.9111 33.6576 24.7571C34.4234 24.331 35.3739 24.331 36.1397 24.7571C36.4165 24.9111 36.6622 25.1119 36.8411 25.3733C38.5689 27.8979 39.6585 31.2544 39.6585 35.087C39.6585 38.9278 38.5642 42.2905 36.8299 44.8169C36.6522 45.0758 36.4086 45.2749 36.1343 45.4277ZM30.218 52.1691C29.923 52.818 27.2648 52.8178 26.9698 52.1689C26.7621 51.7121 27.192 51.2257 27.6918 51.2706C27.9904 51.2975 28.2919 51.3112 28.5959 51.3112C28.8987 51.3112 29.199 51.2976 29.4964 51.271C29.996 51.2262 30.4256 51.7124 30.218 52.1691ZM32.7942 72.4635C33.2248 72.9504 33.087 73.6461 32.5069 73.9392C31.2698 74.564 29.9454 74.9009 28.5959 74.9009C27.2453 74.9009 25.9197 74.5634 24.6818 73.9376C24.102 73.6445 23.9643 72.9492 24.3947 72.4624C25.2158 71.5337 31.9729 71.5349 32.7942 72.4635ZM32.39 23.4084C32.8266 22.8701 32.8267 22.0909 32.39 21.5526C32.2598 21.3922 32.0951 21.2571 31.9046 21.1771C30.844 20.7312 29.7288 20.4937 28.5959 20.4937C27.4604 20.4937 26.3427 20.7323 25.2799 21.1801C25.0902 21.2601 24.9261 21.3946 24.7964 21.5544C24.3605 22.0917 24.3605 22.8694 24.7964 23.4066C24.9261 23.5665 25.0902 23.701 25.2799 23.7809C26.3427 24.2288 27.4604 24.4673 28.5959 24.4673C29.7288 24.4673 30.844 24.2299 31.9046 23.784C32.0951 23.7039 32.2598 23.5689 32.39 23.4084ZM36.1397 20.204C36.4165 20.05 36.6622 19.8491 36.8411 19.5877C38.5689 17.0631 39.6585 13.7066 39.6585 9.87409C39.6585 6.02499 38.5595 2.65604 36.8186 0.127784C36.6421 -0.128621 36.4007 -0.325965 36.1288 -0.477614C35.3699 -0.900952 34.4274 -0.900952 33.6684 -0.477614C33.3966 -0.325965 33.1552 -0.128621 32.9786 0.127784C31.2378 2.65604 30.1388 6.02499 30.1388 9.87409C30.1388 13.7066 31.2284 17.0632 32.9562 19.5877C33.1351 19.8491 33.3808 20.05 33.6576 20.204C34.4234 20.63 35.3739 20.63 36.1397 20.204ZM30.2151 26.9548C30.4221 26.4989 29.9935 26.0137 29.4947 26.0583C29.1978 26.0848 28.8981 26.0983 28.5959 26.0983C28.2925 26.0983 27.9916 26.0847 27.6935 26.0579C27.1946 26.0131 26.7656 26.4985 26.9728 26.9546C27.2672 27.603 29.9207 27.6032 30.2151 26.9548ZM26.9698 43.2258C27.2648 42.5768 29.923 42.5766 30.218 43.2256C30.4256 43.6822 29.996 44.1684 29.4964 44.1237C29.199 44.097 28.8987 44.0835 28.5959 44.0835C28.2919 44.0835 27.9904 44.0972 27.6918 44.124C27.192 44.169 26.7621 43.6826 26.9698 43.2258ZM32.4054 -1.82335C32.2777 -1.66649 32.1165 -1.53444 31.9303 -1.45551C30.862 -1.00264 29.7379 -0.761321 28.5959 -0.761321C27.4513 -0.761321 26.3246 -1.00376 25.2541 -1.45864C25.0687 -1.53741 24.9082 -1.66896 24.781 -1.82518C24.3492 -2.35561 24.3492 -3.12486 24.781 -3.65529C24.9082 -3.81151 25.0687 -3.94306 25.2541 -4.02183C26.3246 -4.47671 27.4513 -4.71915 28.5959 -4.71915C29.7379 -4.71915 30.862 -4.47782 31.9303 -4.02496C32.1165 -3.94603 32.2777 -3.81397 32.4054 -3.65711C32.8379 -3.12559 32.8379 -2.35488 32.4054 -1.82335ZM36.1288 -5.00285C35.3699 -4.57952 34.4274 -4.57952 33.6684 -5.00285C33.3966 -5.1545 33.1552 -5.35185 32.9786 -5.60825C31.2378 -8.13651 30.1388 -11.5055 30.1388 -15.3546C30.1388 -18.4114 30.8319 -21.1653 31.9892 -23.4359C33.2436 -25.897 36.5537 -25.897 37.8081 -23.4359C38.9653 -21.1653 39.6585 -18.4114 39.6585 -15.3546C39.6585 -11.5055 38.5595 -8.13651 36.8186 -5.60826C36.6421 -5.35185 36.4007 -5.15451 36.1288 -5.00285ZM30.221 1.7289C29.9254 2.37842 27.2624 2.37823 26.9668 1.72871C26.7586 1.27124 27.1894 0.783862 27.69 0.828979C27.9892 0.855945 28.2913 0.869655 28.5959 0.869655C28.8993 0.869655 29.2001 0.856055 29.4982 0.829303C29.9986 0.784381 30.4291 1.27157 30.221 1.7289ZM30.2151 18.0062C30.4221 18.4622 29.9935 18.9474 29.4947 18.9028C29.1978 18.8762 28.8981 18.8627 28.5959 18.8627C28.2925 18.8627 27.9916 18.8763 27.6935 18.9031C27.1946 18.9479 26.7656 18.4625 26.9728 18.0064C27.2672 17.3581 29.9207 17.3579 30.2151 18.0062ZM32.5069 -28.986C33.087 -28.693 33.2248 -27.9972 32.7942 -27.5104C31.9729 -26.5817 25.2158 -26.5806 24.3946 -27.5093C23.9643 -27.996 24.102 -28.6913 24.6818 -28.9844C25.9197 -29.6103 27.2453 -29.9478 28.5959 -29.9478C29.9454 -29.9478 31.2698 -29.6108 32.5069 -28.986ZM26.9668 -7.20918C27.2624 -7.8587 29.9254 -7.8589 30.221 -7.20937C30.4291 -6.75204 29.9986 -6.26485 29.4982 -6.30977C29.2001 -6.33652 28.8993 -6.35013 28.5959 -6.35013C28.2913 -6.35013 27.9892 -6.33641 27.69 -6.30945C27.1894 -6.26433 26.7586 -6.75171 26.9668 -7.20918ZM21.058 49.9645C21.8188 49.5402 22.7636 49.5402 23.5244 49.9645C23.7976 50.1168 24.0401 50.3151 24.2172 50.5729C25.9534 53.0999 27.0491 56.4644 27.0491 60.3077C27.0491 63.3626 26.3568 66.115 25.2009 68.3847C23.9469 70.847 20.6356 70.847 19.3815 68.3847C18.2256 66.115 17.5333 63.3626 17.5333 60.3077C17.5333 56.4644 18.629 53.0999 20.3652 50.5729C20.5423 50.3151 20.7848 50.1168 21.058 49.9645ZM19.7937 48.6179C19.6652 48.776 19.503 48.909 19.3154 48.9883C18.2487 49.4397 17.1266 49.6802 15.9865 49.6802C14.8439 49.6802 13.7192 49.4386 12.6503 48.9852C12.4636 48.906 12.302 48.7735 12.174 48.6161C11.7409 48.0834 11.7409 47.3113 12.174 46.7785C12.302 46.6212 12.4636 46.4886 12.6503 46.4094C13.7192 45.9561 14.8439 45.7145 15.9865 45.7145C17.1266 45.7145 18.2487 45.955 19.3154 46.4063C19.503 46.4857 19.6652 46.6187 19.7937 46.7767C20.2275 47.3106 20.2275 48.0841 19.7937 48.6179ZM23.5245 45.4302C22.7636 45.8544 21.8188 45.8544 21.058 45.4302C20.7848 45.2778 20.5423 45.0795 20.3652 44.8218C18.629 42.2948 17.5333 38.9302 17.5333 35.087C17.5333 31.252 18.6243 27.8936 20.354 25.3685C20.5323 25.1082 20.7769 24.9082 21.0525 24.7547C21.8168 24.329 22.7656 24.329 23.5299 24.7547C23.8055 24.9082 24.0501 25.1082 24.2284 25.3685C25.9581 27.8936 27.0491 31.252 27.0491 35.087C27.0491 38.9302 25.9534 42.2948 24.2172 44.8218C24.0401 45.0795 23.7976 45.2778 23.5245 45.4302ZM17.6199 52.1528C17.3278 52.7938 14.6413 52.7936 14.3491 52.1526C14.1438 51.7023 14.5681 51.2233 15.0609 51.2687C15.3666 51.2968 15.6753 51.3112 15.9865 51.3112C16.2966 51.3112 16.604 51.297 16.9085 51.269C17.4012 51.2238 17.8251 51.7026 17.6199 52.1528ZM20.2015 72.478C20.625 72.9555 20.4894 73.6383 19.9204 73.9276C18.6768 74.5598 17.3444 74.9009 15.9865 74.9009C14.6276 74.9009 13.294 74.5592 12.0496 73.926C11.4809 73.6366 11.3453 72.9543 11.7686 72.4769C12.5782 71.5637 19.3918 71.5649 20.2015 72.478ZM19.786 23.4066C20.2219 22.8694 20.2219 22.0917 19.786 21.5544C19.6563 21.3946 19.4923 21.2601 19.3026 21.1801C18.2397 20.7323 17.122 20.4937 15.9865 20.4937C14.8485 20.4937 13.7282 20.7334 12.6632 21.1832C12.4743 21.263 12.3109 21.397 12.1817 21.5562C11.7465 22.0924 11.7465 22.8687 12.1817 23.4048C12.3109 23.564 12.4743 23.698 12.6632 23.7778C13.7282 24.2277 14.8484 24.4673 15.9865 24.4673C17.122 24.4673 18.2397 24.2288 19.3026 23.7809C19.4923 23.701 19.6563 23.5665 19.786 23.4066ZM23.5299 20.2064C23.8055 20.0529 24.0501 19.8528 24.2284 19.5926C25.9581 17.0674 27.0491 13.7091 27.0491 9.87409C27.0491 6.02252 25.9487 2.65172 24.2059 0.122922C24.03 -0.132346 23.7897 -0.328917 23.519 -0.480059C22.7616 -0.902949 21.8208 -0.902949 21.0634 -0.480059C20.7928 -0.328919 20.5524 -0.13235 20.3765 0.122916C18.6338 2.65171 17.5333 6.02252 17.5333 9.87409C17.5333 13.7091 18.6243 17.0674 20.354 19.5926C20.5323 19.8528 20.7769 20.0529 21.0525 20.2064C21.8168 20.632 22.7656 20.632 23.5299 20.2064ZM17.6169 26.9387C17.8216 26.4891 17.3986 26.0113 16.9067 26.0563C16.6028 26.0841 16.296 26.0983 15.9865 26.0983C15.6758 26.0983 15.3678 26.084 15.0627 26.056C14.5707 26.0108 14.1474 26.4888 14.3521 26.9384C14.6437 27.5788 17.3254 27.579 17.6169 26.9387ZM14.3491 43.242C14.6413 42.6011 17.3278 42.6009 17.6199 43.2418C17.8251 43.692 17.4012 44.1708 16.9085 44.1256C16.604 44.0977 16.2966 44.0835 15.9865 44.0835C15.6752 44.0835 15.3666 44.0978 15.0609 44.126C14.5681 44.1714 14.1438 43.6924 14.3491 43.242ZM19.8014 -1.82517C19.6742 -1.66895 19.5137 -1.5374 19.3283 -1.45862C18.2578 -1.00375 17.1312 -0.761321 15.9865 -0.761321C14.8393 -0.761321 13.7101 -1.00487 12.6374 -1.46176C12.4528 -1.54038 12.293 -1.67143 12.1663 -1.82701C11.7352 -2.35634 11.7352 -3.12413 12.1663 -3.65346C12.293 -3.80904 12.4528 -3.94009 12.6374 -4.01871C13.7101 -4.4756 14.8393 -4.71915 15.9865 -4.71915C17.1312 -4.71915 18.2578 -4.47671 19.3283 -4.02184C19.5137 -3.94306 19.6742 -3.81151 19.8014 -3.6553C20.2332 -3.12486 20.2332 -2.3556 19.8014 -1.82517ZM23.519 -5.00041C22.7616 -4.57752 21.8208 -4.57752 21.0634 -5.00041C20.7928 -5.15155 20.5524 -5.34812 20.3765 -5.60339C18.6338 -8.13219 17.5333 -11.503 17.5333 -15.3546C17.5333 -18.4094 18.2256 -21.1618 19.3815 -23.4316C20.6355 -25.8939 23.9469 -25.8939 25.2009 -23.4316C26.3568 -21.1618 27.0491 -18.4094 27.0491 -15.3546C27.0491 -11.503 25.9487 -8.13219 24.2059 -5.60339C24.03 -5.34812 23.7897 -5.15155 23.519 -5.00041ZM17.6229 1.71265C17.3302 2.35419 14.6388 2.35398 14.3461 1.71244C14.1403 1.26141 14.5655 0.781455 15.0591 0.827014C15.3654 0.855281 15.6746 0.869655 15.9865 0.869655C16.2972 0.869655 16.6052 0.855396 16.9103 0.827354C17.4038 0.781989 17.8287 1.26176 17.6229 1.71265ZM17.6169 18.0224C17.8216 18.4719 17.3986 18.9498 16.9067 18.9047C16.6028 18.8769 16.296 18.8627 15.9865 18.8627C15.6759 18.8627 15.3678 18.877 15.0627 18.905C14.5707 18.9503 14.1474 18.4723 14.3521 18.0226C14.6437 17.3822 17.3254 17.382 17.6169 18.0224ZM19.9204 -28.9744C20.4894 -28.6851 20.625 -28.0024 20.2015 -27.5248C19.3918 -26.6117 12.5782 -26.6106 11.7686 -27.5237C11.3453 -28.0011 11.4809 -28.6835 12.0496 -28.9728C13.294 -29.6061 14.6276 -29.9478 15.9865 -29.9478C17.3444 -29.9478 18.6768 -29.6066 19.9204 -28.9744ZM14.3461 -7.19291C14.6388 -7.83445 17.3302 -7.83466 17.6229 -7.19311C17.8287 -6.74223 17.4038 -6.26245 16.9103 -6.30782C16.6052 -6.33586 16.2972 -6.35013 15.9865 -6.35013C15.6746 -6.35013 15.3654 -6.33575 15.0591 -6.30749C14.5655 -6.26193 14.1403 -6.74188 14.3461 -7.19291ZM8.44906 49.9621C9.2083 49.5382 10.1515 49.5382 10.9107 49.9621C11.1826 50.1139 11.4241 50.3114 11.6005 50.568C13.3387 53.0955 14.4358 56.462 14.4358 60.3077C14.4358 63.3606 13.7444 66.1115 12.5898 68.3804C11.3362 70.8439 8.02361 70.8439 6.76995 68.3804C5.61533 66.1115 4.92394 63.3606 4.92394 60.3077C4.92394 56.462 6.02105 53.0955 7.7592 50.568C7.93569 50.3114 8.17711 50.1139 8.44906 49.9621ZM7.18577 48.6161C7.05781 48.7735 6.89621 48.906 6.70947 48.9852C5.64059 49.4386 4.51591 49.6802 3.37325 49.6802C2.23058 49.6802 1.1059 49.4386 0.0370293 48.9852C-0.149719 48.906 -0.311317 48.7735 -0.439278 48.6161C-0.872402 48.0834 -0.872398 47.3113 -0.439274 46.7785C-0.31131 46.6212 -0.149712 46.4886 0.0370293 46.4094C1.1059 45.9561 2.23058 45.7145 3.37325 45.7145C4.51591 45.7145 5.64061 45.9561 6.70948 46.4094C6.89622 46.4886 7.05782 46.6212 7.18577 46.7785C7.6189 47.3113 7.6189 48.0834 7.18577 48.6161ZM10.9107 45.4326C10.1515 45.8564 9.20829 45.8564 8.44905 45.4326C8.17711 45.2808 7.93569 45.0832 7.75921 44.8266C6.02105 42.2991 4.92394 38.9327 4.92394 35.087C4.92394 31.2495 6.01632 27.8893 7.74798 25.3636C7.92564 25.1045 8.1692 24.9052 8.44361 24.7522C9.2063 24.327 10.1535 24.327 10.9162 24.7522C11.1906 24.9052 11.4341 25.1045 11.6118 25.3636C13.3434 27.8893 14.4358 31.2495 14.4358 35.087C14.4358 38.9327 13.3387 42.2991 11.6006 44.8266C11.4241 45.0832 11.1827 45.2808 10.9107 45.4326ZM5.01445 52.1443C4.7238 52.7811 2.02269 52.7811 1.73204 52.1443C1.52805 51.6974 1.94923 51.2223 2.43841 51.2678C2.74709 51.2966 3.05883 51.3112 3.37325 51.3112C3.68766 51.3112 3.9994 51.2966 4.30808 51.2678C4.79726 51.2223 5.21844 51.6974 5.01445 52.1443ZM7.59829 72.4849C8.01803 72.9576 7.88347 73.6334 7.32038 73.9208C6.07302 74.5574 4.73591 74.9009 3.37325 74.9009C2.01058 74.9009 0.673473 74.5574 -0.573891 73.9208C-1.13698 73.6334 -1.27154 72.9576 -0.851799 72.4849C-0.0481071 71.5797 6.7946 71.5797 7.59829 72.4849ZM7.17808 23.4048C7.61324 22.8687 7.61325 22.0924 7.17809 21.5562C7.04887 21.397 6.88549 21.263 6.6966 21.1832C5.63158 20.7334 4.51132 20.4937 3.37325 20.4937C2.23517 20.4937 1.11493 20.7334 0.0499001 21.1832C-0.138996 21.263 -0.302372 21.397 -0.431595 21.5562C-0.866753 22.0924 -0.866756 22.8687 -0.431599 23.4048C-0.302376 23.564 -0.139004 23.698 0.0498886 23.7778C1.11491 24.2277 2.23517 24.4673 3.37325 24.4673C4.51132 24.4673 5.63156 24.2277 6.69658 23.7778C6.88548 23.6981 7.04885 23.564 7.17808 23.4048ZM10.9162 20.2088C11.1906 20.0558 11.4341 19.8565 11.6118 19.5974C13.3434 17.0717 14.4358 13.7115 14.4358 9.87409C14.4358 6.02005 13.334 2.64739 11.5893 0.118049C11.414 -0.136084 11.1747 -0.331879 10.9052 -0.482512C10.1495 -0.90495 9.21032 -0.90495 8.45456 -0.482512C8.18507 -0.331879 7.94579 -0.136084 7.77049 0.118049C6.02579 2.64739 4.92394 6.02005 4.92394 9.87409C4.92394 13.7115 6.01632 17.0717 7.74799 19.5974C7.92564 19.8565 8.1692 20.0558 8.44361 20.2088C9.2063 20.634 10.1535 20.634 10.9162 20.2088ZM5.01144 26.9302C5.21491 26.4839 4.79464 26.0098 4.30627 26.0551C3.99818 26.0837 3.68705 26.0983 3.37325 26.0983C3.05944 26.0983 2.74831 26.0837 2.44022 26.0551C1.95185 26.0098 1.53158 26.4839 1.73505 26.9302C2.02513 27.5664 4.72136 27.5664 5.01144 26.9302ZM2.43841 44.1268C1.94923 44.1723 1.52805 43.6973 1.73204 43.2504C2.02269 42.6135 4.7238 42.6135 5.01445 43.2504C5.21844 43.6973 4.79726 44.1723 4.30808 44.1268C3.9994 44.0981 3.68766 44.0835 3.37325 44.0835C3.05883 44.0835 2.74709 44.0981 2.43841 44.1268ZM7.19349 -1.827C7.06679 -1.67142 6.90697 -1.54038 6.72237 -1.46175C5.64965 -1.00487 4.52052 -0.761321 3.37325 -0.761321C2.22598 -0.761321 1.09683 -1.00487 0.0241051 -1.46176C-0.160488 -1.54038 -0.320309 -1.67143 -0.447006 -1.82701C-0.878078 -2.35634 -0.878078 -3.12413 -0.447006 -3.65346C-0.320309 -3.80904 -0.160488 -3.94009 0.0241089 -4.01871C1.09683 -4.4756 2.22598 -4.71915 3.37325 -4.71915C4.52051 -4.71915 5.64965 -4.4756 6.72237 -4.01871C6.90697 -3.94009 7.06679 -3.80904 7.19349 -3.65346C7.62456 -3.12413 7.62456 -2.35634 7.19349 -1.827ZM10.9052 -4.99796C10.1495 -4.57552 9.21031 -4.57552 8.45456 -4.99796C8.18507 -5.14859 7.94579 -5.34438 7.77049 -5.59852C6.02579 -8.12786 4.92394 -11.5005 4.92394 -15.3546C4.92394 -18.4075 5.61533 -21.1583 6.76995 -23.4272C8.02361 -25.8908 11.3362 -25.8908 12.5898 -23.4272C13.7444 -21.1583 14.4358 -18.4075 14.4358 -15.3546C14.4358 -11.5005 13.334 -8.12786 11.5893 -5.59852C11.414 -5.34439 11.1747 -5.14859 10.9052 -4.99796ZM5.01747 1.70409C4.72624 2.34148 2.02024 2.34148 1.72902 1.70409C1.5245 1.25648 1.9466 0.780479 2.43659 0.826156C2.74587 0.854987 3.05822 0.869655 3.37325 0.869655C3.68827 0.869655 4.00062 0.854987 4.30989 0.82616C4.79988 0.780479 5.22198 1.25648 5.01747 1.70409ZM5.01144 18.0309C5.21491 18.4772 4.79464 18.9512 4.30627 18.9059C3.99818 18.8773 3.68705 18.8627 3.37325 18.8627C3.05945 18.8627 2.74831 18.8773 2.44023 18.9059C1.95186 18.9512 1.53159 18.4772 1.73506 18.0309C2.02514 17.3946 4.72136 17.3946 5.01144 18.0309ZM7.32038 -28.9677C7.88347 -28.6803 8.01803 -28.0045 7.59829 -27.5317C6.7946 -26.6266 -0.0481071 -26.6266 -0.851799 -27.5317C-1.27154 -28.0044 -1.13698 -28.6803 -0.573891 -28.9677C0.673473 -29.6042 2.01058 -29.9478 3.37325 -29.9478C4.73591 -29.9478 6.07302 -29.6042 7.32038 -28.9677ZM1.72902 -7.18456C2.02024 -7.82195 4.72624 -7.82195 5.01747 -7.18456C5.22198 -6.73695 4.79988 -6.26095 4.30989 -6.30663C4.00062 -6.33546 3.68827 -6.35013 3.37325 -6.35013C3.05822 -6.35013 2.74587 -6.33546 2.4366 -6.30663C1.9466 -6.26095 1.5245 -6.73695 1.72902 -7.18456ZM-4.16422 49.9621C-3.40498 49.5382 -2.46181 49.5382 -1.70258 49.9621C-1.43064 50.1139 -1.18921 50.3114 -1.01273 50.568C0.725437 53.0955 1.82254 56.462 1.82254 60.3077C1.82254 63.3606 1.13116 66.1115 -0.0234642 68.3804C-1.27712 70.8439 -4.58967 70.8439 -5.84333 68.3804C-6.99795 66.1115 -7.68934 63.3606 -7.68934 60.3077C-7.68934 56.462 -6.59224 53.0955 -4.85408 50.568C-4.6776 50.3114 -4.43617 50.1139 -4.16422 49.9621ZM-5.42751 48.6161C-5.55547 48.7735 -5.71707 48.906 -5.90381 48.9852C-6.97269 49.4386 -8.09737 49.6802 -9.24004 49.6802C-10.3775 49.6802 -11.4971 49.4408 -12.5616 48.9914C-12.75 48.9119 -12.9129 48.7784 -13.0418 48.6197C-13.4764 48.0848 -13.4764 47.3099 -13.0418 46.7749C-12.9129 46.6163 -12.7499 46.4827 -12.5616 46.4032C-11.4971 45.9539 -10.3775 45.7145 -9.24004 45.7145C-8.09736 45.7145 -6.97268 45.9561 -5.9038 46.4094C-5.71706 46.4886 -5.55547 46.6212 -5.42751 46.7785C-4.99438 47.3113 -4.99439 48.0834 -5.42751 48.6161ZM-1.70257 45.4326C-2.46181 45.8564 -3.40499 45.8564 -4.16423 45.4326C-4.43617 45.2808 -4.67759 45.0832 -4.85407 44.8266C-6.59224 42.2991 -7.68934 38.9327 -7.68934 35.087C-7.68934 31.2495 -6.59696 27.8893 -4.8653 25.3636C-4.68764 25.1045 -4.44408 24.9052 -4.16967 24.7522C-3.40698 24.327 -2.45982 24.327 -1.69712 24.7522C-1.42272 24.9052 -1.17916 25.1045 -1.00151 25.3636C0.73016 27.8893 1.82254 31.2495 1.82254 35.087C1.82254 38.9327 0.725437 42.2991 -1.01273 44.8266C-1.18921 45.0832 -1.43063 45.2808 -1.70257 45.4326ZM-7.60632 52.1608C-7.89991 52.8057 -10.5722 52.8062 -10.8658 52.1612C-11.0721 51.7078 -10.6455 51.2253 -10.1494 51.2702C-9.84903 51.2973 -9.5458 51.3112 -9.24004 51.3112C-8.93182 51.3112 -8.62617 51.2971 -8.32345 51.2695C-7.82705 51.2242 -7.39982 51.7071 -7.60632 52.1608ZM-5.02907 72.469C-4.60234 72.951 -4.73893 73.6397 -5.31303 73.931C-6.55464 74.561 -7.8847 74.9009 -9.24004 74.9009C-10.5931 74.9009 -11.921 74.5622 -13.1608 73.9342C-13.7356 73.6431 -13.8723 72.9535 -13.4451 72.4712C-12.6296 71.5504 -5.84441 71.548 -5.02907 72.469ZM-5.4352 23.4048C-5.00004 22.8687 -5.00003 22.0924 -5.43519 21.5562C-5.56441 21.397 -5.72779 21.263 -5.91668 21.1832C-6.98171 20.7334 -8.10196 20.4937 -9.24004 20.4937C-10.3729 20.4937 -11.4881 20.7312 -12.5488 21.1771C-12.7393 21.2571 -12.904 21.3922 -13.0342 21.5527C-13.4708 22.091 -13.4708 22.8701 -13.0342 23.4084C-12.904 23.5689 -12.7393 23.7039 -12.5488 23.784C-11.4881 24.2299 -10.3729 24.4673 -9.24004 24.4673C-8.10196 24.4673 -6.98172 24.2277 -5.9167 23.7778C-5.7278 23.6981 -5.56443 23.564 -5.4352 23.4048ZM-1.69712 20.2088C-1.42272 20.0558 -1.17915 19.8565 -1.0015 19.5974C0.73016 17.0717 1.82254 13.7115 1.82254 9.87409C1.82254 6.02005 0.720695 2.64739 -1.024 0.118049C-1.1993 -0.136084 -1.43858 -0.331879 -1.70807 -0.482512C-2.46383 -0.90495 -3.40297 -0.90495 -4.15873 -0.482512C-4.42821 -0.331879 -4.6675 -0.136084 -4.84279 0.118049C-6.58749 2.64739 -7.68934 6.02005 -7.68934 9.87409C-7.68934 13.7115 -6.59696 17.0717 -4.86529 19.5974C-4.68764 19.8565 -4.44408 20.0558 -4.16967 20.2088C-3.40698 20.634 -2.45982 20.634 -1.69712 20.2088ZM-7.60931 26.9466C-7.40333 26.4936 -7.82963 26.0117 -8.3252 26.0568C-8.62735 26.0843 -8.93241 26.0983 -9.24004 26.0983C-9.5452 26.0983 -9.84784 26.0845 -10.1476 26.0575C-10.6429 26.0127 -11.0686 26.4942 -10.8628 26.947C-10.5698 27.5914 -7.90232 27.591 -7.60931 26.9466ZM-10.8658 43.2335C-10.5722 42.5885 -7.89991 42.5889 -7.60632 43.2339C-7.39982 43.6876 -7.82705 44.1704 -8.32345 44.1251C-8.62617 44.0975 -8.93182 44.0835 -9.24004 44.0835C-9.5458 44.0835 -9.84903 44.0973 -10.1494 44.1245C-10.6455 44.1694 -11.0721 43.6869 -10.8658 43.2335ZM-5.41979 -1.827C-5.54649 -1.67142 -5.70631 -1.54038 -5.89091 -1.46175C-6.96362 -1.00487 -8.09277 -0.761321 -9.24004 -0.761321C-10.3821 -0.761321 -11.5061 -1.00265 -12.5745 -1.45551C-12.7607 -1.53444 -12.9218 -1.6665 -13.0495 -1.82335C-13.4821 -2.35488 -13.4821 -3.12559 -13.0495 -3.65711C-12.9218 -3.81398 -12.7607 -3.94603 -12.5745 -4.02496C-11.5061 -4.47782 -10.3821 -4.71915 -9.24004 -4.71915C-8.09277 -4.71915 -6.96363 -4.4756 -5.89091 -4.01871C-5.70631 -3.94009 -5.54649 -3.80904 -5.41979 -3.65346C-4.98872 -3.12413 -4.98872 -2.35634 -5.41979 -1.827ZM-1.70807 -4.99796C-2.46382 -4.57552 -3.40297 -4.57552 -4.15873 -4.99796C-4.42821 -5.14859 -4.6675 -5.34438 -4.84279 -5.59852C-6.58749 -8.12786 -7.68934 -11.5005 -7.68934 -15.3546C-7.68934 -18.4075 -6.99796 -21.1583 -5.84333 -23.4272C-4.58967 -25.8908 -1.27712 -25.8908 -0.0234642 -23.4272C1.13116 -21.1583 1.82254 -18.4075 1.82254 -15.3546C1.82254 -11.5005 0.720695 -8.12786 -1.024 -5.59852C-1.1993 -5.34439 -1.43858 -5.14859 -1.70807 -4.99796ZM-7.60334 1.72058C-7.8975 2.36615 -10.5746 2.36656 -10.8687 1.72098C-11.0756 1.26691 -10.6481 0.783458 -10.1511 0.828506C-9.85021 0.855785 -9.54639 0.869655 -9.24004 0.869655C-8.93122 0.869655 -8.62498 0.855563 -8.32169 0.827846C-7.82446 0.782409 -7.3963 1.26622 -7.60334 1.72058ZM-7.6093 18.0145C-7.40333 18.4675 -7.82963 18.9493 -8.3252 18.9042C-8.62735 18.8767 -8.93241 18.8627 -9.24004 18.8627C-9.5452 18.8627 -9.84784 18.8765 -10.1476 18.9036C-10.6429 18.9483 -11.0686 18.4668 -10.8628 18.0141C-10.5698 17.3697 -7.90231 17.3701 -7.6093 18.0145ZM-5.31303 -28.9779C-4.73893 -28.6866 -4.60234 -27.9979 -5.02907 -27.5158C-5.84441 -26.5949 -12.6296 -26.5972 -13.4451 -27.518C-13.8723 -28.0004 -13.7356 -28.6899 -13.1608 -28.981C-11.921 -29.609 -10.5931 -29.9478 -9.24004 -29.9478C-7.8847 -29.9478 -6.55465 -29.6079 -5.31303 -28.9779ZM-10.8687 -7.20145C-10.5746 -7.84703 -7.89751 -7.84662 -7.60334 -7.20105C-7.3963 -6.74669 -7.82446 -6.26288 -8.3217 -6.30832C-8.62498 -6.33603 -8.93122 -6.35013 -9.24004 -6.35013C-9.54639 -6.35013 -9.85021 -6.33625 -10.1511 -6.30897C-10.6481 -6.26393 -11.0756 -6.74737 -10.8687 -7.20145ZM-16.7784 49.9669C-16.016 49.5422 -15.0695 49.5422 -14.3071 49.9669C-14.0328 50.1198 -13.7893 50.3188 -13.6115 50.5777C-11.8772 53.1042 -10.7829 56.4669 -10.7829 60.3077C-10.7829 63.3645 -11.4761 66.1185 -12.6333 68.389C-13.8877 70.8501 -17.1978 70.8501 -18.4522 68.389C-19.6095 66.1185 -20.3026 63.3645 -20.3026 60.3077C-20.3026 56.4669 -19.2083 53.1042 -17.474 50.5777C-17.2963 50.3188 -17.0527 50.1198 -16.7784 49.9669ZM-13.6115 44.8169C-11.8772 42.2905 -10.7829 38.9278 -10.7829 35.087C-10.7829 31.2544 -11.8725 27.8979 -13.6003 25.3733C-13.7792 25.1119 -14.0249 24.9111 -14.3017 24.7571C-15.0675 24.331 -16.018 24.331 -16.7838 24.7571C-17.0606 24.9111 -17.3063 25.1119 -17.4852 25.3733C-19.213 27.8979 -20.3026 31.2544 -20.3026 35.087C-20.3026 38.9278 -19.2083 42.2905 -17.474 44.8169C-17.2963 45.0758 -17.0527 45.2749 -16.7784 45.4277C-16.016 45.8524 -15.0695 45.8524 -14.3071 45.4277C-14.0328 45.2749 -13.7892 45.0758 -13.6115 44.8169ZM-18.0437 46.7749C-18.1726 46.6163 -18.3356 46.4827 -18.5239 46.4032C-19.5884 45.9539 -20.7081 45.7145 -21.8455 45.7145C-22.9856 45.7145 -24.1077 45.955 -25.1744 46.4063C-25.3619 46.4857 -25.5242 46.6187 -25.6526 46.7767C-26.0865 47.3106 -26.0865 48.0841 -25.6526 48.6179C-25.5242 48.776 -25.3619 48.909 -25.1744 48.9883C-24.1077 49.4397 -22.9856 49.6802 -21.8455 49.6802C-20.7081 49.6802 -19.5884 49.4408 -18.5239 48.9914C-18.3356 48.9119 -18.1726 48.7784 -18.0437 48.6197C-17.6091 48.0848 -17.6091 47.3099 -18.0437 46.7749ZM-18.0514 23.4084C-17.6148 22.8701 -17.6148 22.091 -18.0514 21.5527C-18.1816 21.3922 -18.3463 21.2571 -18.5368 21.1771C-19.5974 20.7312 -20.7126 20.4937 -21.8455 20.4937C-22.981 20.4937 -24.0987 20.7323 -25.1615 21.1801C-25.3512 21.2601 -25.5153 21.3946 -25.645 21.5544C-26.0809 22.0917 -26.0809 22.8694 -25.645 23.4066C-25.5153 23.5665 -25.3512 23.701 -25.1615 23.7809C-24.0987 24.2288 -22.981 24.4673 -21.8455 24.4673C-20.7126 24.4673 -19.5974 24.2299 -18.5368 23.784C-18.3463 23.7039 -18.1816 23.5689 -18.0514 23.4084ZM-14.3017 20.204C-14.0249 20.05 -13.7792 19.8491 -13.6003 19.5877C-11.8725 17.0631 -10.7829 13.7066 -10.7829 9.87409C-10.7829 6.02499 -11.882 2.65603 -13.6228 0.127778C-13.7993 -0.128623 -14.0407 -0.325967 -14.3126 -0.477616C-15.0715 -0.900954 -16.014 -0.900952 -16.773 -0.477614C-17.0448 -0.325963 -17.2862 -0.128619 -17.4628 0.127786C-19.2036 2.65604 -20.3026 6.02499 -20.3026 9.87409C-20.3026 13.7066 -19.213 17.0632 -17.4852 19.5877C-17.3063 19.8491 -17.0606 20.05 -16.7838 20.204C-16.018 20.63 -15.0675 20.63 -14.3017 20.204ZM-20.2263 26.9548C-20.0193 26.4989 -20.4479 26.0137 -20.9467 26.0583C-21.2436 26.0848 -21.5433 26.0983 -21.8455 26.0983C-22.1489 26.0983 -22.4499 26.0847 -22.7479 26.0579C-23.2469 26.0131 -23.6758 26.4985 -23.4687 26.9546C-23.1743 27.603 -20.5207 27.6032 -20.2263 26.9548ZM-20.2234 43.2256C-20.5184 42.5767 -23.1766 42.5769 -23.4716 43.2258C-23.6793 43.6826 -23.2494 44.169 -22.7497 44.124C-22.451 44.0972 -22.1495 44.0835 -21.8455 44.0835C-21.5427 44.0835 -21.2424 44.097 -20.945 44.1237C-20.4454 44.1684 -20.0158 43.6822 -20.2234 43.2256ZM-18.036 -1.82335C-18.1637 -1.66649 -18.3249 -1.53444 -18.5111 -1.45551C-19.5794 -1.00265 -20.7035 -0.761321 -21.8455 -0.761321C-22.9901 -0.761321 -24.1168 -1.00376 -25.1873 -1.45863C-25.3727 -1.53741 -25.5332 -1.66896 -25.6604 -1.82518C-26.0922 -2.35561 -26.0922 -3.12486 -25.6604 -3.65529C-25.5332 -3.81151 -25.3727 -3.94306 -25.1873 -4.02184C-24.1168 -4.47671 -22.9901 -4.71915 -21.8455 -4.71915C-20.7035 -4.71915 -19.5794 -4.47782 -18.5111 -4.02496C-18.3249 -3.94603 -18.1637 -3.81397 -18.036 -3.65712C-17.6035 -3.12559 -17.6035 -2.35488 -18.036 -1.82335ZM-14.3126 -5.00285C-15.0715 -4.57952 -16.014 -4.57952 -16.773 -5.00285C-17.0448 -5.15451 -17.2862 -5.35185 -17.4628 -5.60825C-19.2036 -8.13651 -20.3026 -11.5055 -20.3026 -15.3546C-20.3026 -18.4113 -19.6095 -21.1653 -18.4522 -23.4359C-17.1978 -25.897 -13.8877 -25.897 -12.6333 -23.4359C-11.4761 -21.1653 -10.7829 -18.4113 -10.7829 -15.3546C-10.7829 -11.5055 -11.8819 -8.13651 -13.6228 -5.60826C-13.7993 -5.35185 -14.0407 -5.15451 -14.3126 -5.00285ZM-20.2204 1.72891C-20.516 2.37843 -23.179 2.37823 -23.4746 1.72872C-23.6828 1.27124 -23.252 0.783862 -22.7514 0.828979C-22.4522 0.855945 -22.1501 0.869655 -21.8455 0.869655C-21.5421 0.869655 -21.2413 0.856055 -20.9432 0.829303C-20.4428 0.784381 -20.0123 1.27158 -20.2204 1.72891ZM-20.2263 18.0062C-20.0193 18.4622 -20.4479 18.9474 -20.9467 18.9028C-21.2436 18.8762 -21.5433 18.8627 -21.8455 18.8627C-22.1489 18.8627 -22.4498 18.8763 -22.7479 18.9031C-23.2469 18.9479 -23.6758 18.4625 -23.4687 18.0064C-23.1742 17.3581 -20.5207 17.3579 -20.2263 18.0062ZM-17.9345 -28.986C-17.3544 -28.693 -17.2166 -27.9972 -17.6472 -27.5104C-18.4685 -26.5818 -25.2256 -26.5806 -26.0468 -27.5093C-26.4771 -27.996 -26.3394 -28.6913 -25.7596 -28.9844C-24.5217 -29.6102 -23.1961 -29.9478 -21.8455 -29.9478C-20.496 -29.9478 -19.1715 -29.6108 -17.9345 -28.986ZM-23.4746 -7.20918C-23.179 -7.8587 -20.516 -7.8589 -20.2204 -7.20938C-20.0123 -6.75205 -20.4428 -6.26485 -20.9432 -6.30977C-21.2413 -6.33652 -21.5421 -6.35013 -21.8455 -6.35013C-22.1501 -6.35013 -22.4522 -6.33641 -22.7514 -6.30945C-23.252 -6.26433 -23.6828 -6.75171 -23.4746 -7.20918ZM-31.0599 68.3847C-32.2158 66.115 -32.9081 63.3626 -32.9081 60.3077C-32.9081 56.4644 -31.8124 53.0999 -30.0762 50.5729C-29.8991 50.3151 -29.6566 50.1168 -29.3834 49.9645C-28.6226 49.5402 -27.6778 49.5402 -26.917 49.9645C-26.6438 50.1168 -26.4013 50.3151 -26.2242 50.5729C-24.488 53.0999 -23.3923 56.4644 -23.3923 60.3077C-23.3923 63.3626 -24.0846 66.115 -25.2405 68.3847C-26.4945 70.847 -29.8059 70.847 -31.0599 68.3847ZM-26.917 45.4302C-27.6778 45.8544 -28.6226 45.8544 -29.3834 45.4302C-29.6566 45.2778 -29.8991 45.0795 -30.0762 44.8218C-31.8124 42.2948 -32.9081 38.9302 -32.9081 35.087C-32.9081 31.252 -31.8171 27.8936 -30.0874 25.3685C-29.9091 25.1082 -29.6645 24.9082 -29.3889 24.7547C-28.6246 24.329 -27.6758 24.329 -26.9115 24.7547C-26.6359 24.9082 -26.3913 25.1082 -26.213 25.3685C-24.4833 27.8936 -23.3923 31.252 -23.3923 35.087C-23.3923 38.9302 -24.488 42.2948 -26.2242 44.8218C-26.4013 45.0795 -26.6438 45.2778 -26.917 45.4302ZM-26.213 19.5926C-26.3913 19.8528 -26.6359 20.0529 -26.9115 20.2064C-27.6758 20.632 -28.6246 20.632 -29.3889 20.2064C-29.6645 20.0529 -29.9091 19.8528 -30.0874 19.5926C-31.8171 17.0674 -32.9081 13.7091 -32.9081 9.87409C-32.9081 6.02252 -31.8077 2.65171 -30.0649 0.122918C-29.889 -0.13235 -29.6486 -0.328919 -29.378 -0.480059C-28.6206 -0.902949 -27.6798 -0.902951 -26.9224 -0.480059C-26.6517 -0.328919 -26.4114 -0.13235 -26.2355 0.122916C-24.4927 2.65171 -23.3923 6.02252 -23.3923 9.87409C-23.3923 13.7091 -24.4833 17.0674 -26.213 19.5926ZM-26.9224 -5.00041C-27.6798 -4.57752 -28.6206 -4.57752 -29.378 -5.00041C-29.6486 -5.15155 -29.889 -5.34812 -30.0649 -5.60339C-31.8076 -8.13219 -32.9081 -11.503 -32.9081 -15.3546C-32.9081 -18.4094 -32.2158 -21.1618 -31.0599 -23.4316C-29.8059 -25.8939 -26.4945 -25.8939 -25.2405 -23.4316C-24.0846 -21.1618 -23.3923 -18.4094 -23.3923 -15.3546C-23.3923 -11.503 -24.4927 -8.13219 -26.2355 -5.60339C-26.4114 -5.34812 -26.6517 -5.15155 -26.9224 -5.00041Z" fill="white"/>
</g>
</svg>
