<svg width="1440" height="2399" viewBox="0 0 1440 2399" fill="none" xmlns="http://www.w3.org/2000/svg">
<g clip-path="url(#clip0_267_17164)">
<path fill-rule="evenodd" clip-rule="evenodd" d="M289.548 788.787L8.4375 785.002L291.746 781.052C314.037 781.052 344.02 777.267 345.433 711.771L346.768 340.844L347.758 132.48H348.445L349.436 340.844L350.771 711.771C352.183 777.267 382.167 781.052 404.458 781.052L1189.97 784.837L402.26 788.787C379.969 788.787 349.986 792.572 348.573 858.068L345.904 1040.57L343.235 858.068C341.823 792.572 311.839 788.787 289.548 788.787Z" fill="white"/>
<path fill-rule="evenodd" clip-rule="evenodd" d="M1240.22 868.646L1442.25 864.861L1238.02 860.912C1215.73 860.912 1185.75 857.127 1184.33 791.63L1181.66 335.874L1179 791.63C1177.58 857.127 1147.6 860.912 1125.31 860.912L309.703 864.697L1127.51 868.646H1240.22Z" fill="white"/>
<path fill-rule="evenodd" clip-rule="evenodd" d="M1185.33 862.578L1387.36 866.363L1183.13 870.313C1160.84 870.313 1130.85 874.098 1129.44 939.594L1126.77 1395.35L1124.1 939.594C1122.69 874.098 1092.71 870.313 1070.42 870.313L254.811 866.528L1072.61 862.578H1185.33Z" fill="white"/>
<path d="M333.8 1583.82L285.186 1583.57L669.166 1581.72L567 1581.23L718.766 1580.47L82.8227 1577.28H0V1590.31C13.7797 1597.56 25.1391 1614.59 25.9957 1654.3L27.1995 1988.93L27.33 1952.64L28.3207 1744.28L28.6643 1672L29.008 1744.28L29.9987 1952.64L30.1292 1988.93L31.333 1654.3C32.7458 1588.8 62.7291 1585.02 85.0204 1585.02L333.8 1583.82Z" fill="white"/>
<path d="M1359.33 1585.18C1380.46 1586.37 1404.93 1595.29 1406.2 1654.3L1407.4 1988.93L1407.53 1952.64L1408.52 1744.28L1408.87 1672L1409.21 1744.28L1410.2 1952.64L1410.33 1988.93L1411.54 1654.3C1412.44 1612.24 1425.13 1595.63 1440 1589.12V1584.1L1359.33 1585.18Z" fill="white"/>
<path d="M1166.05 1578.23C1171.94 1579.56 1177.91 1579.79 1183.41 1579.79L1440 1583.37V1577.28H1354.71L1166.05 1578.23Z" fill="white"/>
<path d="M1086.11 1578.63C1080.85 1579.61 1075.59 1579.79 1070.7 1579.79L821.92 1580.99L870.531 1581.23L718.765 1581.96L1352.51 1585.02C1354.72 1585.02 1357.01 1585.05 1359.33 1585.18L1440 1584.1V1583.37L1183.41 1579.79C1177.91 1579.79 1171.94 1579.56 1166.05 1578.23L1086.11 1578.63Z" fill="white"/>
<path d="M1072.89 1587.52H1185.61L1359.33 1585.18C1357.01 1585.05 1354.72 1585.02 1352.51 1585.02L718.765 1581.96L333.8 1583.82L1072.89 1587.52Z" fill="white"/>
<path d="M285.186 1583.57L333.8 1583.82L718.765 1581.96L669.166 1581.72L285.186 1583.57Z" fill="white"/>
<path d="M567 1581.23L669.166 1581.72L821.92 1580.99L718.766 1580.47L567 1581.23Z" fill="white"/>
<path d="M870.531 1581.23L821.92 1580.99L669.166 1581.72L718.765 1581.96L870.531 1581.23Z" fill="white"/>
<path d="M1070.7 1579.79C1075.59 1579.79 1080.85 1579.61 1086.11 1578.63L718.766 1580.47L821.92 1580.99L1070.7 1579.79Z" fill="white"/>
<path d="M1408.52 2233.59L1407.53 2025.22L1407.4 1988.93L1406.2 2323.57C1404.79 2389.07 1374.8 2392.85 1352.51 2392.85L718.766 2395.9L870.531 2396.64L718.766 2397.4L1354.71 2400.59H1440V2388.74C1425.13 2382.24 1412.44 2365.63 1411.54 2323.57L1410.33 1988.93L1410.2 2025.22L1409.21 2233.59L1408.87 2305.87L1408.52 2233.59Z" fill="white"/>
<path d="M29.9987 2025.22L29.008 2233.59L28.6643 2305.87L28.3207 2233.59L27.33 2025.22L27.1995 1988.93L25.9957 2323.57C25.1391 2363.28 13.7797 2380.31 0 2387.56V2400.5V2400.59H82.8227L718.766 2397.4L567 2396.64L718.766 2395.9L85.0204 2392.85C62.7291 2392.85 32.7458 2389.07 31.333 2323.57L30.1292 1988.93L29.9987 2025.22Z" fill="white"/>
</g>
<defs>
<clipPath id="clip0_267_17164">
<rect width="1440" height="2399" fill="white" transform="matrix(-1 0 0 1 1440 0)"/>
</clipPath>
</defs>
</svg>
