<svg width="863" height="791" viewBox="0 0 863 791" fill="none" xmlns="http://www.w3.org/2000/svg">
<path fill-rule="evenodd" clip-rule="evenodd" d="M0 1.86775C0 5.33358 18.9973 32.0954 35.7191 52.1852C64.8039 87.1281 92.7179 110.689 137.842 138.382C162.59 153.57 172.601 160.354 178.046 165.627C182.845 170.272 184 172.792 181.331 172.792C178.293 172.792 168.717 168.548 160.672 163.637C147.433 155.555 143.768 153.55 143.222 154.094C141.745 155.572 162.381 174.28 179.471 186.957C199.768 202.013 214.86 210.021 260.202 229.796C311.742 252.274 331.38 263.347 351.044 281.015C376.321 303.725 383.818 324.005 383.987 370.123L384.061 390.168L379.889 398.589C370.405 417.735 352.554 430.811 332.869 433.032C329.436 433.419 326.626 433.994 326.626 434.311C326.626 434.628 329.661 439.329 333.369 444.758C339.33 453.486 340.111 455.172 340.111 459.312C340.111 462.332 339.219 465.759 337.599 468.962C335.491 473.13 334.125 474.412 329.109 476.926C323.624 479.674 322.123 479.951 310.921 480.274C300.085 480.586 297.67 480.329 289.446 477.985C277.703 474.639 260.005 466.108 242.722 455.464C235.306 450.895 227.805 446.557 226.054 445.824C222.176 444.199 222.143 444.27 220.878 456.742C219.555 469.8 216.422 472.144 207.694 466.61C198.863 461.009 189.597 447.834 185.571 435.15C184.022 430.267 183.739 427.397 184.215 421.36C185.275 407.915 182.442 406.638 177.178 418.188C175.253 422.413 169.595 433.233 164.606 442.232C149.488 469.498 144.396 483.687 143.167 501.977C142.011 519.18 146.655 538.15 157.327 559.826C171.03 587.656 191.94 613.047 229.004 646.864C265.914 680.54 279.045 694.673 289.19 711.643C302.038 733.134 309.221 761.095 304.714 772.07C303.924 773.993 301.565 778.312 299.47 781.667C293.396 791.396 294.708 792.889 302.733 785.383C320.446 768.816 327.063 721.147 315.663 692.227C314.526 689.345 311.146 682.823 308.151 677.733C303.519 669.862 298.658 660.079 298.658 658.624C298.658 657.042 301.549 659.371 309.432 667.306C314.403 672.31 318.92 676.128 319.47 675.788C321.092 674.785 319.013 668.793 312.16 654.712C300.896 631.568 291.528 618.436 271.545 597.782C260.572 586.44 247.596 575.256 237.344 568.306C227.384 561.554 227.223 562.932 236.667 574.095C242.147 580.571 243.732 583.19 244.246 586.611C244.962 591.388 242.89 597.895 240.34 598.873C233.955 601.323 210.532 578.527 202.36 561.908C195.941 548.855 193.517 538.577 193.391 523.869C193.282 511.227 193.363 510.707 196.472 504.143C198.229 500.435 200.027 497.409 200.468 497.419C200.909 497.429 202.713 499.644 204.477 502.342C209.521 510.058 234.465 530.951 255.11 544.753C265.155 551.469 269.691 552.942 269.691 549.489C269.691 548.474 265.806 541.17 261.056 533.259C252.068 518.287 242.274 499.012 241.104 493.991C240.504 491.417 240.646 491.166 242.323 491.824C251.701 495.498 275.579 502.778 285.673 505.04C297.437 507.675 299.552 507.838 322.249 507.862L346.339 507.888L342.432 513.64C336.974 521.678 332.08 532.215 328.627 543.367C324.766 555.835 323.858 557.08 319.828 555.412C313.003 552.585 300.712 536.413 300.624 530.145C300.584 527.251 298.427 524.369 296.301 524.369C293.104 524.369 294.806 533.848 301.718 554.539C306.857 569.928 314.932 586.982 321.825 597.01C332.734 612.883 353.807 631.713 380.297 649.263C398.386 661.248 399.575 661.172 388.805 648.718C363.798 619.8 355.956 605.828 352.001 583.144C348.232 561.521 353.195 544.84 367.721 530.314C377.246 520.79 381.683 519.352 385.939 524.409C390.437 529.754 393.796 542.328 393.93 554.332C393.996 560.101 393.651 566.955 393.164 569.564C392.414 573.584 392.519 574.308 393.846 574.308C395.814 574.308 401.023 567.986 406.85 558.526L411.341 551.233L411.985 560.025C415.693 610.693 420.42 643.387 427.448 666.985C428.615 670.902 429.967 674.354 430.454 674.655C432.37 675.839 438.757 651.47 442.357 629.242C445.599 609.219 450.485 562.25 450.485 551.098C450.485 549.822 452.402 552.208 455.451 557.282C461.561 567.449 467.088 574.308 469.166 574.308C470.494 574.308 470.599 573.584 469.849 569.564C469.362 566.955 469.016 560.101 469.079 554.332C469.171 546.037 469.726 542.221 471.729 536.076C474.721 526.903 478.537 521.372 481.874 521.372C488.092 521.372 504.385 538.29 508.336 548.846C518.101 574.946 509.074 607.78 484.073 637.089C461.961 663.012 461.955 663.101 483.258 648.88C523.979 621.696 542.978 601.018 555.444 570.317C561.341 555.791 566.908 537.754 567.87 530.05C568.535 524.734 568.447 524.369 566.502 524.369C564.205 524.369 562.357 527.059 562.357 530.405C562.357 536.716 546.644 556.33 541.589 556.33C538.77 556.33 537.939 554.9 534.915 544.844C531.758 534.345 526.25 522.471 520.391 513.532L516.233 507.189L526.06 507.983C554.596 510.287 578.834 506.672 610.438 495.398C616.59 493.204 621.818 491.603 622.055 491.841C623.54 493.326 614.631 511.91 603.828 529.862C592.17 549.239 591.375 551.336 595.689 551.336C601.371 551.336 646.634 517.204 655.502 506.232C657.286 504.024 659.724 501.022 660.92 499.559L663.095 496.902L666.378 503.893C669.161 509.82 669.721 512.274 670.061 520.007C670.776 536.279 665.283 555.759 655.985 569.931C649.604 579.656 635.111 594.216 628.741 597.3C623.062 600.049 621.426 599.393 619.355 593.536C617.244 587.567 618.992 583.056 627.256 573.139C631.068 568.563 633.729 564.66 633.169 564.466C632.608 564.271 629.085 566.149 625.34 568.64C602.695 583.697 572.161 615.864 559.479 638.024C549.113 656.137 541.366 674.443 543.506 675.765C544.036 676.093 548.714 672.197 553.903 667.109C559.092 662.02 563.572 658.092 563.859 658.378C564.71 659.228 561.549 665.98 554.738 677.854C547.729 690.075 545.951 694.393 543.903 704.152C537.663 733.891 545.201 771.279 560.28 785.383C565.121 789.912 567.351 791.076 567.351 789.077C567.351 788.542 565.333 784.834 562.867 780.837C555.235 768.465 554.951 759.839 561.5 739.264C571.094 709.119 584.07 692.533 632.985 647.89C677.136 607.594 700.276 577.4 712.688 543.883C722.805 516.561 722.398 493.849 711.313 467.358C709.571 463.194 704.266 452.857 699.524 444.386C694.782 435.914 688.946 424.825 686.554 419.745C680.5 406.884 677.586 407.374 678.825 421.044C679.354 426.883 679.076 429.599 677.386 435.123C673.591 447.528 664.135 461.019 655.318 466.61C646.584 472.148 643.604 469.891 642.239 456.709C640.972 444.452 640.846 444.196 636.897 445.846C635.15 446.576 628.115 450.685 621.262 454.977C605.162 465.062 585.269 474.659 573.567 477.989C565.323 480.335 562.954 480.584 552.091 480.254C533.209 479.68 526.629 475.795 523.27 463.241C521.755 457.576 522.957 454.412 531.038 442.804C533.979 438.577 536.386 434.829 536.386 434.476C536.386 434.121 532.738 433.35 528.279 432.761C506.011 429.821 483.388 409.091 479.539 388.099C476.436 371.173 480.137 331.926 486.394 315.413C491.794 301.155 506.668 284.073 526.897 268.891C540.413 258.747 561.476 247.888 601.812 230.265C617.743 223.305 636.726 214.674 643.995 211.088C666.501 199.981 692.252 181.872 712.13 163.173C722.936 153.009 723.11 151.013 712.626 157.47C692.766 169.704 683.124 174.095 680.933 171.905C678.247 169.219 690.881 159.47 721.175 140.852C775.222 107.637 800.64 85.6389 835.858 41.5989C854.491 18.298 866.071 0 862.185 0C861.729 0 857.797 4.36175 853.445 9.69333C812.154 60.2824 775.12 89.1027 710.687 120.791C680.986 135.397 663.068 142.907 605.308 164.957C577.101 175.725 564.905 180.949 551.423 188.04C521.685 203.678 496.124 222.134 473.705 244.153L462.465 255.193L462.468 251.325C462.472 245.634 465.212 227.866 468.109 214.741C473.564 190.021 482.811 166.994 494.081 150.056C499.57 141.808 510.244 130.061 517.408 124.386L520.904 121.617L515.91 124.386C493.866 136.609 469.618 157.845 453.904 178.687C443.283 192.775 431.742 218.46 431.43 228.705C431.388 230.089 430.121 226.727 428.616 221.234C425.289 209.092 421.785 200.737 415.737 190.528C400.737 165.202 374.432 139.637 346.104 122.853C343.1 121.073 344.348 122.612 351.135 129.054C356.101 133.766 362.935 141.519 366.323 146.282C381.937 168.232 393.216 201.208 398.039 239.013C398.867 245.496 399.543 251.51 399.543 252.378C399.543 253.271 394.879 249.454 388.801 243.588C356.186 212.106 318.812 188.399 275.685 171.836C264.423 167.511 245.544 160.277 233.733 155.761C141.771 120.601 82.8203 86.6586 40.6285 44.5793C33.9402 37.9093 22.4253 25.1497 15.0408 16.2255C7.65524 7.30121 1.25057 0 0.807077 0C0.362585 0 0 0.840987 0 1.86775ZM228.301 185.675C226.842 188.037 244.353 199.593 259.474 206.247C264.879 208.626 281.637 215.577 296.715 221.696C336.089 237.674 349.705 244.566 362.585 255.042C374.826 264.998 384.532 274.191 393.85 284.657L400.52 292.148L400.531 279.126L400.542 266.103L388.306 255.582C349.321 222.065 308.906 199.554 270.009 189.695C254.431 185.745 229.729 183.365 228.301 185.675ZM613.007 185.948C583.939 188.933 544.423 205.262 509.417 228.753C497.13 236.998 487.94 244.126 473.885 256.314L461.472 267.078L461.483 280.612L461.494 294.146L464.23 290.657C473.505 278.83 490.483 262.41 503.99 252.201C516.459 242.777 526.486 237.951 571.846 219.54C586.679 213.519 602.482 206.878 606.964 204.783C620.592 198.412 636.001 187.761 634.679 185.623C634.044 184.595 624.846 184.733 613.007 185.948ZM373.413 442.318C370.636 444.799 370.17 445.947 369.788 451.22C369.43 456.166 369.806 458.269 371.846 462.725C375.08 469.787 380.174 475.353 386.614 478.857C391.336 481.427 392.439 481.626 399.689 481.206C404.044 480.954 408.063 480.292 408.621 479.734C409.278 479.077 409.388 473.743 408.932 464.55C408.122 448.165 408.796 449.223 395.126 442.908C385.184 438.314 378.109 438.122 373.413 442.318ZM470.16 441.901C466.973 443.212 461.916 445.768 458.923 447.582L453.481 450.88V465.092C453.481 475.002 453.841 479.528 454.67 480.039C455.323 480.443 459.28 480.972 463.462 481.214C470.135 481.6 471.678 481.343 476.071 479.118C482.274 475.975 487.895 469.871 491.167 462.725C493.207 458.269 493.582 456.166 493.225 451.22C492.843 445.947 492.377 444.799 489.6 442.318C485.448 438.61 478.528 438.461 470.16 441.901Z" fill="black"/>
<path fill-rule="evenodd" clip-rule="evenodd" d="M34 151.422C34 155.083 67.8138 202.1 91.04 230.735C118.006 263.98 157.851 303.303 192.93 331.288C198.623 335.829 202.979 337.767 202.979 335.758C202.979 335.386 199.603 331.62 195.475 327.391C173.46 304.83 177.848 279.596 203.787 279.596C209.427 279.596 211.738 280.134 216.683 282.598C223.881 286.185 232.976 295.262 232.976 298.859C232.976 304.294 225.691 305.844 215.151 302.651C206.946 300.166 204.979 300.031 204.979 301.952C204.979 306.349 229.361 323.439 249.03 332.827C274.092 344.792 302.304 352.596 298.541 346.525C298.182 345.947 294.87 344.036 291.179 342.279C284.005 338.865 274.506 330.323 271.556 324.632C268.433 318.61 268.399 312.526 271.453 305.74C272.952 302.41 273.916 299.262 273.597 298.745C273.277 298.229 271.318 297.52 269.243 297.169C267.168 296.818 263.418 295.02 260.907 293.173C256.56 289.975 252.558 284.063 253.602 282.378C257.213 276.553 297.691 303.129 316.055 323.383C326.819 335.252 329.478 345.238 324.666 355.718C319.125 367.789 308.735 369.894 288.567 363.031C276.299 358.858 263.887 353.251 256.527 348.56C251.857 345.584 247.974 344.494 247.974 346.158C247.974 346.571 250.23 350.722 252.99 355.382C260.741 368.476 261.246 372.054 256.124 377.582C250.665 383.474 240.546 383.253 224.007 376.883C195.664 365.968 162.861 344.575 130.037 315.599C118.925 305.79 115.99 303.697 115.99 305.582C115.99 308.304 127.646 322.615 147.538 344.315C190.817 391.529 225.188 417.157 268.088 434.202C285.464 441.105 301.967 445.082 301.967 442.366C301.967 441.945 299.521 440.142 296.532 438.359C289.619 434.235 281.734 425.447 277.785 417.465C275.225 412.29 274.797 410.446 275.243 406.496C275.709 402.376 276.44 401.142 280.772 397.17C289.374 389.279 297.533 388.453 306.622 394.552C313.395 399.095 316.994 404.638 317.845 411.832C318.785 419.786 319.357 420.56 322.933 418.715C327.585 416.316 341.938 405.214 349.145 398.439C354.947 392.985 355.999 391.445 356.982 386.972C357.606 384.13 357.969 378.888 357.788 375.323L357.46 368.841L354.96 372.569C351.945 377.065 349.756 377.266 345.885 373.405C340.59 368.125 342.643 359.753 350.639 354.012C356.815 349.577 358.966 345.886 358.938 339.77C358.888 328.709 353.824 322.84 323.291 298.459C281.787 265.317 262.864 253.54 222.459 235.713C177.111 215.705 144.887 205.875 123.333 205.477C110.28 205.236 109.126 207.554 121.239 209.682C138.832 212.773 193.33 245.138 199.126 255.936C200.762 258.986 197.834 260.799 192.56 260.004C167.229 256.181 120.237 229.352 83.4939 197.734C73.1992 188.877 54.3185 169.935 43.0839 157.195C36.9376 150.226 34 148.359 34 151.422ZM817.341 157.694C804.795 171.745 787.558 189.003 776.964 198.119C742.853 227.468 701.396 251.846 673.736 258.821C665.495 260.899 660.923 260.668 660.923 258.173C660.923 252.583 688.675 232.627 714.865 219.386C727.35 213.074 732.672 211.009 740.473 209.453C743.655 208.819 746.434 207.764 746.649 207.11C747.857 203.439 727.967 205.052 707.385 210.295C685.499 215.871 652.75 228.611 620.185 244.221C591.091 258.165 574.177 269.28 537.2 298.754C512.148 318.721 508.089 322.598 504.338 330.145C499.454 339.97 501.271 347.555 510.017 353.835C518.117 359.653 520.288 368.148 515.018 373.405C511.064 377.348 508.65 377.133 505.791 372.581L503.442 368.841L503.138 376.32C502.673 387.747 504.043 391.188 512.066 398.735C519.282 405.524 536.184 418.469 539.22 419.533C541.28 420.255 542.937 416.949 542.937 412.121C542.937 404.798 549.018 396.636 557.436 392.66C563.541 389.778 567.069 389.708 572.934 392.355C580.74 395.879 585.932 402.147 585.932 408.046C585.932 412.231 579.622 424.201 574.308 430.095C571.802 432.875 567.317 436.601 564.344 438.375C561.369 440.15 558.935 441.945 558.935 442.366C558.935 443.751 565.354 443.163 572.849 441.091C599.594 433.7 635.841 414.539 660.423 394.798C681.1 378.193 706.415 353.04 729.703 325.964C750.659 301.599 749.729 298.304 727.57 318.397C704.659 339.173 676.168 358.565 650.424 370.905C636.255 377.697 627.453 380.723 618.685 381.815C607.54 383.204 599.174 376.053 601.812 367.393C602.405 365.448 605.149 360.042 607.909 355.382C610.67 350.722 612.929 346.522 612.929 346.05C612.929 344.543 608.642 346.194 600.425 350.869C586.457 358.814 562.035 367.371 553.456 367.324C541.389 367.258 532.992 356.759 534.218 343.268C534.859 336.218 537.779 330.896 545.663 322.403C561.379 305.474 595.599 281.61 604.18 281.595C606.438 281.591 606.929 282.03 606.929 284.05C606.929 288.559 596.101 297.534 590.65 297.541C586.838 297.546 586.386 299.562 589.05 304.677C591.981 310.307 592.162 318.471 589.477 323.969C586.472 330.124 576.546 339.274 569.341 342.531C565.899 344.088 562.773 345.86 562.396 346.469C558.304 353.07 590.647 343.557 616.97 330.418C638.221 319.81 662.317 300.536 654.329 300.536C653.452 300.536 649.592 301.488 645.752 302.651C637.752 305.074 631.709 304.751 628.688 301.738C626.893 299.948 626.858 299.572 628.247 296.895C630.542 292.47 639.33 284.766 645.188 282.047C655.469 277.272 669.132 279.304 675.213 286.511C678.658 290.593 679.235 293 678.763 301.317C678.235 310.639 674.488 317.869 665.111 327.657C660.994 331.955 657.922 335.769 658.286 336.132C659.707 337.549 666.095 333.105 682.414 319.348C711.359 294.947 745.176 260.716 769.092 231.609C790.548 205.497 826.902 155.091 826.902 151.454C826.902 148.338 824.005 150.229 817.341 157.694Z" fill="black"/>
</svg>
