<svg width="865" height="792" viewBox="0 0 865 792" fill="none" xmlns="http://www.w3.org/2000/svg">
<path d="M400.543 296.427C403.755 253.04 396.207 156.986 340.313 119.87C367.618 133.617 424.515 177.606 431.261 233.279C438.006 177.606 495.506 134.905 522.81 121.159C466.917 158.275 458.766 254.329 461.978 297.716L451.739 349.266C445.314 347.118 431.261 338.956 431.261 328.646C431.261 338.956 418.411 345.829 411.987 347.977L400.543 296.427Z" fill="white"/>
<path d="M431.261 328.646C431.261 338.956 418.411 345.829 411.987 347.977C407.972 430.995 406.205 613 431.261 676.878C456.316 613 455.754 432.283 451.739 349.266C445.314 347.118 431.261 338.956 431.261 328.646Z" fill="white"/>
<path fill-rule="evenodd" clip-rule="evenodd" d="M720.652 154.522C720.475 153.483 716.045 155.742 707.271 161.591C694.615 170.029 681.791 175.094 680.975 172.089C680.956 172.001 680.946 171.908 680.946 171.808C680.946 167.496 693.292 158.139 720.687 141.691C761.752 117.038 787.27 97.0818 813.271 69.2917C833.539 47.6273 864.012 6.9161 864.012 1.5C864.012 1.05868 863.995 0.693681 863.928 0.439912C863.528 -1.29847 861.066 1.58665 847.146 18.7256C800.166 76.5663 737.2 115.861 621.981 159.239C592.116 170.482 566.983 180.21 566.13 180.856C565.277 181.502 556.266 186.26 546.104 191.43C514.493 207.511 471.441 242.792 456.228 265.077C453.533 269.029 451.797 272.709 452.092 273.745C452.117 273.865 452.166 273.954 452.24 274.011C452.991 274.577 463.736 266.001 476.126 254.95C518.2 217.42 574.56 189.459 615.495 185.805C626.069 184.86 635.297 184.794 636.001 185.661C636.045 185.715 636.076 185.775 636.096 185.84C636.55 188.111 624.069 197.049 611.121 203.625C606.001 206.224 585.057 214.976 564.579 223.074C544.1 231.171 521.661 241.291 514.71 245.56C495.637 257.283 467.929 284.143 458.822 299.74C450.448 314.073 439.101 348.603 438.983 360.097C438.946 363.692 436.659 370.565 433.904 375.371L428.892 384.107L429.814 414.653L429.825 414.663L429.826 414.7L435.634 419.973C438.84 422.883 441.355 428.232 442.79 434.031C444.584 441.318 444.674 449.308 442.287 454.06C441.052 456.521 440.669 458.287 440.936 459.311C441.454 461.51 444.852 460.442 449.256 455.682C456.19 448.181 473.504 439.372 481.308 439.372C488.228 439.372 492.619 443.212 494.02 448.846C495.456 454.699 493.677 462.476 488.169 469.897C480.219 480.605 469.989 484.759 459.204 481.655C449.923 478.984 449.688 479.242 445.399 496.811C442.424 509.01 442.424 521.117 445.381 533.034C447.52 541.675 451.214 550.216 456.457 558.62C467.205 575.85 473.201 580.314 470.517 569.494C470.344 568.793 470.134 568.027 469.887 567.197C469.795 566.888 469.709 566.572 469.628 566.248C465.986 551.459 474.149 521.612 482.108 521.612C488.537 521.612 504.653 537.771 508.817 548.392C509.757 550.789 510.537 553.248 511.16 555.759C517.713 582.293 506.68 614.662 481.169 642.303C473.255 650.879 467.277 658.34 467.617 659.196C467.62 659.222 467.627 659.244 467.637 659.262C467.645 659.276 467.655 659.287 467.668 659.296C468.356 659.82 480.045 652.419 493.644 642.853C527.896 618.757 545.949 597.637 556.874 568.886C565.396 546.461 569.664 530.438 568.535 525.987C568.249 524.8 567.594 524.405 566.549 524.895C564.613 525.799 563.027 528.715 563.027 531.37C563.027 537.628 551.739 552.8 544.556 556.198C539.511 558.582 538.577 557.422 535.006 544.315C532.827 536.326 527.773 524.808 523.773 518.717L516.532 507.694L536.078 509.077C559.933 510.764 588.982 504.899 622.517 491.623C622.943 491.454 623.198 491.574 623.299 491.945C624.032 495.193 614.265 515.611 603.469 532.726C596.474 543.814 593.73 549.087 594.257 551.095C594.431 551.845 595.041 552.159 596.04 552.159C602.262 552.159 651.125 514.739 658.041 504.68L663.362 496.94L667.858 505.164C668.771 506.833 669.496 508.799 670.041 511C673.405 524.687 669.803 547.396 660.992 564.008C650.964 582.914 627.013 604.548 622.133 599.106C620.871 597.699 620.003 595.918 619.519 593.965C618.315 589.038 619.548 583.022 623.069 579.117C630.968 570.354 634.786 565.704 634.48 564.798C634.314 563.798 630.254 566.34 622.26 572.084C605.045 584.453 585.603 603.77 569.664 624.342C559.561 637.378 542.44 671.907 543.596 676.205C543.669 676.525 543.832 676.694 544.096 676.694C545.53 676.694 550.482 672.368 555.102 667.079C561.204 660.096 564.422 657.552 564.826 659.042C565.278 661.094 560.944 670.002 551.981 684.87C541.403 702.414 539.992 732.826 545.883 756.84C549.118 770.053 554.563 781.335 561.906 787.48C566.417 791.255 568.415 792.004 567.875 789.87C567.52 788.39 565.891 785.462 562.981 781.138C560.58 777.573 558.922 774.157 558.006 770.461C555.984 762.236 557.633 752.615 562.952 736.868C571.708 710.943 587.421 690.064 620.044 661.002C673.902 613.023 697.077 584.651 711.831 548.634C721.049 526.13 723.276 506.596 718.07 485.685C715.067 473.598 709.58 461.051 701.524 447.206C694.115 434.47 687.121 421.143 685.986 417.59C682.759 407.503 677.474 409.78 679.696 420.302C680.928 426.148 679.811 433.625 676.609 440.925C666.305 464.421 646.854 477.874 643.653 465.072C643.451 464.25 643.315 463.322 643.253 462.282C642.828 455.195 642.204 450.456 641.068 445.653C641.067 445.648 641.066 445.643 641.064 445.638L641.057 445.606C640.805 444.537 633.188 448.456 624.128 454.316C596.572 472.143 573.235 481.625 557.005 481.585C536.886 481.535 527.931 477.419 524.375 466.579C524.047 465.577 523.771 464.657 523.556 463.794C522.116 457.966 523.43 454.714 529.442 446.177L537.469 434.779L537.428 434.773L537.457 434.731L526.364 433.157C506.129 430.282 484.953 410.106 480.224 390.993C479.597 388.444 479.263 385.914 479.263 383.447L479.252 383.25C478.365 367.358 479.085 331.604 488.702 311.16C488.96 310.611 489.225 310.073 489.496 309.547C495.662 297.097 509.832 281.764 528.936 267.843C545.52 255.756 558.198 249.52 626.743 219.737C657.187 206.51 679.748 192.332 704.363 170.957C715.54 161.252 721.019 155.618 720.652 154.522ZM749.175 206.847C749.339 207.723 746.678 208.847 740.558 209.774C722.068 212.575 662.317 249.6 662.317 258.256C662.317 258.446 662.339 258.624 662.384 258.792C663.328 262.779 676.363 260.55 693.106 253.432C732.099 236.852 777.412 203.97 808.031 170.036C809.599 168.298 811.034 166.705 812.349 165.246L812.35 165.245C824.478 151.788 826.367 149.692 827.418 150.051C827.612 150.117 827.778 150.267 827.974 150.445C828.088 150.548 828.213 150.661 828.36 150.773C828.384 150.79 828.403 150.813 828.418 150.841C828.427 150.857 828.435 150.876 828.441 150.896C829.264 155.288 777.702 225.368 756.401 248.653C720.467 287.937 710.566 297.433 670.794 330.754C665.712 335.012 660.791 337.914 659.857 337.206C659.76 337.134 659.696 337.037 659.662 336.919C659.44 335.86 661.442 333.253 664.538 330.688C677.253 320.159 683.322 304.447 680.574 293.429C679.656 289.708 677.735 286.521 674.728 284.244C664.449 276.459 649.239 277.998 637.647 287.996C632.257 292.644 628.289 298.185 628.828 300.306L628.833 300.326L628.84 300.353C630.131 305.424 639.588 306.646 648.77 302.924C654.517 300.595 657.478 300.181 657.813 301.379C658.223 303.279 652.455 308.964 641.091 317.332C623.395 330.364 593.09 343.793 570.009 348.828C565.744 349.759 563.515 349.42 563.243 348.464L563.243 348.462C562.997 347.301 565.517 345.282 570.669 343.504C574.867 342.056 582.006 336.631 586.533 331.45C592.629 324.477 594.708 317.784 592.873 310.431C592.238 307.865 591.125 305.22 589.541 302.454C589.157 301.785 588.901 301.202 588.773 300.703C588.39 299.12 589.327 298.389 591.644 298.389C598.088 298.389 610.273 287.767 609.095 283.193C609.089 283.168 609.083 283.143 609.076 283.118C606.702 274.375 560.08 306.115 541.633 329.027C535.645 336.467 534.148 345.134 535.949 352.416C538.433 362.54 547.287 370.001 559.315 367.793C572.127 365.441 593.45 357.221 603.72 350.677C608.793 347.444 613.537 345.247 614.26 345.795C614.301 345.826 614.331 345.873 614.35 345.936C614.573 347.072 611.907 352.211 608.083 357.931C603.653 364.558 601.934 369.754 602.959 373.835C603.744 377.036 606.209 379.554 610.369 381.541C627.447 389.699 687.76 357.381 732.657 316.012C741.726 307.656 746.266 304.43 746.622 305.593C746.971 307.386 739.068 317.827 723.868 334.861C671.815 393.191 635.227 420.384 584.098 438.756C570.627 443.597 561.114 445.149 560.613 443.483C560.449 442.63 562.496 440.991 567.364 438.576C576.105 434.24 587.861 416.897 587.861 408.344C587.861 407.509 587.752 406.667 587.543 405.826C585.978 399.414 578.622 393.099 569.987 391.196C559.36 388.856 544.41 401.088 544.41 412.122C544.41 416.744 543.312 420.527 541.965 420.527C538.447 420.527 511.632 399.147 507.536 393.073C506.725 391.87 505.992 389.931 505.427 387.671C504.673 384.637 504.221 381.031 504.281 377.847C504.452 369.052 504.87 368.444 507.415 373.261C509.844 377.854 511.154 378.312 514.976 375.911C519.264 373.216 520.402 368.649 519.309 364.256C518.274 360.033 515.175 355.962 510.83 353.861C510.89 353.905 510.951 353.948 511.012 353.991C515.251 356.108 518.276 360.105 519.309 364.256C520.382 368.635 519.237 373.178 514.965 375.864C511.142 378.265 509.833 377.807 507.403 373.214C504.859 368.397 504.44 369.005 504.269 377.8C504.209 381 504.666 384.627 505.427 387.671C505.994 389.951 506.731 391.909 507.548 393.12C511.644 399.194 538.458 420.574 541.977 420.574C543.324 420.574 544.422 416.791 544.422 412.17C544.422 401.135 559.371 388.903 569.998 391.243C578.612 393.141 585.953 399.43 587.543 405.826C587.744 406.651 587.85 407.478 587.85 408.297C587.85 416.85 576.093 434.193 567.353 438.528C562.393 440.989 560.361 442.644 560.613 443.483C560.949 445.225 570.514 443.689 584.11 438.804C635.238 420.431 671.827 393.238 723.879 334.908C739.219 317.718 747.127 307.243 746.622 305.593C746.37 304.301 741.831 307.501 732.646 315.965C687.748 357.334 627.435 389.652 610.357 381.494C606.218 379.517 603.757 377.014 602.959 373.835C601.959 369.761 603.681 364.579 608.095 357.978C611.975 352.175 614.662 346.969 614.35 345.936C614.342 345.896 614.331 345.861 614.316 345.831C614.31 345.819 614.304 345.809 614.297 345.799C614.283 345.779 614.267 345.761 614.248 345.748C613.525 345.2 608.781 347.397 603.708 350.63C593.438 357.174 572.115 365.394 559.304 367.746C547.294 369.951 538.448 362.516 535.949 352.416C534.166 345.144 535.669 336.498 541.645 329.074C560.091 306.162 606.714 274.422 609.088 283.165L609.095 283.193C610.179 287.792 598.054 298.342 591.632 298.342C589.293 298.342 588.36 299.088 588.773 300.703C588.897 301.213 589.157 301.811 589.552 302.501C591.128 305.25 592.236 307.88 592.873 310.431C594.688 317.765 592.604 324.445 586.522 331.403C581.995 336.584 574.855 342.009 570.657 343.457C565.435 345.259 562.917 347.309 563.243 348.462C563.452 349.456 565.684 349.822 570.02 348.875C593.102 343.84 623.407 330.411 641.103 317.38C652.562 308.941 658.332 303.231 657.813 301.379C657.542 300.124 654.58 300.518 648.758 302.877C639.589 306.594 630.143 305.38 628.833 300.326C628.335 298.184 632.292 292.671 637.658 288.043C649.25 278.045 664.46 276.506 674.74 284.291C677.734 286.558 679.651 289.729 680.574 293.429C683.293 304.444 677.223 320.127 664.526 330.641C661.384 333.245 659.367 335.892 659.662 336.919C659.692 337.059 659.759 337.171 659.868 337.254C660.802 337.961 665.723 335.059 670.806 330.801C710.578 297.48 720.479 287.985 756.412 248.7C777.794 225.327 829.67 154.8 828.441 150.896C828.427 150.819 828.396 150.762 828.349 150.726C828.202 150.614 828.077 150.501 827.962 150.397C827.766 150.22 827.601 150.07 827.407 150.004C826.356 149.645 824.467 151.741 812.342 165.194L812.341 165.196L812.34 165.197L812.277 165.266L810.596 167.131C809.78 168.037 808.921 168.989 808.019 169.989C777.401 203.923 732.087 236.805 693.094 253.385C676.417 260.475 663.419 262.714 662.384 258.792C662.347 258.638 662.329 258.475 662.329 258.303C662.329 249.647 722.08 212.622 740.569 209.821C746.799 208.877 749.445 207.729 749.175 206.847Z" fill="white"/>
<path fill-rule="evenodd" clip-rule="evenodd" d="M0 1.45284C0 6.86894 30.4727 47.5801 50.7403 69.2445C76.7419 97.0346 102.259 116.991 143.325 141.644C170.72 158.092 183.066 167.449 183.066 171.76C183.066 175.428 169.808 170.311 156.729 161.591C137.811 148.98 139.087 153.057 159.649 170.91C184.264 192.285 206.824 206.463 237.269 219.69C305.813 249.473 318.491 255.709 335.076 267.796C354.18 281.717 368.35 297.05 374.516 309.5C384.928 329.705 385.676 367.185 384.749 383.4C384.749 404.378 360.587 429.896 337.636 433.157L326.543 434.731L334.57 446.13C341.486 455.952 342.184 458.778 339.625 466.579C336.069 477.419 327.114 481.535 306.995 481.585C290.765 481.625 267.428 472.143 239.872 454.316C230.812 448.456 223.195 444.537 222.943 445.606C221.808 450.409 221.184 455.148 220.759 462.235C219.716 479.583 198.366 465.95 187.391 440.925C184.189 433.625 183.072 426.148 184.304 420.302C186.526 409.78 181.242 407.503 178.015 417.59C176.879 421.143 169.885 434.47 162.476 447.206C140.495 484.982 137.641 513.09 152.181 548.587C166.934 584.603 190.109 612.976 243.968 660.955C276.591 690.016 292.304 710.896 301.06 736.82C308.78 759.678 308.77 769.627 301.019 781.138C294.032 791.519 294.432 793.853 302.105 787.433C322.792 770.123 328.408 712.052 312.019 684.87C296.114 658.485 294.786 650.87 308.91 667.031C313.53 672.321 318.482 676.646 319.916 676.646C323.893 676.646 305.118 638.254 294.336 624.342C278.397 603.77 258.955 584.453 241.74 572.084C225.655 560.526 225.497 561.933 240.943 579.07C245.873 584.537 246.317 594.143 241.867 599.106C236.987 604.548 213.036 582.914 203.008 564.008C192.768 544.703 189.563 517.162 196.154 505.117L200.65 496.893L205.971 504.633C212.887 514.692 261.75 552.111 267.971 552.111C271.688 552.111 270.022 547.771 260.531 532.726C248.377 513.458 237.526 490.004 241.495 491.576C275.03 504.852 304.079 510.716 327.933 509.029L347.5 507.645L340.227 518.717C336.227 524.808 331.173 536.326 328.994 544.315C325.423 557.422 324.489 558.582 319.444 556.198C312.261 552.8 300.973 537.628 300.973 531.37C300.973 528.715 299.387 525.799 297.451 524.895C292.428 522.542 296.415 540.624 307.138 568.839C318.063 597.59 336.115 618.709 370.367 642.806C383.967 652.371 395.655 659.773 396.344 659.249C397.033 658.727 390.951 651.103 382.831 642.303C354.89 612.029 344.316 576.083 355.195 548.345C359.358 537.724 375.474 521.565 381.903 521.565C390.045 521.565 398.401 552.8 394.113 567.197C390.067 580.783 396.124 576.899 407.554 558.573C420.018 538.593 423.729 517.838 418.6 496.811C414.312 479.242 414.077 478.984 404.796 481.655C394.011 484.759 383.781 480.605 375.831 469.897C364.996 455.298 368.589 439.325 382.704 439.325C390.508 439.325 407.821 448.134 414.756 455.634C421.225 462.627 425.523 461.652 421.713 454.06C417.421 445.514 421.135 426.5 428.377 419.926L434.186 414.653L435.108 384.107L430.096 375.371C427.341 370.565 425.054 363.692 425.017 360.097C424.899 348.603 413.552 314.073 405.178 299.74C396.071 284.143 368.363 257.283 349.29 245.56C342.34 241.291 319.9 231.171 299.421 223.074C278.943 214.976 257.999 206.224 252.879 203.625C239.447 196.804 226.518 187.44 228.01 185.614C228.715 184.747 237.942 184.813 248.517 185.758C289.452 189.411 345.812 217.373 387.886 254.903C400.275 265.954 411.02 274.53 411.771 273.964C412.519 273.395 410.719 269.398 407.772 265.077C392.559 242.792 349.507 207.511 317.896 191.43C307.734 186.26 298.723 181.502 297.87 180.856C297.017 180.21 271.884 170.482 242.019 159.239C126.8 115.861 63.8342 76.5663 16.8545 18.7256C0.924651 -0.887487 0 -1.83442 0 1.45284Z" fill="white"/>
<path d="M662.315 258.257C662.315 249.601 722.066 212.576 740.556 209.775C746.676 208.848 749.337 207.724 749.173 206.848C748.821 205.701 743.545 205.002 734.812 205.779C715.239 207.522 690.758 214.708 658.954 228.045C604.131 251.032 583.357 263.265 541.479 297.216C533.486 303.695 526.734 309.11 521.01 313.575C520.493 313.978 519.984 314.374 519.484 314.762C508.714 323.435 493.94 341.608 510.829 353.862C515.173 355.964 518.272 360.034 519.307 364.258C520.4 368.651 519.262 373.217 514.974 375.912C511.152 378.314 509.842 377.856 507.413 373.262C504.868 368.445 504.45 369.053 504.279 377.848C504.219 381.032 504.671 384.638 505.425 387.672C505.99 389.933 506.723 391.871 507.534 393.075C511.63 399.149 538.445 420.529 541.963 420.529C543.31 420.529 544.408 416.746 544.408 412.124C544.408 401.089 559.358 388.857 569.985 391.197C578.62 393.1 585.976 399.415 587.541 405.827C587.75 406.668 587.859 407.511 587.859 408.346C587.859 416.898 576.103 434.242 567.362 438.577C562.494 440.993 560.447 442.631 560.611 443.484C561.112 445.15 570.625 443.598 584.096 438.758C635.225 420.385 671.813 393.192 723.866 334.863C739.066 317.829 746.969 307.388 746.62 305.594C746.264 304.431 741.724 307.657 732.655 316.013C687.758 357.382 627.445 389.7 610.367 381.542C606.207 379.555 603.742 377.037 602.957 373.836C601.932 369.755 603.651 364.559 608.081 357.932C611.905 352.213 614.571 347.073 614.348 345.937C614.329 345.875 614.299 345.827 614.258 345.796C613.535 345.248 608.791 347.446 603.718 350.679C593.448 357.223 572.125 365.442 559.314 367.794C547.285 370.003 538.431 362.541 535.948 352.417C534.146 345.135 535.643 336.468 541.631 329.028C560.078 306.116 606.701 274.376 609.074 283.12C609.081 283.144 609.087 283.169 609.093 283.194C610.272 287.768 598.086 298.39 591.642 298.39C589.325 298.39 588.388 299.122 588.771 300.704C588.899 301.204 589.156 301.786 589.539 302.455C591.124 305.221 592.236 307.867 592.871 310.432C594.707 317.785 592.627 324.478 586.531 331.451C582.004 336.632 574.865 342.058 570.667 343.505C565.515 345.283 562.995 347.302 563.241 348.464L563.241 348.465C563.513 349.421 565.742 349.76 570.007 348.829C593.089 343.794 623.394 330.365 641.089 317.334C652.453 308.966 658.221 303.281 657.811 301.38C657.476 300.183 654.515 300.596 648.768 302.925C639.586 306.647 630.129 305.426 628.838 300.355L628.832 300.327L628.827 300.308C628.287 298.186 632.255 292.645 637.645 287.998C649.237 278 664.447 276.46 674.727 284.245C677.733 286.522 679.654 289.71 680.572 293.43C683.32 304.448 677.251 320.16 664.536 330.69C661.441 333.254 659.438 335.861 659.66 336.921C659.694 337.038 659.758 337.135 659.855 337.208C660.789 337.915 665.71 335.013 670.792 330.755C710.564 297.434 720.465 287.939 756.399 248.654C777.7 225.37 829.263 155.289 828.44 150.897C828.433 150.877 828.425 150.859 828.416 150.842C828.401 150.815 828.382 150.792 828.358 150.774C828.211 150.663 828.086 150.55 827.972 150.446C827.776 150.268 827.611 150.119 827.417 150.052C826.365 149.693 824.476 151.79 812.348 165.246L812.348 165.247C811.032 166.707 809.597 168.299 808.029 170.037C777.41 203.972 732.097 236.854 693.104 253.433C676.361 260.551 663.326 262.781 662.382 258.793C662.338 258.626 662.315 258.447 662.315 258.257Z" fill="#4200FF"/>
<path d="M322.529 297.169C280.651 263.217 259.877 250.985 205.054 227.997C173.25 214.66 148.769 207.475 129.196 205.732C113.741 204.357 109.115 207.604 123.44 209.775C141.93 212.576 201.681 249.601 201.681 258.257C201.681 262.898 188.292 260.778 170.904 253.386C131.911 236.807 86.5976 203.925 55.9791 169.99C39.9514 152.226 37.7564 149.607 36.5913 150.005C36.284 150.11 36.0483 150.425 35.6494 150.727C32.9065 152.804 85.9212 224.959 107.597 248.654C143.531 287.939 153.432 297.434 193.204 330.755C198.287 335.013 203.208 337.915 204.141 337.208C205.079 336.5 202.975 333.545 199.472 330.643C182.487 316.577 177.361 293.263 189.27 284.245C199.549 276.46 214.759 278 226.351 287.998C231.741 292.645 235.71 298.186 235.17 300.308C233.879 305.378 224.421 306.6 215.24 302.878C200.598 296.945 204.042 303.442 222.907 317.334C240.603 330.365 270.908 343.794 293.99 348.829C303.397 350.883 302.898 346.757 293.341 343.458C289.143 342.011 282.003 336.585 277.476 331.404C269.266 322.012 268.342 313.128 274.457 302.455C276.08 299.622 275.429 298.343 272.366 298.343C265.909 298.343 253.687 287.678 254.922 283.12C257.296 274.376 303.919 306.116 322.365 329.028C336.66 346.788 325.362 371.542 304.694 367.747C291.883 365.395 270.56 357.176 260.29 350.632C255.217 347.398 250.473 345.201 249.75 345.749C249.027 346.296 251.801 351.778 255.915 357.932C263.796 369.721 263.095 376.979 253.641 381.495C236.563 389.653 176.25 357.335 131.353 315.966C109.425 295.761 113.974 305.55 140.13 334.863C192.183 393.192 228.772 420.385 279.9 438.758C300.152 446.035 311.458 445.88 296.646 438.53C287.905 434.195 276.148 416.851 276.148 408.298C276.148 401.113 284.265 393.345 294.011 391.197C304.638 388.857 319.588 401.089 319.588 412.124C319.588 416.746 320.686 420.529 322.033 420.529C325.551 420.529 352.366 399.149 356.462 393.075C358.367 390.25 359.834 383.377 359.729 377.801C359.558 369.006 359.139 368.398 356.595 373.215C354.166 377.809 352.856 378.267 349.034 375.865C340.693 370.623 344.273 358.301 352.998 353.946C370.173 341.69 355.332 323.418 344.524 314.715C344.024 314.327 343.515 313.931 342.998 313.528C337.274 309.063 330.521 303.648 322.529 297.169Z" fill="#4200FF"/>
</svg>
