<svg width="635" height="595" viewBox="0 0 635 595" fill="none" xmlns="http://www.w3.org/2000/svg">
<path d="M3.8147e-05 86.7812H634.549M0.000106812 171.156H634.549M0.000106812 255.531H634.549M0.000106812 339.906H634.549M0.843788 424.281H634.549M91.125 1.5625L90.3217 593.594M181.688 1.5625L180.884 592.469M272.25 1.5625L271.447 591.344M362.813 1.5625L362.009 590.219M453.375 1.5625V593.594M543.938 1.5625V592.469M634.549 86.7812V1.5625L0.554436 1V508.938M634.549 86.7812V171.156M634.549 171.156V255.531M634.549 255.531V339.906M634.549 339.906V424.281M634.549 424.281V508.938M634.549 508.938V593.594L0.554436 594.156V508.938M634.549 508.938H0.554436" stroke="white" stroke-width="0.5625"/>
</svg>
