<svg width="657" height="502" viewBox="0 0 657 502" fill="none" xmlns="http://www.w3.org/2000/svg">
<path d="M313.64 208.258C315.17 187.399 311.576 141.22 284.965 123.377C297.964 129.985 325.053 151.133 328.265 177.899C331.477 151.133 358.852 130.605 371.852 123.996C345.241 141.84 341.36 188.019 342.89 208.877L338.015 233.66C339.927 273.572 340.194 360.453 328.265 391.163C316.336 360.453 317.177 272.952 319.089 233.041L313.64 208.258Z" fill="white"/>
<path d="M482.682 100.724C474.942 120.264 470.878 127.473 457.666 145.093C446.219 160.36 437.21 170.175 425.912 179.69C408.299 194.52 392.738 201.35 388.421 196.145C386.653 194.014 389.141 189.157 395.795 181.752C402.71 174.055 396.15 178.114 370.981 197.103C365.365 201.34 355.358 208.448 348.743 212.899C342.127 217.351 335.303 222.005 333.577 223.241L330.439 225.489L333.577 226.171C343.479 228.323 368.768 226.142 375.675 222.54C379.732 220.425 380.16 219.413 376.392 220.847C369.429 223.496 364.283 220.978 366.099 215.811C368.204 209.821 386.106 203.472 393.237 206.186C401.653 209.387 387.852 225.909 368.857 235.372C365.56 237.015 361.512 238.674 359.863 239.06C358.213 239.447 357.118 240.017 357.43 240.329C357.742 240.641 361.725 239.953 366.281 238.8C389.845 232.837 430.114 201.789 445.723 177.547C448.374 173.43 451.794 168.177 453.324 165.875C458.913 157.463 474.975 126.406 478.068 118.031C480.917 110.317 484.572 98.3688 484.083 98.3688C483.825 98.3688 483.195 99.4279 482.682 100.724Z" fill="white"/>
<path d="M422.777 228.147C424.383 238.243 423.614 253.41 421.08 261.639C418.933 268.606 417.921 270.203 412.071 275.854C405.775 281.934 398.66 286.285 394.215 286.772C386.422 287.626 384.447 286.854 377.264 280.152C373.37 276.518 367.156 271.244 363.456 268.431C352.831 260.352 337.422 244.316 331.536 235.212C330.513 233.629 329.336 232.334 328.92 232.334C328.06 232.334 331.624 251.591 335.508 267.918C339.818 286.041 348.045 306.886 351.804 309.212C352.324 309.533 351.385 306.252 349.719 301.921C346.427 293.367 345.523 284.667 347.66 282.091C350.787 278.32 361.588 281.503 366.834 287.742C371.978 293.859 374.274 301.871 374.2 313.445C374.111 327.534 371.507 336.538 361.336 357.926C342.893 396.704 341.349 400.774 341.494 410.214C341.607 417.477 343.348 420.505 343.44 413.598C343.567 403.926 345.256 399.891 354.032 388.277C378.482 355.924 385.996 340.867 389.903 316.405C391.952 303.568 395.709 295.472 402.675 288.88C412.001 280.053 417.487 282.122 417.913 294.628C418.265 304.977 415.628 312.397 407.652 323.507C405.597 326.369 404.185 328.978 404.512 329.306C405.348 330.143 417.529 311.467 420.565 304.695C430.383 282.786 431.944 253.683 424.515 231.026C422.526 224.959 422.178 224.382 422.777 228.147Z" fill="white"/>
<path d="M352.085 101.785C345.398 109.848 330.706 160.555 331.089 174.247L331.176 177.387L331.982 173.99C332.425 172.121 335.436 165.403 338.674 159.059L344.559 147.526V137.296C344.559 125.836 346.032 118.999 350.78 108.422C353.93 101.406 354.406 98.9863 352.085 101.785Z" fill="white"/>
<path d="M173.08 100.724C180.82 120.264 184.884 127.473 198.096 145.093C209.543 160.36 218.552 170.175 229.85 179.69C247.463 194.52 263.024 201.35 267.341 196.145C269.109 194.013 266.621 189.157 259.967 181.752C253.052 174.055 259.612 178.114 284.781 197.103C290.397 201.34 300.404 208.448 307.019 212.899C313.635 217.351 320.46 222.005 322.185 223.241L325.323 225.489L322.185 226.171C312.284 228.323 286.994 226.142 280.087 222.54C276.03 220.424 275.602 219.413 279.371 220.847C286.333 223.496 291.479 220.978 289.663 215.811C287.558 209.821 269.656 203.472 262.525 206.185C254.109 209.387 267.91 225.909 286.905 235.372C290.202 237.015 294.25 238.674 295.899 239.06C297.549 239.447 298.644 240.017 298.332 240.329C298.02 240.641 294.037 239.953 289.481 238.8C265.917 232.837 225.648 201.789 210.04 177.547C207.388 173.43 203.968 168.177 202.438 165.875C196.85 157.463 180.787 126.406 177.695 118.031C174.845 110.317 171.19 98.3688 171.679 98.3688C171.937 98.3688 172.567 99.4279 173.08 100.724Z" fill="white"/>
<path d="M232.985 228.147C231.38 238.243 232.148 253.41 234.683 261.639C236.829 268.606 237.841 270.203 243.691 275.854C249.988 281.934 257.102 286.285 261.547 286.772C269.34 287.626 271.315 286.854 278.498 280.152C282.392 276.518 288.606 271.244 292.307 268.431C302.931 260.352 318.34 244.316 324.226 235.212C325.249 233.629 326.427 232.334 326.842 232.334C327.703 232.334 324.138 251.591 320.255 267.918C315.944 286.041 307.717 306.886 303.958 309.212C303.438 309.533 304.377 306.252 306.044 301.921C309.335 293.367 310.239 284.667 308.102 282.091C304.975 278.32 294.175 281.503 288.928 287.742C283.784 293.859 281.489 301.871 281.562 313.445C281.651 327.534 284.255 336.538 294.427 357.926C312.869 396.704 314.413 400.774 314.268 410.214C314.155 417.477 312.414 420.505 312.322 413.598C312.195 403.926 310.507 399.891 301.73 388.277C277.28 355.924 269.766 340.867 265.859 316.405C263.81 303.568 260.053 295.472 253.088 288.88C243.761 280.053 238.275 282.122 237.85 294.628C237.497 304.977 240.134 312.397 248.11 323.507C250.165 326.369 251.577 328.978 251.25 329.306C250.414 330.143 238.233 311.467 235.197 304.695C225.379 282.786 223.819 253.683 231.247 231.026C233.236 224.959 233.584 224.382 232.985 228.147Z" fill="white"/>
<path d="M303.677 101.785C310.364 109.848 325.056 160.555 324.674 174.247L324.586 177.387L323.78 173.99C323.337 172.121 320.326 165.403 317.089 159.059L311.203 147.526V137.296C311.203 125.836 309.73 118.999 304.982 108.422C301.832 101.406 301.356 98.9863 303.677 101.785Z" fill="white"/>
<path d="M449.85 183.713C439.552 194.262 431.789 203.163 429.996 206.477C427.536 211.026 427.451 211.407 429.473 208.801C438.073 197.724 444.794 196.867 441.825 207.225C440.301 212.545 440.606 224.035 442.353 227.094C444.179 230.29 444.275 229.424 442.762 223.411C440.977 216.322 443.079 209.172 448.659 203.345C452.226 199.618 453.725 198.745 456.084 199.017C465.427 200.096 462.182 221.144 450.73 233.75C446.327 238.597 446.042 239.559 449.912 236.513C453.653 233.568 458.968 226.022 462.844 218.152C467.11 209.493 474.299 200.595 478.732 198.491C485.841 195.115 501.863 196.992 513.234 202.533L518.705 205.199L515.567 202.543C511.099 198.763 498.73 192.94 492.398 191.638C489.434 191.028 483.08 190.236 478.278 189.88C467.696 189.092 463.223 187.831 461.306 185.092C459.33 182.271 460.69 176.676 464.751 170.91C466.502 168.424 467.67 166.391 467.347 166.391C467.024 166.391 459.15 174.186 449.85 183.713Z" fill="white"/>
<path d="M205.913 183.713C216.211 194.262 223.974 203.163 225.766 206.477C228.226 211.026 228.312 211.407 226.289 208.801C217.69 197.724 210.969 196.867 213.938 207.225C215.462 212.545 215.157 224.035 213.41 227.094C211.584 230.29 211.487 229.424 213.001 223.411C214.785 216.322 212.684 209.172 207.104 203.345C203.536 199.618 202.038 198.745 199.679 199.017C190.336 200.096 193.58 221.144 205.033 233.75C209.435 238.597 209.721 239.559 205.851 236.513C202.11 233.568 196.794 226.022 192.918 218.152C188.653 209.493 181.463 200.595 177.031 198.491C169.921 195.115 153.9 196.992 142.529 202.533L137.058 205.199L140.195 202.543C144.664 198.763 157.033 192.94 163.365 191.638C166.329 191.028 172.683 190.236 177.485 189.88C188.066 189.092 192.54 187.831 194.457 185.092C196.432 182.271 195.073 176.676 191.011 170.91C189.261 168.424 188.092 166.391 188.415 166.391C188.739 166.391 196.612 174.186 205.913 183.713Z" fill="white"/>
<path d="M404.701 103.093C380.57 115.082 361.714 133.104 351.056 154.368C346.934 162.592 340.179 185.237 341.848 185.237C342.173 185.237 343.114 183.625 343.936 181.655C345.835 177.107 350.345 173.951 352.772 175.473C355.228 177.013 355.417 180.192 353.455 186.946C352.05 191.781 350.496 194.072 344.753 199.763C340.908 203.574 336.114 207.987 334.101 209.569L330.44 212.445L334.624 210.662C351.016 203.675 369.817 185.858 378.606 168.984C383.052 160.449 383.354 156.861 379.057 163.643C375.67 168.987 371.344 173.276 368.304 174.307C367.269 174.658 365.208 174.148 363.725 173.176C361.178 171.506 361.056 171.03 361.565 164.701C361.994 159.346 363.263 155.626 367.869 146.222C376.803 127.976 391.759 112.057 408.361 103.121C423.054 95.2133 420.6 95.1944 404.701 103.093Z" fill="white"/>
<path d="M251.064 103.093C275.194 115.082 294.05 133.104 304.708 154.368C308.83 162.592 315.586 185.237 313.916 185.237C313.591 185.237 312.651 183.625 311.829 181.655C309.929 177.107 305.419 173.951 302.993 175.473C300.537 177.013 300.348 180.192 302.31 186.946C303.714 191.781 305.269 194.072 311.012 199.763C314.857 203.574 319.65 207.987 321.664 209.569L325.324 212.445L321.141 210.662C304.749 203.675 285.947 185.858 277.159 168.984C272.712 160.449 272.41 156.861 276.708 163.643C280.094 168.987 284.42 173.276 287.461 174.307C288.495 174.658 290.557 174.148 292.04 173.176C294.587 171.506 294.708 171.03 294.2 164.701C293.771 159.346 292.501 155.626 287.896 146.222C278.962 127.976 264.005 112.057 247.403 103.121C232.71 95.2133 235.165 95.1944 251.064 103.093Z" fill="white"/>
</svg>
