<svg width="657" height="502" viewBox="0 0 657 502" fill="none" xmlns="http://www.w3.org/2000/svg">
<path fill-rule="evenodd" clip-rule="evenodd" d="M464.702 140.41C464.619 139.923 462.543 140.982 458.432 143.722C452.501 147.677 446.492 150.05 446.109 148.642C446.1 148.601 446.096 148.557 446.096 148.51C446.096 146.49 451.881 142.105 464.718 134.397C483.962 122.845 495.92 113.493 508.104 100.471C517.602 90.3184 531.881 71.2409 531.881 68.7029C531.881 68.4961 531.874 68.3251 531.842 68.2061C531.655 67.3915 530.501 68.7435 523.978 76.7749C501.963 103.879 472.457 122.293 418.464 142.62C404.469 147.889 392.692 152.448 392.292 152.75C391.892 153.053 387.67 155.283 382.908 157.705C368.095 165.241 347.921 181.774 340.792 192.217C339.528 194.068 338.715 195.793 338.853 196.278C338.865 196.335 338.888 196.377 338.923 196.403C339.275 196.669 344.31 192.65 350.116 187.471C369.832 169.884 396.242 156.781 415.425 155.069C420.38 154.627 424.704 154.596 425.034 155.002C425.055 155.027 425.069 155.055 425.079 155.086C425.292 156.15 419.443 160.339 413.375 163.42C410.976 164.638 401.162 168.739 391.565 172.534C381.969 176.328 371.454 181.07 368.197 183.071C359.259 188.564 346.275 201.151 342.007 208.46C338.083 215.177 332.766 231.357 332.71 236.744C332.693 238.429 331.621 241.649 330.33 243.901L327.982 247.995L328.414 262.309L328.419 262.313L328.419 262.331L331.141 264.802C332.643 266.166 333.822 268.672 334.494 271.39C335.335 274.804 335.377 278.548 334.259 280.775C333.68 281.929 333.5 282.756 333.625 283.236C333.868 284.266 335.46 283.766 337.524 281.535C340.774 278.021 348.887 273.893 352.544 273.893C355.787 273.893 357.844 275.692 358.501 278.332C359.174 281.075 358.34 284.719 355.759 288.197C352.034 293.214 347.24 295.161 342.186 293.707C337.837 292.455 337.727 292.576 335.717 300.809C334.323 306.525 334.323 312.199 335.709 317.783C336.711 321.832 338.442 325.835 340.899 329.773C345.935 337.847 348.745 339.939 347.487 334.868C347.406 334.54 347.308 334.181 347.192 333.792C347.149 333.647 347.109 333.499 347.071 333.347C345.364 326.417 349.19 312.431 352.919 312.431C355.932 312.431 363.484 320.003 365.435 324.98C365.876 326.103 366.241 327.255 366.533 328.432C369.604 340.866 364.433 356.034 352.479 368.987C348.77 373.006 345.969 376.502 346.128 376.903C346.13 376.915 346.133 376.926 346.138 376.934C346.142 376.941 346.146 376.946 346.152 376.95C346.475 377.196 351.952 373.727 358.325 369.245C374.376 357.953 382.835 348.057 387.955 334.584C391.948 324.075 393.948 316.567 393.419 314.481C393.285 313.925 392.978 313.74 392.488 313.969C391.581 314.393 390.838 315.759 390.838 317.003C390.838 319.936 385.549 327.045 382.183 328.638C379.818 329.755 379.381 329.211 377.707 323.069C376.686 319.326 374.318 313.928 372.444 311.074L369.05 305.909L378.21 306.556C389.388 307.347 403.001 304.599 418.715 298.377C418.915 298.298 419.035 298.354 419.082 298.529C419.426 300.051 414.849 309.619 409.79 317.639C406.512 322.835 405.226 325.306 405.473 326.246C405.554 326.598 405.84 326.745 406.308 326.745C409.224 326.745 432.121 309.21 435.362 304.496L437.856 300.869L439.963 304.723C440.39 305.505 440.73 306.426 440.985 307.458C442.562 313.872 440.874 324.513 436.745 332.298C432.046 341.157 420.823 351.295 418.535 348.745C417.944 348.085 417.537 347.251 417.311 346.336C416.746 344.027 417.324 341.208 418.974 339.378C422.675 335.271 424.465 333.092 424.321 332.668C424.244 332.199 422.341 333.39 418.595 336.082C410.528 341.878 401.417 350.93 393.948 360.57C389.214 366.679 381.191 382.86 381.733 384.874C381.767 385.024 381.843 385.103 381.967 385.103C382.639 385.103 384.959 383.076 387.124 380.597C389.984 377.325 391.492 376.133 391.681 376.831C391.893 377.793 389.862 381.967 385.662 388.935C380.705 397.156 380.044 411.407 382.804 422.66C384.32 428.852 386.872 434.139 390.313 437.018C392.427 438.787 393.363 439.138 393.11 438.138C392.943 437.444 392.18 436.072 390.816 434.046C389.691 432.375 388.914 430.775 388.485 429.043C387.538 425.188 388.311 420.68 390.803 413.301C394.906 401.152 402.269 391.368 417.557 377.75C442.795 355.267 453.655 341.971 460.569 325.093C464.888 314.548 465.932 305.394 463.492 295.595C462.085 289.931 459.514 284.051 455.739 277.563C452.267 271.596 448.989 265.35 448.457 263.685C446.945 258.958 444.469 260.025 445.51 264.956C446.087 267.696 445.564 271.199 444.063 274.62C439.235 285.63 430.12 291.935 428.62 285.936C428.525 285.551 428.462 285.116 428.432 284.628C428.233 281.307 427.941 279.086 427.409 276.836L427.407 276.829L427.403 276.814C427.286 276.313 423.716 278.149 419.47 280.895C406.557 289.249 395.622 293.692 388.016 293.674C378.588 293.65 374.392 291.721 372.726 286.642C372.572 286.172 372.443 285.741 372.342 285.337C371.667 282.606 372.283 281.082 375.1 277.081L378.861 271.74L378.842 271.737L378.856 271.718L373.658 270.98C364.175 269.633 354.252 260.178 352.036 251.222C351.742 250.027 351.586 248.842 351.586 247.685L351.581 247.593C351.165 240.146 351.502 223.392 356.009 213.811C356.13 213.554 356.254 213.302 356.381 213.056C359.27 207.222 365.91 200.036 374.863 193.513C382.634 187.849 388.575 184.926 420.696 170.97C434.962 164.772 445.534 158.128 457.069 148.111C462.307 143.564 464.874 140.923 464.702 140.41ZM478.068 164.93C478.145 165.34 476.898 165.867 474.03 166.301C465.366 167.614 437.366 184.964 437.366 189.02C437.366 189.109 437.377 189.193 437.397 189.271C437.84 191.14 443.948 190.095 451.794 186.76C470.066 178.991 491.3 163.582 505.648 147.68C506.383 146.866 507.056 146.119 507.672 145.435C513.355 139.129 514.241 138.147 514.734 138.315C514.825 138.346 514.902 138.416 514.994 138.499C515.047 138.548 515.106 138.601 515.175 138.653C515.186 138.661 515.195 138.672 515.202 138.685C515.206 138.693 515.21 138.701 515.213 138.711C515.599 140.769 491.436 173.609 481.454 184.52C464.616 202.929 459.976 207.379 441.338 222.993C438.957 224.989 436.651 226.348 436.213 226.017C436.168 225.983 436.138 225.938 436.122 225.882C436.018 225.386 436.956 224.164 438.407 222.963C444.365 218.029 447.209 210.666 445.921 205.503C445.491 203.759 444.591 202.265 443.182 201.198C438.365 197.55 431.238 198.272 425.805 202.957C423.28 205.135 421.42 207.731 421.673 208.725L421.675 208.735L421.679 208.748C422.283 211.124 426.715 211.696 431.018 209.952C433.711 208.861 435.098 208.667 435.255 209.228C435.448 210.119 432.745 212.783 427.419 216.704C419.127 222.811 404.926 229.103 394.11 231.463C392.111 231.899 391.067 231.74 390.939 231.292C390.824 230.748 392.005 229.801 394.419 228.968C396.386 228.29 399.732 225.747 401.853 223.319C404.71 220.052 405.684 216.915 404.824 213.47C404.526 212.268 404.005 211.028 403.263 209.732C403.083 209.418 402.963 209.145 402.903 208.911C402.723 208.17 403.163 207.827 404.248 207.827C407.268 207.827 412.978 202.849 412.426 200.706C412.423 200.694 412.42 200.683 412.417 200.671C411.305 196.574 389.457 211.447 380.813 222.184C378.007 225.67 377.305 229.732 378.149 233.144C379.313 237.889 383.462 241.385 389.099 240.35C395.102 239.248 405.094 235.396 409.907 232.33C412.284 230.815 414.507 229.785 414.846 230.042C414.866 230.056 414.88 230.078 414.888 230.108C414.993 230.64 413.744 233.048 411.952 235.729C409.876 238.834 409.07 241.269 409.55 243.181C409.918 244.681 411.074 245.861 413.023 246.792C421.026 250.615 449.289 235.471 470.328 216.085C474.577 212.169 476.705 210.658 476.872 211.203C477.035 212.043 473.332 216.936 466.209 224.918C441.817 252.252 424.671 264.995 400.712 273.604C394.4 275.872 389.942 276.6 389.707 275.819C389.63 275.419 390.589 274.651 392.871 273.519C396.966 271.488 402.476 263.361 402.476 259.353C402.476 258.961 402.424 258.567 402.326 258.173C401.593 255.168 398.146 252.208 394.1 251.317C389.12 250.22 382.114 255.952 382.114 261.123C382.114 263.289 381.6 265.062 380.969 265.062C379.32 265.062 366.754 255.043 364.835 252.197C364.454 251.633 364.111 250.724 363.847 249.665C363.493 248.243 363.281 246.553 363.309 245.062C363.389 240.94 363.586 240.655 364.778 242.912C365.916 245.065 366.53 245.28 368.321 244.154C370.331 242.891 370.864 240.751 370.351 238.693C369.866 236.713 368.414 234.806 366.379 233.821C366.407 233.842 366.435 233.862 366.463 233.883C368.45 234.874 369.867 236.747 370.351 238.693C370.854 240.745 370.318 242.874 368.316 244.132C366.524 245.258 365.911 245.043 364.772 242.89C363.58 240.633 363.384 240.918 363.304 245.039C363.275 246.539 363.49 248.239 363.847 249.665C364.112 250.734 364.457 251.651 364.84 252.219C366.76 255.065 379.325 265.084 380.974 265.084C381.605 265.084 382.12 263.311 382.12 261.145C382.12 255.974 389.125 250.242 394.105 251.339C398.141 252.228 401.582 255.175 402.326 258.173C402.421 258.559 402.47 258.947 402.47 259.331C402.47 263.339 396.961 271.466 392.865 273.497C390.541 274.65 389.589 275.426 389.707 275.819C389.865 276.635 394.347 275.915 400.718 273.626C424.677 265.017 441.822 252.274 466.215 224.94C473.403 216.885 477.108 211.976 476.872 211.203C476.754 210.597 474.627 212.097 470.322 216.063C449.283 235.449 421.02 250.593 413.017 246.77C411.078 245.844 409.924 244.671 409.55 243.181C409.082 241.272 409.889 238.844 411.957 235.751C413.775 233.031 415.035 230.592 414.888 230.108C414.885 230.089 414.879 230.073 414.872 230.059C414.87 230.053 414.867 230.048 414.863 230.043C414.857 230.034 414.849 230.026 414.841 230.019C414.502 229.763 412.279 230.792 409.902 232.308C405.089 235.374 395.097 239.226 389.093 240.328C383.466 241.361 379.32 237.877 378.149 233.144C377.314 229.736 378.018 225.685 380.818 222.206C389.462 211.469 411.31 196.596 412.422 200.693L412.426 200.706C412.934 202.861 407.252 207.805 404.243 207.805C403.146 207.805 402.709 208.154 402.903 208.911C402.961 209.15 403.083 209.43 403.268 209.754C404.006 211.042 404.525 212.275 404.824 213.47C405.675 216.907 404.698 220.037 401.848 223.297C399.727 225.725 396.381 228.268 394.414 228.946C391.967 229.791 390.787 230.752 390.939 231.292C391.038 231.758 392.083 231.929 394.115 231.485C404.931 229.125 419.133 222.833 427.425 216.726C432.795 212.772 435.498 210.096 435.255 209.228C435.129 208.64 433.74 208.825 431.012 209.93C426.715 211.672 422.289 211.103 421.675 208.735C421.442 207.731 423.296 205.147 425.811 202.979C431.243 198.294 438.371 197.573 443.188 201.22C444.591 202.283 445.489 203.769 445.921 205.503C447.195 210.665 444.351 218.013 438.401 222.941C436.929 224.161 435.984 225.401 436.122 225.882C436.136 225.948 436.167 226.001 436.219 226.039C436.656 226.371 438.962 225.011 441.344 223.015C459.981 207.401 464.621 202.951 481.46 184.542C491.479 173.59 515.789 140.54 515.213 138.711C515.206 138.675 515.192 138.648 515.17 138.631C515.101 138.579 515.042 138.526 514.988 138.477C514.897 138.394 514.819 138.324 514.728 138.293C514.236 138.125 513.35 139.107 507.669 145.411L507.668 145.412L507.638 145.445L506.851 146.319C506.468 146.743 506.066 147.189 505.643 147.658C491.295 163.56 470.061 178.968 451.788 186.738C443.973 190.06 437.883 191.11 437.397 189.271C437.38 189.199 437.372 189.123 437.372 189.042C437.372 184.986 465.371 167.636 474.036 166.324C476.955 165.881 478.195 165.343 478.068 164.93Z" fill="white"/>
<path fill-rule="evenodd" clip-rule="evenodd" d="M127 68.6808C127 71.2188 141.28 90.2963 150.777 100.448C162.962 113.471 174.92 122.823 194.163 134.375C207.001 142.083 212.786 146.467 212.786 148.488C212.786 150.207 206.573 147.809 200.445 143.722C191.58 137.813 192.177 139.723 201.813 148.089C213.347 158.106 223.919 164.75 238.186 170.948C270.306 184.904 276.247 187.827 284.019 193.491C292.971 200.014 299.611 207.2 302.501 213.034C307.38 222.502 307.731 240.065 307.296 247.663C307.296 257.494 295.974 269.452 285.218 270.98L280.02 271.718L283.782 277.059C287.023 281.662 287.35 282.986 286.15 286.642C284.484 291.721 280.288 293.65 270.86 293.674C263.254 293.692 252.319 289.249 239.406 280.895C235.16 278.149 231.591 276.313 231.473 276.814C230.941 279.064 230.648 281.285 230.449 284.606C229.961 292.735 219.956 286.347 214.813 274.62C213.312 271.199 212.789 267.696 213.366 264.956C214.407 260.025 211.931 258.958 210.419 263.685C209.887 265.35 206.609 271.596 203.137 277.563C192.837 295.266 191.5 308.437 198.313 325.071C205.227 341.949 216.087 355.244 241.325 377.728C256.612 391.346 263.976 401.13 268.079 413.279C271.696 423.99 271.692 428.652 268.06 434.046C264.785 438.911 264.973 440.004 268.569 436.996C278.262 428.884 280.894 401.672 273.214 388.935C265.761 376.57 265.139 373.002 271.757 380.575C273.922 383.054 276.243 385.081 276.915 385.081C278.779 385.081 269.98 367.09 264.928 360.57C257.459 350.93 248.348 341.878 240.281 336.082C232.744 330.666 232.669 331.325 239.907 339.356C242.218 341.918 242.426 346.419 240.341 348.745C238.054 351.295 226.83 341.157 222.131 332.298C217.333 323.251 215.831 310.345 218.919 304.701L221.026 300.847L223.519 304.474C226.76 309.188 249.658 326.723 252.573 326.723C254.315 326.723 253.534 324.689 249.087 317.639C243.391 308.61 238.307 297.619 240.166 298.355C255.881 304.577 269.493 307.325 280.672 306.534L289.841 305.886L286.432 311.074C284.558 313.928 282.19 319.326 281.169 323.069C279.495 329.211 279.058 329.755 276.694 328.638C273.328 327.045 268.038 319.936 268.038 317.003C268.038 315.759 267.295 314.393 266.388 313.969C264.034 312.867 265.902 321.34 270.927 334.561C276.047 348.034 284.506 357.931 300.557 369.223C306.929 373.705 312.407 377.174 312.729 376.928C313.052 376.684 310.202 373.111 306.397 368.987C293.304 354.801 288.349 337.956 293.447 324.958C295.398 319.981 302.95 312.409 305.963 312.409C309.778 312.409 313.693 327.045 311.684 333.792C309.788 340.158 312.626 338.338 317.983 329.751C323.823 320.388 325.562 310.662 323.159 300.809C321.15 292.576 321.039 292.455 316.69 293.707C311.636 295.161 306.842 293.214 303.117 288.197C298.04 281.356 299.723 273.87 306.338 273.87C309.995 273.87 318.108 277.998 321.357 281.513C324.389 284.79 326.403 284.333 324.617 280.775C322.606 276.771 324.347 267.861 327.741 264.78L330.462 262.309L330.894 247.995L328.546 243.901C327.255 241.649 326.183 238.429 326.166 236.744C326.111 231.357 320.793 215.177 316.869 208.46C312.602 201.151 299.617 188.564 290.68 183.071C287.423 181.07 276.907 176.328 267.311 172.534C257.715 168.739 247.9 164.638 245.501 163.42C239.207 160.223 233.148 155.836 233.847 154.98C234.177 154.574 238.501 154.605 243.457 155.047C262.639 156.759 289.05 169.862 308.766 187.449C314.572 192.627 319.607 196.646 319.959 196.381C320.309 196.115 319.466 194.242 318.085 192.217C310.956 181.774 290.781 165.241 275.968 157.705C271.206 155.283 266.984 153.053 266.584 152.75C266.184 152.448 254.407 147.889 240.412 142.62C186.419 122.293 156.913 103.879 134.898 76.7749C127.434 67.5841 127 67.1404 127 68.6808Z" fill="white"/>
<path d="M437.365 189.018C437.365 184.962 465.364 167.612 474.029 166.299C476.897 165.865 478.144 165.338 478.067 164.927C477.902 164.39 475.43 164.062 471.337 164.426C462.165 165.243 450.693 168.61 435.79 174.86C410.099 185.632 400.365 191.365 380.74 207.274C376.995 210.31 373.831 212.848 371.148 214.94C370.906 215.129 370.668 215.315 370.433 215.496C365.386 219.561 358.463 228.077 366.377 233.819C368.413 234.804 369.865 236.711 370.35 238.691C370.862 240.749 370.329 242.889 368.32 244.152C366.529 245.277 365.915 245.063 364.777 242.91C363.584 240.653 363.388 240.938 363.308 245.059C363.28 246.551 363.492 248.241 363.845 249.663C364.11 250.722 364.453 251.63 364.834 252.194C366.753 255.041 379.318 265.059 380.967 265.059C381.598 265.059 382.113 263.287 382.113 261.121C382.113 255.95 389.118 250.218 394.098 251.315C398.145 252.206 401.592 255.165 402.325 258.17C402.423 258.564 402.474 258.959 402.474 259.35C402.474 263.358 396.965 271.486 392.869 273.517C390.588 274.649 389.629 275.417 389.706 275.816C389.94 276.597 394.398 275.87 400.711 273.602C424.67 264.992 441.815 252.249 466.208 224.916C473.331 216.934 477.034 212.041 476.87 211.201C476.704 210.655 474.576 212.167 470.327 216.083C449.287 235.469 421.024 250.613 413.022 246.79C411.072 245.859 409.917 244.679 409.549 243.179C409.069 241.267 409.874 238.832 411.95 235.726C413.742 233.046 414.992 230.638 414.887 230.105C414.878 230.076 414.864 230.054 414.845 230.039C414.506 229.783 412.283 230.812 409.906 232.327C405.093 235.394 395.101 239.246 389.098 240.348C383.461 241.383 379.312 237.886 378.148 233.142C377.304 229.73 378.005 225.668 380.812 222.182C389.456 211.445 411.303 196.572 412.416 200.669C412.419 200.68 412.422 200.692 412.425 200.704C412.977 202.847 407.266 207.825 404.247 207.825C403.161 207.825 402.722 208.167 402.902 208.909C402.962 209.143 403.082 209.416 403.261 209.73C404.004 211.026 404.525 212.265 404.823 213.468C405.683 216.913 404.708 220.05 401.852 223.317C399.731 225.745 396.385 228.287 394.418 228.966C392.004 229.799 390.823 230.745 390.938 231.289L390.938 231.29C391.065 231.738 392.11 231.897 394.108 231.461C404.925 229.101 419.126 222.808 427.418 216.702C432.743 212.78 435.446 210.116 435.254 209.226C435.097 208.665 433.71 208.858 431.016 209.95C426.714 211.694 422.282 211.121 421.677 208.745L421.674 208.732L421.672 208.723C421.419 207.729 423.278 205.133 425.804 202.955C431.236 198.269 438.364 197.548 443.181 201.196C444.59 202.263 445.49 203.757 445.92 205.5C447.208 210.663 444.364 218.026 438.406 222.96C436.955 224.162 436.016 225.384 436.121 225.88C436.136 225.935 436.167 225.981 436.212 226.015C436.649 226.346 438.955 224.986 441.337 222.991C459.974 207.377 464.614 202.927 481.453 184.518C491.435 173.607 515.597 140.767 515.212 138.709C515.209 138.699 515.205 138.691 515.201 138.683C515.194 138.67 515.185 138.659 515.174 138.651C515.105 138.599 515.046 138.546 514.992 138.497C514.901 138.414 514.823 138.344 514.732 138.313C514.24 138.144 513.354 139.127 507.671 145.433L507.671 145.433C507.055 146.117 506.382 146.863 505.647 147.678C491.299 163.58 470.065 178.988 451.792 186.758C443.947 190.093 437.838 191.138 437.396 189.269C437.375 189.191 437.365 189.107 437.365 189.018Z" fill="white"/>
<path d="M278.139 207.252C258.514 191.342 248.78 185.61 223.089 174.838C208.186 168.588 196.714 165.221 187.542 164.404C180.299 163.76 178.132 165.282 184.845 166.299C193.509 167.612 221.509 184.962 221.509 189.018C221.509 191.193 215.235 190.2 207.086 186.736C188.814 178.966 167.58 163.557 153.232 147.656C145.721 139.331 144.693 138.104 144.147 138.291C144.003 138.34 143.892 138.487 143.705 138.629C142.42 139.602 167.263 173.414 177.421 184.518C194.259 202.927 198.899 207.377 217.536 222.991C219.918 224.986 222.224 226.346 222.662 226.015C223.101 225.683 222.115 224.298 220.473 222.938C212.514 216.347 210.112 205.422 215.693 201.196C220.51 197.548 227.637 198.269 233.069 202.955C235.595 205.133 237.455 207.729 237.202 208.723C236.597 211.099 232.165 211.672 227.863 209.928C221.001 207.148 222.615 210.192 231.455 216.702C239.748 222.808 253.949 229.101 264.765 231.461C269.174 232.423 268.94 230.49 264.461 228.944C262.494 228.265 259.148 225.723 257.027 223.295C253.18 218.894 252.746 214.731 255.612 209.73C256.373 208.402 256.067 207.803 254.632 207.803C251.606 207.803 245.879 202.805 246.458 200.669C247.57 196.572 269.418 211.445 278.062 222.182C284.76 230.504 279.466 242.104 269.781 240.326C263.778 239.223 253.786 235.372 248.973 232.305C246.596 230.79 244.373 229.761 244.034 230.017C243.695 230.274 244.995 232.843 246.923 235.726C250.616 241.251 250.288 244.652 245.857 246.768C237.855 250.591 209.592 235.447 188.552 216.061C178.277 206.593 180.409 211.18 192.666 224.916C217.058 252.249 234.204 264.992 258.163 273.602C267.653 277.012 272.951 276.939 266.01 273.495C261.914 271.463 256.405 263.336 256.405 259.328C256.405 255.961 260.208 252.321 264.775 251.315C269.755 250.218 276.761 255.95 276.761 261.121C276.761 263.287 277.275 265.059 277.906 265.059C279.555 265.059 292.121 255.041 294.04 252.194C294.933 250.871 295.62 247.65 295.571 245.037C295.491 240.916 295.295 240.631 294.102 242.888C292.964 245.041 292.35 245.255 290.559 244.13C286.651 241.673 288.328 235.899 292.417 233.858C300.465 228.115 293.51 219.553 288.446 215.474C288.211 215.293 287.973 215.107 287.731 214.918C285.048 212.826 281.884 210.288 278.139 207.252Z" fill="white"/>
<path d="M313.64 208.258C315.17 187.399 311.576 141.22 284.965 123.377C297.964 129.985 325.053 151.133 328.265 177.899C331.477 151.133 358.852 130.605 371.852 123.996C345.241 141.84 341.36 188.019 342.89 208.877L338.015 233.66C339.927 273.572 340.194 360.453 328.265 391.163C316.336 360.453 317.177 272.952 319.089 233.041L313.64 208.258Z" fill="white"/>
</svg>
