<svg width="657" height="502" viewBox="0 0 657 502" fill="none" xmlns="http://www.w3.org/2000/svg">
<path fill-rule="evenodd" clip-rule="evenodd" d="M340.874 366.45C341.309 366.45 342.291 364.228 343.058 361.513C344.756 355.498 344.948 355.041 343.399 338.412C349.194 326.194 349.312 325.742 347.45 322.889C343.883 317.421 339.872 303.428 339.198 294.087C338.495 284.363 340.886 264.999 344.152 253.952C345.525 249.312 346.342 248.211 348.409 248.215C354.876 248.225 362.998 256.74 368.898 269.697C374.588 282.19 374.483 283.194 368.149 276.831C363.356 272.016 349.757 263.555 348.631 264.686C348.428 264.889 351.592 269.131 355.658 274.112C367.476 288.586 370.844 298.685 369.647 316.057C369.248 321.86 368.134 329.172 367.173 332.308C365.285 338.462 364.836 345.11 366.372 344.157C368.083 343.095 379.789 352.183 384.252 358.038C386.655 361.193 390.264 367.088 392.272 371.14C395.659 377.977 395.926 379.4 395.992 390.884C396.072 405.171 393.411 415.419 386.73 426.561C384.554 430.189 382.774 433.519 382.774 433.962C382.774 434.403 379.638 439.379 375.805 445.018C371.972 450.658 369.117 455.555 369.461 455.9C371.093 457.539 386.847 438.642 393.498 427.07C397.389 420.299 404.163 403.323 405.201 397.744C405.646 395.349 406.22 393.388 406.476 393.388C406.731 393.388 409.388 394.695 412.379 396.292C421.202 401.003 426.897 399.999 436.268 392.084C439.29 389.531 441.762 387.929 441.762 388.522C441.762 390.524 437.307 403.623 435.3 407.522C432.774 412.43 425.477 422.328 422.253 425.217C418.21 428.843 419.451 429.476 424.323 426.274C429.481 422.883 439.283 411.099 442.58 404.324C443.798 401.823 445.386 398.731 446.11 397.453C450.221 390.201 456.087 372.788 459.022 359.126C462.861 341.251 464.92 317.604 462.753 316.259C462.211 315.924 460.608 319.943 459.191 325.192C453.274 347.104 441.773 369.457 431.963 378.105C426.938 382.536 424.171 382.728 421.135 378.852C419.046 376.185 418.971 375.401 420.275 369.851C422.584 360.033 429.34 348.576 442.593 332.006C448.312 324.854 454.808 313.592 457.295 306.516C458.238 303.832 458.866 301.636 458.691 301.636C458.515 301.636 456.623 303.204 454.485 305.12C452.348 307.036 449.429 308.604 447.999 308.604C444.149 308.604 440.606 303.379 440.606 297.697C440.606 286.518 444.346 281.052 456.77 274.079C469.041 267.19 480.593 253.962 482.909 244.145C483.688 240.842 483.421 240.982 477.791 246.819C468.173 256.789 455.277 261.234 444.992 258.126C436.866 255.671 435.181 254.463 431.808 248.685C429.059 243.976 428.795 242.595 429.399 236.098C430.638 222.782 437.521 215.287 450.161 213.489C458.216 212.344 466.235 213.363 471.762 216.233C476.834 218.867 477.022 218.477 473.085 213.486C467.763 206.738 459.467 201.861 451.605 200.86L444.949 200.011L454.533 191.326C472.973 174.613 488.883 154.13 499.999 132.794C505.491 122.252 511.161 108.858 511.161 106.425C511.161 105.634 507.909 108.109 503.932 111.924C492.314 123.074 473.033 134.929 454.292 142.447C443.023 146.969 442.521 146.958 443.584 142.23C446.672 128.501 440.542 116.595 428.741 113.404C424.554 112.272 423.267 112.42 418.942 114.53C412.135 117.851 404.011 125.614 400.005 132.625C398.174 135.832 396.671 138.848 396.664 139.327C396.641 141.265 398.676 140.019 399.885 137.357C401.939 132.828 409.325 125.227 414.803 122.004C419.018 119.523 420.694 119.165 425.028 119.817C429.179 120.443 430.555 121.266 431.939 123.953C434.389 128.711 434.095 132.463 430.705 139.658C425.365 150.992 416.73 156.603 394.304 163.309C370.969 170.287 349.545 183.133 338.212 196.945C335.048 200.8 332.189 203.982 331.858 204.016L331.861 226.132C332.004 226.09 332.21 225.927 332.465 225.662C333.359 224.733 334.851 222.56 336.279 220.046C340.708 212.246 346.988 205.237 349.549 205.237C352.269 205.237 352.246 212.867 349.514 217.004C348.404 218.683 345.498 223.077 343.058 226.767C340.616 230.456 337.255 236.267 335.587 239.681C333.92 243.094 332.248 245.887 331.871 245.887L331.864 245.887L340.874 366.45ZM424.991 165.614C435.364 162.77 456.513 154.085 469.991 147.135C475.777 144.151 480.889 141.631 481.353 141.534C483.241 141.142 470.16 160.135 460.914 171.214C447.848 186.868 436.393 195.924 416.454 206.363C413.744 207.782 413.713 207.737 414.488 203.588C415.372 198.852 412.329 193.191 408.19 191.872C404.428 190.673 405.554 189.277 412.337 186.728C421.267 183.374 428.254 181.917 429.486 183.154C430.081 183.752 429.477 185.945 428.04 188.389C424.652 194.155 424.867 194.298 430.322 189.903C437.883 183.812 451.304 165.651 449.549 163.888C449.284 163.622 445.732 164.916 441.656 166.762C437.58 168.608 423.834 173.648 411.111 177.96C388.301 185.692 382.695 188.011 372.28 194.023L366.992 197.075L362.062 190.379L366.346 187.411C374.528 181.74 398 173.016 424.991 165.614ZM366.581 221.495C368.856 213.014 376.852 206.171 389.135 202.196C396.371 199.854 402.437 201.939 402.437 206.769C402.437 212.827 387.924 225.984 379.094 227.932C377.301 228.327 375.834 229.173 375.834 229.812C375.834 231.231 380.348 230.346 392.027 226.638C396.798 225.122 403.915 223.141 407.842 222.233C411.768 221.326 415.541 220.236 416.227 219.811C420.693 217.039 413.334 227.265 407.053 232.561C399.482 238.942 393.823 241.186 385.223 241.216C375.837 241.249 370.683 238.329 367.542 231.198C365.683 226.977 365.529 225.42 366.581 221.495ZM387.014 256.965C389.453 256.592 395.352 255.039 400.123 253.514C404.894 251.99 409.438 250.695 410.221 250.638C411.003 250.58 412.765 252.743 414.138 255.446C415.511 258.147 418.1 262.198 419.891 264.447C427.722 274.275 432.192 291.041 430.943 305.889C429.87 318.638 427.647 324.632 411.998 356.97L405.174 371.072L401.861 359.873C400.038 353.713 397.876 347.613 397.056 346.318C395.778 344.295 395.875 343.769 397.746 342.595C400.272 341.012 401.529 342.058 403.569 347.449C404.294 349.363 405.251 350.34 405.807 349.734C408.615 346.67 413.207 326.343 414.574 310.927C415.431 301.266 413.168 284.306 410.041 276.956C407.463 270.895 405.956 271.512 407.346 278.059C410.331 292.11 401.518 321.893 391.994 329.94C384.222 336.506 383.477 333.174 388.524 314.411C390.819 305.878 391.096 302.728 390.562 291.183C389.983 278.642 388.531 272.261 383.379 259.605C382.733 258.02 383.429 257.513 387.014 256.965Z" fill="white"/>
<path d="M492.229 205.818C490.468 215.744 488.797 219.848 485.095 223.355C481.232 227.013 474.086 229.532 466.985 229.739C464.377 229.814 465.551 230.294 470.679 231.245C483.582 233.639 489.421 238.515 490.994 248.21C492.765 259.118 493.075 259.618 493.862 252.834C495.426 239.368 500.468 234.105 514.292 231.508L522.149 230.032L515.086 229.21C510.334 228.658 506.305 227.295 502.775 225.048C497.096 221.431 495.339 217.89 493.863 207.093L493.054 201.172L492.229 205.818Z" fill="white"/>
<path d="M368.383 78.9429C362.964 80.3657 354.082 88.7918 350.435 95.9706C348.643 99.4955 348.055 102.482 348.306 106.756C348.757 114.434 351.279 116.392 355.54 112.372C358.757 109.337 359.234 106.528 357.109 103.112C353.903 97.9578 363.157 85.9208 372.483 83.1148C376.707 81.8442 377.754 81.9394 381.438 83.9336C387.25 87.0787 388.773 90.5386 388.172 99.2295C387.79 104.746 386.501 108.832 382.739 116.458C378.54 124.97 375.435 128.959 361.831 143.313C345.836 160.19 339.75 168.072 342.712 168.072C343.537 168.072 345.954 165.59 348.085 162.555C350.214 159.52 358.573 150.193 366.659 141.826C378.695 129.372 382.105 125.055 385.465 118.017C389.784 108.968 392.762 95.6791 391.554 90.8429C390.426 86.3319 384.249 80.0509 380.123 79.2182C378.082 78.8059 375.631 78.3065 374.677 78.1079C373.723 77.9093 370.89 78.2844 368.383 78.9429Z" fill="white"/>
<path fill-rule="evenodd" clip-rule="evenodd" d="M317.076 366.45C316.641 366.45 315.659 364.228 314.892 361.513C313.194 355.498 313.002 355.041 314.551 338.412C308.756 326.194 308.638 325.742 310.5 322.889C314.067 317.421 318.077 303.428 318.752 294.087C319.455 284.363 317.064 264.999 313.798 253.952C312.425 249.312 311.608 248.211 309.541 248.215C303.073 248.225 294.951 256.74 289.051 269.697C283.362 282.19 283.467 283.194 289.801 276.831C294.594 272.016 308.193 263.555 309.319 264.686C309.522 264.889 306.358 269.131 302.292 274.112C290.474 288.586 287.106 298.685 288.303 316.057C288.702 321.86 289.816 329.172 290.777 332.308C292.665 338.462 293.114 345.11 291.578 344.157C289.867 343.095 278.16 352.183 273.698 358.038C271.295 361.193 267.686 367.088 265.678 371.14C262.291 377.977 262.024 379.4 261.958 390.884C261.878 405.171 264.539 415.419 271.219 426.561C273.396 430.189 275.176 433.519 275.176 433.962C275.176 434.403 278.312 439.379 282.145 445.018C285.978 450.658 288.833 455.555 288.489 455.9C286.857 457.539 271.103 438.642 264.452 427.07C260.561 420.299 253.786 403.323 252.749 397.744C252.304 395.349 251.73 393.388 251.474 393.388C251.219 393.388 248.562 394.695 245.571 396.292C236.748 401.003 231.053 399.999 221.682 392.084C218.66 389.531 216.188 387.929 216.188 388.522C216.188 390.524 220.643 403.623 222.65 407.522C225.176 412.43 232.473 422.328 235.697 425.217C239.74 428.843 238.499 429.476 233.627 426.274C228.469 422.883 218.667 411.099 215.37 404.324C214.152 401.823 212.564 398.731 211.84 397.453C207.729 390.201 201.862 372.788 198.928 359.126C195.089 341.251 193.03 317.604 195.197 316.259C195.739 315.924 197.342 319.943 198.759 325.192C204.675 347.104 216.177 369.457 225.987 378.105C231.012 382.536 233.779 382.728 236.815 378.852C238.904 376.185 238.979 375.401 237.674 369.851C235.366 360.033 228.61 348.576 215.357 332.006C209.637 324.854 203.142 313.592 200.655 306.516C199.712 303.832 199.084 301.636 199.259 301.636C199.435 301.636 201.327 303.204 203.464 305.12C205.602 307.036 208.521 308.604 209.951 308.604C213.801 308.604 217.344 303.379 217.344 297.697C217.344 286.518 213.604 281.052 201.18 274.079C188.909 267.19 177.357 253.962 175.041 244.145C174.261 240.842 174.529 240.982 180.159 246.819C189.777 256.789 202.673 261.234 212.958 258.126C221.084 255.671 222.769 254.463 226.142 248.685C228.891 243.976 229.155 242.595 228.551 236.098C227.312 222.782 220.429 215.287 207.789 213.489C199.734 212.344 191.715 213.363 186.188 216.233C181.116 218.867 180.928 218.477 184.864 213.486C190.187 206.738 198.483 201.861 206.344 200.86L213.001 200.011L203.417 191.326C184.977 174.613 169.067 154.13 157.95 132.794C152.459 122.252 146.789 108.858 146.789 106.425C146.789 105.634 150.041 108.109 154.018 111.924C165.636 123.074 184.916 134.929 203.658 142.447C214.927 146.969 215.429 146.958 214.366 142.23C211.278 128.501 217.408 116.595 229.209 113.404C233.396 112.272 234.683 112.42 239.008 114.53C245.815 117.851 253.939 125.614 257.945 132.625C259.776 135.832 261.279 138.848 261.286 139.327C261.309 141.265 259.274 140.019 258.065 137.357C256.011 132.828 248.624 125.227 243.147 122.004C238.932 119.523 237.256 119.165 232.922 119.817C228.771 120.443 227.395 121.266 226.011 123.953C223.561 128.711 223.855 132.463 227.245 139.658C232.585 150.992 241.22 156.603 263.646 163.309C286.981 170.287 308.404 183.133 319.738 196.945C322.902 200.8 325.761 203.982 326.092 204.016L326.089 226.132C325.946 226.09 325.74 225.927 325.485 225.662C324.591 224.733 323.099 222.56 321.671 220.046C317.242 212.246 310.962 205.237 308.401 205.237C305.681 205.237 305.704 212.867 308.436 217.004C309.546 218.683 312.452 223.077 314.892 226.767C317.334 230.456 320.695 236.267 322.363 239.681C324.03 243.094 325.702 245.887 326.079 245.887L326.086 245.887L317.076 366.45ZM232.959 165.614C222.586 162.77 201.437 154.085 187.958 147.135C182.173 144.151 177.061 141.631 176.597 141.534C174.709 141.142 187.79 160.135 197.036 171.214C210.102 186.868 221.557 195.924 241.496 206.363C244.206 207.782 244.237 207.737 243.462 203.588C242.577 198.852 245.621 193.191 249.76 191.872C253.522 190.673 252.396 189.277 245.613 186.728C236.683 183.374 229.696 181.917 228.464 183.154C227.868 183.752 228.473 185.945 229.91 188.389C233.298 194.155 233.083 194.298 227.628 189.903C220.067 183.812 206.646 165.651 208.401 163.888C208.666 163.622 212.218 164.916 216.294 166.762C220.37 168.608 234.115 173.648 246.839 177.96C269.649 185.692 275.255 188.011 285.669 194.023L290.958 197.075L295.888 190.379L291.604 187.411C283.422 181.74 259.95 173.016 232.959 165.614ZM291.369 221.495C289.094 213.014 281.098 206.171 268.815 202.196C261.579 199.854 255.513 201.939 255.513 206.769C255.513 212.827 270.026 225.984 278.856 227.932C280.648 228.327 282.116 229.173 282.116 229.812C282.116 231.231 277.602 230.346 265.923 226.638C261.152 225.122 254.035 223.141 250.108 222.233C246.182 221.326 242.409 220.236 241.723 219.811C237.257 217.039 244.615 227.265 250.897 232.561C258.467 238.942 264.127 241.186 272.727 241.216C282.113 241.249 287.267 238.329 290.408 231.198C292.267 226.977 292.421 225.42 291.369 221.495ZM270.936 256.965C268.497 256.592 262.598 255.039 257.827 253.514C253.056 251.99 248.512 250.695 247.729 250.638C246.947 250.58 245.185 252.743 243.812 255.446C242.439 258.147 239.85 262.198 238.058 264.447C230.228 274.275 225.758 291.041 227.007 305.889C228.08 318.638 230.303 324.632 245.951 356.97L252.776 371.072L256.089 359.873C257.912 353.713 260.074 347.613 260.894 346.318C262.172 344.295 262.075 343.769 260.204 342.595C257.677 341.012 256.421 342.058 254.381 347.449C253.656 349.363 252.699 350.34 252.143 349.734C249.335 346.67 244.743 326.343 243.376 310.927C242.519 301.266 244.782 284.306 247.908 276.956C250.487 270.895 251.994 271.512 250.603 278.059C247.619 292.11 256.432 321.893 265.956 329.94C273.728 336.506 274.473 333.174 269.426 314.411C267.131 305.878 266.854 302.728 267.387 291.183C267.967 278.642 269.419 272.261 274.571 259.605C275.217 258.02 274.521 257.513 270.936 256.965Z" fill="white"/>
<path d="M165.721 205.818C167.482 215.744 169.153 219.848 172.855 223.355C176.718 227.013 183.864 229.532 190.965 229.739C193.573 229.814 192.399 230.294 187.271 231.245C174.368 233.639 168.529 238.515 166.956 248.21C165.185 259.118 164.875 259.618 164.088 252.834C162.524 239.368 157.482 234.105 143.658 231.508L135.801 230.032L142.864 229.21C147.616 228.658 151.644 227.295 155.175 225.048C160.854 221.431 162.611 217.89 164.086 207.093L164.896 201.172L165.721 205.818Z" fill="white"/>
<path d="M289.567 78.9429C294.986 80.3657 303.868 88.7918 307.515 95.9706C309.307 99.4955 309.895 102.482 309.644 106.756C309.193 114.434 306.671 116.392 302.41 112.372C299.193 109.337 298.716 106.528 300.841 103.112C304.047 97.9578 294.793 85.9208 285.467 83.1148C281.243 81.8442 280.196 81.9394 276.512 83.9336C270.7 87.0787 269.177 90.5386 269.778 99.2295C270.16 104.746 271.448 108.832 275.211 116.458C279.41 124.97 282.515 128.959 296.119 143.313C312.114 160.19 318.2 168.072 315.238 168.072C314.413 168.072 311.996 165.59 309.865 162.555C307.736 159.52 299.377 150.193 291.291 141.826C279.255 129.372 275.845 125.055 272.485 118.017C268.166 108.968 265.188 95.6791 266.396 90.8429C267.524 86.3319 273.7 80.0509 277.827 79.2182C279.868 78.8059 282.319 78.3065 283.273 78.1079C284.227 77.9093 287.06 78.2844 289.567 78.9429Z" fill="white"/>
<path d="M313.64 208.258C315.17 187.399 311.576 141.22 284.965 123.377C297.964 129.985 325.053 151.133 328.265 177.899C331.477 151.133 358.852 130.605 371.852 123.996C345.241 141.84 341.36 188.019 342.89 208.877L338.015 233.66C339.927 273.572 340.194 360.453 328.265 391.163C316.336 360.453 317.177 272.952 319.089 233.041L313.64 208.258Z" fill="white"/>
</svg>
