<svg width="657" height="502" viewBox="0 0 657 502" fill="none" xmlns="http://www.w3.org/2000/svg">
<path d="M146.521 126.481C142.266 120.132 130.41 112.097 116.705 106.274C109.467 103.199 103.93 100.682 104.399 100.68C106.097 100.672 121.012 104.611 129.426 107.29C143.4 111.738 157.301 117.872 165.982 123.422C174.386 128.796 195.159 145.968 198.035 149.92C202.842 156.527 209.685 158.63 212.441 154.348C214.5 151.146 211.371 146.876 202.451 140.715L195.709 136.059L201.756 138.408C211.771 142.3 217.395 147.417 227.357 161.706C232.58 169.196 240.555 179.212 245.081 183.963C256.655 196.11 257.669 197.344 256.664 198.055C255.012 199.224 233.228 195.425 223.547 192.279C214.348 189.289 205.061 183.951 206.851 182.683C207.32 182.352 209.012 182.576 210.612 183.183C214.271 184.569 220.91 182.969 220.91 180.701C220.91 179.823 219.615 177.31 218.034 175.114C215.755 171.95 214.11 170.984 210.098 170.452C203.546 169.581 200.745 171.245 200.762 175.997C200.775 179.423 204.689 185.192 211.907 192.42L214.43 194.949L209.983 192.723C207.536 191.5 202.389 187.891 198.545 184.705C187.345 175.423 176.939 173.482 168.478 179.095C166.127 180.653 164.876 180.855 162.766 180.016C159.143 178.575 150.405 180.448 146.501 183.503C142.616 186.542 140.267 191.696 140.267 197.182C140.267 199.622 139.619 201.618 138.827 201.618C137.994 201.618 137.387 198.373 137.387 193.92C137.387 181.827 143.36 175.34 160.207 169.133C176.261 163.22 179.148 161.059 179.148 154.955C179.148 150.875 178.449 149.528 175.188 147.332C163.992 139.791 151.931 145.247 160.645 153.911C163.482 156.732 163.511 156.904 160.988 155.947C153.449 153.09 148.907 145.835 148.907 136.647C148.907 132.61 147.98 128.658 146.521 126.481Z" fill="white"/>
<path d="M220.06 119.451C217.409 113.795 214.811 108.289 214.284 107.215C213.759 106.142 216.413 108.476 220.183 112.401C228.593 121.158 238.986 129.656 252.04 138.451C257.492 142.122 267.384 148.775 274.024 153.235C299.384 170.268 311.691 183.775 315.936 199.237C319.853 213.498 323.114 223.111 324.781 225.317C325.573 226.366 325.942 227.77 325.599 228.44C325.258 229.109 323.36 227.134 321.381 224.05C319.404 220.966 316.147 215.919 314.142 212.834C312.139 209.75 308.582 204.222 306.239 200.551C299.611 190.167 292.161 184.87 281.876 183.227C278.092 182.623 276.679 182.92 274.097 184.866C271.452 186.859 271.046 188.116 271.578 192.66C272.421 199.851 283.48 212.173 297.494 221.534C308.435 228.842 316.737 232.149 324.234 232.185C329.781 232.211 330.454 233.934 325.277 234.854C317.208 236.288 303.836 234.796 296.68 231.663C292.883 230 287.402 227.614 284.503 226.361C279.103 224.028 269.292 223.26 267.731 225.048C264.911 228.278 275.752 233.677 294.665 238.464C301.14 240.103 306.796 241.702 307.236 242.019C307.675 242.336 304.469 242.251 300.113 241.833C287.662 240.635 278.227 241.162 274.192 243.279C268.718 246.151 269.071 248.076 275.893 252.563C279.314 254.812 281.643 256.659 281.068 256.666C280.494 256.672 275.634 255.221 270.268 253.44C259.81 249.968 254.936 249.625 233.871 250.882L223.07 251.527L230.463 249.697C239.433 247.475 252.143 241.841 254.138 239.204C255.839 236.953 254.57 230.948 251.484 226.637C248.009 221.784 238.601 217.011 232.392 216.948C227.38 216.899 222.35 219.62 222.35 222.38C222.35 225.372 228.338 231.056 234.239 233.667C236.808 234.804 240.207 236.599 241.791 237.655C244.654 239.565 244.649 239.572 241.071 238.807C232.438 236.964 221.269 230.175 211.092 220.588C199.4 209.575 192.874 206.464 178.935 205.259C174.462 204.873 168.954 204.164 166.695 203.685C162.974 202.895 163.206 202.805 169.175 202.726C180.882 202.57 227.35 208.18 240.761 211.367C253.72 214.448 262.05 212.365 256.006 207.555C252.98 205.146 237.341 199.581 233.596 199.58C232.256 199.579 230.75 199.109 230.249 198.535C227.736 195.657 254.341 201.204 270.328 206.893L278.707 209.874L272.679 204.097C264.388 196.151 255.301 185.092 246.749 172.537C242.784 166.717 236.954 159.638 233.793 156.806C230.63 153.974 228.41 151.657 228.858 151.657C230.77 151.657 245.529 160.094 256.096 167.228C266.352 174.152 272.841 176.839 275.984 175.464C278.148 174.517 276.971 168.371 273.671 163.382C267.371 153.858 250.833 143.214 244.86 144.838C241.504 145.749 241.952 148.837 246.226 154.258C252.119 161.73 249.082 160.764 241.871 152.873C233.5 143.711 226.155 132.453 220.06 119.451Z" fill="white"/>
<path d="M287.973 247.607C299.808 246.436 317.945 242.421 320.921 240.314C326.188 236.584 325.052 244.959 318.795 255.989C312.884 266.406 302.083 273.206 265.552 289.508C252.511 295.328 231.66 315.475 226.402 327.336C221.401 338.618 223.737 370.876 229.556 370.876C232.52 370.876 234.38 365.848 234.385 357.822C234.388 353.165 234.863 349.953 235.44 350.684C238.097 354.047 239.403 364.428 238.816 377.503C238.159 392.075 236.778 397.202 230.119 409.775C224.29 420.782 196.19 453.636 193.958 452.055C193.654 451.841 194.953 450.052 196.844 448.08C198.733 446.108 201.109 442.957 202.122 441.078C203.135 439.199 205.18 435.367 206.666 432.563C210.521 425.29 213.71 405.084 213.71 387.929C213.71 363.033 217.815 335.315 223.031 325.002C228.26 314.663 243.633 298.129 254.6 291.045C257.027 289.479 265.18 285.512 272.722 282.231C298.793 270.884 308.7 264.735 315.036 255.964C318.903 250.611 317.834 250.859 308.644 257.447C298.34 264.834 286.823 270.46 275.199 273.784C266.394 276.303 260.421 276.417 267.597 273.93C272.052 272.385 278.159 267.305 276.755 266.31C276.292 265.981 273.16 266.706 269.797 267.92C266.435 269.136 257.786 271.747 250.577 273.724C238.316 277.087 236.715 277.282 225.743 276.742C215.919 276.259 212.811 275.641 206.59 272.931C199.337 269.77 197.194 267.488 203.866 270.029C205.716 270.734 211.118 271.331 215.87 271.357C222.956 271.394 225.644 270.886 230.815 268.533C238.338 265.11 249.188 257.411 250.447 254.605C250.941 253.502 252.171 252.6 253.18 252.6C254.567 252.6 254.74 253.782 253.889 257.443C252.263 264.436 252.329 264.835 255.111 264.838C259.535 264.844 284.273 258.359 287.206 256.424C291.25 253.757 290.747 252.819 284.633 251.62C274.46 249.625 275.076 248.885 287.973 247.607Z" fill="white"/>
<path d="M291.437 285.299C298.096 281.585 305.309 276.222 312.302 269.784C314.649 267.623 320.493 262.523 320.921 262.523C322.335 262.523 315.957 294.745 313.699 303.432C311.334 312.527 307.126 320.688 296.801 336.209C273.063 371.885 264.99 397.059 269.728 420.631C271.3 428.46 269.135 428.1 266.331 420.068C260.075 402.143 257.876 389.114 257.767 369.346C257.655 348.818 258.773 345.588 268.782 337.565C272.327 334.722 273.747 332.55 273.998 329.581C274.808 319.995 265.068 319.396 258.076 328.602C254.034 333.924 251.18 343.479 251.163 351.758C251.15 357.286 249.018 358.235 247.725 353.287C246.112 347.12 244.203 331.636 244.739 329.071C245.031 327.669 245.74 324.228 246.314 321.424C247.303 316.582 247.397 316.494 248.173 319.68C248.624 321.524 249.626 323.069 250.401 323.112C251.177 323.154 254.868 318.891 258.604 313.639C262.34 308.387 267.862 302.222 270.874 299.937C273.887 297.652 278.335 294.21 280.759 292.289C283.182 290.368 287.988 287.223 291.437 285.299Z" fill="white"/>
<path d="M239.631 283.666C244.779 282.741 249.963 281.579 251.151 281.087C252.339 280.594 253.959 280.184 254.751 280.175C256.226 280.159 245.366 287.16 243.81 287.228C243.337 287.249 238.801 290.952 233.729 295.456C225.52 302.749 210.357 311.743 208.495 310.424C208.111 310.152 210.114 308.158 212.947 305.991C218.422 301.801 220.344 298.508 218.885 295.816C217.139 292.593 209.008 298.834 196.34 313.123C185.093 325.808 176.588 333.716 175.227 332.753C174.936 332.546 176.568 330.132 178.853 327.386C181.14 324.641 184.779 318.277 186.943 313.243C189.106 308.209 191.565 302.485 192.406 300.522C195.195 294.011 204.417 283.406 206.196 284.666C206.594 284.947 206.255 285.763 205.441 286.478C203.084 288.548 201.834 294.128 203.559 294.882C204.404 295.252 210.761 293.259 217.683 290.453C224.607 287.646 234.483 284.592 239.631 283.666Z" fill="white"/>
<path d="M510.145 126.481C514.4 120.132 526.256 112.097 539.961 106.274C547.199 103.199 552.736 100.682 552.267 100.68C550.569 100.672 535.654 104.611 527.24 107.29C513.266 111.738 499.365 117.872 490.684 123.422C482.28 128.796 461.507 145.968 458.631 149.92C453.824 156.527 446.981 158.63 444.225 154.348C442.166 151.146 445.295 146.876 454.215 140.715L460.957 136.059L454.91 138.408C444.895 142.3 439.271 147.417 429.309 161.706C424.086 169.196 416.111 179.212 411.585 183.963C400.011 196.11 398.997 197.344 400.002 198.055C401.654 199.224 423.438 195.425 433.119 192.279C442.318 189.289 451.605 183.951 449.815 182.683C449.346 182.352 447.654 182.576 446.054 183.183C442.395 184.569 435.756 182.969 435.756 180.701C435.756 179.823 437.051 177.31 438.632 175.114C440.911 171.95 442.556 170.984 446.568 170.452C453.12 169.581 455.921 171.245 455.904 175.997C455.891 179.423 451.977 185.192 444.759 192.42L442.236 194.949L446.683 192.723C449.13 191.5 454.277 187.891 458.122 184.705C469.321 175.423 479.727 173.482 488.189 179.095C490.539 180.653 491.79 180.855 493.9 180.016C497.523 178.575 506.261 180.448 510.165 183.503C514.051 186.542 516.399 191.696 516.399 197.182C516.399 199.622 517.047 201.618 517.839 201.618C518.672 201.618 519.279 198.373 519.279 193.92C519.279 181.827 513.306 175.34 496.459 169.133C480.405 163.22 477.518 161.059 477.518 154.955C477.518 150.875 478.218 149.528 481.478 147.332C492.674 139.791 504.735 145.247 496.021 153.911C493.184 156.732 493.155 156.904 495.678 155.947C503.217 153.09 507.759 145.835 507.759 136.647C507.759 132.61 508.686 128.658 510.145 126.481Z" fill="white"/>
<path d="M436.606 119.451C439.257 113.795 441.855 108.289 442.382 107.215C442.907 106.142 440.253 108.476 436.483 112.401C428.073 121.158 417.68 129.656 404.626 138.451C399.174 142.122 389.283 148.775 382.642 153.235C357.282 170.268 344.975 183.775 340.73 199.237C336.813 213.498 333.552 223.111 331.885 225.317C331.093 226.366 330.724 227.77 331.067 228.44C331.408 229.109 333.306 227.134 335.285 224.05C337.262 220.966 340.519 215.919 342.524 212.834C344.527 209.75 348.084 204.222 350.427 200.551C357.056 190.167 364.505 184.87 374.79 183.227C378.574 182.623 379.987 182.92 382.569 184.866C385.214 186.859 385.62 188.116 385.088 192.66C384.245 199.851 373.186 212.173 359.172 221.534C348.231 228.842 339.929 232.149 332.432 232.185C326.885 232.211 326.212 233.934 331.389 234.854C339.458 236.288 352.83 234.796 359.986 231.663C363.783 230 369.264 227.614 372.163 226.361C377.563 224.028 387.374 223.26 388.935 225.048C391.755 228.278 380.914 233.677 362.001 238.464C355.526 240.103 349.87 241.702 349.43 242.019C348.991 242.336 352.197 242.251 356.553 241.833C369.004 240.635 378.439 241.162 382.474 243.279C387.948 246.151 387.595 248.076 380.773 252.563C377.352 254.812 375.023 256.659 375.598 256.666C376.172 256.672 381.032 255.221 386.398 253.44C396.856 249.968 401.73 249.625 422.796 250.882L433.596 251.527L426.203 249.697C417.233 247.475 404.523 241.841 402.528 239.204C400.827 236.953 402.096 230.948 405.182 226.637C408.657 221.784 418.065 217.011 424.274 216.948C429.286 216.899 434.316 219.62 434.316 222.38C434.316 225.372 428.328 231.056 422.427 233.667C419.858 234.804 416.459 236.599 414.875 237.655C412.012 239.565 412.017 239.572 415.595 238.807C424.228 236.964 435.397 230.175 445.574 220.588C457.266 209.575 463.793 206.464 477.731 205.259C482.204 204.873 487.712 204.164 489.971 203.685C493.692 202.895 493.461 202.805 487.492 202.726C475.784 202.57 429.316 208.18 415.905 211.367C402.946 214.448 394.617 212.365 400.66 207.555C403.686 205.146 419.325 199.581 423.071 199.58C424.41 199.579 425.916 199.109 426.417 198.535C428.93 195.657 402.325 201.204 386.338 206.893L377.959 209.874L383.987 204.097C392.278 196.151 401.365 185.092 409.917 172.537C413.882 166.717 419.712 159.638 422.873 156.806C426.036 153.974 428.256 151.657 427.808 151.657C425.896 151.657 411.137 160.094 400.57 167.228C390.314 174.152 383.825 176.839 380.683 175.464C378.518 174.517 379.695 168.371 382.995 163.382C389.296 153.858 405.833 143.214 411.806 144.838C415.162 145.749 414.714 148.837 410.44 154.258C404.547 161.73 407.584 160.764 414.795 152.873C423.166 143.711 430.511 132.453 436.606 119.451Z" fill="white"/>
<path d="M368.693 247.607C356.858 246.436 338.721 242.421 335.746 240.314C330.478 236.584 331.614 244.959 337.871 255.989C343.783 266.406 354.583 273.206 391.114 289.508C404.155 295.328 425.006 315.475 430.264 327.336C435.265 338.618 432.929 370.876 427.11 370.876C424.146 370.876 422.286 365.848 422.281 357.822C422.279 353.165 421.803 349.953 421.226 350.684C418.569 354.047 417.263 364.428 417.85 377.503C418.507 392.075 419.888 397.202 426.547 409.775C432.376 420.782 460.476 453.636 462.708 452.055C463.012 451.841 461.713 450.052 459.822 448.08C457.933 446.108 455.557 442.957 454.544 441.078C453.531 439.199 451.486 435.367 450 432.563C446.145 425.29 442.956 405.084 442.956 387.929C442.956 363.033 438.851 335.315 433.635 325.002C428.406 314.663 413.033 298.129 402.066 291.045C399.639 289.479 391.486 285.512 383.944 282.231C357.873 270.884 347.966 264.735 341.63 255.964C337.763 250.611 338.832 250.859 348.022 257.447C358.326 264.834 369.843 270.46 381.467 273.784C390.272 276.303 396.245 276.417 389.069 273.93C384.614 272.385 378.507 267.305 379.911 266.31C380.374 265.981 383.506 266.706 386.869 267.92C390.232 269.136 398.881 271.747 406.089 273.724C418.35 277.087 419.951 277.282 430.923 276.742C440.747 276.259 443.855 275.641 450.076 272.931C457.33 269.77 459.472 267.488 452.801 270.029C450.95 270.734 445.548 271.331 440.796 271.357C433.71 271.394 431.023 270.886 425.851 268.533C418.328 265.11 407.478 257.411 406.219 254.605C405.725 253.502 404.495 252.6 403.486 252.6C402.099 252.6 401.926 253.782 402.777 257.443C404.403 264.436 404.337 264.835 401.555 264.838C397.131 264.844 372.394 258.359 369.46 256.424C365.416 253.757 365.919 252.819 372.034 251.62C382.206 249.625 381.59 248.885 368.693 247.607Z" fill="white"/>
<path d="M365.229 285.299C358.57 281.585 351.357 276.222 344.364 269.784C342.017 267.623 336.173 262.523 335.746 262.523C334.331 262.523 340.709 294.745 342.967 303.432C345.332 312.527 349.54 320.688 359.865 336.209C383.603 371.885 391.676 397.059 386.938 420.631C385.366 428.46 387.531 428.1 390.335 420.068C396.591 402.143 398.79 389.114 398.899 369.346C399.012 348.818 397.893 345.588 387.884 337.565C384.339 334.722 382.919 332.55 382.668 329.581C381.858 319.995 391.598 319.396 398.59 328.602C402.632 333.924 405.486 343.479 405.503 351.758C405.516 357.286 407.648 358.235 408.941 353.287C410.554 347.12 412.463 331.636 411.927 329.071C411.635 327.669 410.927 324.228 410.352 321.424C409.363 316.582 409.269 316.494 408.493 319.68C408.042 321.524 407.04 323.069 406.265 323.112C405.489 323.154 401.798 318.891 398.063 313.639C394.326 308.387 388.804 302.222 385.792 299.937C382.779 297.652 378.331 294.21 375.907 292.289C373.484 290.368 368.678 287.223 365.229 285.299Z" fill="white"/>
<path d="M417.035 283.666C411.887 282.741 406.703 281.579 405.515 281.087C404.327 280.594 402.707 280.184 401.915 280.175C400.44 280.159 411.3 287.16 412.856 287.228C413.329 287.249 417.865 290.952 422.937 295.456C431.146 302.749 446.309 311.743 448.171 310.424C448.555 310.152 446.552 308.158 443.72 305.991C438.244 301.801 436.322 298.508 437.781 295.816C439.528 292.593 447.658 298.834 460.326 313.123C471.573 325.808 480.078 333.716 481.439 332.753C481.73 332.546 480.098 330.132 477.813 327.386C475.526 324.641 471.887 318.277 469.723 313.243C467.56 308.209 465.102 302.485 464.261 300.522C461.471 294.011 452.249 283.406 450.471 284.666C450.072 284.947 450.412 285.763 451.225 286.478C453.583 288.548 454.832 294.128 453.107 294.882C452.262 295.252 445.906 293.259 438.983 290.453C432.059 287.646 422.184 284.592 417.035 283.666Z" fill="white"/>
<path d="M313.64 208.258C315.17 187.399 311.576 141.22 284.965 123.377C297.964 129.985 325.053 151.133 328.265 177.899C331.477 151.133 358.852 130.605 371.852 123.996C345.241 141.84 341.36 188.019 342.89 208.877L338.015 233.66C339.927 273.572 340.194 360.453 328.265 391.163C316.336 360.453 317.177 272.952 319.089 233.041L313.64 208.258Z" fill="white"/>
</svg>
