<svg width="657" height="502" viewBox="0 0 657 502" fill="none" xmlns="http://www.w3.org/2000/svg">
<path d="M313.64 208.258C315.17 187.399 311.576 141.22 284.965 123.377C297.964 129.985 325.053 151.133 328.265 177.899C331.477 151.133 358.852 130.605 371.852 123.996C345.241 141.84 341.36 188.019 342.89 208.877L338.015 233.66C339.926 273.572 340.194 360.453 328.265 391.163C316.336 360.453 317.177 272.952 319.089 233.041L313.64 208.258Z" fill="white"/>
<path d="M494.666 207.016C494.666 207.553 497.001 206.11 499.853 203.809C510.149 195.503 528.048 184.363 531.207 184.297C532.01 184.279 533.649 183.703 534.85 183.016C537.482 181.511 538.345 181.41 538.345 182.606C538.345 183.103 537.657 183.757 536.816 184.06C532.073 185.77 518.767 194.536 514.269 198.912C508.914 204.122 504.276 209.317 504.276 210.105C504.276 210.349 502.954 212.417 501.339 214.702C498.468 218.761 496.697 221.939 486.348 241.583C480.605 252.487 478.673 255.987 476.547 259.341C473.53 264.098 455.151 287.562 454.752 287.163C454.134 286.544 455.95 283.434 461.566 275.497C470.914 262.285 478.909 242.812 478.931 233.196C478.943 227.948 477.348 225.398 474.069 225.426C468.309 225.476 449.28 241.658 442.555 252.224C441.69 253.583 440.777 254.892 440.525 255.132C438.899 256.688 429.222 276.703 426.866 283.385C423.88 291.855 409.462 309.138 400.269 315.269C395.577 318.398 384.401 324.082 377.609 326.792C372.753 328.73 372.04 329.074 366.351 332.215C361.913 334.667 351.286 341.83 349.561 343.533C347.577 345.492 344.47 349.76 341.969 353.783C342.196 350.534 342.398 347.234 342.576 343.901C343.293 342.703 344.032 341.546 344.794 340.432C352.995 328.441 371.338 312.475 378.919 310.729C381.405 310.157 381.323 310.314 377.321 313.789C373.278 317.297 368.873 323.168 368.873 325.046C368.873 327.377 377.824 324.365 383.287 320.196C387.304 317.13 390.689 311.102 391.302 305.917C391.765 302.003 391.638 301.596 389.769 301.002C388.647 300.646 386.741 299.227 385.532 297.849C382.757 294.683 379.097 294.559 373.423 297.435C367.711 300.332 364.787 303.509 361.272 310.64L358.256 316.759L358.803 311.951C359.297 307.604 362.106 300.736 364.787 297.319C366.266 295.432 378.792 282.856 380.379 281.662C382.875 279.786 391.268 276.131 394.273 275.613C397.208 275.106 397.184 275.144 392.987 277.701C387.062 281.31 384.16 285.239 384.166 289.641C384.172 293.97 386.551 297.347 390.712 298.934C394.972 300.559 396.402 300.559 401.519 298.947C410.228 296.201 420.337 282.936 421.102 273.252C421.45 268.832 421.207 267.786 419.135 264.794C415.902 260.126 412.356 258.629 404.527 258.629C393.549 258.629 380.07 264.321 363.85 275.807C362.769 276.572 361.885 276.968 361.885 276.685C361.885 275.696 366.735 271.22 371.06 268.217C375.649 265.031 376.84 264.333 384.597 260.273C389.284 258.442 404.117 255.378 410.947 254.076C416.898 253.404 431.233 249.091 436.049 246.522C442.942 242.847 454.482 235.61 454.482 234.964C454.482 234.64 458.118 231.967 462.563 229.025C467.008 226.082 471.465 222.973 472.467 222.114L494.666 207.016Z" fill="white"/>
<path d="M494.666 207.016C494.666 207.553 497.001 206.11 499.853 203.809L494.666 207.016Z" fill="white"/>
<path d="M338.931 359.227C335.332 366.887 333.234 375.112 330.579 392.56C330.386 393.828 330.19 395.144 329.991 396.512C329.948 396.805 329.905 397.1 329.862 397.398C329.567 399.441 328.996 401.113 328.592 401.113C328.407 401.113 328.273 400.885 328.202 400.511C328.126 400.114 328.121 399.553 328.202 398.923C328.211 398.853 328.221 398.781 328.232 398.709C328.437 397.386 328.815 393.355 329.071 389.749C329.501 383.713 330.402 377.721 331.719 371.95C334.096 361.536 337.825 351.841 342.576 343.901C342.398 347.234 342.196 350.534 341.969 353.783C340.742 355.757 339.661 357.673 338.931 359.227Z" fill="white"/>
<path d="M161.737 207.016C161.737 207.553 159.403 206.11 156.551 203.809C146.254 195.503 128.356 184.363 125.197 184.297C124.394 184.279 122.755 183.703 121.553 183.016C118.921 181.511 118.059 181.41 118.059 182.606C118.059 183.103 118.747 183.757 119.588 184.06C124.33 185.77 137.637 194.536 142.135 198.912C147.489 204.122 152.128 209.317 152.128 210.105C152.128 210.349 153.45 212.417 155.065 214.702C157.936 218.761 159.707 221.939 170.055 241.583C175.799 252.487 177.731 255.987 179.857 259.341C182.874 264.098 201.253 287.562 201.651 287.163C202.27 286.544 200.454 283.434 194.838 275.497C185.49 262.285 177.495 242.812 177.473 233.196C177.461 227.948 179.056 225.398 182.335 225.426C188.094 225.476 207.123 241.658 213.849 252.224C214.714 253.583 215.627 254.892 215.878 255.132C217.505 256.688 227.181 276.703 229.537 283.385C232.524 291.855 246.941 309.138 256.135 315.269C260.827 318.398 272.003 324.082 278.795 326.792C283.65 328.73 284.364 329.074 290.053 332.215C294.491 334.667 305.118 341.83 306.843 343.533C308.827 345.492 311.934 349.76 314.434 353.783C314.207 350.534 314.006 347.234 313.828 343.901C313.111 342.703 312.371 341.546 311.61 340.432C303.409 328.441 285.065 312.475 277.485 310.729C274.998 310.157 275.081 310.314 279.082 313.789C283.125 317.297 287.531 323.168 287.531 325.046C287.531 327.377 278.579 324.365 273.117 320.196C269.099 317.13 265.715 311.102 265.102 305.917C264.639 302.003 264.766 301.596 266.635 301.002C267.757 300.646 269.663 299.227 270.872 297.849C273.647 294.683 277.306 294.559 282.98 297.435C288.692 300.332 291.616 303.509 295.132 310.64L298.148 316.759L297.601 311.951C297.107 307.604 294.298 300.736 291.617 297.319C290.137 295.432 277.612 282.856 276.025 281.662C273.529 279.786 265.136 276.131 262.131 275.613C259.196 275.106 259.219 275.144 263.417 277.701C269.341 281.31 272.244 285.239 272.238 289.641C272.232 293.97 269.853 297.347 265.692 298.934C261.432 300.559 260.002 300.559 254.885 298.947C246.176 296.201 236.066 282.936 235.302 273.252C234.953 268.832 235.196 267.786 237.268 264.794C240.501 260.126 244.048 258.629 251.877 258.629C262.855 258.629 276.334 264.321 292.554 275.807C293.635 276.572 294.519 276.968 294.519 276.685C294.519 275.696 289.668 271.22 285.343 268.217C280.754 265.031 279.564 264.333 271.806 260.273C267.119 258.442 252.287 255.378 245.456 254.076C239.506 253.404 225.171 249.091 220.354 246.522C213.462 242.847 201.921 235.61 201.921 234.964C201.921 234.64 198.286 231.967 193.841 229.025C189.396 226.082 184.939 222.973 183.936 222.114L161.737 207.016Z" fill="white"/>
<path d="M161.737 207.016C161.737 207.553 159.403 206.11 156.551 203.809L161.737 207.016Z" fill="white"/>
<path d="M317.473 359.227C321.072 366.887 323.17 375.112 325.825 392.56C326.018 393.828 326.213 395.144 326.413 396.512C326.456 396.805 326.498 397.1 326.541 397.398C326.837 399.441 327.408 401.113 327.812 401.113C327.996 401.113 328.131 400.885 328.202 400.511C328.278 400.114 328.282 399.553 328.202 398.923C328.193 398.853 328.183 398.781 328.172 398.709C327.967 397.386 327.589 393.355 327.333 389.749C326.894 383.594 325.966 377.485 324.606 371.608C322.226 361.324 318.527 351.754 313.828 343.901C314.006 347.234 314.207 350.534 314.434 353.783C315.662 355.757 316.743 357.673 317.473 359.227Z" fill="white"/>
<path d="M328.202 398.923C328.211 398.853 328.221 398.781 328.232 398.709C328.437 397.386 328.815 393.355 329.071 389.749C329.501 383.713 330.402 377.721 331.719 371.95L324.606 371.608C325.966 377.485 326.894 383.594 327.333 389.749C327.589 393.355 327.967 397.386 328.172 398.709C328.183 398.781 328.193 398.853 328.202 398.923Z" fill="white"/>
<path d="M328.202 400.511C328.131 400.885 327.996 401.113 327.812 401.113H328.592C328.407 401.113 328.273 400.885 328.202 400.511Z" fill="white"/>
<path fill-rule="evenodd" clip-rule="evenodd" d="M450.99 138.98C450.99 139.289 447.812 142.855 443.927 146.904C435.962 155.205 432.923 160.8 432.116 168.649C431.148 178.066 435.319 180.296 450.681 178.578C465.484 176.922 473.104 173.462 487.243 161.976C496.594 154.379 499.123 152.19 501.807 149.367C504.933 146.078 504.958 147.39 501.858 152.071C492.574 166.088 485.419 174.828 475.491 184.275C460.065 198.955 451.628 207.529 452.122 208.023C452.403 208.305 454.721 208.066 457.271 207.492C474.971 203.507 480.812 201.038 486.981 194.932C492.59 189.381 497.443 180.95 497.958 175.864L498.369 171.788L506.783 169.557C511.411 168.329 519.521 166.679 524.806 165.892C530.091 165.103 536.97 164.071 540.093 163.598C549.729 162.136 583.472 163.257 595.099 165.425C600.608 166.452 605.502 167.679 605.975 168.152C606.447 168.624 607.639 169.024 608.624 169.041C609.609 169.058 611.988 169.851 613.909 170.806L617.404 172.542L608.532 171.981C598.035 171.317 593.02 172.283 584.208 176.665C577.466 180.018 565.977 188.867 558.392 196.551C557.166 197.793 555.163 199.48 553.941 200.3C552.719 201.12 549.595 203.211 546.999 204.945C544.402 206.68 537.167 210.749 530.922 213.987C524.676 217.226 519.369 220.154 519.129 220.495C518.887 220.836 517.165 222.263 515.299 223.665C512.363 225.872 508.764 230.207 502.226 239.411C499.596 243.114 499.578 241.217 502.188 235.293C506.045 226.542 513.149 218.187 526.607 206.569C530.157 203.505 539.034 196.984 539.656 196.984C539.937 196.984 540.642 196.596 541.222 196.123C546.165 192.088 547.889 190.865 548.624 190.865C550.319 190.865 558.194 182.367 560.172 178.404C562.071 174.599 562.109 174.219 560.786 172.199C558.919 169.348 551.551 166.9 546.766 167.543C529.479 169.864 525.333 171.203 516.733 177.243C512.257 180.387 509.001 183.631 505.595 188.34C502.948 192 500.783 195.224 500.783 195.505C496.706 201.547 486.194 207.295 481.447 209.414C474.896 211.923 462.523 215.183 457.105 215.827C450.918 216.562 443.62 218.593 439.196 220.809C436.048 222.138 410.649 239.278 398.343 247.682C399.863 245.038 402.359 241.516 403.888 239.855C405.417 238.193 406.278 236.703 405.802 236.544C404.933 236.255 404.069 236.447 391.15 239.815C387.307 240.817 381.607 242.2 378.484 242.888C364.134 246.049 361.961 246.91 357.789 251.093C353.489 255.404 348.783 262.163 348.783 264.026C348.783 265.677 352.442 265.428 357.727 263.419C358.138 263.262 358.516 263.118 358.864 262.985L358.87 262.983C361.461 261.993 362.346 261.655 362.514 261.872C362.601 261.984 362.496 262.246 362.336 262.644C362.316 262.691 362.297 262.74 362.276 262.791C362.252 262.852 362.227 262.915 362.202 262.981C361.925 263.702 361.31 264.292 360.835 264.292C360.361 264.292 358.928 265.035 357.653 265.943C356.377 266.851 352.189 269.272 348.346 271.323C344.502 273.374 341.161 275.32 340.92 275.648C340.68 275.975 339.831 276.601 339.034 277.041C338.35 277.418 335.49 279.803 332.185 282.685L331.693 264.292C336.78 264.292 338.993 262.345 344.913 252.667C352.92 239.578 354.163 237.873 359.568 232.569C364.783 227.451 366.808 226.579 364.188 230.58C362.596 233.01 362.317 235.943 363.601 236.737C365.21 237.731 373.15 232.823 378.74 227.378C383.281 222.952 384.893 220.603 387.103 215.183C390.037 207.985 390.573 202.692 388.635 200.04C386.659 197.334 381.24 199.491 377.086 204.637C375.245 206.918 373.416 209.013 373.022 209.292C372.629 209.571 372.069 211.266 371.778 213.057C371.321 215.879 371.5 216.38 373.12 216.804C374.148 217.072 374.989 217.677 374.989 218.146C374.989 218.666 371.574 218.883 366.284 218.701C359.434 218.464 357.252 218.074 356.05 216.87C354.596 215.414 354.641 215.34 356.981 215.34C358.332 215.34 360.715 214.735 362.275 213.993C365.666 212.383 374.989 204.236 374.989 202.883C374.989 202.359 375.518 201.308 376.164 200.549C376.811 199.79 378.005 197.451 378.818 195.352C380.155 191.904 380.169 191.338 378.961 189.492C378.178 188.296 376.364 187.213 374.583 186.879C371.496 186.3 362.76 187.898 362.76 189.042C362.76 189.386 361.439 190.296 359.825 191.067C355.609 193.079 344.738 202.407 341.5 206.792C339.98 208.849 337.878 212.303 336.829 214.466C332.718 222.945 332.185 225.504 332.185 236.774C332.185 243.323 331.842 247.683 331.328 247.683C328.739 247.683 328.459 230.687 330.888 221.022C332.946 212.834 339.001 201.047 344.229 195.053C348.576 190.067 356.71 182.588 360.411 180.172C362.423 178.859 364.463 177.462 364.943 177.067C365.749 176.405 370.262 174.55 380.231 170.783C382.393 169.966 385.931 168.8 388.093 168.191C392.108 167.059 404.068 163.128 412.379 160.209C420.39 157.394 447.16 142.202 448.631 139.635C449.338 138.403 450.99 137.943 450.99 138.98ZM409.764 185.324C412.264 178.658 412.19 176.533 409.377 174.32C408.111 173.323 406.592 172.508 406.001 172.508C403.969 172.508 400.448 176.036 399.445 179.078C398.892 180.753 397.968 182.123 397.389 182.123C396.812 182.123 395.042 180.747 393.456 179.064C391.2 176.671 389.888 176.004 387.435 176.004C384.067 176.004 381.087 178.031 381.131 180.292C381.165 181.955 384.154 184.25 387.295 185.025C391.809 186.137 398.576 194.334 398.576 198.688C398.576 199.674 398.946 200.48 399.399 200.48C400.966 200.48 407.858 190.403 409.764 185.324ZM429.627 185.275C429.939 183.612 429.751 181.498 429.199 180.467C427.96 178.15 426.508 178.142 423.59 180.439C421.754 181.884 421.288 182.996 421.288 185.935C421.288 189.649 423.813 195.828 425.861 197.129C426.666 197.64 426.559 197.835 425.468 197.845C424.644 197.852 422.763 196.678 421.288 195.235C416.307 190.363 411.415 192.047 404.254 201.101C401.371 204.745 398.568 208.185 398.025 208.744C397.482 209.304 395.939 212.098 394.597 214.955C393.254 217.811 391.367 221.225 390.404 222.542C389.442 223.857 388.897 225.178 389.194 225.475C390.118 226.4 415.606 213.172 419.701 209.642C424.422 205.574 434.346 197.261 436.827 195.296C439.872 192.885 442.736 187.263 441.956 185.23C441.116 183.039 435.819 183.518 432.804 186.057C429.396 188.927 428.963 188.82 429.627 185.275Z" fill="white"/>
<path fill-rule="evenodd" clip-rule="evenodd" d="M205.414 138.98C205.414 139.289 208.592 142.855 212.477 146.904C220.442 155.205 223.48 160.8 224.287 168.649C225.255 178.066 221.085 180.296 205.722 178.578C190.92 176.922 183.3 173.462 169.161 161.976C159.81 154.379 157.281 152.19 154.597 149.367C151.471 146.078 151.445 147.39 154.546 152.071C163.83 166.088 170.985 174.828 180.912 184.275C196.339 198.955 204.776 207.529 204.282 208.023C204.001 208.305 201.683 208.066 199.132 207.492C181.433 203.507 175.591 201.038 169.422 194.932C163.814 189.381 158.961 180.95 158.446 175.864L158.035 171.788L149.62 169.557C144.993 168.329 136.883 166.679 131.598 165.892C126.313 165.103 119.434 164.071 116.311 163.598C106.674 162.136 72.9319 163.257 61.3047 165.425C55.796 166.452 50.9014 167.679 50.4288 168.152C49.9571 168.624 48.7647 169.024 47.7793 169.041C46.7948 169.058 44.4161 169.851 42.4942 170.806L39 172.542L47.872 171.981C58.3687 171.317 63.3838 172.283 72.1954 176.665C78.9376 180.018 90.4268 188.867 98.012 196.551C99.2376 197.793 101.241 199.48 102.463 200.3C103.685 201.12 106.809 203.211 109.405 204.945C112.002 206.68 119.237 210.749 125.482 213.987C131.728 217.226 137.035 220.154 137.275 220.495C137.516 220.836 139.239 222.263 141.105 223.665C144.041 225.872 147.64 230.207 154.178 239.411C156.808 243.114 156.826 241.217 154.215 235.293C150.359 226.542 143.255 218.187 129.797 206.569C126.246 203.505 117.369 196.984 116.747 196.984C116.467 196.984 115.762 196.596 115.182 196.123C110.238 192.088 108.515 190.865 107.779 190.865C106.085 190.865 98.2093 182.367 96.2316 178.404C94.3324 174.599 94.2949 174.219 95.6175 172.199C97.4843 169.348 104.853 166.9 109.638 167.543C126.924 169.864 131.071 171.203 139.67 177.243C144.147 180.387 147.402 183.631 150.808 188.34C153.455 192 155.621 195.224 155.621 195.505C159.697 201.547 170.21 207.295 174.956 209.414C181.507 211.923 193.88 215.183 199.299 215.827C205.486 216.562 212.783 218.593 217.207 220.809C220.355 222.138 245.754 239.278 258.06 247.682C256.54 245.038 254.045 241.516 252.516 239.855C250.987 238.193 250.126 236.703 250.602 236.544C251.471 236.255 252.335 236.447 265.253 239.815C269.097 240.817 274.797 242.2 277.92 242.888C292.27 246.049 294.443 246.91 298.615 251.093C302.914 255.404 307.621 262.163 307.621 264.026C307.621 265.677 303.962 265.428 298.677 263.419C298.265 263.262 297.887 263.118 297.54 262.985L297.534 262.983C294.943 261.993 294.058 261.655 293.89 261.872C293.803 261.984 293.908 262.246 294.068 262.644C294.087 262.691 294.107 262.74 294.127 262.791C294.151 262.852 294.176 262.915 294.201 262.981C294.478 263.702 295.093 264.292 295.569 264.292C296.043 264.292 297.476 265.035 298.751 265.943C300.026 266.851 304.214 269.272 308.058 271.323C311.902 273.374 315.243 275.32 315.483 275.648C315.724 275.975 316.573 276.601 317.37 277.041C318.054 277.418 320.914 279.803 324.219 282.685L324.711 264.292C319.624 264.292 317.41 262.345 311.49 252.667C303.484 239.578 302.241 237.873 296.836 232.569C291.621 227.451 289.596 226.579 292.216 230.58C293.808 233.01 294.087 235.943 292.803 236.737C291.194 237.731 283.254 232.823 277.664 227.378C273.122 222.952 271.511 220.603 269.301 215.183C266.366 207.985 265.831 202.692 267.768 200.04C269.745 197.334 275.164 199.491 279.318 204.637C281.159 206.918 282.988 209.013 283.382 209.292C283.775 209.571 284.335 211.266 284.625 213.057C285.082 215.879 284.903 216.38 283.284 216.804C282.255 217.072 281.414 217.677 281.414 218.146C281.414 218.666 284.83 218.883 290.12 218.701C296.97 218.464 299.152 218.074 300.354 216.87C301.808 215.414 301.763 215.34 299.423 215.34C298.071 215.34 295.689 214.735 294.129 213.993C290.738 212.383 281.414 204.236 281.414 202.883C281.414 202.359 280.886 201.308 280.239 200.549C279.593 199.79 278.399 197.451 277.585 195.352C276.249 191.904 276.235 191.338 277.443 189.492C278.226 188.296 280.04 187.213 281.82 186.879C284.908 186.3 293.644 187.898 293.644 189.042C293.644 189.386 294.965 190.296 296.578 191.067C300.795 193.079 311.666 202.407 314.904 206.792C316.424 208.849 318.526 212.303 319.574 214.466C323.686 222.945 324.219 225.504 324.219 236.774C324.219 243.323 324.561 247.683 325.076 247.683C327.664 247.683 327.945 230.687 325.516 221.022C323.458 212.834 317.403 201.047 312.175 195.053C307.827 190.067 299.694 182.588 295.992 180.172C293.98 178.859 291.941 177.462 291.46 177.067C290.655 176.405 286.142 174.55 276.173 170.783C274.011 169.966 270.473 168.8 268.311 168.191C264.296 167.059 252.336 163.128 244.025 160.209C236.013 157.394 209.244 142.202 207.773 139.635C207.066 138.403 205.414 137.943 205.414 138.98ZM246.639 185.324C244.139 178.658 244.214 176.533 247.026 174.32C248.292 173.323 249.811 172.508 250.403 172.508C252.435 172.508 255.956 176.036 256.959 179.078C257.512 180.753 258.436 182.123 259.014 182.123C259.592 182.123 261.362 180.747 262.948 179.064C265.203 176.671 266.516 176.004 268.969 176.004C272.337 176.004 275.317 178.031 275.272 180.292C275.239 181.955 272.25 184.25 269.108 185.025C264.595 186.137 257.828 194.334 257.828 198.688C257.828 199.674 257.458 200.48 257.005 200.48C255.438 200.48 248.545 190.403 246.639 185.324ZM226.776 185.275C226.464 183.612 226.652 181.498 227.204 180.467C228.444 178.15 229.896 178.142 232.813 180.439C234.65 181.884 235.115 182.996 235.115 185.935C235.115 189.649 232.591 195.828 230.542 197.129C229.738 197.64 229.845 197.835 230.936 197.845C231.76 197.852 233.641 196.678 235.115 195.235C240.096 190.363 244.988 192.047 252.15 201.101C255.033 204.745 257.836 208.185 258.378 208.744C258.922 209.304 260.464 212.098 261.807 214.955C263.15 217.811 265.037 221.225 265.999 222.542C266.962 223.857 267.507 225.178 267.209 225.475C266.286 226.4 240.798 213.172 236.703 209.642C231.982 205.574 222.058 197.261 219.576 195.296C216.532 192.885 213.668 187.263 214.448 185.23C215.288 183.039 220.584 183.518 223.6 186.057C227.008 188.927 227.441 188.82 226.776 185.275Z" fill="white"/>
</svg>
