<svg width="293" height="750" viewBox="0 0 293 750" fill="none" xmlns="http://www.w3.org/2000/svg">
<path d="M0.000100289 0L179.855 15.0516C186.152 15.5411 191.399 16.6424 195.597 18.3556C200.057 20.0688 202.287 21.9044 202.287 23.8623V118.577C202.287 119.72 203.73 120.739 206.617 121.637C209.503 122.616 212.782 123.105 216.455 123.105C221.965 123.105 224.72 122.208 224.72 120.413V18.8451L292.412 24.4742L292.412 153.82C292.412 156.186 290.05 158.103 285.328 159.572C280.867 161.04 274.833 161.774 267.224 161.774C264.338 161.774 261.452 161.652 258.566 161.407L168.835 153.943C159.39 153.127 151.388 151.454 144.828 148.925C138.269 146.396 134.989 143.623 134.989 140.604L134.989 35.7323C134.989 33.448 131.185 31.9796 123.576 31.3269L9.73299e-05 21.0478L0.000100289 0Z" fill="#4200FF"/>
<path d="M168.835 300.812L5.9962e-05 286.861L6.4882e-05 251.863L123.576 262.142C124.626 262.224 125.675 262.265 126.725 262.265C132.235 262.265 134.989 261.367 134.989 259.573L134.989 186.15L202.287 191.779V244.276C202.287 245.418 203.73 246.438 206.616 247.335C209.503 248.314 212.782 248.804 216.455 248.804C221.965 248.804 224.72 247.906 224.72 246.112V165.714L292.411 171.343V265.691C292.411 268.057 290.05 269.974 285.327 271.442C280.867 272.993 274.833 273.768 267.224 273.768C264.338 273.768 261.452 273.645 258.566 273.4L202.287 268.75V293.225C202.287 295.59 200.057 297.507 195.597 298.976C191.137 300.444 185.102 301.179 177.493 301.179C174.607 301.179 171.721 301.056 168.835 300.812ZM202.287 184.804L134.989 179.175V158.249L202.287 163.756V184.804Z" fill="#4200FF"/>
<path d="M292.411 423.084V457.96L224.72 452.331C225.507 447.68 222.621 443.438 216.062 439.604L127.905 387.841C122.658 384.741 114.656 382.171 103.899 380.132C98.6512 379.153 94.0597 378.5 90.1242 378.174L4.81747e-05 370.709L5.21141e-05 342.686L112.557 352.109C114.393 352.272 116.361 352.354 118.46 352.354C129.48 352.354 134.989 350.559 134.989 346.969L134.989 311.971C134.989 308.463 140.499 306.709 151.519 306.709C153.355 306.709 155.323 306.791 157.422 306.954L202.287 310.625V373.646C203.337 376.746 207.141 379.642 213.7 382.334L271.947 406.319C279.818 409.501 285.59 413.253 289.263 417.577C291.362 420.025 292.411 421.86 292.411 423.084ZM292.411 339.137L224.72 333.508V312.583L292.411 318.212V339.137Z" fill="#4200FF"/>
<path d="M279.031 516.966C288.738 521.616 293.199 525.287 292.411 527.98V541.93C292.411 548.864 282.966 553.759 264.075 556.614L142.467 574.97C124.363 577.744 114.393 582.72 112.557 589.899L1.86856e-05 580.477L2.35884e-05 545.601C2.49073e-05 536.219 13.6433 530.835 40.9298 529.448L209.765 527.612C220.784 527.531 225.769 525.777 224.72 522.351C224.982 519.903 221.834 517.211 215.275 514.274L147.977 483.926C139.319 480.01 134.989 476.339 134.989 472.913L134.989 451.865L202.287 457.494V478.542C202.287 480.5 205.173 482.539 210.946 484.66L279.031 516.966Z" fill="#4200FF"/>
<path d="M292.411 741.296C292.411 743.662 290.05 745.579 285.327 747.047C280.867 748.516 274.833 749.25 267.224 749.25C264.338 749.25 261.452 749.128 258.566 748.883L44.8653 731.139C32.5339 730.16 21.9079 727.917 12.9873 724.409C4.32911 720.982 -5.50491e-07 717.311 0 713.395L1.77017e-05 587.476L112.557 596.898L112.557 698.344C112.557 700.71 116.23 702.178 123.576 702.749L213.7 710.214C214.75 710.295 215.668 710.336 216.455 710.336C221.965 710.336 224.72 709.439 224.72 707.644L224.72 606.321L292.411 611.95L292.411 741.296ZM202.287 625.411L134.989 619.782V598.734L202.287 604.363V625.411Z" fill="#4200FF"/>
</svg>
