<svg width="574" height="278" viewBox="0 0 574 278" fill="none" xmlns="http://www.w3.org/2000/svg">
<path fill-rule="evenodd" clip-rule="evenodd" d="M77 58.4549C77 58.9723 81.0571 61.7937 86.0147 64.7246C104.071 75.3977 110.661 83.5067 128.363 116.829C136.08 131.356 140.721 138.655 149.163 149.545C155.141 157.255 160.276 163.318 160.576 163.02C160.875 162.72 157.89 157.528 153.941 151.48C146.078 139.438 142.226 131.623 139.006 121.178C135.579 110.065 136.575 101.593 141.307 101.593C143.564 101.593 154.299 109.105 161.034 115.397C169.86 123.642 176.883 134.082 183.453 148.725C191.158 165.899 191.579 166.641 198.619 175.451C207.897 187.061 214.015 191.565 232.735 200.562C261.691 214.477 270.684 222.065 277.202 238.083C279.276 243.182 282.941 259.44 285.142 273.314C285.469 275.37 286.157 277.052 286.67 277.052C287.805 277.052 288.125 275.74 290.623 260.89C291.703 254.469 293.526 246.394 294.674 242.945C297.505 234.443 303.568 224.432 308.787 219.639C314.819 214.1 326.604 206.974 337.623 202.201C342.766 199.974 349.91 196.53 353.497 194.549C364.644 188.395 381.247 170.16 385.488 159.415C389.196 150.016 396.761 134.933 400.584 129.31C408.579 117.552 425.738 102.761 431.914 102.305C434.238 102.133 435.092 102.679 436.271 105.082C439.566 111.802 431.917 132.953 419.227 152.208C415.878 157.291 413.389 161.702 413.698 162.01C414.253 162.565 425.761 148.573 432.643 138.978C434.608 136.236 440.965 125.138 446.77 114.316C459.554 90.4752 463.198 85.031 472.008 76.596C478.441 70.437 492.59 60.719 495.123 60.719C495.763 60.719 496.287 60.053 496.287 59.2395C496.287 57.9525 495.802 57.9665 492.544 59.3532C480.118 64.6399 479.587 64.9569 456.355 80.8968C453.884 82.5915 443.327 89.8113 432.895 96.9393C422.463 104.068 413.021 110.704 411.913 111.685C407.211 115.85 392.503 123.742 385.08 126.082C380.672 127.473 372.556 129.491 367.045 130.566C344.697 134.924 335.6 138.674 324.781 147.984C319.431 152.588 320.004 153.602 325.757 149.714C342.205 138.597 357.745 133.408 368.475 135.449C374.822 136.656 379.49 141.849 379.476 147.686C379.453 157.687 368.533 172.148 358.89 174.948C353.913 176.392 353.331 176.368 349.183 174.535C345.719 173.006 344.515 171.816 343.587 169.007C342.936 167.038 342.692 164.521 343.045 163.412C344.02 160.342 348.411 155.545 351.902 153.735C356.724 151.235 353.498 151.108 346.929 153.54C342.163 155.303 339.21 157.515 331.321 165.226C321.376 174.946 318.858 179.087 317.281 188.326C316.618 192.205 316.139 192.73 322.715 182.37C325.54 177.921 327.514 176.073 331.646 174.018C338.353 170.68 339.437 170.711 344.046 174.369C346.119 176.014 348.202 177.359 348.676 177.359C349.149 177.359 349.537 178.981 349.537 180.963C349.537 186.271 345.017 193.807 339.741 197.297C335.381 200.181 329.072 202.117 327.888 200.934C327.074 200.122 332.084 193.5 336.455 189.61C338.434 187.848 339.474 186.39 338.765 186.37C334.131 186.234 317.799 198.776 308.644 209.5C301.883 217.42 294.787 230.839 292.007 240.963C290.293 247.201 290.26 247.242 286.915 246.945C283.63 246.653 283.478 246.435 280.612 237.899C277.03 227.23 274.711 222.542 269.111 214.649C261.669 204.158 243.964 188.917 236.738 186.78C234.711 186.181 235.31 187.187 239.982 192.227C243.135 195.627 245.713 199.055 245.713 199.847C245.713 203.661 233.814 198.641 228.985 192.79C224.974 187.931 221.978 177.359 224.611 177.359C225.085 177.359 227.169 176.014 229.241 174.369C233.797 170.754 235.412 170.675 241.503 173.771C247.202 176.667 249.673 179.21 253.742 186.361L256.845 191.815L256.245 187.495C254.744 176.671 241.995 161.186 229.409 154.899C220.312 150.355 216.569 150.208 222.955 154.646C230.705 160.033 232.853 166.43 228.688 171.718C223.325 178.527 211.718 176.58 203.495 167.491C198.858 162.366 195.172 155.101 194.322 149.415C193.767 145.702 194.048 144.378 196.012 141.47C199.182 136.775 202.898 135.195 210.765 135.195C220.796 135.195 230.895 139.003 245.077 148.132C248.846 150.558 252.12 152.351 252.354 152.118C253.321 151.152 242.353 142.522 235.76 139.062C230.172 136.129 224.791 134.506 210.482 131.438C200.484 129.294 189.651 126.587 186.407 125.421C180.224 123.201 166.074 115.252 161.21 111.266C159.644 109.983 150.275 103.393 140.392 96.6233C130.509 89.8531 117.481 80.8848 111.441 76.6947C97.7048 67.1651 89.6176 62.2871 84.4873 60.4348C82.291 59.6423 79.7074 58.6613 78.747 58.2546C77.7867 57.8478 77 57.9385 77 58.4549Z" fill="#FF0000"/>
<path fill-rule="evenodd" clip-rule="evenodd" d="M251.201 5.32512C262.933 18.0246 268.984 35.3564 272.044 65.0229L272.714 71.5191L263.851 63.0211C258.877 58.2509 252.358 53.133 248.994 51.357C245.698 49.616 233.357 44.9977 221.571 41.096C199.399 33.7544 186.335 27.6969 171.665 17.9547C167.594 15.2513 164.118 13.1835 163.941 13.3614C163.763 13.5383 166.819 17.2521 170.731 21.6135C179.23 31.0889 182.54 37.5321 182.553 44.63C182.569 52.9141 178.765 54.6431 164.169 52.984C148.416 51.1931 139.76 46.7217 120.617 30.4863C115.128 25.831 110.637 22.2771 110.637 22.5899C110.637 23.3685 118.005 34.2491 123.467 41.5368C125.938 44.8348 135.84 55.2767 145.47 64.7411C155.1 74.2065 162.753 82.1768 162.477 82.4537C161.758 83.1713 147.126 79.5574 140.098 76.9269C129.624 73.0062 119.855 61.8438 117.57 51.1871L116.496 46.1761L105.824 43.6775C85.2972 38.8724 74.4614 37.6161 54.8746 37.774C33.3388 37.9479 20.545 39.3011 9.67317 42.5562C-3.05271 46.3669 -3.14961 46.9686 8.95391 47.0036C17.3123 47.0266 20.8796 47.4913 25.2411 49.1243C32.7244 51.9257 43.3345 59.1834 53.8856 68.7178C62.4058 76.4182 69.2737 80.9246 87.1053 90.5159C97.3777 96.0407 102.803 100.711 109.413 109.717C111.99 113.228 114.265 115.597 114.47 114.982C114.675 114.367 113.435 111.002 111.714 107.505C106.303 96.5084 90.393 81.1714 71.3376 68.5828C62.5766 62.7953 59.1012 59.5402 55.7996 54.0294C52.9306 49.2412 53.1563 47.3324 56.8585 45.0797C61.6186 42.1834 66.2538 41.8096 76.1726 43.5226C92.0423 46.263 103.137 53.4717 111.683 66.595C119.68 78.8738 134.115 86.4333 157.227 90.445C171.146 92.8615 174.313 94.3317 194.849 107.905C205.399 114.878 214.703 120.994 215.524 121.497C216.345 121.999 215.303 120.023 213.207 117.104C211.112 114.187 209.545 111.652 209.725 111.473C210.338 110.858 249.235 120.805 252.115 122.313C258.928 125.881 268.775 139.979 264.453 139.979C263.89 139.979 260.968 139.113 257.96 138.056C247.972 134.544 251.318 137.467 269.07 147.765L276.157 151.878L276.791 181.158C277.139 197.261 277.883 215.16 278.442 220.931C280.411 241.235 284.245 262.088 286.408 264.256C286.873 264.722 287.953 262.698 288.806 259.758C293.323 244.195 296.294 215.307 297.14 178.719C297.665 156.001 297.996 151.799 299.35 150.67C300.225 149.941 305.211 146.939 310.431 143.999C321.412 137.816 320.921 138.148 320.186 137.412C319.874 137.1 317.239 137.551 314.33 138.416C306.907 140.621 306.174 139.327 310.934 132.415C317.376 123.057 319.243 122.111 342.78 116.29C354.343 113.429 363.937 111.224 364.101 111.388C364.265 111.551 362.824 113.666 360.9 116.088C358.976 118.509 357.398 120.834 357.393 121.253C357.387 121.673 365.549 116.557 375.532 109.885C385.514 103.212 395.74 96.7243 398.259 95.467C400.776 94.2088 408.547 92.009 415.528 90.5769C444.137 84.7064 452.1 80.216 464.244 63.1061C472.419 51.5889 483.389 45.5864 500.956 43.0169C508.326 41.9386 509.371 42.0065 513.521 43.8434C520.054 46.7347 520.794 48.7455 517.31 54.1434C514.461 58.5568 509.848 63.217 505.23 66.3452C503.857 67.2756 499.768 70.053 496.144 72.5155C486.638 78.9757 473.517 90.7698 467.979 97.8316C463.308 103.787 457.577 114.625 458.572 115.62C458.846 115.895 461.587 112.774 464.663 108.685C471.631 99.4237 476.102 95.7728 488.747 89.0228C503.472 81.1634 511.441 75.8046 520.832 67.4445C531.272 58.152 542.865 50.5025 549.493 48.5337C552.478 47.6472 558.654 47.0216 564.601 47.0036C571.798 46.9816 574.171 46.6888 572.944 45.9732C570.278 44.4181 559.92 41.2779 553.498 40.0766C545.258 38.5356 512.962 36.8545 505.23 37.5641C493.495 38.6415 477.939 41.137 467.02 43.6935C456.691 46.1121 456.281 46.31 456.271 48.8695C456.259 52.1445 452.305 60.8214 448.627 65.6466C444.371 71.2273 437.614 75.8386 430.404 78.0793C421.985 80.6957 411.327 82.9584 411.327 82.1289C411.327 81.7771 418.32 74.5233 426.866 66.0104C435.413 57.4974 444.795 47.6082 447.715 44.0353C454.118 36.2009 462.275 24.3309 462.275 22.8478C462.275 22.2571 460.14 23.7603 457.529 26.1878C443.99 38.7794 430.341 48.0839 421.72 50.5984C413.764 52.9191 400.506 54.1514 396.145 52.977C391.392 51.6968 389.949 49.0554 390.671 42.9549C391.48 36.129 395.173 29.5519 402.866 21.2397C406.562 17.2451 409.348 13.7382 409.056 13.4473C408.765 13.1555 406.484 14.4767 403.988 16.3826C393.072 24.7187 375.677 33.0378 354.21 40.1896C323.426 50.4455 320.735 51.8297 308.183 63.8766L301.44 70.3478V66.7579C301.44 61.1242 303.384 48.2668 305.513 39.8288C309.096 25.6202 315.73 12.6678 323.768 4.1818C327.445 0.301083 327.574 0.0142504 324.916 1.64329C314.09 8.27738 301.229 20.6521 294.945 30.4783C291.228 36.2919 287.5 45.3306 287.406 48.7575C287.38 49.733 286.086 47.1115 284.533 42.932C282.979 38.7514 280.013 32.68 277.941 29.4399C271.758 19.7686 258.592 7.03112 247.995 0.467984C245.87 -0.84824 246.802 0.562925 251.201 5.32512ZM205.954 49.3512C203.624 51.357 203.345 52.1675 203.923 55.2527C204.687 59.3253 208.362 66.616 212.167 71.6081C214.818 75.084 216.528 75.2809 216.528 72.1098C216.528 68.8597 222.392 62.0677 227.194 59.7571C233.121 56.9037 234.753 54.4652 232.071 52.4713C228.875 50.0977 224.924 50.7374 220.891 54.2793C218.858 56.0652 217.042 57.0776 216.857 56.528C215.95 53.8375 212.42 49.0424 210.647 48.0939C209.043 47.2344 208.13 47.4793 205.954 49.3512ZM362.121 48.1169C361.156 48.6796 359.461 50.9143 358.355 53.084C357.248 55.2527 356.074 57.0277 355.746 57.0277C355.418 57.0277 353.613 55.6785 351.735 54.0294C347.765 50.5405 343.529 50.1237 340.957 52.9671C338.726 55.4336 339.602 56.7868 344.963 59.1594C349.966 61.3731 355.989 67.9482 356.927 72.2187L357.577 75.182L360.012 72.8943C363.44 69.6722 369.37 57.3895 369.37 53.5107C369.37 51.1601 368.689 49.8149 366.908 48.6476C364.048 46.7727 364.368 46.8077 362.121 48.1169ZM186.226 54.696C185.86 55.0618 185.56 57.1226 185.56 59.2743V63.187L182.195 61.1073C177.549 58.234 173.57 58.3119 173.577 61.2752C173.586 65.1209 176.69 68.7298 187.911 77.9453C195.759 84.3905 202.333 88.693 211.709 93.5212C218.834 97.19 224.843 100.011 225.063 99.7925C225.283 99.5726 223.701 96.0297 221.548 91.9191C216.763 82.7825 207.244 71.2103 202.328 68.5509L198.687 66.582L194.208 69.8001C191.744 71.5701 189.526 73.0182 189.279 73.0182C189.031 73.0182 189.891 70.9185 191.19 68.352C194.027 62.7453 194.229 57.9511 191.724 55.6835C189.835 53.9735 187.388 53.5337 186.226 54.696ZM381.831 55.4236C379.287 57.2855 379.547 63.9806 382.348 68.7298C384.842 72.9603 384.512 73.7068 381.261 71.1823C376.297 67.3286 374.65 66.8759 371.053 68.38C366.735 70.1839 357.047 82.0969 351.581 92.3219C346.597 101.644 346.499 101.636 362.378 93.2903C374.136 87.1099 376.193 85.6878 388.676 75.104C397.118 67.9472 400.338 63.9346 400.338 60.5756C400.338 58.2869 394.175 58.5857 391.075 61.0253C387.801 63.6018 386.982 63.5488 387.698 60.8054C389.15 55.2537 386.006 52.3694 381.831 55.4236ZM237.057 63.3639C231.174 67.6674 245.759 87.6306 256.237 89.6155C259.783 90.2871 260.491 91.5873 257.735 92.3678C253.56 93.5501 243.794 94.0588 241.518 93.2123L239.038 92.2899L241.329 91.5623C245.059 90.378 243.345 85.4839 237.023 79.2646C231.517 73.8497 227.336 72.4426 226.125 75.5987C224.214 80.5808 227.67 91.6253 233.41 98.875C236.697 103.029 247.674 110.996 250.107 110.996C251.738 110.996 251.928 107.684 250.458 104.933C248.54 101.348 251.155 102.966 256.623 108.747C259.611 111.907 265.187 119.432 269.012 125.467L275.967 136.441L276.746 122.291C277.468 109.166 277.341 107.331 274.998 96.9421C273.607 90.7818 272.47 84.4985 272.47 82.9784C272.47 79.7063 264.546 71.9479 254.988 65.8605C250.084 62.7383 248.075 62.0417 243.941 62.0347C241.162 62.0287 238.064 62.6274 237.057 63.3639ZM323.418 62.8442C315.55 66.4111 301.44 78.3721 301.44 81.4743C301.44 82.7185 300.342 89.1307 299 95.7229C296.811 106.476 296.631 109.136 297.252 121.595L297.944 135.481L304.437 125.052C308.009 119.314 313.339 112.006 316.283 108.811C321.596 103.043 324.315 101.374 322.896 104.75C321.098 109.031 321.152 110.996 323.069 110.996C325.384 110.996 331.619 106.944 336.736 102.116C347.163 92.2759 351.695 74.0176 343.709 74.0176C339.904 74.0176 330.41 83.9948 330.41 87.9934C330.41 89.7214 331.07 91.0466 332.131 91.4544C335.934 92.9145 330.889 94.0448 323.418 93.4062C313.729 92.5787 311.638 91.0936 317.68 89.3316C325.104 87.1659 333.637 78.45 337.346 69.2445C338.511 66.3552 338.457 65.7405 336.881 63.9976C335.527 62.5014 333.865 62.0417 330.006 62.0947C327.207 62.1337 324.242 62.4705 323.418 62.8442Z" fill="white"/>
<mask id="mask0_425_495" style="mask-type:alpha" maskUnits="userSpaceOnUse" x="0" y="0" width="574" height="278">
<path fill-rule="evenodd" clip-rule="evenodd" d="M77 58.4549C77 58.9723 81.0571 61.7937 86.0147 64.7246C104.071 75.3977 110.661 83.5067 128.363 116.829C136.08 131.356 140.721 138.655 149.163 149.545C155.141 157.255 160.276 163.318 160.576 163.02C160.875 162.72 157.89 157.528 153.941 151.48C146.078 139.438 142.226 131.623 139.006 121.178C135.579 110.065 136.575 101.593 141.307 101.593C143.564 101.593 154.299 109.105 161.034 115.397C169.86 123.642 176.883 134.082 183.453 148.725C191.158 165.899 191.579 166.641 198.619 175.451C207.897 187.061 214.015 191.565 232.735 200.562C261.691 214.477 270.684 222.065 277.202 238.083C279.276 243.182 282.941 259.44 285.142 273.314C285.469 275.37 286.157 277.052 286.67 277.052C287.805 277.052 288.125 275.74 290.623 260.89C291.703 254.469 293.526 246.394 294.674 242.945C297.505 234.443 303.568 224.432 308.787 219.639C314.819 214.1 326.604 206.974 337.623 202.201C342.766 199.974 349.91 196.53 353.497 194.549C364.644 188.395 381.247 170.16 385.488 159.415C389.196 150.016 396.761 134.933 400.584 129.31C408.579 117.552 425.738 102.761 431.914 102.305C434.238 102.133 435.092 102.679 436.271 105.082C439.566 111.802 431.917 132.953 419.227 152.208C415.878 157.291 413.389 161.702 413.698 162.01C414.253 162.565 425.761 148.573 432.643 138.978C434.608 136.236 440.965 125.138 446.77 114.316C459.554 90.4752 463.198 85.031 472.008 76.596C478.441 70.437 492.59 60.719 495.123 60.719C495.763 60.719 496.287 60.053 496.287 59.2395C496.287 57.9525 495.802 57.9665 492.544 59.3532C480.118 64.6399 479.587 64.9569 456.355 80.8968C453.884 82.5915 443.327 89.8113 432.895 96.9393C422.463 104.068 413.021 110.704 411.913 111.685C407.211 115.85 392.503 123.742 385.08 126.082C380.672 127.473 372.556 129.491 367.045 130.566C344.697 134.924 335.6 138.674 324.781 147.984C319.431 152.588 320.004 153.602 325.757 149.714C342.205 138.597 357.745 133.408 368.475 135.449C374.822 136.656 379.49 141.849 379.476 147.686C379.453 157.687 368.533 172.148 358.89 174.948C353.913 176.392 353.331 176.368 349.183 174.535C345.719 173.006 344.515 171.816 343.587 169.007C342.936 167.038 342.692 164.521 343.045 163.412C344.02 160.342 348.411 155.545 351.902 153.735C356.724 151.235 353.498 151.108 346.929 153.54C342.163 155.303 339.21 157.515 331.321 165.226C321.376 174.946 318.858 179.087 317.281 188.326C316.618 192.205 316.139 192.73 322.715 182.37C325.54 177.921 327.514 176.073 331.646 174.018C338.353 170.68 339.437 170.711 344.046 174.369C346.119 176.014 348.202 177.359 348.676 177.359C349.149 177.359 349.537 178.981 349.537 180.963C349.537 186.271 345.017 193.807 339.741 197.297C335.381 200.181 329.072 202.117 327.888 200.934C327.074 200.122 332.084 193.5 336.455 189.61C338.434 187.848 339.474 186.39 338.765 186.37C334.131 186.234 317.799 198.776 308.644 209.5C301.883 217.42 294.787 230.839 292.007 240.963C290.293 247.201 290.26 247.242 286.915 246.945C283.63 246.653 283.478 246.435 280.612 237.899C277.03 227.23 274.711 222.542 269.111 214.649C261.669 204.158 243.964 188.917 236.738 186.78C234.711 186.181 235.31 187.187 239.982 192.227C243.135 195.627 245.713 199.055 245.713 199.847C245.713 203.661 233.814 198.641 228.985 192.79C224.974 187.931 221.978 177.359 224.611 177.359C225.085 177.359 227.169 176.014 229.241 174.369C233.797 170.754 235.412 170.675 241.503 173.771C247.202 176.667 249.673 179.21 253.742 186.361L256.845 191.815L256.245 187.495C254.744 176.671 241.995 161.186 229.409 154.899C220.312 150.355 216.569 150.208 222.955 154.646C230.705 160.033 232.853 166.43 228.688 171.718C223.325 178.527 211.718 176.58 203.495 167.491C198.858 162.366 195.172 155.101 194.322 149.415C193.767 145.702 194.048 144.378 196.012 141.47C199.182 136.775 202.898 135.195 210.765 135.195C220.796 135.195 230.895 139.003 245.077 148.132C248.846 150.558 252.12 152.351 252.354 152.118C253.321 151.152 242.353 142.522 235.76 139.062C230.172 136.129 224.791 134.506 210.482 131.438C200.484 129.294 189.651 126.587 186.407 125.421C180.224 123.201 166.074 115.252 161.21 111.266C159.644 109.983 150.275 103.393 140.392 96.6233C130.509 89.8531 117.481 80.8848 111.441 76.6947C97.7048 67.1651 89.6176 62.2871 84.4873 60.4348C82.291 59.6423 79.7074 58.6613 78.747 58.2546C77.7867 57.8478 77 57.9385 77 58.4549Z" fill="#FF0000"/>
<path fill-rule="evenodd" clip-rule="evenodd" d="M251.201 5.32512C262.933 18.0246 268.984 35.3564 272.044 65.0229L272.714 71.5191L263.851 63.0211C258.877 58.2509 252.358 53.133 248.994 51.357C245.698 49.616 233.357 44.9977 221.571 41.096C199.399 33.7544 186.335 27.6969 171.665 17.9547C167.594 15.2513 164.118 13.1835 163.941 13.3614C163.763 13.5383 166.819 17.2521 170.731 21.6135C179.23 31.0889 182.54 37.5321 182.553 44.63C182.569 52.9141 178.765 54.6431 164.169 52.984C148.416 51.1931 139.76 46.7217 120.617 30.4863C115.128 25.831 110.637 22.2771 110.637 22.5899C110.637 23.3685 118.005 34.2491 123.467 41.5368C125.938 44.8348 135.84 55.2767 145.47 64.7411C155.1 74.2065 162.753 82.1768 162.477 82.4537C161.758 83.1713 147.126 79.5574 140.098 76.9269C129.624 73.0062 119.855 61.8438 117.57 51.1871L116.496 46.1761L105.824 43.6775C85.2972 38.8724 74.4614 37.6161 54.8746 37.774C33.3388 37.9479 20.545 39.3011 9.67317 42.5562C-3.05271 46.3669 -3.14961 46.9686 8.95391 47.0036C17.3123 47.0266 20.8796 47.4913 25.2411 49.1243C32.7244 51.9257 43.3345 59.1834 53.8856 68.7178C62.4058 76.4182 69.2737 80.9246 87.1053 90.5159C97.3777 96.0407 102.803 100.711 109.413 109.717C111.99 113.228 114.265 115.597 114.47 114.982C114.675 114.367 113.435 111.002 111.714 107.505C106.303 96.5084 90.393 81.1714 71.3376 68.5828C62.5766 62.7953 59.1012 59.5402 55.7996 54.0294C52.9306 49.2412 53.1563 47.3324 56.8585 45.0797C61.6186 42.1834 66.2538 41.8096 76.1726 43.5226C92.0423 46.263 103.137 53.4717 111.683 66.595C119.68 78.8738 134.115 86.4333 157.227 90.445C171.146 92.8615 174.313 94.3317 194.849 107.905C205.399 114.878 214.703 120.994 215.524 121.497C216.345 121.999 215.303 120.023 213.207 117.104C211.112 114.187 209.545 111.652 209.725 111.473C210.338 110.858 249.235 120.805 252.115 122.313C258.928 125.881 268.775 139.979 264.453 139.979C263.89 139.979 260.968 139.113 257.96 138.056C247.972 134.544 251.318 137.467 269.07 147.765L276.157 151.878L276.791 181.158C277.139 197.261 277.883 215.16 278.442 220.931C280.411 241.235 284.245 262.088 286.408 264.256C286.873 264.722 287.953 262.698 288.806 259.758C293.323 244.195 296.294 215.307 297.14 178.719C297.665 156.001 297.996 151.799 299.35 150.67C300.225 149.941 305.211 146.939 310.431 143.999C321.412 137.816 320.921 138.148 320.186 137.412C319.874 137.1 317.239 137.551 314.33 138.416C306.907 140.621 306.174 139.327 310.934 132.415C317.376 123.057 319.243 122.111 342.78 116.29C354.343 113.429 363.937 111.224 364.101 111.388C364.265 111.551 362.824 113.666 360.9 116.088C358.976 118.509 357.398 120.834 357.393 121.253C357.387 121.673 365.549 116.557 375.532 109.885C385.514 103.212 395.74 96.7243 398.259 95.467C400.776 94.2088 408.547 92.009 415.528 90.5769C444.137 84.7064 452.1 80.216 464.244 63.1061C472.419 51.5889 483.389 45.5864 500.956 43.0169C508.326 41.9386 509.371 42.0065 513.521 43.8434C520.054 46.7347 520.794 48.7455 517.31 54.1434C514.461 58.5568 509.848 63.217 505.23 66.3452C503.857 67.2756 499.768 70.053 496.144 72.5155C486.638 78.9757 473.517 90.7698 467.979 97.8316C463.308 103.787 457.577 114.625 458.572 115.62C458.846 115.895 461.587 112.774 464.663 108.685C471.631 99.4237 476.102 95.7728 488.747 89.0228C503.472 81.1634 511.441 75.8046 520.832 67.4445C531.272 58.152 542.865 50.5025 549.493 48.5337C552.478 47.6472 558.654 47.0216 564.601 47.0036C571.798 46.9816 574.171 46.6888 572.944 45.9732C570.278 44.4181 559.92 41.2779 553.498 40.0766C545.258 38.5356 512.962 36.8545 505.23 37.5641C493.495 38.6415 477.939 41.137 467.02 43.6935C456.691 46.1121 456.281 46.31 456.271 48.8695C456.259 52.1445 452.305 60.8214 448.627 65.6466C444.371 71.2273 437.614 75.8386 430.404 78.0793C421.985 80.6957 411.327 82.9584 411.327 82.1289C411.327 81.7771 418.32 74.5233 426.866 66.0104C435.413 57.4974 444.795 47.6082 447.715 44.0353C454.118 36.2009 462.275 24.3309 462.275 22.8478C462.275 22.2571 460.14 23.7603 457.529 26.1878C443.99 38.7794 430.341 48.0839 421.72 50.5984C413.764 52.9191 400.506 54.1514 396.145 52.977C391.392 51.6968 389.949 49.0554 390.671 42.9549C391.48 36.129 395.173 29.5519 402.866 21.2397C406.562 17.2451 409.348 13.7382 409.056 13.4473C408.765 13.1555 406.484 14.4767 403.988 16.3826C393.072 24.7187 375.677 33.0378 354.21 40.1896C323.426 50.4455 320.735 51.8297 308.183 63.8766L301.44 70.3478V66.7579C301.44 61.1242 303.384 48.2668 305.513 39.8288C309.096 25.6202 315.73 12.6678 323.768 4.1818C327.445 0.301083 327.574 0.0142504 324.916 1.64329C314.09 8.27738 301.229 20.6521 294.945 30.4783C291.228 36.2919 287.5 45.3306 287.406 48.7575C287.38 49.733 286.086 47.1115 284.533 42.932C282.979 38.7514 280.013 32.68 277.941 29.4399C271.758 19.7686 258.592 7.03112 247.995 0.467984C245.87 -0.84824 246.802 0.562925 251.201 5.32512ZM205.954 49.3512C203.624 51.357 203.345 52.1675 203.923 55.2527C204.687 59.3253 208.362 66.616 212.167 71.6081C214.818 75.084 216.528 75.2809 216.528 72.1098C216.528 68.8597 222.392 62.0677 227.194 59.7571C233.121 56.9037 234.753 54.4652 232.071 52.4713C228.875 50.0977 224.924 50.7374 220.891 54.2793C218.858 56.0652 217.042 57.0776 216.857 56.528C215.95 53.8375 212.42 49.0424 210.647 48.0939C209.043 47.2344 208.13 47.4793 205.954 49.3512ZM362.121 48.1169C361.156 48.6796 359.461 50.9143 358.355 53.084C357.248 55.2527 356.074 57.0277 355.746 57.0277C355.418 57.0277 353.613 55.6785 351.735 54.0294C347.765 50.5405 343.529 50.1237 340.957 52.9671C338.726 55.4336 339.602 56.7868 344.963 59.1594C349.966 61.3731 355.989 67.9482 356.927 72.2187L357.577 75.182L360.012 72.8943C363.44 69.6722 369.37 57.3895 369.37 53.5107C369.37 51.1601 368.689 49.8149 366.908 48.6476C364.048 46.7727 364.368 46.8077 362.121 48.1169ZM186.226 54.696C185.86 55.0618 185.56 57.1226 185.56 59.2743V63.187L182.195 61.1073C177.549 58.234 173.57 58.3119 173.577 61.2752C173.586 65.1209 176.69 68.7298 187.911 77.9453C195.759 84.3905 202.333 88.693 211.709 93.5212C218.834 97.19 224.843 100.011 225.063 99.7925C225.283 99.5726 223.701 96.0297 221.548 91.9191C216.763 82.7825 207.244 71.2103 202.328 68.5509L198.687 66.582L194.208 69.8001C191.744 71.5701 189.526 73.0182 189.279 73.0182C189.031 73.0182 189.891 70.9185 191.19 68.352C194.027 62.7453 194.229 57.9511 191.724 55.6835C189.835 53.9735 187.388 53.5337 186.226 54.696ZM381.831 55.4236C379.287 57.2855 379.547 63.9806 382.348 68.7298C384.842 72.9603 384.512 73.7068 381.261 71.1823C376.297 67.3286 374.65 66.8759 371.053 68.38C366.735 70.1839 357.047 82.0969 351.581 92.3219C346.597 101.644 346.499 101.636 362.378 93.2903C374.136 87.1099 376.193 85.6878 388.676 75.104C397.118 67.9472 400.338 63.9346 400.338 60.5756C400.338 58.2869 394.175 58.5857 391.075 61.0253C387.801 63.6018 386.982 63.5488 387.698 60.8054C389.15 55.2537 386.006 52.3694 381.831 55.4236ZM237.057 63.3639C231.174 67.6674 245.759 87.6306 256.237 89.6155C259.783 90.2871 260.491 91.5873 257.735 92.3678C253.56 93.5501 243.794 94.0588 241.518 93.2123L239.038 92.2899L241.329 91.5623C245.059 90.378 243.345 85.4839 237.023 79.2646C231.517 73.8497 227.336 72.4426 226.125 75.5987C224.214 80.5808 227.67 91.6253 233.41 98.875C236.697 103.029 247.674 110.996 250.107 110.996C251.738 110.996 251.928 107.684 250.458 104.933C248.54 101.348 251.155 102.966 256.623 108.747C259.611 111.907 265.187 119.432 269.012 125.467L275.967 136.441L276.746 122.291C277.468 109.166 277.341 107.331 274.998 96.9421C273.607 90.7818 272.47 84.4985 272.47 82.9784C272.47 79.7063 264.546 71.9479 254.988 65.8605C250.084 62.7383 248.075 62.0417 243.941 62.0347C241.162 62.0287 238.064 62.6274 237.057 63.3639ZM323.418 62.8442C315.55 66.4111 301.44 78.3721 301.44 81.4743C301.44 82.7185 300.342 89.1307 299 95.7229C296.811 106.476 296.631 109.136 297.252 121.595L297.944 135.481L304.437 125.052C308.009 119.314 313.339 112.006 316.283 108.811C321.596 103.043 324.315 101.374 322.896 104.75C321.098 109.031 321.152 110.996 323.069 110.996C325.384 110.996 331.619 106.944 336.736 102.116C347.163 92.2759 351.695 74.0176 343.709 74.0176C339.904 74.0176 330.41 83.9948 330.41 87.9934C330.41 89.7214 331.07 91.0466 332.131 91.4544C335.934 92.9145 330.889 94.0448 323.418 93.4062C313.729 92.5787 311.638 91.0936 317.68 89.3316C325.104 87.1659 333.637 78.45 337.346 69.2445C338.511 66.3552 338.457 65.7405 336.881 63.9976C335.527 62.5014 333.865 62.0417 330.006 62.0947C327.207 62.1337 324.242 62.4705 323.418 62.8442Z" fill="white"/>
</mask>
<g mask="url(#mask0_425_495)">
<path fill-rule="evenodd" clip-rule="evenodd" d="M0.0556683 -138.803C0.0863819 -129.895 0.196279 -123.039 0.300417 -123.567C1.26358 -128.457 1.66861 -129.963 2.71095 -132.529C5.75352 -140.016 11.4826 -146.519 18.4761 -150.425C21.9727 -152.377 25.0676 -153.46 29.5138 -154.288C32.5756 -154.858 31.4181 -154.917 16.4366 -154.957L0 -155L0.0556683 -138.803ZM41.6932 -154.459C48.7727 -153.283 56.0153 -149.468 61.1872 -144.19C66.4123 -138.858 69.4626 -133.023 70.9363 -125.542L71.6907 -121.712L72.3319 -125.508C73.5806 -132.901 77.4183 -139.851 83.2683 -145.315C88.3001 -150.014 94.2139 -153.001 101.019 -154.282C103.937 -154.831 100.092 -154.912 71.745 -154.901C50.9332 -154.893 40.0471 -154.733 41.6932 -154.459ZM113.983 -154.302C128.403 -151.681 140.21 -139.692 142.596 -125.246L143.171 -121.763L143.991 -125.784C147.089 -140.975 158.405 -151.938 173.643 -154.509C174.875 -154.717 161.198 -154.893 143.25 -154.9C115.395 -154.911 111.11 -154.824 113.983 -154.302ZM185.481 -154.282C193.08 -152.852 198.475 -149.953 204.216 -144.218C207.545 -140.893 209.029 -138.965 210.59 -135.942C212.589 -132.071 214.459 -126.055 214.573 -123.13C214.623 -121.851 214.695 -121.945 215.095 -123.807C216.812 -131.779 219.218 -137.115 223.361 -142.138C228.767 -148.691 237.397 -153.474 245.948 -154.657C246.74 -154.767 232.703 -154.869 214.755 -154.885C186.439 -154.91 182.566 -154.83 185.481 -154.282ZM255.067 -154.7C259.957 -153.736 261.463 -153.331 264.029 -152.289C271.516 -149.246 278.019 -143.517 281.925 -136.524C283.89 -133.004 284.972 -129.898 285.771 -125.486C286.422 -121.886 286.562 -121.973 287.403 -126.492C289.188 -136.09 296.056 -145.444 304.976 -150.425C308.473 -152.377 311.568 -153.46 316.014 -154.288C318.916 -154.828 314.931 -154.912 286.74 -154.901C268.792 -154.894 254.539 -154.804 255.067 -154.7ZM328.193 -154.459C335.273 -153.283 342.515 -149.468 347.687 -144.19C352.912 -138.858 355.963 -133.023 357.436 -125.542L358.191 -121.712L358.832 -125.508C360.081 -132.901 363.918 -139.851 369.768 -145.315C374.8 -150.014 380.714 -153.001 387.519 -154.282C390.437 -154.831 386.592 -154.912 358.245 -154.901C337.433 -154.893 326.547 -154.733 328.193 -154.459ZM400.483 -154.302C414.903 -151.681 426.71 -139.692 429.096 -125.246L429.671 -121.763L430.491 -125.784C433.589 -140.975 444.905 -151.938 460.143 -154.509C461.375 -154.717 447.698 -154.893 429.75 -154.9C401.895 -154.911 397.61 -154.824 400.483 -154.302ZM471.981 -154.282C479.58 -152.852 484.975 -149.953 490.716 -144.218C494.045 -140.893 495.529 -138.965 497.09 -135.942C499.089 -132.071 500.959 -126.055 501.073 -123.13C501.123 -121.851 501.195 -121.945 501.595 -123.807C503.312 -131.779 505.718 -137.115 509.861 -142.138C515.267 -148.691 523.897 -153.474 532.448 -154.657C533.24 -154.767 519.203 -154.869 501.255 -154.885C472.939 -154.91 469.066 -154.83 471.981 -154.282ZM541.567 -154.7C546.457 -153.736 547.963 -153.331 550.529 -152.289C558.016 -149.246 564.519 -143.517 568.425 -136.524C570.377 -133.027 571.46 -129.932 572.288 -125.486C572.858 -122.424 572.917 -123.582 572.957 -138.563L573 -155L556.803 -154.944C547.895 -154.914 541.039 -154.804 541.567 -154.7ZM70.8557 -112.54C69.3676 -104.966 65.3844 -97.8862 59.6568 -92.6337C55.3722 -88.7048 48.5217 -85.3128 42.4711 -84.1241L38.152 -83.2757L40.5625 -82.9709C46.6491 -82.2021 53.8966 -78.9926 58.6812 -74.947C64.3181 -70.1806 68.8478 -63.0277 70.2875 -56.6206C70.6729 -54.905 71.1902 -52.6374 71.4369 -51.5817L71.8856 -49.6621L71.9355 -51.311C72.126 -57.6495 76.1356 -66.3314 81.5628 -72.1573C87.0207 -78.016 96.872 -82.8706 103.689 -83.0611C104.793 -83.0919 103.99 -83.3918 101.259 -83.9686C89.6716 -86.4156 80.9365 -92.853 75.8879 -102.665C73.6631 -106.988 73.0229 -108.883 72.2628 -113.392L71.6907 -116.789L70.8557 -112.54ZM142.821 -114.255C141.879 -107.149 138.525 -100.287 133.272 -94.7165C127.788 -88.8996 121.994 -85.7308 113.906 -84.1232L109.657 -83.2781L112.536 -82.9172C123.468 -81.5466 133.82 -74.1197 139.099 -63.8618C141.31 -59.5643 141.886 -57.8775 142.745 -53.1735C143.107 -51.1896 143.409 -50.307 143.438 -51.1449C143.531 -53.8127 145.308 -59.8028 147.003 -63.1645C151.867 -72.81 159.629 -79.2119 169.875 -82.0284C171.849 -82.5712 174.225 -83.03 175.154 -83.0487C176.287 -83.0712 175.263 -83.4523 172.044 -84.2071C163.889 -86.1186 158.369 -89.2303 152.956 -94.9689C148.08 -100.137 145.593 -105.074 144 -112.742L143.158 -116.795L142.821 -114.255ZM214.515 -115.119C214.515 -112.479 212.689 -106.617 210.64 -102.678C206.045 -93.8464 197.134 -86.7377 188.121 -84.7125C186.405 -84.3271 184.137 -83.8098 183.082 -83.5631L181.162 -83.1144L182.811 -83.0645C189.652 -82.8591 199.481 -78.0136 204.937 -72.1573C210.367 -66.329 214.385 -57.626 214.561 -51.311C214.592 -50.2072 214.892 -51.0101 215.469 -53.7412C217.916 -65.3284 224.353 -74.0635 234.165 -79.1121C238.488 -81.3369 240.383 -81.9771 244.892 -82.7372L248.289 -83.3093L244.04 -84.1443C236.466 -85.6324 229.386 -89.6156 224.134 -95.3432C220.283 -99.5423 216.821 -106.481 215.68 -112.289C214.779 -116.877 214.515 -117.516 214.515 -115.119ZM357.356 -112.54C355.868 -104.966 351.884 -97.8862 346.157 -92.6337C341.872 -88.7048 335.022 -85.3128 328.971 -84.1241L324.652 -83.2757L327.063 -82.9709C333.149 -82.2021 340.397 -78.9926 345.181 -74.947C350.818 -70.1806 355.348 -63.0277 356.788 -56.6206C357.173 -54.905 357.69 -52.6374 357.937 -51.5817L358.386 -49.6621L358.435 -51.311C358.626 -57.6495 362.636 -66.3314 368.063 -72.1573C373.521 -78.016 383.372 -82.8706 390.189 -83.0611C391.293 -83.0919 390.49 -83.3918 387.759 -83.9686C376.172 -86.4156 367.436 -92.853 362.388 -102.665C360.163 -106.988 359.523 -108.883 358.763 -113.392L358.191 -116.789L357.356 -112.54ZM429.321 -114.255C428.379 -107.149 425.025 -100.287 419.772 -94.7165C414.288 -88.8996 408.494 -85.7308 400.406 -84.1232L396.157 -83.2781L399.036 -82.9172C409.968 -81.5466 420.32 -74.1197 425.599 -63.8618C427.81 -59.5643 428.386 -57.8775 429.245 -53.1735C429.607 -51.1896 429.909 -50.307 429.938 -51.1449C430.031 -53.8127 431.808 -59.8028 433.503 -63.1645C438.367 -72.81 446.129 -79.2119 456.375 -82.0284C458.349 -82.5712 460.725 -83.03 461.654 -83.0487C462.787 -83.0712 461.763 -83.4523 458.544 -84.2071C450.389 -86.1186 444.869 -89.2303 439.456 -94.9689C434.58 -100.137 432.093 -105.074 430.5 -112.742L429.658 -116.795L429.321 -114.255ZM501.015 -115.119C501.015 -112.479 499.189 -106.617 497.14 -102.678C492.545 -93.8464 483.634 -86.7377 474.621 -84.7125C472.905 -84.3271 470.637 -83.8098 469.582 -83.5631L467.662 -83.1144L469.311 -83.0645C476.152 -82.8591 485.981 -78.0136 491.437 -72.1573C496.867 -66.329 500.885 -57.626 501.061 -51.311C501.092 -50.2072 501.392 -51.0101 501.969 -53.7412C504.416 -65.3284 510.853 -74.0635 520.665 -79.1121C524.988 -81.3369 526.883 -81.9771 531.392 -82.7372L534.789 -83.3093L530.54 -84.1443C522.966 -85.6324 515.886 -89.6156 510.634 -95.3432C506.783 -99.5423 503.321 -106.481 502.18 -112.289C501.279 -116.877 501.015 -117.516 501.015 -115.119ZM0.115176 -83.255C0.0902211 -54.939 0.170364 -51.0662 0.71841 -53.9812C2.14803 -61.5799 5.04662 -66.9754 10.7824 -72.7164C14.1071 -76.0445 16.0349 -77.5289 19.0582 -79.0905C22.9291 -81.0892 28.9447 -82.9589 31.8701 -83.0727C33.1486 -83.1226 33.055 -83.1946 31.1935 -83.5953C23.2209 -85.3119 17.8854 -87.7181 12.8623 -91.8611C6.30876 -97.2667 1.5256 -105.897 0.343128 -114.448C0.233231 -115.24 0.131013 -101.203 0.115176 -83.255ZM285.873 -113.275C285.115 -106.882 281 -99.0164 275.69 -93.8128C270.358 -88.5877 264.523 -85.5374 257.042 -84.0637L253.212 -83.3093L257.008 -82.6681C267.713 -80.8598 277.617 -73.4468 282.425 -63.643C284.59 -59.2293 286.02 -54.677 286.02 -52.2007C286.02 -51.4641 286.236 -50.8618 286.5 -50.8618C286.764 -50.8618 286.98 -51.4641 286.98 -52.2007C286.98 -54.7044 288.42 -59.2485 290.661 -63.8191C292.553 -67.6775 293.567 -69.0447 297.257 -72.7164C300.581 -76.0244 302.553 -77.538 305.558 -79.0905C309.429 -81.0892 315.445 -82.9589 318.37 -83.0727C319.649 -83.1226 319.555 -83.1946 317.693 -83.5953C306.9 -85.9194 299.37 -90.3206 293.952 -97.4716C290.31 -102.278 286.98 -110.364 286.98 -114.398C286.98 -116.574 286.166 -115.749 285.873 -113.275ZM572.373 -113.275C571.615 -106.882 567.5 -99.0164 562.19 -93.8128C556.858 -88.5877 551.023 -85.5374 543.542 -84.0637L539.712 -83.3093L543.508 -82.6681C550.901 -81.4194 557.851 -77.5817 563.315 -71.7317C568.014 -66.6999 571.001 -60.7861 572.282 -53.9812C572.833 -51.0514 572.919 -54.7778 572.957 -83.1351C572.98 -101.018 572.922 -115.648 572.827 -115.648C572.732 -115.648 572.527 -114.58 572.373 -113.275ZM70.8764 -41.0114C69.2519 -33.0964 65.8302 -26.9263 60.0311 -21.456C54.8031 -16.524 47.6867 -13.0995 40.7559 -12.18L38.2048 -11.8417L42.2576 -11.0081C50.2858 -9.35723 56.4016 -6.0248 61.682 -0.423418C66.8121 5.01912 69.3757 10.0422 70.8768 17.5939L71.7219 21.843L72.0828 18.9636C73.4534 8.03242 80.8803 -2.31998 91.1382 -7.59887C95.4357 -9.81025 97.1225 -10.3856 101.827 -11.2447C103.81 -11.607 104.693 -11.9088 103.855 -11.9381C98.986 -12.1085 91.0221 -15.3358 85.5896 -19.3406C78.6248 -24.474 73.19 -33.8177 72.0843 -42.5595L71.745 -45.2436L70.8764 -41.0114ZM142.8 -42.5394C141.773 -34.3197 137.033 -25.8734 130.16 -20.0182C126.272 -16.7059 119.797 -13.6773 114.218 -12.5615L109.662 -11.6502L112.461 -11.3003C120.68 -10.2733 129.127 -5.5329 134.982 1.34022C138.294 5.22837 141.323 11.7032 142.438 17.2815L143.35 21.8382L143.7 19.0394C144.727 10.8197 149.467 2.37344 156.34 -3.48181C160.228 -6.79408 166.703 -9.82272 172.282 -10.9385L176.838 -11.8498L174.039 -12.1997C165.82 -13.2267 157.373 -17.9671 151.518 -24.8402C148.206 -28.7284 145.177 -35.2032 144.062 -40.7815L143.15 -45.3382L142.8 -42.5394ZM214.359 -42.3033C214.023 -39.087 212.105 -33.4088 210.28 -30.2261C206.667 -23.9241 201.717 -19.1716 195.362 -15.9011C191.064 -13.6898 189.377 -13.1144 184.673 -12.2553C182.69 -11.893 181.807 -11.5912 182.645 -11.5619C185.313 -11.4688 191.303 -9.6917 194.665 -7.9967C204.31 -3.13292 210.712 4.62945 213.528 14.8748C214.071 16.8491 214.53 19.2246 214.549 20.1537C214.571 21.2868 214.952 20.2631 215.707 17.044C217.619 8.88856 220.73 3.36924 226.469 -2.04403C231.697 -6.97596 238.813 -10.4005 245.744 -11.32L248.295 -11.6583L244.242 -12.4919C236.214 -14.1428 230.098 -17.4752 224.818 -23.0766C219.738 -28.4659 217.159 -33.4765 215.689 -40.8132C215.244 -43.0404 214.828 -44.9216 214.766 -44.9936C214.705 -45.0651 214.521 -43.8548 214.359 -42.3033ZM357.376 -41.0114C355.752 -33.0964 352.33 -26.9263 346.531 -21.456C341.303 -16.524 334.187 -13.0995 327.256 -12.18L324.705 -11.8417L328.758 -11.0081C336.786 -9.35723 342.902 -6.0248 348.182 -0.423418C353.312 5.01912 355.876 10.0422 357.377 17.5939L358.222 21.843L358.583 18.9636C359.953 8.03242 367.38 -2.31998 377.638 -7.59887C381.936 -9.81025 383.623 -10.3856 388.327 -11.2447C390.31 -11.607 391.193 -11.9088 390.355 -11.9381C385.486 -12.1085 377.522 -15.3358 372.09 -19.3406C365.125 -24.474 359.69 -33.8177 358.584 -42.5595L358.245 -45.2436L357.376 -41.0114ZM429.3 -42.5394C428.273 -34.3197 423.533 -25.8734 416.66 -20.0182C412.772 -16.7059 406.297 -13.6773 400.718 -12.5615L396.162 -11.6502L398.961 -11.3003C407.18 -10.2733 415.627 -5.5329 421.482 1.34022C424.794 5.22837 427.823 11.7032 428.938 17.2815L429.85 21.8382L430.2 19.0394C431.227 10.8197 435.967 2.37344 442.84 -3.48181C446.728 -6.79408 453.203 -9.82272 458.782 -10.9385L463.338 -11.8498L460.539 -12.1997C452.32 -13.2267 443.873 -17.9671 438.018 -24.8402C434.706 -28.7284 431.677 -35.2032 430.561 -40.7815L429.65 -45.3382L429.3 -42.5394ZM500.859 -42.3033C500.523 -39.087 498.606 -33.4088 496.78 -30.2261C493.167 -23.9241 488.217 -19.1716 481.862 -15.9011C477.564 -13.6898 475.877 -13.1144 471.173 -12.2553C469.19 -11.893 468.307 -11.5912 469.145 -11.5619C471.813 -11.4688 477.803 -9.6917 481.165 -7.9967C490.81 -3.13292 497.212 4.62945 500.028 14.8748C500.571 16.8491 501.03 19.2246 501.049 20.1537C501.071 21.2868 501.452 20.2631 502.207 17.044C504.119 8.88856 507.23 3.36924 512.969 -2.04403C518.197 -6.97596 525.313 -10.4005 532.244 -11.32L534.795 -11.6583L530.742 -12.4919C522.714 -14.1428 516.598 -17.4752 511.318 -23.0766C506.238 -28.4659 503.659 -33.4765 502.189 -40.8132C501.744 -43.0404 501.328 -44.9216 501.266 -44.9936C501.205 -45.0651 501.021 -43.8548 500.859 -42.3033ZM0.0998191 -11.75C0.0887814 16.1053 0.176123 20.3903 0.698254 17.5171C3.31898 3.09665 15.3083 -8.71031 29.7542 -11.0959L33.2374 -11.6713L29.2163 -12.4915C14.0246 -15.5892 3.06224 -26.9047 0.490937 -42.1425C0.283141 -43.3749 0.107018 -29.6982 0.0998191 -11.75ZM285.718 -40.9039C283.502 -26.9331 271.149 -14.7825 256.746 -12.4041L253.263 -11.8287L257.284 -11.0085C268.713 -8.67816 277.629 -1.8751 282.83 8.48305C284.244 11.2996 286.02 17.3295 286.02 19.3139C286.02 21.7887 286.764 20.6615 287.282 17.4039C289.498 3.43306 301.851 -8.71751 316.254 -11.0959L319.737 -11.6713L315.716 -12.4915C304.287 -14.8218 295.371 -21.6249 290.17 -31.983C288.756 -34.7996 286.98 -40.8295 286.98 -42.8139C286.98 -45.2887 286.236 -44.1615 285.718 -40.9039ZM572.218 -40.9039C570.002 -26.9331 557.649 -14.7825 543.246 -12.4041L539.763 -11.8287L543.784 -11.0085C558.975 -7.9108 569.938 3.40474 572.509 18.6425C572.717 19.8749 572.913 6.25199 572.943 -11.63C572.975 -29.512 572.94 -44.1432 572.866 -44.1432C572.793 -44.1432 572.501 -42.6858 572.218 -40.9039ZM71.3092 28.8015C69.6996 40.1171 62.398 50.4344 52.3354 55.6121C48.012 57.8369 46.1169 58.477 41.6078 59.2372L38.2106 59.8093L42.4601 60.6443C50.0338 62.1324 57.1138 66.1156 62.3663 71.8432C66.2952 76.1278 69.6872 82.9783 70.8759 89.0289L71.7243 93.348L72.0291 90.9374C72.7979 84.8509 76.0074 77.6034 80.053 72.8188C84.8194 67.1819 91.9723 62.6522 98.3794 61.2125C100.095 60.8271 102.363 60.3098 103.418 60.0631L105.338 59.6144L103.689 59.5645C102.782 59.5376 100.622 59.1638 98.89 58.7348C84.7858 55.2406 73.9895 43.2868 72.0723 29.0415L71.6845 26.1621L71.3092 28.8015ZM143.062 27.6449C142.969 30.3127 141.192 36.3028 139.497 39.6645C134.633 49.31 126.871 55.7119 116.625 58.5284C114.651 59.0712 112.275 59.53 111.346 59.5487C110.213 59.5712 111.237 59.9523 114.456 60.7071C122.611 62.6186 128.131 65.7303 133.544 71.4689C138.476 76.6969 141.901 83.8133 142.82 90.744L143.158 93.2952L143.992 89.2425C145.643 81.2142 148.975 75.0984 154.577 69.818C160.019 64.6879 165.042 62.1243 172.594 60.6232L176.843 59.7781L173.964 59.4172C163.032 58.0466 152.68 50.6197 147.401 40.3618C145.19 36.0643 144.614 34.3775 143.755 29.6735C143.393 27.6896 143.091 26.807 143.062 27.6449ZM214.565 27.811C214.374 34.1495 210.364 42.8314 204.937 48.6573C199.479 54.516 189.628 59.3706 182.811 59.5611C181.707 59.5919 182.51 59.8918 185.241 60.4686C196.828 62.9156 205.564 69.353 210.612 79.1646C212.837 83.488 213.477 85.3831 214.237 89.8922L214.809 93.2894L215.644 89.0399C217.132 81.4662 221.116 74.3862 226.843 69.1337C231.128 65.2048 237.978 61.8128 244.029 60.6241L248.348 59.7757L245.937 59.4709C239.851 58.7021 232.603 55.4926 227.819 51.447C222.182 46.6806 217.652 39.5277 216.212 33.1206C215.827 31.405 215.31 29.1374 215.063 28.0817L214.614 26.1621L214.565 27.811ZM357.809 28.8015C356.2 40.1171 348.898 50.4344 338.835 55.6121C334.512 57.8369 332.617 58.477 328.108 59.2372L324.711 59.8093L328.96 60.6443C336.534 62.1324 343.614 66.1156 348.866 71.8432C352.795 76.1278 356.187 82.9783 357.376 89.0289L358.224 93.348L358.529 90.9374C359.298 84.8509 362.507 77.6034 366.553 72.8188C371.319 67.1819 378.472 62.6522 384.879 61.2125C386.595 60.8271 388.863 60.3098 389.918 60.0631L391.838 59.6144L390.189 59.5645C389.282 59.5376 387.122 59.1638 385.39 58.7348C371.286 55.2406 360.489 43.2868 358.572 29.0415L358.185 26.1621L357.809 28.8015ZM429.562 27.6449C429.469 30.3127 427.692 36.3028 425.997 39.6645C421.133 49.31 413.371 55.7119 403.125 58.5284C401.151 59.0712 398.775 59.53 397.846 59.5487C396.713 59.5712 397.737 59.9523 400.956 60.7071C409.111 62.6186 414.631 65.7303 420.044 71.4689C424.976 76.6969 428.401 83.8133 429.32 90.744L429.658 93.2952L430.492 89.2425C432.143 81.2142 435.475 75.0984 441.077 69.818C446.519 64.6879 451.542 62.1243 459.094 60.6232L463.343 59.7781L460.464 59.4172C449.532 58.0466 439.18 50.6197 433.901 40.3618C431.69 36.0643 431.114 34.3775 430.255 29.6735C429.893 27.6896 429.591 26.807 429.562 27.6449ZM501.065 27.811C500.874 34.1495 496.864 42.8314 491.437 48.6573C485.979 54.516 476.128 59.3706 469.311 59.5611C468.207 59.5919 469.01 59.8918 471.741 60.4686C483.328 62.9156 492.063 69.353 497.112 79.1646C499.337 83.488 499.977 85.3831 500.737 89.8922L501.309 93.2894L502.144 89.0399C503.632 81.4662 507.616 74.3862 513.343 69.1337C517.628 65.2048 524.478 61.8128 530.529 60.6241L534.848 59.7757L532.437 59.4709C526.351 58.7021 519.103 55.4926 514.319 51.447C508.682 46.6806 504.152 39.5277 502.712 33.1206C502.327 31.405 501.81 29.1374 501.563 28.0817L501.114 26.1621L501.065 27.811ZM0.0993392 59.755C0.107497 80.5668 0.267304 91.4529 0.540847 89.8068C1.71708 82.7273 5.53228 75.4847 10.8102 70.3128C16.1424 65.0877 21.977 62.0374 29.4582 60.5637L33.2877 59.8093L29.4917 59.1681C22.0989 57.9194 15.1485 54.0817 9.68533 48.2317C4.98616 43.1999 1.99878 37.2861 0.71841 30.4812C0.169404 27.5629 0.0883015 31.4078 0.0993392 59.755ZM286.02 28.7007C286.02 31.2044 284.58 35.7485 282.339 40.3191C280.447 44.1775 279.433 45.5447 275.743 49.2164C272.419 52.5244 270.447 54.038 267.442 55.5905C263.571 57.5892 257.555 59.4589 254.63 59.5727C253.351 59.6226 253.445 59.6946 255.307 60.0953C266.1 62.4194 273.63 66.8206 279.048 73.9716C282.69 78.7778 286.02 86.8636 286.02 90.8976C286.02 93.074 286.834 92.2485 287.127 89.7751C287.885 83.3824 292 75.5164 297.31 70.3128C302.642 65.0877 308.477 62.0374 315.958 60.5637L319.788 59.8093L315.992 59.1681C305.287 57.3598 295.383 49.9468 290.575 40.143C288.41 35.7293 286.98 31.177 286.98 28.7007C286.98 27.9641 286.764 27.3618 286.5 27.3618C286.236 27.3618 286.02 27.9641 286.02 28.7007ZM572.52 28.7007C572.52 31.2044 571.08 35.7485 568.839 40.3191C566.947 44.1775 565.933 45.5447 562.243 49.2164C558.919 52.5244 556.947 54.038 553.942 55.5905C550.071 57.5892 544.055 59.4589 541.13 59.5727C539.851 59.6226 539.945 59.6946 541.807 60.0953C549.779 61.8119 555.115 64.2181 560.138 68.3611C566.691 73.7667 571.474 82.3967 572.657 90.9485C572.767 91.7403 572.889 77.757 572.928 59.875C572.968 41.993 572.892 27.3618 572.76 27.3618C572.628 27.3618 572.52 27.9641 572.52 28.7007ZM71.2699 100.546C69.4213 112.52 61.7103 122.994 51.1093 127.931C47.5494 129.589 42.6808 131.02 40.6024 131.02C38.426 131.02 39.2515 131.834 41.7249 132.127C48.1176 132.885 55.9836 137 61.1872 142.31C66.4123 147.642 69.4626 153.477 70.9363 160.958L71.6907 164.788L72.3319 160.992C74.1402 150.287 81.5532 140.383 91.357 135.575C95.7707 133.41 100.323 131.98 102.799 131.98C103.536 131.98 104.138 131.764 104.138 131.5C104.138 131.236 103.536 131.02 102.799 131.02C100.296 131.02 95.7515 129.58 91.1809 127.339C87.3225 125.447 85.9553 124.433 82.2836 120.743C76.4101 114.84 73.6247 109.525 72.2378 101.573L71.6404 98.147L71.2699 100.546ZM142.825 100.786C141.307 112.032 133.645 122.494 123.017 127.83C120.2 129.244 114.17 131.02 112.186 131.02C109.711 131.02 110.839 131.764 114.096 132.282C128.067 134.498 140.218 146.851 142.596 161.254L143.171 164.737L143.991 160.716C146.322 149.287 153.125 140.371 163.483 135.17C166.3 133.756 172.33 131.98 174.314 131.98C176.789 131.98 175.661 131.236 172.404 130.718C161.291 128.955 150.473 120.173 146.043 109.317C145.367 107.661 144.446 104.47 143.998 102.226L143.182 98.147L142.825 100.786ZM214.565 99.5867C214.427 102.66 212.954 107.458 210.809 111.824C208.928 115.65 207.869 117.084 204.223 120.743C200.55 124.429 199.173 125.449 195.319 127.339C190.749 129.58 186.204 131.02 183.701 131.02C182.964 131.02 182.362 131.236 182.362 131.5C182.362 131.764 182.964 131.98 183.701 131.98C186.204 131.98 190.749 133.42 195.319 135.661C199.177 137.553 200.545 138.567 204.216 142.257C207.524 145.581 209.038 147.553 210.59 150.558C212.589 154.429 214.459 160.445 214.573 163.37C214.623 164.649 214.695 164.555 215.095 162.693C217.419 151.9 221.821 144.37 228.972 138.952C233.778 135.31 241.864 131.98 245.898 131.98C246.585 131.98 247.148 131.764 247.148 131.5C247.148 131.236 246.585 131.02 245.898 131.02C241.53 131.02 232.793 127.205 227.879 123.152C221.241 117.677 217.331 110.688 215.095 100.307C214.705 98.494 214.62 98.3783 214.565 99.5867ZM357.77 100.546C355.921 112.52 348.21 122.994 337.609 127.931C334.049 129.589 329.181 131.02 327.102 131.02C324.926 131.02 325.751 131.834 328.225 132.127C334.618 132.885 342.484 137 347.687 142.31C352.912 147.642 355.963 153.477 357.436 160.958L358.191 164.788L358.832 160.992C360.64 150.287 368.053 140.383 377.857 135.575C382.271 133.41 386.823 131.98 389.299 131.98C390.036 131.98 390.638 131.764 390.638 131.5C390.638 131.236 390.036 131.02 389.299 131.02C386.796 131.02 382.251 129.58 377.681 127.339C373.823 125.447 372.455 124.433 368.784 120.743C362.91 114.84 360.125 109.525 358.738 101.573L358.14 98.147L357.77 100.546ZM429.325 100.786C427.807 112.032 420.145 122.494 409.517 127.83C406.7 129.244 400.67 131.02 398.686 131.02C396.211 131.02 397.339 131.764 400.596 132.282C414.567 134.498 426.718 146.851 429.096 161.254L429.671 164.737L430.491 160.716C432.822 149.287 439.625 140.371 449.983 135.17C452.8 133.756 458.829 131.98 460.814 131.98C463.289 131.98 462.161 131.236 458.904 130.718C447.791 128.955 436.973 120.173 432.543 109.317C431.867 107.661 430.946 104.47 430.498 102.226L429.682 98.147L429.325 100.786ZM501.065 99.5867C500.927 102.66 499.454 107.458 497.309 111.824C495.428 115.65 494.369 117.084 490.723 120.743C487.05 124.429 485.673 125.449 481.819 127.339C477.249 129.58 472.704 131.02 470.201 131.02C469.464 131.02 468.862 131.236 468.862 131.5C468.862 131.764 469.464 131.98 470.201 131.98C472.704 131.98 477.249 133.42 481.819 135.661C485.677 137.553 487.045 138.567 490.716 142.257C494.024 145.581 495.538 147.553 497.09 150.558C499.089 154.429 500.959 160.445 501.073 163.37C501.123 164.649 501.195 164.555 501.595 162.693C503.919 151.9 508.321 144.37 515.472 138.952C520.278 135.31 528.364 131.98 532.398 131.98C533.085 131.98 533.648 131.764 533.648 131.5C533.648 131.236 533.085 131.02 532.398 131.02C528.03 131.02 519.293 127.205 514.379 123.152C507.741 117.677 503.831 110.688 501.595 100.307C501.205 98.494 501.12 98.3783 501.065 99.5867ZM0.0988593 131.26C0.105578 149.208 0.196279 163.461 0.300417 162.933C1.26358 158.043 1.66861 156.537 2.71095 153.971C5.75352 146.484 11.4826 139.981 18.4761 136.075C21.9962 134.11 25.1016 133.028 29.5138 132.229C33.1135 131.578 33.0272 131.438 28.5079 130.597C18.9104 128.812 9.55624 121.944 4.57536 113.024C2.62313 109.527 1.54 106.432 0.712171 101.986C0.171804 99.0842 0.0883015 103.069 0.0988593 131.26ZM286.382 99.3467C286.25 99.7426 285.897 101.383 285.597 102.992C283.812 112.59 276.944 121.944 268.024 126.925C264.504 128.89 261.398 129.972 256.986 130.771C253.386 131.422 253.473 131.562 257.992 132.403C267.59 134.188 276.944 141.056 281.925 149.976C283.89 153.496 284.972 156.602 285.771 161.014C286.422 164.614 286.562 164.527 287.403 160.008C289.188 150.41 296.056 141.056 304.976 136.075C308.496 134.11 311.602 133.028 316.014 132.229C319.614 131.578 319.527 131.438 315.008 130.597C305.41 128.812 296.056 121.944 291.075 113.024C289.11 109.504 288.028 106.398 287.229 101.986C286.895 100.139 286.514 98.9508 286.382 99.3467ZM572.514 100.666C572.501 103.788 570.061 110.457 567.412 114.615C565.087 118.263 563.361 120.249 560.116 123.01C555.22 127.174 550.063 129.58 543.486 130.771C539.886 131.422 539.973 131.562 544.492 132.403C554.09 134.188 563.444 141.056 568.425 149.976C570.377 153.473 571.46 156.568 572.288 161.014C572.831 163.928 572.919 160.063 572.957 131.86C572.98 113.977 572.892 99.3467 572.76 99.3467C572.628 99.3467 572.518 99.9404 572.514 100.666ZM70.8557 173.96C69.3676 181.534 65.3844 188.614 59.6568 193.866C55.3722 197.795 48.5217 201.187 42.4711 202.376L38.152 203.224L40.5625 203.529C46.6491 204.298 53.8966 207.507 58.6812 211.553C64.3181 216.319 68.8478 223.472 70.2875 229.879C70.6729 231.595 71.1902 233.863 71.4369 234.918L71.8856 236.838L71.9355 235.189C72.126 228.851 76.1356 220.169 81.5628 214.343C87.0207 208.484 96.872 203.629 103.689 203.439C104.793 203.408 103.99 203.108 101.259 202.531C89.6716 200.084 80.9365 193.647 75.8879 183.835C73.6631 179.512 73.0229 177.617 72.2628 173.108L71.6907 169.711L70.8557 173.96ZM142.821 172.245C141.879 179.351 138.525 186.213 133.272 191.784C127.788 197.6 121.994 200.769 113.906 202.377L109.657 203.222L112.536 203.583C123.468 204.953 133.82 212.38 139.099 222.638C141.31 226.936 141.886 228.623 142.745 233.327C143.107 235.31 143.409 236.193 143.438 235.355C143.531 232.687 145.308 226.697 147.003 223.335C151.867 213.69 159.629 207.288 169.875 204.472C171.849 203.929 174.225 203.47 175.154 203.451C176.287 203.429 175.263 203.048 172.044 202.293C163.889 200.381 158.369 197.27 152.956 191.531C148.08 186.363 145.593 181.426 144 173.758L143.158 169.705L142.821 172.245ZM214.515 171.381C214.515 174.021 212.689 179.883 210.64 183.822C206.045 192.654 197.134 199.762 188.121 201.788C186.405 202.173 184.137 202.69 183.082 202.937L181.162 203.386L182.811 203.435C189.652 203.641 199.481 208.486 204.937 214.343C210.367 220.171 214.385 228.874 214.561 235.189C214.592 236.293 214.892 235.49 215.469 232.759C217.916 221.172 224.353 212.436 234.165 207.388C238.488 205.163 240.383 204.523 244.892 203.763L248.289 203.191L244.04 202.356C236.466 200.868 229.386 196.884 224.134 191.157C220.283 186.958 216.821 180.019 215.68 174.211C214.779 169.623 214.515 168.984 214.515 171.381ZM357.356 173.96C355.868 181.534 351.884 188.614 346.157 193.866C341.872 197.795 335.022 201.187 328.971 202.376L324.652 203.224L327.063 203.529C333.149 204.298 340.397 207.507 345.181 211.553C350.818 216.319 355.348 223.472 356.788 229.879C357.173 231.595 357.69 233.863 357.937 234.918L358.386 236.838L358.435 235.189C358.626 228.851 362.636 220.169 368.063 214.343C373.521 208.484 383.372 203.629 390.189 203.439C391.293 203.408 390.49 203.108 387.759 202.531C376.172 200.084 367.436 193.647 362.388 183.835C360.163 179.512 359.523 177.617 358.763 173.108L358.191 169.711L357.356 173.96ZM429.321 172.245C428.379 179.351 425.025 186.213 419.772 191.784C414.288 197.6 408.494 200.769 400.406 202.377L396.157 203.222L399.036 203.583C409.968 204.953 420.32 212.38 425.599 222.638C427.81 226.936 428.386 228.623 429.245 233.327C429.607 235.31 429.909 236.193 429.938 235.355C430.031 232.687 431.808 226.697 433.503 223.335C438.367 213.69 446.129 207.288 456.375 204.472C458.349 203.929 460.725 203.47 461.654 203.451C462.787 203.429 461.763 203.048 458.544 202.293C450.389 200.381 444.869 197.27 439.456 191.531C434.58 186.363 432.093 181.426 430.5 173.758L429.658 169.705L429.321 172.245ZM501.015 171.381C501.015 174.021 499.189 179.883 497.14 183.822C492.545 192.654 483.634 199.762 474.621 201.788C472.905 202.173 470.637 202.69 469.582 202.937L467.662 203.386L469.311 203.435C476.152 203.641 485.981 208.486 491.437 214.343C496.867 220.171 500.885 228.874 501.061 235.189C501.092 236.293 501.392 235.49 501.969 232.759C504.416 221.172 510.853 212.436 520.665 207.388C524.988 205.163 526.883 204.523 531.392 203.763L534.789 203.191L530.54 202.356C522.966 200.868 515.886 196.884 510.634 191.157C506.783 186.958 503.321 180.019 502.18 174.211C501.279 169.623 501.015 168.984 501.015 171.381ZM0.115176 203.245C0.0902211 231.561 0.170364 235.434 0.71841 232.519C2.14803 224.92 5.04662 219.525 10.7824 213.784C14.1071 210.455 16.0349 208.971 19.0582 207.41C22.9291 205.411 28.9447 203.541 31.8701 203.427C33.1486 203.377 33.055 203.305 31.1935 202.905C23.2209 201.188 17.8854 198.782 12.8623 194.639C6.30876 189.233 1.5256 180.603 0.343128 172.052C0.233231 171.26 0.131013 185.297 0.115176 203.245ZM285.873 173.225C285.115 179.618 281 187.484 275.69 192.687C270.358 197.912 264.523 200.963 257.042 202.436L253.212 203.191L257.008 203.832C267.713 205.64 277.617 213.053 282.425 222.857C284.59 227.271 286.02 231.823 286.02 234.299C286.02 235.036 286.236 235.638 286.5 235.638C286.764 235.638 286.98 235.036 286.98 234.299C286.98 231.796 288.42 227.251 290.661 222.681C292.553 218.823 293.567 217.455 297.257 213.784C300.581 210.476 302.553 208.962 305.558 207.41C309.429 205.411 315.445 203.541 318.37 203.427C319.649 203.377 319.555 203.305 317.693 202.905C306.9 200.581 299.37 196.179 293.952 189.028C290.31 184.222 286.98 176.136 286.98 172.102C286.98 169.926 286.166 170.751 285.873 173.225ZM572.373 173.225C571.615 179.618 567.5 187.484 562.19 192.687C556.858 197.912 551.023 200.963 543.542 202.436L539.712 203.191L543.508 203.832C550.901 205.081 557.851 208.918 563.315 214.768C568.014 219.8 571.001 225.714 572.282 232.519C572.833 235.449 572.919 231.722 572.957 203.365C572.98 185.482 572.922 170.852 572.827 170.852C572.732 170.852 572.527 171.92 572.373 173.225ZM70.8764 245.489C69.2519 253.404 65.8302 259.574 60.0311 265.044C54.8031 269.976 47.6867 273.401 40.7559 274.32L38.2048 274.658L42.2576 275.492C50.2858 277.143 56.4016 280.475 61.682 286.077C66.8121 291.519 69.3757 296.542 70.8768 304.094L71.7219 308.343L72.0828 305.464C73.4534 294.532 80.8803 284.18 91.1382 278.901C95.4357 276.69 97.1225 276.114 101.827 275.255C103.81 274.893 104.693 274.591 103.855 274.562C98.986 274.391 91.0221 271.164 85.5896 267.159C78.6248 262.026 73.19 252.682 72.0843 243.94L71.745 241.256L70.8764 245.489ZM142.8 243.961C141.773 252.18 137.033 260.627 130.16 266.482C126.272 269.794 119.797 272.823 114.218 273.938L109.662 274.85L112.461 275.2C120.68 276.227 129.127 280.967 134.982 287.84C138.294 291.728 141.323 298.203 142.438 303.782L143.35 308.338L143.7 305.539C144.727 297.32 149.467 288.873 156.34 283.018C160.228 279.706 166.703 276.677 172.282 275.561L176.838 274.65L174.039 274.3C165.82 273.273 157.373 268.533 151.518 261.66C148.206 257.772 145.177 251.297 144.062 245.718L143.15 241.162L142.8 243.961ZM214.359 244.197C214.023 247.413 212.105 253.091 210.28 256.274C206.667 262.576 201.717 267.328 195.362 270.599C191.064 272.81 189.377 273.386 184.673 274.245C182.69 274.607 181.807 274.909 182.645 274.938C185.313 275.031 191.303 276.808 194.665 278.503C204.31 283.367 210.712 291.129 213.528 301.375C214.071 303.349 214.53 305.725 214.549 306.654C214.571 307.787 214.952 306.763 215.707 303.544C217.619 295.389 220.73 289.869 226.469 284.456C231.697 279.524 238.813 276.099 245.744 275.18L248.295 274.842L244.242 274.008C236.214 272.357 230.098 269.025 224.818 263.423C219.738 258.034 217.159 253.024 215.689 245.687C215.244 243.46 214.828 241.578 214.766 241.506C214.705 241.435 214.521 242.645 214.359 244.197ZM357.376 245.489C355.752 253.404 352.33 259.574 346.531 265.044C341.303 269.976 334.187 273.401 327.256 274.32L324.705 274.658L328.758 275.492C336.786 277.143 342.902 280.475 348.182 286.077C353.312 291.519 355.876 296.542 357.377 304.094L358.222 308.343L358.583 305.464C359.953 294.532 367.38 284.18 377.638 278.901C381.936 276.69 383.623 276.114 388.327 275.255C390.31 274.893 391.193 274.591 390.355 274.562C385.486 274.391 377.522 271.164 372.09 267.159C365.125 262.026 359.69 252.682 358.584 243.94L358.245 241.256L357.376 245.489ZM429.3 243.961C428.273 252.18 423.533 260.627 416.66 266.482C412.772 269.794 406.297 272.823 400.718 273.938L396.162 274.85L398.961 275.2C407.18 276.227 415.627 280.967 421.482 287.84C424.794 291.728 427.823 298.203 428.938 303.782L429.85 308.338L430.2 305.539C431.227 297.32 435.967 288.873 442.84 283.018C446.728 279.706 453.203 276.677 458.782 275.561L463.338 274.65L460.539 274.3C452.32 273.273 443.873 268.533 438.018 261.66C434.706 257.772 431.677 251.297 430.561 245.718L429.65 241.162L429.3 243.961ZM500.859 244.197C500.523 247.413 498.606 253.091 496.78 256.274C493.167 262.576 488.217 267.328 481.862 270.599C477.564 272.81 475.877 273.386 471.173 274.245C469.19 274.607 468.307 274.909 469.145 274.938C471.813 275.031 477.803 276.808 481.165 278.503C490.81 283.367 497.212 291.129 500.028 301.375C500.571 303.349 501.03 305.725 501.049 306.654C501.071 307.787 501.452 306.763 502.207 303.544C504.119 295.389 507.23 289.869 512.969 284.456C518.197 279.524 525.313 276.099 532.244 275.18L534.795 274.842L530.742 274.008C522.714 272.357 516.598 269.025 511.318 263.423C506.238 258.034 503.659 253.024 502.189 245.687C501.744 243.46 501.328 241.578 501.266 241.506C501.205 241.435 501.021 242.645 500.859 244.197ZM0.0998191 274.75C0.0887814 302.605 0.176123 306.89 0.698254 304.017C3.31898 289.597 15.3083 277.79 29.7542 275.404L33.2374 274.829L29.2163 274.009C14.0246 270.911 3.06224 259.595 0.490937 244.357C0.283141 243.125 0.107018 256.802 0.0998191 274.75ZM285.718 245.596C283.502 259.567 271.149 271.718 256.746 274.096L253.263 274.671L257.284 275.491C268.713 277.822 277.629 284.625 282.83 294.983C284.244 297.8 286.02 303.829 286.02 305.814C286.02 308.289 286.764 307.161 287.282 303.904C289.498 289.933 301.851 277.782 316.254 275.404L319.737 274.829L315.716 274.009C304.287 271.678 295.371 264.875 290.17 254.517C288.756 251.7 286.98 245.67 286.98 243.686C286.98 241.211 286.236 242.339 285.718 245.596ZM572.218 245.596C570.002 259.567 557.649 271.718 543.246 274.096L539.763 274.671L543.784 275.491C558.975 278.589 569.938 289.905 572.509 305.143C572.717 306.375 572.913 292.752 572.943 274.87C572.975 256.987 572.94 242.357 572.866 242.357C572.793 242.357 572.501 243.815 572.218 245.596ZM71.3092 315.302C69.6996 326.617 62.398 336.934 52.3354 342.112C48.012 344.337 46.1169 344.977 41.6078 345.737L38.2106 346.309L42.4601 347.144C50.0338 348.632 57.1138 352.616 62.3663 358.343C66.2952 362.628 69.6872 369.478 70.8759 375.529L71.7243 379.848L72.0291 377.437C72.7979 371.351 76.0074 364.103 80.053 359.319C84.8194 353.682 91.9723 349.152 98.3794 347.712C100.095 347.327 102.363 346.81 103.418 346.563L105.338 346.114L103.689 346.065C102.782 346.038 100.622 345.664 98.89 345.235C84.7858 341.741 73.9895 329.787 72.0723 315.541L71.6845 312.662L71.3092 315.302ZM143.062 314.145C142.969 316.813 141.192 322.803 139.497 326.165C134.633 335.81 126.871 342.212 116.625 345.028C114.651 345.571 112.275 346.03 111.346 346.049C110.213 346.071 111.237 346.452 114.456 347.207C122.611 349.119 128.131 352.23 133.544 357.969C138.476 363.197 141.901 370.313 142.82 377.244L143.158 379.795L143.992 375.742C145.643 367.714 148.975 361.598 154.577 356.318C160.019 351.188 165.042 348.624 172.594 347.123L176.843 346.278L173.964 345.917C163.032 344.547 152.68 337.12 147.401 326.862C145.19 322.564 144.614 320.877 143.755 316.173C143.393 314.19 143.091 313.307 143.062 314.145ZM214.565 314.311C214.374 320.649 210.364 329.331 204.937 335.157C199.479 341.016 189.628 345.871 182.811 346.061C181.707 346.092 182.51 346.392 185.241 346.969C196.828 349.416 205.564 355.853 210.612 365.665C212.837 369.988 213.477 371.883 214.237 376.392L214.809 379.789L215.644 375.54C217.132 367.966 221.116 360.886 226.843 355.634C231.128 351.705 237.978 348.313 244.029 347.124L248.348 346.276L245.937 345.971C239.851 345.202 232.603 341.993 227.819 337.947C222.182 333.181 217.652 326.028 216.212 319.621C215.827 317.905 215.31 315.637 215.063 314.582L214.614 312.662L214.565 314.311ZM357.809 315.302C356.2 326.617 348.898 336.934 338.835 342.112C334.512 344.337 332.617 344.977 328.108 345.737L324.711 346.309L328.96 347.144C336.534 348.632 343.614 352.616 348.866 358.343C352.795 362.628 356.187 369.478 357.376 375.529L358.224 379.848L358.529 377.437C359.298 371.351 362.507 364.103 366.553 359.319C371.319 353.682 378.472 349.152 384.879 347.712C386.595 347.327 388.863 346.81 389.918 346.563L391.838 346.114L390.189 346.065C389.282 346.038 387.122 345.664 385.39 345.235C371.286 341.741 360.489 329.787 358.572 315.541L358.185 312.662L357.809 315.302ZM429.562 314.145C429.469 316.813 427.692 322.803 425.997 326.165C421.133 335.81 413.371 342.212 403.125 345.028C401.151 345.571 398.775 346.03 397.846 346.049C396.713 346.071 397.737 346.452 400.956 347.207C409.111 349.119 414.631 352.23 420.044 357.969C424.976 363.197 428.401 370.313 429.32 377.244L429.658 379.795L430.492 375.742C432.143 367.714 435.475 361.598 441.077 356.318C446.519 351.188 451.542 348.624 459.094 347.123L463.343 346.278L460.464 345.917C449.532 344.547 439.18 337.12 433.901 326.862C431.69 322.564 431.114 320.877 430.255 316.173C429.893 314.19 429.591 313.307 429.562 314.145ZM501.065 314.311C500.874 320.649 496.864 329.331 491.437 335.157C485.979 341.016 476.128 345.871 469.311 346.061C468.207 346.092 469.01 346.392 471.741 346.969C483.328 349.416 492.063 355.853 497.112 365.665C499.337 369.988 499.977 371.883 500.737 376.392L501.309 379.789L502.144 375.54C503.632 367.966 507.616 360.886 513.343 355.634C517.628 351.705 524.478 348.313 530.529 347.124L534.848 346.276L532.437 345.971C526.351 345.202 519.103 341.993 514.319 337.947C508.682 333.181 504.152 326.028 502.712 319.621C502.327 317.905 501.81 315.637 501.563 314.582L501.114 312.662L501.065 314.311ZM0.0993392 346.255C0.107497 367.067 0.267304 377.953 0.540847 376.307C1.71708 369.227 5.53228 361.985 10.8102 356.813C16.1424 351.588 21.977 348.537 29.4582 347.064L33.2877 346.309L29.4917 345.668C22.0989 344.419 15.1485 340.582 9.68533 334.732C4.98616 329.7 1.99878 323.786 0.71841 316.981C0.169404 314.063 0.0883015 317.908 0.0993392 346.255ZM286.02 315.201C286.02 317.704 284.58 322.249 282.339 326.819C280.447 330.677 279.433 332.045 275.743 335.716C272.419 339.024 270.447 340.538 267.442 342.09C263.571 344.089 257.555 345.959 254.63 346.073C253.351 346.123 253.445 346.195 255.307 346.595C266.1 348.919 273.63 353.321 279.048 360.472C282.69 365.278 286.02 373.364 286.02 377.398C286.02 379.574 286.834 378.749 287.127 376.275C287.885 369.882 292 362.016 297.31 356.813C302.642 351.588 308.477 348.537 315.958 347.064L319.788 346.309L315.992 345.668C305.287 343.86 295.383 336.447 290.575 326.643C288.41 322.229 286.98 317.677 286.98 315.201C286.98 314.464 286.764 313.862 286.5 313.862C286.236 313.862 286.02 314.464 286.02 315.201ZM572.52 315.201C572.52 317.704 571.08 322.249 568.839 326.819C566.947 330.677 565.933 332.045 562.243 335.716C558.919 339.024 556.947 340.538 553.942 342.09C550.071 344.089 544.055 345.959 541.13 346.073C539.851 346.123 539.945 346.195 541.807 346.595C549.779 348.312 555.115 350.718 560.138 354.861C566.691 360.267 571.474 368.897 572.657 377.448C572.767 378.24 572.889 364.257 572.928 346.375C572.968 328.493 572.892 313.862 572.76 313.862C572.628 313.862 572.52 314.464 572.52 315.201ZM71.2699 387.046C68.8118 402.967 56.2485 415.486 40.5515 417.657C39.7597 417.767 53.7967 417.869 71.745 417.885C100.061 417.91 103.934 417.83 101.019 417.282C93.4201 415.852 88.0246 412.953 82.2836 407.218C76.4139 401.353 73.6281 396.044 72.2378 388.073L71.6404 384.647L71.2699 387.046ZM142.825 387.286C140.78 402.441 128.448 414.878 112.857 417.509C111.625 417.717 125.302 417.893 143.25 417.9C171.105 417.911 175.39 417.824 172.517 417.302C160.968 415.203 150.482 406.693 146.043 395.817C145.367 394.161 144.446 390.97 143.998 388.726L143.182 384.647L142.825 387.286ZM214.565 386.087C214.427 389.16 212.954 393.958 210.809 398.324C208.92 402.167 207.885 403.564 204.223 407.218C198.472 412.954 193.075 415.853 185.481 417.282C182.563 417.831 186.408 417.912 214.755 417.901C235.095 417.892 246.437 417.729 244.863 417.467C233.868 415.636 223.853 408.267 218.827 398.31C217.513 395.707 216.022 391.113 215.095 386.807C214.705 384.994 214.62 384.878 214.565 386.087ZM357.77 387.046C355.312 402.967 342.749 415.486 327.052 417.657C326.26 417.767 340.297 417.869 358.245 417.885C386.561 417.91 390.434 417.83 387.519 417.282C379.92 415.852 374.525 412.953 368.784 407.218C362.914 401.353 360.128 396.044 358.738 388.073L358.14 384.647L357.77 387.046ZM429.325 387.286C427.28 402.441 414.948 414.878 399.357 417.509C398.125 417.717 411.802 417.893 429.75 417.9C457.605 417.911 461.89 417.824 459.017 417.302C447.468 415.203 436.982 406.693 432.543 395.817C431.867 394.161 430.946 390.97 430.498 388.726L429.682 384.647L429.325 387.286ZM501.065 386.087C500.927 389.16 499.454 393.958 497.309 398.324C495.42 402.167 494.385 403.564 490.723 407.218C484.972 412.954 479.575 415.853 471.981 417.282C469.063 417.831 472.908 417.912 501.255 417.901C521.595 417.892 532.937 417.729 531.363 417.467C520.368 415.636 510.353 408.267 505.327 398.31C504.013 395.707 502.522 391.113 501.595 386.807C501.205 384.994 501.12 384.878 501.065 386.087ZM0.043191 401.563L0 418L16.1966 417.944C25.105 417.914 31.9613 417.804 31.4334 417.7C26.5432 416.736 25.0373 416.331 22.4713 415.289C14.9844 412.246 8.48078 406.517 4.57536 399.524C2.62313 396.027 1.54 392.932 0.712171 388.486C0.14205 385.424 0.0830226 386.582 0.043191 401.563ZM286.382 385.847C286.25 386.243 285.897 387.883 285.597 389.492C283.812 399.09 276.944 408.444 268.024 413.425C264.527 415.377 261.432 416.46 256.986 417.288C254.084 417.828 258.069 417.912 286.26 417.901C304.208 417.894 318.461 417.804 317.933 417.7C313.043 416.736 311.537 416.331 308.971 415.289C301.484 412.246 294.981 406.517 291.075 399.524C289.11 396.004 288.028 392.898 287.229 388.486C286.895 386.639 286.514 385.451 286.382 385.847ZM572.514 387.166C572.501 390.288 570.061 396.957 567.412 401.115C565.087 404.763 563.361 406.749 560.116 409.51C555.237 413.659 550.119 416.053 543.486 417.288C540.424 417.858 541.582 417.917 556.563 417.957L573 418V401.923C573 393.081 572.892 385.847 572.76 385.847C572.628 385.847 572.518 386.44 572.514 387.166Z" fill="black"/>
</g>
</svg>
