<svg width="379" height="318" viewBox="0 0 379 318" fill="none" xmlns="http://www.w3.org/2000/svg">
<path fill-rule="evenodd" clip-rule="evenodd" d="M343 4.35415C340.632 10.6569 333.506 25.0757 329.948 30.762C323.776 40.6266 309.48 58.7009 300.516 67.974C283.09 86.0005 264.411 98.5212 254.944 98.5212C251.776 98.5212 250.292 98.0583 249.861 96.9342C249.026 94.7609 251.72 89.4496 256.131 84.5751C258.152 82.3419 259.531 80.2413 259.196 79.9072C258.396 79.1082 256.083 80.6493 236.546 95.0012C218.279 108.42 204.034 118.47 203.28 118.47C203.009 118.47 203.179 116.787 203.657 114.729C204.136 112.673 204.539 106.196 204.552 100.338C204.619 70.6381 212.492 46.1932 226.947 30.8189C230.632 26.899 230.744 26.6396 228.054 28.2854C218.001 34.4325 205.078 46.5852 198.759 55.8333C195.084 61.2094 191.787 68.4857 190.736 73.5346L190.013 77.0117L187.733 70.0776C186.479 66.2634 183.823 60.4644 181.831 57.1898C175.854 47.3682 161.953 33.7593 151.125 27.1304C148.87 25.7499 149.502 26.7663 153.677 31.2378C167.22 45.7414 174.072 67.184 175.178 98.5212C175.459 106.476 176.089 114.468 176.579 116.282L177.471 119.581L174.289 117.577C168.975 114.231 148.922 100.042 134.64 89.5224C127.222 84.0585 120.585 79.584 119.892 79.579C119.2 79.5741 120.694 82.0965 123.214 85.1856C128.687 91.8943 130.161 95.2017 128.545 97.1467C125.199 101.171 112.148 96.265 97.7463 85.5686C74.2131 68.0907 45.6554 30.8937 36.1602 5.35157C32.9402 -3.30808 33.4567 2.43111 36.8016 12.4921C42.9699 31.0413 64.8367 70.9224 77.6569 87.0049C84.0759 95.0581 98.3128 108.636 108.198 116.133C124.647 128.609 137.243 135.729 149.364 139.405C157.785 141.958 162.67 141.714 155.161 139.114C139.272 133.615 119.968 116.362 122.122 109.586C124.032 103.577 146.35 109.107 150.55 116.629C151.828 118.921 151.836 119.506 150.607 120.985C149.472 122.351 148.127 122.584 143.897 122.148C140.802 121.829 138.84 121.983 139.172 122.517C140.68 124.953 160.723 128.444 173.204 128.444C179.287 128.444 179.355 128.475 179.973 131.561C180.986 136.62 180.695 141.325 179.187 144.203C175.834 150.608 136.199 185.701 130.465 187.343C123.728 189.272 115.156 185.628 105.813 176.863C96.6304 168.249 94.2446 160.789 94.2336 140.662C94.2306 133.394 94.1526 127.447 94.0617 127.447C93.2285 127.447 89.488 145.068 88.6128 153.112C86.6706 170.972 90.3561 192.755 97.8192 207.537C101.6 215.023 111.744 230.432 112.437 229.74C112.71 229.467 111.097 226.425 108.851 222.98C101.53 211.747 100.203 207.854 100.187 197.546C100.174 189.309 100.408 188.114 102.437 186.086L104.702 183.823L109.264 186.239C118.593 191.179 124.327 201.372 127.593 218.818C131.959 242.14 137.824 254.161 159.174 283.544C171.779 300.892 172.791 302.863 173.389 311.214C174.112 321.296 175.873 319.564 175.41 309.227C174.954 299.082 174.074 296.668 159.863 266.587C154.679 255.616 149.028 242.599 147.306 237.662C144.379 229.275 144.171 227.769 144.152 214.721C144.133 202.106 144.362 200.248 146.521 195.477C149.38 189.162 155.095 183.988 161.053 182.323C169.068 180.082 171.47 182.735 170.184 192.408C169.819 195.164 168.62 199.695 167.521 202.479C166.422 205.262 165.68 208.258 165.87 209.136C166.307 211.142 173.639 196.096 176.758 186.793L179.099 179.811L179.758 207.739C180.643 245.275 184.105 277.16 188.516 288.42C189.92 292.002 190.355 291.579 192.145 284.893C196.381 269.073 199.292 241.239 200.246 207.427L200.905 184.063L204.582 193.535C208.259 203.011 212.379 210.755 213.27 209.866C213.529 209.606 212.557 205.966 211.109 201.776C209.192 196.232 208.557 192.619 208.774 188.501C209.042 183.385 209.327 182.754 211.741 181.91C213.704 181.224 215.642 181.447 219.064 182.752C230.969 187.29 236.378 199.333 235.252 218.795C234.567 230.634 231.281 240.329 219.549 265.12C204.548 296.817 201.436 306.082 202.997 314.392C203.954 319.484 204.845 318.173 205.641 310.506C206.471 302.491 207.964 299.669 220.159 283.045C239.887 256.154 246.255 243.064 251.065 219.516C254.144 204.447 256.791 198.108 262.682 191.708C267.809 186.138 272.606 183.745 275.521 185.303C278.11 186.687 279.019 190.265 278.95 198.8C278.904 204.56 278.31 207.064 275.651 212.739C273.868 216.545 271.378 221.015 270.118 222.675C268.859 224.335 267.288 226.815 266.625 228.187C264.043 233.538 271.717 223.598 277.166 214.535C287.143 197.939 291.133 180.68 290.226 158.032C289.742 145.963 286.86 130.472 284.683 128.247C284.308 127.865 283.984 134.598 283.963 143.209C283.913 163.264 282.425 167.831 273.002 176.841C261.562 187.781 251.345 190.517 243.581 184.72C228.292 173.307 202.202 149.015 200.479 144.587C199.447 141.936 199.308 136.036 200.176 131.708L200.77 128.738L211.415 128.118C224.604 127.349 232.941 125.836 237.522 123.381L241.042 121.494L236.843 122.096C227.742 123.403 224.5 119.391 230.302 114.004C236.473 108.274 253.156 104.916 256.025 108.826C260.38 114.758 242.555 131.764 224.467 138.933L218.063 141.47L223.059 140.858C239.273 138.871 268.394 120.619 290.558 98.5531C298.317 90.828 303.473 84.4824 310.04 74.573C321.208 57.7214 337.245 26.483 341.98 12.3585C345.606 1.53642 346.402 -4.70049 343 4.35415Z" fill="#86FFA1"/>
<path fill-rule="evenodd" clip-rule="evenodd" d="M100.737 1.18028C101.676 1.89162 106.376 4.70917 111.181 7.44127C121.285 13.1847 134.817 25.7672 141.4 35.5373C148.88 46.6405 154.639 59.705 155.218 66.8929C155.707 72.9423 155.593 73.3884 153.158 74.975C151.685 75.9357 149.746 76.3897 148.627 76.037C146.599 75.3972 140.215 68.9007 137.355 64.5671C134.149 59.709 134.638 63.2726 138.135 70.2648C145.668 85.3212 163.078 102.697 178.784 110.834L185.951 114.548L175.822 104.705C167 96.1314 165.486 94.1673 164.083 89.469C162.056 82.6805 162.052 80.0597 164.066 78.3975C166.333 76.5268 170.274 78.9112 173.276 83.9701L175.616 87.9142L175.031 83.7207C174.127 77.2292 169.623 63.8091 165.771 56.1224C155.446 35.5293 135.938 17.1278 111.573 5.00125C103.218 0.842493 97.7476 -1.08687 100.737 1.18028ZM265.659 5.93911C241.303 18.2505 223.164 35.4349 212.662 56.1483C209.959 61.4803 204.719 76.9868 202.959 84.8592C202.389 87.4125 202.499 87.6082 203.872 86.4756C204.731 85.7673 205.433 84.6546 205.433 84.0048C205.433 82.2434 210.778 77.4825 212.755 77.4825C216.532 77.4825 216.664 86.1915 212.993 93.2493C212.238 94.7028 207.545 99.7974 202.567 104.57C197.587 109.343 193.737 113.248 194.011 113.248C195.612 113.248 202.18 109.844 207.628 106.19C220.362 97.6495 234.442 82.2662 240.565 70.2042C244.304 62.8385 243.741 60.7799 239.617 66.7399C235.876 72.1465 230.935 76.489 228.524 76.489C227.571 76.489 225.816 75.587 224.625 74.4832C222.796 72.7883 222.549 71.7501 223.03 67.7771C223.823 61.2191 225.151 57.1994 229.176 49.168C238.197 31.1679 252.305 16.0857 269.503 6.05336C275.202 2.72914 279.317 0.00497741 278.647 9.94885e-06C277.977 -0.00595101 272.132 2.66754 265.659 5.93911ZM163.472 3.78224C163.472 4.29289 164.642 7.33696 166.071 10.5469C170.306 20.0547 172.464 30.1346 172.464 40.4054C172.464 49.4958 172.567 49.9101 177.113 58.8744C179.67 63.9174 182.833 70.5033 184.141 73.5086L186.519 78.9728L185.896 72.0183C184.75 59.2202 174.981 24.6049 168.48 10.3085C165.948 4.73897 163.472 1.51211 163.472 3.78224ZM212.171 5.9709C205.772 15.8174 192.212 63.6571 192.561 75.1548C192.625 77.255 192.889 78.0786 193.146 76.9858C193.405 75.893 196.5 69.164 200.024 62.0317L206.432 49.0647V39.1417C206.432 28.5153 207.839 21.5717 211.966 11.8186C214.702 5.35792 214.822 1.89162 212.171 5.9709ZM51.1187 71.0248C54.7703 76.8109 56.5706 80.9111 56.5556 83.4048C56.5227 88.864 54.034 89.9767 37.5892 91.8882C23.0416 93.5791 13.8151 96.5248 4.90935 102.324C2.047 104.188 -0.157967 105.849 0.00887869 106.015C0.176724 106.182 2.32174 105.434 4.77647 104.355C15.7873 99.5113 32.5608 97.7101 38.3874 100.745C43.6066 103.464 50.0746 111.732 56.6106 124.043C59.8936 130.224 68.3377 140.624 69.2989 139.669C69.5646 139.404 68.1959 137.263 66.2577 134.911C54.8452 121.061 52.3046 101.326 61.9337 101.326C64.5223 101.326 70.5357 107.199 73.0744 112.205C74.4521 114.922 74.6959 117.165 74.2503 123.017C73.8187 128.702 73.9606 130.131 74.8707 129.226C75.9567 128.144 76.2854 112.448 75.3713 105.3C75.1235 103.365 75.5481 102.747 77.2925 102.501C78.912 102.271 80.9581 103.645 84.6926 107.468C89.1206 112 89.5831 112.275 87.9486 109.399C86.9006 107.554 82.8314 102.412 78.905 97.9733C69.6106 87.4642 48.6859 67.1711 51.1187 71.0248ZM312.952 83.668C299.619 97.5581 289.393 109.628 289.367 111.507C289.361 111.914 291.521 110.014 294.167 107.284C296.973 104.389 299.863 102.32 301.1 102.32C303.175 102.32 303.209 102.579 302.68 114.49C302.225 124.765 302.392 126.97 303.756 128.647C305.31 130.559 305.343 130.521 304.62 127.654C303.062 121.461 303.824 114.798 306.639 110.022C313.563 98.2714 322.325 98.5456 322.325 110.513C322.325 118.586 318.407 127.445 310.606 137.008C308.021 140.177 307.99 140.321 310.132 139.184C313.14 137.588 320.396 127.719 325.084 118.848C327.137 114.961 331.36 109.094 334.467 105.808L340.116 99.8361L351.452 99.8729C361.561 99.9057 363.491 100.208 369.282 102.662C372.853 104.175 376.45 105.695 377.274 106.04C378.588 106.589 378.595 106.449 377.33 104.904C375.755 102.98 362.883 96.3102 357.293 94.5219C355.37 93.907 348.067 92.7406 341.065 91.9299C325.384 90.1148 322.325 88.7786 322.325 83.7465C322.325 81.5429 323.524 78.0151 325.388 74.7306C327.073 71.762 328.251 69.1342 328.005 68.8908C327.76 68.6474 320.986 75.2969 312.952 83.668Z" fill="#FF0000"/>
</svg>
