<svg width="380" height="379" viewBox="0 0 380 379" fill="none" xmlns="http://www.w3.org/2000/svg">
<path fill-rule="evenodd" clip-rule="evenodd" d="M8.99979 29.5733C8.99979 31.666 16.003 47.8917 20.6791 56.6354C31.2143 76.3305 43.6623 92.6102 61.7139 110.299L74.1329 122.467L69.2691 123.194C63.5228 124.052 57.6657 126.485 53.1863 129.875C49.8489 132.399 43.6394 139.655 44.2733 140.289C44.47 140.486 46.834 139.649 49.5264 138.429C55.3446 135.792 69.0056 135.29 75.2241 137.484C83.9075 140.548 89.3443 148.349 90.4973 159.403C91.0504 164.701 90.8078 165.949 88.346 170.479C86.8195 173.286 84.6272 176.198 83.4742 176.948C79.2403 179.701 70.7367 181.856 65.9358 181.394C59.1742 180.743 49.3667 175.802 42.693 169.682C36.0002 163.546 35.2735 164.685 40.0973 173.749C43.5964 180.323 53.4977 190.78 59.855 194.615C75.1263 203.828 78.8949 208.596 78.867 218.678C78.836 230.236 73.0198 233.796 65.0882 227.111C63.4559 225.736 61.8696 224.611 61.5611 224.611C60.6377 224.611 63.6526 232.351 67.1357 238.918C68.9287 242.299 75.0504 251.372 80.7388 259.079C91.9279 274.238 97.0283 283.345 99.3704 292.35C100.768 297.726 100.745 298.258 99.009 300.598C95.9941 304.662 92.6268 304.348 87.3926 299.517C78.6274 291.424 68.8079 272.772 62.3947 252.031C60.3672 245.474 58.3506 239.727 57.9143 239.26C54.0618 235.139 57.6787 271.217 63.0616 290.601C70.539 317.531 83.8655 341.482 95.3142 348.568C99.3334 351.056 101.564 350.439 98.1814 347.775C91.6075 342.596 81.5135 324.824 79.3631 314.643C78.6623 311.323 78.7112 311.245 80.637 312.643C90.9845 320.157 92.453 320.948 96.8536 321.371C100.539 321.726 102.713 321.232 107.239 319.012C112.058 316.65 113.108 316.434 113.877 317.651C114.38 318.446 114.797 319.846 114.806 320.761C114.829 323.303 121.43 340.079 125.325 347.494C131.18 358.643 148.518 380.167 150.249 378.435C150.536 378.147 148.23 373.901 145.124 369.001C136.746 355.781 129.757 342.912 127.554 336.647C124.666 328.433 123.227 313.051 124.548 304.502C126.55 291.552 139.879 272.949 150.755 267.928C155.287 265.835 155.49 264.856 153.209 256.084C152.359 252.817 151.27 245.974 150.789 240.877C149.105 223.046 152.443 212.208 164.306 196.992C167.92 192.357 170.725 188.11 170.54 187.555C170.097 186.223 159.045 192.981 152.688 198.472C149.915 200.867 147.479 202.66 147.275 202.456C146.868 202.048 151.083 192.451 154.45 186.117C159.114 177.344 168.384 169.504 172.309 171.013C176.047 172.45 179.712 191.956 179.712 210.419C179.712 225.31 177.981 234.204 173.272 243.511L170.882 248.236L173.358 254.171C175.481 259.262 175.818 261.56 175.729 270.329C175.629 280.034 177.16 289.063 178.741 288.085C179.142 287.837 179.833 281.89 180.277 274.87L181.084 262.106L181.878 269.604C183.966 289.292 187.464 308.563 189.668 312.512C191.427 315.665 195.9 294.131 198.137 271.741C198.925 263.842 199.762 257.189 199.994 256.956C200.226 256.724 200.734 262.291 201.123 269.329C201.511 276.366 202.174 283.694 202.595 285.613L203.36 289.102L205.109 283.265C206.482 278.688 206.707 275.719 206.158 269.5C205.515 262.223 205.684 261.04 208.214 255.077L210.97 248.58L208.268 243.051C203.761 233.835 201.515 223.387 201.508 211.613C201.499 196.673 205.716 172.943 208.709 171.091C210.793 169.8 216.65 172.91 221.095 177.672C225.624 182.521 235.561 201.004 234.312 202.256C233.982 202.586 231.173 200.588 228.068 197.818C222.672 193.001 210.66 185.697 210.66 187.232C210.66 187.635 213.778 192.049 217.589 197.039C225.453 207.336 229.148 214.686 230.748 223.217C232.043 230.118 231.321 243.479 229.093 253.864C228.238 257.847 227.342 262.059 227.1 263.222C226.749 264.917 227.813 266.05 232.449 268.917C242.65 275.222 252.298 287.723 256.21 299.697C258.235 305.901 257.607 326.359 255.155 334.019C253.158 340.256 244.267 356.97 237.037 368.079C233.976 372.782 231.647 377.158 231.862 377.802C232.679 380.257 248.609 361.25 255.259 349.885C258.585 344.203 266.188 325.219 267.092 320.347C267.473 318.285 268.2 316.598 268.707 316.598C269.213 316.598 271.844 317.722 274.552 319.097C282.722 323.244 288.251 322.369 297.104 315.529C299.901 313.367 302.461 311.598 302.792 311.598C303.655 311.598 300.755 320.981 297.884 327.484C295.363 333.191 289.524 341.664 284.197 347.343C279.676 352.161 283.197 351.523 288.909 346.489C302.6 334.42 314.377 310.613 320.515 282.603C324.407 264.846 326.659 240.466 324.53 239.147C324.015 238.828 321.982 243.737 320.012 250.056C313.193 271.935 304.225 289.53 295.212 298.712C289.718 304.309 285.754 305.181 283.095 301.377C280.939 298.295 281.148 294.692 283.906 287.351C286.938 279.283 290.905 272.753 301.068 259.106C305.573 253.057 310.676 245.779 312.41 242.933C316.02 237.008 320.835 225.639 320.062 224.865C319.777 224.579 317.94 225.755 315.981 227.478C310.616 232.195 305.666 231.397 303.608 225.483C301.234 218.662 302.989 209.97 307.794 204.754C309.003 203.441 314.331 199.499 319.633 195.992C329.57 189.421 336.72 182.42 341.047 175.026C343.571 170.713 345.738 164.62 344.748 164.62C344.447 164.62 341.455 167.166 338.098 170.28C334.74 173.393 329.513 177.095 326.483 178.507C314.888 183.908 300.366 181.024 294.31 172.119C289.084 164.436 291.352 148.632 298.642 141.921C302.332 138.524 308.185 136.492 315.918 135.921C322.643 135.425 327.216 136.386 335.699 140.077C341.845 142.752 330.454 130.194 323.519 126.65C321.198 125.464 316.689 124.034 313.499 123.471L307.699 122.448L321.887 108.289C337.692 92.5162 349.123 77.8873 358.177 61.8456C364.981 49.7904 372.684 32.3479 372.205 30.0833C371.988 29.0594 369.525 30.6902 364.4 35.2505C349.768 48.2726 324.633 62.7995 308.338 67.6508L305.685 68.4407L305.842 59.788C305.979 52.233 305.682 50.5773 303.503 46.7259C300.321 41.1037 295.167 36.9893 289.821 35.8034C286.298 35.0216 284.855 35.2325 280.836 37.1192C278.204 38.3561 273.944 41.2417 271.37 43.5313C266.504 47.8627 258.579 58.8391 258.579 61.2487C258.579 63.8414 260.379 62.6455 262.892 58.3852C268.105 49.5444 277.561 42.6374 284.452 42.6374C290.282 42.6374 293.176 44.6422 294.51 49.6074C296.371 56.5274 290.437 68.5047 282.252 74.3518C275.983 78.8312 273.188 80.075 259.029 84.6893C238.078 91.5163 222.092 99.7211 208.949 110.393L204.743 113.808L205.307 108.469C206.375 98.3513 209.776 83.2685 212.703 75.6676C216.399 66.069 220.425 59.602 226.975 52.745C232.356 47.1118 232.052 47.0138 224.636 51.9941C207.984 63.1805 195.352 79.1461 191.214 94.2379C190.477 96.9286 189.834 98.3303 189.784 97.3545C189.611 93.919 185.821 84.5893 182.117 78.4822C177.701 71.2023 167.488 60.0949 159.755 54.1628C150.376 46.9678 148.746 46.7498 155.002 53.5269C164.533 63.8544 172.459 83.7425 174.213 101.734C174.557 105.25 175.056 109.187 175.322 110.482C175.781 112.697 175.558 112.631 171.521 109.347C159.104 99.2452 145.807 92.4262 125.304 85.6442C102.734 78.1773 94.828 72.956 89.7087 62.1346C86.549 55.4576 86.1457 50.9382 88.329 46.7089C90.0641 43.3473 91.6185 42.6374 97.237 42.6374C100.159 42.6374 102.814 43.5083 105.89 45.475C110.876 48.6626 118.273 56.3525 119.996 60.1369C120.621 61.5107 121.741 62.6345 122.485 62.6345C124.724 62.6345 119.219 52.9439 113.603 46.9978C106.564 39.5429 99.7997 35.3895 94.8111 35.4585C89.4022 35.5335 83.1078 39.2209 79.425 44.4722C76.5838 48.5256 76.3762 49.4355 76.2374 58.4701C76.0627 69.7375 76.9731 69.3316 63.9072 63.9693C48.1208 57.4903 28.8393 45.752 17.9327 35.9794C10.1239 28.9814 8.99979 28.1756 8.99979 29.5733ZM41.0358 68.5807C45.023 75.6846 58.7379 93.4651 66.5378 101.643C70.7407 106.048 77.2267 111.915 80.9504 114.68C87.0492 119.208 104.134 129.625 105.462 129.625C105.756 129.625 105.71 128.322 105.36 126.729C104.481 122.719 107.051 117.074 110.795 114.794C113.206 113.325 113.595 112.683 112.585 111.843C110.678 110.259 96.4084 105.628 93.4314 105.628C90.4105 105.628 90.0092 107.964 92.4341 111.43C95.6397 116.015 93.1079 115.709 87.8268 110.873C82.6416 106.124 71.8957 92.1122 70.5779 88.3808C69.7134 85.9331 70.9234 86.1411 80.9914 90.1755C85.8562 92.1252 98.9401 96.8696 110.066 100.72C121.193 104.569 135.41 110.263 141.661 113.372L153.026 119.026L155.386 116.077C157.604 113.303 157.641 113.047 156 111.795C149.004 106.455 126.118 97.3395 102.748 90.5845C84.9138 85.4292 69.2122 79.2881 52.6901 71.0073C45.6979 67.5018 39.716 64.6342 39.3985 64.6342C39.0811 64.6342 39.8178 66.41 41.0358 68.5807ZM334.284 68.7057C319.477 76.1886 298.473 84.6153 282.354 89.5386C251.786 98.8763 232.748 106.326 226.73 111.308L224.331 113.294L226.633 116.413L228.935 119.531L233.524 116.907C236.048 115.464 238.563 113.952 239.112 113.548C241.173 112.031 257.638 105.609 273.363 100.189C282.317 97.1025 294.345 92.7242 300.09 90.4595C305.835 88.1948 310.813 86.619 311.151 86.959C311.49 87.298 310.245 90.1265 308.384 93.2451C304.732 99.3642 289.036 116.47 288.014 115.445C287.671 115.102 288.321 112.995 289.457 110.765C290.594 108.533 291.523 106.465 291.523 106.168C291.523 104.173 278.31 107.186 271.241 110.793L267.43 112.736L270.726 114.962C275.038 117.871 276.729 121.255 276.183 125.875C275.94 127.938 275.991 129.625 276.298 129.625C277.329 129.625 289.969 122.34 296.016 118.261C304.578 112.484 319.312 97.8734 327.827 86.713C336.207 75.7316 342.926 65.7811 342.34 65.2202C342.119 65.0092 338.494 66.578 334.284 68.7057ZM121.039 124.62C115.95 126.768 116.978 131.798 124.028 139.264C127.386 142.821 131.664 145.932 136.46 148.306C140.482 150.297 143.772 152.315 143.772 152.792C143.772 153.838 141.201 153.286 128.798 149.58C116.899 146.022 103.513 142.616 103.093 143.038C102.917 143.214 104.539 145.593 106.696 148.327C111.654 154.608 119.522 160.427 125.491 162.227C148.504 169.163 162.958 149.139 146.145 133.616C138.731 126.772 126.403 122.355 121.039 124.62ZM251.092 124.99C240.399 128.485 233.351 133.86 229.994 141.082C227.055 147.404 227.065 148.091 230.186 154.364C233.742 161.511 238.989 164.076 248.639 163.385C258.107 162.706 264.841 159.221 272.47 151.053C281.617 141.26 281.841 141.333 261.075 147.376C243.518 152.484 238.694 153.563 238.052 152.523C237.742 152.02 238.302 151.338 239.298 151.007C249.974 147.465 263.57 135.605 263.57 129.834C263.57 124.694 258.281 122.641 251.092 124.99ZM169.36 128.327C168.064 129.627 168.798 135.833 170.673 139.413C173.568 144.94 180.953 155.426 180.326 153.121C180.027 152.022 178.846 146.867 177.702 141.667C176.558 136.468 175.12 131.607 174.505 130.865C172.934 128.969 170.11 127.576 169.36 128.327ZM207.77 130.241C204.908 132.802 204.326 134.281 202.556 143.483C201.46 149.18 200.748 154.027 200.975 154.254C201.723 155.002 212.419 137.187 213.072 134.105C213.475 132.203 213.208 130.396 212.351 129.222C211.048 127.437 210.853 127.48 207.77 130.241ZM106.23 177.868C104.785 180.205 101.654 185.042 99.2705 188.616C92.489 198.787 89.5559 208.798 89.4561 222.111C89.4082 228.479 89.9573 235.424 90.7599 238.609C93.4683 249.347 114.226 294.363 115.197 291.601C115.486 290.776 116.715 286.727 117.926 282.603C119.138 278.478 120.919 273.243 121.883 270.969C123.173 267.929 123.342 266.54 122.523 265.72C120.551 263.744 119.158 264.517 117.317 268.605C116.327 270.804 115.142 272.604 114.684 272.604C112.421 272.604 106.875 250.089 105.307 234.546C104.189 223.459 107.518 202.159 111.144 197.196C112.379 195.504 112.55 196.571 112.582 206.195C112.608 213.978 113.22 219.409 114.714 225.111C117.616 236.192 124.35 249.288 129.061 253.01C134.436 257.256 135.404 255.781 133.357 246.465C128.308 223.483 128.362 223.994 129.528 211.215C130.486 200.703 132.88 190.448 136.25 182.409C136.803 181.089 136.322 180.559 134.13 180.077C132.569 179.735 126.745 178.141 121.187 176.536C115.628 174.931 110.579 173.618 109.969 173.618C109.357 173.618 107.674 175.53 106.23 177.868ZM260.076 176.67C255.135 178.223 250.107 179.521 248.904 179.556C247.701 179.59 246.442 180.061 246.108 180.604C245.772 181.147 246.908 185.985 248.631 191.353C251.251 199.524 251.849 203.233 252.3 214.113C252.786 225.824 252.579 228.182 250.218 237.939C247.485 249.233 246.899 255.606 248.593 255.606C251.121 255.606 257.912 247.76 261.049 241.213C266.847 229.109 269.027 219.694 269.001 206.864C268.988 200.677 269.285 195.615 269.66 195.615C270.978 195.615 273.583 203.78 275.174 212.899C276.322 219.478 276.613 225.113 276.195 232.61C275.417 246.516 271.155 267.039 268.204 271.081C266.884 272.889 266.686 272.762 264.669 268.801C262.589 264.718 259.953 263.327 259.086 265.855C258.85 266.543 260.573 272.881 262.913 279.941L267.169 292.777L274.94 276.577C290.295 244.569 292.482 237.964 292.507 223.521C292.523 214.593 290.058 202.536 286.968 196.423C286.049 194.604 282.541 188.741 279.175 183.395C274.645 176.2 272.535 173.697 271.058 173.76C269.96 173.808 265.018 175.117 260.076 176.67Z" fill="#86FFA1"/>
<path fill-rule="evenodd" clip-rule="evenodd" d="M137.495 1.92042C135.235 2.9441 132.09 5.47938 130.507 7.55361C128.011 10.8228 127.646 12.1303 127.761 17.3711C127.937 25.2797 132.085 37.9511 136.938 45.4016C139.05 48.6449 146.077 56.9 152.552 63.746C159.027 70.5921 166.789 79.2176 169.799 82.915C172.809 86.6113 175.672 89.6365 176.159 89.6365C179.474 89.6365 173.656 82.0307 155.59 62.7502C143.248 49.5769 140.34 45.6286 135.515 35.4945C133.005 30.2198 131.863 26.2306 131.446 21.2597C130.727 12.7078 132.4 8.89593 138.155 5.96731C143.905 3.04168 148.836 4.67478 156.167 11.9331C161.775 17.4866 163.363 20.9231 161.967 24.481C160.333 28.6414 161.022 31.6627 164.217 34.3443C167.025 36.7004 167.525 36.8229 168.873 35.4795C169.704 34.651 170.587 31.5133 170.837 28.507C171.425 21.4439 168.627 15.4263 161.395 8.18992C153.15 -0.0582093 146.003 -1.93328 137.495 1.92042ZM226.862 1.9971C222.226 4.44176 214.309 12.4409 211.913 17.1012C207.76 25.1821 208.657 35.8639 213.488 35.8639C216.78 35.8639 220.309 31.1807 219.475 27.9195C217.584 20.5377 217.731 19.4095 221.175 14.9055C225.067 9.81604 229.728 6.42139 234.708 5.05019C237.527 4.27348 238.937 4.46467 242.049 6.04797C248.095 9.12496 249.259 11.6831 248.705 20.697C248.351 26.4696 247.468 30.0614 245.174 35.0543C240.728 44.7374 237.191 49.4365 221.833 66.0602C207.23 81.8664 202.231 88.2175 203.455 89.4055C203.867 89.8068 206.292 87.6788 208.844 84.6775C211.395 81.6752 218.874 73.4689 225.463 66.4396C232.052 59.4103 239.55 50.744 242.126 47.1811C249.087 37.5528 254.38 19.9074 252.521 12.5206C252.162 11.0926 250.262 8.15108 248.3 5.98524C242.839 -0.0442684 233.892 -1.70923 226.862 1.9971ZM25.8463 126.979C25.4559 129.169 24.5165 133.215 23.7578 135.969C21.6014 143.795 14.8488 148.944 5.25102 150.077C-1.29294 150.851 -1.76914 151.985 4.09597 152.829C10.8805 153.807 18.6364 157.592 21.1941 161.175C22.4051 162.872 23.8836 166.85 24.4786 170.017C26.0819 178.546 26.4852 179.186 27.4775 174.777C29.4832 165.866 30.4615 163.276 32.9333 160.347C36.2537 156.41 39.3944 154.828 46.9976 153.262C53.1762 151.989 54.506 150.38 49.3786 150.38C45.1527 150.38 38.0228 147.636 35.0118 144.852C31.2881 141.408 29.6688 137.957 27.9917 129.895L26.5561 122.995L25.8463 126.979ZM352.394 130.518C349.568 143.081 343.854 148.76 332.714 150.076C330.005 150.396 327.79 150.953 327.79 151.315C327.79 151.677 330.397 152.51 333.581 153.166C345.309 155.583 350.531 161.007 352.271 172.586C353.236 179.006 354.352 179.228 355.074 173.143C356.452 161.541 362.07 155.76 374.404 153.253C380.642 151.985 381.966 150.38 376.774 150.38C373.102 150.38 366.353 147.974 362.65 145.343C358.697 142.535 356.72 138.423 355.285 130.016L354.085 122.995L352.394 130.518Z" fill="#B62626"/>
</svg>
