<svg width="441" height="352" viewBox="0 0 441 352" fill="none" xmlns="http://www.w3.org/2000/svg">
<path fill-rule="evenodd" clip-rule="evenodd" d="M424.488 4.21911C393.65 13.704 378.739 22.183 352.845 44.9593C347.49 49.6707 342.323 53.8132 341.363 54.1662C339.195 54.9621 335.125 53.5332 335.125 51.9774C335.125 51.3425 337.849 47.9059 341.178 44.3423C344.507 40.7778 347.022 37.6521 346.767 37.3952C345.709 36.3373 337.315 41.6946 331.808 46.943C328.561 50.0367 320.869 58.8666 314.713 66.5657C308.557 74.2648 300.754 83.7136 297.374 87.5632C293.993 91.4127 291.219 95.1893 291.209 95.9562C291.195 97.075 292.625 97.236 298.431 96.7711C312.362 95.6552 334.515 88.6061 338.721 83.9506C340.369 82.1278 340.272 82.0638 335.861 82.0638C329.835 82.0638 328.135 81.3089 328.135 78.6312C328.135 73.1079 340.149 67.4976 343.911 71.2651C346.69 74.0478 345.283 78.3783 338.852 86.8383C336.647 89.7399 335.04 92.3106 335.28 92.5516C335.521 92.7926 339.741 90.2818 344.657 86.9722C349.574 83.6626 355.216 80.1031 357.196 79.0632C362.081 76.4965 370.112 75.5276 374.251 77.0064C376.071 77.6574 381.295 78.5862 385.861 79.0722C390.697 79.5861 395.487 80.73 397.339 81.8129C401.169 84.0536 404.655 89 406.045 94.1714C407.742 100.482 409.011 99.7767 409.011 92.5226C409.011 88.4701 408.381 84.5365 407.401 82.4668C405.238 77.9033 397.908 72.6989 386.764 67.8145C381.701 65.5958 375.762 62.5942 373.566 61.1423C370.128 58.8716 369.53 57.9357 369.271 54.4181C369.013 50.8965 369.396 49.9727 372.046 47.7399C377.041 43.5304 386.281 42.9115 387.729 46.689C388.057 47.5469 387.596 49.7837 386.704 51.6585C384.644 55.9839 386.416 56.3099 390.998 52.4484C395.246 48.8688 396.542 46.0071 398.587 35.6984C399.807 29.5451 401.096 25.9485 402.814 23.9048C406.433 19.5983 414.893 14.1439 428.731 7.19776C446.001 -1.47121 445.082 -2.11513 424.488 4.21911ZM1.1643 2.40133C2.24764 3.13124 8.04274 6.30887 14.0415 9.46249C34.7268 20.3382 37.9598 23.8838 40.1255 38.0691C40.5039 40.5438 41.4425 43.7994 42.2113 45.3052C44.2472 49.2887 49.546 55.0671 51.1646 55.0671C52.9688 55.0671 52.9219 54.4921 50.8311 50.9475C48.2081 46.5001 49.9624 44.5323 56.3965 44.7033C65.4596 44.9433 71.9576 50.8366 69.3886 56.4839C67.9388 59.6705 61.4038 63.902 51.5599 68.0295C35.1471 74.9107 28.5782 81.9218 28.6102 92.5246C28.6251 97.425 29.8313 101.148 30.8447 99.4188C31.1203 98.9478 32.0788 96.0062 32.9735 92.8815C35.7252 83.2807 42.2063 79.0892 54.3547 79.0532C56.3875 79.0472 60.2556 78.3723 62.9515 77.5534C73.0599 74.4827 77.6299 75.8606 93.0503 86.6263C98.2972 90.2899 102.796 93.0815 103.048 92.8285C103.3 92.5766 101.254 89.315 98.5009 85.5804C91.5955 76.2125 91.6953 70.0653 98.7535 70.0653C103.943 70.0653 110.47 74.8247 110.47 78.6092C110.47 80.552 109.777 80.884 104.479 81.4839C101.184 81.8579 98.4879 82.5978 98.4879 83.1277C98.4879 86.2333 118.215 93.2125 135.152 96.0992C141.032 97.102 146.415 97.601 147.116 97.208C148.024 96.7001 146.963 94.7833 143.418 90.5288C140.683 87.2482 132.215 76.9144 124.599 67.5656C108.841 48.2229 102.954 42.3556 95.5255 38.586C89.303 35.4284 87.6745 36.1073 92.5271 39.8369C99.1169 44.9013 102.482 48.8098 102.482 51.4005C102.482 56.2659 95.8839 55.492 90.9974 50.0516C89.9001 48.8308 84.9587 44.3443 80.0163 40.0828C57.6466 20.7951 43.685 13.265 14.1713 4.56807C1.25516 0.761527 -2.0947 0.203594 1.1643 2.40133ZM127.443 182.93C120.03 185 109.76 188.108 104.621 189.838L95.2758 192.982L95.9448 188.516C96.3512 185.802 96.2284 184.052 95.6313 184.052C93.3208 184.052 85.9861 194.478 79.8915 206.427C76.279 213.509 72.0016 221.549 70.3861 224.293C68.7695 227.038 67.5844 229.694 67.7521 230.196C67.9188 230.698 75.6889 223.78 85.0196 214.821C102.222 198.303 107.051 194.05 108.607 194.05C110.785 194.05 109.072 198.355 104.989 203.145C102.524 206.037 100.695 208.592 100.924 208.823C101.712 209.611 112.963 202.998 121.952 196.464C126.894 192.872 134.195 187.696 138.177 184.962C142.159 182.228 145.416 179.78 145.416 179.522C145.416 178.395 140.018 179.418 127.443 182.93ZM293.189 179.501C293.189 179.749 296.222 182.092 299.929 184.708C303.635 187.324 311.386 192.915 317.152 197.13C326.258 203.787 334.835 209.049 336.582 209.049C337.986 209.049 336.774 206.769 333.128 202.549C329.095 197.883 328.068 195.05 330.409 195.05C332.782 195.05 336.578 198.323 353.497 214.956C362.851 224.152 370.563 230.995 370.8 230.311C371.035 229.631 370.35 227.831 369.278 226.312C368.207 224.791 363.65 216.584 359.151 208.074C351.335 193.287 345.12 184.052 342.985 184.052C342.374 184.052 342.252 185.785 342.667 188.564C343.204 192.148 343.062 192.978 341.979 192.596C333.473 189.595 309.982 182.526 303.453 181.001C294.792 178.978 293.189 178.744 293.189 179.501Z" fill="#FF0000"/>
<path fill-rule="evenodd" clip-rule="evenodd" d="M321.4 17.7516C309.333 28.9118 305.37 31.9884 282.576 47.8805C253.147 68.398 246.893 73.6904 235.98 87.3108L232.804 91.2759L233.335 87.2869C233.627 85.0929 234.975 78.1371 236.329 71.8295C239.21 58.4095 243.936 47.5325 251.428 37.0753C254.335 33.0195 256.539 29.5281 256.329 29.3177C255.764 28.7533 248.061 34.4227 240.722 40.8051C232.687 47.7928 226.477 56.0809 221.638 66.2778L217.883 74.188L214.886 67.5862C208.127 52.6923 194.906 37.6747 180.368 28.3793C177.498 26.5434 177.484 26.5454 178.567 28.5688C179.167 29.6897 180.435 31.2434 181.383 32.0213C184.949 34.9452 192.642 48.1358 195.687 56.5437C198.574 64.5157 203.307 87.5362 202.536 89.8498C202.357 90.3853 200.219 88.0897 197.784 84.7479C190.574 74.8562 180.828 66.8532 147.562 43.5036C136.709 35.8876 124.435 26.692 120.284 23.069C107.309 11.7442 105.93 10.6422 105.398 11.1738C104.6 11.9696 115.833 33.553 121.219 41.5729C126.399 49.2867 136.437 60.8597 137.948 60.8597C138.46 60.8597 137.748 58.6309 136.367 55.9064C134.985 53.1829 133.854 50.266 133.854 49.4243C133.854 47.0708 137.647 47.5674 144.535 50.8224C155.153 55.8416 165.794 67.5174 165.794 74.1501C165.794 76.9594 165.649 77.0531 162.16 76.4876C160.125 76.1576 150.774 71.273 140.908 65.3873C118.771 52.1797 116.993 51.8177 126.025 62.3556C128.845 65.6465 135.526 73.9676 140.871 80.8466C146.217 87.7257 152.977 96.0278 155.893 99.2958C158.81 102.564 162.087 106.25 163.176 107.487L165.157 109.738L160.235 108.207C154.735 106.496 129.15 100.231 124.123 99.3646C118.679 98.4262 120.511 100.59 126.618 102.31C134.903 104.644 145.832 109.797 145.832 111.368C145.832 113.535 135.28 113.04 111.694 109.766C75.5517 104.75 53.9092 102.983 56.16 105.23C56.4046 105.475 61.0888 106.348 66.5695 107.17C82.5865 109.574 88.6521 112.329 101.196 122.897C112.619 132.52 121.879 138.214 130.111 140.677C135.001 142.14 133.059 139.843 125.082 134.731C120.806 131.991 116.202 128.571 114.851 127.132L112.395 124.516L115.195 122.107C125.653 113.11 151.73 132.11 141.59 141.339C138.504 144.147 135.781 145.465 125.417 149.168L116.48 152.361L129.523 153.086L142.568 153.811L138.461 157.569C133.408 162.19 124.36 168.015 119.226 169.95C113.414 172.14 109.239 172.522 99.7353 171.733C92.7884 171.157 91.2772 171.264 92.1196 172.278C94.0799 174.638 106.3 177.687 116.077 178.256C127.407 178.915 133.218 177.967 151.383 172.492C158.552 170.331 164.754 168.563 165.166 168.563C166.723 168.563 164.442 170.774 160.096 173.476C157.615 175.019 155.973 176.514 156.448 176.798C157.905 177.67 171.762 173.619 179.432 170.079C183.428 168.234 190.753 164.218 195.709 161.155C200.666 158.092 204.722 156.001 204.722 156.509C204.722 157.018 202.18 159.696 199.075 162.462C194.911 166.17 186.719 170.909 167.884 180.508C140.96 194.228 136.066 197.569 125.369 209.531C109.179 227.637 106.511 237.454 102.896 292.222C101.115 319.214 98.4457 330.352 91.0017 341.86C88.8787 345.143 86.6129 348.814 85.9681 350.017C83.5227 354.582 88.4934 350.267 97.9427 339.621C111.114 324.781 117.589 315.919 122.01 306.682C128.05 294.059 129.143 288.225 128.632 271.347C128.39 263.356 127.839 256.015 127.406 255.032C125.973 251.767 124.379 253.911 123.795 259.891C122.817 269.911 119.93 272.811 116.974 266.744C115.033 262.759 114.25 240.804 115.803 233.871C117.362 226.911 124.29 217.127 134.644 207.263C144.466 197.905 145.409 197.304 171.864 183.526C192.357 172.853 200.18 168.039 204.146 163.661C206.385 161.189 207.716 160.996 207.716 163.143C207.716 165.74 198.262 174.108 183.892 184.235C164.855 197.647 157.554 203.739 149.492 212.935C141.508 222.043 139.973 223.24 138.768 221.292C138.082 220.184 137.696 220.172 136.641 221.229C134.771 223.1 135.033 247.529 136.978 252.654C137.773 254.751 138.856 256.51 139.383 256.565C139.911 256.619 141.1 253.013 142.026 248.551C145.548 231.579 153.06 221.656 160.305 224.409C162.08 225.083 162.8 226.102 162.8 227.94C162.8 231.444 161.51 233.649 154.453 242.198L148.412 249.516L148.005 264.669C147.545 281.765 148.816 296.053 151.81 307.428C154.637 318.171 157.788 326.259 158.883 325.583C159.39 325.27 159.806 317.895 159.806 309.196C159.806 294.059 159.939 293 162.904 284.573C167.526 271.436 172.34 262.005 186.185 238.953C198.927 217.737 201.478 212.387 204.761 199.976C206.012 195.248 206.629 193.961 206.674 195.987C206.71 197.633 207.412 210.422 208.235 224.409C210.406 261.318 213.64 285.035 217.156 289.84C218.384 291.518 218.647 291.191 220.075 286.218C223.676 273.676 227.194 244.512 228.195 218.924C228.516 210.697 229.016 202.427 229.305 200.548C229.811 197.258 229.923 197.4 232.26 204.335C235.209 213.087 240.098 222.929 247.431 234.88C263.611 261.246 270.112 274.054 273.764 286.755C275.711 293.527 276.056 297.059 276.071 310.422C276.082 320.436 276.449 326.011 277.086 325.805C278.76 325.263 282.507 314.72 284.497 304.955C288.871 283.496 289.743 257.127 286.337 249.34C285.496 247.42 282.27 242.948 279.166 239.401C272.656 231.963 271.579 229.177 274.127 226.363C276.788 223.425 280.101 223.983 284.729 228.148C289.705 232.627 292.014 237.487 293.611 246.847C294.901 254.404 296.167 257.672 297.488 256.856C297.949 256.571 299.105 251.198 300.055 244.914C301.881 232.842 301.546 224.905 299.022 220.42C297.637 217.961 297.617 217.957 297.582 220.17C297.563 221.405 297.104 222.414 296.563 222.414C296.022 222.414 289.847 216.645 282.839 209.595C273.32 200.016 266.209 194.028 254.716 185.91C237.532 173.772 230.172 167.576 229.389 164.59C228.631 161.689 229.493 162.065 235.994 167.467C239.466 170.353 250.539 176.832 263.442 183.529C275.338 189.703 287.541 196.315 290.561 198.222C298.347 203.138 313.416 218.879 317.291 226.144L320.504 232.167V247.833C320.504 260.184 320.163 264.216 318.893 266.891C315.878 273.24 314.098 271.254 312.104 259.312C310.929 252.272 309.681 251.137 308.266 255.822C306.64 261.207 307.018 286.051 308.839 293.461C312.185 307.081 323.778 324.866 341.306 343.269C349.627 352.005 353.581 353.888 347.717 346.322C337.859 333.603 335.674 324.988 332.986 288.233C330.191 250.002 327.751 235.398 322.52 225.591C318.566 218.182 307.183 204.87 299.126 198.234C294.876 194.734 284.439 188.724 267.67 180.121C246.581 169.301 241.585 166.308 236.374 161.375C230.231 155.557 231.3 155.26 239.157 160.603C249.798 167.837 270.474 176.572 276.804 176.508L280.08 176.474L277.881 174.763C276.672 173.821 274.508 172.221 273.071 171.207C271.636 170.193 270.627 169.198 270.83 168.997C271.032 168.794 278.361 170.682 287.117 173.193C307.633 179.075 319.556 179.967 332.168 176.566C336.66 175.354 341.152 173.745 342.149 172.991C343.72 171.8 342.401 171.613 332.208 171.586C320.825 171.555 320.239 171.446 313.618 168.115C309.859 166.223 303.823 162.409 300.206 159.638C296.587 156.868 293.1 154.601 292.456 154.601C291.623 154.601 291.47 156.187 291.929 160.086C292.556 165.412 292.504 165.571 290.137 165.571C286.694 165.571 265.14 159.913 261.583 158.076C257.665 156.051 257.847 155.003 262.363 153.561C270.17 151.068 269.621 150.723 253.63 148.075C238.102 145.503 230.98 143.629 229.182 141.643C226.786 138.998 227.899 137.939 233.918 137.134C236.799 136.749 245.445 134.413 253.131 131.942C266.664 127.591 277.248 125.97 277.746 128.174C278.153 129.979 270.322 133.599 255.626 138.399L241.153 143.126L255.172 143.628C266.31 144.027 269.746 144.493 271.891 145.898C273.376 146.871 274.591 148.123 274.591 148.681C274.591 149.239 272.682 151.467 270.348 153.632C265.498 158.133 265.992 158.355 274.751 155.611C279.118 154.244 284.172 153.593 291.06 153.511C296.549 153.446 305.083 153.103 310.024 152.75L319.007 152.108L309.845 148.81C299.962 145.252 293.114 140.973 292.077 137.707C291.048 134.47 295.322 128.076 301.232 124.01C307.989 119.359 315.217 118.461 320.287 121.641C323.089 123.398 323.409 123.985 322.499 125.684C321.914 126.777 318.194 129.896 314.232 132.615C303.344 140.089 302.983 140.382 303.745 141.162C305.256 142.711 321.527 133.31 332.533 124.528C346.626 113.284 352.615 110.401 367.332 107.773C378.139 105.844 381.475 104.886 378.313 104.62C371.156 104.017 344.633 106.566 319.506 110.27C302.621 112.76 289.562 113.427 289.562 111.801C289.562 110.194 295.889 106.907 304.076 104.26C312.626 101.497 315.298 100.202 314.368 99.2728C313.298 98.2028 291.72 103.371 272.186 109.375C271.137 109.697 274.071 105.756 278.703 100.618C283.336 95.4803 291.652 85.442 297.181 78.3116C302.712 71.1813 309.318 62.9121 311.864 59.9343C314.408 56.9575 316.312 54.3447 316.095 54.1273C315.525 53.5579 310.582 56.2195 297.67 64.047C273.492 78.7055 267.655 80.2423 270.654 71.1633C272.264 66.2878 284.711 53.8281 291.276 50.5193C300.95 45.6437 303.795 47.5485 299.474 56.0101C298.338 58.235 297.654 60.3023 297.956 60.6025C298.635 61.2816 307.592 51.5873 313.249 44.0491C319.561 35.6363 332.632 10 330.608 10C330.153 10 326.009 13.4884 321.4 17.7516ZM165.133 87.2639C157.885 92.3349 165.281 105.475 183.024 119.047C190.383 124.678 202.715 131.664 205.293 131.664C208.97 131.664 204.463 116.552 197.688 106.163C187.827 91.0425 172.472 82.1271 165.133 87.2639ZM256.125 88.6282C248.033 92.4586 240.669 100.832 234.288 113.456C231.585 118.803 228.143 131.463 229.125 132.444C230.304 133.622 246.581 124.444 254.299 118.251C266.753 108.256 275.693 95.8213 274.08 90.7393C273.305 88.3001 268.653 85.791 264.909 85.792C263.372 85.792 259.419 87.0685 256.125 88.6282ZM158.446 128.174C159.267 130.308 169.562 134.949 181.765 138.685C187.529 140.45 192.694 142.162 193.243 142.489C194.952 143.506 186.705 144.511 176.16 144.571C167.366 144.622 165.709 144.908 163.312 146.791L160.561 148.953L165.424 153.346C169.419 156.955 169.841 157.63 167.791 157.128C158.247 154.795 151.738 153.636 148.078 153.621L143.836 153.604V159.587C143.836 166.595 143.324 166.422 155.813 163.634C166.384 161.275 176.993 157.485 177.519 155.881C177.761 155.14 176.129 154.216 173.335 153.514C170.816 152.88 168.531 152 168.258 151.559C167.567 150.441 169.516 149.953 183.761 147.677C190.623 146.581 198.596 144.981 201.478 144.12C205.882 142.806 206.718 142.18 206.718 140.196C206.718 138.102 206.127 137.757 201.478 137.138C198.596 136.754 189.388 134.244 181.017 131.56C165.354 126.537 157.357 125.337 158.446 128.174Z" fill="white"/>
</svg>
