<svg width="443" height="353" viewBox="0 0 443 353" fill="none" xmlns="http://www.w3.org/2000/svg">
<path fill-rule="evenodd" clip-rule="evenodd" d="M426.512 4.00176C395.149 13.1987 377.892 23.0119 352.888 45.8679C344.476 53.5584 342.468 54.9319 340.004 54.6812C338.399 54.5184 336.59 53.5834 335.986 52.6025C335.051 51.0871 335.953 49.7776 342.01 43.8621C345.927 40.0353 348.722 36.9047 348.218 36.9047C347.716 36.9047 344.984 38.0804 342.147 39.5178C335.516 42.8791 328.093 50.4099 316.659 65.3735C311.622 71.9662 303.678 81.6227 299.008 86.832C293.123 93.3928 290.904 96.5213 291.785 97.0148C293.519 97.9847 305.765 96.1947 317.152 93.3058C327.386 90.7097 335.469 87.3364 339.381 84.032L341.878 81.9223L335.604 81.8884C330.855 81.8634 329.183 81.4758 328.73 80.2931C327.097 76.0368 334.01 69.8795 340.429 69.8725C348.429 69.8635 348.624 75.9169 340.935 85.5064C337.943 89.2363 335.699 92.4907 335.946 92.7385C336.193 92.9852 339.557 90.9754 343.422 88.2714C357.229 78.609 360.936 76.709 367.067 76.1537C371.138 75.7841 373.992 76.1067 376.712 77.2435C378.838 78.1325 382.882 78.8617 385.699 78.8647C398.792 78.8787 404.993 83.7274 407.73 96.0898C408.065 97.6011 408.78 98.8368 409.318 98.8368C410.787 98.8368 410.498 87.2645 408.937 83.5266C406.621 77.9856 399.448 72.6765 387.874 67.9377C373.762 62.16 369.346 58.9615 369.346 54.5144C369.346 48.0185 376.109 43.2697 384.227 44.0638C388.703 44.5024 390.166 46.8348 388.302 50.5617C387.525 52.116 386.726 53.7233 386.525 54.1358C385.579 56.0767 389.629 54.5543 392.786 51.7824C396.489 48.5319 398.494 43.2987 399.827 33.4085C400.198 30.6615 401.244 27.1374 402.153 25.5771C404.881 20.8932 415.006 13.9928 429.026 7.26218C447.327 -1.52318 446.963 -1.99467 426.512 4.00176ZM10.7627 7.22722C31.4527 17.5399 37.6974 22.8731 39.6292 31.8802C40.2335 34.6981 40.7279 37.8846 40.7279 38.9624C40.7279 44.3545 48.4199 54.885 52.3594 54.885C53.547 54.885 53.4311 54.2976 51.783 51.9842C49.4288 48.6778 49.195 46.8168 50.916 45.0957C53.9595 42.052 67.269 45.3584 69.6133 49.7396C73.0873 56.2315 69.1628 60.7735 54.8654 66.8069C36.6047 74.5135 30.7235 79.49 29.3941 88.3663C28.7238 92.8384 29.5739 99.8357 30.7874 99.8357C31.2189 99.8357 32.0769 97.4763 32.6932 94.5914C34.4442 86.3904 37.7274 82.231 43.8912 80.4C46.7459 79.5519 51.4165 78.8587 54.2711 78.8587C57.1258 78.8587 61.0752 78.1844 63.0479 77.3603C67.8813 75.3405 75.3077 75.5064 80.2329 77.7439C82.4584 78.7548 88.3016 82.5616 93.2178 86.2046C98.1341 89.8466 102.76 92.8304 103.498 92.8354C104.256 92.8394 103.139 90.7806 100.929 88.0986C94.844 80.7157 93.6663 78.6469 93.6663 75.3395C93.6663 71.3249 95.2555 69.8685 99.6364 69.8685C105.075 69.8685 111.864 75.3525 111.385 79.3581C111.179 81.0803 110.285 81.3969 104.903 81.6536C101.47 81.8164 98.6605 82.3718 98.6605 82.8873C98.6605 85.5533 116.781 92.3978 131.123 95.1488C143.875 97.5951 148.606 97.9807 148.571 96.5703C148.555 95.894 144.722 91.0703 140.052 85.851C135.384 80.6317 127.195 70.7426 121.857 63.8751C116.518 57.0077 110.126 49.364 107.653 46.8887C103.217 42.4506 91.5398 35.4493 89.633 36.0846C89.0946 36.2644 91.8075 38.8166 95.662 41.7564C102.461 46.9427 104.547 50.1202 103.294 53.3846C102.953 54.2756 101.453 54.885 99.6044 54.885C97.1792 54.885 95.1276 53.5984 90.3332 49.0674C69.5763 29.4539 54.6437 19.2371 35.494 11.5505C26.1009 7.77962 3.18654 0.925132 0.138084 0.974079C-0.885726 0.990061 3.89571 3.80398 10.7627 7.22722ZM130.623 182.254C123.756 184.097 113.442 187.209 107.704 189.17C101.965 191.13 96.8566 192.734 96.3532 192.734C95.4513 192.734 95.7799 189.639 97.2012 184.743C97.8095 182.649 97.0833 183.052 92.7124 187.24C88.6362 191.145 86.215 194.891 81.6203 204.409C78.3871 211.105 73.9313 219.541 71.7188 223.156C69.5064 226.771 67.6965 230.239 67.6965 230.862C67.6965 231.485 76.0029 223.825 86.1541 213.839C103.171 197.098 107.898 193.231 109.897 194.408C111.672 195.454 110.313 198.201 105.508 203.282C102.681 206.271 100.933 208.716 101.622 208.716C104.199 208.716 114.811 202.277 125.291 194.354C131.245 189.852 138.251 184.837 140.859 183.208C145.523 180.296 146.819 178.674 144.357 178.826C143.671 178.868 137.49 180.411 130.623 182.254ZM294.433 179.493C294.433 179.977 298.591 183.175 303.672 186.602C308.753 190.028 316.058 195.283 319.903 198.281C327.829 204.458 336.897 209.535 338.012 208.42C338.424 208.008 336.653 205.531 334.077 202.916C329.205 197.97 328.066 194.732 331.196 194.732C334.201 194.732 339.158 199.023 355.733 215.976C365.07 225.527 371.779 231.664 372.058 230.91C372.317 230.206 371.431 228.183 370.089 226.415C368.745 224.647 364.009 216.008 359.563 207.218C353.428 195.089 350.35 190.152 346.794 186.74C342.751 182.861 342.209 182.587 342.836 184.743C344.406 190.139 344.596 192.734 343.42 192.734C342.77 192.734 336.538 190.774 329.572 188.378C322.606 185.982 312.637 183.037 307.418 181.834C302.199 180.631 297.142 179.414 296.181 179.131C295.22 178.847 294.433 179.01 294.433 179.493Z" fill="#FF0000"/>
<path fill-rule="evenodd" clip-rule="evenodd" d="M324.2 15.8425C312.532 27.0221 307.298 31.1146 285.495 46.1022C254.019 67.7387 247.11 73.5391 238.442 85.6061C236.461 88.362 234.64 90.4143 234.392 90.1667C233.501 89.2754 238.05 65.913 240.516 58.7192C243.654 49.5649 248.675 40.4955 254.465 33.5232C256.907 30.5816 258.738 28.0063 258.534 27.8017C257.995 27.2626 252.62 31.1326 244.279 38.0659C233.469 47.0505 225.766 57.4954 221.467 68.9944C219.431 74.4385 219.125 74.8048 218.481 72.5649C218.087 71.1924 215.849 66.2424 213.51 61.564C207.483 49.516 193.865 35.1971 180.692 27.059C178.023 25.41 178.162 25.7225 181.965 29.9258C191.73 40.7221 198.276 54.5268 201.473 71.0676C203.237 80.193 204.502 90.5321 203.854 90.5321C203.612 90.5321 202.154 88.6236 200.613 86.2898C193.66 75.763 181.509 65.4429 152.745 45.6321C131.412 30.9399 123.862 25.1585 115.051 16.7678C110.786 12.7052 106.993 9.68375 106.624 10.0531C105.745 10.9325 115.411 30.0006 121.342 39.087C126.7 47.295 137.872 60.5868 139.412 60.5868C139.988 60.5868 139.039 58.0694 137.302 54.993C133.415 48.1046 133.838 46.1202 138.985 47.0854C149.918 49.1367 164.389 61.7027 167.231 71.6136C169.439 79.3106 163.632 78.0638 145.643 66.9791C126.943 55.4551 122.535 53.0346 121.727 53.8421C121.349 54.2194 123.382 57.0912 126.244 60.2224C129.107 63.3537 136.085 72.0159 141.754 79.4723C147.421 86.9276 155.582 96.8206 159.888 101.456C164.194 106.091 166.819 109.536 165.721 109.111C156.901 105.699 127.595 98.5175 122.492 98.5175C119.341 98.5175 122.856 100.373 128.992 101.948C140.006 104.777 149.019 109.447 147.672 111.628C146.655 113.274 134.196 112.479 115.065 109.549C94.2832 106.366 68.2473 103.49 60.6595 103.538C53.3982 103.585 57.4606 105.132 68.2812 106.441C83.6363 108.298 90.3356 111.413 103.074 122.62C110.976 129.574 119.753 135.437 126.295 138.132C136.645 142.396 136.748 140.567 126.495 134.551C122.816 132.392 118.32 129.08 116.502 127.189L113.199 123.751L116.33 121.116C121.142 117.067 128.742 117.896 136.766 123.346C144.306 128.467 147.643 137.035 143.512 140.671C140.667 143.177 132.257 147.071 124.274 149.577L116.813 151.92L137.274 152.487C154.631 152.968 158.72 153.383 164.223 155.225C167.792 156.418 170.936 157.381 171.21 157.364C171.485 157.347 169.464 155.323 166.719 152.864L161.728 148.396L164.529 145.916C167.24 143.514 167.796 143.435 181.946 143.435C190.143 143.435 196.146 143.059 195.614 142.579C195.093 142.109 189.052 140.056 182.19 138.017C168.167 133.852 159.929 129.893 159.39 127.062C159.056 125.313 159.498 125.212 164.967 125.784C168.233 126.125 176.347 128.44 182.997 130.927C190.128 133.594 197.869 135.757 201.865 136.199C208.227 136.901 208.64 137.099 208.64 139.443C208.64 141.562 207.861 142.197 203.48 143.651C200.642 144.592 191.896 146.301 184.045 147.449C166.416 150.024 165.666 150.454 174.835 152.717C177.507 153.376 179.694 154.365 179.694 154.914C179.694 157.195 161.778 162.996 149.093 164.821L144.442 165.49L144.989 159.454C145.579 152.948 144.811 152.04 141.671 155.532C138.544 159.01 127.95 166.202 121.681 169.102C116.818 171.351 114.506 171.8 108.158 171.725C103.948 171.676 98.3336 171.349 95.6816 171.001L90.8617 170.366L94.5607 172.374C99.7449 175.187 107.955 177.163 117.575 177.91C126.782 178.626 135.54 177.164 150.749 172.37C164.948 167.894 167.4 167.339 166.962 168.702C166.754 169.354 164.163 171.347 161.205 173.131C156.522 175.956 156.17 176.375 158.477 176.375C162.231 176.375 176.636 171.685 183.495 168.229C186.683 166.623 192.298 163.382 195.972 161.027C199.645 158.674 203.729 156.17 205.048 155.465L207.443 154.185L205.179 157.364C200.764 163.566 192.371 168.853 167.717 180.965C145.571 191.845 141.956 193.964 135.587 199.798C126.554 208.073 117.29 219.535 113.982 226.53C109.214 236.608 106.255 256.017 104.282 290.136C102.51 320.793 100.073 330.541 90.7608 344.217C87.8254 348.528 85.8132 352.054 86.2873 352.054C87.5379 352.054 102.053 336.517 109.466 327.244C121.447 312.254 127.635 299.913 129.403 287.483C130.645 278.749 130.029 259.218 128.376 254.922C126.82 250.877 125.297 252.556 125.297 258.317C125.297 264.725 122.974 270.479 120.575 270.017C117.423 269.41 115.989 262.726 115.906 248.244C115.818 232.678 116.607 229.547 122.825 220.794C128.253 213.152 141.163 200.631 148.254 196.13C151.273 194.214 163.26 187.835 174.891 181.957C190.843 173.896 197.536 169.935 202.128 165.838C205.477 162.849 208.424 160.404 208.678 160.404C208.931 160.404 209.139 161.342 209.139 162.487C209.139 165.67 199.735 174.048 184.619 184.333C166.112 196.925 157.962 203.798 149.751 213.74C142.66 222.324 140.957 223.53 139.883 220.731C138.809 217.93 137.503 220.16 136.354 226.754C134.655 236.511 138.441 259.639 141.238 256.586C141.669 256.116 142.527 252.217 143.146 247.923C145.088 234.442 152.296 223.29 159.068 223.29C165.787 223.29 166.197 229.984 159.912 237.061C157.54 239.732 154.284 243.641 152.675 245.749L149.751 249.581L149.425 268.243C149.058 289.289 150.269 298.944 155.21 314.371C160.294 330.243 160.884 329.834 160.802 310.497L160.73 293.661L164.415 283.02C168.731 270.558 172.545 262.785 181.724 247.745C197.461 221.956 200.079 217.261 202.635 210.233C204.117 206.16 205.901 200.132 206.599 196.838L207.866 190.849L208.468 201.33C208.8 207.094 209.554 221.019 210.145 232.273C211.555 259.115 215.021 283.206 218.398 289.646C219.338 291.437 219.556 291.264 220.758 287.794C224.787 276.157 228.48 244.873 229.905 210.313L230.625 192.845L232.488 200.17C234.848 209.454 240.957 222.02 250.389 236.998C271.892 271.138 278.176 287.336 278.176 308.624C278.176 314.172 277.863 320.373 277.482 322.406C276.493 327.68 278.636 327.195 281.117 321.584C286.318 309.83 290.566 280.797 289.783 262.368C289.252 249.866 288.376 247.759 279.919 238.668C273.525 231.795 272.412 228.046 275.842 224.942C278.749 222.31 281.722 222.991 286.478 227.375C291.507 232.011 294.375 238.491 295.5 247.763C296.282 254.195 297.569 257.594 298.91 256.765C299.371 256.48 300.546 250.976 301.519 244.533C302.964 234.975 303.088 231.64 302.195 226.424C301.084 219.936 298.97 215.787 298.97 220.095C298.97 223.863 296.31 222.547 290.799 216.053C280.683 204.132 272.327 196.779 257.088 186.389C240.907 175.357 231.619 167.612 230.558 164.267C229.434 160.726 230.938 161.001 235.454 165.165C241.75 170.968 245.968 173.452 270.024 185.517C286.987 194.024 293.01 197.593 298.768 202.547C307.581 210.132 316.153 220.028 319.761 226.783C322.334 231.601 322.425 232.327 322.402 247.745C322.382 261.029 322.083 264.262 320.629 266.96C317.177 273.364 314.674 270.571 313.427 258.925C311.906 244.723 308.572 254.476 308.547 273.198C308.52 292.854 312.034 303.836 323.398 319.614C332.436 332.162 347.353 349.101 351.242 351.231C353.501 352.469 353.219 351.943 347.241 343.794C339.615 333.4 336.473 321.355 334.877 296.406C332.45 258.451 330.68 244.194 326.865 231.843C324.354 223.709 316.282 212.702 304.753 201.687C296.545 193.845 295.32 193.094 269.933 180.341C246.866 168.753 242.849 166.383 237.356 161.106C233.909 157.797 231.284 154.895 231.523 154.656C231.761 154.417 236.162 156.947 241.302 160.277C255.352 169.379 274.237 177.098 280.191 176.172C282.25 175.851 282.062 175.581 278.441 173.671C274.528 171.607 271.317 168.717 272.127 167.991C272.343 167.797 278.195 169.351 285.132 171.444C307.67 178.244 315.468 179.324 327.703 177.339C334.31 176.265 344.882 172.712 344.884 171.562C344.885 171.19 339.833 171.031 333.655 171.209L322.426 171.532L314.441 167.517C310.049 165.309 303.78 161.233 300.51 158.46C297.24 155.686 294.164 153.417 293.675 153.417C293.174 153.417 293.094 156.08 293.492 159.513L294.2 165.608L289.848 164.929C283.149 163.885 266.97 159.591 262.76 157.74C260.685 156.829 259.149 155.6 259.345 155.01C259.542 154.42 261.801 153.345 264.365 152.622C266.928 151.897 269.026 150.914 269.026 150.437C269.026 149.959 266.444 149.266 263.287 148.896C256.384 148.088 240.115 145.057 234.365 143.509C230.408 142.443 228.185 139.736 229.51 137.594C229.804 137.117 232.865 136.496 236.311 136.215C240.193 135.898 246.75 134.123 253.555 131.548C266.297 126.724 277.362 124.422 279.162 126.222C280.04 127.1 280.025 127.735 279.096 128.855C277.35 130.958 265.252 135.707 253.306 138.979C247.679 140.52 243.075 142.063 243.075 142.408C243.075 142.753 249.027 143.013 256.3 142.986C267.15 142.945 270.108 143.255 272.769 144.709C277.103 147.077 276.877 149.552 272.02 152.918C269.825 154.44 268.028 156.049 268.028 156.494C268.028 157.277 277.493 154.86 279.506 153.562C280.055 153.208 289.712 152.694 300.966 152.419L321.427 151.92L314.279 149.577C303.132 145.924 294.638 141.226 293.534 138.105C290.861 130.544 304.136 118.68 315.439 118.529C318.738 118.484 324.921 121.784 324.921 123.589C324.921 125.484 318.113 131.304 311.333 135.203C305.403 138.614 303.535 140.441 305.978 140.441C308.146 140.441 320.325 134.332 325.004 130.897C327.707 128.913 333.397 124.36 337.65 120.779C348.375 111.748 354.947 108.823 368.933 106.852C375.194 105.971 380.766 104.801 381.315 104.253C383.383 102.19 343.259 105.998 315.919 110.459C300.665 112.948 290.985 113.163 290.985 111.012C290.985 109.079 298.555 105.296 307.953 102.53C316.242 100.092 318.861 98.5175 314.632 98.5175C311.056 98.5175 293.934 102.629 281.629 106.443C276.21 108.123 271.541 109.497 271.256 109.497C270.971 109.497 274.581 105.511 279.278 100.639C283.974 95.7665 291.777 86.4455 296.617 79.9264C301.457 73.4073 308.233 64.835 311.676 60.8782C315.117 56.9215 317.934 53.4328 317.934 53.1254C317.934 52.1681 308.974 57.1181 295.57 65.4808C277.468 76.7732 271.022 78.8933 271.022 73.5551C271.022 65.1384 291.414 46.6622 300.747 46.6223C304.18 46.6073 304.454 49.0878 301.567 54.0148C300.138 56.4523 298.991 59.0406 299.018 59.7663C299.091 61.8455 311.584 47.895 317.053 39.6251C322.871 30.8271 333.482 9.92331 332.584 9.02595C332.243 8.68457 328.47 11.752 324.2 15.8425ZM165.97 86.5144C162.11 89.5608 162.226 94.6705 166.296 100.813C170.535 107.215 182.903 118.538 191.528 123.914C198.76 128.422 207.635 132.296 208.575 131.356C208.853 131.077 208.265 127.423 207.266 123.234C204.062 109.785 192.094 93.0565 182.026 87.9538C174.848 84.3164 169.378 83.8263 165.97 86.5144ZM258.646 87.0115C251.184 90.0789 247.27 93.8151 239.962 104.848C234.138 113.64 231.854 119.245 230.548 127.954L229.861 132.534L234.223 130.804C254.465 122.77 278.014 99.6414 275.63 90.1378C274.928 87.3429 270.483 84.529 266.83 84.567C265.568 84.5799 261.885 85.6799 258.646 87.0115Z" fill="#86FFA0"/>
</svg>
