<svg width="239" height="778" viewBox="0 0 239 778" fill="none" xmlns="http://www.w3.org/2000/svg">
<path d="M183.289 0L238.5 4.99234L238.5 91.8157L183.289 86.8234V80.5287C183.289 77.0558 179.651 73.7999 172.375 70.7611C165.313 67.7946 156.753 65.8411 146.695 64.9005L8.97995e-05 51.5514L9.30126e-05 26.6982L164.992 41.6752C166.49 41.8199 168.095 41.8923 169.807 41.8923C178.795 41.8923 183.289 40.3005 183.289 37.117L183.289 0ZM238.5 98.0019V128.933L183.289 123.94L183.289 93.0096L238.5 98.0019Z" fill="#4200FF"/>
<path d="M110.102 145.233C110.102 144.22 108.925 143.28 106.571 142.412C104.217 141.616 101.542 141.218 98.5458 141.218C94.0519 141.218 91.8049 142.014 91.8049 143.605L91.8049 245.948L6.57473e-05 237.592L8.05783e-05 122.876C8.08402e-05 120.85 1.81906 119.15 5.45701 117.775C9.30896 116.401 14.2309 115.713 20.2228 115.713C22.7908 115.713 25.2518 115.822 27.6057 116.039L146.695 126.892C151.831 127.326 156.111 128.303 159.535 129.822C163.173 131.342 164.992 132.969 164.992 134.706V153.373L220.203 158.365C225.125 158.799 229.405 159.776 233.043 161.296C236.681 162.815 238.5 164.443 238.5 166.179V259.189L183.289 254.197L183.289 176.707C183.289 175.694 182.112 174.753 179.758 173.885C177.404 173.089 174.729 172.691 171.733 172.691C167.239 172.691 164.992 173.487 164.992 175.079V215.343L110.102 210.351L110.102 145.233Z" fill="#4200FF"/>
<path d="M4.89072e-05 367.848L6.37381e-05 253.133C6.40001e-05 251.107 1.81904 249.406 5.45699 248.032C9.30894 246.657 14.2309 245.97 20.2228 245.97C22.7908 245.97 25.2517 246.078 27.6057 246.295L220.203 263.768C225.125 264.203 229.405 265.179 233.043 266.699C236.681 268.29 238.5 269.955 238.5 271.691L238.5 389.445L183.289 384.453L183.289 282.218C183.289 280.048 180.293 278.709 174.301 278.203L100.793 271.583C99.9368 271.51 99.1878 271.474 98.5458 271.474C94.0518 271.474 91.8049 272.27 91.8049 273.862L91.8049 376.205L4.89072e-05 367.848Z" fill="#4200FF"/>
<path d="M3.60659e-05 467.173L91.8048 475.422C93.5168 475.566 95.1218 475.639 96.6198 475.639C105.608 475.639 110.102 474.047 110.102 470.863L110.102 408.893C110.102 407.157 108.283 405.493 104.645 403.901C101.007 402.381 96.7268 401.405 91.8049 400.971L4.56913e-05 392.722L4.81047e-05 374.055L238.5 395.761V414.32L174.301 408.459C173.445 408.387 172.589 408.35 171.733 408.35C167.239 408.35 164.992 409.146 164.992 410.738L164.992 479.003C164.992 481.029 168.095 482.331 174.301 482.91L238.5 488.771V519.701L3.2067e-05 498.104L3.60659e-05 467.173Z" fill="#4200FF"/>
<path d="M129.682 604.484C128.826 604.846 128.398 605.316 128.398 605.895C128.398 607.921 131.501 609.223 137.707 609.802L238.5 618.918V649.849L36.9145 631.616C26.6427 630.676 17.9758 628.686 10.9139 625.647C3.85197 622.681 0.321012 619.425 0.321013 615.88L0.321016 591.135C0.321017 584.406 8.77391 578.907 25.6797 574.638L180.4 544.684C182.54 544.106 183.61 543.418 183.61 542.622C183.396 540.596 180.293 539.294 174.301 538.715L0.321025 522.979L0.321027 504.42L220.203 524.281C225.125 524.715 229.405 525.692 233.043 527.211C236.681 528.803 238.5 530.467 238.5 532.204V550.762C238.5 555.61 234.969 559.553 227.907 562.592L129.682 604.484Z" fill="#4200FF"/>
<path d="M210.894 777.612L36.5935 761.875C26.5357 761.007 17.8688 759.017 10.5929 755.906C3.53095 752.867 -4.48998e-07 749.611 0 746.138L1.32314e-05 643.795C1.34933e-05 641.769 1.81899 640.069 5.45694 638.694C9.30889 637.32 14.2308 636.632 20.2228 636.632C22.7907 636.632 25.2517 636.741 27.6057 636.958L220.203 654.431C225.125 654.865 229.405 655.842 233.043 657.362C236.681 658.953 238.5 660.617 238.5 662.354L238.5 770.883C238.5 772.981 236.574 774.682 232.722 775.984C229.084 777.286 224.162 777.937 217.956 777.937C215.602 777.937 213.248 777.829 210.894 777.612ZM91.8048 732.789C91.8048 734.888 94.8008 736.19 100.793 736.696L174.301 743.317C175.157 743.389 175.906 743.425 176.548 743.425C181.042 743.425 183.289 742.629 183.289 741.038L183.289 672.881C183.289 670.711 180.293 669.372 174.301 668.866L100.793 662.245C99.9367 662.173 99.1877 662.137 98.5457 662.137C94.0518 662.137 91.8048 662.933 91.8048 664.524L91.8048 732.789Z" fill="#4200FF"/>
</svg>
