<svg width="239" height="828" viewBox="0 0 239 828" fill="none" xmlns="http://www.w3.org/2000/svg">
<mask id="path-1-inside-1_382_63" fill="white">
<path d="M183.673 0L239 5.31362L239 97.7243L183.673 92.4107V85.7109C183.673 82.0145 180.027 78.5491 172.736 75.3147C165.659 72.1574 157.082 70.0781 147.003 69.077L8.99878e-05 54.8689L9.32076e-05 28.4163L165.338 44.3571C166.839 44.5112 168.447 44.5882 170.163 44.5882C179.17 44.5882 183.673 42.894 183.673 39.5056L183.673 0ZM239 104.309V137.23L183.673 131.916L183.673 98.995L239 104.309Z"/>
<path d="M110.332 154.579C110.332 153.501 109.153 152.5 106.794 151.576C104.435 150.729 101.755 150.305 98.7524 150.305C94.249 150.305 91.9974 151.153 91.9974 152.847L91.9973 261.776L6.58852e-05 252.881L8.07472e-05 130.784C8.10097e-05 128.627 1.82287 126.818 5.46845 125.355C9.32848 123.891 14.2607 123.16 20.2652 123.16C22.8386 123.16 25.3047 123.275 27.6636 123.506L147.003 135.058C152.149 135.52 156.438 136.559 159.869 138.177C163.515 139.794 165.338 141.526 165.338 143.375V163.243L220.665 168.557C225.597 169.019 229.886 170.058 233.532 171.675C237.177 173.293 239 175.025 239 176.874V275.869L183.673 270.555L183.673 188.078C183.673 187 182.493 185.999 180.135 185.075C177.776 184.228 175.095 183.804 172.093 183.804C167.59 183.804 165.338 184.651 165.338 186.346V229.201L110.332 223.888L110.332 154.579Z"/>
<path d="M4.90097e-05 391.52L6.38718e-05 269.422C6.41342e-05 267.266 1.82285 265.456 5.46843 263.993C9.32846 262.53 14.2607 261.798 20.2652 261.798C22.8385 261.798 25.3047 261.914 27.6636 262.145L220.665 280.743C225.597 281.205 229.886 282.244 233.532 283.862C237.177 285.556 239 287.327 239 289.175L239 414.507L183.673 409.194L183.673 300.38C183.673 298.07 180.671 296.645 174.666 296.106L101.004 289.06C100.146 288.983 99.3957 288.944 98.7524 288.944C94.249 288.944 91.9973 289.791 91.9973 291.485L91.9973 400.415L4.90097e-05 391.52Z"/>
<path d="M3.61415e-05 497.237L91.9973 506.016C93.7129 506.17 95.3212 506.247 96.8223 506.247C105.829 506.247 110.332 504.553 110.332 501.165L110.332 435.207C110.332 433.358 108.51 431.587 104.864 429.893C101.218 428.276 96.9296 427.236 91.9973 426.774L4.57871e-05 417.995L4.82055e-05 398.127L239 421.229V440.982L174.666 434.745C173.808 434.668 172.951 434.629 172.093 434.629C167.589 434.629 165.338 435.476 165.338 437.17L165.338 509.828C165.338 511.985 168.447 513.371 174.666 513.987L239 520.224V553.146L3.21343e-05 530.159L3.61415e-05 497.237Z"/>
<path d="M129.954 643.384C129.096 643.769 128.668 644.27 128.668 644.886C128.668 647.042 131.777 648.428 137.996 649.044L239 658.748V691.669L36.9919 672.263C26.6985 671.262 18.0135 669.144 10.9368 665.909C3.86004 662.752 0.321685 659.287 0.321686 655.513L0.321689 629.176C0.32169 622.014 8.7923 616.162 25.7335 611.618L180.778 579.736C182.922 579.12 183.995 578.389 183.995 577.542C183.78 575.385 180.671 573.999 174.666 573.383L0.321698 556.634L0.3217 536.881L220.665 558.02C225.597 558.482 229.886 559.522 233.532 561.139C237.177 562.833 239 564.604 239 566.452V586.205C239 591.365 235.462 595.562 228.385 598.796L129.954 643.384Z"/>
<path d="M211.336 827.654L36.6702 810.904C26.5913 809.98 17.9062 807.862 10.6151 804.551C3.53836 801.316 -4.49939e-07 797.851 0 794.155L1.32591e-05 685.225C1.35216e-05 683.069 1.8228 681.259 5.46838 679.796C9.32841 678.333 14.2607 677.602 20.2651 677.602C22.8385 677.602 25.3046 677.717 27.6635 677.948L220.665 696.546C225.597 697.008 229.886 698.047 233.532 699.665C237.177 701.359 239 703.13 239 704.978L239 820.492C239 822.725 237.07 824.535 233.21 825.921C229.564 827.307 224.632 828 218.413 828C216.054 828 213.695 827.885 211.336 827.654ZM91.9973 779.946C91.9973 782.18 94.9995 783.566 101.004 784.105L174.666 791.151C175.524 791.228 176.274 791.267 176.918 791.267C181.421 791.267 183.673 790.42 183.673 788.725L183.673 716.183C183.673 713.873 180.671 712.448 174.666 711.909L101.004 704.863C100.146 704.786 99.3957 704.747 98.7523 704.747C94.249 704.747 91.9973 705.594 91.9973 707.289L91.9973 779.946Z"/>
</mask>
<path d="M183.673 0L239 5.31362L239 97.7243L183.673 92.4107V85.7109C183.673 82.0145 180.027 78.5491 172.736 75.3147C165.659 72.1574 157.082 70.0781 147.003 69.077L8.99878e-05 54.8689L9.32076e-05 28.4163L165.338 44.3571C166.839 44.5112 168.447 44.5882 170.163 44.5882C179.17 44.5882 183.673 42.894 183.673 39.5056L183.673 0ZM239 104.309V137.23L183.673 131.916L183.673 98.995L239 104.309Z" fill="#4200FF"/>
<path d="M110.332 154.579C110.332 153.501 109.153 152.5 106.794 151.576C104.435 150.729 101.755 150.305 98.7524 150.305C94.249 150.305 91.9974 151.153 91.9974 152.847L91.9973 261.776L6.58852e-05 252.881L8.07472e-05 130.784C8.10097e-05 128.627 1.82287 126.818 5.46845 125.355C9.32848 123.891 14.2607 123.16 20.2652 123.16C22.8386 123.16 25.3047 123.275 27.6636 123.506L147.003 135.058C152.149 135.52 156.438 136.559 159.869 138.177C163.515 139.794 165.338 141.526 165.338 143.375V163.243L220.665 168.557C225.597 169.019 229.886 170.058 233.532 171.675C237.177 173.293 239 175.025 239 176.874V275.869L183.673 270.555L183.673 188.078C183.673 187 182.493 185.999 180.135 185.075C177.776 184.228 175.095 183.804 172.093 183.804C167.59 183.804 165.338 184.651 165.338 186.346V229.201L110.332 223.888L110.332 154.579Z" fill="#4200FF"/>
<path d="M4.90097e-05 391.52L6.38718e-05 269.422C6.41342e-05 267.266 1.82285 265.456 5.46843 263.993C9.32846 262.53 14.2607 261.798 20.2652 261.798C22.8385 261.798 25.3047 261.914 27.6636 262.145L220.665 280.743C225.597 281.205 229.886 282.244 233.532 283.862C237.177 285.556 239 287.327 239 289.175L239 414.507L183.673 409.194L183.673 300.38C183.673 298.07 180.671 296.645 174.666 296.106L101.004 289.06C100.146 288.983 99.3957 288.944 98.7524 288.944C94.249 288.944 91.9973 289.791 91.9973 291.485L91.9973 400.415L4.90097e-05 391.52Z" fill="#4200FF"/>
<path d="M3.61415e-05 497.237L91.9973 506.016C93.7129 506.17 95.3212 506.247 96.8223 506.247C105.829 506.247 110.332 504.553 110.332 501.165L110.332 435.207C110.332 433.358 108.51 431.587 104.864 429.893C101.218 428.276 96.9296 427.236 91.9973 426.774L4.57871e-05 417.995L4.82055e-05 398.127L239 421.229V440.982L174.666 434.745C173.808 434.668 172.951 434.629 172.093 434.629C167.589 434.629 165.338 435.476 165.338 437.17L165.338 509.828C165.338 511.985 168.447 513.371 174.666 513.987L239 520.224V553.146L3.21343e-05 530.159L3.61415e-05 497.237Z" fill="#4200FF"/>
<path d="M129.954 643.384C129.096 643.769 128.668 644.27 128.668 644.886C128.668 647.042 131.777 648.428 137.996 649.044L239 658.748V691.669L36.9919 672.263C26.6985 671.262 18.0135 669.144 10.9368 665.909C3.86004 662.752 0.321685 659.287 0.321686 655.513L0.321689 629.176C0.32169 622.014 8.7923 616.162 25.7335 611.618L180.778 579.736C182.922 579.12 183.995 578.389 183.995 577.542C183.78 575.385 180.671 573.999 174.666 573.383L0.321698 556.634L0.3217 536.881L220.665 558.02C225.597 558.482 229.886 559.522 233.532 561.139C237.177 562.833 239 564.604 239 566.452V586.205C239 591.365 235.462 595.562 228.385 598.796L129.954 643.384Z" fill="#4200FF"/>
<path d="M211.336 827.654L36.6702 810.904C26.5913 809.98 17.9062 807.862 10.6151 804.551C3.53836 801.316 -4.49939e-07 797.851 0 794.155L1.32591e-05 685.225C1.35216e-05 683.069 1.8228 681.259 5.46838 679.796C9.32841 678.333 14.2607 677.602 20.2651 677.602C22.8385 677.602 25.3046 677.717 27.6635 677.948L220.665 696.546C225.597 697.008 229.886 698.047 233.532 699.665C237.177 701.359 239 703.13 239 704.978L239 820.492C239 822.725 237.07 824.535 233.21 825.921C229.564 827.307 224.632 828 218.413 828C216.054 828 213.695 827.885 211.336 827.654ZM91.9973 779.946C91.9973 782.18 94.9995 783.566 101.004 784.105L174.666 791.151C175.524 791.228 176.274 791.267 176.918 791.267C181.421 791.267 183.673 790.42 183.673 788.725L183.673 716.183C183.673 713.873 180.671 712.448 174.666 711.909L101.004 704.863C100.146 704.786 99.3957 704.747 98.7523 704.747C94.249 704.747 91.9973 705.594 91.9973 707.289L91.9973 779.946Z" fill="#4200FF"/>
<path d="M183.673 0L239 5.31362L239 97.7243L183.673 92.4107V85.7109C183.673 82.0145 180.027 78.5491 172.736 75.3147C165.659 72.1574 157.082 70.0781 147.003 69.077L8.99878e-05 54.8689L9.32076e-05 28.4163L165.338 44.3571C166.839 44.5112 168.447 44.5882 170.163 44.5882C179.17 44.5882 183.673 42.894 183.673 39.5056L183.673 0ZM239 104.309V137.23L183.673 131.916L183.673 98.995L239 104.309Z" stroke="#4200FF" stroke-width="7.875" mask="url(#path-1-inside-1_382_63)"/>
<path d="M110.332 154.579C110.332 153.501 109.153 152.5 106.794 151.576C104.435 150.729 101.755 150.305 98.7524 150.305C94.249 150.305 91.9974 151.153 91.9974 152.847L91.9973 261.776L6.58852e-05 252.881L8.07472e-05 130.784C8.10097e-05 128.627 1.82287 126.818 5.46845 125.355C9.32848 123.891 14.2607 123.16 20.2652 123.16C22.8386 123.16 25.3047 123.275 27.6636 123.506L147.003 135.058C152.149 135.52 156.438 136.559 159.869 138.177C163.515 139.794 165.338 141.526 165.338 143.375V163.243L220.665 168.557C225.597 169.019 229.886 170.058 233.532 171.675C237.177 173.293 239 175.025 239 176.874V275.869L183.673 270.555L183.673 188.078C183.673 187 182.493 185.999 180.135 185.075C177.776 184.228 175.095 183.804 172.093 183.804C167.59 183.804 165.338 184.651 165.338 186.346V229.201L110.332 223.888L110.332 154.579Z" stroke="#4200FF" stroke-width="7.875" mask="url(#path-1-inside-1_382_63)"/>
<path d="M4.90097e-05 391.52L6.38718e-05 269.422C6.41342e-05 267.266 1.82285 265.456 5.46843 263.993C9.32846 262.53 14.2607 261.798 20.2652 261.798C22.8385 261.798 25.3047 261.914 27.6636 262.145L220.665 280.743C225.597 281.205 229.886 282.244 233.532 283.862C237.177 285.556 239 287.327 239 289.175L239 414.507L183.673 409.194L183.673 300.38C183.673 298.07 180.671 296.645 174.666 296.106L101.004 289.06C100.146 288.983 99.3957 288.944 98.7524 288.944C94.249 288.944 91.9973 289.791 91.9973 291.485L91.9973 400.415L4.90097e-05 391.52Z" stroke="#4200FF" stroke-width="7.875" mask="url(#path-1-inside-1_382_63)"/>
<path d="M3.61415e-05 497.237L91.9973 506.016C93.7129 506.17 95.3212 506.247 96.8223 506.247C105.829 506.247 110.332 504.553 110.332 501.165L110.332 435.207C110.332 433.358 108.51 431.587 104.864 429.893C101.218 428.276 96.9296 427.236 91.9973 426.774L4.57871e-05 417.995L4.82055e-05 398.127L239 421.229V440.982L174.666 434.745C173.808 434.668 172.951 434.629 172.093 434.629C167.589 434.629 165.338 435.476 165.338 437.17L165.338 509.828C165.338 511.985 168.447 513.371 174.666 513.987L239 520.224V553.146L3.21343e-05 530.159L3.61415e-05 497.237Z" stroke="#4200FF" stroke-width="7.875" mask="url(#path-1-inside-1_382_63)"/>
<path d="M129.954 643.384C129.096 643.769 128.668 644.27 128.668 644.886C128.668 647.042 131.777 648.428 137.996 649.044L239 658.748V691.669L36.9919 672.263C26.6985 671.262 18.0135 669.144 10.9368 665.909C3.86004 662.752 0.321685 659.287 0.321686 655.513L0.321689 629.176C0.32169 622.014 8.7923 616.162 25.7335 611.618L180.778 579.736C182.922 579.12 183.995 578.389 183.995 577.542C183.78 575.385 180.671 573.999 174.666 573.383L0.321698 556.634L0.3217 536.881L220.665 558.02C225.597 558.482 229.886 559.522 233.532 561.139C237.177 562.833 239 564.604 239 566.452V586.205C239 591.365 235.462 595.562 228.385 598.796L129.954 643.384Z" stroke="#4200FF" stroke-width="7.875" mask="url(#path-1-inside-1_382_63)"/>
<path d="M211.336 827.654L36.6702 810.904C26.5913 809.98 17.9062 807.862 10.6151 804.551C3.53836 801.316 -4.49939e-07 797.851 0 794.155L1.32591e-05 685.225C1.35216e-05 683.069 1.8228 681.259 5.46838 679.796C9.32841 678.333 14.2607 677.602 20.2651 677.602C22.8385 677.602 25.3046 677.717 27.6635 677.948L220.665 696.546C225.597 697.008 229.886 698.047 233.532 699.665C237.177 701.359 239 703.13 239 704.978L239 820.492C239 822.725 237.07 824.535 233.21 825.921C229.564 827.307 224.632 828 218.413 828C216.054 828 213.695 827.885 211.336 827.654ZM91.9973 779.946C91.9973 782.18 94.9995 783.566 101.004 784.105L174.666 791.151C175.524 791.228 176.274 791.267 176.918 791.267C181.421 791.267 183.673 790.42 183.673 788.725L183.673 716.183C183.673 713.873 180.671 712.448 174.666 711.909L101.004 704.863C100.146 704.786 99.3957 704.747 98.7523 704.747C94.249 704.747 91.9973 705.594 91.9973 707.289L91.9973 779.946Z" stroke="#4200FF" stroke-width="7.875" mask="url(#path-1-inside-1_382_63)"/>
</svg>
