<svg width="1440" height="2267" viewBox="0 0 1440 2267" fill="none" xmlns="http://www.w3.org/2000/svg">
<path fill-rule="evenodd" clip-rule="evenodd" d="M289.548 656.787L8.4375 653.002L291.746 649.052C314.037 649.052 344.02 645.267 345.433 579.771L346.768 208.844L347.758 0.479973H348.445L349.436 208.844L350.771 579.771C352.183 645.267 382.167 649.052 404.458 649.052L1189.97 652.837L402.26 656.787C379.969 656.787 349.986 660.572 348.573 726.068L345.904 908.57L343.235 726.068C341.823 660.572 311.839 656.787 289.548 656.787Z" fill="white"/>
<path fill-rule="evenodd" clip-rule="evenodd" d="M1240.22 736.646L1442.25 732.861L1238.02 728.912C1215.73 728.912 1185.75 725.127 1184.33 659.63L1181.66 203.874L1179 659.63C1177.58 725.127 1147.6 728.912 1125.31 728.912L309.703 732.697L1127.51 736.646H1240.22Z" fill="white"/>
<path fill-rule="evenodd" clip-rule="evenodd" d="M1185.33 730.578L1387.36 734.363L1183.13 738.313C1160.84 738.313 1130.85 742.098 1129.44 807.594L1126.77 1263.35L1124.1 807.594C1122.69 742.098 1092.71 738.313 1070.42 738.313L254.811 734.528L1072.61 730.578H1185.33Z" fill="white"/>
<path d="M333.8 1451.82L285.186 1451.57L669.166 1449.72L567 1449.23L718.766 1448.47L82.8227 1445.28H0V1458.31C13.7797 1465.56 25.1391 1482.59 25.9957 1522.3L27.1995 1856.93L27.33 1820.64L28.3207 1612.28L28.6643 1540L29.008 1612.28L29.9987 1820.64L30.1292 1856.93L31.333 1522.3C32.7458 1456.8 62.7291 1453.02 85.0204 1453.02L333.8 1451.82Z" fill="white"/>
<path d="M1359.33 1453.18C1380.46 1454.37 1404.93 1463.29 1406.2 1522.3L1407.4 1856.93L1407.53 1820.64L1408.52 1612.28L1408.87 1540L1409.21 1612.28L1410.2 1820.64L1410.33 1856.93L1411.54 1522.3C1412.44 1480.24 1425.13 1463.63 1440 1457.12V1452.1L1359.33 1453.18Z" fill="white"/>
<path d="M1166.05 1446.23C1171.94 1447.56 1177.91 1447.79 1183.41 1447.79L1440 1451.37V1445.28H1354.71L1166.05 1446.23Z" fill="white"/>
<path d="M1086.11 1446.63C1080.85 1447.61 1075.59 1447.79 1070.7 1447.79L821.92 1448.99L870.531 1449.23L718.765 1449.96L1352.51 1453.02C1354.72 1453.02 1357.01 1453.05 1359.33 1453.18L1440 1452.1V1451.37L1183.41 1447.79C1177.91 1447.79 1171.94 1447.56 1166.05 1446.23L1086.11 1446.63Z" fill="white"/>
<path d="M1072.89 1455.52H1185.61L1359.33 1453.18C1357.01 1453.05 1354.72 1453.02 1352.51 1453.02L718.765 1449.96L333.8 1451.82L1072.89 1455.52Z" fill="white"/>
<path d="M285.186 1451.57L333.8 1451.82L718.765 1449.96L669.166 1449.72L285.186 1451.57Z" fill="white"/>
<path d="M567 1449.23L669.166 1449.72L821.92 1448.99L718.766 1448.47L567 1449.23Z" fill="white"/>
<path d="M870.531 1449.23L821.92 1448.99L669.166 1449.72L718.765 1449.96L870.531 1449.23Z" fill="white"/>
<path d="M1070.7 1447.79C1075.59 1447.79 1080.85 1447.61 1086.11 1446.63L718.766 1448.47L821.92 1448.99L1070.7 1447.79Z" fill="white"/>
<path d="M1408.52 2101.59L1407.53 1893.22L1407.4 1856.93L1406.2 2191.57C1404.79 2257.07 1374.8 2260.85 1352.51 2260.85L718.766 2263.9L870.531 2264.64L718.766 2265.4L1354.71 2268.59H1440V2256.74C1425.13 2250.24 1412.44 2233.63 1411.54 2191.57L1410.33 1856.93L1410.2 1893.22L1409.21 2101.59L1408.87 2173.87L1408.52 2101.59Z" fill="white"/>
<path d="M29.9987 1893.22L29.008 2101.59L28.6643 2173.87L28.3207 2101.59L27.33 1893.22L27.1995 1856.93L25.9957 2191.57C25.1391 2231.28 13.7797 2248.31 0 2255.56V2268.5V2268.59H82.8227L718.766 2265.4L567 2264.64L718.766 2263.9L85.0204 2260.85C62.7291 2260.85 32.7458 2257.07 31.333 2191.57L30.1292 1856.93L29.9987 1893.22Z" fill="white"/>
</svg>
