<svg width="726" height="594" viewBox="0 0 726 594" fill="none" xmlns="http://www.w3.org/2000/svg">
<path d="M634.549 592.594H725.576L725.625 1.40625H634.549H543.938H453.375H362.811H272.249H181.686H91.1238H0.554382V85.7812V170.156V254.531V338.906V592.594H90.3217H453.375H634.549Z" fill="#413F53"/>
<path d="M724.5 85.7812H0M724.5 170.156H6.86646e-05M724.5 254.531H6.86646e-05M724.5 338.906H6.86646e-05M724.5 423.281H0.84375M724.5 507.656H0.84375M0.554398 592.594H725.576L725.625 1.40625H6.86646e-05M0.554398 0V593.156M91.125 0.5625L90.3217 592.594M181.688 0.5625L180.884 591.469M272.25 0.5625L271.447 590.344M362.813 0.5625L362.009 589.219M453.375 0.5625L453.375 592.594M543.938 0.5625V591.469M634.549 0.5625V592.594" stroke="white" stroke-width="0.5625"/>
</svg>
