<svg width="387" height="180" viewBox="0 0 387 180" fill="none" xmlns="http://www.w3.org/2000/svg">
<path d="M232.582 0.888241C227.163 2.31099 218.281 10.7371 214.634 17.9159C212.843 21.4408 212.254 24.4268 212.505 28.7009C212.956 36.3791 215.479 38.3372 219.74 34.3176C222.956 31.2827 223.433 28.4733 221.308 25.0575C218.102 19.9031 227.356 7.86608 236.682 5.06008C240.906 3.78948 241.953 3.88471 245.637 5.87888C251.449 9.02402 252.972 12.4839 252.371 21.1749C251.989 26.6916 250.701 30.7775 246.938 38.4034C242.739 46.9155 239.634 50.9039 226.031 65.2579C210.035 82.1358 203.949 90.0172 206.911 90.0172C207.736 90.0172 210.153 87.5352 212.284 84.5004C214.413 81.4656 222.772 72.1382 230.858 63.7713C242.895 51.3173 246.304 47.0003 249.664 39.9621C253.983 30.9134 256.962 17.6244 255.753 12.7882C254.625 8.27723 248.449 1.99624 244.322 1.1635C242.281 0.751192 239.831 0.251778 238.876 0.0531744C237.922 -0.145429 235.089 0.229713 232.582 0.888241Z" fill="#FF0000"/>
<path d="M153.767 0.888241C159.185 2.31099 168.067 10.7371 171.714 17.9159C173.506 21.4408 174.095 24.4268 173.844 28.7009C173.392 36.3791 170.87 38.3372 166.609 34.3176C163.392 31.2827 162.916 28.4733 165.04 25.0575C168.247 19.9031 158.992 7.86608 149.666 5.06008C145.442 3.78948 144.395 3.88471 140.712 5.87888C134.899 9.02402 133.376 12.4839 133.978 21.1749C134.359 26.6916 135.648 30.7775 139.41 38.4034C143.609 46.9155 146.715 50.9039 160.318 65.2579C176.313 82.1358 182.399 90.0172 179.437 90.0172C178.612 90.0172 176.195 87.5352 174.064 84.5004C171.935 81.4656 163.576 72.1382 155.49 63.7713C143.454 51.3173 140.044 47.0003 136.684 39.9621C132.365 30.9134 129.387 17.6244 130.596 12.7882C131.723 8.27723 137.9 1.99624 142.027 1.1635C144.067 0.751192 146.518 0.251778 147.472 0.0531744C148.426 -0.145429 151.259 0.229713 153.767 0.888241Z" fill="#FF0000"/>
<path d="M29.92 127.764C31.6816 137.689 33.3518 141.794 37.0543 145.3C40.9174 148.958 48.0632 151.477 55.1638 151.684C57.7721 151.76 56.5981 152.239 51.4706 153.191C38.5671 155.584 32.7284 160.46 31.1554 170.156C29.3846 181.064 29.0745 181.563 28.2868 174.779C26.7231 161.314 21.6813 156.05 7.85709 153.453L0 151.977L7.06357 151.156C11.8151 150.603 15.8437 149.241 19.3738 146.993C25.0529 143.377 26.8098 139.835 28.2857 129.039L29.0954 123.118L29.92 127.764Z" fill="#FF0000"/>
<path d="M356.428 127.764C354.667 137.689 352.997 141.794 349.294 145.3C345.431 148.958 338.285 151.477 331.185 151.684C328.576 151.76 329.75 152.239 334.878 153.191C347.781 155.584 353.62 160.46 355.193 170.156C356.964 181.064 357.274 181.563 358.062 174.779C359.625 161.314 364.667 156.05 378.491 153.453L386.348 151.977L379.285 151.156C374.533 150.603 370.505 149.241 366.975 146.993C361.296 143.377 359.539 139.835 358.063 129.039L357.253 123.118L356.428 127.764Z" fill="#FF0000"/>
</svg>
