<svg width="1439" height="2264" viewBox="0 0 1439 2264" fill="none" xmlns="http://www.w3.org/2000/svg">
<path d="M0 1448.71C0 1454.62 0.276645 1455.73 1.88281 1456.24C5.48395 1457.38 14.0455 1467.68 17.4907 1475C19.3677 1479 21.8785 1486.77 23.0688 1492.27C24.0053 1496.59 24.5387 1499.36 24.9126 1513.26H31.9912C32.5529 1503.64 33.7423 1493.92 34.9736 1488.87C40.2889 1467.08 51.1595 1454.93 68.6265 1451.28C81.4688 1448.59 331.348 1448.37 765.105 1450.66C1124.14 1452.56 1167.84 1452.62 1260.12 1451.29C1322.52 1450.39 1363.16 1450.19 1366.07 1450.75C1388.63 1455.09 1400.03 1470.5 1403.83 1501.77C1404.09 1503.92 1404.32 1507.49 1404.52 1513.26H1411.66C1411.82 1506.79 1411.99 1502.92 1412.17 1501.55C1415.17 1479.04 1422.39 1464.37 1434.28 1456.67L1439.26 1453.44V1441.78L1381.54 1441.77C1349.79 1441.77 1187.47 1442.48 1020.83 1443.35C744.092 1444.8 691.666 1444.8 415.642 1443.35C249.431 1442.48 87.9173 1441.77 56.7205 1441.77L0 1441.78V1448.71Z" fill="black"/>
<path d="M29.0649 1805.67C29.3878 1805.99 30.9998 1740.66 31.0198 1665.65C31.0398 1590.64 31.4765 1522.06 31.9912 1513.26H24.9126C25.3935 1531.15 25.611 1567.46 26.0845 1649.24C26.5171 1723.84 28.5416 1789.54 28.9878 1803.33L28.9863 1803.11C29.0109 1803.96 29.0315 1804.63 29.0469 1805.13L29.0649 1805.67Z" fill="black"/>
<path d="M1408.67 1805.67C1408.99 1805.99 1410.61 1740.66 1410.63 1665.65C1410.65 1590.64 1411.15 1522.06 1411.66 1513.26H1404.52C1405 1531.15 1405.22 1567.46 1405.69 1649.24C1406.12 1723.84 1408.15 1789.54 1408.59 1803.33L1408.59 1803.11C1408.62 1803.96 1408.64 1804.63 1408.65 1805.13L1408.67 1805.67Z" fill="black"/>
<path d="M29.1506 1901.92C29.4735 1901.6 31.0855 1966.93 31.1055 2041.94C31.1255 2116.96 31.6034 2185.53 32.1182 2194.33H24.9983C25.4792 2176.44 25.6967 2140.13 26.1702 2058.36C26.6028 1983.75 28.6275 1918.06 29.0737 1904.27L29.0723 1904.49C29.0969 1903.64 29.1172 1902.96 29.1326 1902.47L29.1506 1901.92Z" fill="black"/>
<path d="M1408.46 1901.92C1408.78 1901.6 1410.39 1966.93 1410.41 2041.94C1410.43 2116.96 1410.91 2185.53 1411.42 2194.33H1404.3C1404.78 2176.44 1405 2140.13 1405.48 2058.36C1405.91 1983.75 1407.93 1918.06 1408.38 1904.27L1408.38 1904.49C1408.4 1903.64 1408.42 1902.96 1408.44 1902.47L1408.46 1901.92Z" fill="black"/>
<path d="M665.999 2261.65C666.322 2261.87 601.084 2263 526.174 2263.02C451.265 2263.03 382.786 2263.57 374 2263.93V2258.73C391.86 2259.07 428.126 2259.22 509.784 2259.55C584.284 2259.86 649.888 2261.28 663.659 2261.59L663.439 2261.59C664.286 2261.61 664.962 2261.62 665.455 2261.63L665.999 2261.65Z" fill="black"/>
<path d="M23.2417 2214.36C19.2927 2231.78 13.7027 2242.18 4.71631 2248.85L0.00195312 2252.35V2265.85L15.7437 2265.82C24.4022 2265.81 151.123 2265.15 297.348 2264.35C323.032 2264.21 348.792 2264.07 374 2263.93V2258.73C353.552 2258.62 332.864 2258.51 312.34 2258.4C93.5673 2257.21 71.9365 2256.95 66.4673 2255.42C48.1588 2250.31 38.061 2236.65 33.2944 2210.55C32.7691 2207.67 32.399 2203.81 32.1182 2194.33H24.9983C24.6432 2207.33 24.1349 2210.42 23.2417 2214.36Z" fill="black"/>
<path d="M770.604 2261.71C770.281 2261.94 835.519 2263.07 910.428 2263.08C985.338 2263.1 1053.82 2263.57 1062.6 2263.93V2258.79C1044.74 2259.13 1008.48 2259.28 926.819 2259.62C852.319 2259.92 786.714 2261.34 772.944 2261.65L773.164 2261.65C772.316 2261.67 771.641 2261.69 771.147 2261.7L770.604 2261.71Z" fill="black"/>
<path d="M1402.45 2215.73C1397.42 2238.52 1386.97 2251.1 1369.31 2255.63C1365.36 2256.65 1271.64 2257.64 1062.6 2258.79V2263.93C1088.02 2264.07 1114 2264.21 1139.91 2264.35C1286.14 2265.15 1413.31 2265.81 1422.52 2265.82L1439.26 2265.85V2259.58C1439.26 2253.43 1439.19 2253.27 1435.75 2251.42C1426.87 2246.63 1418.4 2233.98 1414.91 2220.3L1414.73 2219.61C1413.26 2213.85 1412.01 2208.97 1411.42 2194.33H1404.3C1403.93 2208.1 1403.4 2211.41 1402.45 2215.73Z" fill="black"/>
<path fill-rule="evenodd" clip-rule="evenodd" d="M347.563 12.3871C347.172 20.9104 346.39 154.084 345.826 308.329C344.719 611.514 344.993 598.36 339.459 614.276C333.681 630.897 323.971 640.657 309.842 644.044C301.885 645.952 291.578 646.21 153.702 647.946C79.0946 648.885 18.2032 649.805 18.3871 649.99C18.572 650.174 82.3229 651.209 160.056 652.289C313.378 654.418 307.303 654.121 318.119 660.009C332.765 667.984 341.031 687.642 342.494 717.984L343.132 731.216L282.356 731.776L342.542 732.246L343.175 751.492C343.524 762.077 344.103 797.854 344.465 830.995C344.826 864.135 345.355 891.018 345.638 890.733C345.923 890.448 346.657 854.921 347.269 811.784C347.88 768.648 348.649 733.086 348.978 732.757C349.929 731.804 1067.92 735.134 1078.44 736.138C1090.77 737.316 1098.04 740.115 1104.79 746.289C1114.77 755.418 1120.26 769.495 1122.32 791.284C1123.31 801.803 1125.45 1075.18 1125.43 1189.57C1125.42 1213.17 1125.66 1232.24 1125.95 1231.95C1126.24 1231.66 1127.13 1132.27 1127.93 1011.08C1129.5 773.189 1129.25 782.044 1134.77 766.831C1141.75 747.601 1152.9 738.333 1171.54 736.277C1176.13 735.77 1222.62 734.608 1274.84 733.692C1369.24 732.038 1447.31 729.715 1420.77 729.35C1413.62 729.251 1366.39 728.329 1315.82 727.301C1228.51 725.525 1223.54 725.326 1217.33 723.364C1202.95 718.819 1194.58 709.709 1188.94 692.503C1184.22 678.071 1184.36 683.51 1182.87 457.3C1182.09 339.898 1181.33 239.793 1181.17 234.844C1181.02 229.894 1180.5 288.383 1180.03 364.818C1179.56 441.253 1178.82 542.033 1178.39 588.774C1177.66 668.549 1177.49 674.309 1175.61 682.756C1171.76 700.023 1166.21 710.407 1157.17 717.241C1150.24 722.481 1144.43 724.259 1130.92 725.273C1124.32 725.769 993.437 726.649 840.067 727.23C686.696 727.81 513.424 728.575 455.017 728.93L348.822 729.574L348.842 720.661C348.907 691.417 358.346 668.276 373.595 659.973C384.968 653.781 354.298 654.378 770.603 652.236C979.77 651.159 1151.81 650.111 1152.9 649.906C1154 649.702 1145.01 649.485 1132.92 649.425C1120.82 649.364 952.609 648.63 759.109 647.793C565.609 646.956 402.569 645.868 396.797 645.376C382.262 644.136 375.958 641.593 368.24 633.853C359.257 624.844 354.186 612.376 351.905 593.692C351.301 588.746 350.498 472.792 349.833 294.751C349.236 134.776 348.641 2.31407 348.511 0.389451C348.382 -1.53517 347.955 3.86377 347.563 12.3871ZM358.067 730.992C363.427 731.171 372.197 731.171 377.557 730.992C382.917 730.812 378.531 730.665 367.812 730.665C357.092 730.665 352.707 730.812 358.067 730.992Z" fill="black"/>
<path d="M358.067 730.992C363.427 731.171 372.197 731.171 377.557 730.992C382.917 730.812 378.531 730.665 367.812 730.665C357.092 730.665 352.707 730.812 358.067 730.992Z" fill="black"/>
</svg>
