<svg width="380" height="178" viewBox="0 0 380 178" fill="none" xmlns="http://www.w3.org/2000/svg">
<path fill-rule="evenodd" clip-rule="evenodd" d="M137.495 1.92042C135.235 2.9441 132.09 5.47938 130.507 7.55361C128.011 10.8228 127.646 12.1303 127.761 17.3711C127.937 25.2797 132.085 37.9511 136.938 45.4016C139.05 48.6449 146.077 56.9 152.552 63.746C159.027 70.5921 166.789 79.2176 169.799 82.915C172.809 86.6113 175.672 89.6365 176.159 89.6365C179.474 89.6365 173.656 82.0307 155.59 62.7502C143.248 49.5769 140.34 45.6286 135.515 35.4945C133.005 30.2198 131.863 26.2306 131.446 21.2597C130.727 12.7078 132.4 8.89593 138.155 5.96731C143.905 3.04168 148.836 4.67478 156.167 11.9331C161.775 17.4866 163.363 20.9231 161.967 24.481C160.333 28.6414 161.022 31.6627 164.217 34.3443C167.025 36.7004 167.525 36.8229 168.873 35.4795C169.704 34.651 170.587 31.5133 170.837 28.507C171.425 21.4439 168.627 15.4263 161.395 8.18992C153.15 -0.0582093 146.003 -1.93328 137.495 1.92042ZM226.862 1.9971C222.226 4.44176 214.309 12.4409 211.913 17.1012C207.76 25.1821 208.657 35.8639 213.488 35.8639C216.78 35.8639 220.309 31.1807 219.475 27.9195C217.584 20.5377 217.731 19.4095 221.175 14.9055C225.067 9.81604 229.728 6.42139 234.708 5.05019C237.527 4.27348 238.937 4.46467 242.049 6.04797C248.095 9.12496 249.259 11.6831 248.705 20.697C248.351 26.4696 247.468 30.0614 245.174 35.0543C240.728 44.7374 237.191 49.4365 221.833 66.0602C207.23 81.8664 202.231 88.2175 203.455 89.4055C203.867 89.8068 206.292 87.6788 208.844 84.6775C211.395 81.6752 218.874 73.4689 225.463 66.4396C232.052 59.4103 239.55 50.744 242.126 47.1811C249.087 37.5528 254.38 19.9074 252.521 12.5206C252.162 11.0926 250.262 8.15108 248.3 5.98524C242.839 -0.0442684 233.892 -1.70923 226.862 1.9971ZM25.8463 126.979C25.4559 129.169 24.5165 133.215 23.7578 135.969C21.6014 143.795 14.8488 148.944 5.25102 150.077C-1.29294 150.851 -1.76914 151.985 4.09597 152.829C10.8805 153.807 18.6364 157.592 21.1941 161.175C22.4051 162.872 23.8836 166.85 24.4786 170.017C26.0819 178.546 26.4852 179.186 27.4775 174.777C29.4832 165.866 30.4615 163.276 32.9333 160.347C36.2537 156.41 39.3944 154.828 46.9976 153.262C53.1762 151.989 54.506 150.38 49.3786 150.38C45.1527 150.38 38.0228 147.636 35.0118 144.852C31.2881 141.408 29.6688 137.957 27.9917 129.895L26.5561 122.995L25.8463 126.979ZM352.394 130.518C349.568 143.081 343.854 148.76 332.714 150.076C330.005 150.396 327.79 150.953 327.79 151.315C327.79 151.677 330.397 152.51 333.581 153.166C345.309 155.583 350.531 161.007 352.271 172.586C353.236 179.006 354.352 179.228 355.074 173.143C356.452 161.541 362.07 155.76 374.404 153.253C380.642 151.985 381.966 150.38 376.774 150.38C373.102 150.38 366.353 147.974 362.65 145.343C358.697 142.535 356.72 138.423 355.285 130.016L354.085 122.995L352.394 130.518Z" fill="black"/>
</svg>
