<svg width="387" height="379" viewBox="0 0 387 379" fill="none" xmlns="http://www.w3.org/2000/svg">
<mask id="mask0_442_1647" style="mask-type:alpha" maskUnits="userSpaceOnUse" x="0" y="0" width="387" height="379">
<path d="M232.581 0.888241C227.162 2.31099 218.28 10.7371 214.633 17.9159C212.842 21.4408 212.253 24.4268 212.504 28.7009C212.955 36.3791 215.478 38.3372 219.739 34.3176C222.955 31.2827 223.432 28.4733 221.307 25.0575C218.101 19.9031 227.355 7.86608 236.681 5.06008C240.905 3.78948 241.952 3.88471 245.636 5.87888C251.448 9.02402 252.972 12.4839 252.37 21.1749C251.988 26.6916 250.7 30.7775 246.937 38.4034C242.739 46.9155 239.633 50.9039 226.03 65.2579C210.035 82.1358 203.948 90.0172 206.911 90.0172C207.735 90.0172 210.153 87.5352 212.283 84.5004C214.413 81.4656 222.772 72.1382 230.858 63.7713C242.894 51.3173 246.304 47.0003 249.664 39.9621C253.982 30.9134 256.961 17.6244 255.752 12.7882C254.624 8.27723 248.448 1.99624 244.321 1.1635C242.281 0.751192 239.83 0.251778 238.876 0.0531744C237.921 -0.145429 235.089 0.229713 232.581 0.888241Z" fill="#FF0000"/>
<path d="M153.766 0.888241C159.185 2.31099 168.067 10.7371 171.713 17.9159C173.505 21.4408 174.094 24.4268 173.843 28.7009C173.392 36.3791 170.869 38.3372 166.608 34.3176C163.391 31.2827 162.915 28.4733 165.04 25.0575C168.246 19.9031 158.992 7.86608 149.665 5.06008C145.441 3.78948 144.395 3.88471 140.711 5.87888C134.899 9.02402 133.375 12.4839 133.977 21.1749C134.358 26.6916 135.647 30.7775 139.41 38.4034C143.608 46.9155 146.714 50.9039 160.317 65.2579C176.312 82.1358 182.399 90.0172 179.436 90.0172C178.612 90.0172 176.194 87.5352 174.064 84.5004C171.934 81.4656 163.575 72.1382 155.489 63.7713C143.453 51.3173 140.043 47.0003 136.683 39.9621C132.364 30.9134 129.386 17.6244 130.595 12.7882C131.722 8.27723 137.899 1.99624 142.026 1.1635C144.066 0.751192 146.517 0.251778 147.471 0.0531744C148.426 -0.145429 151.258 0.229713 153.766 0.888241Z" fill="#FF0000"/>
<path d="M29.9193 127.764C31.6808 137.689 33.3511 141.794 37.0535 145.3C40.9167 148.958 48.0624 151.477 55.1631 151.684C57.7713 151.76 56.5973 152.239 51.4699 153.191C38.5664 155.584 32.7276 160.46 31.1546 170.156C29.3838 181.064 29.0737 181.563 28.2861 174.779C26.7223 161.314 21.6805 156.05 7.85632 153.453L-0.000762939 151.977L7.06281 151.156C11.8143 150.603 15.843 149.241 19.373 146.993C25.0522 143.377 26.8091 139.835 28.285 129.039L29.0946 123.118L29.9193 127.764Z" fill="#FF0000"/>
<path d="M356.428 127.764C354.666 137.689 352.996 141.794 349.293 145.3C345.43 148.958 338.284 151.477 331.184 151.684C328.576 151.76 329.75 152.239 334.877 153.191C347.781 155.584 353.619 160.46 355.192 170.156C356.963 181.064 357.273 181.563 358.061 174.779C359.625 161.314 364.666 156.05 378.491 153.453L386.348 151.977L379.284 151.156C374.533 150.603 370.504 149.241 366.974 146.993C361.295 143.377 359.538 139.835 358.062 129.039L357.252 123.118L356.428 127.764Z" fill="#FF0000"/>
<path fill-rule="evenodd" clip-rule="evenodd" d="M12 29.5733C12 31.666 19.0032 47.8917 23.6793 56.6354C34.2145 76.3305 46.6625 92.6102 64.7141 110.299L77.1331 122.467L72.2694 123.194C66.523 124.052 60.6659 126.485 56.1865 129.875C52.8491 132.399 46.6396 139.655 47.2735 140.289C47.4702 140.486 49.8342 139.649 52.5267 138.429C58.3448 135.792 72.0058 135.29 78.2243 137.484C86.9077 140.548 92.3445 148.349 93.4976 159.403C94.0506 164.701 93.808 165.949 91.3462 170.479C89.8198 173.286 87.6275 176.198 86.4744 176.948C82.2405 179.701 73.7369 181.856 68.936 181.394C62.1744 180.743 52.3669 175.802 45.6932 169.682C39.0005 163.546 38.2737 164.685 43.0976 173.749C46.5967 180.323 56.498 190.78 62.8552 194.615C78.1265 203.828 81.8951 208.596 81.8672 218.678C81.8362 230.236 76.02 233.796 68.0884 227.111C66.4562 225.736 64.8698 224.611 64.5614 224.611C63.6379 224.611 66.6528 232.351 70.136 238.918C71.9289 242.299 78.0506 251.372 83.739 259.079C94.9281 274.238 100.029 283.345 102.371 292.35C103.768 297.726 103.745 298.258 102.009 300.598C98.9943 304.662 95.627 304.348 90.3928 299.517C81.6276 291.424 71.8081 272.772 65.395 252.031C63.3674 245.474 61.3508 239.727 60.9145 239.26C57.062 235.139 60.6789 271.217 66.0618 290.601C73.5392 317.531 86.8657 341.482 98.3144 348.568C102.334 351.056 104.564 350.439 101.182 347.775C94.6077 342.596 84.5137 324.824 82.3633 314.643C81.6625 311.323 81.7114 311.245 83.6372 312.643C93.9847 320.157 95.4533 320.948 99.8538 321.371C103.54 321.726 105.713 321.232 110.239 319.012C115.058 316.65 116.108 316.434 116.877 317.651C117.38 318.446 117.798 319.846 117.807 320.761C117.83 323.303 124.43 340.079 128.325 347.494C134.18 358.643 151.519 380.167 153.249 378.435C153.536 378.147 151.23 373.901 148.124 369.001C139.747 355.781 132.757 342.912 130.554 336.647C127.666 328.433 126.227 313.051 127.548 304.502C129.55 291.552 142.879 272.949 153.755 267.928C158.287 265.835 158.49 264.856 156.209 256.084C155.359 252.817 154.27 245.974 153.789 240.877C152.105 223.046 155.443 212.208 167.306 196.992C170.92 192.357 173.725 188.11 173.541 187.555C173.097 186.223 162.045 192.981 155.689 198.472C152.915 200.867 150.479 202.66 150.275 202.456C149.868 202.048 154.083 192.451 157.451 186.117C162.114 177.344 171.384 169.504 175.31 171.013C179.047 172.45 182.712 191.956 182.712 210.419C182.712 225.31 180.981 234.204 176.272 243.511L173.882 248.236L176.358 254.171C178.481 259.262 178.819 261.56 178.729 270.329C178.629 280.034 180.16 289.063 181.741 288.085C182.142 287.837 182.833 281.89 183.277 274.87L184.084 262.106L184.878 269.604C186.966 289.292 190.464 308.563 192.668 312.512C194.427 315.665 198.9 294.131 201.137 271.741C201.926 263.842 202.762 257.189 202.994 256.956C203.226 256.724 203.735 262.291 204.123 269.329C204.511 276.366 205.174 283.694 205.595 285.613L206.36 289.102L208.109 283.265C209.482 278.688 209.708 275.719 209.158 269.5C208.516 262.223 208.684 261.04 211.214 255.077L213.97 248.58L211.268 243.051C206.762 233.835 204.515 223.387 204.508 211.613C204.499 196.673 208.716 172.943 211.709 171.091C213.794 169.8 219.65 172.91 224.095 177.672C228.625 182.521 238.561 201.004 237.312 202.256C236.983 202.586 234.173 200.588 231.069 197.818C225.673 193.001 213.66 185.697 213.66 187.232C213.66 187.635 216.779 192.049 220.589 197.039C228.453 207.336 232.148 214.686 233.748 223.217C235.043 230.118 234.321 243.479 232.093 253.864C231.238 257.847 230.342 262.059 230.1 263.222C229.749 264.917 230.813 266.05 235.449 268.917C245.65 275.222 255.299 287.723 259.21 299.697C261.236 305.901 260.607 326.359 258.155 334.019C256.158 340.256 247.267 356.97 240.037 368.079C236.977 372.782 234.648 377.158 234.862 377.802C235.679 380.257 251.609 361.25 258.26 349.885C261.585 344.203 269.188 325.219 270.092 320.347C270.473 318.285 271.2 316.598 271.707 316.598C272.213 316.598 274.844 317.722 277.552 319.097C285.722 323.244 291.251 322.369 300.104 315.529C302.901 313.367 305.461 311.598 305.793 311.598C306.655 311.598 303.755 320.981 300.884 327.484C298.363 333.191 292.524 341.664 287.197 347.343C282.677 352.161 286.198 351.523 291.909 346.489C305.6 334.42 317.377 310.613 323.516 282.603C327.407 264.846 329.659 240.466 327.53 239.147C327.015 238.828 324.982 243.737 323.012 250.056C316.193 271.935 307.225 289.53 298.212 298.712C292.719 304.309 288.754 305.181 286.095 301.377C283.939 298.295 284.148 294.692 286.906 287.351C289.938 279.283 293.906 272.753 304.068 259.106C308.573 253.057 313.676 245.779 315.41 242.933C319.02 237.008 323.835 225.639 323.062 224.865C322.777 224.579 320.94 225.755 318.981 227.478C313.616 232.195 308.667 231.397 306.608 225.483C304.234 218.662 305.989 209.97 310.794 204.754C312.003 203.441 317.331 199.499 322.633 195.992C332.57 189.421 339.72 182.42 344.047 175.026C346.571 170.713 348.738 164.62 347.748 164.62C347.447 164.62 344.455 167.166 341.098 170.28C337.741 173.393 332.513 177.095 329.484 178.507C317.888 183.908 303.367 181.024 297.31 172.119C292.085 164.436 294.352 148.632 301.643 141.921C305.332 138.525 311.185 136.492 318.918 135.921C325.643 135.425 330.216 136.386 338.699 140.077C344.846 142.752 333.454 130.194 326.52 126.65C324.198 125.464 319.689 124.034 316.499 123.471L310.699 122.448L324.887 108.289C340.693 92.5162 352.123 77.8873 361.177 61.8456C367.982 49.7904 375.685 32.3479 375.205 30.0833C374.988 29.0594 372.525 30.6902 367.401 35.2505C352.768 48.2726 327.634 62.7995 311.338 67.6508L308.686 68.4407L308.842 59.788C308.979 52.233 308.683 50.5773 306.503 46.7259C303.322 41.1037 298.167 36.9893 292.821 35.8034C289.298 35.0216 287.855 35.2325 283.837 37.1192C281.204 38.3561 276.944 41.2417 274.371 43.5313C269.504 47.8627 261.579 58.8391 261.579 61.2487C261.579 63.8414 263.379 62.6455 265.892 58.3852C271.105 49.5444 280.561 42.6374 287.452 42.6374C293.283 42.6374 296.176 44.6422 297.51 49.6074C299.371 56.5274 293.437 68.5047 285.252 74.3518C278.983 78.8312 276.188 80.075 262.029 84.6893C241.079 91.5163 225.093 99.7211 211.949 110.393L207.743 113.808L208.307 108.469C209.375 98.3513 212.776 83.2685 215.703 75.6676C219.399 66.069 223.425 59.602 229.975 52.745C235.356 47.1118 235.052 47.0138 227.636 51.9941C210.984 63.1805 198.352 79.1461 194.215 94.2379C193.477 96.9286 192.834 98.3303 192.784 97.3545C192.611 93.919 188.821 84.5893 185.117 78.4822C180.701 71.2023 170.488 60.0949 162.755 54.1628C153.377 46.9678 151.746 46.7498 158.002 53.5269C167.534 63.8544 175.459 83.7425 177.213 101.734C177.557 105.25 178.056 109.187 178.322 110.482C178.781 112.697 178.558 112.631 174.521 109.347C162.104 99.2452 148.807 92.4262 128.304 85.6442C105.734 78.1773 97.8283 72.956 92.7089 62.1346C89.5492 55.4576 89.1459 50.9382 91.3292 46.7089C93.0643 43.3473 94.6187 42.6374 100.237 42.6374C103.159 42.6374 105.814 43.5083 108.891 45.475C113.876 48.6626 121.274 56.3524 122.996 60.1369C123.621 61.5107 124.741 62.6345 125.486 62.6345C127.724 62.6345 122.219 52.9439 116.604 46.9978C109.564 39.5429 102.8 35.3895 97.8113 35.4585C92.4024 35.5335 86.108 39.2209 82.4252 44.4722C79.584 48.5256 79.3764 49.4355 79.2376 58.4701C79.0629 69.7375 79.9734 69.3316 66.9074 63.9693C51.121 57.4903 31.8395 45.752 20.9329 35.9794C13.1241 28.9814 12 28.1756 12 29.5733ZM44.036 68.5807C48.0232 75.6846 61.7381 93.4651 69.538 101.643C73.7409 106.048 80.2269 111.915 83.9507 114.68C90.0494 119.208 107.135 129.625 108.462 129.625C108.756 129.625 108.71 128.322 108.36 126.729C107.481 122.719 110.052 117.074 113.795 114.794C116.206 113.325 116.596 112.683 115.585 111.843C113.679 110.259 99.4086 105.628 96.4316 105.628C93.4107 105.628 93.0094 107.964 95.4343 111.43C98.6399 116.015 96.1082 115.709 90.8271 110.873C85.6418 106.124 74.8959 92.1122 73.5781 88.3808C72.7136 85.9331 73.9236 86.1411 83.9916 90.1755C88.8564 92.1252 101.94 96.8696 113.067 100.72C124.193 104.569 138.41 110.263 144.661 113.372L156.026 119.026L158.386 116.077C160.604 113.303 160.641 113.047 159 111.795C152.004 106.455 129.118 97.3395 105.748 90.5845C87.914 85.4292 72.2125 79.2881 55.6903 71.0073C48.6981 67.5018 42.7162 64.6342 42.3987 64.6342C42.0813 64.6342 42.818 66.41 44.036 68.5807ZM337.284 68.7057C322.477 76.1886 301.473 84.6153 285.354 89.5386C254.787 98.8763 235.749 106.326 229.73 111.308L227.331 113.294L229.633 116.413L231.935 119.531L236.524 116.907C239.048 115.464 241.563 113.952 242.112 113.548C244.173 112.031 260.639 105.609 276.363 100.189C285.317 97.1025 297.345 92.7242 303.09 90.4595C308.835 88.1948 313.813 86.619 314.151 86.959C314.49 87.298 313.245 90.1265 311.384 93.2451C307.732 99.3642 292.037 116.47 291.014 115.445C290.671 115.102 291.321 112.995 292.457 110.765C293.594 108.533 294.524 106.465 294.524 106.168C294.524 104.173 281.31 107.186 274.241 110.793L270.43 112.736L273.727 114.962C278.038 117.872 279.729 121.255 279.183 125.875C278.94 127.938 278.992 129.625 279.298 129.625C280.329 129.625 292.969 122.34 299.016 118.261C307.579 112.484 322.313 97.8734 330.827 86.713C339.207 75.7316 345.926 65.7811 345.34 65.2202C345.119 65.0092 341.494 66.578 337.284 68.7057ZM124.039 124.62C118.951 126.768 119.978 131.798 127.028 139.264C130.386 142.821 134.664 145.932 139.46 148.306C143.482 150.297 146.773 152.315 146.773 152.792C146.773 153.838 144.201 153.286 131.798 149.58C119.899 146.022 106.514 142.616 106.093 143.038C105.918 143.214 107.539 145.593 109.696 148.327C114.654 154.608 122.523 160.427 128.492 162.227C151.504 169.163 165.958 149.139 149.145 133.616C141.731 126.772 129.403 122.355 124.039 124.62ZM254.092 124.99C243.399 128.485 236.352 133.86 232.994 141.082C230.055 147.404 230.065 148.091 233.186 154.364C236.742 161.511 241.989 164.076 251.639 163.385C261.107 162.706 267.842 159.221 275.471 151.053C284.617 141.26 284.841 141.333 264.075 147.376C246.518 152.484 241.695 153.563 241.053 152.523C240.742 152.02 241.302 151.338 242.299 151.007C252.975 147.465 266.571 135.605 266.571 129.834C266.571 124.694 261.282 122.641 254.092 124.99ZM172.361 128.327C171.064 129.627 171.799 135.833 173.673 139.413C176.568 144.94 183.953 155.426 183.326 153.121C183.028 152.022 181.847 146.867 180.702 141.667C179.558 136.468 178.12 131.607 177.505 130.865C175.935 128.969 173.11 127.576 172.361 128.327ZM210.77 130.241C207.909 132.802 207.327 134.281 205.557 143.483C204.46 149.18 203.749 154.027 203.975 154.254C204.723 155.002 215.419 137.187 216.072 134.105C216.475 132.203 216.209 130.396 215.351 129.222C214.048 127.437 213.854 127.48 210.77 130.241ZM109.23 177.868C107.785 180.205 104.654 185.042 102.271 188.616C95.4892 198.787 92.5561 208.798 92.4563 222.111C92.4084 228.479 92.9575 235.424 93.7601 238.609C96.4685 249.347 117.227 294.363 118.197 291.601C118.486 290.776 119.715 286.727 120.926 282.603C122.138 278.478 123.919 273.243 124.884 270.969C126.173 267.929 126.342 266.54 125.524 265.72C123.551 263.744 122.158 264.517 120.317 268.605C119.327 270.804 118.142 272.604 117.684 272.604C115.422 272.604 109.875 250.089 108.308 234.546C107.189 223.459 110.518 202.159 114.144 197.196C115.38 195.504 115.55 196.571 115.582 206.195C115.608 213.978 116.22 219.409 117.714 225.111C120.616 236.192 127.35 249.288 132.062 253.01C137.436 257.256 138.404 255.781 136.357 246.465C131.308 223.483 131.363 223.994 132.528 211.215C133.486 200.703 135.88 190.448 139.25 182.409C139.803 181.089 139.322 180.559 137.13 180.077C135.57 179.735 129.745 178.141 124.187 176.536C118.628 174.931 113.58 173.618 112.969 173.618C112.357 173.618 110.675 175.53 109.23 177.868ZM263.077 176.67C258.135 178.223 253.107 179.521 251.904 179.556C250.701 179.59 249.443 180.061 249.108 180.604C248.773 181.147 249.908 185.985 251.631 191.353C254.251 199.524 254.849 203.233 255.301 214.112C255.786 225.824 255.579 228.182 253.218 237.939C250.485 249.233 249.899 255.606 251.593 255.606C254.122 255.606 260.912 247.76 264.049 241.213C269.847 229.109 272.027 219.694 272.002 206.864C271.989 200.677 272.285 195.615 272.66 195.615C273.978 195.615 276.583 203.78 278.174 212.899C279.322 219.478 279.614 225.113 279.195 232.61C278.418 246.516 274.155 267.039 271.204 271.081C269.884 272.889 269.686 272.762 267.669 268.801C265.589 264.718 262.953 263.327 262.086 265.855C261.851 266.543 263.573 272.881 265.913 279.941L270.17 292.777L277.941 276.577C293.296 244.569 295.482 237.964 295.507 223.521C295.523 214.593 293.058 202.536 289.968 196.423C289.049 194.604 285.542 188.741 282.175 183.395C277.645 176.2 275.536 173.697 274.058 173.76C272.96 173.808 268.018 175.117 263.077 176.67Z" fill="white"/>
</mask>
<g mask="url(#mask0_442_1647)">
<path id="15-pattern"
class="color" fill-rule="evenodd" clip-rule="evenodd" d="M-97.8952 -97.131C-77.8238 -92.616 -72.0377 -92.257 -60.1871 -94.792C-55.9575 -95.698 -50.9247 -96.771 -49.004 -97.177C-47.0833 -97.584 -58.0838 -97.917 -73.4496 -97.917C-89.2913 -97.917 -99.8758 -97.577 -97.8952 -97.131ZM-31.0439 -97.132C-29.1232 -96.7 -24.4087 -95.635 -20.5673 -94.764C-11.5703 -92.726 -2.95446 -92.735 6.66413 -94.792C10.8937 -95.698 15.9265 -96.771 17.8472 -97.177C19.768 -97.584 8.76745 -97.917 -6.59835 -97.917C-22.4261 -97.917 -33.0225 -97.577 -31.0439 -97.132ZM39.7984 -96.067C51.1152 -93.143 63.7082 -92.6 72.7251 -94.647C76.8409 -95.581 81.78 -96.699 83.7007 -97.131C85.7002 -97.581 75.468 -97.935 59.754 -97.958L32.315 -98L39.7984 -96.067ZM101.661 -97.177C103.581 -96.771 108.614 -95.698 112.844 -94.792C122.952 -92.63 130.939 -92.715 141.448 -95.098C146.181 -96.171 150.951 -97.244 152.049 -97.482C153.146 -97.72 141.472 -97.915 126.106 -97.916C110.741 -97.917 99.74 -97.584 101.661 -97.177ZM168.512 -97.177C170.433 -96.771 175.465 -95.698 179.695 -94.792C183.925 -93.887 189.893 -93.147 192.958 -93.147C196.022 -93.147 201.99 -93.887 206.22 -94.792C210.45 -95.698 215.482 -96.771 217.403 -97.177C219.324 -97.584 208.323 -97.917 192.958 -97.917C177.592 -97.917 166.591 -97.584 168.512 -97.177ZM235.363 -97.177C237.284 -96.771 242.317 -95.698 246.546 -94.792C250.776 -93.887 256.745 -93.147 259.809 -93.147C262.873 -93.147 268.842 -93.887 273.071 -94.792C277.301 -95.698 282.334 -96.771 284.254 -97.177C286.175 -97.584 275.175 -97.917 259.809 -97.917C244.443 -97.917 233.442 -97.584 235.363 -97.177ZM302.214 -97.131C322.286 -92.616 328.072 -92.257 339.922 -94.792C344.152 -95.698 349.185 -96.771 351.106 -97.177C353.026 -97.584 342.026 -97.917 326.66 -97.917C310.818 -97.917 300.234 -97.577 302.214 -97.131ZM369.066 -97.132C370.986 -96.7 375.701 -95.635 379.542 -94.764C388.539 -92.726 397.155 -92.735 406.774 -94.792C411.003 -95.698 416.036 -96.771 417.957 -97.177C419.877 -97.584 408.877 -97.917 393.511 -97.917C377.683 -97.917 367.087 -97.577 369.066 -97.132ZM439.908 -96.067C451.225 -93.143 463.818 -92.6 472.835 -94.647C476.95 -95.581 481.889 -96.699 483.81 -97.131C485.81 -97.581 475.578 -97.935 459.863 -97.958L432.425 -98L439.908 -96.067ZM-110.118 -89.564C-110.53 -89.151 -110.866 -85.289 -110.866 -80.98V-73.147H-103.432C-92.9601 -73.147 -86.2192 -74.762 -84.2745 -77.738C-81.793 -81.533 -84.4112 -84.599 -92.1899 -87.007C-99.5355 -89.281 -109.047 -90.638 -110.118 -89.564ZM-49.6136 -88.709C-52.9672 -87.95 -57.5969 -86.365 -59.9007 -85.187C-63.6544 -83.268 -64.0575 -82.714 -63.7811 -79.853C-63.2603 -74.474 -60.1621 -73.647 -40.5228 -73.647C-20.9983 -73.647 -17.7855 -74.489 -17.2736 -79.739C-16.9054 -83.512 -17.9401 -84.417 -25.5562 -86.98C-33.8258 -89.764 -42.272 -90.371 -49.6136 -88.709ZM17.2376 -88.659C13.8841 -87.927 9.25437 -86.365 6.9505 -85.187C3.19685 -83.268 2.79375 -82.714 3.07013 -79.853C3.55805 -74.812 6.89761 -73.772 23.8339 -73.386C44.4091 -72.918 51.0354 -74.982 49.4379 -81.363C48.6826 -84.377 42.3617 -87.406 33.3787 -89.058C26.1977 -90.379 24.9914 -90.349 17.2376 -88.659ZM87.1929 -89.46C81.2352 -88.688 71.4769 -84.693 69.9882 -82.417C67.5546 -78.694 70.3225 -75.581 77.3688 -74.115C85.804 -72.36 109.193 -73.241 113.385 -75.473C116.614 -77.191 117.577 -80.101 115.829 -82.858C114.55 -84.875 106.527 -87.962 99.6592 -89.078C93.1147 -90.142 92.5889 -90.159 87.1929 -89.46ZM152.547 -89.161C144.713 -87.734 138.239 -84.796 136.642 -81.944C135.288 -79.526 135.319 -79.1 136.977 -77.263C138.008 -76.122 141.245 -74.734 144.417 -74.074C151.592 -72.581 175.902 -73.337 179.761 -75.173C183.386 -76.898 184.367 -80.702 181.839 -83.234C177.44 -87.644 161.698 -90.829 152.547 -89.161ZM218.506 -89.109C212.082 -87.78 205.763 -85.173 203.863 -83.07C201.4 -80.342 202.714 -76.617 206.671 -75.11C211.279 -73.355 234.728 -72.665 241.547 -74.084C252.907 -76.448 253.014 -82.767 241.762 -86.796C234.595 -89.362 224.554 -90.361 218.506 -89.109ZM283.755 -88.727C272.333 -86.128 268.246 -83.012 269.804 -78.09C270.826 -74.865 274.754 -73.916 289.254 -73.393C305.509 -72.806 313.458 -74.101 315.826 -77.724C317.275 -79.94 317.273 -80.357 315.803 -82.606C312.473 -87.7 294.407 -91.151 283.755 -88.727ZM350.496 -88.709C347.142 -87.95 342.513 -86.365 340.209 -85.187C336.455 -83.268 336.052 -82.714 336.328 -79.853C336.849 -74.474 339.947 -73.647 359.587 -73.647C379.111 -73.647 382.324 -74.489 382.836 -79.739C383.204 -83.512 382.169 -84.417 374.553 -86.98C366.284 -89.764 357.838 -90.371 350.496 -88.709ZM417.347 -88.659C413.994 -87.927 409.364 -86.365 407.06 -85.187C403.306 -83.268 402.903 -82.714 403.18 -79.853C403.668 -74.812 407.007 -73.772 423.943 -73.386C444.519 -72.918 451.145 -74.982 449.547 -81.363C448.792 -84.377 442.471 -87.406 433.488 -89.058C426.307 -90.379 425.101 -90.349 417.347 -88.659ZM487.302 -89.482C481.255 -88.654 471.577 -84.68 470.098 -82.417C468.778 -80.398 468.788 -79.881 470.189 -77.738C472.137 -74.759 478.877 -73.147 489.388 -73.147H496.862L496.572 -81.397L496.282 -89.647L493.289 -89.769C491.643 -89.836 488.949 -89.707 487.302 -89.482ZM-80.453 -63.753C-94.369 -57.676 -102.926 -20.357 -97.0002 8.418C-93.6835 24.524 -85.6774 40.468 -79.6498 42.972C-75.3523 44.757 -69.8835 44.506 -66.6357 42.373C-60.9833 38.661 -53.7055 23.355 -50.4288 8.291C-47.8984 -3.348 -48.081 -23.061 -50.8259 -34.364C-53.1388 -43.89 -57.098 -54.075 -60.1781 -58.42C-64.3029 -64.239 -73.687 -66.708 -80.453 -63.753ZM-14.857 -63.028C-27.5926 -56.71 -35.8912 -20.046 -30.6738 6.853C-27.9887 20.695 -19.8509 38.812 -14.854 42.071C-10.5575 44.874 -5.91986 45.054 -1.11855 42.607C2.48443 40.77 4.00305 39.058 7.08519 33.353C14.3909 19.834 17.976 4.934 18.0069 -12.042C18.0368 -28.681 14.3969 -44.439 7.90237 -55.787C2.93443 -64.468 -6.13638 -67.354 -14.857 -63.028ZM51.6021 -63.12C46.9814 -60.673 44.5818 -57.29 40.894 -48.018C36.1705 -36.141 34.4902 -26.375 34.5511 -11.147C34.595 -0.0470028 35.053 4.074 37.1263 12.035C39.6876 21.867 44.9719 33.732 49.39 39.572C55.1053 47.125 66.0071 45.787 71.7433 36.829C86.0345 14.508 88.8582 -20.611 78.5212 -47.483C73.7927 -59.776 67.7901 -65.205 59.0376 -65.103C56.9622 -65.078 53.6166 -64.186 51.6021 -63.12ZM119.122 -63.482C114.553 -61.062 112.629 -59.061 110.15 -54.147C103.074 -40.121 99.5833 -19.022 101.471 -1.69C103.387 15.891 111.687 36.878 118.816 42.165C122.548 44.934 129.592 44.986 133.266 42.273C139.986 37.311 146.966 21.955 150.126 5.17899C154.208 -16.487 148.798 -47.387 138.848 -59.238C134.064 -64.937 125.392 -66.802 119.122 -63.482ZM185.975 -63.572C184.33 -62.712 182.149 -61.252 181.127 -60.328C178.021 -57.517 173.441 -47.334 170.736 -37.225C168.514 -28.921 168.17 -25.585 168.147 -12.147C168.125 0.871997 168.484 4.714 170.39 11.853C173.038 21.777 178.985 34.973 182.886 39.584C188.155 45.812 197.745 45.853 202.936 39.67C207.215 34.573 212.444 23.15 215.181 12.923C217.401 4.624 217.744 1.294 217.764 -12.147C217.79 -29.34 216.62 -35.964 211.292 -48.794C207.666 -57.522 204.316 -61.88 199.771 -63.783C195.456 -65.59 189.668 -65.501 185.975 -63.572ZM252.805 -63.753C247.905 -61.613 243.834 -55.979 240.484 -46.697C231.126 -20.779 232.554 7.629 244.399 31.166C249.946 42.187 255.674 45.974 263.517 43.803C276.353 40.252 287.643 4.146 284.45 -23.136C283.052 -35.076 278.2 -50.562 273.851 -56.964C268.784 -64.424 260.477 -67.104 252.805 -63.753ZM319.657 -63.753C305.741 -57.676 297.184 -20.357 303.109 8.418C306.426 24.524 314.432 40.468 320.46 42.972C324.735 44.749 330.222 44.508 333.425 42.405C339.179 38.627 346.392 23.51 349.674 8.353C352.211 -3.361 352.031 -23.05 349.284 -34.364C346.971 -43.89 343.012 -54.075 339.931 -58.42C335.807 -64.239 326.422 -66.708 319.657 -63.753ZM385.001 -62.85C379.637 -60.007 375.363 -52.66 371.501 -39.647C369.372 -32.471 368.727 -27.85 368.32 -16.85C367.736 -1.07501 368.948 8.552 372.94 19.847C380.362 40.848 388.494 47.966 398.961 42.625C402.603 40.766 404.097 39.081 407.177 33.353C414.834 19.113 418.184 4.868 418.113 -13.147C418.049 -29.555 414.303 -45.069 407.666 -56.421C402.893 -64.581 393.368 -67.284 385.001 -62.85ZM451.712 -63.12C447.326 -60.798 444.969 -57.654 441.61 -49.645C431.334 -25.142 432.099 6.234 443.532 29.174C448.758 39.659 451.266 42.61 456.048 43.901C462.328 45.595 467.81 43.142 471.853 36.829C486.144 14.508 488.968 -20.611 478.631 -47.483C473.902 -59.776 467.9 -65.205 459.147 -65.103C457.072 -65.078 453.726 -64.186 451.712 -63.12ZM-109.699 28.743C-110.455 29.214 -110.884 30.814 -110.697 32.462C-110.379 35.252 -110.179 35.353 -104.988 35.353C-95.7649 35.353 -95.277 29.857 -104.381 28.508C-106.576 28.182 -108.97 28.288 -109.699 28.743ZM-42.5184 28.321C-43.0672 28.517 -44.7794 28.958 -46.3229 29.3C-48.6707 29.821 -49.0788 30.367 -48.8174 32.638C-48.5111 35.3 -48.3544 35.359 -40.8292 35.644C-34.0433 35.901 -33.0315 35.706 -32.1006 33.963C-30.8923 31.7 -32.9697 28.863 -35.8542 28.839C-36.7762 28.832 -38.4275 28.632 -39.5251 28.395C-40.6226 28.158 -41.9696 28.125 -42.5184 28.321ZM21.4243 28.865C17.8173 29.985 16.6918 31.689 17.974 34.09C18.8231 35.681 20.0174 35.895 26.6347 35.644C34.122 35.36 34.3186 35.287 34.6179 32.689C34.8344 30.811 34.3924 29.867 33.1212 29.492C29.0084 28.278 24.1542 28.018 21.4243 28.865ZM87.8944 28.953C84.1517 30.07 82.9055 32.187 84.7094 34.366C85.9726 35.892 96.7925 36.511 100.082 35.246C102.234 34.418 102.11 30.12 99.9146 29.474C95.7569 28.25 90.9496 28.041 87.8944 28.953ZM155.149 28.7C151.362 29.556 149.701 32.121 151.514 34.31C153.455 36.655 166.329 36.114 167.891 33.622C170.099 30.1 162.292 27.085 155.149 28.7ZM222 28.7C218.213 29.556 216.552 32.121 218.365 34.31C220.307 36.655 233.18 36.114 234.743 33.622C236.951 30.1 229.143 27.085 222 28.7ZM290.74 28.36C290.191 28.535 288.479 28.958 286.935 29.3C284.588 29.821 284.18 30.367 284.441 32.638C284.751 35.336 284.804 35.353 292.627 35.353C299.007 35.353 300.707 35.025 301.59 33.622C302.418 32.306 302.324 31.556 301.2 30.495C299.767 29.143 292.766 27.715 290.74 28.36ZM357.591 28.321C357.042 28.517 355.33 28.958 353.787 29.3C351.439 29.821 351.031 30.367 351.292 32.638C351.598 35.3 351.755 35.359 359.28 35.644C366.066 35.901 367.078 35.706 368.009 33.963C369.217 31.7 367.14 28.863 364.255 28.839C363.333 28.832 361.682 28.632 360.584 28.395C359.487 28.158 358.14 28.125 357.591 28.321ZM421.534 28.865C417.927 29.985 416.801 31.689 418.083 34.09C418.933 35.681 420.127 35.895 426.744 35.644C434.232 35.36 434.428 35.287 434.727 32.689C434.944 30.811 434.502 29.867 433.231 29.492C429.118 28.278 424.264 28.018 421.534 28.865ZM488.004 28.984C480.834 31.056 483.217 35.853 491.415 35.853H496.781V32.46C496.781 27.86 494.719 27.044 488.004 28.984ZM-110.118 44.411C-110.53 44.837 -110.866 49.625 -110.866 55.051C-110.866 62.736 -110.547 65.038 -109.423 65.471C-107.176 66.335 -95.2111 64.171 -91.1242 62.161C-89.1017 61.167 -86.7809 59.146 -85.9687 57.67C-84.6486 55.276 -84.6666 54.617 -86.1313 51.539C-87.4075 48.856 -88.8403 47.721 -92.584 46.428C-98.1137 44.518 -109.01 43.264 -110.118 44.411ZM-51.9724 45.391C-59.1105 47.398 -61.9751 50.113 -61.9751 54.872C-61.9751 60.687 -58.3043 63.009 -46.1154 64.905C-40.7673 65.736 -37.8698 65.638 -32.0796 64.428C-20.3787 61.983 -16.6679 58.159 -19.4707 51.435C-20.5613 48.82 -21.8873 47.749 -25.7008 46.405C-32.5755 43.981 -45.2204 43.493 -51.9724 45.391ZM18.3461 44.467C9.1067 46.848 6.64218 48.16 5.2832 51.418C2.41359 58.302 6.28299 62.112 18.6135 64.547C25.8095 65.968 27.2084 65.963 34.3924 64.495C44.3363 62.462 47.183 60.46 47.5781 55.221C47.9203 50.682 45.6035 47.918 39.7984 45.94C35.9769 44.638 21.532 43.646 18.3461 44.467ZM81.7181 45.394C74.4263 47.444 72.0376 49.159 71.2095 52.939C70.2197 57.454 73.0973 60.905 79.7914 63.232C90.4986 66.953 109.45 64.822 113.185 59.478C115.546 56.1 115.016 51.301 112.022 48.941C106.415 44.52 91.1731 42.737 81.7181 45.394ZM148.569 45.394C141.62 47.348 138.773 49.227 137.983 52.385C136.096 59.918 144.522 65.03 159.033 65.156C168.275 65.237 177.813 62.658 180.036 59.478C183.622 54.347 180.315 48.063 172.88 45.883C166.243 43.937 154.588 43.703 148.569 45.394ZM215.723 45.28C206.451 47.533 202.925 51.653 205.06 57.743C208.526 67.633 243.275 67.68 247.358 57.8C248.878 54.122 247.949 50.301 245.076 48.417C238.881 44.355 225.44 42.919 215.723 45.28ZM281.824 45.322C274.998 47.288 271.851 49.856 271.464 53.773C270.976 58.725 273.471 61.559 280.02 63.492C291.916 67.001 308.741 64.794 313.177 59.142C315.572 56.091 315.664 54.682 313.717 50.907C312.707 48.95 310.758 47.535 307.481 46.378C300.944 44.073 288.008 43.54 281.824 45.322ZM348.778 45.222C341.666 47.233 338.695 49.811 338.318 54.3C337.908 59.175 340.033 61.5 346.542 63.298C355.387 65.741 360.479 66.006 368.071 64.419C379.729 61.983 383.439 58.151 380.639 51.435C379.548 48.82 378.222 47.749 374.409 46.405C367.861 44.097 354.879 43.498 348.778 45.222ZM416.593 44.896C406.943 47.333 402.848 51.72 404.98 57.338C406.341 60.926 409.937 62.812 418.723 64.547C425.919 65.968 427.318 65.963 434.502 64.495C444.446 62.462 447.292 60.46 447.688 55.221C448.03 50.682 445.713 47.918 439.908 45.94C435.156 44.321 421.322 43.701 416.593 44.896ZM481.828 45.459C474.579 47.411 472.152 49.138 471.319 52.939C469.905 59.392 476.788 63.844 490.6 65.41L496.781 66.111V54.982V43.853L492.042 43.919C489.436 43.955 484.839 44.648 481.828 45.459ZM-79.54 66.282C-83.2967 67.922 -85.852 71.388 -90.4078 81.024C-99.8628 101.025 -101.645 130.03 -94.7172 151.178C-91.9015 159.775 -87.1022 169.308 -83.4713 173.518C-80.8471 176.56 -79.5969 177.179 -75.2316 177.6C-67.0309 178.389 -63.9866 175.893 -58.0359 163.502C-46.278 139.017 -45.1855 111.31 -54.9827 86.11C-62.0809 67.855 -69.4694 61.889 -79.54 66.282ZM-13.7973 66.82C-20.6321 70.997 -27.884 86.935 -31.041 104.716C-32.6773 113.934 -32.4169 132.116 -30.5171 141.336C-27.43 156.312 -19.5815 172.938 -14.0528 176.211C-10.4957 178.317 -3.6988 178.317 -0.142717 176.212C5.44185 172.906 13.2245 156.436 16.3316 141.353C18.4908 130.867 18.4968 111.857 16.3436 101.445C14.3221 91.67 9.93685 80.433 5.32411 73.206C0.163598 65.12 -7.06431 62.706 -13.7973 66.82ZM53.1577 66.699C41.2172 74.221 31.9149 107.315 34.7846 132.057C37.282 153.583 47.2279 175.421 55.4805 177.497C59.8288 178.591 65.8215 177.149 68.7949 174.295C71.7902 171.418 77.5214 160.459 80.0678 152.739C85.7431 135.529 86.245 111.086 81.2651 94.353C78.0852 83.666 71.2823 70.344 67.6005 67.596C63.7301 64.707 56.9851 64.288 53.1577 66.699ZM120.009 66.758C116.044 69.181 113.37 72.981 109.078 82.29C103.413 94.578 101.317 105.133 101.323 121.353C101.33 141.005 104.656 154.218 113.331 169.052C117.11 175.516 120.584 177.853 126.408 177.853C132.849 177.853 136.44 174.591 141.843 163.834C149.213 149.158 150.868 141.537 150.961 121.853C151.027 107.709 150.719 104.179 148.801 97.134C146.175 87.488 142.687 79.271 138.338 72.477C133.623 65.112 126.393 62.856 120.009 66.758ZM186.681 66.521C180.007 69.817 170.882 90.316 168.582 107.175C165.603 129.003 170.093 153.16 180.113 169.214C184.09 175.587 187.54 177.853 193.259 177.853C199.609 177.853 203.261 174.565 208.578 164.059C215.561 150.264 217.821 139.814 217.816 121.353C217.81 101.473 214.627 88.864 205.806 73.779C200.908 65.402 194.143 62.835 186.681 66.521ZM253.464 66.497C247.116 69.738 239.87 84.694 236.324 101.878C233.596 115.098 234.006 133.802 237.3 146.353C239.8 155.878 247.123 171.39 250.704 174.747C254.04 177.873 261.693 178.738 266.047 176.481C271.82 173.489 279.098 158.737 282.881 142.353C285.58 130.672 285.362 110.378 282.409 98.353C279.802 87.738 272.698 72.537 268.452 68.489C264.645 64.859 258.32 64.019 253.464 66.497ZM320.57 66.282C318.866 67.025 316.504 68.997 315.32 70.664C311.616 75.877 306.325 88.019 304.126 96.353C301.436 106.546 300.465 126.888 302.165 137.449C304.315 150.803 310.642 166.565 316.646 173.527C319.261 176.559 320.515 177.179 324.878 177.6C333.089 178.39 336.129 175.893 342.044 163.502C347.658 151.741 349.599 145.018 351.168 131.9C352.96 116.93 350.828 100.775 345.127 86.11C338.029 67.855 330.64 61.889 320.57 66.282ZM386.268 66.848C381.012 70.059 374.628 82.144 370.826 96.077C368.88 103.206 368.567 106.778 368.567 121.853C368.567 141.961 370.018 148.991 377.187 163.583C382.355 174.105 386.415 177.853 392.644 177.853C398.684 177.853 402.077 175.665 405.939 169.281C413.932 156.061 418.124 139.572 418.124 121.353C418.124 102.754 413.785 86.29 405.434 73.206C400.259 65.099 393.046 62.706 386.268 66.848ZM453.267 66.699C449.362 69.159 446.583 73.054 442.855 81.294C431.025 107.445 431.712 140.308 444.608 165.077C450.331 176.065 453.932 178.645 462.031 177.557C467.351 176.842 470.876 173.338 475.205 164.464C482.861 148.772 485.316 136.216 484.554 116.638C484.148 106.232 483.458 101.403 481.367 94.353C478.2 83.678 471.397 70.348 467.71 67.596C463.84 64.707 457.095 64.288 453.267 66.699ZM-110.684 77.051C-110.382 80.199 -110.159 80.367 -105.877 80.647C-100.279 81.014 -96.8226 78.913 -98.4978 76.162C-99.31 74.827 -101.091 74.274 -105.3 74.051L-111 73.749L-110.684 77.051ZM-48.3385 74.52C-49.6655 75.849 -48.9591 78.806 -47.0743 79.818C-43.7996 81.574 -35.532 81.077 -32.9327 78.968C-30.9412 77.351 -30.8005 76.852 -31.9469 75.468C-32.9517 74.255 -35.074 73.853 -40.4789 73.853C-44.4361 73.853 -47.9733 74.153 -48.3385 74.52ZM17.7844 75.428C15.5494 78.128 19.8019 80.853 26.2485 80.853C32.0856 80.853 35.2056 79.159 34.6578 76.287C34.3376 74.61 33.2849 74.315 26.7215 74.064C20.656 73.832 18.8829 74.103 17.7844 75.428ZM84.9359 75.015C81.6473 78.311 85.3989 80.853 93.5527 80.853C98.9727 80.853 102.044 79.091 101.509 76.287C101.19 74.612 100.138 74.314 93.6555 74.065C88.6906 73.874 85.7551 74.194 84.9359 75.015ZM151.254 74.483C149.894 75.845 150.574 78.794 152.482 79.818C155.222 81.288 164.798 81.102 166.933 79.537C167.921 78.813 168.563 77.351 168.36 76.287C168.037 74.596 166.983 74.317 159.974 74.066C155.564 73.908 151.64 74.095 151.254 74.483ZM218.069 74.52C216.742 75.849 217.448 78.806 219.333 79.818C222.082 81.292 231.652 81.1 233.798 79.527C235.063 78.6 235.4 77.546 234.919 76.027C234.291 74.041 233.561 73.853 226.482 73.853C222.22 73.853 218.434 74.153 218.069 74.52ZM284.958 74.481C283.598 75.845 284.275 78.794 286.184 79.818C289.05 81.355 298.52 81.091 300.777 79.412C302.325 78.259 302.493 77.608 301.611 76.162C300.736 74.727 298.974 74.293 293.085 74.065C289.002 73.906 285.345 74.094 284.958 74.481ZM351.771 74.52C350.444 75.849 351.15 78.806 353.035 79.818C356.31 81.574 364.578 81.077 367.177 78.968C369.168 77.351 369.309 76.852 368.163 75.468C367.158 74.255 365.036 73.853 359.631 73.853C355.673 73.853 352.136 74.153 351.771 74.52ZM417.894 75.428C415.659 78.128 419.911 80.853 426.358 80.853C432.195 80.853 435.315 79.159 434.767 76.287C434.447 74.61 433.394 74.315 426.831 74.064C420.765 73.832 418.992 74.103 417.894 75.428ZM485.008 75.053C481.893 78.174 485.519 80.853 492.855 80.853C496.677 80.853 496.781 80.76 496.781 77.353V73.853H491.493C488.585 73.853 485.666 74.393 485.008 75.053ZM-110.477 163.28C-110.778 164.065 -110.876 165.753 -110.696 167.03C-110.415 169.014 -109.712 169.396 -105.877 169.647C-100.729 169.984 -97.2137 168.076 -98.2065 165.483C-99.4647 162.197 -109.382 160.417 -110.477 163.28ZM-46.759 162.884C-49.1965 163.866 -49.7174 166.738 -47.8066 168.653C-45.9528 170.511 -34.5252 170.199 -32.5676 168.237C-31.6805 167.348 -31.1228 166.111 -31.3273 165.487C-32.35 162.377 -41.6184 160.813 -46.759 162.884ZM19.9216 163.118C13.9848 166.154 17.4332 169.853 26.1997 169.853C32.6453 169.853 34.8095 168.791 34.8095 165.628C34.8095 162.186 24.9844 160.529 19.9216 163.118ZM86.7728 163.118C80.8091 166.168 84.2864 169.853 93.1287 169.853C99.7649 169.853 102.131 168.535 101.488 165.195C100.902 162.145 91.3197 160.792 86.7728 163.118ZM153.773 162.892C150.613 164.164 149.806 166.833 152.077 168.498C154.646 170.38 165.894 170.31 167.474 168.401C169.267 166.235 168.33 163.532 165.514 162.747C161.965 161.757 156.422 161.826 153.773 162.892ZM219.648 163.073C217.193 164.26 216.722 166.77 218.6 168.653C220.252 170.308 231.525 170.193 233.838 168.498C239.47 164.37 226.904 159.566 219.648 163.073ZM286.499 162.884C284.062 163.866 283.541 166.738 285.452 168.653C287.103 170.308 298.376 170.193 300.689 168.498C306.22 164.444 294.316 159.735 286.499 162.884ZM353.351 162.884C350.913 163.866 350.392 166.738 352.303 168.653C354.157 170.511 365.584 170.199 367.542 168.237C368.429 167.348 368.987 166.111 368.782 165.487C367.759 162.377 358.491 160.813 353.351 162.884ZM420.031 163.118C414.094 166.154 417.543 169.853 426.309 169.853C432.755 169.853 434.919 168.791 434.919 165.628C434.919 162.186 425.094 160.529 420.031 163.118ZM486.882 163.118C481.434 165.904 484.355 169.853 491.863 169.853H496.781V165.853C496.781 161.895 496.742 161.853 493.04 161.868C490.982 161.876 488.211 162.438 486.882 163.118ZM-110.866 188.353V198.853H-105.694C-99.323 198.853 -89.5408 196.203 -87.4783 193.919C-84.8223 190.978 -84.5329 186.621 -86.8019 183.73C-89.2424 180.62 -98.1366 177.853 -105.694 177.853H-110.866V188.353ZM-53.944 179.8C-56.9353 180.835 -59.9656 182.481 -60.679 183.458C-62.2086 185.556 -62.3732 190.239 -61.0063 192.798C-58.3651 197.746 -39.2966 200.527 -28.8628 197.487C-25.8026 196.596 -22.3064 195.06 -21.0921 194.075C-18.2943 191.805 -17.9271 185.777 -20.4186 183.018C-24.8487 178.112 -43.8055 176.292 -53.944 179.8ZM13.016 179.699C10.0845 180.749 7.11014 182.225 6.4057 182.98C4.08786 185.463 3.84241 189.265 5.79307 192.48C10.4647 200.179 38.5502 201.104 45.8399 193.798C47.9223 191.711 48.3973 186.876 46.8118 183.908C44.015 178.67 23.1464 176.071 13.016 179.699ZM80.2085 179.436C73.7478 181.47 71.3282 183.879 71.3282 188.281C71.3282 192.982 73.7329 195.312 80.5707 197.235C91.5422 200.32 107.934 198.566 112.691 193.798C114.774 191.711 115.248 186.876 113.663 183.908C111.003 178.925 90.5275 176.189 80.2085 179.436ZM147.06 179.474C134.333 183.255 134.494 193.599 147.335 197.21C158.336 200.304 173.896 198.535 179.238 193.585C184.4 188.802 180.561 181.726 171.505 179.329C164.559 177.491 153.517 177.556 147.06 179.474ZM213.911 179.51C207.715 181.395 204.432 184.326 204.432 187.972C204.432 192.209 208.16 195.723 214.41 197.377C225.896 200.417 242.355 198.203 246.379 193.075C250.72 187.544 247.546 182.017 238.58 179.496C231.403 177.478 220.571 177.484 213.911 179.51ZM279.479 179.744C273.457 181.829 271.347 184.063 271.347 188.353C271.347 194.613 277.156 197.808 290.014 198.618C299.218 199.198 309.85 196.999 312.607 193.946C315.285 190.98 315.584 186.63 313.308 183.73C308.993 178.234 290.229 176.023 279.479 179.744ZM346.166 179.8C343.174 180.835 340.144 182.481 339.431 183.458C337.901 185.556 337.736 190.239 339.103 192.798C341.744 197.746 360.813 200.527 371.247 197.487C374.307 196.596 377.803 195.06 379.017 194.075C381.815 191.805 382.182 185.777 379.691 183.018C375.261 178.112 356.304 176.292 346.166 179.8ZM413.126 179.699C410.194 180.749 407.22 182.225 406.515 182.98C404.197 185.463 403.952 189.265 405.903 192.48C410.574 200.179 438.66 201.104 445.949 193.798C448.032 191.711 448.507 186.876 446.921 183.908C444.124 178.67 423.256 176.071 413.126 179.699ZM480.318 179.499C477.574 180.328 474.454 181.862 473.383 182.907C470.929 185.305 470.821 191.071 473.182 193.685C475.429 196.173 484.984 198.853 491.609 198.853H496.781V188.353V177.853L491.044 177.923C487.888 177.961 483.062 178.67 480.318 179.499ZM-78.9374 199.562C-84.935 201.773 -92.2507 215.236 -96.4833 231.853C-98.0139 237.859 -98.3821 242.739 -98.3352 256.353C-98.2803 271.954 -98.0498 274.09 -95.5374 282.304C-92.2837 292.939 -85.6594 306.128 -82.2041 308.852C-79.3095 311.134 -73.9774 312.328 -70.54 311.463C-61.1699 309.106 -51.4216 288.012 -48.8793 264.591C-47.203 249.145 -49.91 230.94 -55.9176 217.255C-59.4647 209.175 -64.0485 202.238 -66.9939 200.494C-69.672 198.909 -75.8552 198.427 -78.9374 199.562ZM-15.3479 201.784C-21.2527 206.981 -27.5238 220.848 -30.5012 235.296C-32.6154 245.552 -32.6184 265.139 -30.5081 275.38C-28.5176 285.036 -24.1184 296.294 -19.5186 303.5C-12.4733 314.539 -1.42088 314.642 5.44983 303.734C19.3489 281.667 22.0479 246.41 11.8556 220.034C8.13786 210.413 3.29763 202.531 -0.142717 200.494C-1.66732 199.592 -4.96299 198.853 -7.46542 198.853C-11.0754 198.853 -12.7058 199.459 -15.3479 201.784ZM51.9773 200.936C49.5637 202.529 47.4005 205.792 43.8294 213.229C32.0846 237.688 30.995 265.406 40.7882 290.596C46.9325 306.399 52.564 312.34 60.6161 311.518C63.0117 311.273 66.1547 310.204 67.6005 309.143C71.1945 306.506 79.2985 290.104 81.8268 280.353C84.4819 270.11 85.4328 249.712 83.7436 239.22C81.5215 225.414 75.5019 210.405 69.3037 203.22C66.5109 199.982 65.5002 199.505 60.7019 199.159C56.3605 198.846 54.6014 199.204 51.9773 200.936ZM119.449 200.327C113.999 203.41 106.673 218.597 103.034 234.353C100.335 246.034 100.553 266.328 103.506 278.353C106.147 289.105 113.232 304.183 117.604 308.353C120.297 310.921 121.52 311.353 126.098 311.353C133.447 311.353 136.096 309.101 141.687 298.102C148.898 283.914 151.066 273.703 150.978 254.353C150.917 241.233 150.515 236.913 148.742 230.353C146.165 220.812 138.766 205.318 135.174 201.936C131.946 198.896 123.504 198.032 119.449 200.327ZM185.81 200.789C181.746 203.273 176.048 213.475 172.434 224.738C163.97 251.118 166.826 280.212 180.109 302.927C187.403 315.4 198.726 314.99 206.409 301.974C221.992 275.574 222.18 236.624 206.859 209.166C202.744 201.791 198.791 198.86 192.958 198.86C190.762 198.86 187.546 199.728 185.81 200.789ZM252.224 201.122C247.938 203.991 240.206 219.005 237.172 230.353C233.95 242.397 233.95 267.918 237.17 279.853C239.907 289.998 246.129 303.346 250.112 307.62C253.153 310.881 258.523 312.519 262.718 311.463C269.795 309.683 278.124 295.664 282.423 278.293C285.21 267.037 285.499 245.353 283.01 234.218C279.755 219.649 271.568 203.086 266.261 200.336C262.037 198.146 256.18 198.474 252.224 201.122ZM320.591 199.822C315.491 201.89 309.306 212.917 304.589 228.354C302.022 236.754 301.838 238.55 301.838 255.353C301.838 272.142 302.024 273.958 304.583 282.353C307.871 293.135 314.675 306.392 318.315 309.11C319.76 310.189 322.903 311.288 325.299 311.551C331.012 312.179 335.495 309.197 339.895 301.841C351.668 282.153 354.956 252.625 348.095 228.183C345.198 217.861 337.407 202.99 333.715 200.733C330.53 198.787 324.225 198.349 320.591 199.822ZM384.528 201.99C380.343 205.672 374.136 217.999 371 228.853C367.675 240.367 367.168 264.058 369.975 276.853C372.393 287.884 380.954 306.088 385.166 309.157C389.124 312.041 395.806 312.402 399.712 309.944C405.805 306.11 412.922 291.536 416.117 276.355C418.574 264.68 418.726 246.287 416.455 235.353C413.312 220.222 405.542 203.795 399.967 200.494C398.442 199.592 395.147 198.853 392.644 198.853C388.966 198.853 387.409 199.455 384.528 201.99ZM452.879 200.488C449.391 202.968 448.301 204.448 444.512 211.853C437.479 225.597 434.544 238.667 434.63 255.853C434.699 269.883 436.304 278.781 440.898 290.596C447.042 306.399 452.673 312.34 460.726 311.518C466.831 310.894 469.714 308.33 474.519 299.25C481.036 286.932 483.888 275.798 484.54 260.126C485.355 240.503 482.856 227.811 475.091 212.136C470.2 202.263 467.273 199.627 460.634 199.118C456.715 198.817 454.737 199.167 452.879 200.488ZM-110.477 208.28C-110.778 209.065 -110.876 210.753 -110.696 212.03C-110.432 213.893 -109.676 214.405 -106.875 214.613C-103.228 214.885 -98.8181 213.164 -98.1785 211.219C-96.9972 207.624 -109.117 204.728 -110.477 208.28ZM-47.8066 208.053C-49.8172 210.068 -49.1696 212.84 -46.4447 213.878C-41.1405 215.899 -32.358 214.354 -31.3273 211.219C-31.1228 210.595 -31.6805 209.358 -32.5676 208.469C-34.5252 206.507 -45.9528 206.195 -47.8066 208.053ZM18.3731 208.469C17.486 209.358 16.9283 210.595 17.1328 211.219C18.1635 214.354 26.946 215.899 32.2502 213.878C34.9751 212.84 35.6227 210.068 33.6122 208.053C31.7583 206.195 20.3307 206.507 18.3731 208.469ZM85.2263 208.208C79.7205 212.243 91.1431 216.91 99.1014 213.878C101.826 212.84 102.474 210.068 100.463 208.053C98.8121 206.398 87.5391 206.513 85.2263 208.208ZM152.077 208.208C148.262 211.004 152.88 214.853 160.049 214.853C166.745 214.853 170.547 211.293 167.315 208.053C165.663 206.398 154.39 206.513 152.077 208.208ZM218.982 208.169C217.994 208.893 217.35 210.355 217.552 211.419C218.424 216.029 235.363 215.486 235.363 210.848C235.363 209.789 234.495 208.458 233.433 207.888C230.693 206.418 221.117 206.604 218.982 208.169ZM285.292 208.305C284.631 209.104 284.241 210.546 284.427 211.511C285.273 215.917 300.469 215.663 301.931 211.219C302.136 210.595 301.578 209.358 300.691 208.469C298.541 206.314 287.042 206.192 285.292 208.305ZM352.303 208.053C350.292 210.068 350.94 212.84 353.665 213.878C358.969 215.899 367.752 214.354 368.782 211.219C368.987 210.595 368.429 209.358 367.542 208.469C365.584 206.507 354.157 206.195 352.303 208.053ZM418.483 208.469C416.468 210.488 416.925 212 420.031 213.588C427.094 217.2 438.833 212.919 434.306 208.382C432.134 206.205 420.679 206.268 418.483 208.469ZM485.336 208.208C481.508 211.013 486.141 214.853 493.354 214.853C496.688 214.853 496.781 214.743 496.781 210.853V206.853H491.983C489.344 206.853 486.353 207.463 485.336 208.208ZM-110.118 296.423C-110.53 296.843 -110.866 298.484 -110.866 300.07C-110.866 302.942 -110.845 302.952 -105.233 302.653C-99.1883 302.331 -96.2209 300.131 -98.6076 297.739C-99.9865 296.357 -109.038 295.322 -110.118 296.423ZM-47.4255 297.169C-48.4133 297.893 -49.0549 299.355 -48.8523 300.419C-48.532 302.096 -47.4794 302.391 -40.916 302.642C-35.3364 302.856 -33.0415 302.561 -32.1794 301.519C-30.6169 299.633 -31.6706 297.187 -34.3556 296.465C-38.2339 295.423 -45.5826 295.819 -47.4255 297.169ZM18.7383 297.738C16.7467 299.355 16.606 299.854 17.7525 301.238C18.7612 302.456 20.8895 302.853 26.4152 302.853C32.6463 302.853 33.8965 302.563 34.7776 300.912C35.6147 299.345 35.3862 298.671 33.5932 297.412C30.3863 295.161 21.6787 295.352 18.7383 297.738ZM85.1385 297.294C83.5879 298.449 83.4223 299.096 84.3083 300.544C85.2243 302.042 86.7649 302.353 93.2744 302.353C100.252 302.353 101.176 302.136 101.506 300.419C101.711 299.355 101.07 297.893 100.082 297.169C97.6496 295.387 87.589 295.471 85.1385 297.294ZM152.117 297.179C150.838 298.116 150.513 299.155 151.008 300.718C151.666 302.798 152.201 302.914 159.85 302.642C166.981 302.389 168.037 302.113 168.36 300.419C168.563 299.355 167.921 297.893 166.933 297.169C164.603 295.461 154.452 295.468 152.117 297.179ZM218.982 297.169C217.994 297.893 217.353 299.355 217.558 300.419C217.89 302.149 218.819 302.353 226.383 302.353C233.947 302.353 234.876 302.149 235.208 300.419C235.771 297.49 232.607 295.853 226.383 295.853C223.3 295.853 219.969 296.445 218.982 297.169ZM285.892 297.091C284.866 297.862 284.203 299.349 284.409 300.419C284.739 302.136 285.663 302.353 292.641 302.353C298.994 302.353 300.708 302.023 301.585 300.631C303.303 297.9 300.954 296.492 293.98 296.072C289.7 295.815 287.165 296.134 285.892 297.091ZM352.684 297.169C351.696 297.893 351.055 299.355 351.257 300.419C351.578 302.096 352.63 302.391 359.194 302.642C364.773 302.856 367.068 302.561 367.93 301.519C369.493 299.633 368.439 297.187 365.754 296.465C361.876 295.423 354.527 295.819 352.684 297.169ZM418.848 297.738C416.856 299.355 416.716 299.854 417.862 301.238C418.871 302.456 420.999 302.853 426.525 302.853C432.756 302.853 434.006 302.563 434.887 300.912C435.724 299.345 435.496 298.671 433.703 297.412C430.496 295.161 421.788 295.352 418.848 297.738ZM485.248 297.294C483.7 298.446 483.533 299.099 484.413 300.544C485.222 301.875 487.003 302.432 491.148 302.653L496.781 302.953V299.403V295.853H491.983C489.344 295.853 486.314 296.502 485.248 297.294ZM-110.395 312.064C-110.698 312.856 -110.815 317.744 -110.657 322.928L-110.367 332.353L-106.634 332.663C-102.36 333.018 -91.4894 330.463 -88.2676 328.347C-85.0428 326.229 -84.2605 321.229 -86.6462 317.983C-89.9469 313.492 -109.113 308.716 -110.395 312.064ZM-49.9958 312.419C-58.4669 314.26 -61.3844 316.46 -61.7925 321.316C-62.4131 328.693 -55.1722 332.361 -40.024 332.343C-28.4737 332.33 -21.4014 329.902 -19.4777 325.288C-16.7039 318.635 -20.3647 314.744 -31.6516 312.348C-39.9092 310.594 -41.6244 310.601 -49.9958 312.419ZM16.9832 312.359C6.18221 314.766 2.56226 318.76 5.27622 325.271C6.36879 327.891 7.68486 328.951 11.5064 330.285C22.6785 334.187 39.988 332.842 45.5107 327.642C48.4192 324.903 48.6158 318.921 45.8799 316.439C41.2621 312.251 26.6956 310.194 16.9832 312.359ZM85.4488 311.846C78.9293 313.003 73.5353 315.838 71.7742 319.036C70.4542 321.43 70.4721 322.089 71.9369 325.167C73.213 327.85 74.6458 328.985 78.3895 330.278C89.1476 333.994 103.937 333.15 110.97 328.417C114.699 325.908 115.667 321.084 113.198 317.308C110.458 313.117 95.2061 310.115 85.4488 311.846ZM152.547 311.831C141.438 313.835 136.431 318.128 137.983 324.321C140.287 333.522 170.714 335.737 179.116 327.316C181.943 324.483 182.217 319.932 179.737 317.035C176.262 312.975 161.676 310.183 152.547 311.831ZM218.617 311.933C211.203 313.218 205.61 316.283 204.803 319.506C203.151 326.103 207.681 330.046 219.182 332.023C231.41 334.124 245.766 330.441 247.741 324.697C249.339 320.048 246.918 316.213 240.993 314.002C234.529 311.592 225.437 310.751 218.617 311.933ZM284.254 312.181C276.501 313.964 272.975 315.934 271.862 319.105C269.55 325.694 274.276 330.002 286.033 332.023C294.247 333.434 303.524 332.336 309.906 329.197C314.906 326.738 316.434 322.022 313.516 318.054C309.698 312.861 294.534 309.818 284.254 312.181ZM350.114 312.419C341.643 314.26 338.725 316.46 338.317 321.316C337.847 326.903 340.698 329.398 349.887 331.447C358.353 333.335 366.689 332.934 374.409 330.267C378.239 328.944 379.543 327.898 380.639 325.271C383.405 318.636 379.735 314.742 368.458 312.348C360.2 310.594 358.485 310.601 350.114 312.419ZM417.093 312.359C406.665 314.683 402.935 318.53 405.094 324.735C407.438 331.473 423.948 334.826 437.441 331.304C444.987 329.334 447.89 326.702 447.89 321.834C447.89 317.408 445.781 315.224 439.753 313.409C432.491 311.222 423.964 310.827 417.093 312.359ZM485.558 311.865C479.061 312.992 473.651 315.829 471.884 319.036C470.564 321.43 470.582 322.089 472.046 325.167C474.02 329.315 479.702 331.642 490.081 332.554L496.852 333.149L496.567 322.251L496.282 311.353L493.289 311.198C491.643 311.113 488.164 311.414 485.558 311.865ZM-79.4362 333.704C-86.0984 336.833 -93.5029 351.438 -97.0041 368.353C-102.986 397.253 -94.3012 434.61 -80.2325 440.502C-72.8768 443.582 -63.9517 440.815 -59.5236 434.083C-49.7433 419.216 -45.6904 387.787 -50.8259 366.636C-54.2713 352.444 -62.014 336.508 -66.6796 334.005C-70.581 331.913 -75.3823 331.799 -79.4362 333.704ZM-13.0759 334.099C-16.6789 335.936 -18.1975 337.648 -21.2797 343.353C-28.6303 356.954 -32.1615 371.72 -32.1615 388.853C-32.1615 405.696 -28.6034 421.124 -22.0969 432.493C-15.2062 444.534 0.686433 444.873 7.55614 433.127C19.2162 413.186 21.4043 379.885 12.6388 355.797C9.45392 347.044 3.46525 336.464 0.659498 334.635C-3.63694 331.832 -8.27462 331.652 -13.0759 334.099ZM55.9704 332.555C47.5332 334.207 37.5344 355.809 34.7736 378.353C32.4837 397.043 37.6951 423.433 45.9836 435.126C50.1144 440.953 59.1653 443.38 66.038 440.502C80.1067 434.61 88.7913 397.253 82.8097 368.353C79.7315 353.481 71.9718 337.078 66.7384 334.38C63.6014 332.762 58.9438 331.973 55.9704 332.555ZM121.949 332.95C113.441 335.419 104.1 356.118 101.543 378.168C99.9485 391.917 101.406 406.306 105.699 419.17C110.997 435.05 115.58 440.642 124.084 441.603C133.98 442.721 140.426 437.265 145.36 423.599C154.659 397.846 153.402 369.424 141.946 346.432C137.658 337.824 134.337 334.156 129.655 332.852C125.644 331.736 126.157 331.729 121.949 332.95ZM188.8 332.94C184.555 334.185 180.919 338.719 176.339 348.476C170.082 361.805 168.07 371.795 168.107 389.353C168.133 401.723 168.536 405.843 170.406 412.852C175.108 430.484 181.302 439.978 189.051 441.435C201.562 443.787 209.398 435.539 215.179 413.931C217.393 405.655 217.748 402.245 217.79 388.853C217.831 375.77 217.486 372.038 215.571 364.92C211.83 351.005 204.335 336.443 199.652 333.985C196.681 332.426 192.068 331.981 188.8 332.94ZM255.32 332.944C244.24 337.516 234.343 364.354 234.378 389.734C234.401 406.225 240.152 427.515 246.754 435.542C251.917 441.82 260.008 443.578 267.083 439.959C271.503 437.698 273.378 435.688 276.041 430.353C282.882 416.647 286.412 394.62 284.45 377.864C282.45 360.788 274.002 339.556 267.292 334.745C264.106 332.461 258.524 331.621 255.32 332.944ZM320.673 333.704C314.011 336.833 306.607 351.438 303.105 368.353C297.124 397.253 305.808 434.61 319.877 440.502C327.233 443.582 336.158 440.815 340.586 434.083C350.366 419.216 354.419 387.787 349.284 366.636C345.838 352.444 338.096 336.508 333.43 334.005C329.529 331.913 324.727 331.799 320.673 333.704ZM387.013 334.099C383.232 336.017 381.945 337.544 378.375 344.353C371.547 357.372 368.909 367.903 368.323 384.489C367.619 404.422 370.708 419.73 378.013 432.493C385.485 445.551 401.515 444.855 408.684 431.16C419.57 410.367 421.329 380.447 413.07 356.599C410.066 347.927 404.034 337.019 401.103 334.959C396.661 331.838 392.026 331.555 387.013 334.099ZM456.08 332.555C452.44 333.268 447.62 338.88 443.664 347.011C431.317 372.386 431.334 406.89 443.705 430.34C447.874 438.242 452.663 441.808 459.147 441.837C467.938 441.875 473.908 436.468 478.631 424.189C488.811 397.723 486.344 363.947 472.554 341.009C468.44 334.165 462.756 331.248 456.08 332.555ZM-110.201 341.52C-110.567 341.886 -110.866 343.431 -110.866 344.952C-110.866 348.443 -108.395 349.34 -102.882 347.852C-95.3578 345.822 -96.7447 340.853 -104.836 340.853C-107.421 340.853 -109.836 341.153 -110.201 341.52ZM-48.3385 341.52C-49.6974 342.882 -48.9671 346.729 -47.2579 347.211C-42.3478 348.596 -39.2038 348.786 -36.1027 347.885C-32.0347 346.702 -30.8334 345.115 -32.1465 342.657C-32.9397 341.171 -34.3945 340.853 -40.3921 340.853C-44.3962 340.853 -47.9733 341.153 -48.3385 341.52ZM17.952 342.657C17.4222 343.649 17.3414 345.032 17.7714 345.73C18.9747 347.681 25.8434 348.865 30.2207 347.875C34.6798 346.867 36.0817 345.236 34.7047 342.657C33.9095 341.167 32.4517 340.853 26.3284 340.853C20.205 340.853 18.7472 341.167 17.952 342.657ZM84.9359 342.015C81.6902 345.268 84.7713 347.97 91.8755 348.103C99.5664 348.247 101.845 347.276 101.469 344.017C101.17 341.425 100.958 341.345 93.6665 341.065C88.6926 340.874 85.7551 341.194 84.9359 342.015ZM151.48 342.437C149.578 344.734 151.463 347.141 155.883 348.062C163.375 349.622 170.641 346.129 167.584 342.437C166.624 341.278 164.464 340.853 159.532 340.853C154.6 340.853 152.44 341.278 151.48 342.437ZM218.331 342.437C216.429 344.734 218.314 347.141 222.734 348.062C230.227 349.622 237.492 346.129 234.435 342.437C233.475 341.278 231.315 340.853 226.383 340.853C221.451 340.853 219.291 341.278 218.331 342.437ZM285.502 341.515C284.816 341.793 284.254 343.099 284.254 344.417C284.254 346.218 284.938 346.967 286.998 347.427C288.507 347.763 290.505 348.245 291.439 348.498C293.986 349.186 301.24 346.956 301.878 345.288C303.034 342.272 300.252 340.85 293.362 340.932C289.724 340.975 286.188 341.238 285.502 341.515ZM351.771 341.52C351.405 341.886 351.106 343.228 351.106 344.501C351.106 346.21 351.822 346.975 353.849 347.427C355.358 347.763 357.357 348.245 358.291 348.498C360.373 349.061 367.764 347.155 368.571 345.846C368.894 345.323 368.672 343.985 368.079 342.874C367.148 341.129 366.003 340.853 359.717 340.853C355.713 340.853 352.136 341.153 351.771 341.52ZM418.061 342.657C417.532 343.649 417.451 345.032 417.881 345.73C419.084 347.681 425.953 348.865 430.33 347.875C434.789 346.867 436.191 345.236 434.814 342.657C434.019 341.167 432.561 340.853 426.438 340.853C420.314 340.853 418.857 341.167 418.061 342.657ZM484.738 342.437C482.78 344.801 484.802 347.226 489.407 348.037C495.255 349.067 496.781 348.29 496.781 344.286V340.853H491.415C487.737 340.853 485.638 341.351 484.738 342.437ZM-110.657 458.103L-110.367 466.353L-104.381 466.097C-96.7218 465.769 -86.1393 462.115 -84.1827 459.123C-82.8626 457.104 -82.8726 456.587 -84.2745 454.444C-86.2221 451.465 -92.9621 449.853 -103.473 449.853H-110.947L-110.657 458.103ZM-57.8882 451.132C-62.928 452.533 -64.5334 454.471 -63.6324 458.069C-62.8621 461.145 -56.4843 464.142 -47.0932 465.842C-39.3365 467.246 -30.2258 465.955 -22.2485 462.32C-17.2606 460.048 -16.9633 459.71 -17.2596 456.635C-17.7595 451.437 -20.9754 450.458 -38.5273 450.163C-48.0222 450.002 -55.1004 450.357 -57.8882 451.132ZM9.44395 450.915C4.26947 452.208 2.88055 453.503 2.88055 457.031C2.88055 459.6 3.52911 460.258 8.11889 462.341C19.8847 467.681 32.8519 467.674 44.6027 462.32C49.5906 460.048 49.8879 459.71 49.5916 456.635C49.0957 451.48 45.8858 450.509 28.3239 450.2C20.0922 450.055 11.5962 450.377 9.44395 450.915ZM75.9499 450.964C73.2829 451.599 71.0957 452.889 70.098 454.415C68.6372 456.65 68.6382 457.058 70.1119 459.312C71.8151 461.917 80.1107 464.994 88.8871 466.275C97.7105 467.564 114.87 462.826 116.163 458.744C117.1 455.783 115.705 452.839 112.8 451.65C109.261 450.2 81.3399 449.681 75.9499 450.964ZM142.943 450.942C132.783 453.359 133.606 459.686 144.601 463.718C156.602 468.118 175.603 466.191 181.839 459.94C184.58 457.194 183.366 453.388 179.244 451.805C175.164 450.237 148.561 449.605 142.943 450.942ZM211.416 450.536C203.618 451.819 200.262 456.118 204.076 459.94C211.96 467.843 239.903 468 248.514 460.19C252.42 456.647 249.749 452.648 242.333 450.935C238.061 449.949 216.665 449.672 211.416 450.536ZM276.771 450.782C270.082 452.4 267.605 455.653 270.086 459.564C272.416 463.238 289.395 467.412 297.452 466.291C304.763 465.274 314.332 461.561 315.927 459.123C318.259 455.555 315.594 452.321 309.186 450.944C303.606 449.744 281.516 449.634 276.771 450.782ZM342.221 451.132C337.182 452.533 335.576 454.471 336.477 458.069C337.247 461.145 343.625 464.142 353.016 465.842C360.773 467.246 369.884 465.955 377.861 462.32C382.849 460.048 383.146 459.71 382.85 456.635C382.35 451.437 379.134 450.458 361.582 450.163C352.087 450.002 345.009 450.357 342.221 451.132ZM409.553 450.915C404.379 452.208 402.99 453.503 402.99 457.031C402.99 459.6 403.639 460.258 408.228 462.341C419.994 467.681 432.961 467.674 444.712 462.32C449.7 460.048 449.997 459.71 449.701 456.635C449.205 451.48 445.995 450.509 428.433 450.2C420.202 450.055 411.706 450.377 409.553 450.915ZM476.059 451.022C473.342 451.632 471.224 452.86 470.207 454.415C468.747 456.65 468.748 457.058 470.221 459.312C472.088 462.168 481.261 465.351 490.708 466.423L496.781 467.111V458.482V449.853L488.55 449.96C484.022 450.019 478.401 450.497 476.059 451.022ZM-87.9174 471.46C-91.4844 472.329 -95.9744 473.397 -97.8952 473.832C-99.9117 474.289 -89.7922 474.64 -73.9485 474.664L-46.5095 474.706L-53.9929 472.76C-64.4526 470.039 -79.6947 469.455 -87.9174 471.46ZM-18.5717 470.921C-37.2332 474.889 -37.7959 474.697 -7.59613 474.659C8.32144 474.638 18.839 474.285 16.8495 473.838C14.9287 473.406 10.2142 472.341 6.37278 471.47C-1.0956 469.778 -12.0612 469.536 -18.5717 470.921ZM48.2795 470.921C29.618 474.889 29.0553 474.697 59.2551 474.659C75.1876 474.638 85.6922 474.285 83.7007 473.837C65.5571 469.756 57.053 469.055 48.2795 470.921ZM115.131 470.921C96.4693 474.889 95.9065 474.697 126.106 474.659C141.472 474.639 152.473 474.29 150.552 473.883C148.631 473.477 143.598 472.404 139.369 471.498C131.201 469.751 121.698 469.524 115.131 470.921ZM181.982 470.921C163.32 474.889 162.758 474.697 192.958 474.659C208.323 474.639 219.324 474.29 217.403 473.883C215.482 473.477 210.45 472.404 206.22 471.498C198.052 469.751 188.549 469.524 181.982 470.921ZM247.835 471.029C245.64 471.565 241.15 472.609 237.858 473.349C232.359 474.584 234.149 474.691 259.809 474.659C275.175 474.639 286.175 474.29 284.254 473.883C282.334 473.477 277.301 472.404 273.071 471.498C264.664 469.7 254.083 469.503 247.835 471.029ZM312.192 471.46C308.625 472.329 304.135 473.397 302.214 473.832C300.198 474.289 310.317 474.64 326.161 474.664L353.6 474.706L346.117 472.76C335.657 470.039 320.415 469.455 312.192 471.46ZM381.538 470.921C362.876 474.889 362.314 474.697 392.513 474.659C408.431 474.638 418.949 474.285 416.959 473.838C415.038 473.406 410.324 472.341 406.482 471.47C399.014 469.778 388.048 469.536 381.538 470.921ZM448.389 470.921C429.728 474.889 429.165 474.697 459.365 474.659C475.297 474.638 485.802 474.285 483.81 473.837C465.667 469.756 457.162 469.055 448.389 470.921Z" fill="black"/>
</g>
</svg>
