<svg width="406" height="371" viewBox="0 0 406 371" fill="none" xmlns="http://www.w3.org/2000/svg">
<mask id="mask0_444_3275" style="mask-type:alpha" maskUnits="userSpaceOnUse" x="0" y="0" width="406" height="371">
<path fill-rule="evenodd" clip-rule="evenodd" d="M0.000456195 0.65728C-0.0575268 2.16102 5.41687 10.2423 13.5125 20.6046C27.2025 38.1259 44.3814 52.8696 66.9308 66.4482C78.4824 73.4044 86.9999 80.0848 85.1185 80.7113C83.9788 81.091 74.9235 76.7376 70.7817 73.818C62.3712 67.89 69.807 76.289 80.7208 85.0436C90.8218 93.1459 99.1824 97.82 119.821 106.901C150.993 120.618 157.86 124.749 168.661 136.29C176.863 145.053 178.939 151.312 179.643 169.406C180.13 181.909 180.047 182.639 177.592 187.481C173.541 195.471 163.674 202.758 156.827 202.816C155.407 202.828 153.993 203.09 153.685 203.397C153.378 203.704 154.653 206.222 156.518 208.993C160.415 214.781 160.438 214.911 158.34 219.331C156.148 223.948 152.54 225.162 142.656 224.606C133.381 224.084 126.913 221.58 113.949 213.494C109.839 210.93 105.966 208.833 105.343 208.833C104.718 208.833 103.806 211.189 103.317 214.068C102.1 221.22 100.108 221.429 93.9579 215.052C88.3695 209.257 85.4434 201.959 86.4841 196.41C87.8767 188.995 84.3437 193.031 77.1368 207.091C64.4226 231.897 63.8067 240.82 73.3929 261.289C79.6201 274.584 87.6407 284.355 109.876 305.73C134.514 329.415 140.073 337.394 143.012 353.284C143.973 358.478 143.849 359.32 141.38 364.364C139.91 367.366 138.926 370.041 139.193 370.308C140.471 371.586 146.814 362.12 148.353 356.637C152.529 341.764 151.381 330.604 144.296 317.179C141.849 312.543 140.156 308.749 140.534 308.749C140.913 308.749 143.012 310.661 145.201 312.996C150.545 318.701 151.004 316.574 146.48 307.055C141.881 297.375 135.768 288.816 127.188 280.044C116.185 268.795 102.543 259.59 110.794 268.982C114.486 273.184 115.462 276.662 113.645 279.141C112.38 280.869 112.061 280.894 109.352 279.474C106.139 277.79 100.473 272.081 97.044 267.073C91.6636 259.214 89.0383 243.787 91.9045 236.871C93.444 233.156 94.2078 233.063 96.3512 236.332C98.1217 239.034 114.988 252.819 121.267 256.698C123.442 258.041 125.44 258.67 125.941 258.169C126.44 257.668 124.662 253.654 121.791 248.8C116.483 239.829 112.607 231.796 113.268 231.136C113.485 230.92 117.027 231.871 121.14 233.25C132.335 237.005 146.119 239.137 154.661 238.432C158.648 238.104 161.909 238.063 161.909 238.342C161.909 238.622 160.752 240.597 159.339 242.733C157.924 244.868 155.738 249.671 154.479 253.406C153.22 257.141 151.653 260.376 150.994 260.596C149.211 261.19 142.436 253.604 141.34 249.785C140.318 246.226 137.916 244.511 137.916 247.341C137.916 250.509 144.965 270.128 148.022 275.468C152.396 283.108 159.82 290.817 170.272 298.573C186.16 310.361 189.134 311.564 181.569 303.143C174.172 294.908 168.962 286.685 166.887 279.974C164.239 271.405 164.271 261.737 166.965 256.172C169.338 251.277 176.05 244.803 178.755 244.803C181.948 244.803 184.404 252.05 184.388 261.423C184.38 265.925 184.747 269.378 185.204 269.096C185.661 268.814 187.296 266.841 188.84 264.711L191.646 260.841L192.321 270.057C193.988 292.819 198.343 319.367 200.852 322.041C201.762 323.013 204.243 314.3 206.341 302.754C207.79 294.781 210.895 265.559 210.895 259.893C210.895 257.608 211.272 257.88 214.267 262.324C220.037 270.887 220.398 270.806 220.395 260.956C220.392 250.965 222.601 244.803 226.188 244.803C229.484 244.803 237.307 253.652 238.835 259.109C242.265 271.352 237.6 285.827 225.591 300.206C221.942 304.574 219.138 308.329 219.358 308.55C220.07 309.261 237.29 296.991 243.64 291.248C254.54 281.389 262.826 265.998 266.36 249.049C267.405 244.038 265.429 245.158 262.435 251.274C259.807 256.641 255.484 261.157 253.581 260.523C253.051 260.346 251.499 257.093 250.131 253.293C248.763 249.493 246.574 244.688 245.265 242.616C243.956 240.543 242.885 238.726 242.885 238.578C242.885 238.429 248.171 238.28 254.632 238.246C266.629 238.183 273.243 236.969 285.156 232.645C288.335 231.491 291.178 230.789 291.473 231.083C292.117 231.727 289.403 237.245 282.621 249.076C275.533 261.444 276.276 261.604 291.258 250.924C295.594 247.831 301.831 242.717 305.118 239.557C308.404 236.398 311.212 233.812 311.358 233.812C311.503 233.812 312.184 235.168 312.871 236.825C314.918 241.765 313.713 254.26 310.517 261.239C307.201 268.477 301.937 275.042 296.636 278.548C292.718 281.14 292.621 281.152 291.214 279.231C289.331 276.659 290.26 273.239 294 268.982C300.482 261.603 293.573 265.277 282.378 275.162C273.402 283.086 264.492 294.58 259.272 304.969C253.638 316.179 253.793 319.071 259.688 312.746C261.994 310.274 263.888 308.7 263.899 309.249C263.911 309.799 261.869 314.295 259.362 319.241C255.415 327.027 254.724 329.33 254.2 336.41C253.236 349.452 256.533 362.141 262.399 367.965C263.929 369.485 265.386 370.525 265.635 370.276C265.883 370.027 264.835 367.265 263.303 364.138C260.707 358.832 260.595 358.098 261.633 353.152C265 337.113 270.634 329.014 294.072 306.534C316.261 285.253 324.293 275.695 330.418 263.287C340.811 242.229 340.113 229.037 327.441 207.079C324.925 202.719 322.371 197.733 321.766 196C319.98 190.876 318.001 192.01 318.115 198.092C318.235 204.524 314.709 212.003 309.333 216.721C304.319 221.121 302.585 220.539 301.436 214.076C300.923 211.192 300.053 208.833 299.503 208.833C298.953 208.833 294.334 211.353 289.241 214.433C276.807 221.952 268.675 224.82 259.785 224.82C251.11 224.82 247.467 223.117 245.883 218.323C244.838 215.155 244.985 214.333 247.312 210.365C248.739 207.931 250.359 205.66 250.911 205.319C252.58 204.288 250.939 202.839 248.075 202.816C241.298 202.761 230.585 194.98 226.948 187.472C223.151 179.631 224.663 154.022 229.471 144.728C231.896 140.041 242.361 129.363 248.883 124.921C255.666 120.301 265.75 115.241 285.873 106.363C308.985 96.1633 319.426 89.7867 331.879 78.2633C338.022 72.5791 339.258 70.1181 334.166 73.7091C330.684 76.1641 321.28 80.9401 319.928 80.9401C319.377 80.9401 319.18 80.2786 319.491 79.4693C320.049 78.0155 323.529 75.6026 349.854 58.4159C360.564 51.4248 365.949 47.0125 375.94 37.0468C382.864 30.1386 391.228 20.8903 394.526 16.494C407.393 -0.658619 409.065 -6.12604 397.047 8.25092C373.165 36.821 347.12 52.9465 288.512 75.4457C255.979 87.9352 241.606 96.2063 223.957 112.594L216.084 119.903L216.565 115.659C219.259 91.8629 227.527 71.8337 239.309 60.5521C243.801 56.2517 243.098 56.4866 234.793 62.0619C218.969 72.684 206.141 89.0003 202.532 103.096L201.215 108.237L200.012 103.458C196.773 90.603 186.215 75.8843 172.436 65.0164C161.701 56.5495 159.755 55.7692 165.65 62.2947C175.028 72.674 183.136 92.8101 185.363 111.253L186.068 117.087L177.737 109.884C159.393 94.0221 147.913 87.5885 116.282 75.4457C79.2342 61.2226 60.0878 51.9214 40.4446 38.6005C31.6742 32.6525 14.0013 16.0514 4.68108 5.00364C2.13083 1.98117 0.0244492 0.0248092 0.000456195 0.65728ZM106.925 87.2758C106.925 89.1402 119.63 95.8076 135.96 102.512C161.946 113.182 166.457 115.752 177.444 126.145L186.902 135.091V129.545V124.001L179.654 117.875C165.273 105.719 145.822 94.6946 130.418 89.9695C123.654 87.8943 106.925 85.9759 106.925 87.2758ZM280.374 88.4128C261.138 92.6433 239.055 105.045 219.642 122.522C216.125 125.688 215.893 126.258 215.893 131.717V137.537L226.14 127.445C237.997 115.769 241.428 113.766 268.835 102.512C284.629 96.0274 297.869 89.1472 297.869 87.4247C297.869 86.4625 286.262 87.1179 280.374 88.4128ZM174.905 207.834C172.379 210.359 172.392 212.138 174.976 217.473C177.496 222.675 182.555 226.074 187.126 225.634L190.401 225.319V217.826V210.332L185.94 208.084C180.435 205.309 177.497 205.243 174.905 207.834ZM217.822 208.583L212.394 211.331L212.1 218.021L211.805 224.713L215.342 225.375C220.107 226.268 223.035 225.397 226.373 222.092C233.551 214.986 232.854 205.836 225.135 205.836C224.099 205.836 220.807 207.073 217.822 208.583Z" fill="white"/>
<path fill-rule="evenodd" clip-rule="evenodd" d="M18 72.3526C18 74.1793 31.9868 93.8119 43.3407 107.921C53.7872 120.902 73.2896 140.697 85.5261 150.74C95.6977 159.088 98.966 160.581 93.2272 154.258C85.9833 146.275 84.6485 138.439 89.7985 134.125C94.7334 129.991 101.383 130.991 107.403 136.772C109.183 138.482 110.641 140.453 110.641 141.154C110.641 143.1 106.19 143.786 102.16 142.462C96.9677 140.756 96.5942 142.145 101.177 146.123C106.792 150.995 114.97 155.598 125.232 159.66C139.423 165.275 147.096 165.738 136.919 160.363C130.977 157.224 127.112 151.601 127.858 147.179C128.157 145.406 128.667 143.285 128.991 142.467C129.389 141.459 128.399 140.339 125.921 138.996C123.909 137.905 121.793 136.253 121.219 135.324C116.555 127.787 135.703 138.888 147.321 150.457C153.013 156.125 154.823 159.753 154.117 164.083C152.456 174.281 143.467 174.771 125.197 165.662C121.424 163.781 118.134 162.443 117.887 162.689C117.641 162.935 118.598 165.107 120.016 167.516C123.208 172.937 123.357 176.7 120.444 178.252C112.647 182.406 87.8461 170.107 65.4251 150.967C60.554 146.809 56.3463 143.629 56.0743 143.899C54.2634 145.702 85.4086 178.193 97.6909 187.312C111.156 197.308 128.804 206.021 138.643 207.53L143.015 208.199L138.25 203.978C128.226 195.099 127.848 187.332 137.281 184.057C142.527 182.237 149.124 186.947 150.135 193.233C150.468 195.31 151.083 197.01 151.5 197.01C152.632 197.01 163.596 188.733 166.168 185.937C168.557 183.341 170.497 174.201 168.659 174.201C168.095 174.201 167.369 174.889 167.044 175.731C166.58 176.935 166.026 177.033 164.447 176.192C161.153 174.437 161.828 169.844 165.926 166.132C172.928 159.788 170.339 154.526 153.694 141.263C131.316 123.433 122.129 117.959 97.6909 107.89C81.8643 101.37 70.6588 98.0851 61.0829 97.1619C54.4606 96.5232 52.1595 98.106 58.0945 99.2177C67.3237 100.945 94.7025 117.528 94.7025 121.391C94.7025 124.15 86.8002 121.944 74.2817 115.692C57.4281 107.274 45.4934 98.4937 30.7007 83.6292C23.7158 76.61 18 71.5355 18 72.3526ZM379.559 79.0555C365.827 94.2473 347.324 108.171 329.49 116.73C311.576 125.328 304.682 124.169 317.588 114.729C325.894 108.654 341.959 100.217 346.974 99.297C353.548 98.0901 351.306 96.5083 343.986 97.1877C326.934 98.7694 290.52 113.487 270.789 126.771C260.355 133.796 240.018 150.55 238.075 153.72C235.105 158.572 235.575 162.345 239.64 166.267C243.695 170.179 244.335 174.478 241.12 176.192C239.541 177.033 238.987 176.935 238.523 175.731C237.245 172.415 235.908 174.317 236.409 178.739C236.978 183.764 239.17 186.554 247.701 193.111C253.765 197.771 255.081 197.949 255.081 194.111C255.081 190.622 258.875 185.839 262.986 184.144C265.506 183.104 266.517 183.196 269.725 184.759C277.087 188.344 276.682 194.476 268.546 202.576C262.391 208.703 263.167 209.233 273.256 205.795C287.889 200.809 303.47 191.467 317.339 179.367C328.285 169.815 350.721 145.122 349.53 143.937C349.252 143.661 344.521 147.184 339.015 151.768C323.44 164.733 309.775 173.284 298.405 177.178C284.808 181.836 279.479 177.83 285.55 167.516C286.969 165.107 287.885 162.894 287.587 162.598C287.291 162.301 285.122 163.175 282.768 164.539C276.536 168.149 264.521 172.217 260.09 172.217C257.029 172.217 255.733 171.601 253.675 169.166C248.382 162.904 251.693 154.988 263.684 145.233C271.188 139.129 281.551 132.55 283.661 132.55C287.257 132.55 282.803 138.562 278.169 139.962C276.515 140.462 276.046 141.132 276.523 142.308C276.891 143.213 277.425 145.58 277.709 147.569C278.166 150.762 277.745 151.702 274.099 155.64C271.83 158.092 268.639 160.647 267.009 161.319C265.38 161.991 264.046 162.933 264.046 163.412C264.046 167.588 294.427 154.675 304.005 146.429C308.944 142.177 308.723 140.715 303.407 142.462C299.144 143.863 294.926 143.067 294.926 140.862C294.926 140 296.287 138.031 297.949 136.484C304.028 130.831 312.87 130.229 316.798 135.199C320.549 139.947 318.89 147.039 312.339 154.258C306.562 160.623 309.911 159.067 320.045 150.677C341.694 132.752 370.066 100.46 385.907 75.7145C389.838 69.5749 386.577 71.2915 379.559 79.0555Z" fill="#FF0000"/>
</mask>
<g mask="url(#mask0_444_3275)">
<path id="15-pattern"
class="color" fill-rule="evenodd" clip-rule="evenodd" d="M-117.895 -88.131C-97.8238 -83.616 -92.0377 -83.257 -80.1871 -85.792C-75.9575 -86.698 -70.9247 -87.771 -69.004 -88.177C-67.0833 -88.584 -78.0838 -88.917 -93.4496 -88.917C-109.291 -88.917 -119.876 -88.577 -117.895 -88.131ZM-51.0439 -88.132C-49.1232 -87.7 -44.4087 -86.635 -40.5673 -85.764C-31.5703 -83.726 -22.9545 -83.735 -13.3359 -85.792C-9.10628 -86.698 -4.07348 -87.771 -2.15276 -88.177C-0.232031 -88.584 -11.2325 -88.917 -26.5984 -88.917C-42.4261 -88.917 -53.0225 -88.577 -51.0439 -88.132ZM19.7984 -87.067C31.1152 -84.143 43.7082 -83.6 52.7251 -85.647C56.8409 -86.581 61.78 -87.699 63.7007 -88.131C65.7002 -88.581 55.468 -88.935 39.754 -88.958L12.315 -89L19.7984 -87.067ZM81.6607 -88.177C83.5814 -87.771 88.6142 -86.698 92.8438 -85.792C102.952 -83.63 110.939 -83.715 121.448 -86.098C126.181 -87.171 130.951 -88.244 132.049 -88.482C133.146 -88.72 121.472 -88.915 106.106 -88.916C90.7405 -88.917 79.74 -88.584 81.6607 -88.177ZM148.512 -88.177C150.433 -87.771 155.465 -86.698 159.695 -85.792C163.925 -84.887 169.893 -84.147 172.958 -84.147C176.022 -84.147 181.99 -84.887 186.22 -85.792C190.45 -86.698 195.482 -87.771 197.403 -88.177C199.324 -88.584 188.323 -88.917 172.958 -88.917C157.592 -88.917 146.591 -88.584 148.512 -88.177ZM215.363 -88.177C217.284 -87.771 222.317 -86.698 226.546 -85.792C230.776 -84.887 236.745 -84.147 239.809 -84.147C242.873 -84.147 248.842 -84.887 253.071 -85.792C257.301 -86.698 262.334 -87.771 264.254 -88.177C266.175 -88.584 255.175 -88.917 239.809 -88.917C224.443 -88.917 213.442 -88.584 215.363 -88.177ZM282.214 -88.131C302.286 -83.616 308.072 -83.257 319.922 -85.792C324.152 -86.698 329.185 -87.771 331.106 -88.177C333.026 -88.584 322.026 -88.917 306.66 -88.917C290.818 -88.917 280.234 -88.577 282.214 -88.131ZM349.066 -88.132C350.986 -87.7 355.701 -86.635 359.542 -85.764C368.539 -83.726 377.155 -83.735 386.774 -85.792C391.003 -86.698 396.036 -87.771 397.957 -88.177C399.877 -88.584 388.877 -88.917 373.511 -88.917C357.683 -88.917 347.087 -88.577 349.066 -88.132ZM419.908 -87.067C431.225 -84.143 443.818 -83.6 452.835 -85.647C456.95 -86.581 461.889 -87.699 463.81 -88.131C465.81 -88.581 455.578 -88.935 439.863 -88.958L412.425 -89L419.908 -87.067ZM-130.118 -80.564C-130.53 -80.151 -130.866 -76.289 -130.866 -71.98V-64.147H-123.432C-112.96 -64.147 -106.219 -65.762 -104.274 -68.738C-101.793 -72.533 -104.411 -75.599 -112.19 -78.007C-119.536 -80.281 -129.047 -81.638 -130.118 -80.564ZM-69.6136 -79.709C-72.9672 -78.95 -77.5969 -77.365 -79.9007 -76.187C-83.6544 -74.268 -84.0575 -73.714 -83.7811 -70.853C-83.2603 -65.474 -80.1621 -64.647 -60.5228 -64.647C-40.9983 -64.647 -37.7855 -65.489 -37.2736 -70.739C-36.9054 -74.512 -37.9401 -75.417 -45.5562 -77.98C-53.8258 -80.764 -62.272 -81.371 -69.6136 -79.709ZM-2.76239 -79.659C-6.11593 -78.927 -10.7456 -77.365 -13.0495 -76.187C-16.8031 -74.268 -17.2063 -73.714 -16.9299 -70.853C-16.442 -65.812 -13.1024 -64.772 3.83392 -64.386C24.4091 -63.918 31.0354 -65.982 29.4379 -72.363C28.6826 -75.377 22.3617 -78.406 13.3787 -80.058C6.19765 -81.379 4.99135 -81.349 -2.76239 -79.659ZM67.1929 -80.46C61.2352 -79.688 51.4769 -75.693 49.9882 -73.417C47.5546 -69.694 50.3225 -66.581 57.3688 -65.115C65.804 -63.36 89.1929 -64.241 93.3846 -66.473C96.6144 -68.191 97.5773 -71.101 95.8292 -73.858C94.55 -75.875 86.5269 -78.962 79.6592 -80.078C73.1147 -81.142 72.5889 -81.159 67.1929 -80.46ZM132.547 -80.161C124.713 -78.734 118.239 -75.796 116.642 -72.944C115.288 -70.526 115.319 -70.1 116.977 -68.263C118.008 -67.122 121.245 -65.734 124.417 -65.074C131.592 -63.581 155.902 -64.337 159.761 -66.173C163.386 -67.898 164.367 -71.702 161.839 -74.234C157.44 -78.644 141.698 -81.829 132.547 -80.161ZM198.506 -80.109C192.082 -78.78 185.763 -76.173 183.863 -74.07C181.4 -71.342 182.714 -67.617 186.671 -66.11C191.279 -64.355 214.728 -63.665 221.547 -65.084C232.907 -67.448 233.014 -73.767 221.762 -77.796C214.595 -80.362 204.554 -81.361 198.506 -80.109ZM263.755 -79.727C252.333 -77.128 248.246 -74.012 249.804 -69.09C250.826 -65.865 254.754 -64.916 269.254 -64.393C285.509 -63.806 293.458 -65.101 295.826 -68.724C297.275 -70.94 297.273 -71.357 295.803 -73.606C292.473 -78.7 274.407 -82.151 263.755 -79.727ZM330.496 -79.709C327.142 -78.95 322.513 -77.365 320.209 -76.187C316.455 -74.268 316.052 -73.714 316.328 -70.853C316.849 -65.474 319.947 -64.647 339.587 -64.647C359.111 -64.647 362.324 -65.489 362.836 -70.739C363.204 -74.512 362.169 -75.417 354.553 -77.98C346.284 -80.764 337.838 -81.371 330.496 -79.709ZM397.347 -79.659C393.994 -78.927 389.364 -77.365 387.06 -76.187C383.306 -74.268 382.903 -73.714 383.18 -70.853C383.668 -65.812 387.007 -64.772 403.943 -64.386C424.519 -63.918 431.145 -65.982 429.547 -72.363C428.792 -75.377 422.471 -78.406 413.488 -80.058C406.307 -81.379 405.101 -81.349 397.347 -79.659ZM467.302 -80.482C461.255 -79.654 451.577 -75.68 450.098 -73.417C448.778 -71.398 448.788 -70.881 450.189 -68.738C452.137 -65.759 458.877 -64.147 469.388 -64.147H476.862L476.572 -72.397L476.282 -80.647L473.289 -80.769C471.643 -80.836 468.949 -80.707 467.302 -80.482ZM-100.453 -54.753C-114.369 -48.676 -122.926 -11.357 -117 17.418C-113.684 33.524 -105.677 49.468 -99.6498 51.972C-95.3523 53.757 -89.8835 53.506 -86.6357 51.373C-80.9833 47.661 -73.7055 32.355 -70.4288 17.291C-67.8984 5.652 -68.081 -14.061 -70.8259 -25.364C-73.1388 -34.89 -77.098 -45.075 -80.1781 -49.42C-84.3029 -55.239 -93.687 -57.708 -100.453 -54.753ZM-34.857 -54.028C-47.5926 -47.71 -55.8912 -11.046 -50.6738 15.853C-47.9887 29.695 -39.8509 47.812 -34.854 51.071C-30.5575 53.874 -25.9199 54.054 -21.1185 51.607C-17.5156 49.77 -15.9969 48.058 -12.9148 42.353C-5.60907 28.834 -2.02404 13.934 -1.99311 -3.042C-1.96317 -19.681 -5.60308 -35.439 -12.0976 -46.787C-17.0656 -55.468 -26.1364 -58.354 -34.857 -54.028ZM31.6021 -54.12C26.9814 -51.673 24.5818 -48.29 20.894 -39.018C16.1705 -27.141 14.4902 -17.375 14.5511 -2.147C14.595 8.953 15.053 13.074 17.1263 21.035C19.6876 30.867 24.9719 42.732 29.39 48.572C35.1053 56.125 46.0071 54.787 51.7433 45.829C66.0345 23.508 68.8582 -11.611 58.5212 -38.483C53.7927 -50.776 47.7901 -56.205 39.0376 -56.103C36.9622 -56.078 33.6166 -55.186 31.6021 -54.12ZM99.1218 -54.482C94.553 -52.062 92.6293 -50.061 90.1498 -45.147C83.0736 -31.121 79.5833 -10.022 81.4711 7.31C83.3869 24.891 91.6874 45.878 98.8155 51.165C102.548 53.934 109.592 53.986 113.266 51.273C119.986 46.311 126.966 30.955 130.126 14.179C134.208 -7.48701 128.798 -38.387 118.848 -50.238C114.064 -55.937 105.392 -57.802 99.1218 -54.482ZM165.975 -54.572C164.33 -53.712 162.149 -52.252 161.127 -51.328C158.021 -48.517 153.441 -38.334 150.736 -28.225C148.514 -19.921 148.17 -16.585 148.147 -3.147C148.125 9.872 148.484 13.714 150.39 20.853C153.038 30.777 158.985 43.973 162.886 48.584C168.155 54.812 177.745 54.853 182.936 48.67C187.215 43.573 192.444 32.15 195.181 21.923C197.401 13.624 197.744 10.294 197.764 -3.147C197.79 -20.34 196.62 -26.964 191.292 -39.794C187.666 -48.522 184.316 -52.88 179.771 -54.783C175.456 -56.59 169.668 -56.501 165.975 -54.572ZM232.805 -54.753C227.905 -52.613 223.834 -46.979 220.484 -37.697C211.126 -11.779 212.554 16.629 224.399 40.166C229.946 51.187 235.674 54.974 243.517 52.803C256.353 49.252 267.643 13.146 264.45 -14.136C263.052 -26.076 258.2 -41.562 253.851 -47.964C248.784 -55.424 240.477 -58.104 232.805 -54.753ZM299.657 -54.753C285.741 -48.676 277.184 -11.357 283.109 17.418C286.426 33.524 294.432 49.468 300.46 51.972C304.735 53.749 310.222 53.508 313.425 51.405C319.179 47.627 326.392 32.51 329.674 17.353C332.211 5.639 332.031 -14.05 329.284 -25.364C326.971 -34.89 323.012 -45.075 319.931 -49.42C315.807 -55.239 306.422 -57.708 299.657 -54.753ZM365.001 -53.85C359.637 -51.007 355.363 -43.66 351.501 -30.647C349.372 -23.471 348.727 -18.85 348.32 -7.85001C347.736 7.92499 348.948 17.552 352.94 28.847C360.362 49.848 368.494 56.966 378.961 51.625C382.603 49.766 384.097 48.081 387.177 42.353C394.834 28.113 398.184 13.868 398.113 -4.147C398.049 -20.555 394.303 -36.069 387.666 -47.421C382.893 -55.581 373.368 -58.284 365.001 -53.85ZM431.712 -54.12C427.326 -51.798 424.969 -48.654 421.61 -40.645C411.334 -16.142 412.099 15.234 423.532 38.174C428.758 48.659 431.266 51.61 436.048 52.901C442.328 54.595 447.81 52.142 451.853 45.829C466.144 23.508 468.968 -11.611 458.631 -38.483C453.902 -50.776 447.9 -56.205 439.147 -56.103C437.072 -56.078 433.726 -55.186 431.712 -54.12ZM-129.699 37.743C-130.455 38.214 -130.884 39.814 -130.697 41.462C-130.379 44.252 -130.179 44.353 -124.988 44.353C-115.765 44.353 -115.277 38.857 -124.381 37.508C-126.576 37.182 -128.97 37.288 -129.699 37.743ZM-62.5184 37.321C-63.0672 37.517 -64.7794 37.958 -66.3229 38.3C-68.6707 38.821 -69.0788 39.367 -68.8174 41.638C-68.5111 44.3 -68.3544 44.359 -60.8292 44.644C-54.0433 44.901 -53.0315 44.706 -52.1006 42.963C-50.8923 40.7 -52.9697 37.863 -55.8542 37.839C-56.7762 37.832 -58.4275 37.632 -59.5251 37.395C-60.6226 37.158 -61.9696 37.125 -62.5184 37.321ZM1.42429 37.865C-2.18268 38.985 -3.30819 40.689 -2.02604 43.09C-1.17693 44.681 0.0174207 44.895 6.63469 44.644C14.122 44.36 14.3186 44.287 14.6179 41.689C14.8344 39.811 14.3924 38.867 13.1212 38.492C9.0084 37.278 4.15421 37.018 1.42429 37.865ZM67.8944 37.953C64.1517 39.07 62.9055 41.187 64.7094 43.366C65.9726 44.892 76.7925 45.511 80.0822 44.246C82.2344 43.418 82.1097 39.12 79.9146 38.474C75.7569 37.25 70.9496 37.041 67.8944 37.953ZM135.149 37.7C131.362 38.556 129.701 41.121 131.514 43.31C133.455 45.655 146.329 45.114 147.891 42.622C150.099 39.1 142.292 36.085 135.149 37.7ZM202 37.7C198.213 38.556 196.552 41.121 198.365 43.31C200.307 45.655 213.18 45.114 214.743 42.622C216.951 39.1 209.143 36.085 202 37.7ZM270.74 37.36C270.191 37.535 268.479 37.958 266.935 38.3C264.588 38.821 264.18 39.367 264.441 41.638C264.751 44.336 264.804 44.353 272.627 44.353C279.007 44.353 280.707 44.025 281.59 42.622C282.418 41.306 282.324 40.556 281.2 39.495C279.767 38.143 272.766 36.715 270.74 37.36ZM337.591 37.321C337.042 37.517 335.33 37.958 333.787 38.3C331.439 38.821 331.031 39.367 331.292 41.638C331.598 44.3 331.755 44.359 339.28 44.644C346.066 44.901 347.078 44.706 348.009 42.963C349.217 40.7 347.14 37.863 344.255 37.839C343.333 37.832 341.682 37.632 340.584 37.395C339.487 37.158 338.14 37.125 337.591 37.321ZM401.534 37.865C397.927 38.985 396.801 40.689 398.083 43.09C398.933 44.681 400.127 44.895 406.744 44.644C414.232 44.36 414.428 44.287 414.727 41.689C414.944 39.811 414.502 38.867 413.231 38.492C409.118 37.278 404.264 37.018 401.534 37.865ZM468.004 37.984C460.834 40.056 463.217 44.853 471.415 44.853H476.781V41.46C476.781 36.86 474.719 36.044 468.004 37.984ZM-130.118 53.411C-130.53 53.837 -130.866 58.625 -130.866 64.051C-130.866 71.736 -130.547 74.038 -129.423 74.471C-127.176 75.335 -115.211 73.171 -111.124 71.161C-109.102 70.167 -106.781 68.146 -105.969 66.67C-104.649 64.276 -104.667 63.617 -106.131 60.539C-107.408 57.856 -108.84 56.721 -112.584 55.428C-118.114 53.518 -129.01 52.264 -130.118 53.411ZM-71.9724 54.391C-79.1105 56.398 -81.9751 59.113 -81.9751 63.872C-81.9751 69.687 -78.3043 72.009 -66.1154 73.905C-60.7673 74.736 -57.8698 74.638 -52.0796 73.428C-40.3787 70.983 -36.6679 67.159 -39.4707 60.435C-40.5613 57.82 -41.8873 56.749 -45.7008 55.405C-52.5755 52.981 -65.2204 52.493 -71.9724 54.391ZM-1.65387 53.467C-10.8933 55.848 -13.3578 57.16 -14.7168 60.418C-17.5864 67.302 -13.717 71.112 -1.38646 73.547C5.80953 74.968 7.20841 74.963 14.3924 73.495C24.3363 71.462 27.183 69.46 27.5781 64.221C27.9203 59.682 25.6035 56.918 19.7984 54.94C15.9769 53.638 1.53204 52.646 -1.65387 53.467ZM61.7181 54.394C54.4263 56.444 52.0376 58.159 51.2095 61.939C50.2197 66.454 53.0973 69.905 59.7914 72.232C70.4986 75.953 89.4504 73.822 93.1851 68.478C95.5458 65.1 95.016 60.301 92.0217 57.941C86.4151 53.52 71.1731 51.737 61.7181 54.394ZM128.569 54.394C121.62 56.348 118.773 58.227 117.983 61.385C116.096 68.918 124.522 74.03 139.033 74.156C148.275 74.237 157.813 71.658 160.036 68.478C163.622 63.347 160.315 57.063 152.88 54.883C146.243 52.937 134.588 52.703 128.569 54.394ZM195.723 54.28C186.451 56.533 182.925 60.653 185.06 66.743C188.526 76.633 223.275 76.68 227.358 66.8C228.878 63.122 227.949 59.301 225.076 57.417C218.881 53.355 205.44 51.919 195.723 54.28ZM261.824 54.322C254.998 56.288 251.851 58.856 251.464 62.773C250.976 67.725 253.471 70.559 260.02 72.492C271.916 76.001 288.741 73.794 293.177 68.142C295.572 65.091 295.664 63.682 293.717 59.907C292.707 57.95 290.758 56.535 287.481 55.378C280.944 53.073 268.008 52.54 261.824 54.322ZM328.778 54.222C321.666 56.233 318.695 58.811 318.318 63.3C317.908 68.175 320.033 70.5 326.542 72.298C335.387 74.741 340.479 75.006 348.071 73.419C359.729 70.983 363.439 67.151 360.639 60.435C359.548 57.82 358.222 56.749 354.409 55.405C347.861 53.097 334.879 52.498 328.778 54.222ZM396.593 53.896C386.943 56.333 382.848 60.72 384.98 66.338C386.341 69.926 389.937 71.812 398.723 73.547C405.919 74.968 407.318 74.963 414.502 73.495C424.446 71.462 427.292 69.46 427.688 64.221C428.03 59.682 425.713 56.918 419.908 54.94C415.156 53.321 401.322 52.701 396.593 53.896ZM461.828 54.459C454.579 56.411 452.152 58.138 451.319 61.939C449.905 68.392 456.788 72.844 470.6 74.41L476.781 75.111V63.982V52.853L472.042 52.919C469.436 52.955 464.839 53.648 461.828 54.459ZM-99.54 75.282C-103.297 76.922 -105.852 80.388 -110.408 90.024C-119.863 110.025 -121.645 139.03 -114.717 160.178C-111.902 168.775 -107.102 178.308 -103.471 182.518C-100.847 185.56 -99.5969 186.179 -95.2316 186.6C-87.0309 187.389 -83.9866 184.893 -78.0359 172.502C-66.278 148.017 -65.1855 120.31 -74.9827 95.11C-82.0809 76.855 -89.4694 70.889 -99.54 75.282ZM-33.7973 75.82C-40.6321 79.997 -47.884 95.935 -51.041 113.716C-52.6773 122.934 -52.4169 141.116 -50.5171 150.336C-47.43 165.312 -39.5815 181.938 -34.0528 185.211C-30.4957 187.317 -23.6988 187.317 -20.1427 185.212C-14.5581 181.906 -6.77547 165.436 -3.66838 150.353C-1.50919 139.867 -1.50321 120.857 -3.65641 110.445C-5.67791 100.67 -10.0632 89.433 -14.6759 82.206C-19.8364 74.12 -27.0643 71.706 -33.7973 75.82ZM33.1577 75.699C21.2172 83.221 11.9149 116.315 14.7846 141.057C17.282 162.583 27.2279 184.421 35.4805 186.497C39.8288 187.591 45.8215 186.149 48.7949 183.295C51.7902 180.418 57.5214 169.459 60.0678 161.739C65.7431 144.529 66.245 120.086 61.2651 103.353C58.0852 92.666 51.2823 79.344 47.6005 76.596C43.7301 73.707 36.9851 73.288 33.1577 75.699ZM100.009 75.758C96.0437 78.181 93.3697 81.981 89.0782 91.29C83.4128 103.578 81.3175 114.133 81.3235 130.353C81.3304 150.005 84.656 163.218 93.3307 178.052C97.1103 184.516 100.584 186.853 106.408 186.853C112.849 186.853 116.44 183.591 121.843 172.834C129.213 158.158 130.868 150.537 130.961 130.853C131.027 116.709 130.719 113.179 128.801 106.134C126.175 96.488 122.687 88.271 118.338 81.477C113.623 74.112 106.393 71.856 100.009 75.758ZM166.681 75.521C160.007 78.817 150.882 99.316 148.582 116.175C145.603 138.003 150.093 162.16 160.113 178.214C164.09 184.587 167.54 186.853 173.259 186.853C179.609 186.853 183.261 183.565 188.578 173.059C195.561 159.264 197.821 148.814 197.816 130.353C197.81 110.473 194.627 97.864 185.806 82.779C180.908 74.402 174.143 71.835 166.681 75.521ZM233.464 75.497C227.116 78.738 219.87 93.694 216.324 110.878C213.596 124.098 214.006 142.802 217.3 155.353C219.8 164.878 227.123 180.39 230.704 183.747C234.04 186.873 241.693 187.738 246.047 185.481C251.82 182.489 259.098 167.737 262.881 151.353C265.58 139.672 265.362 119.378 262.409 107.353C259.802 96.738 252.698 81.537 248.452 77.489C244.645 73.859 238.32 73.019 233.464 75.497ZM300.57 75.282C298.866 76.025 296.504 77.997 295.32 79.664C291.616 84.877 286.325 97.019 284.126 105.353C281.436 115.546 280.465 135.888 282.165 146.449C284.315 159.803 290.642 175.565 296.646 182.527C299.261 185.559 300.515 186.179 304.878 186.6C313.089 187.39 316.129 184.893 322.044 172.502C327.658 160.741 329.599 154.018 331.168 140.9C332.96 125.93 330.828 109.775 325.127 95.11C318.029 76.855 310.64 70.889 300.57 75.282ZM366.268 75.848C361.012 79.059 354.628 91.144 350.826 105.077C348.88 112.206 348.567 115.778 348.567 130.853C348.567 150.961 350.018 157.991 357.187 172.583C362.355 183.105 366.415 186.853 372.644 186.853C378.684 186.853 382.077 184.665 385.939 178.281C393.932 165.061 398.124 148.572 398.124 130.353C398.124 111.754 393.785 95.29 385.434 82.206C380.259 74.099 373.046 71.706 366.268 75.848ZM433.267 75.699C429.362 78.159 426.583 82.054 422.855 90.294C411.025 116.445 411.712 149.308 424.608 174.077C430.331 185.065 433.932 187.645 442.031 186.557C447.351 185.842 450.876 182.338 455.205 173.464C462.861 157.772 465.316 145.216 464.554 125.638C464.148 115.232 463.458 110.403 461.367 103.353C458.2 92.678 451.397 79.348 447.71 76.596C443.84 73.707 437.095 73.288 433.267 75.699ZM-130.684 86.051C-130.382 89.199 -130.159 89.367 -125.877 89.647C-120.279 90.014 -116.823 87.913 -118.498 85.162C-119.31 83.827 -121.091 83.274 -125.3 83.051L-131 82.749L-130.684 86.051ZM-68.3385 83.52C-69.6655 84.849 -68.9591 87.806 -67.0743 88.818C-63.7996 90.574 -55.532 90.077 -52.9327 87.968C-50.9412 86.351 -50.8005 85.852 -51.9469 84.468C-52.9517 83.255 -55.074 82.853 -60.4789 82.853C-64.4361 82.853 -67.9733 83.153 -68.3385 83.52ZM-2.21562 84.428C-4.45065 87.128 -0.198108 89.853 6.24854 89.853C12.0856 89.853 15.2056 88.159 14.6578 85.287C14.3376 83.61 13.2849 83.315 6.72149 83.064C0.65599 82.832 -1.11706 83.103 -2.21562 84.428ZM64.9359 84.015C61.6473 87.311 65.3989 89.853 73.5527 89.853C78.9727 89.853 82.0439 88.091 81.5091 85.287C81.1898 83.612 80.1381 83.314 73.6555 83.065C68.6906 82.874 65.7551 83.194 64.9359 84.015ZM131.254 83.483C129.894 84.845 130.574 87.794 132.482 88.818C135.222 90.288 144.798 90.102 146.933 88.537C147.921 87.813 148.563 86.351 148.36 85.287C148.037 83.596 146.983 83.317 139.974 83.066C135.564 82.908 131.64 83.095 131.254 83.483ZM198.069 83.52C196.742 84.849 197.448 87.806 199.333 88.818C202.082 90.292 211.652 90.1 213.798 88.527C215.063 87.6 215.4 86.546 214.919 85.027C214.291 83.041 213.561 82.853 206.482 82.853C202.22 82.853 198.434 83.153 198.069 83.52ZM264.958 83.481C263.598 84.845 264.275 87.794 266.184 88.818C269.05 90.355 278.52 90.091 280.777 88.412C282.325 87.259 282.493 86.608 281.611 85.162C280.736 83.727 278.974 83.293 273.085 83.065C269.002 82.906 265.345 83.094 264.958 83.481ZM331.771 83.52C330.444 84.849 331.15 87.806 333.035 88.818C336.31 90.574 344.578 90.077 347.177 87.968C349.168 86.351 349.309 85.852 348.163 84.468C347.158 83.255 345.036 82.853 339.631 82.853C335.673 82.853 332.136 83.153 331.771 83.52ZM397.894 84.428C395.659 87.128 399.911 89.853 406.358 89.853C412.195 89.853 415.315 88.159 414.767 85.287C414.447 83.61 413.394 83.315 406.831 83.064C400.765 82.832 398.992 83.103 397.894 84.428ZM465.008 84.053C461.893 87.174 465.519 89.853 472.855 89.853C476.677 89.853 476.781 89.76 476.781 86.353V82.853H471.493C468.585 82.853 465.666 83.393 465.008 84.053ZM-130.477 172.28C-130.778 173.065 -130.876 174.753 -130.696 176.03C-130.415 178.014 -129.712 178.396 -125.877 178.647C-120.729 178.984 -117.214 177.076 -118.206 174.483C-119.465 171.197 -129.382 169.417 -130.477 172.28ZM-66.759 171.884C-69.1965 172.866 -69.7174 175.738 -67.8066 177.653C-65.9528 179.511 -54.5252 179.199 -52.5676 177.237C-51.6805 176.348 -51.1228 175.111 -51.3273 174.487C-52.35 171.377 -61.6184 169.813 -66.759 171.884ZM-0.0783782 172.118C-6.01517 175.154 -2.56683 178.853 6.19966 178.853C12.6453 178.853 14.8095 177.791 14.8095 174.628C14.8095 171.186 4.98435 169.529 -0.0783782 172.118ZM66.7728 172.118C60.8091 175.168 64.2864 178.853 73.1287 178.853C79.7649 178.853 82.1307 177.535 81.4881 174.195C80.9024 171.145 71.3197 169.792 66.7728 172.118ZM133.773 171.892C130.613 173.164 129.806 175.833 132.077 177.498C134.646 179.38 145.894 179.31 147.474 177.401C149.267 175.235 148.33 172.532 145.514 171.747C141.965 170.757 136.422 170.826 133.773 171.892ZM199.648 172.073C197.193 173.26 196.722 175.77 198.6 177.653C200.252 179.308 211.525 179.193 213.838 177.498C219.47 173.37 206.904 168.566 199.648 172.073ZM266.499 171.884C264.062 172.866 263.541 175.738 265.452 177.653C267.103 179.308 278.376 179.193 280.689 177.498C286.22 173.444 274.316 168.735 266.499 171.884ZM333.351 171.884C330.913 172.866 330.392 175.738 332.303 177.653C334.157 179.511 345.584 179.199 347.542 177.237C348.429 176.348 348.987 175.111 348.782 174.487C347.759 171.377 338.491 169.813 333.351 171.884ZM400.031 172.118C394.094 175.154 397.543 178.853 406.309 178.853C412.755 178.853 414.919 177.791 414.919 174.628C414.919 171.186 405.094 169.529 400.031 172.118ZM466.882 172.118C461.434 174.904 464.355 178.853 471.863 178.853H476.781V174.853C476.781 170.895 476.742 170.853 473.04 170.868C470.982 170.876 468.211 171.438 466.882 172.118ZM-130.866 197.353V207.853H-125.694C-119.323 207.853 -109.541 205.203 -107.478 202.919C-104.822 199.978 -104.533 195.621 -106.802 192.73C-109.242 189.62 -118.137 186.853 -125.694 186.853H-130.866V197.353ZM-73.944 188.8C-76.9353 189.835 -79.9656 191.481 -80.679 192.458C-82.2086 194.556 -82.3732 199.239 -81.0063 201.798C-78.3651 206.746 -59.2966 209.527 -48.8628 206.487C-45.8026 205.596 -42.3064 204.06 -41.0921 203.075C-38.2943 200.805 -37.9271 194.777 -40.4186 192.018C-44.8487 187.112 -63.8055 185.292 -73.944 188.8ZM-6.98401 188.699C-9.91548 189.749 -12.8899 191.225 -13.5943 191.98C-15.9121 194.463 -16.1576 198.265 -14.2069 201.48C-9.53533 209.179 18.5502 210.104 25.8399 202.798C27.9223 200.711 28.3973 195.876 26.8118 192.908C24.015 187.67 3.14645 185.071 -6.98401 188.699ZM60.2085 188.436C53.7478 190.47 51.3282 192.879 51.3282 197.281C51.3282 201.982 53.7329 204.312 60.5707 206.235C71.5422 209.32 87.9337 207.566 92.6912 202.798C94.7735 200.711 95.2485 195.876 93.663 192.908C91.0029 187.925 70.5275 185.189 60.2085 188.436ZM127.06 188.474C114.333 192.255 114.494 202.599 127.335 206.21C138.336 209.304 153.896 207.535 159.238 202.585C164.4 197.802 160.561 190.726 151.505 188.329C144.559 186.491 133.517 186.556 127.06 188.474ZM193.911 188.51C187.715 190.395 184.432 193.326 184.432 196.972C184.432 201.209 188.16 204.723 194.41 206.377C205.896 209.417 222.355 207.203 226.379 202.075C230.72 196.544 227.546 191.017 218.58 188.496C211.403 186.478 200.571 186.484 193.911 188.51ZM259.479 188.744C253.457 190.829 251.347 193.063 251.347 197.353C251.347 203.613 257.156 206.808 270.014 207.618C279.218 208.198 289.85 205.999 292.607 202.946C295.285 199.98 295.584 195.63 293.308 192.73C288.993 187.234 270.229 185.023 259.479 188.744ZM326.166 188.8C323.174 189.835 320.144 191.481 319.431 192.458C317.901 194.556 317.736 199.239 319.103 201.798C321.744 206.746 340.813 209.527 351.247 206.487C354.307 205.596 357.803 204.06 359.017 203.075C361.815 200.805 362.182 194.777 359.691 192.018C355.261 187.112 336.304 185.292 326.166 188.8ZM393.126 188.699C390.194 189.749 387.22 191.225 386.515 191.98C384.197 194.463 383.952 198.265 385.903 201.48C390.574 209.179 418.66 210.104 425.949 202.798C428.032 200.711 428.507 195.876 426.921 192.908C424.124 187.67 403.256 185.071 393.126 188.699ZM460.318 188.499C457.574 189.328 454.454 190.862 453.383 191.907C450.929 194.305 450.821 200.071 453.182 202.685C455.429 205.173 464.984 207.853 471.609 207.853H476.781V197.353V186.853L471.044 186.923C467.888 186.961 463.062 187.67 460.318 188.499ZM-98.9374 208.562C-104.935 210.773 -112.251 224.236 -116.483 240.853C-118.014 246.859 -118.382 251.739 -118.335 265.353C-118.28 280.954 -118.05 283.09 -115.537 291.304C-112.284 301.939 -105.659 315.128 -102.204 317.852C-99.3095 320.134 -93.9774 321.328 -90.54 320.463C-81.1699 318.106 -71.4216 297.012 -68.8793 273.591C-67.203 258.145 -69.91 239.94 -75.9176 226.255C-79.4647 218.175 -84.0485 211.238 -86.9939 209.494C-89.672 207.909 -95.8552 207.427 -98.9374 208.562ZM-35.3479 210.784C-41.2527 215.981 -47.5238 229.848 -50.5012 244.296C-52.6154 254.552 -52.6184 274.139 -50.5081 284.38C-48.5176 294.036 -44.1184 305.294 -39.5186 312.5C-32.4733 323.539 -21.4209 323.642 -14.5502 312.734C-0.651101 290.667 2.0479 255.41 -8.14442 229.034C-11.8621 219.413 -16.7024 211.531 -20.1427 209.494C-21.6673 208.592 -24.963 207.853 -27.4654 207.853C-31.0754 207.853 -32.7058 208.459 -35.3479 210.784ZM31.9773 209.936C29.5637 211.529 27.4005 214.792 23.8294 222.229C12.0846 246.688 10.995 274.406 20.7882 299.596C26.9325 315.399 32.564 321.34 40.6161 320.518C43.0117 320.273 46.1547 319.204 47.6005 318.143C51.1945 315.506 59.2985 299.104 61.8268 289.353C64.4819 279.11 65.4328 258.712 63.7436 248.22C61.5215 234.414 55.5019 219.405 49.3037 212.22C46.5109 208.982 45.5002 208.505 40.7019 208.159C36.3605 207.846 34.6014 208.204 31.9773 209.936ZM99.4491 209.327C93.9993 212.41 86.6726 227.597 83.0337 243.353C80.3347 255.034 80.5532 275.328 83.5056 287.353C86.1467 298.105 93.232 313.183 97.6042 317.353C100.297 319.921 101.52 320.353 106.098 320.353C113.447 320.353 116.096 318.101 121.687 307.102C128.898 292.914 131.066 282.703 130.978 263.353C130.917 250.233 130.515 245.913 128.742 239.353C126.165 229.812 118.766 214.318 115.174 210.936C111.946 207.896 103.504 207.032 99.4491 209.327ZM165.81 209.789C161.746 212.273 156.048 222.475 152.434 233.738C143.97 260.118 146.826 289.212 160.109 311.927C167.403 324.4 178.726 323.99 186.409 310.974C201.992 284.574 202.18 245.624 186.859 218.166C182.744 210.791 178.791 207.86 172.958 207.86C170.762 207.86 167.546 208.728 165.81 209.789ZM232.224 210.122C227.938 212.991 220.206 228.005 217.172 239.353C213.95 251.397 213.95 276.918 217.17 288.853C219.907 298.998 226.129 312.346 230.112 316.62C233.153 319.881 238.523 321.519 242.718 320.463C249.795 318.683 258.124 304.664 262.423 287.293C265.21 276.037 265.499 254.353 263.01 243.218C259.755 228.649 251.568 212.086 246.261 209.336C242.037 207.146 236.18 207.474 232.224 210.122ZM300.591 208.822C295.491 210.89 289.306 221.917 284.589 237.354C282.022 245.754 281.838 247.55 281.838 264.353C281.838 281.142 282.024 282.958 284.583 291.353C287.871 302.135 294.675 315.392 298.315 318.11C299.76 319.189 302.903 320.288 305.299 320.551C311.012 321.179 315.495 318.197 319.895 310.841C331.668 291.153 334.956 261.625 328.095 237.183C325.198 226.861 317.407 211.99 313.715 209.733C310.53 207.787 304.225 207.349 300.591 208.822ZM364.528 210.99C360.343 214.672 354.136 226.999 351 237.853C347.675 249.367 347.168 273.058 349.975 285.853C352.393 296.884 360.954 315.088 365.166 318.157C369.124 321.041 375.806 321.402 379.712 318.944C385.805 315.11 392.922 300.536 396.117 285.355C398.574 273.68 398.726 255.287 396.455 244.353C393.312 229.222 385.542 212.795 379.967 209.494C378.442 208.592 375.147 207.853 372.644 207.853C368.966 207.853 367.409 208.455 364.528 210.99ZM432.879 209.488C429.391 211.968 428.301 213.448 424.512 220.853C417.479 234.597 414.544 247.667 414.63 264.853C414.699 278.883 416.304 287.781 420.898 299.596C427.042 315.399 432.673 321.34 440.726 320.518C446.831 319.894 449.714 317.33 454.519 308.25C461.036 295.932 463.888 284.798 464.54 269.126C465.355 249.503 462.856 236.811 455.091 221.136C450.2 211.263 447.273 208.627 440.634 208.118C436.715 207.817 434.737 208.167 432.879 209.488ZM-130.477 217.28C-130.778 218.065 -130.876 219.753 -130.696 221.03C-130.432 222.893 -129.676 223.405 -126.875 223.613C-123.228 223.885 -118.818 222.164 -118.179 220.219C-116.997 216.624 -129.117 213.728 -130.477 217.28ZM-67.8066 217.053C-69.8172 219.068 -69.1696 221.84 -66.4447 222.878C-61.1405 224.899 -52.358 223.354 -51.3273 220.219C-51.1228 219.595 -51.6805 218.358 -52.5676 217.469C-54.5252 215.507 -65.9528 215.195 -67.8066 217.053ZM-1.62693 217.469C-2.51396 218.358 -3.07171 219.595 -2.86717 220.219C-1.83646 223.354 6.94599 224.899 12.2502 222.878C14.9751 221.84 15.6227 219.068 13.6122 217.053C11.7583 215.195 0.330709 215.507 -1.62693 217.469ZM65.2263 217.208C59.7205 221.243 71.1431 225.91 79.1014 222.878C81.8263 221.84 82.4739 219.068 80.4634 217.053C78.8121 215.398 67.5391 215.513 65.2263 217.208ZM132.077 217.208C128.262 220.004 132.88 223.853 140.049 223.853C146.745 223.853 150.547 220.293 147.315 217.053C145.663 215.398 134.39 215.513 132.077 217.208ZM198.982 217.169C197.994 217.893 197.35 219.355 197.552 220.419C198.424 225.029 215.363 224.486 215.363 219.848C215.363 218.789 214.495 217.458 213.433 216.888C210.693 215.418 201.117 215.604 198.982 217.169ZM265.292 217.305C264.631 218.104 264.241 219.546 264.427 220.511C265.273 224.917 280.469 224.663 281.931 220.219C282.136 219.595 281.578 218.358 280.691 217.469C278.541 215.314 267.042 215.192 265.292 217.305ZM332.303 217.053C330.292 219.068 330.94 221.84 333.665 222.878C338.969 224.899 347.752 223.354 348.782 220.219C348.987 219.595 348.429 218.358 347.542 217.469C345.584 215.507 334.157 215.195 332.303 217.053ZM398.483 217.469C396.468 219.488 396.925 221 400.031 222.588C407.094 226.2 418.833 221.919 414.306 217.382C412.134 215.205 400.679 215.268 398.483 217.469ZM465.336 217.208C461.508 220.013 466.141 223.853 473.354 223.853C476.688 223.853 476.781 223.743 476.781 219.853V215.853H471.983C469.344 215.853 466.353 216.463 465.336 217.208ZM-130.118 305.423C-130.53 305.843 -130.866 307.484 -130.866 309.07C-130.866 311.942 -130.845 311.952 -125.233 311.653C-119.188 311.331 -116.221 309.131 -118.608 306.739C-119.987 305.357 -129.038 304.322 -130.118 305.423ZM-67.4255 306.169C-68.4133 306.893 -69.0549 308.355 -68.8523 309.419C-68.532 311.096 -67.4794 311.391 -60.916 311.642C-55.3364 311.856 -53.0415 311.561 -52.1794 310.519C-50.6169 308.633 -51.6706 306.187 -54.3556 305.465C-58.2339 304.423 -65.5826 304.819 -67.4255 306.169ZM-1.26173 306.738C-3.2533 308.355 -3.394 308.854 -2.24755 310.238C-1.23879 311.456 0.889479 311.853 6.41518 311.853C12.6463 311.853 13.8965 311.563 14.7776 309.912C15.6147 308.345 15.3862 307.671 13.5932 306.412C10.3863 304.161 1.67872 304.352 -1.26173 306.738ZM65.1385 306.294C63.5879 307.449 63.4223 308.096 64.3083 309.544C65.2243 311.042 66.7649 311.353 73.2744 311.353C80.2518 311.353 81.1758 311.136 81.5061 309.419C81.7106 308.355 81.07 306.893 80.0822 306.169C77.6496 304.387 67.589 304.471 65.1385 306.294ZM132.117 306.179C130.838 307.116 130.513 308.155 131.008 309.718C131.666 311.798 132.201 311.914 139.85 311.642C146.981 311.389 148.037 311.113 148.36 309.419C148.563 308.355 147.921 306.893 146.933 306.169C144.603 304.461 134.452 304.468 132.117 306.179ZM198.982 306.169C197.994 306.893 197.353 308.355 197.558 309.419C197.89 311.149 198.819 311.353 206.383 311.353C213.947 311.353 214.876 311.149 215.208 309.419C215.771 306.49 212.607 304.853 206.383 304.853C203.3 304.853 199.969 305.445 198.982 306.169ZM265.892 306.091C264.866 306.862 264.203 308.349 264.409 309.419C264.739 311.136 265.663 311.353 272.641 311.353C278.994 311.353 280.708 311.023 281.585 309.631C283.303 306.9 280.954 305.492 273.98 305.072C269.7 304.815 267.165 305.134 265.892 306.091ZM332.684 306.169C331.696 306.893 331.055 308.355 331.257 309.419C331.578 311.096 332.63 311.391 339.194 311.642C344.773 311.856 347.068 311.561 347.93 310.519C349.493 308.633 348.439 306.187 345.754 305.465C341.876 304.423 334.527 304.819 332.684 306.169ZM398.848 306.738C396.856 308.355 396.716 308.854 397.862 310.238C398.871 311.456 400.999 311.853 406.525 311.853C412.756 311.853 414.006 311.563 414.887 309.912C415.724 308.345 415.496 307.671 413.703 306.412C410.496 304.161 401.788 304.352 398.848 306.738ZM465.248 306.294C463.7 307.446 463.533 308.099 464.413 309.544C465.222 310.875 467.003 311.432 471.148 311.653L476.781 311.953V308.403V304.853H471.983C469.344 304.853 466.314 305.502 465.248 306.294ZM-130.395 321.064C-130.698 321.856 -130.815 326.744 -130.657 331.928L-130.367 341.353L-126.634 341.663C-122.36 342.018 -111.489 339.463 -108.268 337.347C-105.043 335.229 -104.261 330.229 -106.646 326.983C-109.947 322.492 -129.113 317.716 -130.395 321.064ZM-69.9958 321.419C-78.4669 323.26 -81.3844 325.46 -81.7925 330.316C-82.4131 337.693 -75.1722 341.361 -60.024 341.343C-48.4737 341.33 -41.4014 338.902 -39.4777 334.288C-36.7039 327.635 -40.3647 323.744 -51.6516 321.348C-59.9092 319.594 -61.6244 319.601 -69.9958 321.419ZM-3.01683 321.359C-13.8178 323.766 -17.4377 327.76 -14.7238 334.271C-13.6312 336.891 -12.3151 337.951 -8.49365 339.285C2.67849 343.187 19.988 341.842 25.5107 336.642C28.4192 333.903 28.6158 327.921 25.8799 325.439C21.2621 321.251 6.69555 319.194 -3.01683 321.359ZM65.4488 320.846C58.9293 322.003 53.5353 324.838 51.7742 328.036C50.4542 330.43 50.4721 331.089 51.9369 334.167C53.213 336.85 54.6458 337.985 58.3895 339.278C69.1476 342.994 83.9366 342.15 90.97 337.417C94.6987 334.908 95.6665 330.084 93.198 326.308C90.4581 322.117 75.2061 319.115 65.4488 320.846ZM132.547 320.831C121.438 322.835 116.431 327.128 117.983 333.321C120.287 342.522 150.714 344.737 159.116 336.316C161.943 333.483 162.217 328.932 159.737 326.035C156.262 321.975 141.676 319.183 132.547 320.831ZM198.617 320.933C191.203 322.218 185.61 325.283 184.803 328.506C183.151 335.103 187.681 339.046 199.182 341.023C211.41 343.124 225.766 339.441 227.741 333.697C229.339 329.048 226.918 325.213 220.993 323.002C214.529 320.592 205.437 319.751 198.617 320.933ZM264.254 321.181C256.501 322.964 252.975 324.934 251.862 328.105C249.55 334.694 254.276 339.002 266.033 341.023C274.247 342.434 283.524 341.336 289.906 338.197C294.906 335.738 296.434 331.022 293.516 327.054C289.698 321.861 274.534 318.818 264.254 321.181ZM330.114 321.419C321.643 323.26 318.725 325.46 318.317 330.316C317.847 335.903 320.698 338.398 329.887 340.447C338.353 342.335 346.689 341.934 354.409 339.267C358.239 337.944 359.543 336.898 360.639 334.271C363.405 327.636 359.735 323.742 348.458 321.348C340.2 319.594 338.485 319.601 330.114 321.419ZM397.093 321.359C386.665 323.683 382.935 327.53 385.094 333.735C387.438 340.473 403.948 343.826 417.441 340.304C424.987 338.334 427.89 335.702 427.89 330.834C427.89 326.408 425.781 324.224 419.753 322.409C412.491 320.222 403.964 319.827 397.093 321.359ZM465.558 320.865C459.061 321.992 453.651 324.829 451.884 328.036C450.564 330.43 450.582 331.089 452.046 334.167C454.02 338.315 459.702 340.642 470.081 341.554L476.852 342.149L476.567 331.251L476.282 320.353L473.289 320.198C471.643 320.113 468.164 320.414 465.558 320.865ZM-99.4362 342.704C-106.098 345.833 -113.503 360.438 -117.004 377.353C-122.986 406.253 -114.301 443.61 -100.232 449.502C-92.8768 452.582 -83.9517 449.815 -79.5236 443.083C-69.7433 428.216 -65.6904 396.787 -70.8259 375.636C-74.2713 361.444 -82.014 345.508 -86.6796 343.005C-90.581 340.913 -95.3823 340.799 -99.4362 342.704ZM-33.0759 343.099C-36.6789 344.936 -38.1975 346.648 -41.2797 352.353C-48.6303 365.954 -52.1615 380.72 -52.1615 397.853C-52.1615 414.696 -48.6034 430.124 -42.0969 441.493C-35.2062 453.534 -19.3136 453.873 -12.4439 442.127C-0.783806 422.186 1.40433 388.885 -7.36117 364.797C-10.5461 356.044 -16.5347 345.464 -19.3405 343.635C-23.6369 340.832 -28.2746 340.652 -33.0759 343.099ZM35.9704 341.555C27.5332 343.207 17.5344 364.809 14.7736 387.353C12.4837 406.043 17.6951 432.433 25.9836 444.126C30.1144 449.953 39.1653 452.38 46.038 449.502C60.1067 443.61 68.7913 406.253 62.8097 377.353C59.7315 362.481 51.9718 346.078 46.7384 343.38C43.6014 341.762 38.9438 340.973 35.9704 341.555ZM101.949 341.95C93.4415 344.419 84.1003 365.118 81.543 387.168C79.9485 400.917 81.4063 415.306 85.6987 428.17C90.9969 444.05 95.5797 449.642 104.084 450.603C113.98 451.721 120.426 446.265 125.36 432.599C134.659 406.846 133.402 378.424 121.946 355.432C117.658 346.824 114.337 343.156 109.655 341.852C105.644 340.736 106.157 340.729 101.949 341.95ZM168.8 341.94C164.555 343.185 160.919 347.719 156.339 357.476C150.082 370.805 148.07 380.795 148.107 398.353C148.133 410.723 148.536 414.843 150.406 421.852C155.108 439.484 161.302 448.978 169.051 450.435C181.562 452.787 189.398 444.539 195.179 422.931C197.393 414.655 197.748 411.245 197.79 397.853C197.831 384.77 197.486 381.038 195.571 373.92C191.83 360.005 184.335 345.443 179.652 342.985C176.681 341.426 172.068 340.981 168.8 341.94ZM235.32 341.944C224.24 346.516 214.343 373.354 214.378 398.734C214.401 415.225 220.152 436.515 226.754 444.542C231.917 450.82 240.008 452.578 247.083 448.959C251.503 446.698 253.378 444.688 256.041 439.353C262.882 425.647 266.412 403.62 264.45 386.864C262.45 369.788 254.002 348.556 247.292 343.745C244.106 341.461 238.524 340.621 235.32 341.944ZM300.673 342.704C294.011 345.833 286.607 360.438 283.105 377.353C277.124 406.253 285.808 443.61 299.877 449.502C307.233 452.582 316.158 449.815 320.586 443.083C330.366 428.216 334.419 396.787 329.284 375.636C325.838 361.444 318.096 345.508 313.43 343.005C309.529 340.913 304.727 340.799 300.673 342.704ZM367.013 343.099C363.232 345.017 361.945 346.544 358.375 353.353C351.547 366.372 348.909 376.903 348.323 393.489C347.619 413.422 350.708 428.73 358.013 441.493C365.485 454.551 381.515 453.855 388.684 440.16C399.57 419.367 401.329 389.447 393.07 365.599C390.066 356.927 384.034 346.019 381.103 343.959C376.661 340.838 372.026 340.555 367.013 343.099ZM436.08 341.555C432.44 342.268 427.62 347.88 423.664 356.011C411.317 381.386 411.334 415.89 423.705 439.34C427.874 447.242 432.663 450.808 439.147 450.837C447.938 450.875 453.908 445.468 458.631 433.189C468.811 406.723 466.344 372.947 452.554 350.009C448.44 343.165 442.756 340.248 436.08 341.555ZM-130.201 350.52C-130.567 350.886 -130.866 352.431 -130.866 353.952C-130.866 357.443 -128.395 358.34 -122.882 356.852C-115.358 354.822 -116.745 349.853 -124.836 349.853C-127.421 349.853 -129.836 350.153 -130.201 350.52ZM-68.3385 350.52C-69.6974 351.882 -68.9671 355.729 -67.2579 356.211C-62.3478 357.596 -59.2038 357.786 -56.1027 356.885C-52.0347 355.702 -50.8334 354.115 -52.1465 351.657C-52.9397 350.171 -54.3945 349.853 -60.3921 349.853C-64.3962 349.853 -67.9733 350.153 -68.3385 350.52ZM-2.04799 351.657C-2.57781 352.649 -2.65863 354.032 -2.22859 354.73C-1.02527 356.681 5.84345 357.865 10.2207 356.875C14.6798 355.867 16.0817 354.236 14.7047 351.657C13.9095 350.167 12.4517 349.853 6.32837 349.853C0.204996 349.853 -1.25276 350.167 -2.04799 351.657ZM64.9359 351.015C61.6902 354.268 64.7713 356.97 71.8755 357.103C79.5664 357.247 81.8453 356.276 81.4691 353.017C81.1698 350.425 80.9583 350.345 73.6665 350.065C68.6926 349.874 65.7551 350.194 64.9359 351.015ZM131.48 351.437C129.578 353.734 131.463 356.141 135.883 357.062C143.375 358.622 150.641 355.129 147.584 351.437C146.624 350.278 144.464 349.853 139.532 349.853C134.6 349.853 132.44 350.278 131.48 351.437ZM198.331 351.437C196.429 353.734 198.314 356.141 202.734 357.062C210.227 358.622 217.492 355.129 214.435 351.437C213.475 350.278 211.315 349.853 206.383 349.853C201.451 349.853 199.291 350.278 198.331 351.437ZM265.502 350.515C264.816 350.793 264.254 352.099 264.254 353.417C264.254 355.218 264.938 355.967 266.998 356.427C268.507 356.763 270.505 357.245 271.439 357.498C273.986 358.186 281.24 355.956 281.878 354.288C283.034 351.272 280.252 349.85 273.362 349.932C269.724 349.975 266.188 350.238 265.502 350.515ZM331.771 350.52C331.405 350.886 331.106 352.228 331.106 353.501C331.106 355.21 331.822 355.975 333.849 356.427C335.358 356.763 337.357 357.245 338.291 357.498C340.373 358.061 347.764 356.155 348.571 354.846C348.894 354.323 348.672 352.985 348.079 351.874C347.148 350.129 346.003 349.853 339.717 349.853C335.713 349.853 332.136 350.153 331.771 350.52ZM398.061 351.657C397.532 352.649 397.451 354.032 397.881 354.73C399.084 356.681 405.953 357.865 410.33 356.875C414.789 355.867 416.191 354.236 414.814 351.657C414.019 350.167 412.561 349.853 406.438 349.853C400.314 349.853 398.857 350.167 398.061 351.657ZM464.738 351.437C462.78 353.801 464.802 356.226 469.407 357.037C475.255 358.067 476.781 357.29 476.781 353.286V349.853H471.415C467.737 349.853 465.638 350.351 464.738 351.437ZM-130.657 467.103L-130.367 475.353L-124.381 475.097C-116.722 474.769 -106.139 471.115 -104.183 468.123C-102.863 466.104 -102.873 465.587 -104.274 463.444C-106.222 460.465 -112.962 458.853 -123.473 458.853H-130.947L-130.657 467.103ZM-77.8882 460.132C-82.928 461.533 -84.5334 463.471 -83.6324 467.069C-82.8621 470.145 -76.4843 473.142 -67.0932 474.842C-59.3365 476.246 -50.2258 474.955 -42.2485 471.32C-37.2606 469.048 -36.9633 468.71 -37.2596 465.635C-37.7595 460.437 -40.9754 459.458 -58.5273 459.163C-68.0222 459.002 -75.1004 459.357 -77.8882 460.132ZM-10.5561 459.915C-15.7305 461.208 -17.1194 462.503 -17.1194 466.031C-17.1194 468.6 -16.4709 469.258 -11.8811 471.341C-0.115291 476.681 12.8519 476.674 24.6027 471.32C29.5906 469.048 29.8879 468.71 29.5916 465.635C29.0957 460.48 25.8858 459.509 8.32393 459.2C0.0922473 459.055 -8.40384 459.377 -10.5561 459.915ZM55.9499 459.964C53.2829 460.599 51.0957 461.889 50.098 463.415C48.6372 465.65 48.6382 466.058 50.1119 468.312C51.8151 470.917 60.1107 473.994 68.8871 475.275C77.7105 476.564 94.8703 471.826 96.1634 467.744C97.1004 464.783 95.7055 461.839 92.7999 460.65C89.2608 459.2 61.3399 458.681 55.9499 459.964ZM122.943 459.942C112.783 462.359 113.606 468.686 124.601 472.718C136.602 477.118 155.603 475.191 161.839 468.94C164.58 466.194 163.366 462.388 159.244 460.805C155.164 459.237 128.561 458.605 122.943 459.942ZM191.416 459.536C183.618 460.819 180.262 465.118 184.076 468.94C191.96 476.843 219.903 477 228.514 469.19C232.42 465.647 229.749 461.648 222.333 459.935C218.061 458.949 196.665 458.672 191.416 459.536ZM256.771 459.782C250.082 461.4 247.605 464.653 250.086 468.564C252.416 472.238 269.395 476.412 277.452 475.291C284.763 474.274 294.332 470.561 295.927 468.123C298.259 464.555 295.594 461.321 289.186 459.944C283.606 458.744 261.516 458.634 256.771 459.782ZM322.221 460.132C317.182 461.533 315.576 463.471 316.477 467.069C317.247 470.145 323.625 473.142 333.016 474.842C340.773 476.246 349.884 474.955 357.861 471.32C362.849 469.048 363.146 468.71 362.85 465.635C362.35 460.437 359.134 459.458 341.582 459.163C332.087 459.002 325.009 459.357 322.221 460.132ZM389.553 459.915C384.379 461.208 382.99 462.503 382.99 466.031C382.99 468.6 383.639 469.258 388.228 471.341C399.994 476.681 412.961 476.674 424.712 471.32C429.7 469.048 429.997 468.71 429.701 465.635C429.205 460.48 425.995 459.509 408.433 459.2C400.202 459.055 391.706 459.377 389.553 459.915ZM456.059 460.022C453.342 460.632 451.224 461.86 450.207 463.415C448.747 465.65 448.748 466.058 450.221 468.312C452.088 471.168 461.261 474.351 470.708 475.423L476.781 476.111V467.482V458.853L468.55 458.96C464.022 459.019 458.401 459.497 456.059 460.022ZM-107.917 480.46C-111.484 481.329 -115.974 482.397 -117.895 482.832C-119.912 483.289 -109.792 483.64 -93.9485 483.664L-66.5095 483.706L-73.9929 481.76C-84.4526 479.039 -99.6947 478.455 -107.917 480.46ZM-38.5717 479.921C-57.2332 483.889 -57.7959 483.697 -27.5961 483.659C-11.6786 483.638 -1.16096 483.285 -3.15054 482.838C-5.07126 482.406 -9.78577 481.341 -13.6272 480.47C-21.0956 478.778 -32.0612 478.536 -38.5717 479.921ZM28.2795 479.921C9.61805 483.889 9.0553 483.697 39.2551 483.659C55.1876 483.638 65.6922 483.285 63.7007 482.837C45.5571 478.756 37.053 478.055 28.2795 479.921ZM95.1307 479.921C76.4693 483.889 75.9065 483.697 106.106 483.659C121.472 483.639 132.473 483.29 130.552 482.883C128.631 482.477 123.598 481.404 119.369 480.498C111.201 478.751 101.698 478.524 95.1307 479.921ZM161.982 479.921C143.32 483.889 142.758 483.697 172.958 483.659C188.323 483.639 199.324 483.29 197.403 482.883C195.482 482.477 190.45 481.404 186.22 480.498C178.052 478.751 168.549 478.524 161.982 479.921ZM227.835 480.029C225.64 480.565 221.15 481.609 217.858 482.349C212.359 483.584 214.149 483.691 239.809 483.659C255.175 483.639 266.175 483.29 264.254 482.883C262.334 482.477 257.301 481.404 253.071 480.498C244.664 478.7 234.083 478.503 227.835 480.029ZM292.192 480.46C288.625 481.329 284.135 482.397 282.214 482.832C280.198 483.289 290.317 483.64 306.161 483.664L333.6 483.706L326.117 481.76C315.657 479.039 300.415 478.455 292.192 480.46ZM361.538 479.921C342.876 483.889 342.314 483.697 372.513 483.659C388.431 483.638 398.949 483.285 396.959 482.838C395.038 482.406 390.324 481.341 386.482 480.47C379.014 478.778 368.048 478.536 361.538 479.921ZM428.389 479.921C409.728 483.889 409.165 483.697 439.365 483.659C455.297 483.638 465.802 483.285 463.81 482.837C445.667 478.756 437.162 478.055 428.389 479.921Z" fill="black"/>
</g>
</svg>
