<svg width="379" height="318" viewBox="0 0 379 318" fill="none" xmlns="http://www.w3.org/2000/svg">
<mask id="mask0_442_3212" style="mask-type:alpha" maskUnits="userSpaceOnUse" x="0" y="0" width="379" height="318">
<path fill-rule="evenodd" clip-rule="evenodd" d="M343 4.35415C340.632 10.6569 333.506 25.0757 329.948 30.762C323.776 40.6266 309.48 58.7009 300.516 67.974C283.09 86.0005 264.411 98.5212 254.944 98.5212C251.776 98.5212 250.292 98.0583 249.861 96.9342C249.026 94.7609 251.72 89.4496 256.131 84.5751C258.152 82.3419 259.531 80.2413 259.196 79.9072C258.396 79.1082 256.083 80.6493 236.546 95.0012C218.279 108.42 204.034 118.47 203.28 118.47C203.009 118.47 203.179 116.787 203.657 114.729C204.136 112.673 204.539 106.196 204.552 100.338C204.619 70.6381 212.492 46.1932 226.947 30.8189C230.632 26.899 230.744 26.6396 228.054 28.2854C218.001 34.4325 205.078 46.5852 198.759 55.8333C195.084 61.2094 191.787 68.4857 190.736 73.5346L190.013 77.0117L187.733 70.0776C186.479 66.2634 183.823 60.4644 181.831 57.1898C175.854 47.3682 161.953 33.7593 151.125 27.1304C148.87 25.7499 149.502 26.7663 153.677 31.2378C167.22 45.7414 174.072 67.184 175.178 98.5212C175.459 106.476 176.089 114.468 176.579 116.282L177.471 119.581L174.289 117.577C168.975 114.231 148.922 100.042 134.64 89.5224C127.222 84.0585 120.585 79.584 119.892 79.579C119.2 79.5741 120.694 82.0965 123.214 85.1856C128.687 91.8943 130.161 95.2017 128.545 97.1467C125.199 101.171 112.148 96.265 97.7463 85.5686C74.2131 68.0907 45.6554 30.8937 36.1602 5.35157C32.9402 -3.30808 33.4567 2.43111 36.8016 12.4921C42.9699 31.0413 64.8367 70.9224 77.6569 87.0049C84.0759 95.0581 98.3128 108.636 108.198 116.133C124.647 128.609 137.243 135.729 149.364 139.405C157.785 141.958 162.67 141.714 155.161 139.114C139.272 133.615 119.968 116.362 122.122 109.586C124.032 103.577 146.35 109.107 150.55 116.629C151.828 118.921 151.836 119.506 150.607 120.985C149.472 122.351 148.127 122.584 143.897 122.148C140.802 121.829 138.84 121.983 139.172 122.517C140.68 124.953 160.723 128.444 173.204 128.444C179.287 128.444 179.355 128.475 179.973 131.561C180.986 136.62 180.695 141.325 179.187 144.203C175.834 150.608 136.199 185.701 130.465 187.343C123.728 189.272 115.156 185.628 105.813 176.863C96.6304 168.249 94.2446 160.789 94.2336 140.662C94.2306 133.394 94.1526 127.447 94.0617 127.447C93.2285 127.447 89.488 145.068 88.6128 153.112C86.6706 170.972 90.3561 192.755 97.8192 207.537C101.6 215.023 111.744 230.432 112.437 229.74C112.71 229.467 111.097 226.425 108.851 222.98C101.53 211.747 100.203 207.854 100.187 197.546C100.174 189.309 100.408 188.114 102.437 186.086L104.702 183.823L109.264 186.239C118.593 191.179 124.327 201.372 127.593 218.818C131.959 242.14 137.824 254.161 159.174 283.544C171.779 300.892 172.791 302.863 173.389 311.214C174.112 321.296 175.873 319.564 175.41 309.227C174.954 299.082 174.074 296.668 159.863 266.587C154.679 255.616 149.028 242.599 147.306 237.662C144.379 229.275 144.171 227.769 144.152 214.721C144.133 202.106 144.362 200.248 146.521 195.477C149.38 189.162 155.095 183.988 161.053 182.323C169.068 180.082 171.47 182.735 170.184 192.408C169.819 195.164 168.62 199.695 167.521 202.479C166.422 205.262 165.68 208.258 165.87 209.136C166.307 211.142 173.639 196.096 176.758 186.793L179.099 179.811L179.758 207.739C180.643 245.275 184.105 277.16 188.516 288.42C189.92 292.002 190.355 291.579 192.145 284.893C196.381 269.073 199.292 241.239 200.246 207.427L200.905 184.063L204.582 193.535C208.259 203.011 212.379 210.755 213.27 209.866C213.529 209.606 212.557 205.966 211.109 201.776C209.192 196.232 208.557 192.619 208.774 188.501C209.042 183.385 209.327 182.754 211.741 181.91C213.704 181.224 215.642 181.447 219.064 182.752C230.969 187.29 236.378 199.333 235.252 218.795C234.567 230.634 231.281 240.329 219.549 265.12C204.548 296.817 201.436 306.082 202.997 314.392C203.954 319.484 204.845 318.173 205.641 310.506C206.471 302.491 207.964 299.669 220.159 283.045C239.887 256.154 246.255 243.064 251.065 219.516C254.144 204.447 256.791 198.108 262.682 191.708C267.809 186.138 272.606 183.745 275.521 185.303C278.11 186.687 279.019 190.265 278.95 198.8C278.904 204.56 278.31 207.064 275.651 212.739C273.868 216.545 271.378 221.015 270.118 222.675C268.859 224.335 267.288 226.815 266.625 228.187C264.043 233.538 271.717 223.598 277.166 214.535C287.143 197.939 291.133 180.68 290.226 158.032C289.742 145.963 286.86 130.472 284.683 128.247C284.308 127.865 283.984 134.598 283.963 143.209C283.913 163.264 282.425 167.831 273.002 176.841C261.562 187.781 251.345 190.517 243.581 184.72C228.292 173.307 202.202 149.015 200.479 144.587C199.447 141.936 199.308 136.036 200.176 131.708L200.77 128.738L211.415 128.118C224.604 127.349 232.941 125.836 237.522 123.381L241.042 121.494L236.843 122.096C227.742 123.403 224.5 119.391 230.302 114.004C236.473 108.274 253.156 104.916 256.025 108.826C260.38 114.758 242.555 131.764 224.467 138.933L218.063 141.47L223.059 140.858C239.273 138.871 268.394 120.619 290.558 98.5531C298.317 90.828 303.473 84.4824 310.04 74.573C321.208 57.7214 337.245 26.483 341.98 12.3585C345.606 1.53642 346.402 -4.70049 343 4.35415Z" fill="white"/>
<path fill-rule="evenodd" clip-rule="evenodd" d="M100.737 1.18028C101.676 1.89162 106.376 4.70917 111.181 7.44127C121.285 13.1847 134.817 25.7672 141.4 35.5373C148.88 46.6405 154.639 59.705 155.218 66.8929C155.707 72.9423 155.593 73.3884 153.158 74.975C151.685 75.9357 149.746 76.3897 148.627 76.037C146.599 75.3972 140.215 68.9007 137.355 64.5671C134.149 59.709 134.638 63.2726 138.135 70.2648C145.668 85.3212 163.078 102.697 178.784 110.834L185.951 114.548L175.822 104.705C167 96.1314 165.486 94.1673 164.083 89.469C162.056 82.6805 162.052 80.0597 164.066 78.3975C166.333 76.5268 170.274 78.9112 173.276 83.9701L175.616 87.9142L175.031 83.7207C174.127 77.2292 169.623 63.8091 165.771 56.1224C155.446 35.5293 135.938 17.1278 111.573 5.00125C103.218 0.842493 97.7476 -1.08687 100.737 1.18028ZM265.659 5.93911C241.303 18.2505 223.164 35.4349 212.662 56.1483C209.959 61.4803 204.719 76.9868 202.959 84.8592C202.389 87.4125 202.499 87.6082 203.872 86.4756C204.731 85.7673 205.433 84.6546 205.433 84.0048C205.433 82.2434 210.778 77.4825 212.755 77.4825C216.532 77.4825 216.664 86.1915 212.993 93.2493C212.238 94.7028 207.545 99.7974 202.567 104.57C197.587 109.343 193.737 113.248 194.011 113.248C195.612 113.248 202.18 109.844 207.628 106.19C220.362 97.6495 234.442 82.2662 240.565 70.2042C244.304 62.8385 243.741 60.7799 239.617 66.7399C235.876 72.1465 230.935 76.489 228.524 76.489C227.571 76.489 225.816 75.587 224.625 74.4832C222.796 72.7883 222.549 71.7501 223.03 67.7771C223.823 61.2191 225.151 57.1994 229.176 49.168C238.197 31.1679 252.305 16.0857 269.503 6.05336C275.202 2.72914 279.317 0.00497741 278.647 9.94885e-06C277.977 -0.00595101 272.132 2.66754 265.659 5.93911ZM163.472 3.78224C163.472 4.29289 164.642 7.33696 166.071 10.5469C170.306 20.0547 172.464 30.1346 172.464 40.4054C172.464 49.4958 172.567 49.9101 177.113 58.8744C179.67 63.9174 182.833 70.5033 184.141 73.5086L186.519 78.9728L185.896 72.0183C184.75 59.2202 174.981 24.6049 168.48 10.3085C165.948 4.73897 163.472 1.51211 163.472 3.78224ZM212.171 5.9709C205.772 15.8174 192.212 63.6571 192.561 75.1548C192.625 77.255 192.889 78.0786 193.146 76.9858C193.405 75.893 196.5 69.164 200.024 62.0317L206.432 49.0647V39.1417C206.432 28.5153 207.839 21.5717 211.966 11.8186C214.702 5.35792 214.822 1.89162 212.171 5.9709ZM51.1187 71.0248C54.7703 76.8109 56.5706 80.9111 56.5556 83.4048C56.5227 88.864 54.034 89.9767 37.5892 91.8882C23.0416 93.5791 13.8151 96.5248 4.90935 102.324C2.047 104.188 -0.157967 105.849 0.00887869 106.015C0.176724 106.182 2.32174 105.434 4.77647 104.355C15.7873 99.5113 32.5608 97.7101 38.3874 100.745C43.6066 103.464 50.0746 111.732 56.6106 124.043C59.8936 130.224 68.3377 140.624 69.2989 139.669C69.5646 139.404 68.1959 137.263 66.2577 134.911C54.8452 121.061 52.3046 101.326 61.9337 101.326C64.5223 101.326 70.5357 107.199 73.0744 112.205C74.4521 114.922 74.6959 117.165 74.2503 123.017C73.8187 128.702 73.9606 130.131 74.8707 129.226C75.9567 128.144 76.2854 112.448 75.3713 105.3C75.1235 103.365 75.5481 102.747 77.2925 102.501C78.912 102.271 80.9581 103.645 84.6926 107.468C89.1206 112 89.5831 112.275 87.9486 109.399C86.9006 107.554 82.8314 102.412 78.905 97.9733C69.6106 87.4642 48.6859 67.1711 51.1187 71.0248ZM312.952 83.668C299.619 97.5581 289.393 109.628 289.367 111.507C289.361 111.914 291.521 110.014 294.167 107.284C296.973 104.389 299.863 102.32 301.1 102.32C303.175 102.32 303.209 102.579 302.68 114.49C302.225 124.765 302.392 126.97 303.756 128.647C305.31 130.559 305.343 130.521 304.62 127.654C303.062 121.461 303.824 114.798 306.639 110.022C313.563 98.2714 322.325 98.5456 322.325 110.513C322.325 118.586 318.407 127.445 310.606 137.008C308.021 140.177 307.99 140.321 310.132 139.184C313.14 137.588 320.396 127.719 325.084 118.848C327.137 114.961 331.36 109.094 334.467 105.808L340.116 99.8361L351.452 99.8729C361.561 99.9057 363.491 100.208 369.282 102.662C372.853 104.175 376.45 105.695 377.274 106.04C378.588 106.589 378.595 106.449 377.33 104.904C375.755 102.98 362.883 96.3102 357.293 94.5219C355.37 93.907 348.067 92.7406 341.065 91.9299C325.384 90.1148 322.325 88.7786 322.325 83.7465C322.325 81.5429 323.524 78.0151 325.388 74.7306C327.073 71.762 328.251 69.1342 328.005 68.8908C327.76 68.6474 320.986 75.2969 312.952 83.668Z" fill="#FF0000"/>
</mask>
<g mask="url(#mask0_442_3212)">
<path id="15-pattern"
class="color" fill-rule="evenodd" clip-rule="evenodd" d="M-131.895 -114.131C-111.824 -109.616 -106.038 -109.257 -94.1871 -111.792C-89.9575 -112.698 -84.9247 -113.771 -83.004 -114.177C-81.0833 -114.584 -92.0838 -114.917 -107.45 -114.917C-123.291 -114.917 -133.876 -114.577 -131.895 -114.131ZM-65.0439 -114.132C-63.1232 -113.7 -58.4087 -112.635 -54.5673 -111.764C-45.5703 -109.726 -36.9545 -109.735 -27.3359 -111.792C-23.1063 -112.698 -18.0735 -113.771 -16.1528 -114.177C-14.232 -114.584 -25.2325 -114.917 -40.5984 -114.917C-56.4261 -114.917 -67.0225 -114.577 -65.0439 -114.132ZM5.79839 -113.067C17.1152 -110.143 29.7082 -109.6 38.7251 -111.647C42.8409 -112.581 47.78 -113.699 49.7007 -114.131C51.7002 -114.581 41.468 -114.935 25.754 -114.958L-1.68496 -115L5.79839 -113.067ZM67.6607 -114.177C69.5814 -113.771 74.6142 -112.698 78.8438 -111.792C88.9523 -109.63 96.9386 -109.715 107.448 -112.098C112.181 -113.171 116.951 -114.244 118.049 -114.482C119.146 -114.72 107.472 -114.915 92.1063 -114.916C76.7405 -114.917 65.74 -114.584 67.6607 -114.177ZM134.512 -114.177C136.433 -113.771 141.465 -112.698 145.695 -111.792C149.925 -110.887 155.893 -110.147 158.958 -110.147C162.022 -110.147 167.99 -110.887 172.22 -111.792C176.45 -112.698 181.482 -113.771 183.403 -114.177C185.324 -114.584 174.323 -114.917 158.958 -114.917C143.592 -114.917 132.591 -114.584 134.512 -114.177ZM201.363 -114.177C203.284 -113.771 208.317 -112.698 212.546 -111.792C216.776 -110.887 222.745 -110.147 225.809 -110.147C228.873 -110.147 234.842 -110.887 239.071 -111.792C243.301 -112.698 248.334 -113.771 250.254 -114.177C252.175 -114.584 241.175 -114.917 225.809 -114.917C210.443 -114.917 199.442 -114.584 201.363 -114.177ZM268.214 -114.131C288.286 -109.616 294.072 -109.257 305.922 -111.792C310.152 -112.698 315.185 -113.771 317.106 -114.177C319.026 -114.584 308.026 -114.917 292.66 -114.917C276.818 -114.917 266.234 -114.577 268.214 -114.131ZM335.066 -114.132C336.986 -113.7 341.701 -112.635 345.542 -111.764C354.539 -109.726 363.155 -109.735 372.774 -111.792C377.003 -112.698 382.036 -113.771 383.957 -114.177C385.877 -114.584 374.877 -114.917 359.511 -114.917C343.683 -114.917 333.087 -114.577 335.066 -114.132ZM405.908 -113.067C417.225 -110.143 429.818 -109.6 438.835 -111.647C442.95 -112.581 447.889 -113.699 449.81 -114.131C451.81 -114.581 441.578 -114.935 425.863 -114.958L398.425 -115L405.908 -113.067ZM-144.118 -106.564C-144.53 -106.151 -144.866 -102.289 -144.866 -97.98V-90.147H-137.432C-126.96 -90.147 -120.219 -91.762 -118.274 -94.738C-115.793 -98.533 -118.411 -101.599 -126.19 -104.007C-133.536 -106.281 -143.047 -107.638 -144.118 -106.564ZM-83.6136 -105.709C-86.9672 -104.95 -91.5969 -103.365 -93.9007 -102.187C-97.6544 -100.268 -98.0575 -99.714 -97.7811 -96.853C-97.2603 -91.474 -94.1621 -90.647 -74.5228 -90.647C-54.9983 -90.647 -51.7855 -91.489 -51.2736 -96.739C-50.9054 -100.512 -51.9401 -101.417 -59.5562 -103.98C-67.8258 -106.764 -76.272 -107.371 -83.6136 -105.709ZM-16.7624 -105.659C-20.1159 -104.927 -24.7456 -103.365 -27.0495 -102.187C-30.8031 -100.268 -31.2063 -99.714 -30.9299 -96.853C-30.442 -91.812 -27.1024 -90.772 -10.1661 -90.386C10.4091 -89.918 17.0354 -91.982 15.4379 -98.363C14.6826 -101.377 8.36168 -104.406 -0.621328 -106.058C-7.80235 -107.379 -9.00865 -107.349 -16.7624 -105.659ZM53.1929 -106.46C47.2352 -105.688 37.4769 -101.693 35.9882 -99.417C33.5546 -95.694 36.3225 -92.581 43.3688 -91.115C51.804 -89.36 75.1929 -90.241 79.3846 -92.473C82.6144 -94.191 83.5773 -97.101 81.8292 -99.858C80.55 -101.875 72.5269 -104.962 65.6592 -106.078C59.1147 -107.142 58.5889 -107.159 53.1929 -106.46ZM118.547 -106.161C110.713 -104.734 104.239 -101.796 102.642 -98.944C101.288 -96.526 101.319 -96.1 102.977 -94.263C104.008 -93.122 107.245 -91.734 110.417 -91.074C117.592 -89.581 141.902 -90.337 145.761 -92.173C149.386 -93.898 150.367 -97.702 147.839 -100.234C143.44 -104.644 127.698 -107.829 118.547 -106.161ZM184.506 -106.109C178.082 -104.78 171.763 -102.173 169.863 -100.07C167.4 -97.342 168.714 -93.617 172.671 -92.11C177.279 -90.355 200.728 -89.665 207.547 -91.084C218.907 -93.448 219.014 -99.767 207.762 -103.796C200.595 -106.362 190.554 -107.361 184.506 -106.109ZM249.755 -105.727C238.333 -103.128 234.246 -100.012 235.804 -95.09C236.826 -91.865 240.754 -90.916 255.254 -90.393C271.509 -89.806 279.458 -91.101 281.826 -94.724C283.275 -96.94 283.273 -97.357 281.803 -99.606C278.473 -104.7 260.407 -108.151 249.755 -105.727ZM316.496 -105.709C313.142 -104.95 308.513 -103.365 306.209 -102.187C302.455 -100.268 302.052 -99.714 302.328 -96.853C302.849 -91.474 305.947 -90.647 325.587 -90.647C345.111 -90.647 348.324 -91.489 348.836 -96.739C349.204 -100.512 348.169 -101.417 340.553 -103.98C332.284 -106.764 323.838 -107.371 316.496 -105.709ZM383.347 -105.659C379.994 -104.927 375.364 -103.365 373.06 -102.187C369.306 -100.268 368.903 -99.714 369.18 -96.853C369.668 -91.812 373.007 -90.772 389.943 -90.386C410.519 -89.918 417.145 -91.982 415.547 -98.363C414.792 -101.377 408.471 -104.406 399.488 -106.058C392.307 -107.379 391.101 -107.349 383.347 -105.659ZM453.302 -106.482C447.255 -105.654 437.577 -101.68 436.098 -99.417C434.778 -97.398 434.788 -96.881 436.189 -94.738C438.137 -91.759 444.877 -90.147 455.388 -90.147H462.862L462.572 -98.397L462.282 -106.647L459.289 -106.769C457.643 -106.836 454.949 -106.707 453.302 -106.482ZM-114.453 -80.753C-128.369 -74.676 -136.926 -37.357 -131 -8.582C-127.684 7.524 -119.677 23.468 -113.65 25.972C-109.352 27.757 -103.884 27.506 -100.636 25.373C-94.9833 21.661 -87.7055 6.355 -84.4288 -8.709C-81.8984 -20.348 -82.081 -40.061 -84.8259 -51.364C-87.1388 -60.89 -91.098 -71.075 -94.1781 -75.42C-98.3029 -81.239 -107.687 -83.708 -114.453 -80.753ZM-48.857 -80.028C-61.5926 -73.71 -69.8912 -37.046 -64.6738 -10.147C-61.9887 3.695 -53.8509 21.812 -48.854 25.071C-44.5575 27.874 -39.9199 28.054 -35.1185 25.607C-31.5156 23.77 -29.9969 22.058 -26.9148 16.353C-19.6091 2.834 -16.024 -12.066 -15.9931 -29.042C-15.9632 -45.681 -19.6031 -61.439 -26.0976 -72.787C-31.0656 -81.468 -40.1364 -84.354 -48.857 -80.028ZM17.6021 -80.12C12.9814 -77.673 10.5818 -74.29 6.89396 -65.018C2.17047 -53.141 0.490201 -43.375 0.551066 -28.147C0.594968 -17.047 1.05296 -12.926 3.12634 -4.965C5.68764 4.867 10.9719 16.732 15.39 22.572C21.1053 30.125 32.0071 28.787 37.7433 19.829C52.0345 -2.492 54.8582 -37.611 44.5212 -64.483C39.7927 -76.776 33.7901 -82.205 25.0376 -82.103C22.9622 -82.078 19.6166 -81.186 17.6021 -80.12ZM85.1218 -80.482C80.553 -78.062 78.6293 -76.061 76.1498 -71.147C69.0736 -57.121 65.5833 -36.022 67.4711 -18.69C69.3869 -1.109 77.6874 19.878 84.8155 25.165C88.5482 27.934 95.5915 27.986 99.2664 25.273C105.986 20.311 112.966 4.95499 116.126 -11.821C120.208 -33.487 114.798 -64.387 104.848 -76.238C100.064 -81.937 91.3919 -83.802 85.1218 -80.482ZM151.975 -80.572C150.33 -79.712 148.149 -78.252 147.127 -77.328C144.021 -74.517 139.441 -64.334 136.736 -54.225C134.514 -45.921 134.17 -42.585 134.147 -29.147C134.125 -16.128 134.484 -12.286 136.39 -5.147C139.038 4.777 144.985 17.973 148.886 22.584C154.155 28.812 163.745 28.853 168.936 22.67C173.215 17.573 178.444 6.15 181.181 -4.077C183.401 -12.376 183.744 -15.706 183.764 -29.147C183.79 -46.34 182.62 -52.964 177.292 -65.794C173.666 -74.522 170.316 -78.88 165.771 -80.783C161.456 -82.59 155.668 -82.501 151.975 -80.572ZM218.805 -80.753C213.905 -78.613 209.834 -72.979 206.484 -63.697C197.126 -37.779 198.554 -9.371 210.399 14.166C215.946 25.187 221.674 28.974 229.517 26.803C242.353 23.252 253.643 -12.854 250.45 -40.136C249.052 -52.076 244.2 -67.562 239.851 -73.964C234.784 -81.424 226.477 -84.104 218.805 -80.753ZM285.657 -80.753C271.741 -74.676 263.184 -37.357 269.109 -8.582C272.426 7.524 280.432 23.468 286.46 25.972C290.735 27.749 296.222 27.508 299.425 25.405C305.179 21.627 312.392 6.51 315.674 -8.647C318.211 -20.361 318.031 -40.05 315.284 -51.364C312.971 -60.89 309.012 -71.075 305.931 -75.42C301.807 -81.239 292.422 -83.708 285.657 -80.753ZM351.001 -79.85C345.637 -77.007 341.363 -69.66 337.501 -56.647C335.372 -49.471 334.727 -44.85 334.32 -33.85C333.736 -18.075 334.948 -8.448 338.94 2.847C346.362 23.848 354.494 30.966 364.961 25.625C368.603 23.766 370.097 22.081 373.177 16.353C380.834 2.113 384.184 -12.132 384.113 -30.147C384.049 -46.555 380.303 -62.069 373.666 -73.421C368.893 -81.581 359.368 -84.284 351.001 -79.85ZM417.712 -80.12C413.326 -77.798 410.969 -74.654 407.61 -66.645C397.334 -42.142 398.099 -10.766 409.532 12.174C414.758 22.659 417.266 25.61 422.048 26.901C428.328 28.595 433.81 26.142 437.853 19.829C452.144 -2.492 454.968 -37.611 444.631 -64.483C439.902 -76.776 433.9 -82.205 425.147 -82.103C423.072 -82.078 419.726 -81.186 417.712 -80.12ZM-143.699 11.743C-144.455 12.214 -144.884 13.814 -144.697 15.462C-144.379 18.252 -144.179 18.353 -138.988 18.353C-129.765 18.353 -129.277 12.857 -138.381 11.508C-140.576 11.182 -142.97 11.288 -143.699 11.743ZM-76.5184 11.321C-77.0672 11.517 -78.7794 11.958 -80.3229 12.3C-82.6707 12.821 -83.0788 13.367 -82.8174 15.638C-82.5111 18.3 -82.3544 18.359 -74.8292 18.644C-68.0433 18.901 -67.0315 18.706 -66.1006 16.963C-64.8923 14.7 -66.9697 11.863 -69.8542 11.839C-70.7762 11.832 -72.4275 11.632 -73.5251 11.395C-74.6226 11.158 -75.9696 11.125 -76.5184 11.321ZM-12.5757 11.865C-16.1827 12.985 -17.3082 14.689 -16.026 17.09C-15.1769 18.681 -13.9826 18.895 -7.36531 18.644C0.12203 18.36 0.318584 18.287 0.617918 15.689C0.834436 13.811 0.39242 12.867 -0.878751 12.492C-4.9916 11.278 -9.84579 11.018 -12.5757 11.865ZM53.8944 11.953C50.1517 13.07 48.9055 15.187 50.7094 17.366C51.9726 18.892 62.7925 19.511 66.0822 18.246C68.2344 17.418 68.1097 13.12 65.9146 12.474C61.7569 11.25 56.9496 11.041 53.8944 11.953ZM121.149 11.7C117.362 12.556 115.701 15.121 117.514 17.31C119.455 19.655 132.329 19.114 133.891 16.622C136.099 13.1 128.292 10.085 121.149 11.7ZM188 11.7C184.213 12.556 182.552 15.121 184.365 17.31C186.307 19.655 199.18 19.114 200.743 16.622C202.951 13.1 195.143 10.085 188 11.7ZM256.74 11.36C256.191 11.535 254.479 11.958 252.935 12.3C250.588 12.821 250.18 13.367 250.441 15.638C250.751 18.336 250.804 18.353 258.627 18.353C265.007 18.353 266.707 18.025 267.59 16.622C268.418 15.306 268.324 14.556 267.2 13.495C265.767 12.143 258.766 10.715 256.74 11.36ZM323.591 11.321C323.042 11.517 321.33 11.958 319.787 12.3C317.439 12.821 317.031 13.367 317.292 15.638C317.598 18.3 317.755 18.359 325.28 18.644C332.066 18.901 333.078 18.706 334.009 16.963C335.217 14.7 333.14 11.863 330.255 11.839C329.333 11.832 327.682 11.632 326.584 11.395C325.487 11.158 324.14 11.125 323.591 11.321ZM387.534 11.865C383.927 12.985 382.801 14.689 384.083 17.09C384.933 18.681 386.127 18.895 392.744 18.644C400.232 18.36 400.428 18.287 400.727 15.689C400.944 13.811 400.502 12.867 399.231 12.492C395.118 11.278 390.264 11.018 387.534 11.865ZM454.004 11.984C446.834 14.056 449.217 18.853 457.415 18.853H462.781V15.46C462.781 10.86 460.719 10.044 454.004 11.984ZM-144.118 27.411C-144.53 27.837 -144.866 32.625 -144.866 38.051C-144.866 45.736 -144.547 48.038 -143.423 48.471C-141.176 49.335 -129.211 47.171 -125.124 45.161C-123.102 44.167 -120.781 42.146 -119.969 40.67C-118.649 38.276 -118.667 37.617 -120.131 34.539C-121.408 31.856 -122.84 30.721 -126.584 29.428C-132.114 27.518 -143.01 26.264 -144.118 27.411ZM-85.9724 28.391C-93.1105 30.398 -95.9751 33.113 -95.9751 37.872C-95.9751 43.687 -92.3043 46.009 -80.1154 47.905C-74.7673 48.736 -71.8698 48.638 -66.0796 47.428C-54.3787 44.983 -50.6679 41.159 -53.4707 34.435C-54.5613 31.82 -55.8873 30.749 -59.7008 29.405C-66.5755 26.981 -79.2204 26.493 -85.9724 28.391ZM-15.6539 27.467C-24.8933 29.848 -27.3578 31.16 -28.7168 34.418C-31.5864 41.302 -27.717 45.112 -15.3865 47.547C-8.19047 48.968 -6.79159 48.963 0.392422 47.495C10.3363 45.462 13.183 43.46 13.5781 38.221C13.9203 33.682 11.6035 30.918 5.79839 28.94C1.97689 27.638 -12.468 26.646 -15.6539 27.467ZM47.7181 28.394C40.4263 30.444 38.0376 32.159 37.2095 35.939C36.2197 40.454 39.0973 43.905 45.7914 46.232C56.4986 49.953 75.4504 47.822 79.1851 42.478C81.5458 39.1 81.016 34.301 78.0217 31.941C72.4151 27.52 57.1731 25.737 47.7181 28.394ZM114.569 28.394C107.62 30.348 104.773 32.227 103.983 35.385C102.096 42.918 110.522 48.03 125.033 48.156C134.275 48.237 143.813 45.658 146.036 42.478C149.622 37.347 146.315 31.063 138.88 28.883C132.243 26.937 120.588 26.703 114.569 28.394ZM181.723 28.28C172.451 30.533 168.925 34.653 171.06 40.743C174.526 50.633 209.275 50.68 213.358 40.8C214.878 37.122 213.949 33.301 211.076 31.417C204.881 27.355 191.44 25.919 181.723 28.28ZM247.824 28.322C240.998 30.288 237.851 32.856 237.464 36.773C236.976 41.725 239.471 44.559 246.02 46.492C257.916 50.001 274.741 47.794 279.177 42.142C281.572 39.091 281.664 37.682 279.717 33.907C278.707 31.95 276.758 30.535 273.481 29.378C266.944 27.073 254.008 26.54 247.824 28.322ZM314.778 28.222C307.666 30.233 304.695 32.811 304.318 37.3C303.908 42.175 306.033 44.5 312.542 46.298C321.387 48.741 326.479 49.006 334.071 47.419C345.729 44.983 349.439 41.151 346.639 34.435C345.548 31.82 344.222 30.749 340.409 29.405C333.861 27.097 320.879 26.498 314.778 28.222ZM382.593 27.896C372.943 30.333 368.848 34.72 370.98 40.338C372.341 43.926 375.937 45.812 384.723 47.547C391.919 48.968 393.318 48.963 400.502 47.495C410.446 45.462 413.292 43.46 413.688 38.221C414.03 33.682 411.713 30.918 405.908 28.94C401.156 27.321 387.322 26.701 382.593 27.896ZM447.828 28.459C440.579 30.411 438.152 32.138 437.319 35.939C435.905 42.392 442.788 46.844 456.6 48.41L462.781 49.111V37.982V26.853L458.042 26.919C455.436 26.955 450.839 27.648 447.828 28.459ZM-113.54 49.282C-117.297 50.922 -119.852 54.388 -124.408 64.024C-133.863 84.025 -135.645 113.03 -128.717 134.178C-125.902 142.775 -121.102 152.308 -117.471 156.518C-114.847 159.56 -113.597 160.179 -109.232 160.6C-101.031 161.389 -97.9866 158.893 -92.0359 146.502C-80.278 122.017 -79.1855 94.31 -88.9827 69.11C-96.0809 50.855 -103.469 44.889 -113.54 49.282ZM-47.7973 49.82C-54.6321 53.997 -61.884 69.935 -65.041 87.716C-66.6773 96.934 -66.4169 115.116 -64.5171 124.336C-61.43 139.312 -53.5815 155.938 -48.0528 159.211C-44.4957 161.317 -37.6988 161.317 -34.1427 159.212C-28.5581 155.906 -20.7755 139.436 -17.6684 124.353C-15.5092 113.867 -15.5032 94.857 -17.6564 84.445C-19.6779 74.67 -24.0632 63.433 -28.6759 56.206C-33.8364 48.12 -41.0643 45.706 -47.7973 49.82ZM19.1577 49.699C7.21724 57.221 -2.08506 90.315 0.784555 115.057C3.282 136.583 13.2279 158.421 21.4805 160.497C25.8288 161.591 31.8215 160.149 34.7949 157.295C37.7902 154.418 43.5214 143.459 46.0678 135.739C51.7431 118.529 52.245 94.086 47.2651 77.353C44.0852 66.666 37.2823 53.344 33.6005 50.596C29.7301 47.707 22.9851 47.288 19.1577 49.699ZM86.0089 49.758C82.0437 52.181 79.3697 55.981 75.0782 65.29C69.4128 77.578 67.3175 88.133 67.3235 104.353C67.3304 124.005 70.656 137.218 79.3307 152.052C83.1103 158.516 86.5836 160.853 92.4076 160.853C98.8493 160.853 102.44 157.591 107.843 146.834C115.213 132.158 116.868 124.537 116.961 104.853C117.027 90.709 116.719 87.179 114.801 80.134C112.175 70.488 108.687 62.271 104.338 55.477C99.6226 48.112 92.3927 45.856 86.0089 49.758ZM152.681 49.521C146.007 52.817 136.882 73.316 134.582 90.175C131.603 112.003 136.093 136.16 146.113 152.214C150.09 158.587 153.54 160.853 159.259 160.853C165.609 160.853 169.261 157.565 174.578 147.059C181.561 133.264 183.821 122.814 183.816 104.353C183.81 84.473 180.627 71.864 171.806 56.779C166.908 48.402 160.143 45.835 152.681 49.521ZM219.464 49.497C213.116 52.738 205.87 67.694 202.324 84.878C199.596 98.098 200.006 116.802 203.3 129.353C205.8 138.878 213.123 154.39 216.704 157.747C220.04 160.873 227.693 161.738 232.047 159.481C237.82 156.489 245.098 141.737 248.881 125.353C251.58 113.672 251.362 93.378 248.409 81.353C245.802 70.738 238.698 55.537 234.452 51.489C230.645 47.859 224.32 47.019 219.464 49.497ZM286.57 49.282C284.866 50.025 282.504 51.997 281.32 53.664C277.616 58.877 272.325 71.019 270.126 79.353C267.436 89.546 266.465 109.888 268.165 120.449C270.315 133.803 276.642 149.565 282.646 156.527C285.261 159.559 286.515 160.179 290.878 160.6C299.089 161.39 302.129 158.893 308.044 146.502C313.658 134.741 315.599 128.018 317.168 114.9C318.96 99.93 316.828 83.775 311.127 69.11C304.029 50.855 296.64 44.889 286.57 49.282ZM352.268 49.848C347.012 53.059 340.628 65.144 336.826 79.077C334.88 86.206 334.567 89.778 334.567 104.853C334.567 124.961 336.018 131.991 343.187 146.583C348.355 157.105 352.415 160.853 358.644 160.853C364.684 160.853 368.077 158.665 371.939 152.281C379.932 139.061 384.124 122.572 384.124 104.353C384.124 85.754 379.785 69.29 371.434 56.206C366.259 48.099 359.046 45.706 352.268 49.848ZM419.267 49.699C415.362 52.159 412.583 56.054 408.855 64.294C397.025 90.445 397.712 123.308 410.608 148.077C416.331 159.065 419.932 161.645 428.031 160.557C433.351 159.842 436.876 156.338 441.205 147.464C448.861 131.772 451.316 119.216 450.554 99.638C450.148 89.232 449.458 84.403 447.367 77.353C444.2 66.678 437.397 53.348 433.71 50.596C429.84 47.707 423.095 47.288 419.267 49.699ZM-144.684 60.051C-144.382 63.199 -144.159 63.367 -139.877 63.647C-134.279 64.014 -130.823 61.913 -132.498 59.162C-133.31 57.827 -135.091 57.274 -139.3 57.051L-145 56.749L-144.684 60.051ZM-82.3385 57.52C-83.6655 58.849 -82.9591 61.806 -81.0743 62.818C-77.7996 64.574 -69.532 64.077 -66.9327 61.968C-64.9412 60.351 -64.8005 59.852 -65.9469 58.468C-66.9517 57.255 -69.074 56.853 -74.4789 56.853C-78.4361 56.853 -81.9733 57.153 -82.3385 57.52ZM-16.2156 58.428C-18.4506 61.128 -14.1981 63.853 -7.75146 63.853C-1.91445 63.853 1.20562 62.159 0.657838 59.287C0.337551 57.61 -0.715117 57.315 -7.27851 57.064C-13.344 56.832 -15.1171 57.103 -16.2156 58.428ZM50.9359 58.015C47.6473 61.311 51.3989 63.853 59.5527 63.853C64.9727 63.853 68.0439 62.091 67.5091 59.287C67.1898 57.612 66.1381 57.314 59.6555 57.065C54.6906 56.874 51.7551 57.194 50.9359 58.015ZM117.254 57.483C115.894 58.845 116.574 61.794 118.482 62.818C121.222 64.288 130.798 64.102 132.933 62.537C133.921 61.813 134.563 60.351 134.36 59.287C134.037 57.596 132.983 57.317 125.974 57.066C121.564 56.908 117.64 57.095 117.254 57.483ZM184.069 57.52C182.742 58.849 183.448 61.806 185.333 62.818C188.082 64.292 197.652 64.1 199.798 62.527C201.063 61.6 201.4 60.546 200.919 59.027C200.291 57.041 199.561 56.853 192.482 56.853C188.22 56.853 184.434 57.153 184.069 57.52ZM250.958 57.481C249.598 58.845 250.275 61.794 252.184 62.818C255.05 64.355 264.52 64.091 266.777 62.412C268.325 61.259 268.493 60.608 267.611 59.162C266.736 57.727 264.974 57.293 259.085 57.065C255.002 56.906 251.345 57.094 250.958 57.481ZM317.771 57.52C316.444 58.849 317.15 61.806 319.035 62.818C322.31 64.574 330.578 64.077 333.177 61.968C335.168 60.351 335.309 59.852 334.163 58.468C333.158 57.255 331.036 56.853 325.631 56.853C321.673 56.853 318.136 57.153 317.771 57.52ZM383.894 58.428C381.659 61.128 385.911 63.853 392.358 63.853C398.195 63.853 401.315 62.159 400.767 59.287C400.447 57.61 399.394 57.315 392.831 57.064C386.765 56.832 384.992 57.103 383.894 58.428ZM451.008 58.053C447.893 61.174 451.519 63.853 458.855 63.853C462.677 63.853 462.781 63.76 462.781 60.353V56.853H457.493C454.585 56.853 451.666 57.393 451.008 58.053ZM-144.477 146.28C-144.778 147.065 -144.876 148.753 -144.696 150.03C-144.415 152.014 -143.712 152.396 -139.877 152.647C-134.729 152.984 -131.214 151.076 -132.206 148.483C-133.465 145.197 -143.382 143.417 -144.477 146.28ZM-80.759 145.884C-83.1965 146.866 -83.7174 149.738 -81.8066 151.653C-79.9528 153.511 -68.5252 153.199 -66.5676 151.237C-65.6805 150.348 -65.1228 149.111 -65.3273 148.487C-66.35 145.377 -75.6184 143.813 -80.759 145.884ZM-14.0784 146.118C-20.0152 149.154 -16.5668 152.853 -7.80034 152.853C-1.35469 152.853 0.809493 151.791 0.809493 148.628C0.809493 145.186 -9.01565 143.529 -14.0784 146.118ZM52.7728 146.118C46.8091 149.168 50.2864 152.853 59.1287 152.853C65.7649 152.853 68.1307 151.535 67.4881 148.195C66.9024 145.145 57.3197 143.792 52.7728 146.118ZM119.773 145.892C116.613 147.164 115.806 149.833 118.077 151.498C120.646 153.38 131.894 153.31 133.474 151.401C135.267 149.235 134.33 146.532 131.514 145.747C127.965 144.757 122.422 144.826 119.773 145.892ZM185.648 146.073C183.193 147.26 182.722 149.77 184.6 151.653C186.252 153.308 197.525 153.193 199.838 151.498C205.47 147.37 192.904 142.566 185.648 146.073ZM252.499 145.884C250.062 146.866 249.541 149.738 251.452 151.653C253.103 153.308 264.376 153.193 266.689 151.498C272.22 147.444 260.316 142.735 252.499 145.884ZM319.351 145.884C316.913 146.866 316.392 149.738 318.303 151.653C320.157 153.511 331.584 153.199 333.542 151.237C334.429 150.348 334.987 149.111 334.782 148.487C333.759 145.377 324.491 143.813 319.351 145.884ZM386.031 146.118C380.094 149.154 383.543 152.853 392.309 152.853C398.755 152.853 400.919 151.791 400.919 148.628C400.919 145.186 391.094 143.529 386.031 146.118ZM452.882 146.118C447.434 148.904 450.355 152.853 457.863 152.853H462.781V148.853C462.781 144.895 462.742 144.853 459.04 144.868C456.982 144.876 454.211 145.438 452.882 146.118ZM-144.866 171.353V181.853H-139.694C-133.323 181.853 -123.541 179.203 -121.478 176.919C-118.822 173.978 -118.533 169.621 -120.802 166.73C-123.242 163.62 -132.137 160.853 -139.694 160.853H-144.866V171.353ZM-87.944 162.8C-90.9353 163.835 -93.9656 165.481 -94.679 166.458C-96.2086 168.556 -96.3732 173.239 -95.0063 175.798C-92.3651 180.746 -73.2966 183.527 -62.8628 180.487C-59.8026 179.596 -56.3064 178.06 -55.0921 177.075C-52.2943 174.805 -51.9271 168.777 -54.4186 166.018C-58.8487 161.112 -77.8055 159.292 -87.944 162.8ZM-20.984 162.699C-23.9155 163.749 -26.8899 165.225 -27.5943 165.98C-29.9121 168.463 -30.1576 172.265 -28.2069 175.48C-23.5353 183.179 4.55016 184.104 11.8399 176.798C13.9223 174.711 14.3973 169.876 12.8118 166.908C10.015 161.67 -10.8536 159.071 -20.984 162.699ZM46.2085 162.436C39.7478 164.47 37.3282 166.879 37.3282 171.281C37.3282 175.982 39.7329 178.312 46.5707 180.235C57.5422 183.32 73.9337 181.566 78.6912 176.798C80.7735 174.711 81.2485 169.876 79.663 166.908C77.0029 161.925 56.5275 159.189 46.2085 162.436ZM113.06 162.474C100.333 166.255 100.494 176.599 113.335 180.21C124.336 183.304 139.896 181.535 145.238 176.585C150.4 171.802 146.561 164.726 137.505 162.329C130.559 160.491 119.517 160.556 113.06 162.474ZM179.911 162.51C173.715 164.395 170.432 167.326 170.432 170.972C170.432 175.209 174.16 178.723 180.41 180.377C191.896 183.417 208.355 181.203 212.379 176.075C216.72 170.544 213.546 165.017 204.58 162.496C197.403 160.478 186.571 160.484 179.911 162.51ZM245.479 162.744C239.457 164.829 237.347 167.063 237.347 171.353C237.347 177.613 243.156 180.808 256.014 181.618C265.218 182.198 275.85 179.999 278.607 176.946C281.285 173.98 281.584 169.63 279.308 166.73C274.993 161.234 256.229 159.023 245.479 162.744ZM312.166 162.8C309.174 163.835 306.144 165.481 305.431 166.458C303.901 168.556 303.736 173.239 305.103 175.798C307.744 180.746 326.813 183.527 337.247 180.487C340.307 179.596 343.803 178.06 345.017 177.075C347.815 174.805 348.182 168.777 345.691 166.018C341.261 161.112 322.304 159.292 312.166 162.8ZM379.126 162.699C376.194 163.749 373.22 165.225 372.515 165.98C370.197 168.463 369.952 172.265 371.903 175.48C376.574 183.179 404.66 184.104 411.949 176.798C414.032 174.711 414.507 169.876 412.921 166.908C410.124 161.67 389.256 159.071 379.126 162.699ZM446.318 162.499C443.574 163.328 440.454 164.862 439.383 165.907C436.929 168.305 436.821 174.071 439.182 176.685C441.429 179.173 450.984 181.853 457.609 181.853H462.781V171.353V160.853L457.044 160.923C453.888 160.961 449.062 161.67 446.318 162.499ZM-112.937 182.562C-118.935 184.773 -126.251 198.236 -130.483 214.853C-132.014 220.859 -132.382 225.739 -132.335 239.353C-132.28 254.954 -132.05 257.09 -129.537 265.304C-126.284 275.939 -119.659 289.128 -116.204 291.852C-113.31 294.134 -107.977 295.328 -104.54 294.463C-95.1699 292.106 -85.4216 271.012 -82.8793 247.591C-81.203 232.145 -83.91 213.94 -89.9176 200.255C-93.4647 192.175 -98.0485 185.238 -100.994 183.494C-103.672 181.909 -109.855 181.427 -112.937 182.562ZM-49.3479 184.784C-55.2527 189.981 -61.5238 203.848 -64.5012 218.296C-66.6154 228.552 -66.6184 248.139 -64.5081 258.38C-62.5176 268.036 -58.1184 279.294 -53.5186 286.5C-46.4733 297.539 -35.4209 297.642 -28.5502 286.734C-14.6511 264.667 -11.9521 229.41 -22.1444 203.034C-25.8621 193.413 -30.7024 185.531 -34.1427 183.494C-35.6673 182.592 -38.963 181.853 -41.4654 181.853C-45.0754 181.853 -46.7058 182.459 -49.3479 184.784ZM17.9773 183.936C15.5637 185.529 13.4005 188.792 9.82941 196.229C-1.91545 220.688 -3.00501 248.406 6.78819 273.596C12.9325 289.399 18.564 295.34 26.6161 294.518C29.0117 294.273 32.1547 293.204 33.6005 292.143C37.1945 289.506 45.2985 273.104 47.8268 263.353C50.4819 253.11 51.4328 232.712 49.7436 222.22C47.5215 208.414 41.5019 193.405 35.3037 186.22C32.5109 182.982 31.5002 182.505 26.7019 182.159C22.3605 181.846 20.6014 182.204 17.9773 183.936ZM85.4491 183.327C79.9993 186.41 72.6726 201.597 69.0337 217.353C66.3347 229.034 66.5532 249.328 69.5056 261.353C72.1467 272.105 79.232 287.183 83.6042 291.353C86.2972 293.921 87.5195 294.353 92.0983 294.353C99.447 294.353 102.096 292.101 107.687 281.102C114.898 266.914 117.066 256.703 116.978 237.353C116.917 224.233 116.515 219.913 114.742 213.353C112.165 203.812 104.766 188.318 101.174 184.936C97.9463 181.896 89.5041 181.032 85.4491 183.327ZM151.81 183.789C147.746 186.273 142.048 196.475 138.434 207.738C129.97 234.118 132.826 263.212 146.109 285.927C153.403 298.4 164.726 297.99 172.409 284.974C187.992 258.574 188.18 219.624 172.859 192.166C168.744 184.791 164.791 181.86 158.958 181.86C156.762 181.86 153.546 182.728 151.81 183.789ZM218.224 184.122C213.938 186.991 206.206 202.005 203.172 213.353C199.95 225.397 199.95 250.918 203.17 262.853C205.907 272.998 212.129 286.346 216.112 290.62C219.153 293.881 224.523 295.519 228.718 294.463C235.795 292.683 244.124 278.664 248.423 261.293C251.21 250.037 251.499 228.353 249.01 217.218C245.755 202.649 237.568 186.086 232.261 183.336C228.037 181.146 222.18 181.474 218.224 184.122ZM286.591 182.822C281.491 184.89 275.306 195.917 270.589 211.354C268.022 219.754 267.838 221.55 267.838 238.353C267.838 255.142 268.024 256.958 270.583 265.353C273.871 276.135 280.675 289.392 284.315 292.11C285.76 293.189 288.903 294.288 291.299 294.551C297.012 295.179 301.495 292.197 305.895 284.841C317.668 265.153 320.956 235.625 314.095 211.183C311.198 200.861 303.407 185.99 299.715 183.733C296.53 181.787 290.225 181.349 286.591 182.822ZM350.528 184.99C346.343 188.672 340.136 200.999 337 211.853C333.675 223.367 333.168 247.058 335.975 259.853C338.393 270.884 346.954 289.088 351.166 292.157C355.124 295.041 361.806 295.402 365.712 292.944C371.805 289.11 378.922 274.536 382.117 259.355C384.574 247.68 384.726 229.287 382.455 218.353C379.312 203.222 371.542 186.795 365.967 183.494C364.442 182.592 361.147 181.853 358.644 181.853C354.966 181.853 353.409 182.455 350.528 184.99ZM418.879 183.488C415.391 185.968 414.301 187.448 410.512 194.853C403.479 208.597 400.544 221.667 400.63 238.853C400.699 252.883 402.304 261.781 406.898 273.596C413.042 289.399 418.673 295.34 426.726 294.518C432.831 293.894 435.714 291.33 440.519 282.25C447.036 269.932 449.888 258.798 450.54 243.126C451.355 223.503 448.856 210.811 441.091 195.136C436.2 185.263 433.273 182.627 426.634 182.118C422.715 181.817 420.737 182.167 418.879 183.488ZM-144.477 191.28C-144.778 192.065 -144.876 193.753 -144.696 195.03C-144.432 196.893 -143.676 197.405 -140.875 197.613C-137.228 197.885 -132.818 196.164 -132.179 194.219C-130.997 190.624 -143.117 187.728 -144.477 191.28ZM-81.8066 191.053C-83.8172 193.068 -83.1696 195.84 -80.4447 196.878C-75.1405 198.899 -66.358 197.354 -65.3273 194.219C-65.1228 193.595 -65.6805 192.358 -66.5676 191.469C-68.5252 189.507 -79.9528 189.195 -81.8066 191.053ZM-15.6269 191.469C-16.514 192.358 -17.0717 193.595 -16.8672 194.219C-15.8365 197.354 -7.05401 198.899 -1.74981 196.878C0.975122 195.84 1.62269 193.068 -0.387839 191.053C-2.24171 189.195 -13.6693 189.507 -15.6269 191.469ZM51.2263 191.208C45.7205 195.243 57.1431 199.91 65.1014 196.878C67.8263 195.84 68.4739 193.068 66.4634 191.053C64.8121 189.398 53.5391 189.513 51.2263 191.208ZM118.077 191.208C114.262 194.004 118.88 197.853 126.049 197.853C132.745 197.853 136.547 194.293 133.315 191.053C131.663 189.398 120.39 189.513 118.077 191.208ZM184.982 191.169C183.994 191.893 183.35 193.355 183.552 194.419C184.424 199.029 201.363 198.486 201.363 193.848C201.363 192.789 200.495 191.458 199.433 190.888C196.693 189.418 187.117 189.604 184.982 191.169ZM251.292 191.305C250.631 192.104 250.241 193.546 250.427 194.511C251.273 198.917 266.469 198.663 267.931 194.219C268.136 193.595 267.578 192.358 266.691 191.469C264.541 189.314 253.042 189.192 251.292 191.305ZM318.303 191.053C316.292 193.068 316.94 195.84 319.665 196.878C324.969 198.899 333.752 197.354 334.782 194.219C334.987 193.595 334.429 192.358 333.542 191.469C331.584 189.507 320.157 189.195 318.303 191.053ZM384.483 191.469C382.468 193.488 382.925 195 386.031 196.588C393.094 200.2 404.833 195.919 400.306 191.382C398.134 189.205 386.679 189.268 384.483 191.469ZM451.336 191.208C447.508 194.013 452.141 197.853 459.354 197.853C462.688 197.853 462.781 197.743 462.781 193.853V189.853H457.983C455.344 189.853 452.353 190.463 451.336 191.208ZM-144.118 279.423C-144.53 279.843 -144.866 281.484 -144.866 283.07C-144.866 285.942 -144.845 285.952 -139.233 285.653C-133.188 285.331 -130.221 283.131 -132.608 280.739C-133.987 279.357 -143.038 278.322 -144.118 279.423ZM-81.4255 280.169C-82.4133 280.893 -83.0549 282.355 -82.8523 283.419C-82.532 285.096 -81.4794 285.391 -74.916 285.642C-69.3364 285.856 -67.0415 285.561 -66.1794 284.519C-64.6169 282.633 -65.6706 280.187 -68.3556 279.465C-72.2339 278.423 -79.5826 278.819 -81.4255 280.169ZM-15.2617 280.738C-17.2533 282.355 -17.394 282.854 -16.2475 284.238C-15.2388 285.456 -13.1105 285.853 -7.58482 285.853C-1.35369 285.853 -0.103473 285.563 0.777566 283.912C1.6147 282.345 1.38622 281.671 -0.406794 280.412C-3.61366 278.161 -12.3213 278.352 -15.2617 280.738ZM51.1385 280.294C49.5879 281.449 49.4223 282.096 50.3083 283.544C51.2243 285.042 52.7649 285.353 59.2744 285.353C66.2518 285.353 67.1758 285.136 67.5061 283.419C67.7106 282.355 67.07 280.893 66.0822 280.169C63.6496 278.387 53.589 278.471 51.1385 280.294ZM118.117 280.179C116.838 281.116 116.513 282.155 117.008 283.718C117.666 285.798 118.201 285.914 125.85 285.642C132.981 285.389 134.037 285.113 134.36 283.419C134.563 282.355 133.921 280.893 132.933 280.169C130.603 278.461 120.452 278.468 118.117 280.179ZM184.982 280.169C183.994 280.893 183.353 282.355 183.558 283.419C183.89 285.149 184.819 285.353 192.383 285.353C199.947 285.353 200.876 285.149 201.208 283.419C201.771 280.49 198.607 278.853 192.383 278.853C189.3 278.853 185.969 279.445 184.982 280.169ZM251.892 280.091C250.866 280.862 250.203 282.349 250.409 283.419C250.739 285.136 251.663 285.353 258.641 285.353C264.994 285.353 266.708 285.023 267.585 283.631C269.303 280.9 266.954 279.492 259.98 279.072C255.7 278.815 253.165 279.134 251.892 280.091ZM318.684 280.169C317.696 280.893 317.055 282.355 317.257 283.419C317.578 285.096 318.63 285.391 325.194 285.642C330.773 285.856 333.068 285.561 333.93 284.519C335.493 282.633 334.439 280.187 331.754 279.465C327.876 278.423 320.527 278.819 318.684 280.169ZM384.848 280.738C382.856 282.355 382.716 282.854 383.862 284.238C384.871 285.456 386.999 285.853 392.525 285.853C398.756 285.853 400.006 285.563 400.887 283.912C401.724 282.345 401.496 281.671 399.703 280.412C396.496 278.161 387.788 278.352 384.848 280.738ZM451.248 280.294C449.7 281.446 449.533 282.099 450.413 283.544C451.222 284.875 453.003 285.432 457.148 285.653L462.781 285.953V282.403V278.853H457.983C455.344 278.853 452.314 279.502 451.248 280.294ZM-144.395 295.064C-144.698 295.856 -144.815 300.744 -144.657 305.928L-144.367 315.353L-140.634 315.663C-136.36 316.018 -125.489 313.463 -122.268 311.347C-119.043 309.229 -118.261 304.229 -120.646 300.983C-123.947 296.492 -143.113 291.716 -144.395 295.064ZM-83.9958 295.419C-92.4669 297.26 -95.3844 299.46 -95.7925 304.316C-96.4131 311.693 -89.1722 315.361 -74.024 315.343C-62.4737 315.33 -55.4014 312.902 -53.4777 308.288C-50.7039 301.635 -54.3647 297.744 -65.6516 295.348C-73.9092 293.594 -75.6244 293.601 -83.9958 295.419ZM-17.0168 295.359C-27.8178 297.766 -31.4377 301.76 -28.7238 308.271C-27.6312 310.891 -26.3151 311.951 -22.4936 313.285C-11.3215 317.187 5.98797 315.842 11.5107 310.642C14.4192 307.903 14.6158 301.921 11.8799 299.439C7.26213 295.251 -7.30445 293.194 -17.0168 295.359ZM51.4488 294.846C44.9293 296.003 39.5353 298.838 37.7742 302.036C36.4542 304.43 36.4721 305.089 37.9369 308.167C39.213 310.85 40.6458 311.985 44.3895 313.278C55.1476 316.994 69.9366 316.15 76.97 311.417C80.6987 308.908 81.6665 304.084 79.198 300.308C76.4581 296.117 61.2061 293.115 51.4488 294.846ZM118.547 294.831C107.438 296.835 102.431 301.128 103.983 307.321C106.287 316.522 136.714 318.737 145.116 310.316C147.943 307.483 148.217 302.932 145.737 300.035C142.262 295.975 127.676 293.183 118.547 294.831ZM184.617 294.933C177.203 296.218 171.61 299.283 170.803 302.506C169.151 309.103 173.681 313.046 185.182 315.023C197.41 317.124 211.766 313.441 213.741 307.697C215.339 303.048 212.918 299.213 206.993 297.002C200.529 294.592 191.437 293.751 184.617 294.933ZM250.254 295.181C242.501 296.964 238.975 298.934 237.862 302.105C235.55 308.694 240.276 313.002 252.033 315.023C260.247 316.434 269.524 315.336 275.906 312.197C280.906 309.738 282.434 305.022 279.516 301.054C275.698 295.861 260.534 292.818 250.254 295.181ZM316.114 295.419C307.643 297.26 304.725 299.46 304.317 304.316C303.847 309.903 306.698 312.398 315.887 314.447C324.353 316.335 332.689 315.934 340.409 313.267C344.239 311.944 345.543 310.898 346.639 308.271C349.405 301.636 345.735 297.742 334.458 295.348C326.2 293.594 324.485 293.601 316.114 295.419ZM383.093 295.359C372.665 297.683 368.935 301.53 371.094 307.735C373.438 314.473 389.948 317.826 403.441 314.304C410.987 312.334 413.89 309.702 413.89 304.834C413.89 300.408 411.781 298.224 405.753 296.409C398.491 294.222 389.964 293.827 383.093 295.359ZM451.558 294.865C445.061 295.992 439.651 298.829 437.884 302.036C436.564 304.43 436.582 305.089 438.046 308.167C440.02 312.315 445.702 314.642 456.081 315.554L462.852 316.149L462.567 305.251L462.282 294.353L459.289 294.198C457.643 294.113 454.164 294.414 451.558 294.865ZM-113.436 316.704C-120.098 319.833 -127.503 334.438 -131.004 351.353C-136.986 380.253 -128.301 417.61 -114.232 423.502C-106.877 426.582 -97.9517 423.815 -93.5236 417.083C-83.7433 402.216 -79.6904 370.787 -84.8259 349.636C-88.2713 335.444 -96.014 319.508 -100.68 317.005C-104.581 314.913 -109.382 314.799 -113.436 316.704ZM-47.0759 317.099C-50.6789 318.936 -52.1975 320.648 -55.2797 326.353C-62.6303 339.954 -66.1615 354.72 -66.1615 371.853C-66.1615 388.696 -62.6034 404.124 -56.0969 415.493C-49.2062 427.534 -33.3136 427.873 -26.4439 416.127C-14.7838 396.186 -12.5957 362.885 -21.3612 338.797C-24.5461 330.044 -30.5347 319.464 -33.3405 317.635C-37.6369 314.832 -42.2746 314.652 -47.0759 317.099ZM21.9704 315.555C13.5332 317.207 3.53443 338.809 0.773577 361.353C-1.51633 380.043 3.69508 406.433 11.9836 418.126C16.1144 423.953 25.1653 426.38 32.038 423.502C46.1067 417.61 54.7913 380.253 48.8097 351.353C45.7315 336.481 37.9718 320.078 32.7384 317.38C29.6014 315.762 24.9438 314.973 21.9704 315.555ZM87.9486 315.95C79.4415 318.419 70.1003 339.118 67.543 361.168C65.9485 374.917 67.4063 389.306 71.6987 402.17C76.9969 418.05 81.5797 423.642 90.0838 424.603C99.9798 425.721 106.426 420.265 111.36 406.599C120.659 380.846 119.402 352.424 107.946 329.432C103.658 320.824 100.337 317.156 95.6554 315.852C91.6443 314.736 92.1572 314.729 87.9486 315.95ZM154.8 315.94C150.555 317.185 146.919 321.719 142.339 331.476C136.082 344.805 134.07 354.795 134.107 372.353C134.133 384.723 134.536 388.843 136.406 395.852C141.108 413.484 147.302 422.978 155.051 424.435C167.562 426.787 175.398 418.539 181.179 396.931C183.393 388.655 183.748 385.245 183.79 371.853C183.831 358.77 183.486 355.038 181.571 347.92C177.83 334.005 170.335 319.443 165.652 316.985C162.681 315.426 158.068 314.981 154.8 315.94ZM221.32 315.944C210.24 320.516 200.343 347.354 200.378 372.734C200.401 389.225 206.152 410.515 212.754 418.542C217.917 424.82 226.008 426.578 233.083 422.959C237.503 420.698 239.378 418.688 242.041 413.353C248.882 399.647 252.412 377.62 250.45 360.864C248.45 343.788 240.002 322.556 233.292 317.745C230.106 315.461 224.524 314.621 221.32 315.944ZM286.673 316.704C280.011 319.833 272.607 334.438 269.105 351.353C263.124 380.253 271.808 417.61 285.877 423.502C293.233 426.582 302.158 423.815 306.586 417.083C316.366 402.216 320.419 370.787 315.284 349.636C311.838 335.444 304.096 319.508 299.43 317.005C295.529 314.913 290.727 314.799 286.673 316.704ZM353.013 317.099C349.232 319.017 347.945 320.544 344.375 327.353C337.547 340.372 334.909 350.903 334.323 367.489C333.619 387.422 336.708 402.73 344.013 415.493C351.485 428.551 367.515 427.855 374.684 414.16C385.57 393.367 387.329 363.447 379.07 339.599C376.066 330.927 370.034 320.019 367.103 317.959C362.661 314.838 358.026 314.555 353.013 317.099ZM422.08 315.555C418.44 316.268 413.62 321.88 409.664 330.011C397.317 355.386 397.334 389.89 409.705 413.34C413.874 421.242 418.663 424.808 425.147 424.837C433.938 424.875 439.908 419.468 444.631 407.189C454.811 380.723 452.344 346.947 438.554 324.009C434.44 317.165 428.756 314.248 422.08 315.555ZM-144.201 324.52C-144.567 324.886 -144.866 326.431 -144.866 327.952C-144.866 331.443 -142.395 332.34 -136.882 330.852C-129.358 328.822 -130.745 323.853 -138.836 323.853C-141.421 323.853 -143.836 324.153 -144.201 324.52ZM-82.3385 324.52C-83.6974 325.882 -82.9671 329.729 -81.2579 330.211C-76.3478 331.596 -73.2038 331.786 -70.1027 330.885C-66.0347 329.702 -64.8334 328.115 -66.1465 325.657C-66.9397 324.171 -68.3945 323.853 -74.3921 323.853C-78.3962 323.853 -81.9733 324.153 -82.3385 324.52ZM-16.048 325.657C-16.5778 326.649 -16.6586 328.032 -16.2286 328.73C-15.0253 330.681 -8.15655 331.865 -3.77929 330.875C0.679783 329.867 2.08167 328.236 0.70473 325.657C-0.0904997 324.167 -1.54826 323.853 -7.67163 323.853C-13.795 323.853 -15.2528 324.167 -16.048 325.657ZM50.9359 325.015C47.6902 328.268 50.7713 330.97 57.8755 331.103C65.5664 331.247 67.8453 330.276 67.4691 327.017C67.1698 324.425 66.9583 324.345 59.6665 324.065C54.6926 323.874 51.7551 324.194 50.9359 325.015ZM117.48 325.437C115.578 327.734 117.463 330.141 121.883 331.062C129.375 332.622 136.641 329.129 133.584 325.437C132.624 324.278 130.464 323.853 125.532 323.853C120.6 323.853 118.44 324.278 117.48 325.437ZM184.331 325.437C182.429 327.734 184.314 330.141 188.734 331.062C196.227 332.622 203.492 329.129 200.435 325.437C199.475 324.278 197.315 323.853 192.383 323.853C187.451 323.853 185.291 324.278 184.331 325.437ZM251.502 324.515C250.816 324.793 250.254 326.099 250.254 327.417C250.254 329.218 250.938 329.967 252.998 330.427C254.507 330.763 256.505 331.245 257.439 331.498C259.986 332.186 267.24 329.956 267.878 328.288C269.034 325.272 266.252 323.85 259.362 323.932C255.724 323.975 252.188 324.238 251.502 324.515ZM317.771 324.52C317.405 324.886 317.106 326.228 317.106 327.501C317.106 329.21 317.822 329.975 319.849 330.427C321.358 330.763 323.357 331.245 324.291 331.498C326.373 332.061 333.764 330.155 334.571 328.846C334.894 328.323 334.672 326.985 334.079 325.874C333.148 324.129 332.003 323.853 325.717 323.853C321.713 323.853 318.136 324.153 317.771 324.52ZM384.061 325.657C383.532 326.649 383.451 328.032 383.881 328.73C385.084 330.681 391.953 331.865 396.33 330.875C400.789 329.867 402.191 328.236 400.814 325.657C400.019 324.167 398.561 323.853 392.438 323.853C386.314 323.853 384.857 324.167 384.061 325.657ZM450.738 325.437C448.78 327.801 450.802 330.226 455.407 331.037C461.255 332.067 462.781 331.29 462.781 327.286V323.853H457.415C453.737 323.853 451.638 324.351 450.738 325.437ZM-144.657 441.103L-144.367 449.353L-138.381 449.097C-130.722 448.769 -120.139 445.115 -118.183 442.123C-116.863 440.104 -116.873 439.587 -118.274 437.444C-120.222 434.465 -126.962 432.853 -137.473 432.853H-144.947L-144.657 441.103ZM-91.8882 434.132C-96.928 435.533 -98.5334 437.471 -97.6324 441.069C-96.8621 444.145 -90.4843 447.142 -81.0932 448.842C-73.3365 450.246 -64.2258 448.955 -56.2485 445.32C-51.2606 443.048 -50.9633 442.71 -51.2596 439.635C-51.7595 434.437 -54.9754 433.458 -72.5273 433.163C-82.0222 433.002 -89.1004 433.357 -91.8882 434.132ZM-24.5561 433.915C-29.7305 435.208 -31.1194 436.503 -31.1194 440.031C-31.1194 442.6 -30.4709 443.258 -25.8811 445.341C-14.1153 450.681 -1.14815 450.674 10.6027 445.32C15.5906 443.048 15.8879 442.71 15.5916 439.635C15.0957 434.48 11.8858 433.509 -5.67607 433.2C-13.9078 433.055 -22.4038 433.377 -24.5561 433.915ZM41.9499 433.964C39.2829 434.599 37.0957 435.889 36.098 437.415C34.6372 439.65 34.6382 440.058 36.1119 442.312C37.8151 444.917 46.1107 447.994 54.8871 449.275C63.7105 450.564 80.8703 445.826 82.1634 441.744C83.1004 438.783 81.7055 435.839 78.7999 434.65C75.2608 433.2 47.3399 432.681 41.9499 433.964ZM108.943 433.942C98.7834 436.359 99.6056 442.686 110.601 446.718C122.602 451.118 141.603 449.191 147.839 442.94C150.58 440.194 149.366 436.388 145.244 434.805C141.164 433.237 114.561 432.605 108.943 433.942ZM177.416 433.536C169.618 434.819 166.262 439.118 170.076 442.94C177.96 450.843 205.903 451 214.514 443.19C218.42 439.647 215.749 435.648 208.333 433.935C204.061 432.949 182.665 432.672 177.416 433.536ZM242.771 433.782C236.082 435.4 233.605 438.653 236.086 442.564C238.416 446.238 255.395 450.412 263.452 449.291C270.763 448.274 280.332 444.561 281.927 442.123C284.259 438.555 281.594 435.321 275.186 433.944C269.606 432.744 247.516 432.634 242.771 433.782ZM308.221 434.132C303.182 435.533 301.576 437.471 302.477 441.069C303.247 444.145 309.625 447.142 319.016 448.842C326.773 450.246 335.884 448.955 343.861 445.32C348.849 443.048 349.146 442.71 348.85 439.635C348.35 434.437 345.134 433.458 327.582 433.163C318.087 433.002 311.009 433.357 308.221 434.132ZM375.553 433.915C370.379 435.208 368.99 436.503 368.99 440.031C368.99 442.6 369.639 443.258 374.228 445.341C385.994 450.681 398.961 450.674 410.712 445.32C415.7 443.048 415.997 442.71 415.701 439.635C415.205 434.48 411.995 433.509 394.433 433.2C386.202 433.055 377.706 433.377 375.553 433.915ZM442.059 434.022C439.342 434.632 437.224 435.86 436.207 437.415C434.747 439.65 434.748 440.058 436.221 442.312C438.088 445.168 447.261 448.351 456.708 449.423L462.781 450.111V441.482V432.853L454.55 432.96C450.022 433.019 444.401 433.497 442.059 434.022ZM-121.917 454.46C-125.484 455.329 -129.974 456.397 -131.895 456.832C-133.912 457.289 -123.792 457.64 -107.948 457.664L-80.5095 457.706L-87.9929 455.76C-98.4526 453.039 -113.695 452.455 -121.917 454.46ZM-52.5717 453.921C-71.2332 457.889 -71.7959 457.697 -41.5961 457.659C-25.6786 457.638 -15.161 457.285 -17.1505 456.838C-19.0713 456.406 -23.7858 455.341 -27.6272 454.47C-35.0956 452.778 -46.0612 452.536 -52.5717 453.921ZM14.2795 453.921C-4.38195 457.889 -4.9447 457.697 25.2551 457.659C41.1876 457.638 51.6922 457.285 49.7007 456.837C31.5571 452.756 23.053 452.055 14.2795 453.921ZM81.1307 453.921C62.4693 457.889 61.9065 457.697 92.1063 457.659C107.472 457.639 118.473 457.29 116.552 456.883C114.631 456.477 109.598 455.404 105.369 454.498C97.201 452.751 87.6981 452.524 81.1307 453.921ZM147.982 453.921C129.32 457.889 128.758 457.697 158.958 457.659C174.323 457.639 185.324 457.29 183.403 456.883C181.482 456.477 176.45 455.404 172.22 454.498C164.052 452.751 154.549 452.524 147.982 453.921ZM213.835 454.029C211.64 454.565 207.15 455.609 203.858 456.349C198.359 457.584 200.149 457.691 225.809 457.659C241.175 457.639 252.175 457.29 250.254 456.883C248.334 456.477 243.301 455.404 239.071 454.498C230.664 452.7 220.083 452.503 213.835 454.029ZM278.192 454.46C274.625 455.329 270.135 456.397 268.214 456.832C266.198 457.289 276.317 457.64 292.161 457.664L319.6 457.706L312.117 455.76C301.657 453.039 286.415 452.455 278.192 454.46ZM347.538 453.921C328.876 457.889 328.314 457.697 358.513 457.659C374.431 457.638 384.949 457.285 382.959 456.838C381.038 456.406 376.324 455.341 372.482 454.47C365.014 452.778 354.048 452.536 347.538 453.921ZM414.389 453.921C395.728 457.889 395.165 457.697 425.365 457.659C441.297 457.638 451.802 457.285 449.81 456.837C431.667 452.756 423.162 452.055 414.389 453.921Z" fill="black"/>
</g>
</svg>
